#N canvas 233 553 727 189 10;
#X obj 17 18 inlet;
#N canvas 709 338 404 374 soundfiler 0;
#X obj 197 99 list prepend;
#X obj 197 126 list;
#X obj 105 161 list append;
#X obj 105 191 list trim;
#X obj 26 177 r \$0-resize;
#X obj 105 225 soundfiler;
#X msg 26 209 1;
#X obj 49 256 spigot;
#X obj 49 289 s \$0-size;
#X obj 197 40 inlet;
#X obj 105 39 inlet;
#X msg 197 71 \$1-\$2;
#X obj 153 40 inlet;
#X msg 153 68 \$2;
#X connect 0 0 1 0;
#X connect 1 0 0 1;
#X connect 1 0 2 1;
#X connect 2 0 3 0;
#X connect 3 0 5 0;
#X connect 4 0 6 0;
#X connect 5 0 7 0;
#X connect 6 0 7 1;
#X connect 7 0 8 0;
#X connect 9 0 11 0;
#X connect 10 0 2 0;
#X connect 11 0 0 0;
#X connect 12 0 13 0;
#X connect 13 0 2 1;
#X restore 512 135 pd soundfiler;
#N canvas 947 272 267 305 load-args 0;
#N canvas 0 22 450 300 buffer_arg 0;
#X obj 72 45 list append \$1;
#X obj 72 138 print Warning:;
#X msg 72 109 [buffer~] needs a buffer name as the 1st argument;
#X obj 72 18 loadbang;
#X obj 72 76 select 0 @samps @size;
#X obj 185 186 outlet;
#X obj 288 181 symbol \$1;
#X obj 288 208 s \$0-name;
#X obj 190 143 t b b;
#X connect 0 0 4 0;
#X connect 2 0 1 0;
#X connect 3 0 0 0;
#X connect 4 0 2 0;
#X connect 4 1 2 0;
#X connect 4 2 2 0;
#X connect 4 3 8 0;
#X connect 6 0 7 0;
#X connect 8 0 5 0;
#X connect 8 1 6 0;
#X restore 72 69 pd buffer_arg;
#N canvas 84 273 507 387 channels 0;
#X obj 123 146 min 64;
#X obj 123 119 max 1;
#X obj 123 180 v ch_\$0;
#X obj 210 223 r \$0-name;
#X obj 239 251 r \$0-size;
#X obj 95 220 cyclone/uzi 1 0;
#X obj 182 293 pack f s f;
#X obj 182 336 outlet;
#X obj 68 184 sel 1;
#X obj 68 280 pack f s f;
#X obj 68 336 outlet;
#X obj 123 39 inlet;
#X obj 203 37 inlet;
#X obj 317 39 inlet;
#X obj 318 72 list append \$4;
#X obj 203 70 list append \$3;
#X connect 0 0 2 0;
#X connect 0 0 8 0;
#X connect 1 0 0 0;
#X connect 3 0 6 1;
#X connect 3 0 9 1;
#X connect 4 0 6 2;
#X connect 4 0 9 2;
#X connect 5 2 6 0;
#X connect 6 0 7 0;
#X connect 8 0 9 0;
#X connect 8 1 5 0;
#X connect 9 0 10 0;
#X connect 11 0 1 0;
#X connect 12 0 15 0;
#X connect 13 0 14 0;
#X connect 14 0 1 0;
#X connect 15 0 1 0;
#X restore 72 196 pd channels;
#N canvas 762 116 787 498 2nd_arg 0;
#X obj 236 191 t b f;
#X obj 489 362 s \$0-size;
#X obj 489 337 max 1;
#X obj 384 288 cyclone/mstosamps~;
#X obj 333 288 t b b;
#X msg 360 312 1;
#X obj 333 364 s \$0-resize;
#X obj 333 262 select -1;
#X obj 66 70 list append \$2;
#X obj 66 102 select @size @samps;
#X obj 121 139 list append \$3;
#X obj 66 169 list append \$3;
#X obj 236 106 b;
#X obj 236 162 route float symbol;
#X obj 236 191 t b f;
#X obj 337 220 s \$0-file;
#X obj 561 362 print Warning:;
#X obj 521 273 select 0;
#X msg 561 333 [buffer~]'s size not defined;
#X obj 236 133 list append \$2;
#X obj 148 289 s \$0-size;
#X obj 121 199 t b f;
#X obj 66 199 t b f;
#X obj 66 30 inlet;
#X obj 121 440 outlet;
#X obj 236 440 outlet;
#X obj 148 254 max 1;
#X obj 288 442 outlet;
#X obj 288 190 t s b;
#X connect 0 0 25 0;
#X connect 0 1 7 0;
#X connect 2 0 1 0;
#X connect 3 1 17 0;
#X connect 3 1 2 0;
#X connect 4 0 6 0;
#X connect 4 1 5 0;
#X connect 5 0 1 0;
#X connect 7 0 4 0;
#X connect 7 1 3 0;
#X connect 8 0 9 0;
#X connect 9 0 11 0;
#X connect 9 1 10 0;
#X connect 9 2 12 0;
#X connect 10 0 21 0;
#X connect 11 0 22 0;
#X connect 12 0 19 0;
#X connect 13 0 0 0;
#X connect 13 1 28 0;
#X connect 17 0 18 0;
#X connect 17 0 2 0;
#X connect 17 1 2 0;
#X connect 18 0 16 0;
#X connect 19 0 13 0;
#X connect 21 0 24 0;
#X connect 21 1 26 0;
#X connect 22 0 24 0;
#X connect 22 1 7 0;
#X connect 23 0 8 0;
#X connect 26 0 20 0;
#X connect 28 0 15 0;
#X connect 28 1 27 0;
#X restore 72 109 pd 2nd_arg;
#N canvas 293 23 734 544 3rd_arg_(size) 0;
#X obj 242 313 t b f;
#X obj 425 454 s \$0-size;
#X obj 425 429 max 1;
#X obj 320 380 cyclone/mstosamps~;
#X obj 269 380 t b b;
#X msg 296 404 1;
#X obj 269 456 s \$0-resize;
#X obj 269 354 select -1;
#X obj 242 313 t b f;
#X obj 497 454 print Warning:;
#X obj 457 365 select 0;
#X msg 497 425 [buffer~]'s size not defined;
#X obj 148 369 s \$0-size;
#X obj 121 239 t b f;
#X obj 121 500 outlet;
#X obj 148 296 max 1;
#X obj 66 110 list append \$3;
#X obj 121 179 list append \$4;
#X obj 66 209 list append \$4;
#X obj 66 75 inlet;
#X obj 71 308 t b f;
#X obj 71 308 t b f;
#X obj 242 500 outlet;
#X obj 66 142 select @size @samps;
#X obj 242 168 route float;
#X connect 0 0 22 0;
#X connect 0 1 7 0;
#X connect 2 0 1 0;
#X connect 3 1 10 0;
#X connect 3 1 2 0;
#X connect 4 0 6 0;
#X connect 4 1 5 0;
#X connect 5 0 1 0;
#X connect 7 0 4 0;
#X connect 7 1 3 0;
#X connect 10 0 11 0;
#X connect 10 0 2 0;
#X connect 10 1 2 0;
#X connect 11 0 9 0;
#X connect 13 0 14 0;
#X connect 13 1 15 0;
#X connect 15 0 12 0;
#X connect 16 0 23 0;
#X connect 17 0 13 0;
#X connect 18 0 0 0;
#X connect 18 0 20 0;
#X connect 19 0 16 0;
#X connect 20 0 14 0;
#X connect 20 1 7 0;
#X connect 23 0 18 0;
#X connect 23 1 17 0;
#X connect 23 2 24 0;
#X connect 24 0 0 0;
#X restore 129 137 pd 3rd_arg_(size);
#X obj 72 238 outlet;
#X obj 135 237 outlet;
#X connect 0 0 2 0;
#X connect 1 0 4 0;
#X connect 1 1 5 0;
#X connect 2 0 1 0;
#X connect 2 1 1 1;
#X connect 2 2 3 0;
#X connect 3 0 1 0;
#X connect 3 1 1 2;
#X restore 606 94 pd load-args;
#N canvas 396 59 533 410 rename 0;
#X obj 319 189 r \$0-name;
#X obj 59 76 symbol;
#X obj 59 50 inlet;
#X obj 162 186 cyclone/uzi 1 0;
#X obj 135 138 v ch_\$0;
#X obj 135 161 sel 1;
#X obj 212 130 s \$0-new-name;
#X obj 390 190 r \$0-new-name;
#X obj 59 132 s \$0-name;
#X obj 59 105 trigger symbol bang symbol;
#X obj 204 285 r \$0-name;
#X obj 147 251 r \$0-new-name;
#X obj 249 217 pack float symbol symbol;
#X msg 249 242 \; \$1-\$2 rename \$1-\$3;
#X obj 135 311 cyclone/join;
#X msg 147 283 set \$1;
#X msg 135 337 \; \$1 rename \$2;
#X connect 0 0 12 1;
#X connect 1 0 9 0;
#X connect 2 0 1 0;
#X connect 3 2 12 0;
#X connect 4 0 5 0;
#X connect 5 0 14 0;
#X connect 5 1 3 0;
#X connect 7 0 12 2;
#X connect 9 0 8 0;
#X connect 9 1 4 0;
#X connect 9 2 6 0;
#X connect 10 0 14 1;
#X connect 11 0 15 0;
#X connect 12 0 13 0;
#X connect 14 0 16 0;
#X connect 15 0 14 0;
#X restore 68 94 pd rename;
#N canvas 948 116 479 442 \$0-buffers 0;
#X coords 0 0 0 0 10 20 0;
#X restore 564 52 pd \$0-buffers;
#N canvas 386 286 457 330 clear 0;
#X obj 301 150 r \$0-name;
#X obj 202 177 pack float symbol;
#X msg 202 201 \; \$1-\$2 const 0;
#X obj 88 25 inlet;
#X obj 115 142 cyclone/uzi 1 0;
#X obj 88 94 v ch_\$0;
#X obj 88 58 t b f;
#X obj 88 117 sel 1;
#X obj 121 168 r \$0-name;
#X obj 88 218 pack s f;
#X obj 88 189 symbol;
#X msg 88 246 \; \$1 const 0;
#X connect 0 0 1 1;
#X connect 1 0 2 0;
#X connect 3 0 6 0;
#X connect 4 2 1 0;
#X connect 5 0 7 0;
#X connect 6 0 5 0;
#X connect 6 1 9 1;
#X connect 7 0 10 0;
#X connect 7 1 4 0;
#X connect 8 0 10 1;
#X connect 9 0 11 0;
#X connect 10 0 9 0;
#X restore 17 118 pd clear;
#N canvas 831 171 502 387 fill 0;
#X obj 35 24 inlet;
#X obj 62 192 cyclone/uzi 1 0;
#X obj 35 144 v ch_\$0;
#X obj 284 191 r \$0-name;
#X obj 149 217 pack float float symbol;
#X msg 149 241 \; \$1-\$3 const \$2;
#X obj 35 51 route float sin cos, f 47;
#X obj 128 79 route bang;
#X msg 128 103 1;
#N canvas 143 25 666 661 sin 0;
#X obj 319 197 r \$0-name;
#X obj 274 221 pack f s;
#X obj 131 292 cyclone/uzi 1 0;
#X obj 304 391 tabwrite;
#X obj 463 254 list;
#X obj 385 177 list length;
#X obj 385 204 > 1;
#X obj 385 228 sel 0 1;
#X obj 463 277 /;
#X obj 385 152 trigger list list;
#X obj 424 256 list;
#X obj 62 46 inlet;
#X obj 204 220 r \$0-size;
#X obj 169 225 f;
#X obj 169 192 trigger bang float;
#X obj 131 263 trigger float float;
#X obj 62 80 trigger bang list;
#X obj 118 344 expr sin(($f1 / ($f2 / $f3)) * 2 * pi_\$0) \; $f1;
#X obj 107 160 cyclone/uzi 1 0;
#X obj 62 112 v ch_\$0;
#X obj 88 198 r \$0-name;
#X obj 55 222 symbol;
#X obj 62 135 select 1;
#X obj 55 249 t b s;
#X msg 68 276 set \$1;
#X msg 274 247 set \$1-\$2;
#X connect 0 0 1 1;
#X connect 1 0 25 0;
#X connect 2 2 17 0;
#X connect 4 0 8 0;
#X connect 5 0 6 0;
#X connect 6 0 7 0;
#X connect 7 0 10 0;
#X connect 7 1 4 0;
#X connect 8 0 17 2;
#X connect 9 0 5 0;
#X connect 9 1 4 1;
#X connect 9 1 10 1;
#X connect 10 0 17 2;
#X connect 11 0 16 0;
#X connect 12 0 13 1;
#X connect 13 0 15 0;
#X connect 14 0 13 0;
#X connect 14 1 1 0;
#X connect 15 0 2 0;
#X connect 15 1 17 1;
#X connect 16 0 19 0;
#X connect 16 1 9 0;
#X connect 17 0 3 0;
#X connect 17 1 3 1;
#X connect 18 2 14 0;
#X connect 19 0 22 0;
#X connect 20 0 21 1;
#X connect 21 0 23 0;
#X connect 22 0 21 0;
#X connect 22 1 18 0;
#X connect 23 0 13 0;
#X connect 23 1 24 0;
#X connect 24 0 3 0;
#X connect 25 0 3 0;
#X restore 146 135 pd sin;
#X obj 221 79 route bang;
#X msg 221 103 1;
#X obj 35 108 t b f;
#N canvas 143 25 740 581 cos 0;
#X obj 467 249 r \$0-name;
#X obj 422 273 pack f s;
#X obj 279 344 cyclone/uzi 1 0;
#X obj 461 443 tabwrite;
#X obj 230 221 cyclone/uzi 1 0;
#X obj 620 306 list;
#X obj 542 229 list length;
#X obj 542 256 > 1;
#X obj 542 280 sel 0 1;
#X obj 620 329 /;
#X obj 542 204 trigger list list;
#X obj 581 308 list;
#X obj 85 114 inlet;
#X obj 352 272 r \$0-size;
#X obj 317 277 f;
#X obj 317 244 trigger bang float;
#X obj 279 315 trigger float float;
#X obj 85 148 trigger bang list;
#X obj 275 396 expr cos(($f1 / ($f2 / $f3)) * 2 * pi_\$0) \; $f1;
#X obj 85 192 v ch_\$0;
#X obj 118 248 r \$0-name;
#X obj 85 272 symbol;
#X obj 85 215 select 1;
#X obj 85 299 t b s;
#X msg 98 326 set \$1;
#X msg 422 299 set \$1-\$2;
#X connect 0 0 1 1;
#X connect 1 0 25 0;
#X connect 2 2 18 0;
#X connect 4 2 15 0;
#X connect 5 0 9 0;
#X connect 6 0 7 0;
#X connect 7 0 8 0;
#X connect 8 0 11 0;
#X connect 8 1 5 0;
#X connect 9 0 18 2;
#X connect 10 0 6 0;
#X connect 10 1 5 1;
#X connect 10 1 11 1;
#X connect 11 0 18 2;
#X connect 12 0 17 0;
#X connect 13 0 14 1;
#X connect 14 0 16 0;
#X connect 15 0 14 0;
#X connect 15 1 1 0;
#X connect 16 0 2 0;
#X connect 16 1 18 1;
#X connect 17 0 19 0;
#X connect 17 1 10 0;
#X connect 18 0 3 0;
#X connect 18 1 3 1;
#X connect 19 0 22 0;
#X connect 20 0 21 1;
#X connect 21 0 23 0;
#X connect 22 0 21 0;
#X connect 22 1 4 0;
#X connect 23 0 14 0;
#X connect 23 1 24 0;
#X connect 24 0 3 0;
#X connect 25 0 3 0;
#X restore 236 135 pd cos;
#X obj 35 167 sel 1;
#X obj 68 218 r \$0-name;
#X obj 35 268 pack s f;
#X obj 35 239 symbol;
#X msg 35 296 \; \$1 const \$2;
#N canvas 0 22 276 214 pi 0;
#X obj 97 94 expr atan(1) * 4;
#X obj 97 66 loadbang;
#X obj 97 120 v pi_\$0;
#X connect 0 0 2 0;
#X connect 1 0 0 0;
#X restore 362 122 pd pi;
#X connect 0 0 6 0;
#X connect 1 2 4 0;
#X connect 2 0 14 0;
#X connect 3 0 4 2;
#X connect 4 0 5 0;
#X connect 6 0 12 0;
#X connect 6 1 7 0;
#X connect 6 2 10 0;
#X connect 7 0 8 0;
#X connect 7 1 9 0;
#X connect 8 0 9 0;
#X connect 10 0 11 0;
#X connect 10 1 13 0;
#X connect 11 0 13 0;
#X connect 12 0 2 0;
#X connect 12 1 4 1;
#X connect 12 1 16 1;
#X connect 14 0 17 0;
#X connect 14 1 1 0;
#X connect 15 0 17 1;
#X connect 16 0 18 0;
#X connect 17 0 16 0;
#X restore 223 118 pd fill;
#N canvas 0 22 450 300 vis 0;
#X msg 241 123 vis \$1;
#X msg 241 96 1;
#X msg 273 96 0;
#X obj 231 149 send pd-\$0-buffers;
#X obj 212 54 inlet;
#X obj 287 58 inlet;
#X connect 0 0 3 0;
#X connect 1 0 0 0;
#X connect 2 0 0 0;
#X connect 4 0 1 0;
#X connect 5 0 2 0;
#X restore 144 94 pd vis;
#N canvas 351 430 519 230 apply 0;
#X obj 35 24 inlet;
#N canvas 318 219 560 455 gain 0;
#X obj 409 175 r \$0-name;
#X obj 364 199 pack f s;
#X obj 197 231 cyclone/uzi 1 0;
#X obj 231 205 r \$0-size;
#X obj 197 204 f;
#X obj 172 133 cyclone/uzi 1 0;
#X obj 172 105 v ch_\$0;
#X obj 259 166 trigger bang float;
#X obj 172 78 trigger bang float;
#X obj 277 102 v gain_\$0;
#X obj 172 35 inlet;
#X obj 311 294 tabread;
#X obj 311 390 tabwrite;
#X obj 311 318 expr $f1 * gain_\$0;
#X obj 284 254 t f f;
#X obj 290 342 swap;
#X obj 105 135 sel 1;
#X msg 364 225 set \$1-\$2;
#X obj 142 168 r \$0-name;
#X obj 109 192 symbol;
#X obj 109 226 t b s;
#X msg 168 263 set \$1;
#X connect 0 0 1 1;
#X connect 1 0 17 0;
#X connect 2 2 14 0;
#X connect 3 0 4 1;
#X connect 4 0 2 0;
#X connect 5 2 7 0;
#X connect 6 0 16 0;
#X connect 7 0 4 0;
#X connect 7 1 1 0;
#X connect 8 0 6 0;
#X connect 8 1 9 0;
#X connect 10 0 8 0;
#X connect 11 0 13 0;
#X connect 13 0 15 1;
#X connect 14 0 15 0;
#X connect 14 1 11 0;
#X connect 15 0 12 0;
#X connect 15 1 12 1;
#X connect 16 0 19 0;
#X connect 16 1 5 0;
#X connect 17 0 11 0;
#X connect 17 0 12 0;
#X connect 18 0 19 1;
#X connect 19 0 20 0;
#X connect 20 0 4 0;
#X connect 20 1 21 0;
#X connect 21 0 11 0;
#X connect 21 0 12 0;
#X restore 35 117 pd gain;
#N canvas 601 88 532 489 offset 0;
#X obj 413 180 r \$0-name;
#X obj 368 204 pack f s;
#X obj 263 236 cyclone/uzi 1 0;
#X obj 297 210 r \$0-size;
#X obj 263 209 f;
#X obj 176 138 cyclone/uzi 1 0;
#X obj 176 110 v ch_\$0;
#X obj 263 171 trigger bang float;
#X obj 176 83 trigger bang float;
#X obj 176 40 inlet;
#X obj 315 319 tabread;
#X obj 312 407 tabwrite;
#X msg 368 230 \$1-\$2;
#X obj 368 273 cyclone/prepend set;
#X obj 288 279 t f f;
#X obj 288 375 swap;
#X obj 281 107 v offset_\$0;
#X obj 315 343 expr $f1 + offset_\$0;
#X obj 128 139 sel 1;
#X obj 148 168 r \$0-name;
#X obj 128 196 symbol;
#X obj 128 235 t b s;
#X connect 0 0 1 1;
#X connect 1 0 12 0;
#X connect 2 2 14 0;
#X connect 3 0 4 1;
#X connect 4 0 2 0;
#X connect 5 2 7 0;
#X connect 6 0 18 0;
#X connect 7 0 4 0;
#X connect 7 1 1 0;
#X connect 8 0 6 0;
#X connect 8 1 16 0;
#X connect 9 0 8 0;
#X connect 10 0 17 0;
#X connect 12 0 13 0;
#X connect 13 0 10 0;
#X connect 13 0 11 0;
#X connect 14 0 15 0;
#X connect 14 1 10 0;
#X connect 15 0 11 0;
#X connect 15 1 11 1;
#X connect 17 0 15 1;
#X connect 18 0 20 0;
#X connect 18 1 5 0;
#X connect 19 0 20 1;
#X connect 20 0 21 0;
#X connect 21 0 4 0;
#X connect 21 1 13 0;
#X restore 49 92 pd offset;
#N canvas 377 101 594 545 hanning 0;
#X obj 374 206 r \$0-name;
#X obj 329 230 pack f s;
#X obj 162 262 cyclone/uzi 1 0;
#X obj 163 233 f;
#X obj 137 164 cyclone/uzi 1 0;
#X obj 95 98 v ch_\$0;
#X obj 224 197 trigger bang float;
#X obj 95 48 inlet;
#X obj 276 325 tabread;
#X obj 273 423 tabwrite;
#X msg 329 256 \$1-\$2;
#X obj 329 279 cyclone/prepend set;
#X obj 249 297 t f f;
#X obj 347 324 r \$0-size;
#X obj 205 234 r \$0-size;
#X obj 103 129 sel 1;
#X obj 137 193 r \$0-name;
#X obj 92 216 symbol;
#X obj 94 287 t b s;
#X obj 162 371 expr $f3 * (cos(pi_\$0 + (($f1/$f2) * 2*pi_\$0)) * 0.5
+ 0.5) \; $f1, f 61;
#X connect 0 0 1 1;
#X connect 1 0 10 0;
#X connect 2 2 12 0;
#X connect 3 0 2 0;
#X connect 4 2 6 0;
#X connect 5 0 15 0;
#X connect 6 0 3 0;
#X connect 6 1 1 0;
#X connect 7 0 5 0;
#X connect 8 0 19 2;
#X connect 10 0 11 0;
#X connect 11 0 8 0;
#X connect 11 0 9 0;
#X connect 12 0 19 0;
#X connect 12 1 8 0;
#X connect 13 0 19 1;
#X connect 14 0 3 1;
#X connect 15 0 17 0;
#X connect 15 1 4 0;
#X connect 16 0 17 1;
#X connect 17 0 18 0;
#X connect 18 0 3 0;
#X connect 18 1 11 0;
#X connect 19 0 9 0;
#X connect 19 1 9 1;
#X restore 137 135 pd hanning;
#N canvas 218 154 501 500 blackman 0;
#X obj 332 168 r \$0-name;
#X obj 287 192 pack f s;
#X obj 120 224 cyclone/uzi 1 0;
#X obj 121 195 f;
#X obj 95 126 cyclone/uzi 1 0;
#X obj 68 66 v ch_\$0;
#X obj 182 159 trigger bang float;
#X obj 68 16 inlet;
#X obj 234 287 tabread;
#X obj 231 404 tabwrite;
#X msg 287 218 \$1-\$2;
#X obj 287 241 cyclone/prepend set;
#X obj 207 247 t f f;
#X obj 305 286 r \$0-size;
#X obj 163 196 r \$0-size;
#X obj 120 335 expr $f3 * (0.42 - (cos($f1/$f2 * 2*pi_\$0) * 0.5))
+ (cos($f1/$f2 * 4*pi_\$0) * 0.08) \; $f1, f 47;
#X obj 68 95 sel 1;
#X obj 102 159 r \$0-name;
#X obj 57 182 symbol;
#X obj 59 253 t b s;
#X connect 0 0 1 1;
#X connect 1 0 10 0;
#X connect 2 2 12 0;
#X connect 3 0 2 0;
#X connect 4 2 6 0;
#X connect 5 0 16 0;
#X connect 6 0 3 0;
#X connect 6 1 1 0;
#X connect 7 0 5 0;
#X connect 8 0 15 2;
#X connect 10 0 11 0;
#X connect 11 0 8 0;
#X connect 11 0 9 0;
#X connect 12 0 15 0;
#X connect 12 1 8 0;
#X connect 13 0 15 1;
#X connect 14 0 3 1;
#X connect 15 0 9 0;
#X connect 15 1 9 1;
#X connect 16 0 18 0;
#X connect 16 1 4 0;
#X connect 17 0 18 1;
#X connect 18 0 19 0;
#X connect 19 0 3 0;
#X connect 19 1 11 0;
#X restore 213 89 pd blackman;
#N canvas 109 159 674 581 hamming 0;
#X obj 431 216 r \$0-name;
#X obj 386 240 pack f s;
#X obj 219 272 cyclone/uzi 1 0;
#X obj 220 243 f;
#X obj 194 174 cyclone/uzi 1 0;
#X obj 194 106 v ch_\$0;
#X obj 281 207 trigger bang float;
#X obj 194 56 inlet;
#X obj 333 335 tabread;
#X obj 330 435 tabwrite;
#X msg 386 266 \$1-\$2;
#X obj 386 289 cyclone/prepend set;
#X obj 306 306 t f f;
#X obj 404 334 r \$0-size;
#X obj 262 244 r \$0-size;
#X obj 219 384 expr $f3 * (cos(pi_\$0 + (($f1/$f2) * 2*pi_\$0)) * 0.46
+ 0.54) \; $f1, f 63;
#X obj 167 149 sel 1;
#X obj 147 203 r \$0-name;
#X obj 102 226 symbol;
#X obj 104 297 t b s;
#X connect 0 0 1 1;
#X connect 1 0 10 0;
#X connect 2 2 12 0;
#X connect 3 0 2 0;
#X connect 4 2 6 0;
#X connect 5 0 16 0;
#X connect 6 0 3 0;
#X connect 6 1 1 0;
#X connect 7 0 5 0;
#X connect 8 0 15 2;
#X connect 10 0 11 0;
#X connect 11 0 8 0;
#X connect 11 0 9 0;
#X connect 12 0 15 0;
#X connect 12 1 8 0;
#X connect 13 0 15 1;
#X connect 14 0 3 1;
#X connect 15 0 9 0;
#X connect 15 1 9 1;
#X connect 16 0 18 0;
#X connect 16 1 4 0;
#X connect 17 0 18 1;
#X connect 18 0 19 0;
#X connect 19 0 3 0;
#X connect 19 1 11 0;
#X restore 189 112 pd hamming;
#N canvas 218 154 609 490 triangle 0;
#X obj 428 161 r \$0-name;
#X obj 383 185 pack f s;
#X obj 217 188 f;
#X obj 191 119 cyclone/uzi 1 0;
#X obj 191 61 v ch_\$0;
#X obj 278 152 trigger bang float;
#X obj 191 41 inlet;
#X obj 474 301 tabread;
#X obj 383 386 tabwrite;
#X msg 383 211 \$1-\$2;
#X obj 383 234 cyclone/prepend set;
#X obj 259 189 r \$0-size;
#X obj 198 248 t f f;
#X obj 355 305 / 2;
#X obj 237 332 expr $f3 * (1 - (abs($f1 - $f2) / $f2)) \; $f1;
#X obj 329 266 t f f;
#X obj 184 86 sel 1;
#X obj 198 150 r \$0-name;
#X obj 153 173 symbol;
#X obj 153 202 t b s;
#X obj 242 240 cyclone/uzi 1 0;
#X connect 0 0 1 1;
#X connect 1 0 9 0;
#X connect 2 0 12 0;
#X connect 3 2 5 0;
#X connect 4 0 16 0;
#X connect 5 0 2 0;
#X connect 5 1 1 0;
#X connect 6 0 4 0;
#X connect 7 0 14 2;
#X connect 9 0 10 0;
#X connect 10 0 7 0;
#X connect 10 0 8 0;
#X connect 11 0 2 1;
#X connect 12 0 20 0;
#X connect 12 1 13 0;
#X connect 13 0 14 1;
#X connect 14 0 8 0;
#X connect 14 1 8 1;
#X connect 15 0 14 0;
#X connect 15 1 7 0;
#X connect 16 0 18 0;
#X connect 16 1 3 0;
#X connect 17 0 18 1;
#X connect 18 0 19 0;
#X connect 19 0 2 0;
#X connect 19 1 10 0;
#X connect 20 2 15 0;
#X restore 291 123 pd triangle;
#X obj 35 62 route gain offset hanning hamming blackman triangle welch
kaiser, f 69;
#N canvas 359 178 506 487 welch 0;
#X obj 397 159 r \$0-name;
#X obj 352 183 pack f s;
#X obj 186 188 f;
#X obj 160 117 cyclone/uzi 1 0;
#X obj 160 69 v ch_\$0;
#X obj 247 150 trigger bang float;
#X obj 160 39 inlet;
#X obj 299 278 tabread;
#X obj 370 424 tabwrite;
#X msg 352 209 \$1-\$2;
#X obj 352 232 cyclone/prepend set;
#X obj 228 187 r \$0-size;
#X obj 137 221 t f f;
#X obj 180 282 / 2;
#X obj 249 231 t f f;
#X obj 62 309 expr $f3 * (1 - pow((($f1 - $f2) / $f2) \, 2)) \; $f1
;
#X obj 133 96 sel 1;
#X obj 136 143 r \$0-name;
#X obj 103 168 symbol;
#X obj 103 195 t b s;
#X obj 55 249 cyclone/uzi 1 0;
#X connect 0 0 1 1;
#X connect 1 0 9 0;
#X connect 2 0 12 0;
#X connect 3 2 5 0;
#X connect 4 0 16 0;
#X connect 5 0 2 0;
#X connect 5 1 1 0;
#X connect 6 0 4 0;
#X connect 7 0 15 2;
#X connect 9 0 10 0;
#X connect 10 0 7 0;
#X connect 10 0 8 0;
#X connect 11 0 2 1;
#X connect 12 0 20 0;
#X connect 12 1 13 0;
#X connect 13 0 15 1;
#X connect 14 0 15 0;
#X connect 14 1 7 0;
#X connect 15 0 8 0;
#X connect 15 1 8 1;
#X connect 16 0 18 0;
#X connect 16 1 3 0;
#X connect 17 0 18 1;
#X connect 18 0 19 0;
#X connect 19 0 2 0;
#X connect 19 1 10 0;
#X connect 20 2 14 0;
#X restore 343 98 pd welch;
#X connect 0 0 7 0;
#X connect 7 0 1 0;
#X connect 7 1 2 0;
#X connect 7 2 3 0;
#X connect 7 3 5 0;
#X connect 7 4 4 0;
#X connect 7 5 6 0;
#X connect 7 6 8 0;
#X restore 264 94 pd apply;
#N canvas 411 87 511 542 read/write 0;
#X obj 91 206 symbol;
#X obj 16 115 route bang;
#X obj 63 331 list prepend read;
#X obj 16 146 openpanel;
#X obj 303 244 cyclone/fromsymbol @separator .;
#X obj 202 450 list prepend write -aiff;
#X msg 338 389 write -aiff;
#X obj 111 164 r \$0-file;
#X msg 303 416 write -wave;
#X obj 212 162 list;
#X obj 238 337 t l l, f 6;
#X msg 271 371 \$2;
#X msg 238 372 \$1;
#X obj 212 138 cyclone/fromsymbol @separator .;
#X obj 143 88 route bang, f 12;
#X obj 212 288 list length;
#X obj 212 261 t l l;
#X obj 178 290 > 1;
#X obj 238 315 list;
#X obj 179 313 sel 0 1;
#X obj 201 344 list;
#X obj 303 365 route wav aiff aif;
#X obj 143 111 savepanel;
#X obj 201 505 outlet;
#X obj 40 23 inlet;
#X obj 89 272 r \$0-resize;
#X msg 89 298 read -resize;
#X msg 303 324 \$2;
#X obj 303 287 list;
#X obj 40 51 route read readagain write filetype;
#X obj 230 87 route wav3 aiff;
#X connect 0 0 2 0;
#X connect 0 0 4 0;
#X connect 1 0 3 0;
#X connect 1 1 0 0;
#X connect 2 0 23 0;
#X connect 3 0 0 0;
#X connect 4 0 28 0;
#X connect 5 0 23 0;
#X connect 6 0 5 1;
#X connect 7 0 0 0;
#X connect 8 0 5 1;
#X connect 9 0 16 0;
#X connect 10 0 12 0;
#X connect 10 1 11 0;
#X connect 11 0 21 0;
#X connect 12 0 5 0;
#X connect 13 0 9 0;
#X connect 14 0 22 0;
#X connect 14 1 13 0;
#X connect 15 0 17 0;
#X connect 16 0 15 0;
#X connect 16 1 18 1;
#X connect 16 1 20 1;
#X connect 17 0 19 0;
#X connect 18 0 10 0;
#X connect 19 0 20 0;
#X connect 19 1 18 0;
#X connect 20 0 12 0;
#X connect 21 0 8 0;
#X connect 21 1 6 0;
#X connect 21 2 6 0;
#X connect 22 0 13 0;
#X connect 24 0 29 0;
#X connect 25 0 26 0;
#X connect 26 0 2 1;
#X connect 27 0 21 0;
#X connect 28 0 27 0;
#X connect 29 0 1 0;
#X connect 29 1 0 0;
#X connect 29 2 14 0;
#X connect 29 3 30 0;
#X connect 30 0 8 0;
#X connect 30 1 6 0;
#X restore 512 94 pd read/write;
#N canvas 147 315 743 423 init-buffers 0;
#X obj 340 246 send pd-\$0-buffers;
#X msg 340 85 \$1;
#X obj 313 61 t l l;
#X obj 313 31 inlet;
#X obj 438 123 - 1;
#X obj 389 98 + 20;
#X obj 389 120 t f f;
#X obj 389 75 * 100;
#X obj 340 149 pack float float float \$0;
#X obj 235 215 list append \$0;
#X obj 340 107 t f f;
#X msg 340 178 obj 6 \$2 cnv 15 448 80 empty empty empty 3 10 2 14
-233017 -66577 0 \, obj 5 \$3 pd ch\$1_\$4;
#X msg 276 276 \; pd-ch\$1_\$4 array \$1-\$2 \$3 float 2 \, coords
0 1 \$3 -1 450 82 2 0 0 \, vis 0;
#X obj 152 33 inlet;
#X obj 74 268 list append \$0;
#X obj 153 74 t l l;
#X msg 115 329 \; pd-ch\$1_\$4 array \$2 \$3 float 2 \, coords 0 1
\$3 -1 450 82 2 0 0 \, vis 0;
#X connect 1 0 10 0;
#X connect 2 0 9 0;
#X connect 2 1 1 0;
#X connect 3 0 2 0;
#X connect 4 0 8 2;
#X connect 5 0 6 0;
#X connect 6 0 8 1;
#X connect 6 1 4 0;
#X connect 7 0 5 0;
#X connect 8 0 11 0;
#X connect 9 0 12 0;
#X connect 10 0 8 0;
#X connect 10 1 7 0;
#X connect 11 0 0 0;
#X connect 12 0 0 0;
#X connect 13 0 15 0;
#X connect 14 0 16 0;
#X connect 15 0 14 0;
#X connect 15 1 1 0;
#X connect 16 0 0 0;
#X restore 606 135 pd init-buffers;
#N canvas 445 200 495 313 norm 0;
#X obj 134 144 cyclone/uzi 1 0;
#X obj 107 96 v ch_\$0;
#X obj 356 148 r \$0-name;
#X obj 107 42 inlet;
#X obj 107 68 trigger bang float;
#X obj 221 174 pack float float symbol;
#X msg 221 198 \; \$1-\$3 normalize \$2;
#X obj 107 120 sel 1;
#X obj 140 178 r \$0-name;
#X obj 107 204 symbol;
#X obj 107 241 pack s f;
#X msg 108 269 \; \$1 normalize \$2;
#X connect 0 2 5 0;
#X connect 1 0 7 0;
#X connect 2 0 5 2;
#X connect 3 0 4 0;
#X connect 4 0 1 0;
#X connect 4 1 5 1;
#X connect 4 1 10 1;
#X connect 5 0 6 0;
#X connect 7 0 9 0;
#X connect 7 1 0 0;
#X connect 8 0 9 1;
#X connect 9 0 10 0;
#X connect 10 0 11 0;
#X restore 457 94 pd norm;
#N canvas 239 23 768 460 resize 0;
#X obj 431 165 s \$0-size;
#X obj 217 114 cyclone/mstosamps~;
#X obj 217 78 inlet;
#X obj 345 82 inlet;
#X obj 338 253 cyclone/uzi 1 0;
#X obj 307 205 v ch_\$0;
#X obj 598 237 r \$0-name;
#X obj 463 263 pack float float symbol;
#X obj 345 154 t b f;
#X obj 308 228 sel 1;
#X obj 345 279 r \$0-name;
#X obj 321 329 pack s f;
#X obj 296 300 symbol;
#X msg 463 287 \; \$1-\$3 resize \$2;
#X msg 321 357 \; \$1 resize \$2;
#X connect 1 1 8 0;
#X connect 2 0 1 0;
#X connect 3 0 8 0;
#X connect 4 2 7 0;
#X connect 5 0 9 0;
#X connect 6 0 7 2;
#X connect 7 0 13 0;
#X connect 8 0 5 0;
#X connect 8 1 7 1;
#X connect 8 1 11 1;
#X connect 8 1 0 0;
#X connect 9 0 12 0;
#X connect 9 1 4 0;
#X connect 10 0 12 1;
#X connect 11 0 14 0;
#X connect 12 0 11 0;
#X restore 341 94 pd resize;
#X obj 17 63 route clear name set open close fill apply setsize size
sizeinsamps samps normalize, f 83;
#X connect 0 0 13 0;
#X connect 2 0 1 1;
#X connect 2 0 10 0;
#X connect 2 1 1 2;
#X connect 2 1 10 1;
#X connect 9 0 1 0;
#X connect 13 0 5 0;
#X connect 13 1 3 0;
#X connect 13 2 3 0;
#X connect 13 3 7 0;
#X connect 13 4 7 1;
#X connect 13 5 6 0;
#X connect 13 6 8 0;
#X connect 13 7 12 0;
#X connect 13 8 12 0;
#X connect 13 9 12 1;
#X connect 13 10 12 1;
#X connect 13 11 11 0;
#X connect 13 12 9 0;
