#N canvas 409 133 685 592 10;
#X obj 356 170 f;
#X obj 391 176 + 1;
#X obj 356 245 * 25;
#X msg 356 299 obj 25 \$1 table \$2-\$3 \$4;
#X obj 356 269 pack float float symbol float;
#X obj 356 198 trigger f f;
#X obj 356 147 until;
#X obj 60 20 inlet;
#X obj 356 223 + 1;
#X msg 272 316 \$2-\$3;
#X msg 407 142 0;
#X obj 272 344 list prepend;
#X obj 362 385 list;
#X obj 299 420 list append;
#X obj 299 450 list trim;
#X obj 117 169 symbol;
#X obj 356 119 min 64;
#X obj 356 92 max 1;
#X obj 60 138 route bang;
#N canvas 263 65 578 704 check-args 0;
#X obj 176 81 sel 0;
#X obj 176 50 list append \$1;
#X obj 151 164 print Warning:;
#X msg 151 114 [buffer~] needs a buffer name as the 1st argument;
#X obj 253 164 t b b;
#X obj 176 23 loadbang;
#X obj 100 317 route float;
#X msg 100 289 \$1;
#X obj 149 347 symbol;
#X obj 216 363 list;
#X obj 82 226 list append \$2 \$3 \$4;
#X obj 149 369 t s b;
#X msg 216 418 \$3;
#X msg 315 416 \$2;
#X obj 82 256 trigger l l;
#X obj 57 357 t b f;
#X msg 77 474 \$2;
#X obj 280 190 symbol \$1;
#X obj 280 217 s \$0-name;
#X obj 216 618 s \$0-channels;
#X obj 149 627 s \$0-file;
#X obj 420 570 s \$0-size;
#X obj 420 545 max 1;
#X obj 315 516 cyclone/mstosamps~;
#X obj 77 446 list;
#X obj 216 392 trigger list list;
#X obj 264 516 t b b;
#X msg 291 540 1;
#X obj 264 572 s \$0-resize;
#X obj 264 490 select -1;
#X connect 0 0 3 0;
#X connect 0 1 4 0;
#X connect 1 0 0 0;
#X connect 3 0 2 0;
#X connect 4 0 10 0;
#X connect 4 1 17 0;
#X connect 5 0 1 0;
#X connect 6 0 15 0;
#X connect 6 1 8 0;
#X connect 7 0 6 0;
#X connect 8 0 11 0;
#X connect 9 0 25 0;
#X connect 10 0 14 0;
#X connect 11 0 20 0;
#X connect 11 1 9 0;
#X connect 12 0 19 0;
#X connect 13 0 29 0;
#X connect 14 0 7 0;
#X connect 14 1 9 1;
#X connect 14 1 24 1;
#X connect 15 0 24 0;
#X connect 15 1 29 0;
#X connect 16 0 19 0;
#X connect 17 0 18 0;
#X connect 22 0 21 0;
#X connect 23 1 22 0;
#X connect 24 0 16 0;
#X connect 25 0 12 0;
#X connect 25 1 13 0;
#X connect 26 0 28 0;
#X connect 26 1 27 0;
#X connect 27 0 21 0;
#X connect 29 0 26 0;
#X connect 29 1 23 0;
#X restore 516 152 pd check-args;
#X obj 470 239 r \$0-name;
#X obj 538 238 r \$0-size;
#X obj 113 341 r \$0-file;
#X obj 186 244 r \$0-resize;
#X obj 299 484 soundfiler;
#X obj 87 388 list prepend read;
#X msg 186 270 read -resize;
#X obj 53 169 openpanel;
#N canvas 979 150 450 300 \$0-buffers 0;
#X restore 503 78 pd \$0-buffers;
#X obj 356 333 send pd-\$0-buffers;
#X msg 301 208 clear;
#X obj 356 39 r \$0-channels;
#X obj 356 64 f;
#X obj 274 122 t b b;
#N canvas 396 59 395 362 rename 0;
#X obj 162 247 pack f s s;
#X obj 235 144 r \$0-name;
#X obj 180 143 t s b s;
#X obj 74 146 until;
#X obj 89 94 r \$0-channels;
#X obj 74 119 f;
#X obj 102 119 t b b;
#X msg 129 156 0;
#X obj 88 191 f;
#X obj 116 195 + 1;
#X msg 162 272 \; \$1-\$3 rename \$1-\$2;
#X obj 180 120 symbol;
#X obj 180 48 inlet;
#X connect 0 0 10 0;
#X connect 1 0 0 2;
#X connect 2 0 0 2;
#X connect 2 1 6 0;
#X connect 2 2 0 1;
#X connect 3 0 8 0;
#X connect 4 0 5 1;
#X connect 5 0 3 0;
#X connect 6 0 5 0;
#X connect 6 1 7 0;
#X connect 7 0 8 1;
#X connect 8 0 9 0;
#X connect 8 0 0 0;
#X connect 9 0 8 1;
#X connect 11 0 2 0;
#X connect 12 0 11 0;
#X restore 135 138 pd rename;
#X obj 60 82 route read clear name open close;
#X msg 202 166 vis \$1;
#X msg 202 139 1;
#X msg 234 139 0;
#X msg 276 391 1;
#X obj 243 515 spigot;
#X obj 243 538 s \$0-size;
#X obj 70 454 list prepend write aiff;
#X obj 439 418 cyclone/fromsymbol @separator .;
#X obj 443 446 cyclone/iter;
#X obj 441 494 bng 15 250 50 0 empty empty empty 17 7 0 10 -262144
-1 -1;
#X obj 444 469 sel wav aif aiff;
#X obj 487 493 bng 15 250 50 0 empty empty empty 17 7 0 10 -262144
-1 -1;
#X msg 441 389 symbol x.wav;
#X connect 0 0 1 0;
#X connect 0 0 5 0;
#X connect 1 0 0 1;
#X connect 2 0 4 0;
#X connect 3 0 29 0;
#X connect 4 0 9 0;
#X connect 4 0 3 0;
#X connect 5 0 8 0;
#X connect 5 1 4 1;
#X connect 6 0 0 0;
#X connect 7 0 35 0;
#X connect 8 0 2 0;
#X connect 9 0 11 0;
#X connect 10 0 0 1;
#X connect 11 0 12 0;
#X connect 12 0 11 1;
#X connect 12 0 13 1;
#X connect 13 0 14 0;
#X connect 14 0 24 0;
#X connect 15 0 25 0;
#X connect 16 0 6 0;
#X connect 17 0 16 0;
#X connect 18 0 27 0;
#X connect 18 1 15 0;
#X connect 20 0 4 2;
#X connect 21 0 4 3;
#X connect 22 0 25 0;
#X connect 23 0 26 0;
#X connect 23 0 39 0;
#X connect 24 0 40 0;
#X connect 25 0 13 0;
#X connect 26 0 25 1;
#X connect 27 0 25 0;
#X connect 30 0 29 0;
#X connect 31 0 32 0;
#X connect 32 0 17 0;
#X connect 33 0 32 0;
#X connect 33 1 30 0;
#X connect 33 1 10 0;
#X connect 35 0 18 0;
#X connect 35 1 33 0;
#X connect 35 2 34 0;
#X connect 35 3 37 0;
#X connect 35 4 38 0;
#X connect 36 0 29 0;
#X connect 37 0 36 0;
#X connect 38 0 36 0;
#X connect 39 0 40 1;
#X connect 40 0 41 0;
#X connect 43 0 44 0;
#X connect 44 0 46 0;
#X connect 46 0 45 0;
#X connect 46 1 47 0;
#X connect 48 0 43 0;
