#N canvas 512 63 724 201 10;
#X obj 27 21 inlet;
#N canvas 207 69 304 346 soundfiler 0;
#X obj 197 99 list prepend;
#X obj 197 126 list;
#X obj 105 161 list append;
#X obj 105 191 list trim;
#X obj 26 177 r \$0-resize;
#X obj 105 225 soundfiler;
#X msg 26 209 1;
#X obj 49 256 spigot;
#X obj 49 289 s \$0-size;
#X obj 197 40 inlet;
#X obj 105 39 inlet;
#X msg 197 71 \$1-\$2;
#X obj 153 40 inlet;
#X msg 153 68 \$2;
#X obj 191 228 print buffer_test;
#X connect 0 0 1 0;
#X connect 1 0 0 1;
#X connect 1 0 2 1;
#X connect 2 0 3 0;
#X connect 3 0 5 0;
#X connect 3 0 14 0;
#X connect 4 0 6 0;
#X connect 5 0 7 0;
#X connect 6 0 7 1;
#X connect 7 0 8 0;
#X connect 9 0 11 0;
#X connect 10 0 2 0;
#X connect 11 0 0 0;
#X connect 12 0 13 0;
#X connect 13 0 2 1;
#X restore 483 136 pd soundfiler;
#N canvas 520 40 617 685 load-args 0;
#X obj 72 45 list append \$1;
#X obj 72 138 print Warning:;
#X msg 72 109 [buffer~] needs a buffer name as the 1st argument;
#X obj 72 18 loadbang;
#X obj 180 249 route float;
#X msg 180 228 \$1;
#X obj 243 302 symbol;
#X obj 325 314 list;
#X obj 180 177 list append \$2 \$3 \$4;
#X msg 319 367 \$3;
#X msg 352 367 \$2;
#X obj 180 303 t b f;
#X msg 195 364 \$2;
#X obj 320 147 symbol \$1;
#X obj 320 174 s \$0-name;
#X obj 243 398 s \$0-file;
#X obj 508 511 s \$0-size;
#X obj 508 486 max 1;
#X obj 403 457 cyclone/mstosamps~;
#X obj 195 336 list;
#X obj 352 457 t b b;
#X msg 379 481 1;
#X obj 352 513 s \$0-resize;
#X obj 352 431 select -1;
#X obj 278 495 min 64;
#X obj 278 468 max 1;
#X obj 292 529 v ch_\$0;
#X obj 393 547 r \$0-name;
#X obj 440 575 r \$0-size;
#X obj 278 554 cyclone/uzi 1 0;
#X obj 365 577 pack f s f;
#X obj 365 610 outlet;
#X obj 180 146 trigger bang bang;
#X obj 72 76 select 0;
#X obj 180 207 trigger list list;
#X obj 325 340 t l l;
#X obj 243 324 trigger s b;
#X obj 251 528 sel 1;
#X obj 251 584 pack f s f;
#X obj 251 615 outlet;
#X connect 0 0 33 0;
#X connect 2 0 1 0;
#X connect 3 0 0 0;
#X connect 4 0 11 0;
#X connect 4 1 6 0;
#X connect 5 0 4 0;
#X connect 6 0 36 0;
#X connect 7 0 35 0;
#X connect 8 0 34 0;
#X connect 9 0 25 0;
#X connect 10 0 23 0;
#X connect 11 0 19 0;
#X connect 11 1 23 0;
#X connect 12 0 25 0;
#X connect 13 0 14 0;
#X connect 17 0 16 0;
#X connect 18 1 17 0;
#X connect 19 0 12 0;
#X connect 20 0 22 0;
#X connect 20 1 21 0;
#X connect 21 0 16 0;
#X connect 23 0 20 0;
#X connect 23 1 18 0;
#X connect 24 0 26 0;
#X connect 24 0 37 0;
#X connect 25 0 24 0;
#X connect 27 0 30 1;
#X connect 27 0 38 1;
#X connect 28 0 30 2;
#X connect 28 0 38 2;
#X connect 29 2 30 0;
#X connect 30 0 31 0;
#X connect 32 0 8 0;
#X connect 32 1 13 0;
#X connect 33 0 2 0;
#X connect 33 1 32 0;
#X connect 34 0 5 0;
#X connect 34 1 7 1;
#X connect 34 1 19 1;
#X connect 35 0 9 0;
#X connect 35 1 10 0;
#X connect 36 0 15 0;
#X connect 36 1 7 0;
#X connect 37 0 38 0;
#X connect 37 1 29 0;
#X connect 38 0 39 0;
#X restore 577 95 pd load-args;
#N canvas 396 59 305 242 rename 0;
#X obj 142 137 pack f s s;
#X obj 199 104 r \$0-name;
#X msg 142 162 \; \$1-\$3 rename \$1-\$2;
#X obj 53 54 symbol;
#X obj 53 28 inlet;
#X obj 30 133 v ch_\$0;
#X obj 30 162 cyclone/uzi 1 0;
#X obj 53 83 t symbol bang symbol;
#X connect 0 0 2 0;
#X connect 1 0 0 2;
#X connect 3 0 7 0;
#X connect 4 0 3 0;
#X connect 5 0 6 0;
#X connect 6 2 0 0;
#X connect 7 0 0 2;
#X connect 7 1 5 0;
#X connect 7 2 0 1;
#X restore 70 99 pd rename;
#N canvas 867 30 463 442 \$0-buffers 1;
#X coords 0 0 0 0 10 20 0;
#X restore 535 44 pd \$0-buffers;
#N canvas 386 286 432 233 clear 0;
#X obj 88 77 cyclone/uzi 1 0;
#X obj 88 49 v ch_\$0;
#X obj 274 80 r \$0-name;
#X obj 175 107 pack float symbol;
#X msg 175 131 \; \$1-\$2 const 0;
#X obj 88 25 inlet;
#X connect 0 2 3 0;
#X connect 1 0 0 0;
#X connect 2 0 3 1;
#X connect 3 0 4 0;
#X connect 5 0 1 0;
#X restore 27 131 pd clear;
#N canvas 139 372 502 387 fill 0;
#X obj 35 24 inlet;
#X obj 66 192 cyclone/uzi 1 0;
#X obj 35 144 v ch_\$0;
#X obj 288 191 r \$0-name;
#X obj 153 217 pack float float symbol;
#X msg 153 241 \; \$1-\$3 const \$2;
#X obj 35 51 route float sin cos, f 47;
#X obj 128 79 route bang;
#X msg 128 103 1;
#X obj 351 198 expr atan(1) * 4;
#X obj 351 224 v pi;
#X obj 351 170 loadbang;
#N canvas 143 25 496 403 sin 0;
#X obj 268 167 r \$0-name;
#X obj 223 191 pack f s;
#X obj 80 262 cyclone/uzi 1 0;
#X obj 262 361 tabwrite;
#X obj 31 139 cyclone/uzi 1 0;
#X obj 31 111 v ch_\$0;
#X obj 223 245 cyclone/prepend set;
#X obj 421 224 list;
#X obj 343 147 list length;
#X obj 343 174 > 1;
#X obj 343 198 sel 0 1;
#X obj 421 247 /;
#X obj 343 122 trigger list list;
#X obj 382 226 list;
#X obj 244 32 inlet;
#X obj 153 190 r \$0-size;
#X obj 118 195 f;
#X msg 223 217 \$1-\$2;
#X obj 118 162 trigger bang float;
#X obj 80 233 trigger float float;
#X obj 244 66 trigger bang list;
#X obj 76 314 expr sin(($f1 / ($f2 / $f3)) * 2 * pi) \; $f1;
#X connect 0 0 1 1;
#X connect 1 0 17 0;
#X connect 2 2 21 0;
#X connect 4 2 18 0;
#X connect 5 0 4 0;
#X connect 6 0 3 0;
#X connect 7 0 11 0;
#X connect 8 0 9 0;
#X connect 9 0 10 0;
#X connect 10 0 13 0;
#X connect 10 1 7 0;
#X connect 11 0 21 2;
#X connect 12 0 8 0;
#X connect 12 1 7 1;
#X connect 12 1 13 1;
#X connect 13 0 21 2;
#X connect 14 0 20 0;
#X connect 15 0 16 1;
#X connect 16 0 19 0;
#X connect 17 0 6 0;
#X connect 18 0 16 0;
#X connect 18 1 1 0;
#X connect 19 0 2 0;
#X connect 19 1 21 1;
#X connect 20 0 5 0;
#X connect 20 1 12 0;
#X connect 21 0 3 0;
#X connect 21 1 3 1;
#X restore 146 135 pd sin;
#X obj 221 79 route bang;
#X msg 221 103 1;
#X obj 35 108 t b f;
#N canvas 143 25 496 403 cos 0;
#X obj 268 167 r \$0-name;
#X obj 223 191 pack f s;
#X obj 80 262 cyclone/uzi 1 0;
#X obj 262 361 tabwrite;
#X obj 31 139 cyclone/uzi 1 0;
#X obj 31 111 v ch_\$0;
#X obj 223 245 cyclone/prepend set;
#X obj 421 224 list;
#X obj 343 147 list length;
#X obj 343 174 > 1;
#X obj 343 198 sel 0 1;
#X obj 421 247 /;
#X obj 343 122 trigger list list;
#X obj 382 226 list;
#X obj 244 32 inlet;
#X obj 76 314 expr cos(($f1 / ($f2 / $f3)) * 2 * pi) \; $f1;
#X obj 153 190 r \$0-size;
#X obj 118 195 f;
#X msg 223 217 \$1-\$2;
#X obj 118 162 trigger bang float;
#X obj 80 233 trigger float float;
#X obj 244 66 trigger bang list;
#X connect 0 0 1 1;
#X connect 1 0 18 0;
#X connect 2 2 15 0;
#X connect 4 2 19 0;
#X connect 5 0 4 0;
#X connect 6 0 3 0;
#X connect 7 0 11 0;
#X connect 8 0 9 0;
#X connect 9 0 10 0;
#X connect 10 0 13 0;
#X connect 10 1 7 0;
#X connect 11 0 15 2;
#X connect 12 0 8 0;
#X connect 12 1 7 1;
#X connect 12 1 13 1;
#X connect 13 0 15 2;
#X connect 14 0 21 0;
#X connect 15 0 3 0;
#X connect 15 1 3 1;
#X connect 16 0 17 1;
#X connect 17 0 20 0;
#X connect 18 0 6 0;
#X connect 19 0 17 0;
#X connect 19 1 1 0;
#X connect 20 0 2 0;
#X connect 20 1 15 1;
#X connect 21 0 5 0;
#X connect 21 1 12 0;
#X restore 236 135 pd cos;
#X obj 36 167 sel 1;
#X obj 73 218 r \$0-name;
#X obj 49 268 pack s f;
#X obj 24 239 symbol;
#X msg 49 296 \; \$1 const \$2;
#X connect 0 0 6 0;
#X connect 1 2 4 0;
#X connect 2 0 17 0;
#X connect 3 0 4 2;
#X connect 4 0 5 0;
#X connect 6 0 15 0;
#X connect 6 1 7 0;
#X connect 6 2 13 0;
#X connect 7 0 8 0;
#X connect 7 1 12 0;
#X connect 8 0 12 0;
#X connect 9 0 10 0;
#X connect 11 0 9 0;
#X connect 13 0 14 0;
#X connect 13 1 16 0;
#X connect 14 0 16 0;
#X connect 15 0 2 0;
#X connect 15 1 4 1;
#X connect 15 1 19 1;
#X connect 17 0 20 0;
#X connect 17 1 1 0;
#X connect 18 0 20 1;
#X connect 19 0 21 0;
#X connect 20 0 19 0;
#X restore 244 162 pd fill;
#N canvas 0 22 450 300 vis 0;
#X msg 241 123 vis \$1;
#X msg 241 96 1;
#X msg 273 96 0;
#X obj 231 149 send pd-\$0-buffers;
#X obj 212 54 inlet;
#X obj 287 58 inlet;
#X connect 0 0 3 0;
#X connect 1 0 0 0;
#X connect 2 0 0 0;
#X connect 4 0 1 0;
#X connect 5 0 2 0;
#X restore 157 98 pd vis;
#N canvas 351 430 519 230 apply 0;
#X obj 35 24 inlet;
#N canvas 318 219 445 448 gain 0;
#X obj 301 173 r \$0-name;
#X obj 256 197 pack f s;
#X obj 89 229 cyclone/uzi 1 0;
#X obj 123 203 r \$0-size;
#X obj 89 202 f;
#X obj 64 131 cyclone/uzi 1 0;
#X obj 64 103 v ch_\$0;
#X obj 151 164 trigger bang float;
#X obj 64 76 trigger bang float;
#X obj 169 100 v gain_\$0;
#X obj 64 33 inlet;
#X obj 203 292 tabread;
#X obj 200 380 tabwrite;
#X msg 256 223 \$1-\$2;
#X obj 256 246 cyclone/prepend set;
#X obj 203 316 expr $f1 * gain_\$0;
#X obj 176 252 t f f;
#X obj 176 348 swap;
#X connect 0 0 1 1;
#X connect 1 0 13 0;
#X connect 2 2 16 0;
#X connect 3 0 4 1;
#X connect 4 0 2 0;
#X connect 5 2 7 0;
#X connect 6 0 5 0;
#X connect 7 0 4 0;
#X connect 7 1 1 0;
#X connect 8 0 6 0;
#X connect 8 1 9 0;
#X connect 10 0 8 0;
#X connect 11 0 15 0;
#X connect 13 0 14 0;
#X connect 14 0 11 0;
#X connect 14 0 12 0;
#X connect 15 0 17 1;
#X connect 16 0 17 0;
#X connect 16 1 11 0;
#X connect 17 0 12 0;
#X connect 17 1 12 1;
#X restore 35 117 pd gain;
#N canvas 176 58 455 445 offset 0;
#X obj 301 173 r \$0-name;
#X obj 256 197 pack f s;
#X obj 89 229 cyclone/uzi 1 0;
#X obj 123 203 r \$0-size;
#X obj 89 202 f;
#X obj 64 131 cyclone/uzi 1 0;
#X obj 64 103 v ch_\$0;
#X obj 151 164 trigger bang float;
#X obj 64 76 trigger bang float;
#X obj 64 33 inlet;
#X obj 203 292 tabread;
#X obj 200 380 tabwrite;
#X msg 256 223 \$1-\$2;
#X obj 256 246 cyclone/prepend set;
#X obj 176 252 t f f;
#X obj 176 348 swap;
#X obj 169 100 v offset_\$0;
#X obj 203 316 expr $f1 + offset_\$0;
#X connect 0 0 1 1;
#X connect 1 0 12 0;
#X connect 2 2 14 0;
#X connect 3 0 4 1;
#X connect 4 0 2 0;
#X connect 5 2 7 0;
#X connect 6 0 5 0;
#X connect 7 0 4 0;
#X connect 7 1 1 0;
#X connect 8 0 6 0;
#X connect 8 1 16 0;
#X connect 9 0 8 0;
#X connect 10 0 17 0;
#X connect 12 0 13 0;
#X connect 13 0 10 0;
#X connect 13 0 11 0;
#X connect 14 0 15 0;
#X connect 14 1 10 0;
#X connect 15 0 11 0;
#X connect 15 1 11 1;
#X connect 17 0 15 1;
#X restore 49 92 pd offset;
#N canvas 815 351 589 495 Welch 0;
#X obj 437 168 r \$0-name;
#X obj 392 192 pack f s;
#X obj 226 197 f;
#X obj 200 126 cyclone/uzi 1 0;
#X obj 200 78 v ch_\$0;
#X obj 287 159 trigger bang float;
#X obj 200 48 inlet;
#X obj 339 287 tabread;
#X obj 410 433 tabwrite;
#X msg 392 218 \$1-\$2;
#X obj 392 241 cyclone/prepend set;
#X obj 268 196 r \$0-size;
#X obj 177 230 t f f;
#X obj 220 291 / 2;
#X obj 145 258 uzi 1 0;
#X obj 289 240 t f f;
#X obj 102 318 expr $f3 * (1 - pow((($f1 - $f2) / $f2) \, 2)) \; $f1
;
#X obj 173 105 sel 1;
#X obj 176 152 r \$0-name;
#X obj 143 177 symbol;
#X obj 143 204 t b s;
#X obj 165 56 bng 15 250 50 0 empty empty empty 17 7 0 10 -262144 -1
-1;
#X connect 0 0 1 1;
#X connect 1 0 9 0;
#X connect 2 0 12 0;
#X connect 3 2 5 0;
#X connect 4 0 17 0;
#X connect 5 0 2 0;
#X connect 5 1 1 0;
#X connect 6 0 4 0;
#X connect 7 0 16 2;
#X connect 9 0 10 0;
#X connect 10 0 7 0;
#X connect 10 0 8 0;
#X connect 11 0 2 1;
#X connect 12 0 14 0;
#X connect 12 1 13 0;
#X connect 13 0 16 1;
#X connect 14 2 15 0;
#X connect 15 0 16 0;
#X connect 15 1 7 0;
#X connect 16 0 8 0;
#X connect 16 1 8 1;
#X connect 17 0 19 0;
#X connect 17 1 3 0;
#X connect 18 0 19 1;
#X connect 19 0 20 0;
#X connect 20 0 2 0;
#X connect 20 1 10 0;
#X connect 21 0 4 0;
#X restore 308 98 pd Welch;
#N canvas 109 159 515 478 hanning 0;
#X obj 332 168 r \$0-name;
#X obj 287 192 pack f s;
#X obj 120 224 cyclone/uzi 1 0;
#X obj 121 195 f;
#X obj 95 126 cyclone/uzi 1 0;
#X obj 95 98 v ch_\$0;
#X obj 182 159 trigger bang float;
#X obj 95 48 inlet;
#X obj 234 287 tabread;
#X obj 231 375 tabwrite;
#X msg 287 218 \$1-\$2;
#X obj 287 241 cyclone/prepend set;
#X obj 207 247 t f f;
#X obj 305 286 r \$0-size;
#X obj 163 196 r \$0-size;
#X obj 120 335 expr $f3 * (cos(pi + (($f1/$f2) * 2*pi))) \; $f1;
#X connect 0 0 1 1;
#X connect 1 0 10 0;
#X connect 2 2 12 0;
#X connect 3 0 2 0;
#X connect 4 2 6 0;
#X connect 5 0 4 0;
#X connect 6 0 3 0;
#X connect 6 1 1 0;
#X connect 7 0 5 0;
#X connect 8 0 15 2;
#X connect 10 0 11 0;
#X connect 11 0 8 0;
#X connect 11 0 9 0;
#X connect 12 0 15 0;
#X connect 12 1 8 0;
#X connect 13 0 15 1;
#X connect 14 0 3 1;
#X connect 15 0 9 0;
#X connect 15 1 9 1;
#X restore 137 135 pd hanning;
#N canvas 218 154 501 500 blackman 0;
#X obj 332 168 r \$0-name;
#X obj 287 192 pack f s;
#X obj 120 224 cyclone/uzi 1 0;
#X obj 121 195 f;
#X obj 95 126 cyclone/uzi 1 0;
#X obj 95 98 v ch_\$0;
#X obj 182 159 trigger bang float;
#X obj 95 48 inlet;
#X obj 234 287 tabread;
#X obj 231 404 tabwrite;
#X msg 287 218 \$1-\$2;
#X obj 287 241 cyclone/prepend set;
#X obj 207 247 t f f;
#X obj 305 286 r \$0-size;
#X obj 163 196 r \$0-size;
#X obj 120 335 expr $f3 * (0.42 - (cos($f1/$f2 * 2*pi) * 0.5)) + (cos($f1/$f2
* 4*pi) * 0.08) \; $f1, f 47;
#X connect 0 0 1 1;
#X connect 1 0 10 0;
#X connect 2 2 12 0;
#X connect 3 0 2 0;
#X connect 4 2 6 0;
#X connect 5 0 4 0;
#X connect 6 0 3 0;
#X connect 6 1 1 0;
#X connect 7 0 5 0;
#X connect 8 0 15 2;
#X connect 10 0 11 0;
#X connect 11 0 8 0;
#X connect 11 0 9 0;
#X connect 12 0 15 0;
#X connect 12 1 8 0;
#X connect 13 0 15 1;
#X connect 14 0 3 1;
#X connect 15 0 9 0;
#X connect 15 1 9 1;
#X restore 213 89 pd blackman;
#N canvas 109 159 515 478 hamming 0;
#X obj 332 168 r \$0-name;
#X obj 287 192 pack f s;
#X obj 120 224 cyclone/uzi 1 0;
#X obj 121 195 f;
#X obj 95 126 cyclone/uzi 1 0;
#X obj 95 98 v ch_\$0;
#X obj 182 159 trigger bang float;
#X obj 95 48 inlet;
#X obj 234 287 tabread;
#X obj 231 375 tabwrite;
#X msg 287 218 \$1-\$2;
#X obj 287 241 cyclone/prepend set;
#X obj 207 247 t f f;
#X obj 305 286 r \$0-size;
#X obj 163 196 r \$0-size;
#X obj 120 335 expr $f3 * (cos(pi + (($f1/$f2) * 2*pi)) * 0.46 + 0.54)
\; $f1;
#X connect 0 0 1 1;
#X connect 1 0 10 0;
#X connect 2 2 12 0;
#X connect 3 0 2 0;
#X connect 4 2 6 0;
#X connect 5 0 4 0;
#X connect 6 0 3 0;
#X connect 6 1 1 0;
#X connect 7 0 5 0;
#X connect 8 0 15 2;
#X connect 10 0 11 0;
#X connect 11 0 8 0;
#X connect 11 0 9 0;
#X connect 12 0 15 0;
#X connect 12 1 8 0;
#X connect 13 0 15 1;
#X connect 14 0 3 1;
#X connect 15 0 9 0;
#X connect 15 1 9 1;
#X restore 179 112 pd hamming;
#N canvas 218 154 609 490 triangle 0;
#X obj 428 161 r \$0-name;
#X obj 383 185 pack f s;
#X obj 217 188 f;
#X obj 191 119 cyclone/uzi 1 0;
#X obj 191 91 v ch_\$0;
#X obj 278 152 trigger bang float;
#X obj 191 41 inlet;
#X obj 330 280 tabread;
#X obj 401 426 tabwrite;
#X msg 383 211 \$1-\$2;
#X obj 383 234 cyclone/prepend set;
#X obj 259 189 r \$0-size;
#X obj 168 223 t f f;
#X obj 211 284 / 2;
#X obj 136 251 uzi 1 0;
#X obj 93 311 expr $f3 * (1 - (abs($f1 - $f2) / $f2)) \; $f1;
#X obj 280 233 t f f;
#X connect 0 0 1 1;
#X connect 1 0 9 0;
#X connect 2 0 12 0;
#X connect 3 2 5 0;
#X connect 4 0 3 0;
#X connect 5 0 2 0;
#X connect 5 1 1 0;
#X connect 6 0 4 0;
#X connect 7 0 15 2;
#X connect 9 0 10 0;
#X connect 10 0 7 0;
#X connect 10 0 8 0;
#X connect 11 0 2 1;
#X connect 12 0 14 0;
#X connect 12 1 13 0;
#X connect 13 0 15 1;
#X connect 14 2 16 0;
#X connect 15 0 8 0;
#X connect 15 1 8 1;
#X connect 16 0 15 0;
#X connect 16 1 7 0;
#X restore 291 133 pd triangle;
#X obj 35 62 route gain offset hanning hamming blackman triangle welch
kaiser, f 69;
#N canvas 195 35 1080 604 kaiser 0;
#X obj 437 168 r \$0-name;
#X obj 392 192 pack f s;
#X obj 226 195 f;
#X obj 200 126 cyclone/uzi 1 0;
#X obj 200 98 v ch_\$0;
#X obj 287 159 trigger bang float;
#X obj 200 48 inlet;
#X obj 339 287 tabread;
#X obj 410 433 tabwrite;
#X msg 392 218 \$1-\$2;
#X obj 392 241 cyclone/prepend set;
#X obj 268 196 r \$0-size;
#X obj 177 230 t f f;
#X obj 220 291 / 2;
#X obj 145 258 uzi 1 0;
#X obj 289 240 t f f;
#X obj 102 318 expr $f3 * (1 - pow((($f1 - $f2) / $f2) \, 2)) \; $f1
;
#X connect 0 0 1 1;
#X connect 1 0 9 0;
#X connect 2 0 12 0;
#X connect 3 2 5 0;
#X connect 4 0 3 0;
#X connect 5 0 2 0;
#X connect 5 1 1 0;
#X connect 7 0 16 2;
#X connect 9 0 10 0;
#X connect 10 0 7 0;
#X connect 10 0 8 0;
#X connect 11 0 2 1;
#X connect 12 0 14 0;
#X connect 12 1 13 0;
#X connect 13 0 16 1;
#X connect 14 2 15 0;
#X connect 15 0 16 0;
#X connect 15 1 7 0;
#X connect 16 0 8 0;
#X connect 16 1 8 1;
#X restore 394 110 pd kaiser;
#X connect 0 0 8 0;
#X connect 8 0 1 0;
#X connect 8 1 2 0;
#X connect 8 2 4 0;
#X connect 8 3 6 0;
#X connect 8 4 5 0;
#X connect 8 5 7 0;
#X connect 8 6 3 0;
#X connect 8 7 9 0;
#X restore 288 137 pd apply;
#N canvas 411 87 511 542 read/write 0;
#X obj 91 206 symbol;
#X obj 16 115 route bang;
#X obj 63 331 list prepend read;
#X obj 16 146 openpanel;
#X obj 303 244 cyclone/fromsymbol @separator .;
#X obj 202 450 list prepend write -aiff;
#X msg 338 389 write -aiff;
#X obj 111 164 r \$0-file;
#X msg 303 416 write -wave;
#X obj 212 162 list;
#X obj 238 337 t l l, f 6;
#X msg 271 371 \$2;
#X msg 238 372 \$1;
#X obj 212 138 cyclone/fromsymbol @separator .;
#X obj 143 88 route bang, f 12;
#X obj 212 288 list length;
#X obj 212 261 t l l;
#X obj 178 290 > 1;
#X obj 238 315 list;
#X obj 179 313 sel 0 1;
#X obj 201 344 list;
#X obj 303 365 route wav aiff aif;
#X obj 143 111 savepanel;
#X obj 201 505 outlet;
#X obj 40 23 inlet;
#X obj 89 272 r \$0-resize;
#X msg 89 298 read -resize;
#X msg 303 324 \$2;
#X obj 303 287 list;
#X obj 40 51 route read readagain write filetype;
#X obj 230 87 route wav3 aiff;
#X connect 0 0 2 0;
#X connect 0 0 4 0;
#X connect 1 0 3 0;
#X connect 1 1 0 0;
#X connect 2 0 23 0;
#X connect 3 0 0 0;
#X connect 4 0 28 0;
#X connect 5 0 23 0;
#X connect 6 0 5 1;
#X connect 7 0 0 0;
#X connect 8 0 5 1;
#X connect 9 0 16 0;
#X connect 10 0 12 0;
#X connect 10 1 11 0;
#X connect 11 0 21 0;
#X connect 12 0 5 0;
#X connect 13 0 9 0;
#X connect 14 0 22 0;
#X connect 14 1 13 0;
#X connect 15 0 17 0;
#X connect 16 0 15 0;
#X connect 16 1 18 1;
#X connect 16 1 20 1;
#X connect 17 0 19 0;
#X connect 18 0 10 0;
#X connect 19 0 20 0;
#X connect 19 1 18 0;
#X connect 20 0 12 0;
#X connect 21 0 8 0;
#X connect 21 1 6 0;
#X connect 21 2 6 0;
#X connect 22 0 13 0;
#X connect 24 0 29 0;
#X connect 25 0 26 0;
#X connect 26 0 2 1;
#X connect 27 0 21 0;
#X connect 28 0 27 0;
#X connect 29 0 1 0;
#X connect 29 1 0 0;
#X connect 29 2 14 0;
#X connect 29 3 30 0;
#X connect 30 0 8 0;
#X connect 30 1 6 0;
#X restore 483 91 pd read/write;
#N canvas 147 315 743 423 init-buffers 0;
#X obj 340 246 send pd-\$0-buffers;
#X msg 340 85 \$1;
#X obj 313 61 t l l;
#X obj 313 31 inlet;
#X obj 438 123 - 1;
#X obj 389 98 + 20;
#X obj 389 120 t f f;
#X obj 389 75 * 100;
#X obj 340 149 pack float float float \$0;
#X obj 235 215 list append \$0;
#X obj 340 107 t f f;
#X msg 340 178 obj 6 \$2 cnv 15 448 80 empty empty empty 3 10 2 14
-233017 -66577 0 \, obj 5 \$3 pd ch\$1_\$4;
#X msg 276 276 \; pd-ch\$1_\$4 array \$1-\$2 \$3 float 2 \, coords
0 1 \$3 -1 450 82 2 0 0 \, vis 0;
#X obj 152 33 inlet;
#X obj 74 268 list append \$0;
#X obj 153 74 t l l;
#X msg 115 329 \; pd-ch\$1_\$4 array \$2 \$3 float 2 \, coords 0 1
\$3 -1 450 82 2 0 0 \, vis 0;
#X connect 1 0 10 0;
#X connect 2 0 9 0;
#X connect 2 1 1 0;
#X connect 3 0 2 0;
#X connect 4 0 8 2;
#X connect 5 0 6 0;
#X connect 6 0 8 1;
#X connect 6 1 4 0;
#X connect 7 0 5 0;
#X connect 8 0 11 0;
#X connect 9 0 12 0;
#X connect 10 0 8 0;
#X connect 10 1 7 0;
#X connect 11 0 0 0;
#X connect 12 0 0 0;
#X connect 13 0 15 0;
#X connect 14 0 16 0;
#X connect 15 0 14 0;
#X connect 15 1 1 0;
#X connect 16 0 0 0;
#X restore 601 137 pd init-buffers;
#X obj 27 66 route clear name set open close fill apply setsize sizeinsamps
normalize, f 73;
#N canvas 445 200 349 235 norm 0;
#X obj 35 106 cyclone/uzi 1 0;
#X obj 35 78 v ch_\$0;
#X obj 257 110 r \$0-name;
#X obj 35 24 inlet;
#X obj 35 50 trigger bang float;
#X obj 122 136 pack float float symbol;
#X msg 122 160 \; \$1-\$3 normalize \$2;
#X connect 0 2 5 0;
#X connect 1 0 0 0;
#X connect 2 0 5 2;
#X connect 3 0 4 0;
#X connect 4 0 1 0;
#X connect 4 1 5 1;
#X connect 5 0 6 0;
#X restore 418 91 pd norm;
#N canvas 239 23 768 460 resize 0;
#X obj 431 165 s \$0-size;
#X obj 247 114 cyclone/mstosamps~;
#X obj 247 78 inlet;
#X obj 345 82 inlet;
#X obj 376 238 cyclone/uzi 1 0;
#X obj 345 190 v ch_\$0;
#X obj 598 237 r \$0-name;
#X obj 463 263 pack float float symbol;
#X obj 345 154 t b f;
#X obj 346 213 sel 1;
#X obj 383 264 r \$0-name;
#X obj 359 314 pack s f;
#X obj 334 285 symbol;
#X msg 463 287 \; \$1-\$3 resize \$2;
#X msg 359 342 \; \$1 resize \$2;
#X connect 1 1 8 0;
#X connect 2 0 1 0;
#X connect 3 0 8 0;
#X connect 4 2 7 0;
#X connect 5 0 9 0;
#X connect 6 0 7 2;
#X connect 7 0 13 0;
#X connect 8 0 5 0;
#X connect 8 1 7 1;
#X connect 8 1 11 1;
#X connect 8 1 0 0;
#X connect 9 0 12 0;
#X connect 9 1 4 0;
#X connect 10 0 12 1;
#X connect 11 0 14 0;
#X connect 12 0 11 0;
#X restore 324 100 pd resize;
#X connect 0 0 11 0;
#X connect 2 0 10 0;
#X connect 2 0 1 1;
#X connect 2 1 10 1;
#X connect 2 1 1 2;
#X connect 9 0 1 0;
#X connect 11 0 5 0;
#X connect 11 1 3 0;
#X connect 11 2 3 0;
#X connect 11 3 7 0;
#X connect 11 4 7 1;
#X connect 11 5 6 0;
#X connect 11 6 8 0;
#X connect 11 7 13 0;
#X connect 11 8 13 1;
#X connect 11 9 12 0;
#X connect 11 10 9 0;
