#N canvas 318 59 643 287 10;
#X obj 58 24 inlet;
#N canvas 427 63 578 704 check-args 0;
#X obj 176 81 sel 0;
#X obj 176 50 list append \$1;
#X obj 151 164 print Warning:;
#X msg 151 114 [buffer~] needs a buffer name as the 1st argument;
#X obj 253 164 t b b;
#X obj 176 23 loadbang;
#X obj 100 317 route float;
#X msg 100 289 \$1;
#X obj 149 347 symbol;
#X obj 216 363 list;
#X obj 82 226 list append \$2 \$3 \$4;
#X obj 149 369 t s b;
#X msg 216 418 \$3;
#X msg 315 416 \$2;
#X obj 82 256 trigger l l;
#X obj 57 357 t b f;
#X msg 77 474 \$2;
#X obj 280 190 symbol \$1;
#X obj 280 217 s \$0-name;
#X obj 188 618 s \$0-channels;
#X obj 121 627 s \$0-file;
#X obj 420 570 s \$0-size;
#X obj 420 545 max 1;
#X obj 315 516 cyclone/mstosamps~;
#X obj 77 446 list;
#X obj 216 392 trigger list list;
#X obj 264 516 t b b;
#X msg 291 540 1;
#X obj 264 572 s \$0-resize;
#X obj 264 490 select -1;
#X obj 188 544 min 64;
#X obj 188 517 max 1;
#X obj 204 575 v ch_\$0;
#X connect 0 0 3 0;
#X connect 0 1 4 0;
#X connect 1 0 0 0;
#X connect 3 0 2 0;
#X connect 4 0 10 0;
#X connect 4 1 17 0;
#X connect 5 0 1 0;
#X connect 6 0 15 0;
#X connect 6 1 8 0;
#X connect 7 0 6 0;
#X connect 8 0 11 0;
#X connect 9 0 25 0;
#X connect 10 0 14 0;
#X connect 11 0 20 0;
#X connect 11 1 9 0;
#X connect 12 0 31 0;
#X connect 13 0 29 0;
#X connect 14 0 7 0;
#X connect 14 1 9 1;
#X connect 14 1 24 1;
#X connect 15 0 24 0;
#X connect 15 1 29 0;
#X connect 16 0 31 0;
#X connect 17 0 18 0;
#X connect 22 0 21 0;
#X connect 23 1 22 0;
#X connect 24 0 16 0;
#X connect 25 0 12 0;
#X connect 25 1 13 0;
#X connect 26 0 28 0;
#X connect 26 1 27 0;
#X connect 27 0 21 0;
#X connect 29 0 26 0;
#X connect 29 1 23 0;
#X connect 30 0 32 0;
#X connect 30 0 19 0;
#X connect 31 0 30 0;
#X restore 470 92 pd check-args;
#X obj 478 173 r \$0-name;
#X obj 546 172 r \$0-size;
#X obj 324 129 r \$0-channels;
#N canvas 396 59 395 362 rename 0;
#X obj 162 247 pack f s s;
#X obj 235 144 r \$0-name;
#X obj 180 143 t s b s;
#X obj 74 146 until;
#X obj 89 94 r \$0-channels;
#X obj 74 119 f;
#X obj 102 119 t b b;
#X msg 129 156 0;
#X obj 88 191 f;
#X obj 116 195 + 1;
#X msg 162 272 \; \$1-\$3 rename \$1-\$2;
#X obj 180 120 symbol;
#X obj 180 48 inlet;
#X connect 0 0 10 0;
#X connect 1 0 0 2;
#X connect 2 0 0 2;
#X connect 2 1 6 0;
#X connect 2 2 0 1;
#X connect 3 0 8 0;
#X connect 4 0 5 1;
#X connect 5 0 3 0;
#X connect 6 0 5 0;
#X connect 6 1 7 0;
#X connect 7 0 8 1;
#X connect 8 0 9 0;
#X connect 8 0 0 0;
#X connect 9 0 8 1;
#X connect 11 0 2 0;
#X connect 12 0 11 0;
#X restore 89 120 pd rename;
#X msg 231 181 vis \$1;
#X msg 231 154 1;
#X msg 263 154 0;
#N canvas 920 89 460 442 \$0-buffers 1;
#X restore 476 244 pd \$0-buffers;
#X obj 58 69 route read clear name open close write;
#N canvas 411 87 590 552 read-write 0;
#X obj 127 142 symbol;
#X obj 63 111 route bang;
#X obj 97 331 list prepend read;
#X obj 63 142 openpanel;
#X obj 346 244 cyclone/fromsymbol @separator .;
#X obj 205 450 list prepend write -aiff;
#X msg 381 389 write -aiff;
#X obj 346 185 r \$0-file;
#X msg 346 416 write -wave;
#X obj 255 162 list;
#X obj 281 337 t l l, f 6;
#X msg 314 371 \$2;
#X msg 281 372 \$1;
#X obj 255 138 cyclone/fromsymbol @separator .;
#X obj 186 79 route bang, f 12;
#X obj 255 288 list length;
#X obj 255 261 t l l;
#X obj 222 290 > 1;
#X obj 281 315 list;
#X obj 222 313 sel 0 1;
#X obj 244 344 list;
#X obj 346 365 route wav aiff aif;
#X obj 186 102 savepanel;
#X obj 205 505 outlet;
#X obj 186 39 inlet;
#X obj 63 41 inlet;
#X obj 135 219 r \$0-resize;
#X msg 135 245 read -resize;
#X msg 346 324 \$2;
#X obj 346 287 list;
#X connect 0 0 2 0;
#X connect 0 0 4 0;
#X connect 1 0 3 0;
#X connect 1 1 0 0;
#X connect 2 0 23 0;
#X connect 3 0 2 0;
#X connect 3 0 4 0;
#X connect 4 0 29 0;
#X connect 5 0 23 0;
#X connect 6 0 5 1;
#X connect 7 0 4 0;
#X connect 7 0 2 0;
#X connect 8 0 5 1;
#X connect 9 0 16 0;
#X connect 10 0 12 0;
#X connect 10 1 11 0;
#X connect 11 0 21 0;
#X connect 12 0 5 0;
#X connect 13 0 9 0;
#X connect 14 0 22 0;
#X connect 14 1 13 0;
#X connect 15 0 17 0;
#X connect 16 0 15 0;
#X connect 16 1 18 1;
#X connect 16 1 20 1;
#X connect 17 0 19 0;
#X connect 18 0 10 0;
#X connect 19 0 20 0;
#X connect 19 1 18 0;
#X connect 20 0 12 0;
#X connect 21 0 8 0;
#X connect 21 1 6 0;
#X connect 21 2 6 0;
#X connect 22 0 13 0;
#X connect 24 0 14 0;
#X connect 25 0 1 0;
#X connect 26 0 27 0;
#X connect 27 0 2 1;
#X connect 28 0 21 0;
#X connect 29 0 28 0;
#X restore 58 161 pd read-write;
#N canvas 207 69 304 346 soundfiler 1;
#X obj 108 89 list prepend;
#X obj 198 130 list;
#X obj 135 165 list append;
#X obj 135 195 list trim;
#X obj 46 171 r \$0-resize;
#X obj 135 229 soundfiler;
#X msg 96 206 1;
#X obj 79 260 spigot;
#X obj 79 283 s \$0-size;
#X obj 108 30 inlet;
#X obj 48 30 inlet;
#X msg 108 61 \$1-\$2;
#X connect 0 0 1 0;
#X connect 1 0 0 1;
#X connect 1 0 2 1;
#X connect 2 0 3 0;
#X connect 3 0 5 0;
#X connect 4 0 6 0;
#X connect 5 0 7 0;
#X connect 6 0 7 1;
#X connect 7 0 8 0;
#X connect 9 0 11 0;
#X connect 10 0 2 0;
#X connect 11 0 0 0;
#X restore 209 242 pd soundfiler;
#X obj 324 156 cyclone/uzi 1 0;
#N canvas 274 402 538 425 send-buffers 0;
#X obj 54 30 inlet;
#X obj 129 244 send pd-\$0-buffers;
#X msg 143 219 clear;
#X msg 129 83 \$1;
#X obj 102 59 t l l;
#X obj 102 29 inlet;
#X obj 227 121 - 1;
#X obj 178 96 + 20;
#X obj 178 118 t f f;
#X obj 178 73 * 100;
#X obj 129 147 pack float float float \$0;
#X msg 129 176 obj 6 \$2 cnv 15 428 80 empty empty empty 3 10 2 14
-233017 -66577 0 \, obj 5 \$3 pd ch\$1_\$4;
#X obj 24 213 list append \$0;
#X msg 65 274 \; pd-ch\$1_\$4 array \$1-\$2 \$3 float 2 \, coords 0
1 \$3 -1 430 82 2 0 0 \, vis 0;
#X obj 129 105 t f f;
#X obj 268 67 cyclone/uzi 1 0;
#X obj 268 39 v ch_\$0;
#X obj 454 70 r \$0-name;
#X obj 355 97 pack float symbol;
#X msg 355 121 \; \$1-\$2 const 0;
#X obj 268 15 r \$0-clear;
#X connect 0 0 1 0;
#X connect 2 0 1 0;
#X connect 3 0 14 0;
#X connect 4 0 12 0;
#X connect 4 1 3 0;
#X connect 5 0 4 0;
#X connect 6 0 10 2;
#X connect 7 0 8 0;
#X connect 8 0 10 1;
#X connect 8 1 6 0;
#X connect 9 0 7 0;
#X connect 10 0 11 0;
#X connect 11 0 1 0;
#X connect 12 0 13 0;
#X connect 13 0 1 0;
#X connect 14 0 10 0;
#X connect 14 1 9 0;
#X connect 15 2 18 0;
#X connect 16 0 15 0;
#X connect 17 0 18 1;
#X connect 18 0 19 0;
#X connect 20 0 16 0;
#X restore 324 242 pd send-buffers;
#X obj 411 203 pack float symbol float;
#X obj 83 93 s \$0-clear;
#X connect 0 0 10 0;
#X connect 2 0 15 1;
#X connect 3 0 15 2;
#X connect 4 0 13 0;
#X connect 6 0 14 0;
#X connect 7 0 6 0;
#X connect 8 0 6 0;
#X connect 10 0 11 0;
#X connect 10 1 16 0;
#X connect 10 2 5 0;
#X connect 10 3 7 0;
#X connect 10 4 8 0;
#X connect 10 5 11 1;
#X connect 11 0 12 0;
#X connect 13 2 15 0;
#X connect 15 0 14 1;
#X connect 15 0 12 1;
