#N canvas 596 108 693 195 10;
#X obj 27 21 inlet;
#N canvas 207 69 304 346 soundfiler 0;
#X obj 108 89 list prepend;
#X obj 198 130 list;
#X obj 135 165 list append;
#X obj 135 195 list trim;
#X obj 46 171 r \$0-resize;
#X obj 135 229 soundfiler;
#X msg 96 206 1;
#X obj 79 260 spigot;
#X obj 79 283 s \$0-size;
#X obj 108 30 inlet;
#X obj 48 30 inlet;
#X msg 108 61 \$1-\$2;
#X connect 0 0 1 0;
#X connect 1 0 0 1;
#X connect 1 0 2 1;
#X connect 2 0 3 0;
#X connect 3 0 5 0;
#X connect 4 0 6 0;
#X connect 5 0 7 0;
#X connect 6 0 7 1;
#X connect 7 0 8 0;
#X connect 9 0 11 0;
#X connect 10 0 2 0;
#X connect 11 0 0 0;
#X restore 450 133 pd soundfiler;
#N canvas 758 103 617 685 load-args 0;
#X obj 72 45 list append \$1;
#X obj 72 138 print Warning:;
#X msg 72 109 [buffer~] needs a buffer name as the 1st argument;
#X obj 72 18 loadbang;
#X obj 180 249 route float;
#X msg 180 228 \$1;
#X obj 243 302 symbol;
#X obj 325 314 list;
#X obj 180 177 list append \$2 \$3 \$4;
#X msg 319 367 \$3;
#X msg 352 367 \$2;
#X obj 180 303 t b f;
#X msg 195 364 \$2;
#X obj 320 147 symbol \$1;
#X obj 320 174 s \$0-name;
#X obj 243 398 s \$0-file;
#X obj 508 511 s \$0-size;
#X obj 508 486 max 1;
#X obj 403 457 cyclone/mstosamps~;
#X obj 195 336 list;
#X obj 352 457 t b b;
#X msg 379 481 1;
#X obj 352 513 s \$0-resize;
#X obj 352 431 select -1;
#X obj 278 495 min 64;
#X obj 278 468 max 1;
#X obj 292 529 v ch_\$0;
#X obj 393 547 r \$0-name;
#X obj 440 575 r \$0-size;
#X obj 278 554 cyclone/uzi 1 0;
#X obj 365 577 pack f s f;
#X obj 365 610 outlet;
#X obj 180 146 trigger bang bang;
#X obj 72 76 select 0;
#X obj 180 207 trigger list list;
#X obj 325 340 t l l;
#X obj 243 324 trigger s b;
#X connect 0 0 33 0;
#X connect 2 0 1 0;
#X connect 3 0 0 0;
#X connect 4 0 11 0;
#X connect 4 1 6 0;
#X connect 5 0 4 0;
#X connect 6 0 36 0;
#X connect 7 0 35 0;
#X connect 8 0 34 0;
#X connect 9 0 25 0;
#X connect 10 0 23 0;
#X connect 11 0 19 0;
#X connect 11 1 23 0;
#X connect 12 0 25 0;
#X connect 13 0 14 0;
#X connect 17 0 16 0;
#X connect 18 1 17 0;
#X connect 19 0 12 0;
#X connect 20 0 22 0;
#X connect 20 1 21 0;
#X connect 21 0 16 0;
#X connect 23 0 20 0;
#X connect 23 1 18 0;
#X connect 24 0 26 0;
#X connect 24 0 29 0;
#X connect 25 0 24 0;
#X connect 27 0 30 1;
#X connect 28 0 30 2;
#X connect 29 2 30 0;
#X connect 30 0 31 0;
#X connect 32 0 8 0;
#X connect 32 1 13 0;
#X connect 33 0 2 0;
#X connect 33 1 32 0;
#X connect 34 0 5 0;
#X connect 34 1 7 1;
#X connect 34 1 19 1;
#X connect 35 0 9 0;
#X connect 35 1 10 0;
#X connect 36 0 15 0;
#X connect 36 1 7 0;
#X restore 568 105 pd load-args;
#X obj 27 66 route clear name set open close fill apply sizeinsamps
setsize, f 63;
#N canvas 396 59 305 242 rename 0;
#X obj 142 137 pack f s s;
#X obj 199 104 r \$0-name;
#X msg 142 162 \; \$1-\$3 rename \$1-\$2;
#X obj 53 54 symbol;
#X obj 53 28 inlet;
#X obj 30 133 v ch_\$0;
#X obj 30 162 cyclone/uzi 1 0;
#X obj 53 83 t symbol bang symbol;
#X connect 0 0 2 0;
#X connect 1 0 0 2;
#X connect 3 0 7 0;
#X connect 4 0 3 0;
#X connect 5 0 6 0;
#X connect 6 2 0 0;
#X connect 7 0 0 2;
#X connect 7 1 5 0;
#X connect 7 2 0 1;
#X restore 68 99 pd rename;
#N canvas 867 30 463 442 \$0-buffers 1;
#X restore 535 44 pd \$0-buffers;
#N canvas 386 286 432 233 clear 0;
#X obj 88 77 cyclone/uzi 1 0;
#X obj 88 49 v ch_\$0;
#X obj 274 80 r \$0-name;
#X obj 175 107 pack float symbol;
#X msg 175 131 \; \$1-\$2 const 0;
#X obj 88 25 inlet;
#X connect 0 2 3 0;
#X connect 1 0 0 0;
#X connect 2 0 3 1;
#X connect 3 0 4 0;
#X connect 5 0 1 0;
#X restore 27 131 pd clear;
#N canvas 105 44 349 235 fill 0;
#X obj 35 106 cyclone/uzi 1 0;
#X obj 35 78 v ch_\$0;
#X obj 257 110 r \$0-name;
#X obj 35 24 inlet;
#X obj 35 50 trigger bang float;
#X obj 122 136 pack float float symbol;
#X msg 122 160 \; \$1-\$3 const \$2;
#X connect 0 2 5 0;
#X connect 1 0 0 0;
#X connect 2 0 5 2;
#X connect 3 0 4 0;
#X connect 4 0 1 0;
#X connect 4 1 5 1;
#X connect 5 0 6 0;
#X restore 235 162 pd fill;
#N canvas 0 22 450 300 vis 0;
#X msg 241 123 vis \$1;
#X msg 241 96 1;
#X msg 273 96 0;
#X obj 231 149 send pd-\$0-buffers;
#X obj 212 54 inlet;
#X obj 287 58 inlet;
#X connect 0 0 3 0;
#X connect 1 0 0 0;
#X connect 2 0 0 0;
#X connect 4 0 1 0;
#X connect 5 0 2 0;
#X restore 152 98 pd vis;
#N canvas 105 44 349 235 apply 0;
#X obj 35 114 cyclone/uzi 1 0;
#X obj 35 86 v ch_\$0;
#X obj 257 118 r \$0-name;
#X obj 35 24 inlet;
#X obj 35 58 trigger bang float;
#X obj 122 144 pack float float symbol;
#X msg 122 173 \; \$1-\$3 const \$2;
#X connect 0 2 5 0;
#X connect 1 0 0 0;
#X connect 2 0 5 2;
#X connect 4 0 1 0;
#X connect 4 1 5 1;
#X restore 277 137 pd apply;
#X obj 359 140 s \$0-size;
#X obj 318 113 cyclone/sampstoms~;
#N canvas 411 87 511 542 read/write 0;
#X obj 91 206 symbol;
#X obj 16 115 route bang;
#X obj 63 331 list prepend read;
#X obj 16 146 openpanel;
#X obj 303 244 cyclone/fromsymbol @separator .;
#X obj 202 450 list prepend write -aiff;
#X msg 338 389 write -aiff;
#X obj 111 164 r \$0-file;
#X msg 303 416 write -wave;
#X obj 212 162 list;
#X obj 238 337 t l l, f 6;
#X msg 271 371 \$2;
#X msg 238 372 \$1;
#X obj 212 138 cyclone/fromsymbol @separator .;
#X obj 143 88 route bang, f 12;
#X obj 212 288 list length;
#X obj 212 261 t l l;
#X obj 178 290 > 1;
#X obj 238 315 list;
#X obj 179 313 sel 0 1;
#X obj 201 344 list;
#X obj 303 365 route wav aiff aif;
#X obj 143 111 savepanel;
#X obj 201 505 outlet;
#X obj 40 23 inlet;
#X obj 89 272 r \$0-resize;
#X msg 89 298 read -resize;
#X msg 303 324 \$2;
#X obj 303 287 list;
#X obj 40 51 route read readagain write filetype;
#X obj 230 87 route wav3 aiff;
#X connect 0 0 2 0;
#X connect 0 0 4 0;
#X connect 1 0 3 0;
#X connect 1 1 0 0;
#X connect 2 0 23 0;
#X connect 3 0 0 0;
#X connect 4 0 28 0;
#X connect 5 0 23 0;
#X connect 6 0 5 1;
#X connect 7 0 0 0;
#X connect 8 0 5 1;
#X connect 9 0 16 0;
#X connect 10 0 12 0;
#X connect 10 1 11 0;
#X connect 11 0 21 0;
#X connect 12 0 5 0;
#X connect 13 0 9 0;
#X connect 14 0 22 0;
#X connect 14 1 13 0;
#X connect 15 0 17 0;
#X connect 16 0 15 0;
#X connect 16 1 18 1;
#X connect 16 1 20 1;
#X connect 17 0 19 0;
#X connect 18 0 10 0;
#X connect 19 0 20 0;
#X connect 19 1 18 0;
#X connect 20 0 12 0;
#X connect 21 0 8 0;
#X connect 21 1 6 0;
#X connect 21 2 6 0;
#X connect 22 0 13 0;
#X connect 24 0 29 0;
#X connect 25 0 26 0;
#X connect 26 0 2 1;
#X connect 27 0 21 0;
#X connect 28 0 27 0;
#X connect 29 0 1 0;
#X connect 29 1 0 0;
#X connect 29 2 14 0;
#X connect 29 3 30 0;
#X connect 30 0 8 0;
#X connect 30 1 6 0;
#X restore 450 98 pd read/write;
#N canvas 434 275 517 371 init-buffers 0;
#X obj 129 244 send pd-\$0-buffers;
#X msg 129 83 \$1;
#X obj 102 59 t l l;
#X obj 102 29 inlet;
#X obj 227 121 - 1;
#X obj 178 96 + 20;
#X obj 178 118 t f f;
#X obj 178 73 * 100;
#X obj 129 147 pack float float float \$0;
#X obj 24 213 list append \$0;
#X obj 129 105 t f f;
#X msg 129 176 obj 6 \$2 cnv 15 448 80 empty empty empty 3 10 2 14
-233017 -66577 0 \, obj 5 \$3 pd ch\$1_\$4;
#X msg 65 274 \; pd-ch\$1_\$4 array \$1-\$2 \$3 float 2 \, coords 0
1 \$3 -1 450 82 2 0 0 \, vis 0;
#X connect 1 0 10 0;
#X connect 2 0 9 0;
#X connect 2 1 1 0;
#X connect 3 0 2 0;
#X connect 4 0 8 2;
#X connect 5 0 6 0;
#X connect 6 0 8 1;
#X connect 6 1 4 0;
#X connect 7 0 5 0;
#X connect 8 0 11 0;
#X connect 9 0 12 0;
#X connect 10 0 8 0;
#X connect 10 1 7 0;
#X connect 11 0 0 0;
#X connect 12 0 0 0;
#X restore 568 138 pd init-buffers;
#X connect 0 0 3 0;
#X connect 2 0 13 0;
#X connect 2 0 1 1;
#X connect 3 0 6 0;
#X connect 3 1 4 0;
#X connect 3 2 4 0;
#X connect 3 3 8 0;
#X connect 3 4 8 1;
#X connect 3 5 7 0;
#X connect 3 6 9 0;
#X connect 3 7 11 0;
#X connect 3 8 10 0;
#X connect 3 9 12 0;
#X connect 11 1 10 0;
#X connect 12 0 1 0;
