#N canvas 667 127 426 360 10;
#X obj 183 91 inlet~;
#X obj 203 248 *~;
#X obj 235 91 inlet~;
#X obj 255 247 *~;
#X obj 183 133 hip~ 3;
#X obj 235 132 hip~ 3;
#X obj 78 268 block~ 64;
#X obj 289 89 inlet;
#X obj 328 323 outlet;
#X obj 255 324 outlet~;
#X obj 203 323 outlet~;
#X obj 328 291 r \$0-slider;
#N canvas 627 117 614 293 set_GUI 0;
#X obj 66 243 s \$0-set-slider;
#X obj 98 18 inlet;
#X obj 66 209 clip 0 1;
#X obj 129 209 s \$0-dsp-toggle-set;
#X obj 191 182 s \$0-mute-set;
#X msg 160 182 0;
#X msg 129 179 1;
#X obj 223 159 s \$0-dac;
#X obj 254 137 s \$0-mode;
#X obj 318 165 s \$0-max_gain;
#X obj 318 119 moses 0;
#X obj 318 97 * -1;
#X obj 318 141 * -1;
#X obj 98 52 route float on off mute dac mode gain ramp;
#X obj 376 105 s \$0-ramp;
#X obj 376 84 max 5;
#X connect 1 0 13 0;
#X connect 2 0 0 0;
#X connect 5 0 3 0;
#X connect 6 0 3 0;
#X connect 10 0 12 0;
#X connect 11 0 10 0;
#X connect 12 0 9 0;
#X connect 13 0 2 0;
#X connect 13 1 6 0;
#X connect 13 2 5 0;
#X connect 13 3 4 0;
#X connect 13 4 7 0;
#X connect 13 5 8 0;
#X connect 13 6 11 0;
#X connect 13 7 15 0;
#X connect 15 0 14 0;
#X restore 289 132 pd set_GUI;
#N canvas 965 168 450 300 GUI 0;
#X obj 103 116 hsl 89 20 0 1 0 0 \$0-slider \$0-set-slider volume 17
9 0 14 -228856 -1 -1 8100 1;
#N canvas 335 32 409 332 mute 0;
#X obj 101 101 cnv 5 51 14 empty \$0-cnv_mute mute 18 6 0 12 -228856
-91542 0;
#X obj 100 100 tgl 16 0 \$0-mute \$0-mute-set empty 19 7 0 12 -228856
-128992 -262144 0 1;
#N canvas 310 266 712 637 off 0;
#X obj 490 220 * -1;
#X obj 424 300 +;
#X obj 409 325 +;
#X obj 347 219 * -65536;
#X obj 424 220 * -256;
#X obj 409 356 - 1;
#X obj 390 189 unpack f f f;
#X obj 225 295 +;
#X obj 210 320 +;
#X obj 148 214 * -65536;
#X obj 225 215 * -256;
#X obj 291 215 * -1;
#X obj 210 351 - 1;
#X obj 191 184 unpack f f f;
#X obj 379 423 pack;
#X msg 378 447 color \$1 \$2;
#X obj 238 121 t b b;
#X obj 238 81 inlet;
#X obj 378 485 outlet;
#X msg 395 152 88 88 84;
#X msg 203 154 220 220 220;
#X connect 0 0 1 1;
#X connect 1 0 2 1;
#X connect 2 0 5 0;
#X connect 3 0 2 0;
#X connect 4 0 1 0;
#X connect 5 0 14 1;
#X connect 6 0 3 0;
#X connect 6 1 4 0;
#X connect 6 2 0 0;
#X connect 7 0 8 1;
#X connect 8 0 12 0;
#X connect 9 0 8 0;
#X connect 10 0 7 0;
#X connect 11 0 7 1;
#X connect 12 0 14 0;
#X connect 13 0 9 0;
#X connect 13 1 10 0;
#X connect 13 2 11 0;
#X connect 14 0 15 0;
#X connect 15 0 18 0;
#X connect 16 0 20 0;
#X connect 16 1 19 0;
#X connect 17 0 16 0;
#X connect 19 0 6 0;
#X connect 20 0 13 0;
#X restore 100 174 pd off;
#X obj 100 144 select 0 1;
#X obj 147 237 s \$0-cnv_mute;
#N canvas 612 446 324 271 set_tgl_color 0;
#X obj 47 30 inlet;
#N canvas 0 22 712 637 off 0;
#X obj 490 220 * -1;
#X obj 424 300 +;
#X obj 409 325 +;
#X obj 347 219 * -65536;
#X obj 424 220 * -256;
#X obj 409 356 - 1;
#X obj 390 189 unpack f f f;
#X obj 225 295 +;
#X obj 210 320 +;
#X obj 148 214 * -65536;
#X obj 225 215 * -256;
#X obj 291 215 * -1;
#X obj 210 351 - 1;
#X obj 191 184 unpack f f f;
#X obj 379 423 pack;
#X msg 395 152 124 124 124;
#X msg 203 154 220 220 220;
#X obj 238 121 t b b;
#X obj 238 81 inlet;
#X obj 378 485 outlet;
#X msg 378 447 color \$1 \$2 0;
#X connect 0 0 1 1;
#X connect 1 0 2 1;
#X connect 2 0 5 0;
#X connect 3 0 2 0;
#X connect 4 0 1 0;
#X connect 5 0 14 1;
#X connect 6 0 3 0;
#X connect 6 1 4 0;
#X connect 6 2 0 0;
#X connect 7 0 8 1;
#X connect 8 0 12 0;
#X connect 9 0 8 0;
#X connect 10 0 7 0;
#X connect 11 0 7 1;
#X connect 12 0 14 0;
#X connect 13 0 9 0;
#X connect 13 1 10 0;
#X connect 13 2 11 0;
#X connect 14 0 20 0;
#X connect 15 0 6 0;
#X connect 16 0 13 0;
#X connect 17 0 16 0;
#X connect 17 1 15 0;
#X connect 18 0 17 0;
#X connect 20 0 19 0;
#X restore 47 113 pd off;
#X obj 47 83 select 0 1;
#X obj 96 148 s \$0-mute-set;
#X msg 96 114 color -4.86997e+06 -1.34937e+07 0;
#X connect 0 0 2 0;
#X connect 1 0 3 0;
#X connect 2 0 1 0;
#X connect 2 1 4 0;
#X connect 4 0 3 0;
#X restore 34 236 pd set_tgl_color;
#X msg 100 72 0;
#X obj 100 48 loadbang;
#N canvas 610 237 274 400 on 0;
#X obj 127 212 +;
#X obj 112 237 +;
#X obj 50 131 * -65536;
#X obj 127 132 * -256;
#X obj 193 132 * -1;
#X obj 112 268 - 1;
#X obj 93 101 unpack f f f;
#X obj 93 36 inlet;
#X obj 112 337 outlet;
#X msg 93 71 220 220 220;
#X msg 112 299 color \$1 -1;
#X connect 0 0 1 1;
#X connect 1 0 5 0;
#X connect 2 0 1 0;
#X connect 3 0 0 0;
#X connect 4 0 0 1;
#X connect 5 0 10 0;
#X connect 6 0 2 0;
#X connect 6 1 3 0;
#X connect 6 2 4 0;
#X connect 7 0 9 0;
#X connect 9 0 6 0;
#X connect 10 0 8 0;
#X restore 158 178 pd on;
#N canvas 186 185 358 434 off 0;
#X obj 154 221 +;
#X obj 139 246 +;
#X obj 77 140 * -65536;
#X obj 154 141 * -256;
#X obj 220 141 * -1;
#X obj 139 277 - 1;
#X obj 120 110 unpack f f f;
#X obj 120 47 inlet;
#X obj 139 351 outlet;
#X msg 120 80 220 220 220;
#X msg 139 313 color \$1 -1 -1;
#X connect 0 0 1 1;
#X connect 1 0 5 0;
#X connect 2 0 1 0;
#X connect 3 0 0 0;
#X connect 4 0 0 1;
#X connect 5 0 10 0;
#X connect 6 0 2 0;
#X connect 6 1 3 0;
#X connect 6 2 4 0;
#X connect 7 0 9 0;
#X connect 9 0 6 0;
#X connect 10 0 8 0;
#X restore 227 174 pd off;
#N canvas 398 340 689 469 on 0;
#X obj 127 232 +;
#X obj 112 257 +;
#X obj 50 151 * -65536;
#X obj 127 152 * -256;
#X obj 193 152 * -1;
#X obj 112 288 - 1;
#X obj 93 121 unpack f f f;
#X obj 93 36 inlet;
#X obj 226 412 outlet;
#X msg 93 91 89 96 100;
#X obj 305 254 +;
#X obj 290 279 +;
#X obj 228 183 * -65536;
#X obj 305 174 * -256;
#X obj 368 174 * -1;
#X obj 290 310 - 1;
#X obj 271 143 unpack f f f;
#X obj 484 225 +;
#X obj 469 250 +;
#X obj 407 144 * -65536;
#X obj 484 145 * -256;
#X obj 550 145 * -1;
#X obj 469 281 - 1;
#X obj 450 114 unpack f f f;
#X msg 226 374 color \$1 \$2 \$3;
#X msg 450 90 125 125 125;
#X msg 271 120 50 50 50;
#X obj 226 344 pack float float float;
#X obj 93 65 trigger bang bang bang, f 60;
#X connect 0 0 1 1;
#X connect 1 0 5 0;
#X connect 2 0 1 0;
#X connect 3 0 0 0;
#X connect 4 0 0 1;
#X connect 5 0 27 0;
#X connect 6 0 2 0;
#X connect 6 1 3 0;
#X connect 6 2 4 0;
#X connect 7 0 28 0;
#X connect 9 0 6 0;
#X connect 10 0 11 1;
#X connect 11 0 15 0;
#X connect 12 0 11 0;
#X connect 13 0 10 0;
#X connect 14 0 10 1;
#X connect 15 0 27 1;
#X connect 16 0 12 0;
#X connect 16 1 13 0;
#X connect 16 2 14 0;
#X connect 17 0 18 1;
#X connect 18 0 22 0;
#X connect 19 0 18 0;
#X connect 20 0 17 0;
#X connect 21 0 17 1;
#X connect 22 0 27 2;
#X connect 23 0 19 0;
#X connect 23 1 20 0;
#X connect 23 2 21 0;
#X connect 24 0 8 0;
#X connect 25 0 23 0;
#X connect 26 0 16 0;
#X connect 27 0 24 0;
#X connect 28 0 9 0;
#X connect 28 1 26 0;
#X connect 28 2 25 0;
#X restore 287 167 pd on;
#X obj 237 207 s \$0-set-slider;
#X connect 1 0 3 0;
#X connect 1 0 5 0;
#X connect 2 0 4 0;
#X connect 3 0 2 0;
#X connect 3 0 9 0;
#X connect 3 1 8 0;
#X connect 3 1 10 0;
#X connect 6 0 1 0;
#X connect 7 0 6 0;
#X connect 8 0 4 0;
#X connect 9 0 11 0;
#X connect 10 0 11 0;
#X coords 0 -1 1 1 53 16 2 100 100;
#X restore 100 100 pd mute;
#N canvas 565 338 514 332 DSP 0;
#X obj 101 101 cnv 5 40 14 empty \$0-cnv_dsp DSP 18 7 0 12 -228856
-91542 0;
#X obj 100 100 tgl 16 0 \$0-dsp-toggle \$0-dsp-toggle-set empty 19
8 0 12 -74965 -212593 -262144 1 1;
#X coords 0 -1 1 1 42 16 2 100 100;
#X restore 152 100 pd DSP;
#X coords 0 -1 1 1 94 36 2 100 100;
#X restore 60 155 pd GUI;
#X obj 235 201 *~;
#X obj 183 203 *~;
#N canvas 599 23 439 352 dac 0;
#X obj 94 320 dac~;
#X obj 53 22 inlet~;
#X obj 115 21 inlet~;
#X obj 153 69 r \$0-dac;
#X obj 115 275 *~;
#X obj 54 208 *~;
#X obj 153 181 line~;
#X obj 153 211 *~;
#X obj 153 242 *~;
#X obj 301 70 symbol \$1;
#X obj 301 93 select nodac;
#X msg 370 122 1;
#X msg 301 122 0;
#X msg 153 160 \$1 50;
#X obj 215 97 sel 0 1;
#X msg 234 120 1;
#X obj 341 200 switch~;
#X obj 301 45 loadbang;
#X msg 215 192 0;
#X obj 215 163 delay 50;
#X obj 341 169 change;
#X connect 1 0 5 0;
#X connect 2 0 4 0;
#X connect 3 0 13 0;
#X connect 3 0 14 0;
#X connect 4 0 0 1;
#X connect 5 0 0 0;
#X connect 6 0 7 0;
#X connect 6 0 7 1;
#X connect 7 0 8 0;
#X connect 7 0 8 1;
#X connect 8 0 4 1;
#X connect 8 0 5 1;
#X connect 9 0 10 0;
#X connect 10 0 12 0;
#X connect 10 1 11 0;
#X connect 11 0 20 0;
#X connect 11 0 13 0;
#X connect 12 0 20 0;
#X connect 13 0 6 0;
#X connect 14 0 19 0;
#X connect 14 1 15 0;
#X connect 15 0 20 0;
#X connect 17 0 9 0;
#X connect 18 0 20 0;
#X connect 19 0 18 0;
#X connect 20 0 16 0;
#X restore 268 293 pd dac;
#N canvas 329 100 340 226 gain 0;
#N canvas 251 205 450 331 quartic 0;
#X obj 100 126 line~;
#X obj 100 158 *~;
#X obj 100 186 *~;
#X obj 100 92 inlet;
#X obj 100 252 outlet~;
#X obj 100 217 *~;
#X obj 221 54 r \$0-mode;
#X msg 250 104 0;
#X obj 269 157 switch~;
#X msg 221 104 1;
#X obj 197 179 line~;
#X msg 197 157 \$1 50;
#X obj 273 132 pipe 50;
#X obj 221 79 sel 0;
#X connect 0 0 1 0;
#X connect 0 0 1 1;
#X connect 1 0 2 0;
#X connect 1 0 2 1;
#X connect 2 0 5 0;
#X connect 3 0 0 0;
#X connect 5 0 4 0;
#X connect 6 0 13 0;
#X connect 7 0 11 0;
#X connect 7 0 12 0;
#X connect 9 0 8 0;
#X connect 9 0 11 0;
#X connect 10 0 5 1;
#X connect 11 0 10 0;
#X connect 12 0 8 0;
#X connect 13 0 9 0;
#X connect 13 1 7 0;
#X restore 37 85 pd quartic;
#X obj 116 172 outlet~;
#N canvas 251 205 450 300 dB 0;
#X obj 129 110 line~;
#X obj 129 76 inlet;
#X obj 159 235 outlet~;
#X obj 129 140 *~ 100;
#X obj 129 168 dbtorms~;
#X obj 221 54 r \$0-mode;
#X msg 250 104 0;
#X obj 269 157 switch~;
#X msg 221 104 1;
#X obj 221 79 sel 1;
#X obj 197 179 line~;
#X obj 159 203 *~;
#X msg 197 157 \$1 50;
#X obj 273 132 pipe 50;
#X connect 0 0 3 0;
#X connect 1 0 0 0;
#X connect 3 0 4 0;
#X connect 4 0 11 0;
#X connect 5 0 9 0;
#X connect 6 0 12 0;
#X connect 6 0 13 0;
#X connect 8 0 7 0;
#X connect 8 0 12 0;
#X connect 9 0 8 0;
#X connect 9 1 6 0;
#X connect 10 0 11 1;
#X connect 11 0 2 0;
#X connect 12 0 10 0;
#X connect 13 0 7 0;
#X restore 116 85 pd dB;
#N canvas 251 205 450 300 linear 0;
#X obj 136 65 line~;
#X obj 136 31 inlet;
#X obj 139 241 outlet~;
#X obj 260 54 r \$0-mode;
#X msg 289 104 0;
#X obj 308 157 switch~;
#X msg 260 104 1;
#X obj 236 179 line~;
#X msg 236 157 \$1 50;
#X obj 312 132 pipe 50;
#X obj 260 79 sel 2;
#X obj 131 187 *~;
#X connect 0 0 11 0;
#X connect 1 0 0 0;
#X connect 3 0 10 0;
#X connect 4 0 8 0;
#X connect 4 0 9 0;
#X connect 6 0 5 0;
#X connect 6 0 8 0;
#X connect 7 0 11 1;
#X connect 8 0 7 0;
#X connect 9 0 5 0;
#X connect 10 0 6 0;
#X connect 10 1 4 0;
#X connect 11 0 2 0;
#X restore 172 85 pd linear;
#N canvas 661 142 329 221 max_gain 0;
#X obj 46 35 inlet~;
#X obj 46 171 outlet~;
#X obj 46 100 *~;
#X obj 105 91 expr if($f1 <= 0 \, 1 \, $f1);
#X obj 105 65 r \$0-max_gain;
#X msg 105 116 \$1 15;
#X obj 105 141 line~;
#X connect 0 0 2 0;
#X connect 2 0 1 0;
#X connect 3 0 5 0;
#X connect 4 0 3 0;
#X connect 5 0 6 0;
#X connect 6 0 2 1;
#X restore 116 136 pd max_gain;
#N canvas 287 281 651 407 load_args 0;
#X obj 60 29 loadbang;
#X obj 60 54 symbol \$1;
#X obj 60 80 select nodac;
#X msg 129 105 0;
#X msg 60 106 1;
#X obj 129 193 list append \$1;
#X obj 129 173 b;
#X obj 129 129 t b f;
#X obj 156 166 v nodac_\$0;
#X obj 60 283 expr if(nodac_\$0 == 1 \, \$2 \, $f1) \; if(nodac_\$0
== 1 \, \$3 \, \$2);
#X obj 60 130 t b f;
#X obj 129 222 route symbol;
#X obj 267 291 print [output~];
#X msg 267 269 error: first argument needs either 'float' or 'nodac'
;
#X obj 60 327 s \$0-max_gain;
#X obj 249 325 s \$0-mode;
#X connect 0 0 1 0;
#X connect 1 0 2 0;
#X connect 2 0 4 0;
#X connect 2 1 3 0;
#X connect 3 0 7 0;
#X connect 4 0 10 0;
#X connect 5 0 11 0;
#X connect 6 0 5 0;
#X connect 7 0 6 0;
#X connect 7 1 8 0;
#X connect 9 0 14 0;
#X connect 9 1 15 0;
#X connect 10 0 9 0;
#X connect 10 1 8 0;
#X connect 11 0 13 0;
#X connect 11 1 9 0;
#X connect 13 0 12 0;
#X restore 229 126 pd load_args;
#X obj 116 35 inlet;
#X connect 0 0 4 0;
#X connect 2 0 4 0;
#X connect 3 0 4 0;
#X connect 4 0 1 0;
#X connect 6 0 2 0;
#X connect 6 0 3 0;
#X connect 6 0 0 0;
#X restore 310 201 pd gain;
#N canvas 495 23 450 300 mute 0;
#X obj 121 90 r \$0-mute;
#X obj 121 167 line~;
#X obj 121 196 *~;
#X obj 121 221 *~;
#X obj 121 114 expr 1 - $f1;
#X msg 121 140 \$1 50;
#X obj 206 114 loadbang;
#X msg 206 140 1;
#X obj 121 245 outlet~;
#X connect 0 0 4 0;
#X connect 1 0 2 0;
#X connect 1 0 2 1;
#X connect 2 0 3 0;
#X connect 2 0 3 1;
#X connect 3 0 8 0;
#X connect 4 0 5 0;
#X connect 5 0 1 0;
#X connect 6 0 7 0;
#X connect 7 0 1 0;
#X restore 250 165 pd mute;
#X text 31 10 [output~] is a stereo output with gain control designed
by Alexandre Torres Porres based on other similar objects found in
Pd-Extended/Purr Data. It is included as an extra object for cyclone's
help files. Check its help file for more information.;
#N canvas 1045 328 407 422 Gui_control 0;
#X msg 242 154 0;
#X msg 29 303 \; pd dsp 1;
#X obj 56 97 value slider_\$0;
#X obj 57 189 value slider_\$0;
#X obj 270 220 value slider_\$0;
#X obj 242 126 select 0 1;
#N canvas 236 232 404 450 DSP_state 0;
#X obj 274 195 route dsp;
#X obj 274 168 receive pd;
#N canvas 0 22 560 312 set_GUI 0;
#X msg 187 138 set \$1;
#N canvas 555 532 340 222 set_color 0;
#X obj 47 30 inlet;
#N canvas 0 22 712 637 off 0;
#X obj 490 220 * -1;
#X obj 424 300 +;
#X obj 409 325 +;
#X obj 347 219 * -65536;
#X obj 424 220 * -256;
#X obj 409 356 - 1;
#X obj 390 189 unpack f f f;
#X obj 225 295 +;
#X obj 210 320 +;
#X obj 148 214 * -65536;
#X obj 225 215 * -256;
#X obj 291 215 * -1;
#X obj 210 351 - 1;
#X obj 191 184 unpack f f f;
#X obj 379 423 pack;
#X msg 395 152 124 124 124;
#X msg 203 154 220 220 220;
#X obj 238 121 t b b;
#X obj 238 81 inlet;
#X obj 378 485 outlet;
#X msg 378 447 color \$1 \$2 0;
#X connect 0 0 1 1;
#X connect 1 0 2 1;
#X connect 2 0 5 0;
#X connect 3 0 2 0;
#X connect 4 0 1 0;
#X connect 5 0 14 1;
#X connect 6 0 3 0;
#X connect 6 1 4 0;
#X connect 6 2 0 0;
#X connect 7 0 8 1;
#X connect 8 0 12 0;
#X connect 9 0 8 0;
#X connect 10 0 7 0;
#X connect 11 0 7 1;
#X connect 12 0 14 0;
#X connect 13 0 9 0;
#X connect 13 1 10 0;
#X connect 13 2 11 0;
#X connect 14 0 20 0;
#X connect 15 0 6 0;
#X connect 16 0 13 0;
#X connect 17 0 16 0;
#X connect 17 1 15 0;
#X connect 18 0 17 0;
#X connect 20 0 19 0;
#X restore 47 113 pd off;
#X obj 47 83 select 0 1;
#X obj 96 160 send \$0-dsp-toggle-set;
#X msg 96 114 color -4.86997e+06 -1.34937e+07 0;
#X connect 0 0 2 0;
#X connect 1 0 3 0;
#X connect 2 0 1 0;
#X connect 2 1 4 0;
#X connect 4 0 3 0;
#X restore 93 159 pd set_color;
#X obj 187 99 inlet;
#X obj 187 169 send \$0-dsp-toggle-set;
#X connect 0 0 3 0;
#X connect 2 0 0 0;
#X connect 2 0 1 0;
#X restore 257 271 pd set_GUI;
#N canvas 116 23 288 228 dsp_check 0;
#X obj 168 45 loadbang;
#X obj 59 60 sig~ 1;
#X obj 59 119 snapshot~;
#X obj 149 143 switch~;
#X msg 168 117 1;
#X msg 135 117 0;
#X obj 108 85 delay 5;
#X obj 59 149 outlet;
#X connect 0 0 4 0;
#X connect 0 0 6 0;
#X connect 1 0 2 0;
#X connect 2 0 7 0;
#X connect 4 0 3 0;
#X connect 5 0 3 0;
#X connect 6 0 2 0;
#X connect 6 0 5 0;
#X restore 261 144 pd dsp_check;
#X obj 233 40 inlet;
#X obj 190 363 outlet;
#X obj 233 70 sel 0 1;
#X msg 252 104 \; pd dsp 1;
#X msg 257 240 0;
#X msg 139 198 set 0;
#X msg 112 233 \; pd dsp 0;
#X obj 112 172 t b b;
#X obj 58 363 outlet;
#X obj 73 300 value dsp_state_\$0;
#X msg 58 141 0;
#X obj 58 329 b;
#X msg 190 171 1;
#X obj 190 240 change -1;
#X obj 112 147 delay 150;
#X connect 0 0 17 0;
#X connect 1 0 0 0;
#X connect 3 0 17 0;
#X connect 4 0 6 0;
#X connect 6 0 8 0;
#X connect 6 0 14 0;
#X connect 6 0 18 0;
#X connect 6 1 7 0;
#X connect 6 1 16 0;
#X connect 8 0 2 0;
#X connect 9 0 17 0;
#X connect 11 0 10 0;
#X connect 11 1 9 0;
#X connect 14 0 13 0;
#X connect 14 0 15 0;
#X connect 15 0 12 0;
#X connect 16 0 17 0;
#X connect 17 0 2 0;
#X connect 17 0 5 0;
#X connect 17 0 13 0;
#X connect 18 0 11 0;
#X restore 173 63 pd DSP_state;
#X obj 29 133 value dsp_state_\$0;
#X obj 29 72 t b f;
#X obj 29 162 select 0 1;
#X obj 260 93 value dsp_state_\$0;
#X obj 29 38 receive \$0-slider;
#X obj 173 36 receive \$0-dsp-toggle;
#X msg 270 245 0 \, \$1 100;
#X obj 173 372 outlet;
#X msg 173 119 0 150;
#X obj 57 238 pack f 20;
#X obj 108 214 r \$0-ramp;
#X connect 0 0 14 0;
#X connect 3 0 16 0;
#X connect 4 0 13 0;
#X connect 5 0 0 0;
#X connect 5 1 4 0;
#X connect 6 0 15 0;
#X connect 6 1 10 0;
#X connect 6 1 5 0;
#X connect 7 0 9 0;
#X connect 8 0 7 0;
#X connect 8 1 2 0;
#X connect 9 0 1 0;
#X connect 9 1 3 0;
#X connect 11 0 8 0;
#X connect 12 0 6 0;
#X connect 13 0 14 0;
#X connect 15 0 14 0;
#X connect 16 0 14 0;
#X connect 17 0 16 1;
#X restore 310 165 pd Gui_control;
#X connect 0 0 4 0;
#X connect 1 0 10 0;
#X connect 1 0 16 0;
#X connect 2 0 5 0;
#X connect 3 0 9 0;
#X connect 3 0 16 1;
#X connect 4 0 15 0;
#X connect 5 0 14 0;
#X connect 7 0 12 0;
#X connect 11 0 8 0;
#X connect 14 0 3 0;
#X connect 15 0 1 0;
#X connect 17 0 3 1;
#X connect 17 0 1 1;
#X connect 18 0 14 1;
#X connect 18 0 15 1;
#X connect 20 0 17 0;
#X coords 0 0 1 1 94 54 1 60 140;
