#N canvas 50 262 291 560 10;
#X obj 36 99 borax;
#X obj 30 124 bucket;
#X obj 30 148 decode;
#X obj 36 74 histo;
#X obj 20 291 mousestate;
#X obj 44 194 peak;
#X obj 20 265 togedge;
#X obj 148 113 append;
#X obj 148 140 clip;
#X obj 148 168 table;
#X obj 31 172 trough;
#X obj 148 195 clip~;
#X obj 148 86 line~;
#X obj 148 221 snapshot~;
#X text 22 45 no clash;
#X text 144 60 clash;
#X text 191 88 done;
#X text 30 234 test;
#X text 30 345 done;
#X obj 36 376 uzi;
#X obj 36 410 scope~;
