#N canvas 772 234 990 845 10;
#X obj 44 109 f;
#X obj 68 109 + 1;
#X obj 44 137 t f f;
#X msg 82 80 0;
#X obj 215 106 f;
#X obj 242 106 + 1;
#X obj 361 104 f;
#X obj 389 104 + 1;
#X obj 361 132 t f f;
#X obj 406 158 * 11;
#X msg 48 358 length;
#X msg 48 647 clear;
#X msg 48 674 dump;
#X msg 48 408 next;
#X obj 215 134 t f f;
#X obj 215 184 symbol;
#X obj 260 184 symbol;
#X obj 215 210 pack s s;
#X msg 260 160 sv\$1;
#X msg 215 237 store \$1 \$2;
#X msg 361 238 store \$1 \$2;
#X obj 361 211 pack s f;
#X obj 361 182 symbol;
#X msg 361 158 skn\$1;
#X obj 559 106 f;
#X obj 587 106 + 1;
#X obj 559 134 t f f;
#X msg 614 77 0;
#X obj 559 184 symbol;
#X obj 559 213 pack s f;
#X msg 559 240 store \$1 1_\$2 2_\$2 3_\$2;
#X msg 559 160 skl\$1;
#X msg 215 160 sks\$1;
#X obj 290 664 print v;
#X obj 317 645 print k;
#X text 10 8 key: float \, value symbol;
#X text 179 8 key: symbol \, value symbol;
#X text 341 7 key: symbol \, value float;
#X text 539 8 key: symbol \, value list;
#X obj 768 108 f;
#X obj 796 108 + 1;
#X obj 768 136 t f f;
#X obj 819 162 * 11;
#X obj 768 186 pack f f;
#X text 738 7 key: float \, value float;
#X obj 768 162 + 10000;
#X msg 768 210 \$1 \$2;
#X msg 48 465 write /tmp/colltest15k.coll;
#X msg 48 435 read /tmp/colltest15k.coll;
#X obj 756 591 osc~ 220;
#X obj 756 692 dac~;
#X obj 756 644 *~ 0;
#X obj 822 527 vsl 15 128 0 0.5 0 0 empty empty empty 0 -9 0 10 -262144
-1 -1 0 1;
#X msg 822 505 0;
#X obj 44 80 until;
#X msg 215 53 3000;
#X obj 215 80 until;
#X msg 259 81 0;
#X msg 361 50 3000;
#X obj 361 74 until;
#X msg 403 74 0;
#X obj 559 77 until;
#X msg 559 53 3000;
#X msg 768 57 3000;
#X obj 768 79 until;
#X msg 812 78 0;
#X msg 364 299 skn1999;
#X msg 215 299 sks1234;
#X msg 559 299 skl2345;
#X msg 768 299 12345;
#X msg 44 299 2345;
#X text 884 57 <--- load types;
#X text 906 296 <--- check;
#X obj 371 627 bng 15 250 50 0 empty empty empty 17 7 0 10 -262144
-1 -1;
#X obj 344 627 bng 15 250 50 0 empty empty empty 17 7 0 10 -262144
-1 -1;
#X text 683 710 check for dropouts during reading and writing;
#X msg 48 382 goto 0;
#X obj 71 185 symbol;
#X obj 44 211 pack f s;
#X msg 71 161 sv\$1;
#X msg 44 53 3000;
#X obj 290 600 cyclone/coll aap;
#C restore;
#X connect 0 0 1 0;
#X connect 0 0 2 0;
#X connect 1 0 0 1;
#X connect 2 0 78 0;
#X connect 2 1 79 0;
#X connect 3 0 0 1;
#X connect 4 0 5 0;
#X connect 4 0 14 0;
#X connect 5 0 4 1;
#X connect 6 0 7 0;
#X connect 6 0 8 0;
#X connect 7 0 6 1;
#X connect 8 0 23 0;
#X connect 8 1 9 0;
#X connect 9 0 21 1;
#X connect 10 0 81 0;
#X connect 11 0 81 0;
#X connect 12 0 81 0;
#X connect 13 0 81 0;
#X connect 14 0 32 0;
#X connect 14 1 18 0;
#X connect 15 0 17 0;
#X connect 16 0 17 1;
#X connect 17 0 19 0;
#X connect 18 0 16 0;
#X connect 19 0 81 0;
#X connect 20 0 81 0;
#X connect 21 0 20 0;
#X connect 22 0 21 0;
#X connect 23 0 22 0;
#X connect 24 0 25 0;
#X connect 24 0 26 0;
#X connect 25 0 24 1;
#X connect 26 0 31 0;
#X connect 26 1 29 1;
#X connect 27 0 24 1;
#X connect 28 0 29 0;
#X connect 29 0 30 0;
#X connect 30 0 81 0;
#X connect 31 0 28 0;
#X connect 32 0 15 0;
#X connect 39 0 40 0;
#X connect 39 0 41 0;
#X connect 40 0 39 1;
#X connect 41 0 45 0;
#X connect 41 1 42 0;
#X connect 42 0 43 1;
#X connect 43 0 46 0;
#X connect 45 0 43 0;
#X connect 46 0 81 0;
#X connect 47 0 81 0;
#X connect 48 0 81 0;
#X connect 49 0 51 0;
#X connect 51 0 50 0;
#X connect 51 0 50 1;
#X connect 52 0 51 1;
#X connect 53 0 52 0;
#X connect 54 0 0 0;
#X connect 55 0 56 0;
#X connect 56 0 4 0;
#X connect 57 0 4 1;
#X connect 58 0 59 0;
#X connect 59 0 6 0;
#X connect 60 0 6 1;
#X connect 61 0 24 0;
#X connect 62 0 61 0;
#X connect 63 0 64 0;
#X connect 64 0 39 0;
#X connect 65 0 39 1;
#X connect 66 0 81 0;
#X connect 67 0 81 0;
#X connect 68 0 81 0;
#X connect 69 0 81 0;
#X connect 70 0 81 0;
#X connect 76 0 81 0;
#X connect 77 0 78 1;
#X connect 78 0 81 0;
#X connect 79 0 77 0;
#X connect 80 0 54 0;
#X connect 81 0 33 0;
#X connect 81 1 34 0;
#X connect 81 2 74 0;
#X connect 81 3 73 0;
