#N canvas 491 179 450 300 12;
#X obj 15 250 dac~;
#X obj 16 190 *~ 0.1;
#X floatatom 177 96 5 0 0 0 - - -, f 5;
#X msg 270 96 bufsize \$1;
#X floatatom 270 60 5 0 0 0 - - -, f 5;
#X obj 17 141 *~;
#X floatatom 107 27 5 0 0 0 - - -, f 5;
#X obj 17 27 osc~ 110;
#X obj 38 60 phasor~ 111;
#X msg 177 21 30;
#X msg 270 21 250;
#X msg 195 60 4;
#X obj 38 96 cyclone/triangle~;
#X obj 177 135 cyclone/Scope~ 252 152 30 3 250 -1 1 0 0 0 0 102 255
51 135 135 135 0;
#X connect 1 0 0 0;
#X connect 1 0 0 1;
#X connect 2 0 13 0;
#X connect 3 0 13 0;
#X connect 4 0 3 0;
#X connect 5 0 1 0;
#X connect 5 0 13 0;
#X connect 6 0 8 0;
#X connect 7 0 5 0;
#X connect 8 0 12 0;
#X connect 9 0 2 0;
#X connect 10 0 4 0;
#X connect 11 0 2 0;
#X connect 12 0 5 1;
#X connect 12 0 13 1;
