#N canvas 150 47 650 459 12;
#X obj 37 419 cyclone;
#X msg 37 58 bang;
#X msg 66 24 import;
#X obj 41 240 forward texthelp;
#X obj 61 302 r texthelp;
#X msg 50 272 send binhelp;
#X msg 176 272 send texthelp;
#X obj 88 329 r binhelp;
#X obj 88 358 sprintf import ../../../ref/c74help/bin/%s.help;
#X obj 61 389 sprintf import ../../../ref/c74help/text/%s.help;
#X msg 123 201 buffir~;
#X msg 41 197 record~;
#X msg 209 201 fffb~;
#X msg 284 201 pictctrl;
#X msg 41 168 universal;
#X msg 138 168 funbuff;
#X msg 220 168 prob;
#X obj 137 24 loadbang;
#X obj 137 126 cyclone;
#X msg 177 91 cd ../../../rob;
#X msg 137 53 cd ../../../../ref;
#X msg 213 126 pwd;
#X obj 72 126 print;
#X connect 1 0 18 0;
#X connect 2 0 18 0;
#X connect 4 0 9 0;
#X connect 5 0 3 0;
#X connect 6 0 3 0;
#X connect 7 0 8 0;
#X connect 8 0 0 0;
#X connect 9 0 0 0;
#X connect 10 0 3 0;
#X connect 11 0 3 0;
#X connect 12 0 3 0;
#X connect 13 0 3 0;
#X connect 14 0 3 0;
#X connect 15 0 3 0;
#X connect 16 0 3 0;
#X connect 17 0 20 0;
#X connect 18 0 22 0;
#X connect 19 0 18 0;
#X connect 20 0 18 0;
#X connect 21 0 18 0;
