#N canvas 150 47 650 442 12;
#X obj 39 399 cyclone;
#X msg 39 19 bang;
#X msg 244 19 import;
#X obj 43 220 forward texthelp;
#X obj 63 282 r texthelp;
#X msg 52 252 send binhelp;
#X msg 178 252 send texthelp;
#X obj 90 309 r binhelp;
#X obj 90 338 sprintf import ../../../ref/c74help/bin/%s.help;
#X obj 63 369 sprintf import ../../../ref/c74help/text/%s.help;
#X msg 92 19 dummies;
#X msg 170 19 reps;
#X msg 125 181 buffir~;
#X obj 244 56 cyclone;
#X msg 43 177 record~;
#X obj 39 94 cyclone ../../../ref;
#X msg 211 181 fffb~;
#X msg 286 181 pictctrl;
#X msg 43 148 universal;
#X msg 140 148 funbuff;
#X obj 244 94 cyclone ../../../rob;
#X msg 222 148 prob;
#X connect 1 0 15 0;
#X connect 2 0 13 0;
#X connect 4 0 9 0;
#X connect 5 0 3 0;
#X connect 6 0 3 0;
#X connect 7 0 8 0;
#X connect 8 0 0 0;
#X connect 9 0 0 0;
#X connect 10 0 15 0;
#X connect 11 0 15 0;
#X connect 12 0 3 0;
#X connect 14 0 3 0;
#X connect 16 0 3 0;
#X connect 17 0 3 0;
#X connect 18 0 3 0;
#X connect 19 0 3 0;
#X connect 21 0 3 0;
