#N canvas 430 63 531 442 12;
#X obj 39 399 cyclone;
#X msg 39 19 bang;
#X msg 244 19 import;
#X obj 42 212 forward texthelp;
#X obj 63 278 r texthelp;
#X msg 56 245 send binhelp;
#X msg 182 245 send texthelp;
#X obj 90 309 r binhelp;
#X msg 148 112 pv;
#X msg 64 112 coll;
#X msg 207 83 triangle~;
#X msg 148 83 comb~;
#X msg 64 83 allpass~;
#X msg 207 112 message;
#X msg 207 141 line~;
#X obj 90 338 sprintf import ../../../ref/c74help/bin/%s.help;
#X obj 63 369 sprintf import ../../../ref/c74help/text/%s.help;
#X msg 92 19 dummies;
#X obj 39 48 cyclone;
#X msg 274 141 groove~;
#X msg 207 170 scope~;
#X msg 306 83 trapezoid~;
#X msg 306 112 kink~;
#X msg 290 170 rate~;
#X msg 360 170 pong~;
#X msg 360 141 vectral~;
#X msg 170 19 reps;
#X msg 378 112 bitand~;
#X connect 1 0 18 0;
#X connect 2 0 18 0;
#X connect 4 0 16 0;
#X connect 5 0 3 0;
#X connect 6 0 3 0;
#X connect 7 0 15 0;
#X connect 8 0 3 0;
#X connect 9 0 3 0;
#X connect 10 0 3 0;
#X connect 11 0 3 0;
#X connect 12 0 3 0;
#X connect 13 0 3 0;
#X connect 14 0 3 0;
#X connect 15 0 0 0;
#X connect 16 0 0 0;
#X connect 17 0 18 0;
#X connect 19 0 3 0;
#X connect 20 0 3 0;
#X connect 21 0 3 0;
#X connect 22 0 3 0;
#X connect 23 0 3 0;
#X connect 24 0 3 0;
#X connect 25 0 3 0;
#X connect 26 0 18 0;
#X connect 27 0 3 0;
