#N canvas 349 176 601 359 12;
#X obj 125 191 seq;
#X msg 61 249 print;
#X floatatom 63 83 5 0 0 0 - - -;
#X msg 160 74 record;
#X msg 144 48 stop;
#X msg 217 180 read nosuchfile;
#X obj 125 249 print;
#X obj 125 24 bng 15 250 50 0 empty empty empty 0 -6 0 8 -262144 -1
-1;
#X msg 217 206 write;
#X msg 379 215 write;
#X msg 168 102 144;
#X msg 217 102 240;
#X obj 61 147 midiin;
#X obj 379 249 seq test.seq;
#X obj 242 319 midiout;
#X msg 217 128 read test.seq;
#X msg 445 215 start \$1;
#X msg 445 147 512;
#X floatatom 445 183 5 0 0 0 - - -;
#X msg 379 147 stop;
#X msg 217 232 write test.seq;
#X obj 242 293 midiflush;
#X msg 189 293 bang;
#X msg 264 102 read kanon.mid;
#X msg 231 74 append;
#X msg 217 258 write test.mid;
#X msg 217 154 read test.mid;
#X connect 0 0 6 0;
#X connect 0 0 21 0;
#X connect 0 1 6 0;
#X connect 1 0 0 0;
#X connect 2 0 0 0;
#X connect 3 0 0 0;
#X connect 4 0 0 0;
#X connect 4 0 22 0;
#X connect 5 0 0 0;
#X connect 7 0 0 0;
#X connect 8 0 0 0;
#X connect 9 0 13 0;
#X connect 10 0 0 0;
#X connect 11 0 0 0;
#X connect 12 0 0 0;
#X connect 12 0 14 0;
#X connect 13 0 21 0;
#X connect 15 0 0 0;
#X connect 16 0 13 0;
#X connect 17 0 18 0;
#X connect 18 0 16 0;
#X connect 19 0 13 0;
#X connect 20 0 0 0;
#X connect 21 0 14 0;
#X connect 22 0 21 0;
#X connect 23 0 0 0;
#X connect 24 0 0 0;
#X connect 25 0 0 0;
#X connect 26 0 0 0;
