#N canvas 398 28 572 587 10;
#X obj 3 497 cnv 3 550 3 empty empty inlets 8 12 0 13 -228856 -1 0
;
#X obj 2 668 cnv 3 550 3 empty empty outlets 8 12 0 13 -228856 -1 0
;
#X obj 2 725 cnv 3 550 3 empty empty arguments 8 12 0 13 -228856 -1
0;
#X obj 81 600 cnv 17 3 17 empty empty 1 5 9 0 16 -228856 -162280 0
;
#X obj 2 45 cnv 15 552 48 empty empty accum 4 14 0 18 -204280 -1 0
;
#X text 11 71 store \, add to \, and multiply a number;
#X floatatom 158 279 5 0 0 0 - - -, f 5;
#X floatatom 158 454 10 0 0 0 - - -, f 10;
#X floatatom 201 319 5 0 0 0 - - -, f 5;
#X msg 130 236 bang;
#X floatatom 245 357 5 0 0 0 - - -, f 5;
#X msg 109 189 set \$1;
#X floatatom 109 161 5 0 0 0 - - -, f 5;
#X obj 505 54 accum;
#X obj 81 685 cnv 17 3 17 empty empty 0 5 9 0 16 -228856 -162280 0
;
#X obj 81 628 cnv 17 3 17 empty empty 2 5 9 0 16 -228856 -162280 0
;
#X obj 81 514 cnv 17 3 80 empty empty 0 5 9 0 16 -228856 -162280 0
;
#X obj 158 393 cyclone/accum 4;
#X obj 469 470 cnv 12 73 19 empty empty empty 0 0 0 18 -257983 -1 0
;
#N canvas 371 94 435 264 Examples 0;
#X obj 35 161 accum 3, f 15;
#X floatatom 35 194 5 0 0 0 - - -, f 5;
#X obj 35 77 bng 15 250 50 0 empty empty empty 17 7 0 10 -262144 -1
-1;
#X msg 78 128 2;
#X msg 122 128 4;
#X text 68 127 +;
#X text 112 129 *;
#X obj 35 103 t b b b;
#X obj 200 128 accum 3;
#X floatatom 200 161 5 0 0 0 - - -, f 5;
#X msg 219 103 3;
#X obj 200 77 bng 15 250 50 0 empty empty empty 17 7 0 10 -262144 -1
-1;
#X obj 325 128 accum 3;
#X floatatom 325 161 5 0 0 0 - - -, f 5;
#X obj 325 77 bng 15 250 50 0 empty empty empty 17 7 0 10 -262144 -1
-1;
#X msg 364 103 2;
#X obj 2 2 cnv 15 430 40 empty empty accum 3 12 0 18 -204280 -1 0;
#X obj 2 240 cnv 15 430 21 empty empty empty 20 12 0 14 -233017 -33289
0;
#N canvas 536 159 384 114 credits 0;
#X text 80 31 Examples from Max 7 Documentation.;
#X restore 353 242 pd credits;
#X text 39 25 examples;
#X obj 186 189 cyclone/comment 320 11 helvetica ? 0 60 60 60 count
by threes;
#X obj 315 189 cyclone/comment 320 11 helvetica ? 0 60 60 60 double
each time;
#X connect 0 0 1 0;
#X connect 2 0 7 0;
#X connect 3 0 0 1;
#X connect 4 0 0 2;
#X connect 7 0 0 0;
#X connect 7 1 3 0;
#X connect 7 2 4 0;
#X connect 8 0 9 0;
#X connect 8 0 10 0;
#X connect 10 0 8 1;
#X connect 11 0 8 0;
#X connect 12 0 13 0;
#X connect 12 0 15 0;
#X connect 14 0 12 0;
#X connect 15 0 12 2;
#X restore 469 470 pd Examples;
#X obj 2 806 cnv 3 550 3 empty empty empty 0 0 0 4 -262144 -1 0;
#X text 158 515 -;
#X text 125 515 bang;
#X text 158 538 -;
#X text 173 515 output the current value, f 60;
#X text 118 538 float;
#X text 173 538 to set new value and output, f 60;
#X text 158 561 -;
#X text 107 561 message;
#X text 173 561 "set":;
#X text 215 560 followed by a number \, sets the stored value to that
number \, without triggering output., f 53;
#X text 158 602 -;
#X text 118 601 float;
#X text 173 602 add to current value, f 60;
#X text 158 629 -;
#X text 118 628 float;
#X text 173 629 multiply with current value, f 60;
#X text 158 687 -;
#X text 118 686 float;
#X text 172 687 the current value of number being accumulated, f 60
;
#X obj 2 786 cnv 15 552 21 empty empty empty 20 12 0 14 -233017 -33289
0;
#N canvas 498 107 377 346 META 0;
#X text 1 20 LICENSE SIBSD;
#X text 1 140 LIBRARY cyclone;
#X text 1 0 KEYWORDS accumulate store add multiply;
#X text 1 40 DESCRIPTION store \, add to \, and multiply a number;
#X text 1 60 INLET_0 float bang;
#X text 1 120 OUTLET_0 float current value of number being accumulated
;
#X text 1 80 INLET_1 float add to current value;
#X text 1 100 INLET_2 float multiply with current value;
#X text 0 161 VERSION 0.2-beta1;
#X text 2 181 AUTHOR Krzysztof Czaja;
#X text 2 201 RELEASE_DATE 2002;
#X text 3 218 WEBSITE http://suita.chopin.edu.pl/~czaja/miXed/externs/cyclone.html
;
#X text 2 248 HELP_PATCH_AUTHORS Christoph Kummerer. Revised by Jonathan
Wilkes for Pd-extended 0.42 to conform to the PDDP template. Alex Cleveland
updated this patch for Pd-l2ork version 2013.05.28. Fred Jan Kraan
adapted the patch to pd-extended 2015-02-02. Esteban Viveros updated
this patch for Pd-Vanilla 0.47-2.;
#X restore 502 788 pd META;
#N canvas 363 145 430 58 Related_objects 0;
#X obj 2 2 cnv 15 425 20 empty empty empty 3 12 0 14 -204280 -1 0;
#X text 8 3 Related Objects;
#X obj 73 31 +;
#X obj 105 31 *;
#X obj 41 31 f;
#X obj 11 31 i;
#X obj 137 31 cyclone/counter;
#X restore 212 788 pd Related_objects;
#X obj 160 188 cyclone/comment 320 11 helvetica ? 0 80 80 80 reset
current value / no output (store value);
#X obj 171 236 cyclone/comment 320 11 helvetica ? 0 80 80 80 output
current value;
#X obj 198 278 cyclone/comment 320 11 helvetica ? 0 80 80 80 set new
value and output;
#X obj 244 318 cyclone/comment 320 11 helvetica ? 0 80 80 80 add to
current value / no output;
#X obj 287 357 cyclone/comment 320 11 helvetica ? 0 80 80 80 multiply
with current val / no output;
#X obj 259 396 cyclone/comment 320 11 helvetica ? 0 80 80 80 argument
sets initial value;
#X obj 35 105 cyclone/comment 350 10 monaco ? 0 80 80 80 accum is a
multi-function float value changer. It can add and multiply by values
on inlets 1 and 2 \, respectively.;
#X obj 2 2 cyclone/fancy/cyheader;
#X text 158 740 -;
#X text 100 740 1) float;
#X text 172 740 set initial value (optional), f 60;
#X connect 6 0 17 0;
#X connect 8 0 17 1;
#X connect 9 0 17 0;
#X connect 10 0 17 2;
#X connect 11 0 17 0;
#X connect 12 0 11 0;
#X connect 17 0 7 0;
