#N canvas 390 28 557 500 10;
#X obj 2 294 cnv 3 550 3 empty empty inlets 8 12 0 13 -228856 -1 0
;
#X obj 2 366 cnv 3 550 3 empty empty outlets 8 12 0 13 -228856 -1 0
;
#X obj 2 418 cnv 3 550 3 empty empty arguments 8 12 0 13 -228856 -1
0;
#X obj 81 377 cnv 17 3 17 empty empty 0 5 9 0 16 -228856 -162280 0
;
#X obj 2 44 cnv 15 552 48 empty empty acos 4 14 0 18 -204280 -1 0;
#X obj 306 153 bng 15 250 50 0 empty empty empty 17 7 0 10 -262144
-1 -1;
#X floatatom 306 242 0 0 0 0 - - -;
#X floatatom 181 242 0 0 0 0 - - -;
#X floatatom 181 153 10 -1 1 0 - - -, f 10;
#X obj 510 56 acos;
#X obj 81 307 cnv 17 3 35 empty empty 0 5 9 0 16 -228856 -162280 0
;
#X obj 181 192 cyclone/acos;
#X obj 306 192 cyclone/acos 0.5;
#X text 15 70 arc-cosine(x) function;
#X obj 471 271 cnv 12 73 19 empty empty empty 0 0 0 18 -257983 -1 0
;
#N canvas 364 96 435 264 Examples 0;
#X obj 2 2 cnv 15 430 40 empty empty acos 3 12 0 18 -204280 -1 0;
#X obj 66 118 cyclone/acos;
#X floatatom 66 84 10 -1 1 0 - rcv_numbox1 -, f 10;
#X floatatom 66 180 10 0 0 0 - - -, f 10;
#X obj 290 118 cyclone/acos;
#X floatatom 290 84 10 -1 1 0 - rcv_numbox2 -, f 10;
#X floatatom 290 180 10 0 0 0 - - -, f 10;
#X obj 172 82 bng 20 250 50 0 empty rcv_bng empty 17 7 0 10 -262144
-1 -1;
#X floatatom 172 180 10 0 0 0 - - -, f 10;
#X obj 172 118 cyclone/acos 0;
#X obj 2 240 cnv 15 430 21 empty empty empty 20 12 0 14 -233017 -33289
0;
#N canvas 484 143 384 114 credits 0;
#X text 90 32 Examples from Max 7 Documentation.;
#X restore 351 242 pd credits;
#X text 18 23 example;
#X obj 118 56 cyclone/comment 273 11 helvetica ? 0 80 80 80 floating-point
input in the range (-1 \, 1);
#X obj 115 206 cyclone/comment 273 11 helvetica ? 0 80 80 80 arccosine
of the input in the range (0 \, π);
#N canvas 477 134 430 233 settings 0;
#X obj 53 107 loadbang;
#X obj 2 2 cnv 15 425 20 empty empty empty 3 12 0 14 -204280 -1 0;
#X obj 51 87 cyclone/comment 99 11 helvetica ? 0 80 80 80 number box
1;
#X obj 30 49 cyclone/comment 99 11 helvetica ? 0 80 80 80 set initial
state of:;
#X obj 53 151 s rcv_numbox1;
#X obj 293 107 loadbang;
#X obj 291 87 cyclone/comment 99 11 helvetica ? 0 80 80 80 number box
2;
#X obj 293 151 s rcv_numbox2;
#X obj 173 107 loadbang;
#X obj 171 87 cyclone/comment 99 11 helvetica ? 0 80 80 80 bang gui
;
#X obj 173 151 s rcv_bgn;
#X text 6 4 acos examples preset;
#X msg 53 129 -1;
#X msg 293 129 1;
#X connect 0 0 12 0;
#X connect 5 0 13 0;
#X connect 8 0 10 0;
#X connect 12 0 4 0;
#X connect 13 0 7 0;
#X restore 273 242 pd settings;
#X connect 1 0 3 0;
#X connect 2 0 1 0;
#X connect 4 0 6 0;
#X connect 5 0 4 0;
#X connect 7 0 9 0;
#X connect 9 0 8 0;
#X restore 471 271 pd Examples;
#X obj 114 154 cyclone/comment 80 11 helvetica ? 0 80 80 80 with input
as float value to take acos of;
#X obj 332 150 cyclone/comment 94 11 helvetica ? 0 80 80 92 with bang
button and argument inside acos object;
#X obj 86 108 cyclone/comment 360 10 monaco ? 0 80 80 80 acos outputs
the arccosine value of the input float value.;
#X obj 2 2 cyclone/fancy/cyheader;
#X text 159 307 -;
#X text 125 307 bang, f 5;
#X text 173 307 output acos of stored value, f 60;
#X text 159 328 -;
#X text 118 328 float, f 6;
#X text 173 328 the number to take acos of, f 60;
#X text 159 380 -;
#X text 118 379 float, f 6;
#X text 172 380 acos of input, f 60;
#X text 159 431 -;
#X text 100 431 1) float, f 9;
#X text 172 431 initial value to compute (optional), f 60;
#X obj 2 496 cnv 3 550 3 empty empty empty 0 0 0 4 -262144 -1 0;
#X obj 2 477 cnv 15 552 20 empty empty empty 20 12 0 14 -233017 -33289
0;
#N canvas 418 196 383 315 META 0;
#X text 0 20 LICENSE SIBSD;
#X text 0 100 LIBRARY cyclone;
#X text 0 60 INLET_0 float bang;
#X text 0 80 OUTLET_0 float arccosine of input;
#X text 0 0 KEYWORDS cos cosine arccosine arc acos;
#X text 0 119 VERSION 0.2-beta1;
#X text 1 138 AUTHOR Krzysztof Czaja;
#X text 1 155 RELEASE_DATE 2002;
#X text 2 174 WEBSITE http://suita.chopin.edu.pl/~czaja/miXed/externs/cyclone.html
;
#X text 0 40 DESCRIPTION arc-cosine(x) function;
#X text 1 205 HELP_PATCH_AUTHORS Christoph Kummerer. Revised by Jonathan
Wilkes for Pd-extended 0.42 to conform to the PDDP template. Alex Cleveland
updated this patch for Pd-l2ork version 2013.05.28. Fred Jan Kraan
adapted the patch to pd-extended 2015-02-02. Esteban Viveros updated
this patch for Pd-Vanilla 0.46-7.;
#X restore 492 479 pd META;
#N canvas 639 282 430 183 Related_objects 0;
#X obj 2 2 cnv 15 425 20 empty empty empty 3 12 0 14 -204280 -1 0;
#X text 7 2 Related Objects;
#X obj 76 78 cyclone/acosh~;
#X obj 77 31 cyclone/acos;
#X obj 206 78 cyclone/asinh~;
#X obj 207 55 cyclone/asin~;
#X obj 323 32 cyclone/atan~;
#X obj 323 55 cyclone/atanh~;
#X obj 76 125 cyclone/cosh~;
#X obj 76 102 cyclone/cosh;
#X obj 76 149 cyclone/cosx~;
#X obj 76 54 cyclone/acos~;
#X obj 207 32 cyclone/asin;
#X obj 207 101 cyclone/sinh;
#X obj 206 124 cyclone/sinh~;
#X obj 206 147 cyclone/sinx~;
#X obj 323 78 cyclone/tanh;
#X obj 323 101 cyclone/tanh~;
#X obj 323 124 cyclone/tanx~;
#X obj 13 31 cos~;
#X restore 205 479 pd Related_objects;
#X connect 5 0 12 0;
#X connect 8 0 11 0;
#X connect 11 0 7 0;
#X connect 12 0 6 0;
