#N canvas 392 46 564 697 10;
#N canvas 305 67 638 614 Control 1;
#X obj 23 -363 cyclone/accum;
#X obj 23 -338 cyclone/acos;
#X obj 23 -283 cyclone/active;
#X obj 23 -258 cyclone/anal;
#X obj 23 -208 cyclone/asin;
#X obj 23 -118 cyclone/bangbang;
#X obj 23 -93 cyclone/bondo;
#X obj 23 -18 cyclone/buddy;
#X obj 23 7 cyclone/capture;
#X obj 23 32 cyclone/cartopol;
#X obj 23 82 cyclone/coll;
#C restore;
#X obj 23 132 cyclone/cosh;
#X obj 23 157 cyclone/counter;
#X obj 23 182 cyclone/cycle;
#X obj 23 228 cyclone/decide;
#X obj 23 278 cyclone/drunk;
#X obj 23 303 cyclone/flush;
#X obj 23 328 cyclone/forward;
#X obj 23 353 cyclone/fromsymbol;
#X obj 23 378 cyclone/funbuff;
#C restore;
#X obj 23 403 cyclone/funnel;
#X obj 23 428 cyclone/gate;
#X obj 23 453 cyclone/grab;
#X obj 23 503 cyclone/iter;
#X obj 23 604 cyclone/match;
#X obj 23 629 cyclone/maximum;
#X obj 23 654 cyclone/mean;
#X obj 23 679 cyclone/midiflush;
#X obj 23 704 cyclone/midiformat;
#X obj 407 -359 cyclone/midiparse;
#X obj 408 -333 cyclone/minimum;
#X obj 408 -310 cyclone/mousefilter;
#X obj 408 -260 cyclone/mtr;
#X obj 408 -235 cyclone/next;
#X obj 408 -210 cyclone/offer;
#X obj 408 -185 cyclone/onebang;
#X obj 408 -136 cyclone/past;
#X obj 408 -86 cyclone/poltocar;
#X obj 408 -40 cyclone/prepend;
#X obj 408 -15 cyclone/prob;
#C restore;
#X obj 408 83 cyclone/seq;
#X obj 408 108 cyclone/sinh;
#X obj 408 133 cyclone/speedlim;
#X obj 408 158 cyclone/spell;
#X obj 408 183 cyclone/split;
#X obj 408 208 cyclone/spray;
#X obj 408 258 cyclone/substitute;
#X obj 408 283 cyclone/sustain;
#X obj 408 308 cyclone/switch;
#X obj 408 358 cyclone/tanh;
#X obj 408 383 cyclone/thresh;
#X obj 408 433 cyclone/tosymbol;
#X obj 408 483 cyclone/universal;
#X obj 408 508 cyclone/urn;
#X obj 408 558 cyclone/xbendin;
#X obj 408 605 cyclone/xbendout;
#X obj 408 655 cyclone/xnotein;
#X obj 408 680 cyclone/xnoteout;
#X obj 408 705 cyclone/zl;
#X obj 408 233 cyclone/sprintf foo %s;
#X obj 22 107 cyclone/comment 0 12 Courier ? 0 0 128 128 comment;
#X obj 23 -233 cyclone/append;
#X obj 23 -68 cyclone/borax;
#X obj 23 -43 cyclone/bucket;
#X obj 23 57 cyclone/clip;
#X obj 23 253 cyclone/decode;
#X obj 23 478 cyclone/histo;
#X obj 408 -111 cyclone/peak;
#X obj 408 -285 cyclone/mousestate;
#X obj 408 10 cyclone/pv foo;
#X obj 408 408 cyclone/togedge;
#X obj 408 458 cyclone/trough;
#X obj 408 533 cyclone/uzi;
#X obj 408 581 cyclone/xbendin2;
#X obj 408 629 cyclone/xbendout2;
#X obj 24 -312 cyclone/acosh;
#X obj 23 -185 cyclone/asinh;
#X obj 23 -162 cyclone/atanh;
#X obj 23 -140 cyclone/atodb;
#X obj 23 205 cyclone/dbtoa;
#X obj 23 577 cyclone/loadmess;
#X obj 408 -161 cyclone/pak;
#X obj 408 34 cyclone/round;
#X obj 408 58 cyclone/scale;
#X obj 408 -64 cyclone/pong;
#X obj 23 552 cyclone/linedrive;
#X text 104 106 <= [cyclone/comment];
#X obj 23 527 cyclone/join;
#X obj 408 333 cyclone/table;
#C restore;
#X restore 96 432 pd Control Objects (Max);
#N canvas 235 23 632 532 Signal 0;
#X obj 14 5 cyclone/abs~;
#X obj 14 30 cyclone/acos~;
#X obj 14 55 cyclone/acosh~;
#X obj 14 80 cyclone/allpass~;
#X obj 14 105 cyclone/asin~;
#X obj 14 130 cyclone/asinh~;
#X obj 14 155 cyclone/atan~;
#X obj 14 180 cyclone/atan2~;
#X obj 14 205 cyclone/atanh~;
#X obj 14 254 cyclone/average~;
#X obj 14 279 cyclone/avg~;
#X obj 14 330 cyclone/bitand~;
#X obj 14 355 cyclone/bitnot~;
#X obj 14 380 cyclone/bitor~;
#X obj 14 430 cyclone/bitshift~;
#X obj 14 455 cyclone/bitxor~;
#X obj 14 480 cyclone/buffir~;
#X obj 14 505 cyclone/capture~;
#X obj 14 530 cyclone/cartopol~;
#X obj 14 555 cyclone/change~;
#X obj 14 580 cyclone/click~;
#X obj 14 630 cyclone/comb~;
#X obj 14 655 cyclone/cosh~;
#X obj 14 680 cyclone/cosx~;
#X obj 14 705 cyclone/count~;
#X obj 14 730 cyclone/curve~;
#X obj 14 755 cyclone/cycle~;
#X obj 14 805 cyclone/delay~;
#X obj 14 852 cyclone/curve~;
#X obj 14 877 cyclone/delta~;
#X obj 14 902 cyclone/deltaclip~;
#X obj 14 927 cyclone/edge~;
#X obj 14 952 cyclone/frameaccum~;
#X obj 14 977 cyclone/framedelta~;
#X obj 14 1002 cyclone/index~;
#X obj 14 1027 cyclone/kink~;
#X obj 14 1077 cyclone/log~;
#X obj 14 1102 cyclone/lookup~;
#X obj 436 5 cyclone/lores~;
#X obj 436 55 cyclone/maximum~;
#X obj 436 80 cyclone/minimum~;
#X obj 436 105 cyclone/minmax~;
#X obj 436 130 cyclone/mstosamps~;
#X obj 436 155 cyclone/onepole~;
#X obj 436 180 cyclone/overdrive~;
#X obj 436 205 cyclone/peakamp~;
#X obj 436 230 cyclone/peek~;
#X obj 436 255 cyclone/phasewrap~;
#X obj 436 280 cyclone/pink~;
#X obj 436 305 cyclone/play~;
#X obj 436 330 cyclone/poke~;
#X obj 436 355 cyclone/poltocar~;
#X obj 436 380 cyclone/pong~;
#X obj 436 405 cyclone/pow~;
#X obj 436 430 cyclone/rampsmooth~;
#X obj 436 455 cyclone/rand~;
#X obj 436 480 cyclone/record~;
#X obj 436 505 cyclone/reson~;
#X obj 436 553 cyclone/sah~;
#X obj 436 578 cyclone/sampstoms~;
#X obj 436 731 cyclone/sinh~;
#X obj 436 756 cyclone/sinx~;
#X obj 436 781 cyclone/slide~;
#X obj 436 831 cyclone/spike~;
#X obj 436 856 cyclone/svf~;
#X obj 436 881 cyclone/tanh~;
#X obj 436 906 cyclone/tanx~;
#X obj 436 976 cyclone/train~;
#X obj 436 1001 cyclone/trapezoid~;
#X obj 436 1026 cyclone/triangle~;
#X obj 436 1051 cyclone/vectral~;
#X obj 436 1076 cyclone/wave~;
#X obj 436 1101 cyclone/zerox~;
#X obj 14 828 cyclone/downsamp~;
#X obj 436 929 cyclone/thresh~;
#X obj 14 305 cyclone/biquad~;
#X obj 436 952 cyclone/trunc~;
#X obj 14 228 cyclone/atodb~;
#X obj 14 780 cyclone/dbtoa~;
#X obj 436 529 cyclone/round~;
#X obj 436 602 cyclone/scale~;
#X obj 14 405 cyclone/bitsafe~;
#X obj 14 605 cyclone/clip~;
#X obj 14 1052 cyclone/line~;
#X obj 436 806 cyclone/snapshot~;
#X obj 436 627 cyclone/scope~ 149 95 256 3 128 -1 1 0 0 0 0 205 229
232 74 79 77 96 98 102 0;
#X text 311 666 [cyclone/scope~] =>;
#X obj 436 30 cyclone/matrix~;
#X restore 253 432 pd Signal Objects (MSP);
#X obj 284 308 cyclone-help;
#X obj 4 4 cnv 15 552 60 empty empty empty 6 13 0 18 -128992 -233080
0;
#X obj 29 7 comment 0 22 courier ? 0 224 228 220 cyclone;
#X obj 30 35 comment 0 14 courier ? 0 224 228 220 version 0.3 beta
;
#X obj 137 10 comment 0 14 courier ? 0 224 228 220 - a set of Pure
Data objects cloned from Max/MSP;
#X obj 272 37 comment 0 12 courier ? 0 224 228 220 https://github.com/porres/pd-cyclone
;
#X obj 4 64 cnv 15 552 90 empty empty empty 20 12 0 14 -233017 -66577
0;
#X obj 20 76 comment 0 18 helvetica ? 0 0 0 0 Cyclone expands Pure
Data with objects cloned from Max/MSP.;
#X obj 35 106 comment 0 14 helvetica ? 0 0 0 0 It also provides some
level of compatibility between the two environments \,;
#X obj 35 124 comment 0 14 helvetica ? 0 0 0 0 helping users of both
systems in the development of cross-platform patches.;
#X text 55 477 Differences between Pd and MAX:;
#X text 62 254 Cyclone also includes a sub library for 12 non-alphanumeric
objects. To install it you need to include "cyclone" in Pd's Startup.
;
#X obj 58 173 comment 0 16 times ? 0 0 0 0 How to install?;
#X text 68 343 If you need more details \, please check: https://github.com/porres/pd-cyclone/wiki/How-To-Install
;
#X obj 68 575 comment 0 16 times ? 0 0 0 0 Bugs / Issues?;
#X text 79 599 Please report them at: https://github.com/porres/pd-cyclone/issues
;
#X text 77 308 check the cyclone sub-library =>;
#X obj 67 401 comment 0 16 times ? 0 0 0 0 All Cyclone's objects:;
#X obj 443 433 switch~;
#X text 61 197 Most of cyclone objects are single binaries \, so all
you need is to have tem inside the cyclone folder amongst your other
external libraries. You can then include this folder in Pd's "Path".
;
