#N canvas 399 28 572 577 10;
#X obj 3 427 cnv 3 550 3 empty empty inlets 8 12 0 13 -228856 -1 0
;
#X obj 3 537 cnv 3 550 3 empty empty outlets 8 12 0 13 -228856 -1 0
;
#X obj 3 586 cnv 3 550 3 empty empty arguments 8 12 0 13 -228856 -1
0;
#X obj 81 436 cnv 17 3 80 empty empty 0 5 9 0 16 -228856 -162280 0
;
#X obj 81 548 cnv 17 3 17 empty empty n 5 9 0 16 -228856 -162280 0
;
#X obj 2 45 cnv 15 552 48 empty empty bangbang 4 14 0 18 -204280 -1
0;
#X obj 115 138 bng 15 250 50 0 empty empty empty 0 -6 0 8 -262144 -1
-1;
#X text 14 71 send a number of bangs in order;
#X obj 484 51 bangbang;
#X obj 220 229 print the;
#X obj 202 250 print quick;
#X obj 185 271 print brown;
#X obj 167 291 print fox;
#X obj 150 312 print jumped;
#X obj 132 333 print over;
#X obj 115 354 print the lazy dog.;
#X obj 115 179 cyclone/bangbang 7;
#X obj 466 402 cnv 12 73 19 empty empty empty 0 0 0 18 -257983 -1 0
;
#N canvas 370 94 505 264 Examples 0;
#X obj 2 2 cnv 15 500 40 empty empty bangbang 3 12 0 18 -204280 -1
0;
#X obj 2 240 cnv 15 500 21 empty empty empty 20 12 0 14 -233017 -33289
0;
#N canvas 502 160 384 114 credits 0;
#X text 91 33 Examples from Max 7 Documentation., f 36;
#X restore 423 242 pd credits;
#X text 69 25 examples;
#X obj 73 95 bng 15 250 50 0 empty empty empty 17 7 0 10 -262144 -1
-1;
#X msg 116 174 1;
#X msg 86 174 2;
#X msg 56 174 3;
#X msg 26 174 4;
#X obj 191 124 bangbang 4, f 12;
#X obj 191 87 bng 15 250 50 0 empty empty empty 17 7 0 10 -262144 -1
-1;
#X msg 179 174 1;
#X msg 209 174 2;
#X msg 239 174 3;
#X msg 269 174 4;
#X obj 355 124 bangbang 4, f 12;
#X obj 355 85 bng 15 250 50 0 empty empty empty 17 7 0 10 -262144 -1
-1;
#X msg 403 174 3;
#X msg 343 174 4;
#X msg 373 174 1;
#X msg 433 174 2;
#X connect 4 0 5 0;
#X connect 4 0 6 0;
#X connect 4 0 7 0;
#X connect 4 0 8 0;
#X connect 9 0 14 0;
#X connect 9 1 13 0;
#X connect 9 2 12 0;
#X connect 9 3 11 0;
#X connect 10 0 9 0;
#X connect 15 0 18 0;
#X connect 15 1 17 0;
#X connect 15 2 20 0;
#X connect 15 3 19 0;
#X connect 16 0 15 0;
#X restore 466 402 pd Examples;
#X obj 2 675 cnv 3 550 3 empty empty empty 0 0 0 4 -262144 -1 0;
#X obj 2 2 cyclone/fancy/cyheader;
#X obj 30 105 cyclone/comment 360 10 monaco ? 0 80 80 80 bangbang operates
just like bang \, but it sends several bangs;
#X obj 2 655 cnv 15 552 21 empty empty empty 20 12 0 14 -233017 -33289
0;
#N canvas 490 127 408 299 META 0;
#X text 1 20 LICENSE SIBSD;
#X text 1 100 LIBRARY cyclone;
#X text 1 0 KEYWORDS bang bangbang control;
#X text 1 40 DESCRIPTION send a number of bangs in order;
#X text 1 60 INLET_0 float bang message symbol;
#X text 1 80 OUTLET_0 bang;
#X text 0 118 VERSION 0.2-beta1;
#X text 0 136 AUTHOR Krzysztof Czaja;
#X text 1 154 RELEASE_DATE 2002;
#X text 2 173 WEBSITE http://suita.chopin.edu.pl/~czaja/miXed/externs/cyclone.html
;
#X text 2 205 HELP_PATCH_AUTHORS Christoph Kummerer. Revised by Jonathan
Wilkes for Pd-extended 0.42 to conform to the PDDP template. Alex Cleveland
updated this patch for Pd-l2ork version 2013.05.28. Fred Jan Kraan
adapted the patch to pd-extended 2015-02-02. Esteban Viveros updated
this patch for Pd-Vanilla 0.47-2.;
#X restore 492 657 pd META;
#N canvas 366 145 430 62 Related_objects 0;
#X obj 2 2 cnv 15 425 20 empty empty empty 3 12 0 14 -204280 -1 0;
#X text 8 3 Related Objects;
#X obj 164 30 bang;
#X obj 199 30 loadbang;
#X obj 135 30 b;
#X obj 13 30 trigger b b b b b, f 18;
#X restore 212 657 pd Related_objects;
#X text 125 437 bang;
#X text 158 462 -;
#X text 118 457 float;
#X text 107 477 message;
#X text 118 497 float;
#X text 173 462 anything will trigger a bangbang! just like a bang
, f 60;
#X text 125 550 bang;
#X text 158 605 -;
#X text 100 605 1) float;
#X text 172 605 set the number of bang outlets (optional), f 60;
#X obj 134 381 cyclone/comment 25 11 helvetica ? 0 80 80 80 ----;
#X obj 133 378 cyclone/comment 25 11 helvetica ? 0 80 80 80 |;
#X obj 131 372 cyclone/comment 25 11 helvetica ? 0 80 80 80 ^;
#X obj 154 378 cyclone/comment 79 11 helvetica ? 0 80 80 80 see results
of print object in Pd main window;
#X connect 6 0 16 0;
#X connect 16 0 15 0;
#X connect 16 1 14 0;
#X connect 16 2 13 0;
#X connect 16 3 12 0;
#X connect 16 4 11 0;
#X connect 16 5 10 0;
#X connect 16 6 9 0;
