#N canvas 643 23 564 817 10;
#X obj 55 256 noise~;
#X obj 86 378 output~;
#X obj 119 254 unpack f f f f f;
#X obj 119 282 sig~;
#X obj 152 282 sig~;
#X obj 184 282 sig~;
#X obj 217 282 sig~;
#X obj 253 282 sig~;
#X msg 119 194 0.02635 0 -0.02635 -1.97899 0.982357;
#X msg 143 225 0.252176 0 -0.252176 -1.68963 0.72158;
#X obj 119 169 loadbang;
#X obj 102 327 cyclone/biquad~;
#X text 350 194 (a0 \, a1 \, a2 \, b1 \, b2);
#X obj 2 40 cnv 15 552 50 empty empty biquad~ 3 12 0 18 -204280 -1
0;
#N canvas 439 241 715 321 (subpatch) 0;
#X obj 51 51 cnv 15 552 28 empty empty Cyclone: 6 13 0 18 -128992 -233080
0;
#X obj 217 65 cnv 5 5 5 empty empty Library 0 0 0 12 -128992 -233080
0;
#X obj 275 65 cnv 5 5 5 empty empty of 0 0 0 12 -128992 -233080 0;
#X obj 298 64 cnv 5 5 5 empty empty objects 0 0 0 12 -128992 -233080
0;
#X obj 356 64 cnv 5 5 5 empty empty cloned 0 0 0 12 -128992 -233080
0;
#X obj 406 64 cnv 5 5 5 empty empty from 0 0 0 12 -128992 -233080 0
;
#X obj 444 64 cnv 5 5 5 empty empty Max/MSP 0 0 0 12 -128992 -233080
0;
#X coords 0 -1 1 1 554 30 1 50 50;
#X restore 1 4 pd;
#X obj 502 67 biquad~;
#X text 14 67 biquad filter;
#X text 111 457 This is an abstraction \, it does not support arguments
and is not a proper clone of the object since it does not implement
features only possible via a compiled object. It serves as a basis
to code a new object.;
#X obj 3 540 cnv 3 550 3 empty empty inlets 8 12 0 13 -228856 -1 0
;
#X obj 3 687 cnv 3 550 3 empty empty outlets 8 12 0 13 -228856 -1 0
;
#X obj 85 568 cnv 17 3 17 empty empty 1 5 9 0 16 -228856 -162280 0
;
#X text 153 549 signal;
#X obj 86 696 cnv 17 3 17 empty empty 0 5 9 0 16 -228856 -162280 0
;
#X obj 85 549 cnv 17 3 17 empty empty 0 5 9 0 16 -228856 -162280 0
;
#X text 117 570 float/signal;
#X obj 85 589 cnv 17 3 17 empty empty 2 5 9 0 16 -228856 -162280 0
;
#X text 117 591 float/signal;
#X text 74 100 biquad filter \, equation:;
#X text 76 122 y[0] = a0*x[0] + a1*x[-1] + a2*x[-2] - b1*y[-1] - b2*y[-2]
;
#X text 209 548 - input to filter;
#X text 208 571 - a0 coefficient;
#X text 208 592 - a1 coefficient;
#X obj 85 610 cnv 17 3 17 empty empty 3 5 9 0 16 -228856 -162280 0
;
#X text 117 612 float/signal;
#X obj 85 631 cnv 17 3 17 empty empty 4 5 9 0 16 -228856 -162280 0
;
#X text 117 633 float/signal;
#X obj 85 653 cnv 17 3 17 empty empty 5 5 9 0 16 -228856 -162280 0
;
#X text 117 655 float/signal;
#X text 208 613 - a2 coefficient;
#X text 208 634 - b1 coefficient;
#X text 208 656 - b2 coefficient;
#X text 165 696 signal - filter output;
#X obj 3 769 cnv 15 552 21 empty empty empty 20 12 0 14 -233017 -33289
0;
#N canvas 378 396 407 280 META 0;
#X text 0 19 LICENSE SIBSD;
#X text 0 133 LIBRARY cyclone;
#X text 0 57 INLET_0 signal;
#X text 0 0 KEYWORDS filter pass;
#X text 0 76 INLET_1 float delay time;
#X text 0 95 INLET_2 float gain;
#X text 0 114 OUTLET_0 signal;
#X text 0 38 DESCRIPTION allpass filter for signal;
#X text 1 153 VERSION 0.2-beta1;
#X text 1 171 AUTHOR Krzysztof Czaja;
#X text 2 189 RELEASE_DATE 2002;
#X text 3 208 WEBSITE http://suita.chopin.edu.pl/~czaja/miXed/externs/cyclone.html
;
#X text 3 240 HELP_PATCH_AUTHORS Christoph Kummerer. Revised by Jonathan
Wilkes for Pd-extended 0.42 to conform to the PDDP template. Alex Cleveland
updated this patch for Pd-l2ork version 2013.05.28. Fred Jan Kraan
adapted the patch to pd-extended 2015-02-02;
#X restore 502 771 pd META;
#X obj 3 734 cnv 3 550 3 empty empty arguments 8 12 0 13 -228856 -1
0;
#N canvas 947 59 434 83 Related_objects 0;
#X obj 0 0 cnv 15 425 20 empty empty empty 3 12 0 14 -204280 -1 0;
#X text 6 1 Related Objects;
#X restore 205 771 pd Related_objects;
#X text 135 744 This abstraction does not support arguments;
#X connect 0 0 11 0;
#X connect 2 0 3 0;
#X connect 2 1 4 0;
#X connect 2 2 5 0;
#X connect 2 3 6 0;
#X connect 2 4 7 0;
#X connect 3 0 11 1;
#X connect 4 0 11 2;
#X connect 5 0 11 3;
#X connect 6 0 11 4;
#X connect 7 0 11 5;
#X connect 8 0 2 0;
#X connect 9 0 2 0;
#X connect 10 0 8 0;
#X connect 11 0 1 0;
#X connect 11 0 1 1;
