#N canvas 158 23 568 690 10;
#X obj 6 636 cnv 15 552 21 empty empty empty 20 12 0 14 -233017 -33289
0;
#X obj 6 458 cnv 3 550 3 empty empty inlets 8 12 0 13 -228856 -1 0
;
#N canvas 367 383 441 271 META 0;
#X text 0 20 LICENSE SIBSD;
#X text 0 113 LIBRARY cyclone;
#X text 0 73 INLET_0 signal;
#X text 0 93 OUTLET_0 signal;
#X text 0 0 KEYWORDS boolean bitnot bitwise signal;
#X text 0 40 DESCRIPTION performs bitwise boolean operations on a float
signal;
#X text 0 134 VERSION 0.2-beta1;
#X text 0 152 AUTHOR Krzysztof Czaja;
#X text 1 170 RELEASE_DATE 2002;
#X text 2 189 WEBSITE http://suita.chopin.edu.pl/~czaja/miXed/externs/cyclone.html
;
#X text 2 221 HELP_PATCH_AUTHORS Christoph Kummerer. Revised by Jonathan
Wilkes for Pd-extended 0.42 to conform to the PDDP template. Alex Cleveland
updated this patch for Pd-l2ork version 2013.05.28. Fred Jan Kraan
adapted the patch to pd-extended 2015-02-02;
#X restore 504 639 pd META;
#X obj 6 547 cnv 3 550 3 empty empty outlets 8 12 0 13 -228856 -1 0
;
#X obj 6 588 cnv 3 550 3 empty empty arguments 8 12 0 13 -228856 -1
0;
#N canvas 158 549 428 109 Related_objects 0;
#X obj 0 0 cnv 15 425 20 empty empty empty 3 12 0 14 -204280 -1 0;
#X text 6 1 Related Objects;
#X obj 7 27 cyclone/bitnot~;
#X obj 7 54 cyclone/bitor~;
#X obj 7 77 cyclone/bitxor~;
#X obj 109 28 cyclone/bitshift~;
#X restore 216 639 pd Related_objects;
#X obj 90 554 cnv 17 3 17 empty empty 0 5 9 0 16 -228856 -162280 0
;
#X obj 6 40 cnv 15 551 41 empty empty bitnot~ 3 12 0 18 -204280 -1
0;
#X text 126 553 signal;
#X text 126 465 signal;
#X obj 309 345 clip~ -1 1;
#X msg 175 295 mode \$1;
#X floatatom 121 263 0 0 0 0 - - -;
#X obj 121 289 sig~ 0;
#X obj 309 276 cycle~ 440;
#X obj 121 363 Snapshot~ 100;
#X text 108 600 1) float;
#X obj 505 44 bitnot~;
#X obj 90 466 cnv 17 3 17 empty empty 0 5 9 0 16 -228856 -162280 0
;
#X obj 291 383 output~;
#X text 284 236 bitwise boolean operation;
#X text 282 248 on a signal as bits;
#X obj 309 312 cyclone/bitnot~;
#X floatatom 121 398 0 0 0 0 - - -;
#X text 138 527 mode;
#X text 181 600 - mode: <0> (default) or <1>:;
#X text 181 465 - signal to do "bitwise not" with;
#X text 26 64 Bitwise inversion of a floating point signal;
#X text 70 102 Use the [bitnot~] object to perform a bitwise inversion
on an incoming floating-point signal as either raw 32-bit data or as
an integer value. All bit values of 1 are set to 0 and vice versa.
;
#X obj 175 268 tgl 20 0 empty empty empty 17 7 0 10 -228856 -1 -1 0
1;
#X obj 121 331 cyclone/bitnot~ 1;
#X text 181 553 - The resulting bit inverted floating-point signal
;
#X text 72 164 Floating-point signal bit values are expressed in the
following form \; <1 sign bit> <8 exponent bits> <23 mantissa bits>
;
#X obj 84 283 tgl 20 0 empty empty empty 17 7 0 10 -228856 -1 -1 0
1;
#X text 132 483 float;
#X text 180 527 - <mode 0> or <mode 1>;
#X text 181 483 - <0>: mode 0 - treat floating point input as raw 32
bit value \; - <1>: mode 1 - convert floating point input to integer
;
#N canvas 439 241 715 321 (subpatch) 0;
#X obj 51 51 cnv 15 552 28 empty empty Cyclone: 6 13 0 18 -128992 -233080
0;
#X obj 217 65 cnv 5 5 5 empty empty Library 0 0 0 12 -128992 -233080
0;
#X obj 275 65 cnv 5 5 5 empty empty of 0 0 0 12 -128992 -233080 0;
#X obj 298 64 cnv 5 5 5 empty empty objects 0 0 0 12 -128992 -233080
0;
#X obj 356 64 cnv 5 5 5 empty empty cloned 0 0 0 12 -128992 -233080
0;
#X obj 406 64 cnv 5 5 5 empty empty from 0 0 0 12 -128992 -233080 0
;
#X obj 444 64 cnv 5 5 5 empty empty Max/MSP 0 0 0 12 -128992 -233080
0;
#X coords 0 -1 1 1 554 30 1 50 50;
#X restore 5 5 pd;
#X connect 10 0 19 0;
#X connect 10 0 19 1;
#X connect 11 0 30 0;
#X connect 12 0 13 0;
#X connect 13 0 30 0;
#X connect 14 0 22 0;
#X connect 15 0 23 0;
#X connect 22 0 10 0;
#X connect 29 0 11 0;
#X connect 30 0 15 0;
#X connect 33 0 30 0;
