#N canvas 404 28 572 564 10;
#X obj 2 45 cnv 15 552 48 empty empty capture 4 14 0 18 -204280 -1
0;
#X text 15 72 store and edit numbers;
#X msg 143 237 open;
#X floatatom 84 168 5 0 0 0 - - -, f 5;
#X msg 57 145 10 20 30 40;
#X msg 143 216 dump;
#X obj 84 444 print dump;
#X msg 143 195 clear;
#X msg 143 258 wclose;
#X msg 143 279 count;
#X msg 143 300 write;
#X msg 143 324 write /tmp/test.txt;
#X obj 491 56 capture;
#X obj 84 373 cyclone/capture 64;
#X obj 2 1114 cnv 3 550 3 empty empty empty 0 0 0 4 -262144 -1 0;
#X obj 2 1094 cnv 15 552 21 empty empty empty 20 12 0 14 -233017 -33289
0;
#X obj 2 510 cnv 3 550 3 empty empty inlets 8 12 0 13 -228856 -1 0
;
#N canvas 512 118 368 338 META 0;
#X text 1 18 LICENSE SIBSD;
#X text 1 126 LIBRARY cyclone;
#X text 1 0 KEYWORDS store float edit;
#X text 1 36 DESCRIPTION store and edit numbers;
#X text 1 54 INLET_0 float;
#X text 1 72 INLET_1 list;
#X text 1 90 INLET_2 messages;
#X text 1 108 OUTLET_0 list;
#X text 0 144 VERSION 0.2-beta1;
#X text 0 162 AUTHOR Krzysztof Czaja;
#X text 1 180 RELEASE_DATE 2002;
#X text 2 199 WEBSITE http://suita.chopin.edu.pl/~czaja/miXed/externs/cyclone.html
;
#X text 2 231 HELP_PATCH_AUTHORS Christoph Kummerer. Revised by Jonathan
Wilkes for Pd-extended 0.42 to conform to the PDDP template. Alex Cleveland
updated this patch for Pd-l2ork version 2013.05.28. Fred Jan Kraan
adapted the patch to pd-extended 2015-02-02. Esteban Viveros updated
this patch for Pd-Vanilla 0.47-2.;
#X restore 500 1096 pd META;
#X obj 2 754 cnv 3 550 3 empty empty outlets 8 12 0 13 -228856 -1 0
;
#X obj 2 857 cnv 3 550 3 empty empty arguments 8 12 0 13 -228856 -1
0;
#N canvas 364 145 430 73 Related_objects 0;
#X obj 2 2 cnv 15 425 20 empty empty empty 3 12 0 14 -204280 -1 0;
#X text 8 3 Related Objects;
#X obj 46 32 textfile;
#X obj 106 32 cyclone/coll;
#C restore;
#X obj 192 32 cyclone/funbuff;
#C restore;
#X obj 10 32 text;
#X obj 341 32 table;
#X obj 297 32 array;
#X restore 216 1096 pd Related_objects;
#X obj 83 520 cnv 17 3 195 empty empty 0 5 9 0 16 -228856 -162280 0
;
#X obj 83 764 cnv 17 3 17 empty empty 0 5 9 0 16 -228856 -162280 0
;
#X obj 467 484 cnv 12 73 19 empty empty empty 0 0 0 18 -257983 -1 0
;
#N canvas 303 95 585 377 Examples 0;
#X obj 2 2 cnv 15 580 40 empty empty capture 3 12 0 18 -204280 -1 0
;
#X obj 2 353 cnv 15 580 21 empty empty empty 20 12 0 14 -233017 -33289
0;
#X text 40 25 examples;
#N canvas 533 161 378 120 credits 0;
#X text 92 34 Examples from Max 7 Documentation., f 35;
#X restore 501 355 pd credits;
#X obj 83 71 notein 1, f 9;
#X obj 83 100 stripnote;
#X obj 344 71 hsl 128 15 0 127 0 0 empty empty empty -2 -8 0 10 -262144
-1 -1 0 1;
#N canvas 369 190 450 300 testing 0;
#X obj 188 106 inlet;
#X obj 210 157 outlet;
#X connect 0 0 1 0;
#X restore 341 99 pd testing;
#X obj 341 131 capture;
#X obj 141 212 midiin;
#X obj 141 264 capture 4000 m;
#X obj 141 305 print;
#X msg 203 212 dump;
#X obj 83 132 capture 16;
#X obj 241 212 cyclone/comment 180 11 helvetica ? 0 80 80 80 "dump"
spews contents out one number at a time (could be used for dumping
raw MIDI);
#X obj 234 269 cyclone/comment 180 11 helvetica ? 0 80 80 80 <-- click
to open text editor;
#X connect 4 0 5 0;
#X connect 4 1 5 1;
#X connect 5 0 13 0;
#X connect 6 0 7 0;
#X connect 7 0 8 0;
#X connect 9 0 10 0;
#X connect 10 0 11 0;
#X connect 12 0 10 0;
#X restore 467 484 pd Examples;
#X obj 133 145 cyclone/comment 300 11 helvetica ? 0 80 80 80 list is
stored from first to last;
#X obj 119 169 cyclone/comment 300 11 helvetica ? 0 80 80 80 numbers
are stored sequentially;
#X obj 184 195 cyclone/comment 300 11 helvetica ? 0 80 80 80 clear
contents;
#X obj 179 216 cyclone/comment 300 11 helvetica ? 0 80 80 80 send out
all stored values sequentially;
#X obj 175 238 cyclone/comment 300 11 helvetica ? 0 80 80 80 open editing
window;
#X obj 187 259 cyclone/comment 300 11 helvetica ? 0 80 80 80 close
editing window;
#X obj 182 282 cyclone/comment 300 11 helvetica ? 0 80 80 80 print
number of items to the console;
#X obj 183 303 cyclone/comment 300 11 helvetica ? 0 80 80 80 save to
textfile (dialog box asks for filename);
#X obj 266 327 cyclone/comment 300 11 helvetica ? 0 80 80 80 write
to file (no dialog);
#X obj 209 370 cyclone/comment 260 11 helvetica ? 0 80 80 80 first
arg is number of values to store (default 512);
#X obj 209 383 cyclone/comment 260 11 helvetica ? 0 80 80 80 second
arg is x - values are in hex;
#X obj 275 394 cyclone/comment 260 11 helvetica ? 0 80 80 80 m - values
< 128 decimal \, larger numbers are hex;
#X obj 275 406 cyclone/comment 260 11 helvetica ? 0 80 80 80 d - decimal
\, default max behaviour \, only ints;
#X obj 257 417 cyclone/comment 260 11 helvetica ? 0 80 80 80 none -
values are decimal \, supports float;
#X obj 2 2 cyclone/fancy/cyheader;
#X text 158 521 -;
#X text 118 521 float;
#X text 158 583 -;
#X text 173 521 numbers are stored sequentially, f 60;
#X text 100 583 messages;
#X text 173 583 "clear":;
#X text 227 583 clear contents, f 51;
#X text 173 622 "dump":;
#X text 221 622 send out all stored values sequentially, f 52;
#X text 173 642 "open":;
#X text 221 642 open editing window. Clicking on the capture object
in a locked patcher has the same effect., f 52;
#X text 173 674 "wclose":;
#X text 233 674 close editing window, f 50;
#X text 173 602 "count":;
#X text 233 602 print number of items to the console, f 50;
#X text 173 694 "write":;
#X text 227 694 save to textfile (dialog box asks for filename), f
51;
#X text 323 714 write to file (no dialog), f 35;
#X text 173 714 "write </path/to/file>":;
#X text 158 562 -;
#X text 124 562 list;
#X text 173 562 list of numbers stored from first to last, f 60;
#X text 158 872 -;
#X text 100 872 1) float;
#X text 172 872 number of values to store (default 512), f 60;
#X text 158 896 -;
#X text 100 896 2) str x;
#X text 172 896 values are in hex, f 60;
#X text 158 916 -;
#X text 142 916 m;
#X text 172 916 values < 128 decimal \, larger numbers are hex, f
60;
#X text 158 936 -;
#X text 142 936 d;
#X text 158 955 -;
#X text 112 955 (none);
#X text 172 955 values are decimal \, supports float, f 60;
#X obj 153 447 cyclone/comment 52 11 helvetica ? 0 80 80 80 <----;
#X obj 179 445 cyclone/comment 79 11 helvetica ? 0 80 80 80 see results
of print object in Pd main window;
#X obj 25 103 cyclone/comment 464 10 monaco ? 0 80 80 80 Store up to
512 items in the order they are received for viewing \, editing \,
and saving.;
#X text 158 821 -;
#X text 124 821 list;
#X text 173 821 list of numbers stored, f 60;
#X text 172 936 decimal \, default max behaviour \, only integers,
f 60;
#X text 158 542 -;
#X text 112 542 symbol;
#X text 173 542 feature not implemented, f 60;
#X text 158 767 -;
#X text 118 767 float;
#X text 158 800 -;
#X text 112 800 symbol;
#X text 173 800 feature not implemented, f 60;
#X text 173 767 the captured content are sent out the left outlet \,
one at a time \, in response to the dump message, f 60;
#X obj 2 990 cnv 3 550 3 empty empty more_info 8 12 0 13 -228856 -1
0;
#X text 110 1009 Since Max 5 was implemented a right outlet in [capture]
object \, it output the number of received items since last count message
was received. Symbols store are supported synce Max 4.6 \, these features
are not implemented yet.;
#X connect 2 0 13 0;
#X connect 3 0 13 0;
#X connect 4 0 13 0;
#X connect 5 0 13 0;
#X connect 7 0 13 0;
#X connect 8 0 13 0;
#X connect 9 0 13 0;
#X connect 10 0 13 0;
#X connect 11 0 13 0;
#X connect 13 0 6 0;
