#N canvas 651 40 565 687 10;
#X obj 5 646 cnv 15 552 21 empty empty empty 20 12 0 14 -233017 -33289
0;
#X obj 8 477 cnv 3 550 3 empty empty inlets 8 12 0 13 -228856 -1 0
;
#N canvas 373 345 428 264 META 0;
#X text 0 20 LICENSE SIBSD;
#X text 0 100 LIBRARY cyclone;
#X text 0 80 OUTLET_0 signal;
#X text 0 0 KEYWORDS signal impulse band;
#X text 0 40 DESCRIPTION generate an impulse;
#X text 0 60 INLET_0 bang set;
#X text 0 122 VERSION 0.2-beta1;
#X text 0 140 AUTHOR Krzysztof Czaja;
#X text 1 158 RELEASE_DATE 2002;
#X text 2 177 WEBSITE http://suita.chopin.edu.pl/~czaja/miXed/externs/cyclone.html
;
#X text 2 209 HELP_PATCH_AUTHORS Christoph Kummerer. Revised by Jonathan
Wilkes for Pd-extended 0.42 to conform to the PDDP template. Alex Cleveland
updated this patch for Pd-l2ork version 2013.05.28. Fred Jan Kraan
adapted the patch to pd-extended 2015-02-02;
#X restore 505 649 pd META;
#X obj 9 548 cnv 3 550 3 empty empty outlets 8 12 0 13 -228856 -1 0
;
#X obj 9 585 cnv 3 550 3 empty empty arguments 8 12 0 13 -228856 -1
0;
#N canvas 150 501 428 109 Related_objects 0;
#X obj 0 0 cnv 15 425 20 empty empty empty 3 12 0 14 -204280 -1 0;
#X text 6 1 Related Objects;
#X obj 8 31 noise~;
#X obj 56 31 osc~;
#X restore 214 649 pd Related_objects;
#X obj 86 487 cnv 17 3 42 empty empty 0 5 9 0 16 -228856 -162280 0
;
#X obj 86 558 cnv 17 3 17 empty empty 0 5 9 0 16 -228856 -162280 0
;
#X obj 5 41 cnv 15 552 40 empty empty click~ 3 12 0 18 -204280 -1 0
;
#X text 17 64 generate an impulse;
#X text 106 486 bang;
#X text 169 486 - generate impulse based on arg or stored value;
#X text 106 512 set;
#X text 106 557 signal;
#X text 169 557 - signal based on impulse value stored;
#X obj 507 53 click~;
#X obj 127 335 print~;
#X msg 106 204 set 1, f 6;
#X obj 82 260 bng 25 250 50 0 empty empty empty 17 7 0 10 -228856 -1
-1;
#X obj 127 300 cyclone/click~;
#X obj 56 409 output~;
#X text 133 388 test your reverberator;
#X text 82 102 Use [click~] to create an impulse when receiving a bang.
An impulse is a single sample with a value of one \, followed by zeros
and this is the default impulse generate by [click~] \, but you can
can also set your own impulse with a list of sample values sent via
"set" message or loaded as argument.;
#X text 169 512 - create a personalized impulse (max 256 samples);
#X text 89 604 1) float / list;
#X text 193 604 - Impulse value (if float) or values (if list);
#X obj 330 223 cyclone/click~;
#X obj 330 195 bng 15 250 50 0 empty empty empty 17 7 0 10 -228856
-1 -1;
#X obj 330 251 cyclone/slide~ 1 5000;
#X msg 127 233 set -1 0.25 1 0.5;
#X text 303 426 Exponentially decaying envelope;
#X obj 330 282 cyclone/Scope~ 130 130 256 3 128 -1 1 0 0 0 0 205 229
232 74 79 77 0;
#N canvas 439 241 715 321 (subpatch) 0;
#X obj 51 51 cnv 15 552 28 empty empty Cyclone: 6 13 0 18 -128992 -233080
0;
#X obj 217 65 cnv 5 5 5 empty empty Library 0 0 0 12 -128992 -233080
0;
#X obj 275 65 cnv 5 5 5 empty empty of 0 0 0 12 -128992 -233080 0;
#X obj 298 64 cnv 5 5 5 empty empty objects 0 0 0 12 -128992 -233080
0;
#X obj 356 64 cnv 5 5 5 empty empty cloned 0 0 0 12 -128992 -233080
0;
#X obj 406 64 cnv 5 5 5 empty empty from 0 0 0 12 -128992 -233080 0
;
#X obj 444 64 cnv 5 5 5 empty empty Max/MSP 0 0 0 12 -128992 -233080
0;
#X coords 0 -1 1 1 554 30 1 50 50;
#X restore 5 6 pd;
#X obj 74 368 cyclone/allpass~ 40 40 0.5;
#X connect 17 0 19 0;
#X connect 17 0 18 0;
#X connect 18 0 16 0;
#X connect 18 0 19 0;
#X connect 19 0 16 0;
#X connect 19 0 33 0;
#X connect 26 0 28 0;
#X connect 27 0 26 0;
#X connect 28 0 31 0;
#X connect 29 0 19 0;
#X connect 29 0 18 0;
#X connect 33 0 20 0;
#X connect 33 0 20 1;
