#N canvas 45 131 562 700 10;
#X obj 5 654 cnv 15 552 21 empty empty empty 20 12 0 14 -233017 -33289
0;
#X obj 5 468 cnv 3 550 3 empty empty inlets 8 12 0 13 -228856 -1 0
;
#N canvas 1120 195 440 260 META 0;
#X text 1 20 LICENSE SIBSD;
#X text 1 100 LIBRARY cyclone;
#X text 1 0 KEYWORDS signal constrain clip pass filter range;
#X text 1 40 DESCRIPTION constrains a signal within a certain range
;
#X text 1 60 INLET_0 signal;
#X text 1 80 OUTLET_0 signal;
#X text 0 120 VERSION 0.2-beta1;
#X text 0 138 AUTHOR Krzysztof Czaja;
#X text 1 156 RELEASE_DATE 2002;
#X text 2 175 WEBSITE http://suita.chopin.edu.pl/~czaja/miXed/externs/cyclone.html
;
#X text 2 207 HELP_PATCH_AUTHORS Christoph Kummerer. Revised by Jonathan
Wilkes for Pd-extended 0.42 to conform to the PDDP template. Alex Cleveland
updated this patch for Pd-l2ork version 2013.05.28. Fred Jan Kraan
adapted the patch to pd-extended 2015-02-02;
#X restore 506 656 pd META;
#X obj 5 555 cnv 3 550 3 empty empty outlets 8 12 0 13 -228856 -1 0
;
#X obj 5 597 cnv 3 550 3 empty empty arguments 8 12 0 13 -228856 -1
0;
#N canvas 228 453 427 109 Related_objects 0;
#X obj 0 0 cnv 15 425 20 empty empty empty 3 12 0 14 -204280 -1 0;
#X text 6 1 Related Objects;
#X obj 8 29 clip~;
#X obj 50 29 clip;
#X restore 215 656 pd Related_objects;
#X obj 83 567 cnv 17 3 17 empty empty 0 5 9 0 16 -228856 -162280 0
;
#X obj 5 40 cnv 15 552 40 empty empty cyclone/clip~ 3 12 0 18 -204280
-1 0;
#X text 17 63 Constrains a signal within a certain range;
#X text 146 481 signal;
#X text 145 566 signal;
#X text 205 566 - outputs part of signal inside range;
#X text 205 606 - sets minimun number of range \, (default is 0);
#X text 205 628 - sets maximum number of range \, (default is 0);
#X obj 84 481 cnv 17 3 17 empty empty 0 5 9 0 16 -228856 -162280 0
;
#X text 205 481 - signal to pass through range filter;
#X obj 83 503 cnv 17 3 17 empty empty 1 5 9 0 16 -228856 -162280 0
;
#X text 203 504 - minimal value;
#X obj 82 525 cnv 17 3 17 empty empty 2 5 9 0 16 -228856 -162280 0
;
#X text 203 526 - maximal level;
#X obj 208 153 hsl 128 15 -1 1 0 0 empty empty empty -2 -8 0 10 -228856
-1 -1 0 1;
#X floatatom 205 177 5 0 0 0 - - -, f 5;
#X obj 261 184 hsl 128 15 -1 1 0 0 empty empty empty -2 -8 0 10 -228856
-1 -1 0 1;
#X floatatom 258 206 5 0 0 0 - - -, f 5;
#X text 109 526 float/signal;
#X text 135 607 1) float;
#X text 135 628 2) float;
#X text 110 504 float/signal;
#X text 48 103 Use the [clip~] object to constrains input signals between
two specified values.;
#N canvas 439 241 715 321 (subpatch) 0;
#X obj 51 51 cnv 15 552 28 empty empty Cyclone: 6 13 0 18 -128992 -233080
0;
#X obj 217 65 cnv 5 5 5 empty empty Library 0 0 0 12 -128992 -233080
0;
#X obj 275 65 cnv 5 5 5 empty empty of 0 0 0 12 -128992 -233080 0;
#X obj 298 64 cnv 5 5 5 empty empty objects 0 0 0 12 -128992 -233080
0;
#X obj 356 64 cnv 5 5 5 empty empty cloned 0 0 0 12 -128992 -233080
0;
#X obj 406 64 cnv 5 5 5 empty empty from 0 0 0 12 -128992 -233080 0
;
#X obj 444 64 cnv 5 5 5 empty empty Max/MSP 0 0 0 12 -128992 -233080
0;
#X coords 0 -1 1 1 554 30 1 50 50;
#X restore 4 6 pd;
#X obj 466 52 cyclone/clip~;
#X obj 153 231 cyclone/clip~ -1 1;
#X text 303 184 maximum;
#X text 247 152 minimum;
#X obj 231 272 scope~ 194 111 10 3 128 -1 1 0 0 0 0 205 229 232 74
79 77 96 98 102 0;
#X text 434 266 1;
#X text 433 320 0;
#X text 428 373 -1;
#X obj 128 166 osc~ 239;
#X obj 110 300 output~;
#N canvas 77 23 456 535 Conflicts 1;
#X text 50 61 Pd also has a vanilla object named [clip~]. All of the
functionalities from the vanilla object are present in the Max version
without conflicts. The only difference is that the max version also
accepts signals for minimum and maximum.;
#X obj 165 202 cyclone/clip~;
#X obj 204 315 Clip~;
#X text 117 352 or even:;
#X text 50 139 Cyclone avoids name clashing and overwritting an internal
in Pd Vanilla \, so you need to have the cyclone folder properly installed
in Pd Vanilla's extra folder and create it as:;
#X text 50 389 ============================================================
;
#X text 169 475 <= from Pd Vanilla;
#X obj 184 352 cyclone/Clip~;
#X obj 126 475 clip~;
#X text 53 243 There's the old way of creating this object in cyclone
(and still present for backwards compatibility reasons). This option
is creating the object with a first capital letter:;
#X text 55 419 So \, if you still want the object from vanilla \, you
even if you created the objects above \, you can still instantiate
it as:;
#X restore 188 412 pd Conflicts with internal \; Backwards Compatibility
;
#X connect 20 0 21 0;
#X connect 21 0 31 1;
#X connect 22 0 23 0;
#X connect 23 0 31 2;
#X connect 31 0 34 0;
#X connect 31 0 39 0;
#X connect 31 0 39 1;
#X connect 38 0 31 0;
