#N canvas 244 23 473 333 10;
#N canvas 125 85 315 293 lowpass 0;
#X obj 76 52 inlet~;
#X obj 115 223 outlet~;
#N canvas 301 23 633 361 lop 0;
#X obj 121 85 inlet~;
#X obj 310 85 inlet~;
#X obj 121 276 outlet~;
#X obj 121 195 *~;
#X obj 310 199 expr~ 1 - $v1;
#X obj 121 229 fexpr~ $x1[0] + $x2[0] * $y1[-1];
#X connect 0 0 3 0;
#X connect 1 0 4 0;
#X connect 1 0 3 1;
#X connect 3 0 5 0;
#X connect 4 0 5 1;
#X connect 5 0 2 0;
#X restore 77 129 pd lop;
#N canvas 301 23 633 361 lop 0;
#X obj 121 135 inlet~;
#X obj 310 135 inlet~;
#X obj 121 276 outlet~;
#X obj 121 195 *~;
#X obj 310 199 expr~ 1 - $v1;
#X obj 121 229 fexpr~ $x1[0] + $x2[0] * $y1[-1];
#X connect 0 0 3 0;
#X connect 1 0 3 1;
#X connect 1 0 4 0;
#X connect 3 0 5 0;
#X connect 4 0 5 1;
#X connect 5 0 2 0;
#X restore 89 162 pd lop;
#N canvas 301 23 633 361 lop 0;
#X obj 121 85 inlet~;
#X obj 310 85 inlet~;
#X obj 121 276 outlet~;
#X obj 121 195 *~;
#X obj 310 199 expr~ 1 - $v1;
#X obj 121 229 fexpr~ $x1[0] + $x2[0] * $y1[-1];
#X connect 0 0 3 0;
#X connect 1 0 3 1;
#X connect 1 0 4 0;
#X connect 3 0 5 0;
#X connect 4 0 5 1;
#X connect 5 0 2 0;
#X restore 120 190 pd lop;
#X obj 151 40 inlet~;
#X connect 0 0 2 0;
#X connect 2 0 3 0;
#X connect 3 0 4 0;
#X connect 4 0 1 0;
#X connect 5 0 2 1;
#X connect 5 0 3 1;
#X connect 5 0 4 1;
#X restore 66 186 pd lowpass;
#N canvas 527 299 475 248 highpass 0;
#X obj 59 37 inlet~;
#X obj 109 192 outlet~;
#X obj 340 34 inlet~;
#X obj 59 95 fexpr~ $x1[0] - $x1[-1] + ($x2[0] * $y1[-1]);
#X obj 79 125 fexpr~ $x1[0] - $x1[-1] + ($x2[0] * $y1[-1]);
#X obj 109 155 fexpr~ $x1[0] - $x1[-1] + ($x2[0] * $y1[-1]);
#X connect 0 0 3 0;
#X connect 2 0 3 1;
#X connect 2 0 4 1;
#X connect 2 0 5 1;
#X connect 3 0 4 0;
#X connect 4 0 5 0;
#X connect 5 0 1 0;
#X restore 143 187 pd highpass;
#X obj 143 278 outlet~;
#X obj 66 284 outlet~;
#X obj 66 53 inlet~;
#X obj 149 40 inlet~;
#X obj 286 172 samplerate~;
#X obj 275 144 loadbang;
#X obj 276 217 expr atan(1) * 4;
#X obj 276 238 v pi;
#X obj 286 195 v sr;
#X obj 149 125 clip~ 0 1;
#X obj 149 90 expr~ 1 - ($v1 * 2*pi/sr);
#X text 317 91 radians per sample;
#X connect 0 0 3 0;
#X connect 1 0 2 0;
#X connect 4 0 0 0;
#X connect 4 0 1 0;
#X connect 5 0 12 0;
#X connect 6 0 10 0;
#X connect 7 0 6 0;
#X connect 7 0 8 0;
#X connect 8 0 9 0;
#X connect 11 0 1 1;
#X connect 11 0 0 1;
#X connect 12 0 11 0;
