#N canvas 290 23 562 613 10;
#X obj 4 43 cnv 15 552 40 empty empty dbtoa 3 12 0 18 -204280 -1 0
;
#X obj 4 406 cnv 3 550 3 empty empty inlets 8 12 0 13 -228856 -1 0
;
#X obj 4 490 cnv 3 550 3 empty empty outlets 8 12 0 13 -228856 -1 0
;
#X obj 4 527 cnv 3 550 3 empty empty arguments 8 12 0 13 -228856 -1
0;
#X obj 83 499 cnv 17 3 17 empty empty 0 5 9 0 16 -228856 -162280 0
;
#X obj 83 420 cnv 17 3 17 empty empty 0 5 9 0 16 -228856 -162280 0
;
#X text 100 536 (none);
#X obj 4 568 cnv 15 552 21 empty empty empty 20 12 0 14 -233017 -33289
0;
#N canvas 244 346 428 109 Related_objects 0;
#X obj 0 0 cnv 15 425 20 empty empty empty 3 12 0 14 -204280 -1 0;
#X text 6 1 Related Objects;
#X obj 50 49 cyclone/dbtoa~;
#X obj 152 49 cyclone/atodb~;
#X obj 255 49 cyclone/atodb;
#X restore 210 570 pd Related_objects;
#N canvas 571 307 379 261 META 0;
#X text 1 0 KEYWORDS signal max_compatible;
#X text 1 163 WEBSITE http://suita.chopin.edu.pl/~czaja/miXed/externs/cyclone.html
;
#X text 1 40 DESCRIPTION absolute value of a signal;
#X text 1 60 INLET_0 signal;
#X text 1 80 OUTLET_0 signal;
#X text 1 121 AUTHOR Krzysztof Czaja;
#X text 1 20 LICENSE SIBSD;
#X text 0 101 VERSION 0.2-beta1;
#X text 0 142 RELEASE_DATE 2002;
#X text 1 193 HELP_PATCH_AUTHORS Christoph Kummerer. Revised by Jonathan
Wilkes for Pd-extended 0.42 to conform to the PDDP template. Alex Cleveland
updated this patch for Pd-l2ork version 2013.05.28. Fred Jan Kraan
adapted the patch to pd-extended 2015-02-02;
#X restore 506 570 pd META;
#X obj 163 306 nbx 8 20 -1e+37 1e+37 0 0 empty empty Linear_Amplitude
133 11 0 16 -228856 -1 -1 1e-05 256;
#X obj 92 191 nbx 5 14 -100 0 1 0 empty empty empty 0 -8 0 10 -228856
-1 -1 -100 256;
#X obj 95 161 hsl 180 15 -100 0 0 1 empty empty empty -2 -8 0 10 -228856
-1 -1 0 1;
#X obj 509 50 dbtoa;
#X text 12 66 Convert dBFS to linear amplitude;
#X text 283 161 dBFS;
#X text 111 499 float/list;
#X text 148 433 bang;
#X text 154 450 set;
#X text 189 450 - sets next float value to be converted via bang;
#X text 189 433 - outputs the last converted float value;
#X text 180 192 last output;
#X text 249 223 sets next value to be converted via bang;
#X obj 163 191 bng 15 250 50 0 empty empty empty 17 7 0 10 -261682
-1 -1;
#X msg 195 223 set -60;
#X text 85 102 Converts a decibel value to its corresponding linear
amplitude. Conversion expression: amp = pow(10 \, dBFS / 20);
#X text 112 416 float/list;
#X text 189 416 - dBFS amplitude value(s);
#X text 187 499 - Linear amplitude value(s);
#X obj 163 267 ./cyclone/dbtoa;
#N canvas 439 241 715 321 (subpatch) 0;
#X obj 51 51 cnv 15 552 28 empty empty Cyclone: 6 13 0 18 -128992 -233080
0;
#X obj 217 65 cnv 5 5 5 empty empty Library 0 0 0 12 -128992 -233080
0;
#X obj 275 65 cnv 5 5 5 empty empty of 0 0 0 12 -128992 -233080 0;
#X obj 298 64 cnv 5 5 5 empty empty objects 0 0 0 12 -128992 -233080
0;
#X obj 356 64 cnv 5 5 5 empty empty cloned 0 0 0 12 -128992 -233080
0;
#X obj 406 64 cnv 5 5 5 empty empty from 0 0 0 12 -128992 -233080 0
;
#X obj 444 64 cnv 5 5 5 empty empty Max/MSP 0 0 0 12 -128992 -233080
0;
#X coords 0 -1 1 1 554 30 1 50 50;
#X restore 3 7 pd;
#N canvas 126 23 410 300 lists 0;
#X obj 113 187 cyclone/tosymbol;
#X symbolatom 113 218 20 0 0 0 - - -, f 20;
#X obj 113 101 loadbang;
#X text 92 67 it also works with lists:;
#X obj 113 155 cyclone/dbtoa;
#X msg 113 127 0 10 -20;
#X connect 0 0 1 0;
#X connect 2 0 5 0;
#X connect 4 0 0 0;
#X connect 5 0 4 0;
#X restore 235 365 pd lists;
#X connect 11 0 29 0;
#X connect 12 0 11 0;
#X connect 23 0 29 0;
#X connect 24 0 29 0;
#X connect 29 0 10 0;
