#N canvas 21 80 1000 514 10;
#N canvas 351 163 630 429 lowpass 0;
#X obj 386 223 switch~;
#X obj 356 152 sel lowpass;
#X obj 356 119 r \$0-type;
#X msg 356 179 1;
#X msg 418 178 0;
#X obj 85 56 r~ \$0-w;
#X obj 190 57 r~ \$0-Q;
#X obj 190 133 +~ 1;
#X text 206 110 alphaQ;
#X text 224 132 b0;
#X obj 85 85 expr~ cos($v1) \; sin($v1) / (2*$v2);
#X obj 85 164 expr~ (1 - $v1) / (2*$v3) \; (1 - $v1) / $v3 \; (1 -
$v1) / (2*$v3) \; -2*$v1 / $v3 \; (1 - $v2) / $v3 \;;
#X text 135 324 a0 a1 a2 b1 b2;
#X obj 85 291 throw~ \$0-a0;
#X obj 123 271 throw~ \$0-a1;
#X obj 161 243 throw~ \$0-a2;
#X obj 199 268 throw~ \$0-b1;
#X obj 238 241 throw~ \$0-b2;
#X connect 1 0 3 0;
#X connect 1 1 4 0;
#X connect 2 0 1 0;
#X connect 3 0 0 0;
#X connect 4 0 0 0;
#X connect 5 0 10 0;
#X connect 6 0 10 1;
#X connect 7 0 11 2;
#X connect 10 0 11 0;
#X connect 10 1 7 0;
#X connect 10 1 11 1;
#X connect 11 0 13 0;
#X connect 11 1 14 0;
#X connect 11 2 15 0;
#X connect 11 3 16 0;
#X connect 11 4 17 0;
#X restore 537 99 pd lowpass;
#N canvas 213 154 683 413 highpass 0;
#X obj 546 277 switch~;
#X obj 516 173 r \$0-type;
#X msg 516 233 1;
#X msg 578 232 0;
#X obj 95 66 r~ \$0-w;
#X obj 200 67 r~ \$0-Q;
#X obj 200 143 +~ 1;
#X text 216 120 alphaQ;
#X text 234 142 b0;
#X obj 95 95 expr~ cos($v1) \; sin($v1) / (2*$v2);
#X text 145 334 a0 a1 a2 b1 b2;
#X obj 95 301 throw~ \$0-a0;
#X obj 133 281 throw~ \$0-a1;
#X obj 171 253 throw~ \$0-a2;
#X obj 209 278 throw~ \$0-b1;
#X obj 248 251 throw~ \$0-b2;
#X text 278 158 HPF \; - a0 = (1 + cos(w)) / (2*b0) \; - a1 = -(1 +
cos(w)) / b0 \; - a2 = (1 + cos(w)) / (2*b0) \; - b1 = -2*cos(w) /
b0 \; - b2 = (1 - alphaQ) / b0 \;;
#X obj 95 174 expr~ (1 + $v1) / (2*$v3) \; -(1 + $v1) / $v3 \; (1 +
$v1) / (2*$v3) \; -2*$v1 / $v3 \; (1 - $v2) / $v3 \;;
#X obj 516 206 sel highpass;
#X connect 1 0 18 0;
#X connect 2 0 0 0;
#X connect 3 0 0 0;
#X connect 4 0 9 0;
#X connect 5 0 9 1;
#X connect 6 0 17 2;
#X connect 9 0 17 0;
#X connect 9 1 6 0;
#X connect 9 1 17 1;
#X connect 17 0 11 0;
#X connect 17 1 12 0;
#X connect 17 2 13 0;
#X connect 17 3 14 0;
#X connect 17 4 15 0;
#X connect 18 0 2 0;
#X connect 18 1 3 0;
#X restore 534 118 pd highpass;
#N canvas 110 36 738 500 bandpass 0;
#X obj 607 287 switch~;
#X obj 577 183 r \$0-type;
#X msg 577 243 1;
#X msg 639 242 0;
#X obj 281 83 r~ \$0-w;
#X obj 386 84 r~ \$0-Q;
#X obj 386 160 +~ 1;
#X text 402 137 alphaQ;
#X text 420 159 b0;
#X obj 281 112 expr~ cos($v1) \; sin($v1) / (2*$v2);
#X text 331 351 a0 a1 a2 b1 b2;
#X obj 281 318 throw~ \$0-a0;
#X obj 319 298 throw~ \$0-a1;
#X obj 357 270 throw~ \$0-a2;
#X obj 395 295 throw~ \$0-b1;
#X obj 434 268 throw~ \$0-b2;
#X text 105 179 BPF \; - a0 = alphaQ / b0 \; - a1 = 0 \; - a2 = -alphaQ
/ b0 \; - b1 = -2*cos(w) / b0 \; - b2 = (1 - alphaQ) / b0 \;;
#X obj 281 191 expr~ $v2 / $v3 \; 0 \; -$v2 / $v3 \; -2*$v1 / $v3 \;
(1 - $v2) / $v3 \;;
#X obj 577 216 sel bandpass;
#X connect 1 0 18 0;
#X connect 2 0 0 0;
#X connect 3 0 0 0;
#X connect 4 0 9 0;
#X connect 5 0 9 1;
#X connect 6 0 17 2;
#X connect 9 0 17 0;
#X connect 9 1 6 0;
#X connect 9 1 17 1;
#X connect 17 0 11 0;
#X connect 17 1 12 0;
#X connect 17 2 13 0;
#X connect 17 3 14 0;
#X connect 17 4 15 0;
#X connect 18 0 2 0;
#X connect 18 1 3 0;
#X restore 534 137 pd bandpass;
#N canvas 96 66 981 458 resonant 0;
#X obj 695 290 switch~;
#X obj 665 186 r \$0-type;
#X msg 665 246 1;
#X msg 727 245 0;
#X obj 350 87 r~ \$0-w;
#X obj 498 73 r~ \$0-Q;
#X obj 455 171 +~ 1;
#X text 397 148 alphaQ;
#X text 434 171 b0;
#X obj 350 116 expr~ cos($v1) \; sin($v1) / (2*$v2);
#X text 419 354 a0 a1 a2 b1 b2;
#X obj 369 321 throw~ \$0-a0;
#X obj 407 301 throw~ \$0-a1;
#X obj 445 273 throw~ \$0-a2;
#X obj 483 298 throw~ \$0-b1;
#X obj 522 271 throw~ \$0-b2;
#X text 200 183 Resonant \; - a0 = alphaQ * Q / b0 \; - a1 = 0 \; -
a2 = -alphaQ * Q / b0 \; - b1 = -2*cos(w) / b0 \; - b2 = (1 - alphaQ)
/ b0 \;;
#X obj 369 194 expr~ $v2 * $v4 / $v3 \; 0 \; -$v2 * $v4 / $v3 \; -2*$v1
/ $v3 \; (1 - $v2) / $v3 \;;
#X obj 665 219 sel resonant;
#X connect 1 0 18 0;
#X connect 2 0 0 0;
#X connect 3 0 0 0;
#X connect 4 0 9 0;
#X connect 5 0 9 1;
#X connect 5 0 17 3;
#X connect 6 0 17 2;
#X connect 9 0 17 0;
#X connect 9 1 6 0;
#X connect 9 1 17 1;
#X connect 17 0 11 0;
#X connect 17 1 12 0;
#X connect 17 2 13 0;
#X connect 17 3 14 0;
#X connect 17 4 15 0;
#X connect 18 0 2 0;
#X connect 18 1 3 0;
#X restore 534 232 pd resonant;
#N canvas 48 176 1289 523 lowshelf 0;
#X obj 413 313 switch~;
#X obj 383 209 r \$0-type;
#X msg 383 269 1;
#X msg 445 268 0;
#X obj 571 69 r~ \$0-S;
#X obj 726 58 r~ \$0-G;
#X obj 417 70 r~ \$0-w;
#X text 658 129 alphaS;
#X obj 417 96 expr~ cos($v1) \; sin($v1) * sqrt(($v3*$v3 + 1) * (1/$v2
- 1) + 2*$v3);
#X obj 709 163 expr~ $v3+1 + ($v3-1)*$v1 + $v2 \;;
#X text 80 90 - b0 = G+1 + (G-1)*cos(w) + alphaS \; - alphaS = sin(w)*sqrt((G*G
+ 1) * (1/S - 1) + 2*G);
#X obj 535 206 expr~ $v4*($v4+1 - ($v4-1)*$v1 + $v2) / $v3 \; 2*$v4*($v4-1
- ($v4+1)*$v1) / $v3 \; $v4*($v4+1 - ($v4-1)*$v1 - $v2) / $v3 \; -2*($v4-1
+ ($v4+1)*$v1) / $v3 \; ($v4+1 + ($v4-1)*$v1 - $v2) / $v3 \;;
#X text 817 190 LowShelf \; - a0 = G*(G+1 - (G-1)*cos(w) + alphaS)
/ b0 \; - a1 = 2*G*(G-1 - (G+1)*cos(w)) / b0 \; - a2 = G*(G+1 - (G-1)*cos(w)
- alphaS) / b0 \; - b1 = -2*(G-1 + (G+1)*cos(w)) / b0 \; - b2 = (G+1
+ (G-1)*cos(w) - alphaS) / b0 \;;
#X text 624 364 a0 a1 a2 b1 b2;
#X obj 535 312 throw~ \$0-a0;
#X obj 647 320 throw~ \$0-a1;
#X obj 665 293 throw~ \$0-a2;
#X obj 760 309 throw~ \$0-b1;
#X obj 796 283 throw~ \$0-b2;
#X obj 383 242 sel lowshelf;
#X connect 1 0 19 0;
#X connect 2 0 0 0;
#X connect 3 0 0 0;
#X connect 4 0 8 1;
#X connect 5 0 8 2;
#X connect 5 0 9 2;
#X connect 5 0 11 3;
#X connect 6 0 8 0;
#X connect 8 0 9 0;
#X connect 8 0 11 0;
#X connect 8 1 9 1;
#X connect 8 1 11 1;
#X connect 9 0 11 2;
#X connect 11 0 14 0;
#X connect 11 1 15 0;
#X connect 11 2 16 0;
#X connect 11 3 17 0;
#X connect 11 4 18 0;
#X connect 19 0 2 0;
#X connect 19 1 3 0;
#X restore 534 194 pd lowshelf;
#N canvas 143 80 737 414 allpass 0;
#X obj 592 291 switch~;
#X obj 562 187 r \$0-type;
#X msg 562 247 1;
#X msg 624 246 0;
#X obj 266 87 r~ \$0-w;
#X obj 371 88 r~ \$0-Q;
#X obj 395 172 +~ 1;
#X text 387 141 alphaQ;
#X text 429 171 b0;
#X obj 266 116 expr~ cos($v1) \; sin($v1) / (2*$v2);
#X text 316 355 a0 a1 a2 b1 b2;
#X obj 266 322 throw~ \$0-a0;
#X obj 304 302 throw~ \$0-a1;
#X obj 342 274 throw~ \$0-a2;
#X obj 380 299 throw~ \$0-b1;
#X obj 419 272 throw~ \$0-b2;
#X text 100 181 APF \; - a0 = (1 - alphaQ) / b0 \; - a1 = -2*cos(w)
/ b0 \; - a2 = 1 \; - b1 = -2*cos(w) / b0 \; - b2 = (1 - alphaQ) /
b0 \;;
#X obj 266 195 expr~ (1 - $v2) / $v3 \; -2*$v1 / $v3 \; 1 \; -2*$v1
/ $v3 \; (1 - $v2) / $v3 \;;
#X obj 562 220 sel allpass;
#X connect 1 0 18 0;
#X connect 2 0 0 0;
#X connect 3 0 0 0;
#X connect 4 0 9 0;
#X connect 5 0 9 1;
#X connect 6 0 17 2;
#X connect 9 0 17 0;
#X connect 9 1 6 0;
#X connect 9 1 17 1;
#X connect 17 0 11 0;
#X connect 17 1 12 0;
#X connect 17 2 13 0;
#X connect 17 3 14 0;
#X connect 17 4 15 0;
#X connect 18 0 2 0;
#X connect 18 1 3 0;
#X restore 536 251 pd allpass;
#N canvas 83 30 1190 624 highshelf 0;
#X obj 370 380 switch~;
#X obj 340 276 r \$0-type;
#X msg 340 336 1;
#X msg 402 335 0;
#X obj 528 136 r~ \$0-S;
#X obj 683 125 r~ \$0-G;
#X obj 374 137 r~ \$0-w;
#X text 615 196 alphaS;
#X obj 374 163 expr~ cos($v1) \; sin($v1) * sqrt(($v3*$v3 + 1) * (1/$v2
- 1) + 2*$v3);
#X text 581 431 a0 a1 a2 b1 b2;
#X obj 666 230 expr~ $v3+1 - ($v3-1)*$v1 + $v2 \;;
#X text 677 252 b0;
#X text 873 230 b0 = (G+1) - (G-1)*cos(w) + alphaS \;;
#X text 53 178 alphaS = sin(w) * sqrt((G*G + 1) * (1/S - 1) + 2*G)
;
#X text 770 261 HighShelf \; - a0 = G*(G+1 + (G-1)*cos(w) + alphaS)
/ b0 \; - a1 = -2*G*(G-1 + (G+1)*cos(w)) / b0 \; - a2 = G*(G+1 + (G-1)*cos(w)
- alphaS) / b0 \; - b1 = 2*(G-1 - (G+1)*cos(w)) / b0 \; - b2 = (G+1
- (G-1)*cos(w) -alphaS) / b0;
#X obj 492 379 throw~ \$0-a0;
#X obj 604 387 throw~ \$0-a1;
#X obj 622 360 throw~ \$0-a2;
#X obj 717 376 throw~ \$0-b1;
#X obj 753 350 throw~ \$0-b2;
#X obj 492 273 expr~ $v4*($v4+1 + ($v4-1)*$v1 + $v2) / $v3 \; -2*$v4*($v4-1
+ ($v4+1)*$v1) / $v3 \; $v4*($v4+1 + ($v4-1)*$v1 - $v2) / $v3 \; 2*($v4-1
- ($v4+1)*$v1) / $v3 \; ($v4+1 - ($v4-1)*$v1 - $v2) / $v3 \;;
#X obj 340 309 sel highshelf;
#X connect 1 0 21 0;
#X connect 2 0 0 0;
#X connect 3 0 0 0;
#X connect 4 0 8 1;
#X connect 5 0 8 2;
#X connect 5 0 10 2;
#X connect 5 0 20 3;
#X connect 6 0 8 0;
#X connect 8 0 10 0;
#X connect 8 0 20 0;
#X connect 8 1 10 1;
#X connect 8 1 20 1;
#X connect 10 0 20 2;
#X connect 20 0 15 0;
#X connect 20 1 16 0;
#X connect 20 2 17 0;
#X connect 20 3 18 0;
#X connect 20 4 19 0;
#X connect 21 0 2 0;
#X connect 21 1 3 0;
#X restore 531 213 pd highshelf;
#X text 398 50 Q/S;
#X text 98 45 Freq (Hz);
#X text 251 48 Ganho (dB);
#X obj 111 73 inlet~;
#X obj 168 219 r \$0-nyquist;
#X obj 111 219 clip~ 20;
#X obj 111 248 expr~ $v1 * 2*pi/sr_\$0;
#X obj 111 276 s~ \$0-w;
#X obj 393 77 inlet~;
#X obj 393 112 max~ 0;
#X obj 406 140 s~ \$0-Q;
#X obj 393 166 min~ 1;
#X obj 393 191 s~ \$0-S;
#X obj 286 73 inlet~;
#X obj 286 136 /~ 2;
#X obj 286 205 s~ \$0-G;
#X obj 62 433 outlet~;
#X obj 143 433 outlet~;
#X obj 225 434 outlet~;
#X obj 312 434 outlet~;
#X obj 391 434 outlet~;
#X obj 803 218 samplerate~;
#X obj 803 251 / 2;
#X obj 790 332 v pi;
#X obj 832 251 v sr_\$0;
#X obj 763 181 t b b;
#X obj 803 279 s \$0-nyquist;
#X obj 790 305 expr atan(1) * 4;
#X obj 763 157 loadbang;
#X obj 62 400 catch~ \$0-a0;
#X obj 391 399 catch~ \$0-b2;
#X obj 312 399 catch~ \$0-b1;
#X obj 225 399 catch~ \$0-a2;
#X obj 143 399 catch~ \$0-a1;
#X obj 711 243 symbol \$1;
#X obj 711 276 s \$0-type;
#N canvas 447 145 914 511 bandstop 0;
#X obj 664 280 switch~;
#X obj 634 176 r \$0-type;
#X msg 634 236 1;
#X msg 696 235 0;
#X obj 319 77 r~ \$0-w;
#X obj 424 161 +~ 1;
#X text 366 138 alphaQ;
#X text 403 161 b0;
#X obj 319 106 expr~ cos($v1) \; sin($v1) / (2*$v2);
#X text 388 344 a0 a1 a2 b1 b2;
#X obj 338 311 throw~ \$0-a0;
#X obj 376 291 throw~ \$0-a1;
#X obj 414 263 throw~ \$0-a2;
#X obj 452 288 throw~ \$0-b1;
#X obj 491 261 throw~ \$0-b2;
#X text 166 172 Notch \; - a0 = 1 / b0 \; - a1 = -2*cos(w) / b0 \;
- a2 = 1 / b0 \; - b1 = -2*cos(w) / b0 \; - b2 = (1 - alphaQ) / b0
\;;
#X obj 338 184 expr~ 1 / $v3 \; -2*$v1 / $v3 \; 1 / $v3 \; -2*$v1 /
$v3 \; (1 - $v2) / $v3 \;;
#X obj 424 83 r~ \$0-Q;
#X obj 634 209 sel bandstop;
#X connect 1 0 18 0;
#X connect 2 0 0 0;
#X connect 3 0 0 0;
#X connect 4 0 8 0;
#X connect 5 0 16 2;
#X connect 8 0 16 0;
#X connect 8 1 5 0;
#X connect 8 1 16 1;
#X connect 16 0 10 0;
#X connect 16 1 11 0;
#X connect 16 2 12 0;
#X connect 16 3 13 0;
#X connect 16 4 14 0;
#X connect 17 0 8 1;
#X connect 18 0 2 0;
#X connect 18 1 3 0;
#X restore 534 156 pd bandstop;
#N canvas 222 23 828 454 peaknotch 0;
#X obj 599 298 switch~;
#X obj 569 194 r \$0-type;
#X msg 569 254 1;
#X msg 631 253 0;
#X obj 254 95 r~ \$0-w;
#X obj 375 179 +~ 1;
#X text 301 156 alphaQ;
#X text 354 179 b0;
#X obj 254 124 expr~ cos($v1) \; sin($v1) / (2*$v2);
#X text 323 362 a0 a1 a2 b1 b2;
#X obj 273 329 throw~ \$0-a0;
#X obj 311 309 throw~ \$0-a1;
#X obj 349 281 throw~ \$0-a2;
#X obj 387 306 throw~ \$0-b1;
#X obj 426 279 throw~ \$0-b2;
#X obj 359 101 r~ \$0-Q;
#X obj 426 125 r~ \$0-G;
#X obj 374 159 /~;
#X text 89 190 Peak \; - a0 = (1 + alphaQ*G) / b0 \; - a1 = -2*cos(w)
/ b0 \; - a2 = (1 - alphaQ*G) / b0 \; - b1 = -2*cos(w) / bO \; - b2
= (1 - alphaQ/G) / b0 \;;
#X obj 273 202 expr~ (1 + $v2*$v4) / $v3 \; -2*$v1 / $v3 \; (1 - $v2*$v4)
/ $v3 \; -2*$v1 / $v3 \; (1 - $v2/$v4) / $v3 \;;
#X obj 569 227 sel peaknotch;
#X connect 1 0 20 0;
#X connect 2 0 0 0;
#X connect 3 0 0 0;
#X connect 4 0 8 0;
#X connect 5 0 19 2;
#X connect 8 0 19 0;
#X connect 8 1 17 0;
#X connect 8 1 19 1;
#X connect 15 0 8 1;
#X connect 16 0 17 1;
#X connect 16 0 19 3;
#X connect 17 0 5 0;
#X connect 19 0 10 0;
#X connect 19 1 11 0;
#X connect 19 2 12 0;
#X connect 19 3 13 0;
#X connect 19 4 14 0;
#X connect 20 0 2 0;
#X connect 20 1 3 0;
#X restore 532 175 pd peaknotch;
#N canvas 351 163 630 429 gainlpass 0;
#X obj 386 223 switch~;
#X obj 356 119 r \$0-type;
#X msg 356 179 1;
#X msg 418 178 0;
#X obj 85 56 r~ \$0-w;
#X obj 190 57 r~ \$0-Q;
#X obj 190 133 +~ 1;
#X text 206 110 alphaQ;
#X text 278 135 b0;
#X obj 85 85 expr~ cos($v1) \; sin($v1) / (2*$v2);
#X obj 85 164 expr~ (1 - $v1) / (2*$v3) \; (1 - $v1) / $v3 \; (1 -
$v1) / (2*$v3) \; -2*$v1 / $v3 \; (1 - $v2) / $v3 \;;
#X text 135 324 a0 a1 a2 b1 b2;
#X obj 85 291 throw~ \$0-a0;
#X obj 123 271 throw~ \$0-a1;
#X obj 161 243 throw~ \$0-a2;
#X obj 199 268 throw~ \$0-b1;
#X obj 238 241 throw~ \$0-b2;
#X obj 356 152 sel gainlpass;
#X obj 265 107 r~ \$0-G;
#X obj 250 135 *~;
#X connect 1 0 17 0;
#X connect 2 0 0 0;
#X connect 3 0 0 0;
#X connect 4 0 9 0;
#X connect 5 0 9 1;
#X connect 6 0 19 0;
#X connect 9 0 10 0;
#X connect 9 1 6 0;
#X connect 9 1 10 1;
#X connect 10 0 12 0;
#X connect 10 1 13 0;
#X connect 10 2 14 0;
#X connect 10 3 15 0;
#X connect 10 4 16 0;
#X connect 17 0 2 0;
#X connect 17 1 3 0;
#X connect 18 0 19 1;
#X connect 19 0 10 2;
#X restore 531 301 pd gainlpass;
#N canvas 213 154 683 413 gainhpass 0;
#X obj 546 277 switch~;
#X obj 516 173 r \$0-type;
#X msg 516 233 1;
#X msg 578 232 0;
#X obj 95 66 r~ \$0-w;
#X obj 200 67 r~ \$0-Q;
#X obj 200 143 +~ 1;
#X text 216 120 alphaQ;
#X obj 95 95 expr~ cos($v1) \; sin($v1) / (2*$v2);
#X text 145 334 a0 a1 a2 b1 b2;
#X obj 95 301 throw~ \$0-a0;
#X obj 133 281 throw~ \$0-a1;
#X obj 171 253 throw~ \$0-a2;
#X obj 209 278 throw~ \$0-b1;
#X obj 248 251 throw~ \$0-b2;
#X text 278 158 HPF \; - a0 = (1 + cos(w)) / (2*b0) \; - a1 = -(1 +
cos(w)) / b0 \; - a2 = (1 + cos(w)) / (2*b0) \; - b1 = -2*cos(w) /
b0 \; - b2 = (1 - alphaQ) / b0 \;;
#X obj 95 174 expr~ (1 + $v1) / (2*$v3) \; -(1 + $v1) / $v3 \; (1 +
$v1) / (2*$v3) \; -2*$v1 / $v3 \; (1 - $v2) / $v3 \;;
#X obj 516 206 sel gainhpass;
#X text 288 145 b0;
#X obj 263 122 r~ \$0-G;
#X obj 248 150 *~;
#X connect 1 0 17 0;
#X connect 2 0 0 0;
#X connect 3 0 0 0;
#X connect 4 0 8 0;
#X connect 5 0 8 1;
#X connect 6 0 20 0;
#X connect 8 0 16 0;
#X connect 8 1 6 0;
#X connect 8 1 16 1;
#X connect 16 0 10 0;
#X connect 16 1 11 0;
#X connect 16 2 12 0;
#X connect 16 3 13 0;
#X connect 16 4 14 0;
#X connect 17 0 2 0;
#X connect 17 1 3 0;
#X connect 19 0 20 1;
#X connect 20 0 16 2;
#X restore 531 320 pd gainhpass;
#N canvas 110 36 738 500 gainbpass 0;
#X obj 607 287 switch~;
#X obj 577 183 r \$0-type;
#X msg 577 243 1;
#X msg 639 242 0;
#X obj 281 83 r~ \$0-w;
#X obj 386 84 r~ \$0-Q;
#X obj 386 160 +~ 1;
#X text 402 137 alphaQ;
#X obj 281 112 expr~ cos($v1) \; sin($v1) / (2*$v2);
#X text 331 351 a0 a1 a2 b1 b2;
#X obj 281 318 throw~ \$0-a0;
#X obj 319 298 throw~ \$0-a1;
#X obj 357 270 throw~ \$0-a2;
#X obj 395 295 throw~ \$0-b1;
#X obj 434 268 throw~ \$0-b2;
#X text 105 179 BPF \; - a0 = alphaQ / b0 \; - a1 = 0 \; - a2 = -alphaQ
/ b0 \; - b1 = -2*cos(w) / b0 \; - b2 = (1 - alphaQ) / b0 \;;
#X obj 281 191 expr~ $v2 / $v3 \; 0 \; -$v2 / $v3 \; -2*$v1 / $v3 \;
(1 - $v2) / $v3 \;;
#X obj 577 216 sel gainbpass;
#X text 463 190 b0;
#X obj 450 162 r~ \$0-G;
#X obj 435 190 *~;
#X connect 1 0 17 0;
#X connect 2 0 0 0;
#X connect 3 0 0 0;
#X connect 4 0 8 0;
#X connect 5 0 8 1;
#X connect 6 0 20 0;
#X connect 8 0 16 0;
#X connect 8 1 6 0;
#X connect 8 1 16 1;
#X connect 16 0 10 0;
#X connect 16 1 11 0;
#X connect 16 2 12 0;
#X connect 16 3 13 0;
#X connect 16 4 14 0;
#X connect 17 0 2 0;
#X connect 17 1 3 0;
#X connect 19 0 20 1;
#X connect 20 0 16 2;
#X restore 531 339 pd gainbpass;
#N canvas 447 145 914 511 gainbstop 0;
#X obj 664 280 switch~;
#X obj 634 176 r \$0-type;
#X msg 634 236 1;
#X msg 696 235 0;
#X obj 319 77 r~ \$0-w;
#X obj 440 156 +~ 1;
#X text 366 138 alphaQ;
#X obj 319 106 expr~ cos($v1) \; sin($v1) / (2*$v2);
#X text 388 344 a0 a1 a2 b1 b2;
#X obj 338 311 throw~ \$0-a0;
#X obj 376 291 throw~ \$0-a1;
#X obj 414 263 throw~ \$0-a2;
#X obj 452 288 throw~ \$0-b1;
#X obj 491 261 throw~ \$0-b2;
#X text 166 172 Notch \; - a0 = 1 / b0 \; - a1 = -2*cos(w) / b0 \;
- a2 = 1 / b0 \; - b1 = -2*cos(w) / b0 \; - b2 = (1 - alphaQ) / b0
\;;
#X obj 338 184 expr~ 1 / $v3 \; -2*$v1 / $v3 \; 1 / $v3 \; -2*$v1 /
$v3 \; (1 - $v2) / $v3 \;;
#X obj 424 83 r~ \$0-Q;
#X obj 634 209 sel gainbstop;
#X text 490 184 b0;
#X obj 477 156 r~ \$0-G;
#X obj 462 184 *~;
#X connect 1 0 17 0;
#X connect 2 0 0 0;
#X connect 3 0 0 0;
#X connect 4 0 7 0;
#X connect 5 0 20 0;
#X connect 7 0 15 0;
#X connect 7 1 5 0;
#X connect 7 1 15 1;
#X connect 15 0 9 0;
#X connect 15 1 10 0;
#X connect 15 2 11 0;
#X connect 15 3 12 0;
#X connect 15 4 13 0;
#X connect 16 0 7 1;
#X connect 17 0 2 0;
#X connect 17 1 3 0;
#X connect 19 0 20 1;
#X connect 20 0 15 2;
#X restore 531 358 pd gainbstop;
#N canvas 96 66 981 458 gainresonant 0;
#X obj 695 290 switch~;
#X obj 665 186 r \$0-type;
#X msg 665 246 1;
#X msg 727 245 0;
#X obj 350 87 r~ \$0-w;
#X obj 498 73 r~ \$0-Q;
#X obj 530 119 +~ 1;
#X text 397 148 alphaQ;
#X obj 350 116 expr~ cos($v1) \; sin($v1) / (2*$v2);
#X text 419 354 a0 a1 a2 b1 b2;
#X obj 369 321 throw~ \$0-a0;
#X obj 407 301 throw~ \$0-a1;
#X obj 445 273 throw~ \$0-a2;
#X obj 483 298 throw~ \$0-b1;
#X obj 522 271 throw~ \$0-b2;
#X text 200 183 Resonant \; - a0 = alphaQ * Q / b0 \; - a1 = 0 \; -
a2 = -alphaQ * Q / b0 \; - b1 = -2*cos(w) / b0 \; - b2 = (1 - alphaQ)
/ b0 \;;
#X obj 369 194 expr~ $v2 * $v4 / $v3 \; 0 \; -$v2 * $v4 / $v3 \; -2*$v1
/ $v3 \; (1 - $v2) / $v3 \;;
#X obj 665 219 sel gainresonant;
#X text 574 147 b0;
#X obj 561 119 r~ \$0-G;
#X obj 546 147 *~;
#X connect 1 0 17 0;
#X connect 2 0 0 0;
#X connect 3 0 0 0;
#X connect 4 0 8 0;
#X connect 5 0 8 1;
#X connect 5 0 16 3;
#X connect 6 0 20 0;
#X connect 8 0 16 0;
#X connect 8 1 6 0;
#X connect 8 1 16 1;
#X connect 16 0 10 0;
#X connect 16 1 11 0;
#X connect 16 2 12 0;
#X connect 16 3 13 0;
#X connect 16 4 14 0;
#X connect 17 0 2 0;
#X connect 17 1 3 0;
#X connect 19 0 20 1;
#X connect 20 0 16 2;
#X restore 522 377 pd gainresonant;
#N canvas 143 80 737 414 gainapass 0;
#X obj 592 291 switch~;
#X obj 562 187 r \$0-type;
#X msg 562 247 1;
#X msg 624 246 0;
#X obj 266 87 r~ \$0-w;
#X obj 371 88 r~ \$0-Q;
#X obj 419 171 +~ 1;
#X text 386 134 alphaQ;
#X obj 266 116 expr~ cos($v1) \; sin($v1) / (2*$v2);
#X text 316 355 a0 a1 a2 b1 b2;
#X obj 266 322 throw~ \$0-a0;
#X obj 304 302 throw~ \$0-a1;
#X obj 342 274 throw~ \$0-a2;
#X obj 380 299 throw~ \$0-b1;
#X obj 419 272 throw~ \$0-b2;
#X text 100 181 APF \; - a0 = (1 - alphaQ) / b0 \; - a1 = -2*cos(w)
/ b0 \; - a2 = 1 \; - b1 = -2*cos(w) / b0 \; - b2 = (1 - alphaQ) /
b0 \;;
#X obj 266 195 expr~ (1 - $v2) / $v3 \; -2*$v1 / $v3 \; 1 \; -2*$v1
/ $v3 \; (1 - $v2) / $v3 \;;
#X obj 562 220 sel gainapass;
#X text 478 203 b0;
#X obj 465 175 r~ \$0-G;
#X obj 450 203 *~;
#X connect 1 0 17 0;
#X connect 2 0 0 0;
#X connect 3 0 0 0;
#X connect 4 0 8 0;
#X connect 5 0 8 1;
#X connect 6 0 20 0;
#X connect 8 0 16 0;
#X connect 8 1 6 0;
#X connect 8 1 16 1;
#X connect 16 0 10 0;
#X connect 16 1 11 0;
#X connect 16 2 12 0;
#X connect 16 3 13 0;
#X connect 16 4 14 0;
#X connect 17 0 2 0;
#X connect 17 1 3 0;
#X connect 19 0 20 1;
#X connect 20 0 16 2;
#X restore 531 396 pd gainapass;
#X obj 286 103 atodb~;
#X obj 286 163 dbtoa~;
#X connect 10 0 12 0;
#X connect 11 0 12 2;
#X connect 12 0 13 0;
#X connect 13 0 14 0;
#X connect 15 0 16 0;
#X connect 16 0 17 0;
#X connect 16 0 18 0;
#X connect 18 0 19 0;
#X connect 20 0 51 0;
#X connect 21 0 52 0;
#X connect 28 0 29 0;
#X connect 28 0 31 0;
#X connect 29 0 33 0;
#X connect 32 0 41 0;
#X connect 32 1 28 0;
#X connect 32 1 34 0;
#X connect 34 0 30 0;
#X connect 35 0 32 0;
#X connect 36 0 23 0;
#X connect 37 0 27 0;
#X connect 38 0 26 0;
#X connect 39 0 25 0;
#X connect 40 0 24 0;
#X connect 41 0 42 0;
#X connect 51 0 21 0;
#X connect 52 0 22 0;
