#N canvas 159 72 571 720 10;
#X obj 7 660 cnv 15 552 21 empty empty empty 20 12 0 14 -233017 -33289
0;
#X obj 7 429 cnv 3 550 3 empty empty inlets 8 12 0 13 -228856 -1 0
;
#N canvas 574 330 356 236 META 0;
#X text 0 20 LICENSE SIBSD;
#X text 0 113 LIBRARY cyclone;
#X text 0 0 KEYWORDS signal frame phase deviation accumulated;
#X text 0 40 DESCRIPTION computes running phase of successive phase
deviation frames;
#X text 0 73 INLET_0 signal;
#X text 0 93 OUTLET_0 signal;
#X text 0 134 VERSION 0.2-beta1;
#X text 0 152 AUTHOR Krzysztof Czaja;
#X text 1 170 RELEASE_DATE 2002;
#X text 2 189 WEBSITE http://suita.chopin.edu.pl/~czaja/miXed/externs/cyclone.html
;
#X text 2 221 HELP_PATCH_AUTHORS Christoph Kummerer. Revised by Jonathan
Wilkes for Pd-extended 0.42 to conform to the PDDP template. Alex Cleveland
updated this patch for Pd-l2ork version 2013.05.28. Fred Jan Kraan
adapted the patch to pd-extended 2015-02-02;
#X restore 505 662 pd META;
#X obj 7 473 cnv 3 550 3 empty empty outlets 8 12 0 13 -228856 -1 0
;
#X obj 7 511 cnv 3 550 3 empty empty arguments 8 12 0 13 -228856 -1
0;
#N canvas 275 455 428 109 Related_objects 0;
#X obj 0 0 cnv 15 425 20 empty empty empty 3 12 0 14 -204280 -1 0;
#X text 6 1 Related Objects;
#X obj 10 29 count~;
#X obj 58 29 framedelta~;
#X restore 209 662 pd Related_objects;
#X obj 90 441 cnv 17 3 17 empty empty 0 5 9 0 16 -228856 -162280 0
;
#X obj 90 482 cnv 17 3 17 empty empty 0 5 9 0 16 -228856 -162280 0
;
#X obj 7 40 cnv 15 552 40 empty empty frameaccum~ 3 12 0 18 -204280
-1 0;
#X obj 484 46 frameaccum~;
#X text 121 440 signal;
#X text 121 482 signal;
#X obj 109 305 cyclone/frameaccum~;
#X obj 264 255 sig~ 0.01;
#X obj 267 366 hsl 128 15 -3.14153 3.14153 0 0 empty empty empty -2
-8 0 10 -228856 -1 -1 10652 1;
#X msg 264 209 -0.01;
#X msg 272 231 0.01;
#X text 235 365 -PI;
#X text 401 367 PI, f 4;
#X obj 264 388 nbx 5 14 -1e+37 1e+37 0 0 empty empty empty 0 -8 0 10
-1 -262144 -1 2.12809 256;
#X obj 264 291 cyclone/frameaccum~ 1;
#X obj 264 332 Snapshot~ 10;
#X obj 109 348 Snapshot~ 10;
#X text 121 520 float;
#X text 405 290 wrap at phase values;
#X text 70 156 It can also automatically wrap at phase boundaries (from
-pi to pi) via an argument.;
#X obj 7 566 cnv 3 550 3 empty empty more_info 8 12 0 13 -228856 -1
0;
#X text 142 578 For each block \, the first sample of its output will
be the sum of all of the first samples in each signal block it has
received \, the second sample of its output will be the sum of all
the second samples in each signal vector \, and so on...;
#X text 19 63 computes accumulated phase of FFT frames;
#X text 69 93 [frameaccum~] was designed to compute a running phase
by keeping an accumulated sum of the values in each sample of an incoming
signal block. It can keep a running phase of an FFT because the FFT
size is equal to the signal block size.;
#X text 190 440 - incoming FFT frame.;
#X text 186 483 - accumulated FFT frame.;
#X obj 109 386 nbx 5 14 -1e+37 1e+37 0 0 empty empty empty 0 -8 0 10
-1 -262144 -1 64.9555 256;
#X text 186 520 - "1" enables phase wrap between -PI and PI. "0" disables
and values are accumulated without bounds (default 0).;
#N canvas 439 241 715 321 (subpatch) 0;
#X obj 51 51 cnv 15 552 28 empty empty Cyclone: 6 13 0 18 -128992 -233080
0;
#X obj 217 65 cnv 5 5 5 empty empty Library 0 0 0 12 -128992 -233080
0;
#X obj 275 65 cnv 5 5 5 empty empty of 0 0 0 12 -128992 -233080 0;
#X obj 298 64 cnv 5 5 5 empty empty objects 0 0 0 12 -128992 -233080
0;
#X obj 356 64 cnv 5 5 5 empty empty cloned 0 0 0 12 -128992 -233080
0;
#X obj 406 64 cnv 5 5 5 empty empty from 0 0 0 12 -128992 -233080 0
;
#X obj 444 64 cnv 5 5 5 empty empty Max/MSP 0 0 0 12 -128992 -233080
0;
#X coords 0 -1 1 1 554 30 1 50 50;
#X restore 6 5 pd;
#N canvas 673 40 366 264 (subpatch) 0;
#X obj 51 101 tgl 42 0 \$0-tgl-s \$0-tgl-r empty 1 8 1 9 -74965 -212593
-262144 1 1;
#X obj 215 68 route dsp;
#X obj 215 37 receive pd;
#N canvas 939 367 324 271 set_color 0;
#X obj 47 30 inlet;
#X obj 96 146 s \$0-cnv;
#X msg 96 114 color -4.86997e+06 -1.34937e+07;
#N canvas 0 22 712 637 off 0;
#X obj 490 220 * -1;
#X obj 424 300 +;
#X obj 409 325 +;
#X obj 347 219 * -65536;
#X obj 424 220 * -256;
#X obj 409 356 - 1;
#X obj 390 189 unpack f f f;
#X obj 225 295 +;
#X obj 210 320 +;
#X obj 148 214 * -65536;
#X obj 225 215 * -256;
#X obj 291 215 * -1;
#X obj 210 351 - 1;
#X obj 191 184 unpack f f f;
#X obj 379 423 pack;
#X msg 378 447 color \$1 \$2;
#X msg 395 152 124 124 124;
#X msg 203 154 220 220 220;
#X obj 238 121 t b b;
#X obj 238 81 inlet;
#X obj 378 485 outlet;
#X connect 0 0 1 1;
#X connect 1 0 2 1;
#X connect 2 0 5 0;
#X connect 3 0 2 0;
#X connect 4 0 1 0;
#X connect 5 0 14 1;
#X connect 6 0 3 0;
#X connect 6 1 4 0;
#X connect 6 2 0 0;
#X connect 7 0 8 1;
#X connect 8 0 12 0;
#X connect 9 0 8 0;
#X connect 10 0 7 0;
#X connect 11 0 7 1;
#X connect 12 0 14 0;
#X connect 13 0 9 0;
#X connect 13 1 10 0;
#X connect 13 2 11 0;
#X connect 14 0 15 0;
#X connect 15 0 20 0;
#X connect 16 0 6 0;
#X connect 17 0 13 0;
#X connect 18 0 17 0;
#X connect 18 1 16 0;
#X connect 19 0 18 0;
#X restore 47 113 pd off;
#X obj 47 83 select 0 1;
#X obj 47 168 list append 0;
#X obj 47 195 list trim;
#X obj 47 220 s \$0-tgl-r;
#X connect 0 0 4 0;
#X connect 2 0 1 0;
#X connect 2 0 5 0;
#X connect 3 0 1 0;
#X connect 3 0 5 0;
#X connect 4 0 3 0;
#X connect 4 1 2 0;
#X connect 5 0 6 0;
#X connect 6 0 7 0;
#X restore 215 165 pd set_color;
#X obj 135 122 r \$0-tgl-s;
#N canvas 0 22 450 300 (subpatch) 0;
#X obj 101 101 cnv 25 40 25 empty \$0-cnv DSP 3 13 0 20 -74965 -212593
0;
#X coords 0 -1 1 1 42 27 1 100 100;
#X restore 51 144 pd;
#X obj 226 139 s \$0-tgl-r;
#X msg 226 115 set \$1;
#X msg 135 177 \; pd dsp \$1;
#N canvas 256 32 278 194 load_check 0;
#X obj 136 53 sig~ 1;
#X obj 74 24 loadbang;
#X obj 136 86 snapshot~;
#X obj 91 52 del 5;
#X obj 136 151 outlet;
#X obj 74 103 tgl 15 0 empty empty empty 17 7 0 10 -262144 -1 -1 0
1;
#X obj 74 126 switch~;
#X connect 0 0 2 0;
#X connect 1 0 3 0;
#X connect 1 0 5 0;
#X connect 2 0 4 0;
#X connect 3 0 2 0;
#X connect 3 0 5 0;
#X connect 5 0 6 0;
#X restore 51 72 pd load_check;
#X connect 1 0 3 0;
#X connect 1 0 7 0;
#X connect 2 0 1 0;
#X connect 4 0 8 0;
#X connect 4 0 3 0;
#X connect 7 0 6 0;
#X connect 9 0 0 0;
#X coords 0 -1 1 1 44 72 2 50 100;
#X restore 504 90 pd;
#X connect 12 0 22 0;
#X connect 13 0 20 0;
#X connect 13 0 12 0;
#X connect 14 0 19 0;
#X connect 15 0 13 0;
#X connect 16 0 13 0;
#X connect 20 0 21 0;
#X connect 21 0 14 0;
#X connect 22 0 32 0;
