#N canvas 685 23 494 264 10;
#X obj 83 35 inlet~;
#X obj 209 35 inlet~;
#X obj 83 185 outlet~;
#X obj 209 111 cos~;
#X obj 272 117 cos~;
#X obj 209 62 phasor~;
#X obj 272 96 -~ 0.25;
#X obj 83 106 hilbert~;
#X obj 271 184 outlet~;
#X obj 83 142 expr~ ($v1 * $v3) - ($v2 * $v4) \; ($v1 * $v3) + ($v2
* $v4);
#X connect 0 0 7 0;
#X connect 1 0 5 0;
#X connect 3 0 9 2;
#X connect 4 0 9 3;
#X connect 5 0 3 0;
#X connect 5 0 6 0;
#X connect 6 0 4 0;
#X connect 7 0 9 0;
#X connect 7 1 9 1;
#X connect 9 0 2 0;
#X connect 9 1 8 0;
