#N canvas 413 28 572 546 10;
#X obj 2 367 cnv 3 550 3 empty empty inlets 8 12 0 13 -228856 -1 0
;
#X obj 2 464 cnv 3 550 3 empty empty outlets 8 12 0 13 -228856 -1 0
;
#X obj 2 515 cnv 3 550 3 empty empty arguments 8 12 0 13 -228856 -1
0;
#X obj 81 376 cnv 17 3 36 empty empty 0 5 9 0 16 -228856 -162280 0
;
#X obj 81 426 cnv 17 3 17 empty empty 1 5 9 0 16 -228856 -162280 0
;
#X obj 2 45 cnv 15 552 48 empty empty gate 4 14 0 18 -204280 -1 0;
#X obj 507 55 gate;
#X text 14 71 send data out the specified output;
#X obj 340 156 hradio 15 1 0 4 empty empty empty 0 -6 0 8 -262144 -1
-1 0;
#X symbolatom 340 292 6 0 0 0 - - -, f 6;
#X symbolatom 392 292 6 0 0 0 - - -, f 6;
#X symbolatom 445 292 6 0 0 0 - - -, f 6;
#X msg 451 177 symbol foo;
#X msg 459 199 symbol bar;
#X obj 81 476 cnv 17 3 17 empty empty n 5 9 0 16 -228856 -162280 0
;
#X obj 340 234 cyclone/gate 3, f 18;
#X obj 461 346 cnv 12 73 19 empty empty empty 0 0 0 18 -257983 -1 0
;
#N canvas 329 94 585 365 Examples 0;
#X obj 2 2 cnv 15 580 40 empty empty gate 3 12 0 18 -204280 -1 0;
#X obj 2 341 cnv 15 580 21 empty empty empty 20 12 0 14 -233017 -33289
0;
#X text 37 25 examples;
#X floatatom 256 104 5 0 4 0 - - -, f 5;
#X floatatom 256 269 4 0 0 0 - - -, f 4;
#X floatatom 291 269 4 0 0 0 - - -, f 4;
#X floatatom 326 269 4 0 0 0 - - -, f 4;
#X floatatom 361 269 4 0 0 0 - - -, f 4;
#X msg 202 132 bang;
#X floatatom 222 244 5 0 0 0 - - -, f 5;
#X obj 256 193 cyclone/gate 4, f 18;
#X obj 361 291 bng 15 250 50 0 empty empty empty 17 7 0 10 -262144
-1 -1;
#X obj 326 291 bng 15 250 50 0 empty empty empty 17 7 0 10 -262144
-1 -1;
#X obj 291 291 bng 15 250 50 0 empty empty empty 17 7 0 10 -262144
-1 -1;
#X obj 256 291 bng 15 250 50 0 empty empty empty 17 7 0 10 -262144
-1 -1;
#X obj 371 218 bng 15 250 50 0 empty empty empty 17 7 0 10 -262144
-1 -1;
#X obj 336 218 bng 15 250 50 0 empty empty empty 17 7 0 10 -262144
-1 -1;
#X obj 301 218 bng 15 250 50 0 empty empty empty 17 7 0 10 -262144
-1 -1;
#X obj 266 218 bng 15 250 50 0 empty empty empty 17 7 0 10 -262144
-1 -1;
#N canvas 316 84 365 297 send_data 0;
#X obj 101 176 cnv 5 90 46 empty empty empty 3 12 0 14 -228856 -1 0
;
#X obj 227 103 metro 200;
#X obj 227 258 outlet;
#X obj 2 2 cnv 15 360 20 empty empty empty 3 12 0 14 -204280 -1 0;
#X obj 101 221 cnv 1 6 1 empty empty empty 0 0 0 4 -1 -1 0;
#X obj 35 42 cyclone/comment 250 11 helvetica ? 0 0 128 128 Simple
Graph-On-Parent patch to send bangs;
#X text 8 3 data send;
#X text 120 176 send bangs;
#X obj 135 198 bng 20 250 50 0 snd-bng rcv-bng empty 17 7 0 10 -262144
-1 -1;
#X obj 106 180 tgl 12 0 \$0-1-tgl-snd \$0-tgl-rcv empty 17 7 0 10 -261682
-13330 -13330 0 1;
#X obj 227 82 r \$0-1-tgl-snd;
#X connect 1 0 2 0;
#X connect 8 0 2 0;
#X connect 10 0 1 0;
#X coords 0 -1 1 1 92 48 2 100 175;
#X restore 382 102 pd send_data;
#N canvas 316 84 365 297 send_data 0;
#X obj 101 176 cnv 15 96 46 empty empty empty 3 12 0 14 -228856 -1
0;
#X obj 102 106 metro 200;
#X obj 102 130 cyclone/counter 500;
#X obj 125 237 outlet;
#X obj 2 2 cnv 15 360 20 empty empty empty 3 12 0 14 -204280 -1 0;
#X floatatom 125 199 8 0 0 0 - - -, f 8;
#X obj 101 221 cnv 1 6 1 empty empty empty 0 0 0 4 -1 -1 0;
#X obj 35 42 cyclone/comment 250 11 helvetica ? 0 0 128 128 Simple
Graph-On-Parent patch to send numbers from 0 to 500;
#X text 8 3 data send;
#X text 120 177 send numbers;
#X obj 106 180 tgl 12 0 \$0-tgl-snd \$0-tgl-rcv empty 17 7 0 10 -261682
-13330 -13330 0 1;
#X obj 102 84 r \$0-tgl-snd;
#X connect 1 0 2 0;
#X connect 2 0 5 0;
#X connect 5 0 3 0;
#X connect 11 0 1 0;
#X coords 0 -1 1 1 98 48 2 100 175;
#X restore 451 132 pd send_data;
#X obj 36 61 cyclone/comment 200 11 helvetica ? 0 80 80 80 ... you
can check which output is active;
#X obj 290 89 cyclone/comment 200 11 helvetica ? 0 80 80 80 output
select;
#X obj 134 140 cyclone/comment 70 11 helvetica ? 0 80 80 80 hit to
report open outlet;
#X obj 88 246 cyclone/comment 200 11 helvetica ? 0 80 80 80 reports
the open outlet -->;
#X connect 3 0 10 0;
#X connect 4 0 14 0;
#X connect 5 0 13 0;
#X connect 6 0 12 0;
#X connect 7 0 11 0;
#X connect 8 0 10 0;
#X connect 10 0 4 0;
#X connect 10 0 9 0;
#X connect 10 0 18 0;
#X connect 10 1 5 0;
#X connect 10 1 17 0;
#X connect 10 2 6 0;
#X connect 10 2 16 0;
#X connect 10 3 7 0;
#X connect 10 3 15 0;
#X connect 19 0 10 1;
#X connect 20 0 10 1;
#X restore 463 346 pd Examples;
#X obj 52 116 vradio 15 1 0 4 empty empty empty 0 -8 0 10 -262144 -1
-1 0;
#X floatatom 52 183 5 0 0 0 - - -, f 5;
#X obj 52 260 cyclone/gate 3;
#X floatatom 52 302 5 0 0 0 - - -, f 5;
#X floatatom 92 302 5 0 0 0 - - -, f 5;
#X floatatom 133 302 5 0 0 0 - - -, f 5;
#N canvas 316 84 365 297 send_data 0;
#X obj 101 176 cnv 15 90 46 empty empty empty 3 12 0 14 -245500 -1
0;
#X obj 52 110 metro 200;
#X obj 52 134 cyclone/counter 500;
#X obj 182 237 outlet;
#X obj 2 2 cnv 15 360 20 empty empty empty 3 12 0 14 -204280 -1 0;
#X floatatom 137 185 8 0 0 0 - - -, f 8;
#X obj 101 221 cnv 1 6 1 empty empty empty 0 0 0 4 -1 -1 0;
#X text 103 176 send data numbers, f 7;
#X obj 52 87 loadbang;
#X obj 35 42 cyclone/comment 250 11 helvetica ? 0 0 128 128 Simple
Graph-On-Parent patch to send numbers from 0 to 500;
#X text 8 3 data send;
#X connect 1 0 2 0;
#X connect 2 0 5 0;
#X connect 5 0 3 0;
#X connect 8 0 1 0;
#X coords 0 -1 1 1 92 48 2 100 175;
#X restore 149 186 pd send_data;
#X obj 2 596 cnv 3 550 3 empty empty empty 0 0 0 4 -262144 -1 0;
#X obj 2 576 cnv 15 552 21 empty empty empty 20 12 0 14 -233017 -33289
0;
#N canvas 501 104 400 309 META 0;
#X text 0 18 LICENSE SIBSD;
#X text 0 108 LIBRARY cyclone;
#X text 0 0 KEYWORDS data specific output gate;
#X text 0 36 DESCRIPTION send data out the specified output;
#X text 0 54 INLET_0 bang float;
#X text 0 72 INLET_1 anything;
#X text 0 90 OUTLET_N anything;
#X text 0 127 VERSION 0.2-beta1;
#X text 0 145 AUTHOR Krzysztof Czaja;
#X text 1 163 RELEASE_DATE 2002;
#X text 2 182 WEBSITE http://suita.chopin.edu.pl/~czaja/miXed/externs/cyclone.html
;
#X text 2 214 HELP_PATCH_AUTHORS Christoph Kummerer. Revised by Jonathan
Wilkes for Pd-extended 0.42 to conform to the PDDP template. Alex Cleveland
updated this patch for Pd-l2ork version 2013.05.28. Fred Jan Kraan
adapted the patch to pd-extended 2015-02-02. Esteban Viveros updated
this patch for Pd-Vanilla 0.47-2.;
#X restore 493 578 pd META;
#N canvas 357 145 430 88 Related_objects 0;
#X obj 2 2 cnv 15 425 20 empty empty empty 3 12 0 14 -204280 -1 0;
#X text 8 3 Related Objects;
#X obj 96 33 cyclone/cycle;
#X obj 187 33 cyclone/switch;
#X obj 15 33 route;
#X obj 58 33 send;
#X restore 203 578 pd Related_objects;
#X obj 73 115 cyclone/comment 300 11 helvetica ? 0 85 85 85 <-- send
data to which outlet?;
#X obj 78 165 cyclone/comment 300 11 helvetica ? 0 85 85 85 0 = closed
;
#X obj 146 248 cyclone/comment 300 11 helvetica ? 0 85 85 85 <-- data
to be sent;
#X obj 316 128 cyclone/comment 300 11 helvetica ? 0 80 80 80 works
for other data types:;
#X obj 2 2 cyclone/fancy/cyheader;
#X text 158 376 -;
#X text 125 376 bang;
#X text 158 397 -;
#X text 118 397 float;
#X text 158 427 -;
#X text 100 427 anything;
#X text 173 376 report open outlet, f 60;
#X text 173 397 set open gate number (0 is closed), f 60;
#X text 173 427 data to send through gate, f 60;
#X text 158 478 -;
#X text 100 478 anything;
#X text 173 478 data from inlet 1 \, for only the open outlet, f 60
;
#X text 158 530 -;
#X text 100 530 1) float;
#X text 172 530 number of outlets, f 60;
#X connect 8 0 15 0;
#X connect 12 0 15 1;
#X connect 13 0 15 1;
#X connect 15 0 9 0;
#X connect 15 1 10 0;
#X connect 15 2 11 0;
#X connect 18 0 19 0;
#X connect 19 0 20 0;
#X connect 20 0 21 0;
#X connect 20 1 22 0;
#X connect 20 2 23 0;
#X connect 24 0 20 1;
