#N canvas 412 30 572 481 10;
#X obj 2 345 cnv 3 550 3 empty empty inlets 8 12 0 13 -228856 -1 0
;
#X obj 2 452 cnv 3 550 3 empty empty outlets 8 12 0 13 -228856 -1 0
;
#X obj 2 512 cnv 3 550 3 empty empty arguments 8 12 0 13 -228856 -1
0;
#X obj 87 354 cnv 17 3 65 empty empty 0 5 9 0 16 -228856 -162280 0
;
#X obj 87 485 cnv 17 3 17 empty empty 1 5 9 0 16 -228856 -162280 0
;
#X msg 204 182 clear;
#X floatatom 208 300 5 0 0 0 - - -, f 5;
#X floatatom 325 300 5 0 0 0 - - -, f 5;
#X floatatom 325 205 5 0 0 0 - - -, f 5;
#X obj 87 461 cnv 17 3 17 empty empty 0 5 9 0 16 -228856 -162280 0
;
#X obj 2 599 cnv 1 550 1 empty empty empty 0 0 0 4 -262144 -262144
0;
#X obj 2 599 cnv 1 550 1 empty empty empty 0 0 0 4 -262144 -262144
0;
#X obj 2 578 cnv 15 552 21 empty empty empty 20 12 0 14 -233017 -33289
0;
#N canvas 500 115 387 333 META 0;
#X text 0 19 LICENSE SIBSD;
#X text 0 114 LIBRARY cyclone;
#X text 0 0 KEYWORDS histogram count generate;
#X text 0 38 DESCRIPTION generates a histogram of the received numbers
;
#X text 0 57 INLET_0 float list message;
#X text 0 76 OUTLET_0 float;
#X text 0 95 OUTLET_1 float;
#X text 0 133 VERSION 0.2-beta1;
#X text 0 151 AUTHOR Krzysztof Czaja;
#X text 1 169 RELEASE_DATE 2002;
#X text 2 188 WEBSITE http://suita.chopin.edu.pl/~czaja/miXed/externs/cyclone.html
;
#X text 2 220 HELP_PATCH_AUTHORS Christoph Kummerer. Revised by Jonathan
Wilkes for Pd-extended 0.42 to conform to the PDDP template. Alex Cleveland
updated this patch for Pd-l2ork version 2013.05.28. Fred Jan Kraan
adapted the patch to pd-extended 2015-02-02. Esteban Viveros updated
this patch for Pd-Vanilla 0.47-2.;
#X restore 503 580 pd META;
#N canvas 358 146 430 80 Related_objects 0;
#X obj 2 2 cnv 15 425 20 empty empty empty 3 12 0 14 -204280 -1 0;
#X text 8 3 Related Objects;
#X obj 8 31 cyclone/anal;
#X obj 93 31 cyclone/prob;
#C restore;
#X obj 177 31 cyclone/Table;
#C restore;
#X restore 201 580 pd Related_objects;
#X msg 214 206 bang;
#X obj 362 114 vradio 15 1 1 7 empty empty empty 0 -8 0 10 -262144
-1 -1 5;
#X msg 169 125 1 \, 1 \, 1 \, 1 \, 3 \, 3 \, 4 \, 6 \, 6 \, 6, f 14
;
#X obj 384 115 cyclone/comment 100 11 helvetica ? 0 80 80 80 0;
#X obj 384 130 cyclone/comment 100 11 helvetica ? 0 80 80 80 1;
#X obj 384 145 cyclone/comment 100 11 helvetica ? 0 80 80 80 2;
#X obj 384 160 cyclone/comment 100 11 helvetica ? 0 80 80 80 3;
#X obj 384 175 cyclone/comment 100 11 helvetica ? 0 80 80 80 4;
#X obj 384 191 cyclone/comment 100 11 helvetica ? 0 80 80 80 5;
#X obj 384 207 cyclone/comment 100 11 helvetica ? 0 80 80 80 6;
#X obj 56 127 cyclone/comment 100 11 helvetica ? 0 80 80 80 click a
set of numbers to keep track of;
#X obj 126 127 cyclone/comment 44 11 helvetica ? 0 80 80 80 ------->
;
#X obj 430 121 cyclone/comment 100 11 helvetica ? 0 80 80 80 query
;
#X obj 405 121 cyclone/comment 100 11 helvetica ? 0 80 80 80 <----
;
#X obj 156 302 cyclone/comment 100 11 helvetica ? 0 80 80 80 the value
;
#X obj 247 302 cyclone/comment 100 11 helvetica ? 0 80 80 80 was repeated
;
#X obj 361 302 cyclone/comment 100 11 helvetica ? 0 80 80 80 times
;
#X floatatom 190 161 8 0 6 0 - - -, f 8;
#X obj 463 323 cnv 12 73 19 empty empty empty 0 0 0 18 -257983 -1 0
;
#N canvas 281 97 625 358 Examples 0;
#X obj 2 2 cnv 15 620 40 empty empty histo 3 12 0 18 -204280 -1 0;
#X text 21 24 examples;
#X obj 2 354 cnv 3 550 3 empty empty empty 0 0 0 4 -262144 -1 0;
#X obj 2 334 cnv 15 620 21 empty empty empty 20 12 0 14 -233017 -33289
0;
#N canvas 520 160 390 115 credits 0;
#X text 86 32 Examples from Max 7 Documentation., f 36;
#X restore 543 336 pd credits;
#X obj 35 69 cyclone/comment 148 11 helvetica ? 0 80 80 80 ... about
the behavior;
#X obj 223 81 loadbang;
#X obj 223 103 t b b b b;
#X msg 32 168 6;
#X msg 274 165 6;
#X floatatom 32 222 5 0 0 0 - - -, f 5;
#X floatatom 107 222 5 0 0 0 - - -, f 5;
#X floatatom 199 222 5 0 0 0 - - -, f 5;
#X floatatom 274 222 5 0 0 0 - - -, f 5;
#X obj 30 249 cyclone/comment 110 11 helvetica ? 0 80 80 80 count the
number first \, then report the count;
#X obj 198 249 cyclone/comment 134 11 helvetica ? 0 80 80 80 don't
count the number this time \, but report how many times it has been
received previously;
#X obj 465 147 notein 1;
#X obj 465 169 stripnote;
#X obj 465 233 cyclone/Table;
#C restore;
#X obj 430 202 bng 15 250 50 0 empty empty empty 17 7 0 10 -262144
-1 -1;
#X obj 400 91 cyclone/comment 201 11 helvetica ? 0 80 80 80 [cyclone/histo]
can be helfull to use random "quantile" messages to make probabilistic
choices based on past history;
#X obj 32 190 cyclone/histo;
#X obj 199 190 cyclone/histo;
#X obj 465 201 cyclone/histo;
#X connect 6 0 7 0;
#X connect 7 0 8 0;
#X connect 7 1 8 0;
#X connect 7 2 8 0;
#X connect 7 3 9 0;
#X connect 7 3 8 0;
#X connect 8 0 21 0;
#X connect 9 0 22 1;
#X connect 16 0 17 0;
#X connect 17 0 23 0;
#X connect 19 0 18 0;
#X connect 21 0 10 0;
#X connect 21 1 11 0;
#X connect 22 0 12 0;
#X connect 22 1 13 0;
#X connect 23 0 18 0;
#X restore 463 323 pd Examples;
#X obj 208 234 cyclone/histo, f 20;
#X text 158 355 -;
#X text 125 355 bang;
#X text 158 375 -;
#X text 118 375 float;
#X text 173 375 number to go into histogram, f 60;
#X text 158 431 -;
#X text 125 430 list;
#X text 173 431 list of numbers to go into histogram, f 60;
#X text 158 395 -;
#X text 107 395 message;
#X text 173 395 clear: erase received numbers, f 60;
#X text 173 412 bang: same as repeating the last number in right inlet
, f 60;
#X text 173 355 repeat the last number in right inlet, f 60;
#X text 158 463 -;
#X text 118 463 float;
#X text 158 485 -;
#X text 118 485 float;
#X text 173 463 the current input, f 60;
#X text 173 485 number of times the current input was received, f
60;
#X text 158 529 -;
#X text 95 529 1) float;
#X text 173 529 set the size of the histogram. The default size is
128 (0-127). (optional), f 60;
#X obj 2 5 cnv 15 553 42 empty empty empty 20 12 0 14 -233017 -66577
0;
#N canvas 0 22 450 278 (subpatch) 0;
#X coords 0 1 100 -1 554 42 1 0 0;
#X restore 2 4 graph;
#X obj 305 5 cnv 15 250 40 empty empty empty 12 13 0 18 -128992 -233080
0;
#N canvas 382 141 749 319 (subpatch) 0;
#X coords 0 -1 1 1 252 42 2 100 100;
#X restore 304 4 pd;
#X obj 322 29 comment 0 13 courier ? 0 224 228 220 Objects cloned from
Max/MSP;
#X obj 363 5 comment 0 24 courier ? 0 224 228 220 cyclone;
#X obj 16 5 comment 0 37 times ? 0 0 0 0 histo;
#X obj 20 58 comment 0 18 times ? 0 0 0 0 generates a histogram of
the received numbers;
#N canvas 0 22 450 300 back 0;
#X restore 437 239 pd back;
#X connect 5 0 35 0;
#X connect 8 0 35 1;
#X connect 15 0 35 0;
#X connect 16 0 8 0;
#X connect 17 0 35 0;
#X connect 32 0 35 0;
#X connect 35 0 6 0;
#X connect 35 1 7 0;
