#N canvas 599 23 585 623 10;
#X obj 2 370 cnv 3 550 3 empty empty inlets 8 12 0 13 -228856 -1 0
;
#X obj 2 427 cnv 3 550 3 empty empty outlets 8 12 0 13 -228856 -1 0
;
#X obj 2 462 cnv 3 550 3 empty empty arguments 8 12 0 13 -228856 -1
0;
#X obj 81 380 cnv 17 3 17 empty empty 0 5 9 0 16 -228856 -162280 0
;
#X obj 81 403 cnv 17 3 17 empty empty 1 5 9 0 16 -228856 -162280 0
;
#X obj 81 437 cnv 17 3 17 empty empty 0 5 9 0 16 -228856 -162280 0
;
#X obj 2 563 cnv 1 550 1 empty empty empty 0 0 0 4 -262144 -262144
0;
#X obj 2 542 cnv 15 552 21 empty empty empty 20 12 0 14 -233017 -33289
0;
#N canvas 515 103 374 362 META 0;
#X text 0 20 LICENSE SIBSD;
#X text 0 120 LIBRARY cyclone;
#X text 0 0 KEYWORDS scale exponential line;
#X text 0 40 DESCRIPTION scale numbers exponentially for use with line~
;
#X text 0 100 OUTLET_0 float;
#X text 0 60 INLET_0 message;
#X text 0 80 INLET_1 float;
#X text 0 139 VERSION 0.2-beta1;
#X text 0 157 AUTHOR Krzysztof Czaja;
#X text 1 175 RELEASE_DATE 2002;
#X text 2 194 WEBSITE http://suita.chopin.edu.pl/~czaja/miXed/externs/cyclone.html
;
#X text 2 226 HELP_PATCH_AUTHORS Christoph Kummerer. Revised by Jonathan
Wilkes for Pd-extended 0.42 to conform to the PDDP template. Alex Cleveland
updated this patch for Pd-l2ork version 2013.05.28. Fred Jan Kraan
adapted the patch to pd-extended 2015-02-02. Esteban Viveros updated
this patch for Pd-Vanilla 0.47-2.;
#X restore 504 544 pd META;
#N canvas 353 145 430 83 Related_objects 0;
#X obj 2 2 cnv 15 425 20 empty empty empty 3 12 0 14 -204280 -1 0;
#X text 8 3 Related Objects;
#X obj 53 31 line~;
#X obj 97 31 cyclone/Line~;
#X obj 15 31 expr;
#X restore 205 544 pd Related_objects;
#N canvas 673 40 366 264 (subpatch) 0;
#X obj 51 101 tgl 42 0 \$0-tgl-s \$0-tgl-r empty 1 8 1 9 -74965 -212593
-262144 1 1;
#X obj 215 68 route dsp;
#X obj 215 37 receive pd;
#N canvas 939 367 324 271 set_color 0;
#X obj 47 30 inlet;
#X obj 96 146 s \$0-cnv;
#X msg 96 114 color -4.86997e+06 -1.34937e+07;
#N canvas 0 22 712 637 off 0;
#X obj 490 220 * -1;
#X obj 424 300 +;
#X obj 409 325 +;
#X obj 347 219 * -65536;
#X obj 424 220 * -256;
#X obj 409 356 - 1;
#X obj 390 189 unpack f f f;
#X obj 225 295 +;
#X obj 210 320 +;
#X obj 148 214 * -65536;
#X obj 225 215 * -256;
#X obj 291 215 * -1;
#X obj 210 351 - 1;
#X obj 191 184 unpack f f f;
#X obj 379 423 pack;
#X msg 378 447 color \$1 \$2;
#X msg 395 152 124 124 124;
#X msg 203 154 220 220 220;
#X obj 238 121 t b b;
#X obj 238 81 inlet;
#X obj 378 485 outlet;
#X connect 0 0 1 1;
#X connect 1 0 2 1;
#X connect 2 0 5 0;
#X connect 3 0 2 0;
#X connect 4 0 1 0;
#X connect 5 0 14 1;
#X connect 6 0 3 0;
#X connect 6 1 4 0;
#X connect 6 2 0 0;
#X connect 7 0 8 1;
#X connect 8 0 12 0;
#X connect 9 0 8 0;
#X connect 10 0 7 0;
#X connect 11 0 7 1;
#X connect 12 0 14 0;
#X connect 13 0 9 0;
#X connect 13 1 10 0;
#X connect 13 2 11 0;
#X connect 14 0 15 0;
#X connect 15 0 20 0;
#X connect 16 0 6 0;
#X connect 17 0 13 0;
#X connect 18 0 17 0;
#X connect 18 1 16 0;
#X connect 19 0 18 0;
#X restore 47 113 pd off;
#X obj 47 83 select 0 1;
#X obj 47 168 list append 0;
#X obj 47 195 list trim;
#X obj 47 220 s \$0-tgl-r;
#X connect 0 0 4 0;
#X connect 2 0 1 0;
#X connect 2 0 5 0;
#X connect 3 0 1 0;
#X connect 3 0 5 0;
#X connect 4 0 3 0;
#X connect 4 1 2 0;
#X connect 5 0 6 0;
#X connect 6 0 7 0;
#X restore 215 165 pd set_color;
#X obj 135 122 r \$0-tgl-s;
#N canvas 0 22 450 300 (subpatch) 0;
#X obj 101 101 cnv 25 40 25 empty \$0-cnv DSP 3 13 0 20 -74965 -212593
0;
#X coords 0 -1 1 1 42 27 1 100 100;
#X restore 51 144 pd;
#X obj 226 139 s \$0-tgl-r;
#X msg 226 115 set \$1;
#X msg 135 177 \; pd dsp \$1;
#N canvas 256 32 278 194 load_check 0;
#X obj 167 53 sig~ 1;
#X obj 74 24 loadbang;
#X obj 167 86 snapshot~;
#X obj 167 151 outlet;
#X obj 74 103 tgl 15 0 empty empty empty 17 7 0 10 -262144 -1 -1 0
1;
#X obj 74 126 switch~;
#X obj 91 52 del 5;
#X connect 0 0 2 0;
#X connect 1 0 4 0;
#X connect 1 0 6 0;
#X connect 2 0 3 0;
#X connect 4 0 5 0;
#X connect 6 0 2 0;
#X connect 6 0 4 0;
#X restore 51 72 pd load_check;
#X connect 1 0 3 0;
#X connect 1 0 7 0;
#X connect 2 0 1 0;
#X connect 4 0 8 0;
#X connect 4 0 3 0;
#X connect 7 0 6 0;
#X connect 9 0 0 0;
#X coords 0 -1 1 1 44 72 2 50 100;
#X restore 493 76 pd;
#X text 158 405 -;
#X text 118 405 float;
#X text 158 381 -;
#X text 107 381 message;
#X text 173 381 integer message as input \, see more_info session,
f 60;
#X text 173 405 time value in milliseconds for line~, f 60;
#X text 158 438 -;
#X text 118 438 float;
#X text 173 438 scaled number, f 60;
#X obj 2 5 cnv 15 553 42 empty empty empty 20 12 0 14 -233017 -66577
0;
#N canvas 0 22 450 278 (subpatch) 0;
#X coords 0 1 100 -1 554 42 1 0 0;
#X restore 2 4 graph;
#X obj 305 5 cnv 15 250 40 empty empty empty 12 13 0 18 -128992 -233080
0;
#N canvas 382 141 749 319 (subpatch) 0;
#X coords 0 -1 1 1 252 42 2 100 100;
#X restore 304 4 pd;
#X obj 322 29 comment 0 13 courier ? 0 224 228 220 Objects cloned from
Max/MSP;
#X obj 363 5 comment 0 24 courier ? 0 224 228 220 cyclone;
#X obj 16 5 comment 0 37 times ? 0 0 0 0 linedrive;
#X obj 20 58 comment 0 18 times ? 0 0 0 0 scale numbers exponentially
for use with line~;
#N canvas 158 23 555 312 x 0;
#X text 82 234 The output is a list of two values \, the second one
being equal to argument4 and can be sent directly to a line~ 0, f
60;
#X text 82 121 The [linedrive] object converts integers for use with
line~. Linedrive takes integers ranging from -argument1 to +argument1
and scales them to fall within the range -argument2 to +argument2.
If the input equals argument1 \, the output is equal to argument value2.
Output varies exponentially with the input depending on argument3.
With the arguments shown \, input values between 0 and 127 are converted
from 2*dB to linear amplitude with 127 becoming 1;
#X restore 454 262 pd x;
#N canvas 285 95 883 699 examples 0;
#X obj 2 179 cnv 15 580 40 empty empty linedrive 3 12 0 18 -204280
-1 0;
#X text 74 201 examples;
#X obj 2 891 cnv 3 550 3 empty empty empty 0 0 0 4 -262144 -1 0;
#X obj 2 871 cnv 15 580 21 empty empty empty 20 12 0 14 -233017 -33289
0;
#N canvas 525 190 378 120 credits 0;
#X text 69 36 First example from Max 7 Documentation.;
#X restore 502 873 pd credits;
#X obj 204 568 cyclone/linedrive 127 12543.9 1.05946 200;
#X obj 323 531 cyclone/comment 147 11 helvetica ? 0 80 80 80 map one
range of values onto another exponentially;
#X obj 207 508 hsl 90 15 0 127 0 0 empty empty empty -2 -8 0 10 -262144
-1 -1 0 1;
#X floatatom 204 528 5 0 0 0 - - -, f 5;
#X obj 204 600 line~;
#X floatatom 271 601 8 0 0 0 - - -, f 8;
#X obj 145 716 mtof;
#X obj 145 741 cyclone/cycle~;
#X obj 145 773 *~;
#X floatatom 249 707 5 0 0 0 - - -, f 5;
#X obj 249 729 cyclone/linedrive 127 1 1.06 100;
#X obj 249 756 line~;
#X floatatom 299 757 5 0 0 0 - - -, f 5;
#X obj 145 795 output~;
#X obj 296 692 cyclone/comment 126 11 helvetica ? 0 80 80 80 scale
velocity on a curve between 1 and 0;
#X obj 42 659 notein 1, f 20;
#X obj 42 683 poly 1 1, f 35;
#X obj 40 250 hsl 110 18 0 127 0 0 empty empty empty -2 -8 0 10 -216373
-1 -1 0 1;
#X floatatom 37 273 5 0 0 0 - - -, f 5;
#X floatatom 295 278 5 0 0 0 - - -, f 5;
#X obj 115 400 hsl 100 12 0 127 0 0 empty empty empty -2 -8 0 10 -108187
-1 -1 0 1;
#X obj 187 339 prepend set;
#X msg 187 359 0 30;
#X obj 112 378 * 127;
#X obj 112 338 unpack f;
#N canvas 0 22 450 278 (subpatch) 0;
#X array behavior 127 float 2;
#X coords 0 1 127 -1 165 165 1 0 0;
#X restore 368 254 graph;
#X obj 112 306 cyclone/linedrive 127 1 1.06 30;
#N canvas 0 22 455 317 behavior 0;
#X obj 55 59 inlet;
#X obj 154 60 inlet;
#X obj 177 251 tabwrite behavior;
#X obj 154 99 * 2;
#X obj 154 118 - 1;
#N canvas 196 275 455 351 Set_graph 0;
#X obj 102 204 unpack f f;
#X obj 102 88 loadbang;
#X obj 102 144 cyclone/counter 0 126;
#X obj 102 290 outlet;
#X obj 159 290 outlet;
#X obj 102 240 swap, f 10;
#X obj 102 123 cyclone/Uzi 127;
#X obj 2 2 cnv 15 450 20 empty empty empty 3 12 0 14 -204280 -1 0;
#X obj 262 129 cyclone/comment 133 11 helvetica ? 0 80 80 80 counting
from 0 to 126 very quickly;
#X obj 39 34 cyclone/comment 300 10 monaco ? 0 80 80 80 this subpatch
set all indexes with value "-1" to correct exhibition os array graph.
;
#X obj 239 132 cyclone/comment 133 11 helvetica ? 0 80 80 80 <==;
#X obj 187 199 cyclone/comment 133 11 helvetica ? 0 80 80 80 <==;
#X obj 210 196 cyclone/comment 135 11 helvetica ? 0 80 80 80 create
the a pair of data to set the graph (index \, value);
#X obj 173 242 cyclone/comment 133 11 helvetica ? 0 80 80 80 <==;
#X obj 195 242 cyclone/comment 200 11 helvetica ? 0 80 80 80 preventing
problems with hot/cold inlets;
#X text 7 3 Initial set for "behavior" graph, f 71;
#X obj 166 95 bng 15 250 50 0 empty empty empty 17 7 0 10 -262144 -1
-1;
#X obj 102 185 pack f -0.998;
#X connect 0 0 5 0;
#X connect 0 1 5 1;
#X connect 1 0 6 0;
#X connect 2 0 17 0;
#X connect 5 0 3 0;
#X connect 5 1 4 0;
#X connect 6 0 2 0;
#X connect 16 0 6 0;
#X connect 17 0 0 0;
#X restore 177 219 pd Set_graph;
#X obj 2 2 cnv 15 450 20 empty empty empty 3 12 0 14 -204280 -1 0;
#X obj 218 111 cyclone/comment 133 11 helvetica ? 0 80 80 80 only scaling
;
#X obj 196 111 cyclone/comment 133 11 helvetica ? 0 80 80 80 <==;
#X obj 312 257 cyclone/comment 133 11 helvetica ? 0 80 80 80 writing
in behavior table;
#X obj 288 256 cyclone/comment 133 11 helvetica ? 0 80 80 80 <==;
#X text 7 3 Drawing in "behavior" graph;
#X obj 154 188 line 0 80;
#X connect 0 0 2 1;
#X connect 1 0 3 0;
#X connect 3 0 4 0;
#X connect 4 0 12 0;
#X connect 5 0 2 0;
#X connect 5 1 2 1;
#X connect 12 0 2 0;
#X restore 37 398 pd behavior;
#X obj 157 250 cyclone/comment 133 11 helvetica ? 0 80 80 80 <----
drag slider;
#X obj 215 278 cyclone/comment 133 11 helvetica ? 0 80 80 80 slew time
---->;
#X obj 284 692 cyclone/comment 126 11 helvetica ? 0 80 80 80 ...;
#X obj 312 530 cyclone/comment 126 11 helvetica ? 0 80 80 80 ...;
#X obj 98 483 cyclone/comment 126 11 helvetica ? 0 80 80 80 linedrive
allow you...;
#X obj 609 562 *~;
#X obj 566 596 output~;
#X floatatom 685 598 8 0 0 0 - - -, f 8;
#X obj 685 571 cyclone/snapshot~ 100;
#X obj 554 499 osc~ 440;
#X obj 688 621 hsl 70 15 0 1 0 0 empty empty empty -2 -8 0 10 -216373
-1 -1 0 1;
#X obj 624 524 line~ 0;
#X connect 5 0 9 0;
#X connect 5 0 10 0;
#X connect 7 0 8 0;
#X connect 8 0 5 0;
#X connect 11 0 12 0;
#X connect 12 0 13 0;
#X connect 13 0 18 0;
#X connect 14 0 15 0;
#X connect 15 0 16 0;
#X connect 15 0 17 0;
#X connect 16 0 13 1;
#X connect 20 0 21 0;
#X connect 20 1 21 1;
#X connect 21 1 11 0;
#X connect 21 2 14 0;
#X connect 22 0 23 0;
#X connect 23 0 32 0;
#X connect 23 0 31 0;
#X connect 24 0 31 1;
#X connect 26 0 27 0;
#X connect 28 0 25 0;
#X connect 29 0 28 0;
#X connect 29 0 32 1;
#X connect 31 0 26 0;
#X connect 31 0 29 0;
#X connect 38 0 39 0;
#X connect 38 0 39 1;
#X connect 40 0 43 0;
#X connect 41 0 40 0;
#X connect 42 0 38 0;
#X connect 44 0 38 1;
#X connect 44 0 41 0;
#X coords 0 699 1 698 85 60 0;
#X restore 467 290 pd examples;
#X text 76 95 [linedrive] scales from one range to another with an
exponential curve. Both the input and output ranges are expressed as
single arguments representing the maximum value. The minimum values
are the negative values of the ranges (argument * -1).;
#X text 289 208 time;
#X floatatom 291 231 5 0 0 0 - - -, f 5;
#X text 351 233 all args obrigatory;
#X text 101 513 4) integer time value - obrigatory (no default);
#X text 103 474 1) input range (int) - (no default) \; 2) output range
(float?) - obrigatory (no default) \; 3) exponential factor (> 1) -
obrigatory (no default);
#X obj 123 205 hsl 128 15 0 127 0 0 empty empty empty -2 -8 0 10 -228856
-1 -1 9300 1;
#X obj 120 230 nbx 4 14 -1e+37 1e+37 0 0 empty empty empty 0 -8 0 10
-228856 -1 -1 93 256;
#X floatatom 225 325 6 0 0 0 - - -, f 6;
#X floatatom 120 325 10 0 0 0 - - -, f 10;
#X obj 120 296 unpack float float;
#X obj 120 254 cyclone/linedrive 127 1 1 500;
#X text 284 296 time must be >= 0;
#X text 284 316 exp must be >= 1;
#X connect 32 0 41 1;
#X connect 36 0 37 0;
#X connect 37 0 41 0;
#X connect 40 0 39 0;
#X connect 40 1 38 0;
#X connect 41 0 40 0;
