#N canvas 397 27 572 506 10;
#X obj 4 406 cnv 3 550 3 empty empty inlets 8 12 0 13 -228856 -1 0
;
#X obj 5 513 cnv 3 550 3 empty empty outlets 8 12 0 13 -228856 -1 0
;
#X obj 5 564 cnv 3 550 3 empty empty arguments 8 12 0 13 -228856 -1
0;
#X obj 85 417 cnv 17 3 45 empty empty 0 5 9 0 16 -228856 -162280 0
;
#X obj 85 526 cnv 17 3 17 empty empty 0 5 9 0 16 -228856 -162280 0
;
#X obj 2 45 cnv 15 552 48 empty empty match 4 14 0 18 -204280 -1 0
;
#X obj 504 54 match;
#X obj 2 2 cyclone/fancy/cyheader;
#X obj 2 661 cnv 1 550 1 empty empty empty 0 0 0 4 -262144 -262144
0;
#X obj 2 640 cnv 15 552 21 empty empty empty 20 12 0 14 -233017 -33289
0;
#N canvas 481 101 401 341 META 0;
#X text 0 20 LICENSE SIBSD;
#X text 0 100 LIBRARY cyclone;
#X text 0 0 KEYWORDS series match list;
#X text 0 40 DESCRIPTION look for a series of numbers;
#X text 0 60 INLET_0 list;
#X text 0 80 OUTLET_0 list;
#X text 0 120 VERSION 0.2-beta1;
#X text 0 138 AUTHOR Krzysztof Czaja;
#X text 1 156 RELEASE_DATE 2002;
#X text 2 175 WEBSITE http://suita.chopin.edu.pl/~czaja/miXed/externs/cyclone.html
;
#X text 2 207 HELP_PATCH_AUTHORS Christoph Kummerer. Revised by Jonathan
Wilkes for Pd-extended 0.42 to conform to the PDDP template. Alex Cleveland
updated this patch for Pd-l2ork version 2013.05.28. Fred Jan Kraan
adapted the patch to pd-extended 2015-02-02. Esteban Viveros updated
this patch for Pd-Vanilla 0.47-2.;
#X restore 505 642 pd META;
#N canvas 344 143 430 83 Related_objects 0;
#X obj 2 2 cnv 15 425 20 empty empty empty 3 12 0 14 -204280 -1 0;
#X text 8 3 Related Objects;
#X obj 144 34 cyclone/iter;
#X obj 15 34 join;
#X obj 54 34 pack;
#X obj 94 34 select;
#X restore 206 642 pd Related_objects;
#X floatatom 206 348 5 0 0 0 - - -, f 5;
#X floatatom 240 348 5 0 0 0 - - -, f 5;
#X obj 206 313 unpack f f f;
#X floatatom 275 348 5 0 0 0 - - -, f 5;
#X obj 206 364 bng 15 250 50 0 empty empty empty 17 7 0 10 -262144
-1 -1;
#X obj 240 364 bng 15 250 50 0 empty empty empty 17 7 0 10 -262144
-1 -1;
#X obj 275 364 bng 15 250 50 0 empty empty empty 17 7 0 10 -262144
-1 -1;
#X obj 104 206 t b b b;
#X obj 104 168 bng 15 250 50 0 empty empty empty 17 7 0 10 -262144
-1 -1;
#X msg 104 230 2;
#X msg 176 231 100;
#X msg 206 202 100 50 4;
#X msg 224 226 100 50 2;
#X msg 143 230 50;
#X obj 206 277 cyclone/match 100 50 2;
#X obj 124 166 cyclone/comment 80 11 helvetica ? 0 80 80 80 <---;
#X obj 144 166 cyclone/comment 276 11 helvetica ? 0 80 80 80 click
to send a sequence of numbers to match object;
#X obj 284 228 cyclone/comment 276 11 helvetica ? 0 80 80 80 <--- generate
output;
#X obj 474 377 cnv 12 73 19 empty empty empty 0 0 0 18 -257983 -1 0
;
#N canvas 292 94 600 601 Examples 0;
#X obj 2 2 cnv 15 595 40 empty empty match 3 12 0 18 -204280 -1 0;
#X text 24 24 examples;
#X obj 2 597 cnv 3 550 3 empty empty empty 0 0 0 4 -262144 -1 0;
#X obj 2 577 cnv 15 595 21 empty empty empty 20 12 0 14 -233017 -33289
0;
#N canvas 518 179 378 120 credits 0;
#X text 60 32 Some examples from Max 7 Documentation.;
#X restore 517 579 pd credits;
#X msg 283 114 34;
#X msg 295 136 set 34 erg 88;
#X msg 309 158 erg 88;
#X obj 283 236 print match;
#X floatatom 59 515 5 0 0 0 - - -, f 5;
#X floatatom 93 515 5 0 0 0 - - -, f 5;
#X obj 59 490 unpack f f f;
#X floatatom 128 515 5 0 0 0 - - -, f 5;
#X msg 59 321 100 50 4;
#X msg 77 345 100 50 2;
#X msg 108 402 set nn nn 4;
#X msg 395 332 clear;
#X obj 59 457 cyclone/match 100 nn 2;
#X obj 59 531 bng 15 250 50 0 empty empty empty 17 7 0 10 -262144 -1
-1;
#X obj 93 531 bng 15 250 50 0 empty empty empty 17 7 0 10 -262144 -1
-1;
#X obj 128 531 bng 15 250 50 0 empty empty empty 17 7 0 10 -262144
-1 -1;
#X msg 93 368 2 3 4;
#X obj 387 141 cyclone/comment 183 11 helvetica ? 0 80 80 80 you can
change what you're trying to match with the set message. This clears
what has been seen thus far.;
#X obj 283 207 cyclone/match 34;
#X obj 267 94 cyclone/comment 262 11 helvetica ? 0 80 80 80 Click on
the message boxes in order from up to down;
#X obj 32 286 cyclone/comment 213 11 helvetica ? 0 80 80 80 "nn" can
be used in messages or which argument as a wildcard;
#X obj 119 80 cyclone/comment 55 11 helvetica ? 0 80 80 80 match;
#X msg 46 76 63 \, 62 \, 64;
#X msg 62 102 63 \, 65 \, 64;
#X obj 46 154 cyclone/match 63 64;
#X obj 23 286 cyclone/comment 166 11 helvetica ? 0 80 80 80 ...;
#X obj 135 105 cyclone/comment 55 11 helvetica ? 0 80 80 80 no match
;
#X obj 46 179 unpack, f 10;
#X floatatom 103 210 5 0 0 0 - - -, f 5;
#X floatatom 46 210 5 0 0 0 - - -, f 5;
#X obj 202 455 cyclone/comment 98 11 helvetica ? 0 80 80 80 "nn" can
be used as a wildcard to match any number;
#X obj 190 401 cyclone/comment 183 11 helvetica ? 0 80 80 80 look for
a new pattern;
#X obj 345 333 cyclone/comment 213 11 helvetica ? 0 80 80 80 forget
all;
#X msg 421 376 22;
#X msg 453 376 13;
#X msg 487 376 54;
#X obj 395 444 cyclone/match 54 22 13;
#X obj 395 476 print match;
#X obj 441 358 cyclone/comment 183 11 helvetica ? 0 80 80 80 ...wrong
input order?;
#X obj 374 522 cyclone/comment 183 11 helvetica ? 0 80 80 80 Use "clear"
message and try again...;
#X obj 359 240 cyclone/comment 25 11 helvetica ? 0 80 80 80 <----;
#X obj 388 238 cyclone/comment 79 11 helvetica ? 0 80 80 80 see results
of print object in Pd main window;
#X connect 5 0 23 0;
#X connect 6 0 23 0;
#X connect 7 0 23 0;
#X connect 9 0 18 0;
#X connect 10 0 19 0;
#X connect 11 0 9 0;
#X connect 11 1 10 0;
#X connect 11 2 12 0;
#X connect 12 0 20 0;
#X connect 13 0 17 0;
#X connect 14 0 17 0;
#X connect 15 0 17 0;
#X connect 16 0 41 0;
#X connect 17 0 11 0;
#X connect 21 0 17 0;
#X connect 23 0 8 0;
#X connect 27 0 29 0;
#X connect 28 0 29 0;
#X connect 29 0 32 0;
#X connect 32 0 34 0;
#X connect 32 1 33 0;
#X connect 38 0 41 0;
#X connect 39 0 41 0;
#X connect 40 0 41 0;
#X connect 41 0 42 0;
#X restore 474 377 pd Examples;
#X obj 265 200 cyclone/comment 276 11 helvetica ? 0 80 80 80 <--- input
list to check against the match series;
#X obj 354 280 cyclone/comment 115 11 helvetica ? 0 80 80 80 only sequence
of elements or a list equal to the argument are left;
#X text 14 72 watch for a message match \, then output it as a list
;
#X obj 35 108 cyclone/comment 460 10 monaco ? 0 80 80 80 watches an
incoming stream of floats \, symbols \, list \, or messages \, and
outputs the stream after it has met the specification of its arguments
;
#X text 158 418 -;
#X text 118 418 float;
#X text 158 439 -;
#X text 124 439 list;
#X text 158 459 -;
#X text 107 459 message;
#X text 173 418 a series of floats in the proper order are send as
a list, f 60;
#X text 173 439 a list of floats matching the pattern is send, f 60
;
#X text 173 477 "set":;
#X text 215 477 defines a new pattern to match, f 53;
#X text 173 459 "clear":;
#X text 227 459 forget all numbers it has received up to that time
, f 51;
#X text 158 527 -;
#X text 124 527 list;
#X text 173 527 list of floats that match the pattern, f 60;
#X text 158 582 -;
#X text 100 582 1) list;
#X text 172 582 list of numbers to match \, nn can be used as wildcard
for any number;
#X connect 12 0 16 0;
#X connect 13 0 17 0;
#X connect 14 0 12 0;
#X connect 14 1 13 0;
#X connect 14 2 15 0;
#X connect 15 0 18 0;
#X connect 19 0 21 0;
#X connect 19 1 25 0;
#X connect 19 2 22 0;
#X connect 20 0 19 0;
#X connect 21 0 26 0;
#X connect 22 0 26 0;
#X connect 23 0 26 0;
#X connect 24 0 26 0;
#X connect 25 0 26 0;
#X connect 26 0 14 0;
