#N canvas 365 28 572 595 10;
#X obj 2 568 cnv 3 550 3 empty empty inlets 8 12 0 13 -228856 -1 0
;
#X obj 2 784 cnv 3 550 3 empty empty outlets 8 12 0 13 -228856 -1 0
;
#X obj 2 857 cnv 3 550 3 empty empty arguments 8 12 0 13 -228856 -1
0;
#X obj 87 747 cnv 17 3 17 empty empty 6 5 9 0 16 -228856 -162280 0
;
#X obj 2 45 cnv 15 552 48 empty empty midiformat 4 14 0 18 -204280
-1 0;
#X obj 478 53 midiformat;
#X msg 50 159 88 127;
#X obj 70 487 midiout;
#X msg 95 210 90 88;
#X floatatom 146 283 5 0 0 0 - - -, f 5;
#X floatatom 172 304 5 0 0 0 - - -, f 5;
#X floatatom 197 325 5 0 0 0 - - -, f 5;
#X floatatom 223 346 5 0 0 0 - - -, f 5;
#X obj 87 793 cnv 17 3 17 empty empty 0 5 9 0 16 -228856 -162280 0
;
#X obj 87 615 cnv 17 3 17 empty empty 1 5 9 0 16 -228856 -162280 0
;
#X obj 87 649 cnv 17 3 17 empty empty 2 5 9 0 16 -228856 -162280 0
;
#X obj 87 681 cnv 17 3 17 empty empty 3 5 9 0 16 -228856 -162280 0
;
#X obj 87 702 cnv 17 3 17 empty empty 4 5 9 0 16 -228856 -162280 0
;
#X obj 87 724 cnv 17 3 17 empty empty 5 5 9 0 16 -228856 -162280 0
;
#X obj 87 581 cnv 17 3 17 empty empty 0 5 9 0 16 -228856 -162280 0
;
#X obj 70 365 cyclone/midiformat 5, f 26;
#X text 14 71 construct midi messages;
#X obj 2 2 cyclone/fancy/cyheader;
#X obj 2 1022 cnv 1 550 1 empty empty empty 0 0 0 4 -262144 -262144
0;
#X obj 2 1001 cnv 15 552 21 empty empty empty 20 12 0 14 -233017 -33289
0;
#N canvas 473 103 373 443 META 0;
#X text 1 18 LICENSE SIBSD;
#X text 1 198 LIBRARY cyclone;
#X text 1 54 INLET_0 message;
#X text 1 72 INLET_1 message;
#X text 1 90 INLET_2 message;
#X text 1 108 INLET_3 float;
#X text 1 126 INLET_4 float;
#X text 1 162 INLET_6 float;
#X text 1 144 INLET_5 float;
#X text 1 180 OUTLET_0 midi message;
#X text 1 36 DESCRIPTION de/construct midi messages;
#X text 1 0 KEYWORDS midi messages construct format;
#X text 0 216 VERSION 0.2-beta1;
#X text 0 234 AUTHOR Krzysztof Czaja;
#X text 1 252 RELEASE_DATE 2002;
#X text 2 271 WEBSITE http://suita.chopin.edu.pl/~czaja/miXed/externs/cyclone.html
;
#X text 2 303 HELP_PATCH_AUTHORS Christoph Kummerer. Revised by Jonathan
Wilkes for Pd-extended 0.42 to conform to the PDDP template. Alex Cleveland
updated this patch for Pd-l2ork version 2013.05.28. Fred Jan Kraan
adapted the patch to pd-extended 2015-02-02. Esteban Viveros updated
this patch for Pd-Vanilla 0.47-2.;
#X restore 506 1003 pd META;
#N canvas 311 144 605 75 Related_objects 0;
#X obj 2 2 cnv 15 600 20 empty empty empty 3 12 0 14 -204280 -1 0;
#X text 8 3 Related Objects;
#X obj 121 28 cyclone/Borax;
#X obj 11 28 midiout;
#X obj 210 28 cyclone/midiparse;
#X obj 66 28 noteout;
#X obj 424 28 cyclone/xbendout;
#X obj 324 28 cyclone/xbendin;
#X restore 212 1003 pd Related_objects;
#X obj 24 100 cyclone/comment 456 10 monaco ? 0 80 80 80 Numbers received
in the inlets are used as data for MIDI messages. The data is formated
into a complete MIDI message (with status byte determined by the inlet)
and sent out the outlet as individual bytes;
#X obj 103 161 cyclone/comment 100 11 helvetica ? 0 80 80 80 Note on
;
#X obj 137 211 cyclone/comment 285 11 helvetica ? 0 80 80 80 Polyphonic
(Key) Aftetoutch <pitch \, pressure>;
#X obj 160 251 cyclone/comment 237 11 helvetica ? 0 80 80 80 Control
Change <controller \, value>;
#X obj 181 284 cyclone/comment 100 11 helvetica ? 0 80 80 80 Program
Change;
#X obj 207 306 cyclone/comment 100 11 helvetica ? 0 80 80 80 Channel
Aftertouch;
#X obj 233 326 cyclone/comment 100 11 helvetica ? 0 80 80 80 Pitch
Bend;
#X obj 259 347 cyclone/comment 100 11 helvetica ? 0 80 80 80 Channel
;
#X obj 467 545 cnv 12 73 19 empty empty empty 0 0 0 18 -257983 -1 0
;
#N canvas 354 95 465 315 Examples 0;
#X obj 2 2 cnv 15 460 40 empty empty midiformat 3 12 0 18 -204280 -1
0;
#X obj 2 291 cnv 15 460 21 empty empty empty 20 12 0 14 -233017 -33289
0;
#X text 69 25 examples;
#N canvas 499 150 373 97 credits 0;
#X text 105 31 From Max 7 Documentation., f 28;
#X restore 381 293 pd credits;
#X obj 34 90 makenote 127 250;
#X obj 34 111 pack;
#X obj 34 143 midiformat;
#X obj 34 175 seq;
#X obj 252 80 vsl 28 45 0 127 0 0 empty empty empty 0 -9 0 10 -216373
-1 -1 0 1;
#X obj 316 78 tgl 22 0 empty empty empty 17 7 0 10 -216373 -1 -1 0
1;
#X obj 308 60 cyclone/comment 100 11 helvetica ? 0 80 80 80 mod/bend
;
#X obj 252 170 pack f f;
#X obj 252 193 route 0 1, f 13;
#X obj 252 145 swap;
#X obj 254 246 cyclone/midiformat;
#X msg 289 218 1 \$1;
#X obj 314 164 cyclone/comment 87 11 helvetica ? 0 80 80 80 use as
either mod or pitchbend data;
#X connect 4 0 5 0;
#X connect 5 0 6 0;
#X connect 6 0 7 0;
#X connect 8 0 13 0;
#X connect 9 0 13 1;
#X connect 11 0 12 0;
#X connect 12 1 15 0;
#X connect 12 2 14 5;
#X connect 13 0 11 0;
#X connect 13 1 11 1;
#X connect 15 0 14 2;
#X restore 467 545 pd Examples;
#X obj 113 180 cyclone/comment 100 11 helvetica ? 0 80 80 80 Note off
;
#X msg 69 179 88 0;
#X msg 130 257 1 0;
#X msg 111 238 1 127;
#X obj 293 404 thresh;
#X obj 78 404 print midibyte;
#X obj 175 403 cyclone/comment 63 11 helvetica ? 0 80 80 80 One byte
is 256 values;
#X obj 293 441 prepend set;
#X msg 293 463 148 88 0;
#X obj 122 491 cyclone/comment 237 11 helvetica ? 0 80 80 80 <---;
#X obj 144 492 cyclone/comment 100 11 helvetica ? 0 80 80 80 output
of midiformat typically goes out to midiout;
#X obj 349 383 cyclone/comment 110 11 helvetica ? 0 80 80 80 combine
bytes into list to show how a series of separate messages work together
in MIDI;
#X obj 362 464 cyclone/comment 119 11 helvetica ? 0 80 80 80 first
number in series is the status byte \, which combines inlet (type of
message) with channel to make one number;
#X obj 90 431 cyclone/comment 25 11 helvetica ? 0 80 80 80 --;
#X obj 89 428 cyclone/comment 25 11 helvetica ? 0 80 80 80 |;
#X obj 87 422 cyclone/comment 25 11 helvetica ? 0 80 80 80 ^;
#X obj 99 428 cyclone/comment 79 11 helvetica ? 0 80 80 80 see results
of print object in Pd main window;
#X text 158 682 -;
#X text 118 682 float;
#X text 158 704 -;
#X text 118 704 float;
#X text 158 726 -;
#X text 118 726 float;
#X text 158 748 -;
#X text 118 748 float;
#X text 173 682 program change message, f 60;
#X text 173 704 aftertouch, f 60;
#X text 173 726 pitch bend, f 60;
#X text 173 748 channel number (wraps like n.16), f 60;
#X text 158 581 -;
#X text 107 581 message;
#X text 173 581 "pitch velocity":;
#X text 158 614 -;
#X text 107 614 message;
#X text 287 581 pitch/velocity integer pairs make note on/off messages
, f 41;
#X text 173 614 "aftertouch pitch":;
#X text 299 614 aftertouch/pitch integer pairs make poly aftertouch
messages, f 39;
#X text 158 648 -;
#X text 107 648 message;
#X text 173 648 "controllerValue controllerNr":;
#X text 371 648 this pair of integer make control messages, f 27;
#X text 158 795 -;
#X text 118 795 float;
#X text 173 795 MIDI messages are sent out as individual bytes \, for
recording by the seq object or for transmission by the midiout object.
, f 60;
#X text 169 875 -;
#X text 92 875 1) float;
#X obj 2 911 cnv 3 550 3 empty empty more_info 8 12 0 13 -228856 -1
0;
#X text 182 875 channel number (optional), f 58;
#X text 110 930 From Max 7 Cycling 74 implemented a right outlet which
output midi format for use with vst~ object \, not implemented in Cyclone
yet.;
#X connect 6 0 20 0;
#X connect 8 0 20 1;
#X connect 9 0 20 3;
#X connect 10 0 20 4;
#X connect 11 0 20 5;
#X connect 12 0 20 6;
#X connect 20 0 7 0;
#X connect 20 0 42 0;
#X connect 20 0 41 0;
#X connect 38 0 20 0;
#X connect 39 0 20 2;
#X connect 40 0 20 2;
#X connect 41 0 44 0;
#X connect 44 0 45 0;
