#N canvas 350 27 572 485 10;
#X obj 2 349 cnv 3 550 3 empty empty inlets 8 12 0 13 -228856 -1 0
;
#X obj 2 476 cnv 3 550 3 empty empty outlets 8 12 0 13 -228856 -1 0
;
#X obj 2 523 cnv 3 550 3 empty empty arguments 8 12 0 13 -228856 -1
0;
#X obj 83 358 cnv 17 3 68 empty empty 0 5 9 0 16 -228856 -162280 0
;
#X obj 83 439 cnv 17 3 17 empty empty 1 5 9 0 16 -228856 -162280 0
;
#X obj 2 45 cnv 10 552 48 empty empty minimum 4 14 0 18 -204280 -1
0;
#X obj 83 486 cnv 17 3 17 empty empty 0 5 9 0 16 -228856 -162280 0
;
#X obj 494 53 minimum;
#X text 14 72 output the smallest in a list of numbers;
#X obj 2 2 cyclone/fancy/cyheader;
#X obj 2 606 cnv 1 550 1 empty empty empty 0 0 0 4 -262144 -262144
0;
#X obj 2 585 cnv 15 552 21 empty empty empty 20 12 0 14 -233017 -33289
0;
#N canvas 457 99 382 347 META 0;
#X text 0 20 LICENSE SIBSD;
#X text 0 120 LIBRARY cyclone;
#X text 0 80 INLET_1 float;
#X text 0 60 INLET_0 list bang float;
#X text 0 100 OUTLET_0 float;
#X text 0 0 KEYWORDS min minimum least smallest list;
#X text 0 40 DESCRIPTION output the smallest in a list of numbers;
#X text 0 140 VERSION 0.2-beta1;
#X text 0 158 AUTHOR Krzysztof Czaja;
#X text 1 176 RELEASE_DATE 2002;
#X text 2 195 WEBSITE http://suita.chopin.edu.pl/~czaja/miXed/externs/cyclone.html
;
#X text 2 227 HELP_PATCH_AUTHORS Christoph Kummerer. Revised by Jonathan
Wilkes for Pd-extended 0.42 to conform to the PDDP template. Alex Cleveland
updated this patch for Pd-l2ork version 2013.05.28. Fred Jan Kraan
adapted the patch to pd-extended 2015-02-02. Esteban Viveros updated
this patch for Pd-Vanilla 0.47-2.;
#X restore 507 587 pd META;
#N canvas 293 142 430 76 Related_objects 0;
#X obj 2 2 cnv 15 425 20 empty empty empty 3 12 0 14 -204280 -1 0;
#X text 8 3 Related Objects;
#X obj 150 33 cyclone/trough;
#X obj 16 33 <;
#X obj 47 33 cyclone/maximum;
#X restore 206 587 pd Related_objects;
#X floatatom 34 287 8 0 0 0 - - -, f 8;
#X floatatom 34 208 8 0 0 0 - - -, f 8;
#X floatatom 133 208 8 0 0 0 - - -, f 8;
#X obj 34 304 bng 15 250 50 0 empty empty empty 17 7 0 10 -262144 -1
-1;
#X floatatom 345 254 5 0 0 0 - - -, f 5;
#X obj 345 271 bng 15 250 50 0 empty empty empty 17 7 0 10 -262144
-1 -1;
#X msg 345 154 5 7 9 8 6 4;
#X obj 133 144 vsl 24 55 0 127 0 0 empty empty empty 0 -9 0 10 -216373
-1 -1 0 1;
#X obj 34 144 vsl 24 55 0 127 0 0 empty empty empty 0 -9 0 10 -216373
-1 -1 0 1;
#X obj 162 139 cyclone/comment 89 11 helvetica ? 0 80 80 80 change
the current minimum value;
#X obj 30 110 cyclone/comment 96 10 monaco ? 0 80 80 80 comparing floats
;
#X obj 335 120 cyclone/comment 195 10 monaco ? 0 80 80 80 comparing
floats in a list;
#X obj 151 249 cyclone/comment 100 11 helvetica ? 0 80 80 80 optional
argument sets initial minimum;
#X obj 465 324 cnv 12 73 19 empty empty empty 0 0 0 18 -257983 -1 0
;
#N canvas 252 95 585 356 Examples 0;
#X obj 2 2 cnv 15 580 40 empty empty minimum 3 12 0 18 -204280 -1 0
;
#X obj 2 331 cnv 15 580 21 empty empty empty 20 12 0 14 -233017 -33289
0;
#X text 39 24 examples;
#N canvas 440 304 400 122 credits 0;
#X text 82 32 Examples based on Max 7 Documentation;
#X restore 501 333 pd credits;
#X msg 55 115 30 89 77 21;
#X floatatom 43 269 5 0 0 0 - - -, f 5;
#X obj 147 209 cyclone/comment 112 11 helvetica ? 0 80 80 80 in a list
compare mode \, the current minimum value is not used;
#X obj 43 285 bng 15 250 50 0 empty empty empty 17 7 0 10 -262144 -1
-1;
#X msg 62 140 12 78 64 22 12 64;
#X obj 31 62 cyclone/comment 164 11 helvetica ? 0 80 80 80 numbers
in a list are compared with each other \, not with the stored value
;
#X msg 363 115 bang;
#X msg 337 81 12 78 64 22 12 64;
#X obj 441 179 cyclone/comment 112 11 helvetica ? 0 80 80 80 the second
smallest value (22) becomes the new stored value;
#X obj 398 119 cyclone/comment 57 11 helvetica ? 0 80 80 80 repeat
last operation;
#X obj 363 236 print maximum output;
#X obj 396 266 cyclone/comment 74 11 helvetica ? 0 80 80 80 see results
of print object in Pd window;
#X obj 377 265 cyclone/comment 25 11 helvetica ? 0 80 80 80 ----;
#X obj 376 262 cyclone/comment 25 11 helvetica ? 0 80 80 80 |;
#X obj 374 256 cyclone/comment 25 11 helvetica ? 0 80 80 80 ^;
#X obj 363 158 cyclone/minimum 3;
#X obj 43 197 cyclone/minimum;
#X connect 4 0 20 0;
#X connect 5 0 7 0;
#X connect 8 0 20 0;
#X connect 10 0 19 0;
#X connect 11 0 19 0;
#X connect 19 0 14 0;
#X connect 20 0 5 0;
#X restore 465 324 pd Examples;
#X obj 445 203 cyclone/comment 80 11 helvetica ? 0 80 80 80 finds the
minimum in a list of numbers;
#X obj 422 159 cyclone/comment 80 11 helvetica ? 0 80 80 80 <--- Click
here;
#X obj 345 199 cyclone/minimum;
#X obj 34 241 cyclone/minimum 5;
#X text 158 360 -;
#X text 125 360 bang;
#X text 158 381 -;
#X text 118 381 float;
#X text 158 413 -;
#X text 124 413 list;
#X text 173 413 list of numbers. the minimum value is send, f 60;
#X text 173 360 send most recent output again, f 60;
#X text 173 381 output if lower than current value \, otherwise output
current minimum value;
#X text 158 440 -;
#X text 118 440 float;
#X text 173 440 set current minimum value;
#X text 158 487 -;
#X text 118 487 float;
#X text 173 487 the stored minimum value;
#X text 158 541 -;
#X text 100 541 1) float;
#X text 172 541 initial minimum to compare to left outlet, f 60;
#X connect 14 0 17 0;
#X connect 15 0 32 0;
#X connect 16 0 32 1;
#X connect 18 0 19 0;
#X connect 20 0 31 0;
#X connect 21 0 16 0;
#X connect 22 0 15 0;
#X connect 31 0 18 0;
#X connect 32 0 14 0;
