#N canvas 230 23 562 508 10;
#X declare -stdlib cyclone/cyclone;
#X obj 6 466 cnv 15 552 21 empty empty empty 20 12 0 14 -233017 -33289
0;
#X obj 6 385 cnv 3 550 3 empty empty outlets 8 12 0 13 -228856 -1 0
;
#X obj 6 423 cnv 3 550 3 empty empty arguments 8 12 0 13 -228856 -1
0;
#X obj 81 397 cnv 17 3 17 empty empty 0 5 9 0 16 -228856 -162280 0
;
#N canvas 502 391 401 260 META 0;
#X text 0 22 LICENSE SIBSD;
#X text 0 102 LIBRARY cyclone;
#X text 0 62 INLET_0 signal;
#X text 0 82 OUTLET_0 signal;
#X text 0 42 DESCRIPTION takes the arc tangent function for signals
;
#X text 0 0 KEYWORDS arc tangent arctangent arctan atan signal;
#X text 0 123 VERSION 0.2-beta1;
#X text 0 141 AUTHOR Krzysztof Czaja;
#X text 1 159 RELEASE_DATE 2002;
#X text 2 178 WEBSITE http://suita.chopin.edu.pl/~czaja/miXed/externs/cyclone.html
;
#X text 2 210 HELP_PATCH_AUTHORS Christoph Kummerer. Revised by Jonathan
Wilkes for Pd-extended 0.42 to conform to the PDDP template. Alex Cleveland
updated this patch for Pd-l2ork version 2013.05.28. Fred Jan Kraan
adapted the patch to pd-extended 2015-02-02;
#X restore 509 468 pd META;
#N canvas 232 526 441 120 Related_objects 0;
#X obj 0 0 cnv 15 425 20 empty empty empty 3 12 0 14 -204280 -1 0;
#X text 6 1 Related Objects;
#X restore 197 468 pd Related_objects;
#X obj 81 329 cnv 17 3 17 empty empty 0 5 9 0 16 -228856 -162280 0
;
#X obj 6 315 cnv 3 550 3 empty empty inlets 8 12 0 13 -228856 -1 0
;
#X obj 81 351 cnv 17 3 17 empty empty 1 5 9 0 16 -228856 -162280 0
;
#X text 103 353 float/signal;
#X obj 81 329 cnv 17 3 17 empty empty 0 5 9 0 16 -228856 -162280 0
;
#X text 108 437 1) float -;
#X obj 270 246 cyclone/snapshot~ 1;
#X obj 60 242 cyclone/snapshot~ 1;
#X text 139 328 signal;
#X obj 2 4 cnv 15 553 42 empty empty empty 20 12 0 14 -233017 -66577
0;
#N canvas 0 22 450 278 (subpatch) 0;
#X coords 0 1 100 -1 554 42 1 0 0;
#X restore 2 3 graph;
#X obj 305 4 cnv 15 250 40 empty empty empty 12 13 0 18 -128992 -233080
0;
#N canvas 382 141 749 319 (subpatch) 0;
#X coords 0 -1 1 1 252 42 2 100 100;
#X restore 304 3 pd;
#X obj 322 28 comment 0 13 courier ? 0 224 228 220 Objects cloned from
Max/MSP;
#X obj 363 4 comment 0 24 courier ? 0 224 228 220 cyclone;
#X obj 44 8 comment 0 37 times ? 0 0 0 0 ~;
#X obj 17 56 comment 0 18 times ? 0 0 0 0 Modulo for signals;
#X obj 15 10 comment 0 30 helvetica ? 0 0 0 0 %;
#X text 76 91 [modulo~] or [%~] is a signal remainder operator. The
left signal is divided by the right inlet input (or argument) \, and
the remainder is output.;
#X text 194 327 - input to modulo operation;
#X text 194 352 - a value by which to divide the incomming signal;
#X text 194 398 - the modulo of the operation (remainder of the division)
;
#X text 139 397 signal;
#X text 178 437 a value by which to divide the incomming signal (default
0);
#X obj 270 213 %~ 10;
#X obj 60 164 nbx 5 14 -1e+37 1e+37 0 0 empty empty empty 0 -8 0 10
-228856 -1 -1 0 256;
#X obj 159 164 nbx 5 14 -1e+37 1e+37 0 0 empty empty empty 0 -8 0 10
-228856 -1 -1 0 256;
#X obj 313 162 nbx 5 14 -1e+37 1e+37 0 0 empty empty empty 0 -8 0 10
-228856 -1 -1 0 256;
#X obj 246 162 nbx 5 14 -1e+37 1e+37 0 0 empty empty empty 0 -8 0 10
-228856 -1 -1 0 256;
#X obj 270 185 sig~;
#X obj 60 185 sig~;
#X obj 60 271 nbx 8 14 -1e+37 1e+37 0 0 empty empty empty 0 -8 0 10
-228856 -1 -1 0 256;
#X obj 270 274 nbx 8 14 -1e+37 1e+37 0 0 empty empty empty 0 -8 0 10
-228856 -1 -1 0 256;
#X obj 60 214 cyclone/modulo~ 8;
#N canvas 207 34 366 264 (subpatch) 0;
#X obj 51 101 tgl 42 0 \$0-tgl-s \$0-tgl-r empty 1 8 1 9 -228856 -128992
-262144 0 1;
#X obj 215 68 route dsp;
#X obj 215 37 receive pd;
#N canvas 977 77 379 291 set_color 0;
#X obj 47 30 inlet;
#X obj 147 200 s \$0-cnv;
#X obj 47 83 select 0 1;
#X obj 47 220 s \$0-tgl-r;
#N canvas 0 22 712 637 off 0;
#X obj 490 220 * -1;
#X obj 424 300 +;
#X obj 409 325 +;
#X obj 347 219 * -65536;
#X obj 424 220 * -256;
#X obj 409 356 - 1;
#X obj 390 189 unpack f f f;
#X obj 225 295 +;
#X obj 210 320 +;
#X obj 148 214 * -65536;
#X obj 225 215 * -256;
#X obj 291 215 * -1;
#X obj 210 351 - 1;
#X obj 191 184 unpack f f f;
#X obj 379 423 pack;
#X msg 395 152 124 124 124;
#X msg 203 154 220 220 220;
#X obj 238 121 t b b;
#X obj 238 81 inlet;
#X obj 378 485 outlet;
#X connect 0 0 1 1;
#X connect 1 0 2 1;
#X connect 2 0 5 0;
#X connect 3 0 2 0;
#X connect 4 0 1 0;
#X connect 5 0 14 1;
#X connect 6 0 3 0;
#X connect 6 1 4 0;
#X connect 6 2 0 0;
#X connect 7 0 8 1;
#X connect 8 0 12 0;
#X connect 9 0 8 0;
#X connect 10 0 7 0;
#X connect 11 0 7 1;
#X connect 12 0 14 0;
#X connect 13 0 9 0;
#X connect 13 1 10 0;
#X connect 13 2 11 0;
#X connect 14 0 19 0;
#X connect 15 0 6 0;
#X connect 16 0 13 0;
#X connect 17 0 16 0;
#X connect 17 1 15 0;
#X connect 18 0 17 0;
#X restore 47 113 pd off;
#X msg 47 180 color \$1 \$2 0;
#X msg 147 131 -4.86997e+06 -1.34937e+07;
#X msg 147 171 color \$1 0 \$2;
#X connect 0 0 2 0;
#X connect 2 0 4 0;
#X connect 2 1 6 0;
#X connect 4 0 5 0;
#X connect 4 0 7 0;
#X connect 5 0 3 0;
#X connect 6 0 7 0;
#X connect 6 0 5 0;
#X connect 7 0 1 0;
#X restore 215 165 pd set_color;
#X obj 135 122 r \$0-tgl-s;
#N canvas 121 482 450 300 (subpatch) 0;
#X obj 101 101 cnv 25 40 25 empty \$0-cnv DSP 3 13 0 20 -228856 -128992
0;
#X coords 0 -1 1 1 42 27 1 100 100;
#X restore 51 144 pd;
#X obj 226 139 s \$0-tgl-r;
#X msg 226 115 set \$1;
#X msg 135 177 \; pd dsp \$1;
#N canvas 256 32 278 194 load_check 0;
#X obj 136 53 sig~ 1;
#X obj 74 24 loadbang;
#X obj 136 86 snapshot~;
#X obj 91 52 del 5;
#X obj 136 151 outlet;
#X obj 74 103 tgl 15 0 empty empty empty 17 7 0 10 -262144 -1 -1 0
1;
#X obj 74 126 switch~;
#X connect 0 0 2 0;
#X connect 1 0 3 0;
#X connect 1 0 5 0;
#X connect 2 0 4 0;
#X connect 3 0 2 0;
#X connect 3 0 5 0;
#X connect 5 0 6 0;
#X restore 51 72 pd load_check;
#X connect 1 0 3 0;
#X connect 1 0 7 0;
#X connect 2 0 1 0;
#X connect 4 0 8 0;
#X connect 4 0 3 0;
#X connect 7 0 6 0;
#X connect 9 0 0 0;
#X coords 0 -1 1 1 44 72 2 50 100;
#X restore 504 71 pd;
#N canvas 724 142 478 298 cyclone_sub_library 0;
#X obj 209 99 declare -stdlib cyclone/cyclone;
#X text 63 206 More about the cyclone sub-library;
#X text 66 136 If you need more details in installing cyclone \, check:
https://github.com/porres/pd-cyclone/wiki/How-To-Install;
#X obj 283 206 cyclone-help;
#X text 58 51 [modulo~] is a single binary in cyclone \, but [%~] is
from the cyclone "sub-library" \, loaded via startup or with [declare]
like this:;
#X restore 407 277 pd cyclone_sub_library;
#X connect 12 0 38 0;
#X connect 13 0 37 0;
#X connect 30 0 12 0;
#X connect 31 0 36 0;
#X connect 32 0 39 1;
#X connect 33 0 30 1;
#X connect 34 0 35 0;
#X connect 35 0 30 0;
#X connect 36 0 39 0;
#X connect 39 0 13 0;
