#N canvas 393 28 572 464 10;
#X obj 4 352 cnv 3 550 3 empty empty inlets 8 12 0 13 -228856 -1 0
;
#X obj 2 464 cnv 3 550 3 empty empty outlets 8 12 0 13 -228856 -1 0
;
#X obj 2 525 cnv 3 550 3 empty empty arguments 8 12 0 13 -228856 -1
0;
#X obj 82 361 cnv 17 3 90 empty empty 0 5 9 0 16 -228856 -162280 0
;
#X obj 80 475 cnv 17 3 40 empty empty 0 5 9 0 16 -228856 -162280 0
;
#X obj 2 45 cnv 15 552 48 empty empty mousefilter 4 14 0 18 -204280
-1 0;
#X obj 466 55 mousefilter;
#X text 14 71 passes numbers only when mousebutton is up;
#X floatatom 305 194 5 0 0 0 - - -, f 5;
#X floatatom 236 284 5 0 0 0 - - -, f 5;
#X obj 215 304 print;
#X text 112 544 (none);
#X obj 215 228 cyclone/mousefilter;
#X obj 215 113 tgl 20 0 empty empty empty 17 7 0 10 -216373 -1 -1 0
1;
#X obj 215 177 f;
#X obj 240 177 + 1;
#X obj 215 153 metro 1000;
#X obj 2 2 cyclone/fancy/cyheader;
#X obj 2 595 cnv 1 550 1 empty empty empty 0 0 0 4 -262144 -262144
0;
#X obj 2 574 cnv 15 552 21 empty empty empty 20 12 0 14 -233017 -33289
0;
#N canvas 489 104 369 350 META 0;
#X text 0 20 LICENSE SIBSD;
#X text 0 100 LIBRARY cyclone;
#X text 0 0 KEYWORDS mouse mousebutton pass filter;
#X text 0 40 DESCRIPTION passes numbers only when mousebutton is up
;
#X text 0 60 INLET_0 float list;
#X text 0 80 OUTLET_0 float;
#X text 0 120 VERSION 0.2-beta1;
#X text 0 138 AUTHOR Krzysztof Czaja;
#X text 1 156 RELEASE_DATE 2002;
#X text 2 175 WEBSITE http://suita.chopin.edu.pl/~czaja/miXed/externs/cyclone.html
;
#X text 2 207 HELP_PATCH_AUTHORS Christoph Kummerer. Revised by Jonathan
Wilkes for Pd-extended 0.42 to conform to the PDDP template. Alex Cleveland
updated this patch for Pd-l2ork version 2013.05.28. Fred Jan Kraan
adapted the patch to pd-extended 2015-02-02. Esteban Viveros updated
this patch for Pd-Vanilla 0.47-2.;
#X restore 502 576 pd META;
#N canvas 339 145 430 70 Related_objects 0;
#X obj 2 2 cnv 15 425 20 empty empty empty 3 12 0 14 -204280 -1 0;
#X text 8 3 Related Objects;
#X obj 12 30 cyclone/mousestate;
#X restore 224 576 pd Related_objects;
#X obj 305 115 vsl 22 65 0 127 0 0 empty empty empty 0 -9 0 10 -216373
-1 -1 0 1;
#X obj 254 306 cyclone/comment 25 11 helvetica ? 0 80 80 80 <---;
#X obj 465 324 cnv 12 73 19 empty empty empty 0 0 0 18 -257983 -1 0
;
#N canvas 265 96 585 334 Examples 0;
#X obj 2 2 cnv 15 580 40 empty empty maximum 3 12 0 18 -204280 -1 0
;
#X obj 2 310 cnv 15 580 21 empty empty empty 20 12 0 14 -233017 -33289
0;
#X text 39 24 examples;
#N canvas 440 304 400 122 credits 0;
#X text 54 28 Examples based on Max 7 Documentation and on the last
old cyclone help maximum-help., f 48;
#X restore 501 312 pd credits;
#X obj 111 135 cyclone/comment 164 11 helvetica ? 0 80 80 80 see all
numbers \,;
#X obj 357 63 tgl 22 0 empty empty empty 17 7 0 10 -216373 -1 -1 0
1;
#X obj 357 100 metro 60;
#X obj 357 155 cyclone/mousefilter;
#X obj 357 191 makenote 32 60;
#N canvas 638 210 405 345 polysynth 0;
#X obj 121 60 inlet;
#X obj 2 2 cnv 15 400 20 empty empty empty 3 12 0 14 -204280 -1 0;
#X obj 342 31 loadbang;
#X msg 342 53 \; pd dsp 1;
#X obj 121 102 poly 6 1;
#N canvas 667 245 390 355 synth 0;
#X obj 2 2 cnv 15 385 20 empty empty empty 3 12 0 14 -204280 -1 0;
#X obj 199 228 / 127;
#X obj 81 245 *~;
#X obj 81 267 *~ 0.2;
#X obj 81 204 phasor~;
#X obj 81 162 mtof;
#X obj 81 61 inlet;
#X obj 163 123 cyclone/comment 179 11 helvetica ? 0 80 80 80 (voice
number / pitch / velocity);
#X obj 21 34 cyclone/comment 350 11 helvetica ? 0 80 80 80 It is a
simple sawtooth wave oscillator synth;
#X text 8 3 Simple synth;
#X obj 81 314 outlet~;
#X obj 81 122 unpack f f;
#X connect 1 0 2 1;
#X connect 2 0 3 0;
#X connect 3 0 10 0;
#X connect 4 0 2 0;
#X connect 5 0 4 0;
#X connect 6 0 11 0;
#X connect 11 0 5 0;
#X connect 11 1 1 0;
#X restore 34 209 pd synth;
#X obj 115 134 pack f f f;
#X obj 95 166 route 1 2 3 4 5 6, f 38;
#N canvas 665 236 390 355 synth 0;
#X obj 2 2 cnv 15 385 20 empty empty empty 3 12 0 14 -204280 -1 0;
#X obj 199 228 / 127;
#X obj 81 245 *~;
#X obj 81 267 *~ 0.2;
#X obj 81 204 phasor~;
#X obj 81 162 mtof;
#X obj 81 61 inlet;
#X obj 163 123 cyclone/comment 179 11 helvetica ? 0 80 80 80 (voice
number / pitch / velocity);
#X obj 21 34 cyclone/comment 350 11 helvetica ? 0 80 80 80 It is a
simple sawtooth wave oscillator synth;
#X text 8 3 Simple synth;
#X obj 81 314 outlet~;
#X obj 81 122 unpack f f;
#X connect 1 0 2 1;
#X connect 2 0 3 0;
#X connect 3 0 10 0;
#X connect 4 0 2 0;
#X connect 5 0 4 0;
#X connect 6 0 11 0;
#X connect 11 0 5 0;
#X connect 11 1 1 0;
#X restore 94 209 pd synth;
#N canvas 668 260 390 355 synth 0;
#X obj 2 2 cnv 15 385 20 empty empty empty 3 12 0 14 -204280 -1 0;
#X obj 199 228 / 127;
#X obj 81 245 *~;
#X obj 81 267 *~ 0.2;
#X obj 81 204 phasor~;
#X obj 81 162 mtof;
#X obj 81 61 inlet;
#X obj 163 123 cyclone/comment 179 11 helvetica ? 0 80 80 80 (voice
number / pitch / velocity);
#X obj 21 34 cyclone/comment 350 11 helvetica ? 0 80 80 80 It is a
simple sawtooth wave oscillator synth;
#X text 8 3 Simple synth;
#X obj 81 314 outlet~;
#X obj 81 122 unpack f f;
#X connect 1 0 2 1;
#X connect 2 0 3 0;
#X connect 3 0 10 0;
#X connect 4 0 2 0;
#X connect 5 0 4 0;
#X connect 6 0 11 0;
#X connect 11 0 5 0;
#X connect 11 1 1 0;
#X restore 154 209 pd synth;
#N canvas 659 256 390 355 synth 0;
#X obj 2 2 cnv 15 385 20 empty empty empty 3 12 0 14 -204280 -1 0;
#X obj 199 228 / 127;
#X obj 81 245 *~;
#X obj 81 267 *~ 0.2;
#X obj 81 204 phasor~;
#X obj 81 162 mtof;
#X obj 81 61 inlet;
#X obj 163 123 cyclone/comment 179 11 helvetica ? 0 80 80 80 (voice
number / pitch / velocity);
#X obj 21 34 cyclone/comment 350 11 helvetica ? 0 80 80 80 It is a
simple sawtooth wave oscillator synth;
#X text 8 3 Simple synth;
#X obj 81 314 outlet~;
#X obj 81 122 unpack f f;
#X connect 1 0 2 1;
#X connect 2 0 3 0;
#X connect 3 0 10 0;
#X connect 4 0 2 0;
#X connect 5 0 4 0;
#X connect 6 0 11 0;
#X connect 11 0 5 0;
#X connect 11 1 1 0;
#X restore 214 209 pd synth;
#N canvas 656 257 390 355 synth 0;
#X obj 2 2 cnv 15 385 20 empty empty empty 3 12 0 14 -204280 -1 0;
#X obj 199 228 / 127;
#X obj 81 245 *~;
#X obj 81 267 *~ 0.2;
#X obj 81 204 phasor~;
#X obj 81 162 mtof;
#X obj 81 61 inlet;
#X obj 163 123 cyclone/comment 179 11 helvetica ? 0 80 80 80 (voice
number / pitch / velocity);
#X obj 21 34 cyclone/comment 350 11 helvetica ? 0 80 80 80 It is a
simple sawtooth wave oscillator synth;
#X text 8 3 Simple synth;
#X obj 81 314 outlet~;
#X obj 81 122 unpack f f;
#X connect 1 0 2 1;
#X connect 2 0 3 0;
#X connect 3 0 10 0;
#X connect 4 0 2 0;
#X connect 5 0 4 0;
#X connect 6 0 11 0;
#X connect 11 0 5 0;
#X connect 11 1 1 0;
#X restore 274 209 pd synth;
#N canvas 662 257 390 355 synth 0;
#X obj 2 2 cnv 15 385 20 empty empty empty 3 12 0 14 -204280 -1 0;
#X obj 199 228 / 127;
#X obj 81 245 *~;
#X obj 81 267 *~ 0.2;
#X obj 81 204 phasor~;
#X obj 81 162 mtof;
#X obj 81 61 inlet;
#X obj 163 123 cyclone/comment 179 11 helvetica ? 0 80 80 80 (voice
number / pitch / velocity);
#X obj 21 34 cyclone/comment 350 11 helvetica ? 0 80 80 80 It is a
simple sawtooth wave oscillator synth;
#X text 8 3 Simple synth;
#X obj 81 314 outlet~;
#X obj 81 122 unpack f f;
#X connect 1 0 2 1;
#X connect 2 0 3 0;
#X connect 3 0 10 0;
#X connect 4 0 2 0;
#X connect 5 0 4 0;
#X connect 6 0 11 0;
#X connect 11 0 5 0;
#X connect 11 1 1 0;
#X restore 334 209 pd synth;
#X text 8 3 Simple polyphonic synth;
#X obj 35 31 cyclone/comment 147 11 helvetica ? 0 80 80 80 six voices
polyphonic synth;
#X obj 183 298 outlet~;
#X obj 186 131 cyclone/comment 200 11 helvetica ? 0 80 80 80 (voice
number / pitch / velocity);
#X connect 0 0 4 0;
#X connect 2 0 3 0;
#X connect 4 0 6 0;
#X connect 4 1 6 1;
#X connect 4 2 6 2;
#X connect 5 0 15 0;
#X connect 6 0 7 0;
#X connect 7 0 5 0;
#X connect 7 1 8 0;
#X connect 7 2 9 0;
#X connect 7 3 10 0;
#X connect 7 4 11 0;
#X connect 7 5 12 0;
#X connect 8 0 15 0;
#X connect 9 0 15 0;
#X connect 10 0 15 0;
#X connect 11 0 15 0;
#X connect 12 0 15 0;
#X restore 393 238 pd polysynth;
#X obj 372 262 dac~;
#X obj 393 217 pack f f;
#X obj 357 122 cyclone/drunk 127 6;
#X obj 389 64 cyclone/comment 164 11 helvetica ? 0 80 80 80 <--- click
to start sound;
#X obj 456 174 cyclone/comment 98 11 helvetica ? 0 80 80 80 keep mousebutton
pressed to stop sound;
#X obj 52 174 cyclone/mousefilter;
#X floatatom 52 144 5 0 0 0 - - -, f 5;
#X obj 52 65 vsl 26 52 0 127 0 0 empty empty empty 0 -9 0 10 -216373
-1 -1 0 1;
#X obj 52 123 i;
#X obj 72 209 pgmout 1;
#X obj 176 163 cyclone/comment 91 11 helvetica ? 0 80 80 80 but send
only one number when the mousebutton is released;
#X obj 87 87 cyclone/comment 164 11 helvetica ? 0 80 80 80 <--- drag
the slider;
#X obj 52 249 print pgmout 1;
#X obj 147 252 cyclone/comment 25 11 helvetica ? 0 80 80 80 <---;
#X obj 170 251 cyclone/comment 79 11 helvetica ? 0 80 80 80 see results
of print object in Pd main window;
#X connect 5 0 6 0;
#X connect 6 0 12 0;
#X connect 7 0 8 0;
#X connect 8 0 11 0;
#X connect 8 1 11 1;
#X connect 9 0 10 0;
#X connect 9 0 10 1;
#X connect 11 0 9 0;
#X connect 12 0 7 0;
#X connect 15 0 19 0;
#X connect 15 0 22 0;
#X connect 16 0 15 0;
#X connect 17 0 18 0;
#X connect 18 0 16 0;
#X restore 465 324 pd Examples;
#X obj 277 306 cyclone/comment 79 11 helvetica ? 0 80 80 80 see results
of print object in Pd main window;
#X text 158 414 -;
#X text 118 414 float;
#X text 158 435 -;
#X text 124 435 list;
#X text 173 414 number to pass, f 60;
#X text 173 435 list of numbers to pass, f 60;
#X text 158 477 -;
#X text 118 477 float;
#X text 173 477 numbers passed from inlet if mousebutton is up. This
means only the end value of a number or slider change is send, f 60
;
#X text 158 393 -;
#X text 125 393 bang;
#X text 173 393 repeats the stored value, f 60;
#X text 158 361 -;
#X text 100 361 anything;
#X text 173 361 if the mouse button is up \, the data is send out \,
otherwise is ignored, f 60;
#X connect 8 0 12 0;
#X connect 12 0 9 0;
#X connect 12 0 10 0;
#X connect 13 0 16 0;
#X connect 14 0 15 0;
#X connect 14 0 12 0;
#X connect 15 0 14 1;
#X connect 16 0 14 0;
#X connect 22 0 8 0;
