#N canvas 504 23 566 651 10;
#X obj 7 597 cnv 15 552 21 empty empty empty 20 12 0 14 -233017 -33289
0;
#X obj 7 458 cnv 3 550 3 empty empty inlets 8 12 0 13 -228856 -1 0
;
#N canvas 618 257 359 239 META 0;
#X text 0 20 LICENSE SIBSD;
#X text 0 120 LIBRARY cyclone;
#X text 0 80 OUTLET_0 signal;
#X text 0 100 OUTLET_1 float;
#X text 0 60 INLET_0 float signal;
#X text 0 40 DESCRIPTION convert milliseconds to number of samples
;
#X text 0 0 KEYWORDS signal sample samples milliseconds seconds;
#X text 1 141 VERSION 0.2-beta1;
#X text 1 159 AUTHOR Krzysztof Czaja;
#X text 2 177 RELEASE_DATE 2002;
#X text 3 196 WEBSITE http://suita.chopin.edu.pl/~czaja/miXed/externs/cyclone.html
;
#X text 3 228 HELP_PATCH_AUTHORS Christoph Kummerer. Revised by Jonathan
Wilkes for Pd-extended 0.42 to conform to the PDDP template. Alex Cleveland
updated this patch for Pd-l2ork version 2013.05.28. Fred Jan Kraan
adapted the patch to pd-extended 2015-02-02;
#X restore 510 599 pd META;
#X obj 7 502 cnv 3 550 3 empty empty outlets 8 12 0 13 -228856 -1 0
;
#X obj 7 559 cnv 3 550 3 empty empty arguments 8 12 0 13 -228856 -1
0;
#N canvas 319 385 428 109 Related_objects 0;
#X obj 0 0 cnv 15 425 20 empty empty empty 3 12 0 14 -204280 -1 0;
#X text 6 1 Related Objects;
#X restore 212 599 pd Related_objects;
#X obj 86 469 cnv 17 3 17 empty empty 0 5 9 0 16 -228856 -162280 0
;
#X obj 88 511 cnv 17 3 17 empty empty 0 5 9 0 16 -228856 -162280 0
;
#X obj 7 39 cnv 15 552 40 empty empty mstosamps~ 3 12 0 18 -204280
-1 0;
#X obj 486 45 mstosamps~;
#X msg 316 258 0 \, 1000 3000;
#X floatatom 316 411 0 0 0 0 - - -;
#X floatatom 219 395 0 0 0 0 - - -;
#X floatatom 114 292 0 0 0 0 - - -;
#X text 370 412 number of samples;
#X text 119 512 signal;
#X text 118 571 (none);
#X text 119 533 float;
#X obj 88 533 cnv 17 3 17 empty empty 1 5 9 0 16 -228856 -162280 0
;
#X text 19 62 Convert milliseconds to number of samples;
#X obj 114 328 cyclone/mstosamps~;
#X obj 316 338 cyclone/mstosamps~;
#X obj 316 389 cyclone/Snapshot~ 100;
#X obj 316 288 cyclone/Line~;
#X text 86 95 Use the [mstosamps~] object to convert an incoming signal
carrying a millisecond value and output a signal which converts those
millisecond values to a number of samples (at the current sampling
rate).;
#X text 119 468 float/signal;
#X text 216 468 - time in milliseconds;
#X floatatom 114 395 0 0 0 0 - - -;
#X obj 114 356 cyclone/Snapshot~ 100;
#X floatatom 421 363 0 0 0 0 - - -;
#X text 110 268 float input;
#X text 312 233 signal input;
#X text 87 159 [mstosamps~] works with floats and signal. A signal
input wil converto only to the signal outlet \, but a float input converts
to both float and signal output. When a signal input is present \,
the float input is ignored.;
#X text 122 419 number of samples;
#X text 146 293 ms;
#X text 332 314 ms;
#X text 186 533 - converted number of samples;
#X text 186 511 - converted number of samples;
#N canvas 439 241 715 321 (subpatch) 0;
#X obj 51 51 cnv 15 552 28 empty empty Cyclone: 6 13 0 18 -128992 -233080
0;
#X obj 217 65 cnv 5 5 5 empty empty Library 0 0 0 12 -128992 -233080
0;
#X obj 275 65 cnv 5 5 5 empty empty of 0 0 0 12 -128992 -233080 0;
#X obj 298 64 cnv 5 5 5 empty empty objects 0 0 0 12 -128992 -233080
0;
#X obj 356 64 cnv 5 5 5 empty empty cloned 0 0 0 12 -128992 -233080
0;
#X obj 406 64 cnv 5 5 5 empty empty from 0 0 0 12 -128992 -233080 0
;
#X obj 444 64 cnv 5 5 5 empty empty Max/MSP 0 0 0 12 -128992 -233080
0;
#X coords 0 -1 1 1 554 30 1 50 50;
#X restore 6 5 pd;
#N canvas 673 40 366 264 (subpatch) 0;
#X obj 51 101 tgl 42 0 \$0-tgl-s \$0-tgl-r empty 1 8 1 9 -74965 -212593
-262144 1 1;
#X obj 215 68 route dsp;
#X obj 215 37 receive pd;
#N canvas 939 367 324 271 set_color 0;
#X obj 47 30 inlet;
#X obj 96 146 s \$0-cnv;
#X msg 96 114 color -4.86997e+06 -1.34937e+07;
#N canvas 0 22 712 637 off 0;
#X obj 490 220 * -1;
#X obj 424 300 +;
#X obj 409 325 +;
#X obj 347 219 * -65536;
#X obj 424 220 * -256;
#X obj 409 356 - 1;
#X obj 390 189 unpack f f f;
#X obj 225 295 +;
#X obj 210 320 +;
#X obj 148 214 * -65536;
#X obj 225 215 * -256;
#X obj 291 215 * -1;
#X obj 210 351 - 1;
#X obj 191 184 unpack f f f;
#X obj 379 423 pack;
#X msg 378 447 color \$1 \$2;
#X msg 395 152 124 124 124;
#X msg 203 154 220 220 220;
#X obj 238 121 t b b;
#X obj 238 81 inlet;
#X obj 378 485 outlet;
#X connect 0 0 1 1;
#X connect 1 0 2 1;
#X connect 2 0 5 0;
#X connect 3 0 2 0;
#X connect 4 0 1 0;
#X connect 5 0 14 1;
#X connect 6 0 3 0;
#X connect 6 1 4 0;
#X connect 6 2 0 0;
#X connect 7 0 8 1;
#X connect 8 0 12 0;
#X connect 9 0 8 0;
#X connect 10 0 7 0;
#X connect 11 0 7 1;
#X connect 12 0 14 0;
#X connect 13 0 9 0;
#X connect 13 1 10 0;
#X connect 13 2 11 0;
#X connect 14 0 15 0;
#X connect 15 0 20 0;
#X connect 16 0 6 0;
#X connect 17 0 13 0;
#X connect 18 0 17 0;
#X connect 18 1 16 0;
#X connect 19 0 18 0;
#X restore 47 113 pd off;
#X obj 47 83 select 0 1;
#X obj 47 168 list append 0;
#X obj 47 195 list trim;
#X obj 47 220 s \$0-tgl-r;
#X connect 0 0 4 0;
#X connect 2 0 1 0;
#X connect 2 0 5 0;
#X connect 3 0 1 0;
#X connect 3 0 5 0;
#X connect 4 0 3 0;
#X connect 4 1 2 0;
#X connect 5 0 6 0;
#X connect 6 0 7 0;
#X restore 215 165 pd set_color;
#X obj 135 122 r \$0-tgl-s;
#N canvas 0 22 450 300 (subpatch) 0;
#X obj 101 101 cnv 25 40 25 empty \$0-cnv DSP 3 13 0 20 -74965 -212593
0;
#X coords 0 -1 1 1 42 27 1 100 100;
#X restore 51 144 pd;
#X obj 226 139 s \$0-tgl-r;
#X msg 226 115 set \$1;
#X msg 135 177 \; pd dsp \$1;
#N canvas 256 32 278 194 load_check 0;
#X obj 136 53 sig~ 1;
#X obj 74 24 loadbang;
#X obj 136 86 snapshot~;
#X obj 91 52 del 5;
#X obj 136 151 outlet;
#X obj 74 103 tgl 15 0 empty empty empty 17 7 0 10 -262144 -1 -1 0
1;
#X obj 74 126 switch~;
#X connect 0 0 2 0;
#X connect 1 0 3 0;
#X connect 1 0 5 0;
#X connect 2 0 4 0;
#X connect 3 0 2 0;
#X connect 3 0 5 0;
#X connect 5 0 6 0;
#X restore 51 72 pd load_check;
#X connect 1 0 3 0;
#X connect 1 0 7 0;
#X connect 2 0 1 0;
#X connect 4 0 8 0;
#X connect 4 0 3 0;
#X connect 7 0 6 0;
#X connect 9 0 0 0;
#X coords 0 -1 1 1 44 72 2 50 100;
#X restore 504 90 pd;
#X connect 10 0 23 0;
#X connect 13 0 20 0;
#X connect 20 0 28 0;
#X connect 20 1 12 0;
#X connect 21 0 22 0;
#X connect 21 1 29 0;
#X connect 22 0 11 0;
#X connect 23 0 21 0;
#X connect 28 0 27 0;
