#N canvas 371 28 572 532 10;
#X obj 4 482 cnv 3 550 3 empty empty inlets 8 12 0 13 -228856 -1 0
;
#X obj 3 722 cnv 3 550 3 empty empty outlets 8 12 0 13 -228856 -1 0
;
#X obj 2 792 cnv 3 550 3 empty empty arguments 8 12 0 13 -228856 -1
0;
#X obj 82 493 cnv 17 3 206 empty empty 0 5 9 0 16 -228856 -162280 0
;
#X obj 81 760 cnv 17 3 17 empty empty 1 5 9 0 16 -228856 -162280 0
;
#X obj 2 45 cnv 15 552 48 empty empty next 4 14 0 18 -204280 -1 0;
#X obj 508 54 next;
#X text 110 804 (none);
#X obj 81 731 cnv 17 3 17 empty empty 0 5 9 0 16 -228856 -162280 0
;
#X obj 2 2 cyclone/fancy/cyheader;
#X obj 2 854 cnv 1 550 1 empty empty empty 0 0 0 4 -262144 -262144
0;
#X obj 2 833 cnv 15 552 21 empty empty empty 20 12 0 14 -233017 -33289
0;
#N canvas 459 103 386 405 META 0;
#X text 9 28 LICENSE SIBSD;
#X text 9 128 LIBRARY cyclone;
#X text 9 8 KEYWORDS separate messages logic;
#X text 9 48 DESCRIPTION separate messages into logical parts;
#X text 9 68 INLET_0 list float bang;
#X text 9 88 OUTLET_0 bang;
#X text 9 108 OUTLET_1 bang;
#X text 8 147 VERSION 0.2-beta1;
#X text 8 165 AUTHOR Krzysztof Czaja;
#X text 9 183 RELEASE_DATE 2002;
#X text 10 202 WEBSITE http://suita.chopin.edu.pl/~czaja/miXed/externs/cyclone.html
;
#X text 10 234 HELP_PATCH_AUTHORS Christoph Kummerer. Revised by Jonathan
Wilkes for Pd-extended 0.42 to conform to the PDDP template. Alex Cleveland
updated this patch for Pd-l2ork version 2013.05.28. Fred Jan Kraan
adapted the patch to pd-extended 2015-02-02. Esteban Viveros updated
this patch for Pd-Vanilla 0.47-2.;
#X restore 502 835 pd META;
#N canvas 314 144 430 85 Related_objects 0;
#X obj 2 2 cnv 15 425 20 empty empty empty 3 12 0 14 -204280 -1 0;
#X text 8 3 Related Objects;
#X obj 57 29 cyclone/uzi;
#X obj 13 29 delay;
#X restore 204 835 pd Related_objects;
#X obj 45 105 cyclone/comment 375 10 monaco ? 0 80 80 80 Sends a bang
out its left outlet when an incoming in not part of the same pd "event"
as a previous message. (An "event" is a mouse click \, key press \,
MIDI event \, or tick of the scheduler.) Otherwise \, [next] sends
a bang out its right outlet.;
#X text 13 70 detect separation of messages;
#X obj 196 335 cyclone/next;
#X obj 196 234 bng 18 250 50 0 empty empty empty 17 7 0 10 -216373
-1 -1;
#X obj 143 284 delay 5;
#X msg 281 266 1 \, 2 \, 3;
#X obj 376 265 bng 18 250 50 0 empty empty empty 17 7 0 10 -216373
-1 -1;
#X obj 376 288 uzi 5;
#X obj 196 382 bng 22 250 50 0 empty empty empty 17 7 0 10 -216373
-261234 -1;
#X obj 265 382 bng 22 250 50 0 empty empty empty 17 7 0 10 -216373
-204786 -1;
#X obj 161 199 cyclone/comment 71 11 helvetica ? 0 80 80 80 same event
should not flash;
#X obj 188 407 cyclone/comment 53 11 helvetica ? 0 80 80 80 different
;
#X obj 263 407 cyclone/comment 53 11 helvetica ? 0 80 80 80 same event
;
#X obj 194 418 cyclone/comment 53 11 helvetica ? 0 80 80 80 event;
#X obj 276 236 cyclone/comment 71 11 helvetica ? 0 80 80 80 same event
should flash;
#X obj 363 236 cyclone/comment 71 11 helvetica ? 0 80 80 80 same event
should flash;
#X obj 272 201 cyclone/comment 180 11 helvetica ? 0 80 80 80 different
event will always flash when events are separated by clicks;
#X obj 465 458 cnv 12 73 19 empty empty empty 0 0 0 18 -257983 -1 0
;
#N canvas 164 95 710 485 Examples 0;
#X obj 2 2 cnv 15 705 40 empty empty next 3 12 0 18 -204280 -1 0;
#X obj 2 461 cnv 15 705 21 empty empty empty 20 12 0 14 -233017 -33289
0;
#X text 12 24 examples;
#N canvas 472 219 400 122 credits 0;
#X text 106 23 "Practical application" example;
#X text 122 40 from Max 7 Documentation;
#X restore 627 463 pd credits;
#X obj 263 279 r nxt;
#X obj 273 306 cyclone/next;
#X obj 273 330 bng 30 250 50 0 empty empty empty 17 7 0 10 -216373
-261234 -1;
#X obj 342 330 bng 30 250 50 0 empty empty empty 17 7 0 10 -216373
-204786 -1;
#X obj 271 364 cyclone/comment 53 11 helvetica ? 0 80 80 80 different
;
#X obj 345 363 cyclone/comment 53 11 helvetica ? 0 80 80 80 same event
;
#X obj 276 375 cyclone/comment 53 11 helvetica ? 0 80 80 80 event;
#X obj 100 100 bng 18 250 50 0 empty empty empty 0 -6 0 8 -216373 -1
-1;
#X msg 37 125 1;
#X msg 68 125 2;
#X msg 100 125 3;
#X msg 143 102 1 \, 2 \, 3 \, 4;
#X obj 154 164 print multiple events;
#X obj 78 164 s nxt;
#X obj 63 75 cyclone/comment 90 11 helvetica ? 0 80 80 80 different
inputs;
#X floatatom 235 103 5 0 0 0 - - -, f 5;
#X obj 186 191 cyclone/comment 148 11 helvetica ? 0 80 80 80 notice
how pd main window was printed with one event per line \, in other
words \, pd treats them as multiple events;
#X obj 164 189 cyclone/comment 25 11 helvetica ? 0 80 80 80 |;
#X obj 162 183 cyclone/comment 25 11 helvetica ? 0 80 80 80 ^;
#X obj 167 191 cyclone/comment 121 11 helvetica ? 0 80 80 80 ----;
#X msg 409 113 1 2 3 4;
#X obj 448 150 spigot;
#X obj 481 126 tgl 15 0 empty empty empty 0 -6 0 8 -262144 -1 -1 0
1;
#X obj 435 224 print one event;
#X obj 409 244 s nxt;
#X msg 448 177 4 3 2 1 dog;
#X obj 386 71 cyclone/comment 227 11 helvetica ? 0 80 80 80 try clicking
in messages 1) and 2) separately and watch "different event" bang light
up.;
#X obj 395 113 cyclone/comment 227 11 helvetica ? 0 80 80 80 1);
#X obj 435 177 cyclone/comment 227 11 helvetica ? 0 80 80 80 2);
#X obj 532 124 cyclone/comment 103 11 helvetica ? 0 80 80 80 now click
it toogle and try message 1) again and see "same event" bang assignaled
down there;
#X obj 501 125 cyclone/comment 112 11 helvetica ? 0 80 80 80 <-----
;
#X obj 34 289 cyclone/comment 215 11 helvetica ? 0 80 80 80 we can
say [next] first detect one different event and above same events \,
that's the reason to see the two bangs alight \, remembering \, an
event here is your mouse click \, if you click once and we have multiple
messages with the same click it's characterized in that is "same event"
;
#X obj 425 303 cyclone/comment 227 11 helvetica ? 0 80 80 80 a "practical
applicaton" for [next]:;
#X msg 449 332 60 \, 63 \, 67 \, 70;
#X obj 449 384 makenote 64 1000;
#X obj 449 414 noteout, f 19;
#X obj 574 342 cyclone/comment 103 11 helvetica ? 0 80 80 80 change
the active MIDI channel with each chord sent;
#X obj 491 360 cyclone/next;
#X obj 560 384 cyclone/counter 1 16;
#X connect 4 0 5 0;
#X connect 5 0 6 0;
#X connect 5 1 7 0;
#X connect 11 0 12 0;
#X connect 11 0 13 0;
#X connect 11 0 14 0;
#X connect 12 0 16 0;
#X connect 12 0 17 0;
#X connect 13 0 16 0;
#X connect 13 0 17 0;
#X connect 14 0 16 0;
#X connect 14 0 17 0;
#X connect 15 0 16 0;
#X connect 15 0 17 0;
#X connect 19 0 17 0;
#X connect 19 0 16 0;
#X connect 24 0 27 0;
#X connect 24 0 25 0;
#X connect 24 0 28 0;
#X connect 25 0 29 0;
#X connect 26 0 25 1;
#X connect 29 0 27 0;
#X connect 29 0 28 0;
#X connect 37 0 38 0;
#X connect 37 0 41 0;
#X connect 38 0 39 0;
#X connect 38 1 39 1;
#X connect 41 1 42 0;
#X connect 42 0 39 2;
#X restore 465 458 pd Examples;
#X text 158 493 -;
#X text 100 493 anything;
#X text 173 493 messages are tested to determine whether they are part
of the same logical event. A logical event is one of the following:
a mouse click \, the ongoing polling of a mouse drag \, an event generated
by the scheduler (such as the bang from a metro) \, a MIDI event \,
or a keyboard event \, next determines whether the current message
is part of the same event as the previously received message. For example
\, if you click on a bang twice \, the two bangs are not part of the
same logical event. But if you put bang \, bang in a message box \,
or use the uzi object to send out two bangs in a row \, these bangs
are part of the same logical event.;
#X text 158 644 -;
#X text 125 644 bang;
#X text 158 665 -;
#X text 118 665 float;
#X text 158 686 -;
#X text 124 686 list;
#X text 173 644 performs the same as anything, f 60;
#X text 173 665 performs the same as anything, f 60;
#X text 173 686 performs the same as anything, f 60;
#X text 158 732 -;
#X text 125 732 bang;
#X text 158 761 -;
#X text 125 761 bang;
#X text 173 732 bang if current message is not part of same logical
stream, f 60;
#X text 173 761 bang if current message is part of the same logical
stream, f 60;
#X connect 16 0 22 0;
#X connect 16 1 23 0;
#X connect 17 0 18 0;
#X connect 17 0 16 0;
#X connect 18 0 16 0;
#X connect 19 0 16 0;
#X connect 20 0 21 0;
#X connect 21 0 16 0;
