#N canvas 76 262 931 436 10;
#X obj 225 250 line~;
#X obj 394 17 inlet~;
#X obj 225 389 outlet~;
#X obj 451 17 inlet;
#X obj 327 236 f;
#X obj 225 158 spigot;
#X obj 327 301 s \$0-set-n;
#X obj 225 83 r \$0-n;
#X obj 394 148 cyclone/snapshot~ 1;
#X obj 117 100 nbx 6 17 -1e+37 1e+37 0 0 \$0-n \$0-set-n empty 0 -8
0 12 -99865 -262144 -1 0 256;
#X obj 100 100 tgl 17 0 \$0-tgl \$0-tgl-set empty 17 7 0 10 -228856
-1 -4032 0 1;
#X obj 101 101 cnv 15 15 15 empty \$0-cnv-c ~ 2 6 0 19 -99865 -204800
0;
#X obj 417 226 spigot;
#X obj 394 389 outlet;
#X obj 571 99 f \$1;
#X obj 571 125 != 0;
#X obj 571 74 loadbang;
#X obj 571 149 s \$0-tgl-set;
#X obj 579 340 s \$0-cnv-c;
#X obj 579 260 sel 0 1;
#X msg 579 299 label ~;
#X msg 640 300 label;
#X obj 724 198 r \$0-tgl;
#X obj 724 223 sel 0 1;
#X obj 806 306 s \$0-cnv-a;
#X obj 699 319 s \$0-cnv-b;
#X msg 699 259 label;
#X msg 806 260 label |;
#X msg 743 260 label v;
#X obj 225 223 pack f \$2;
#X obj 187 101 cnv 3 3 3 empty empty empty 20 12 0 14 -99865 -66577
0;
#X obj 786 330 s \$0-cnv-d;
#X obj 101 101 cnv 2 2 2 empty \$0-cnv-a empty 4 7 0 12 -99865 -204800
0;
#X obj 101 101 cnv 2 2 2 empty \$0-cnv-b empty 4 8 0 12 -99865 -204800
0;
#X obj 451 51 max 0;
#X obj 451 74 change -1;
#X obj 225 200 change;
#X obj 281 61 sel 0 1;
#X msg 281 88 0;
#X obj 281 112 t b f;
#X msg 450 201 1;
#X msg 341 269 set \$1;
#X msg 327 93 1;
#X msg 366 185 0;
#X obj 327 117 t b f b;
#X obj 281 37 r \$0-tgl;
#X connect 0 0 2 0;
#X connect 1 0 8 0;
#X connect 3 0 34 0;
#X connect 4 0 6 0;
#X connect 5 0 4 1;
#X connect 5 0 36 0;
#X connect 7 0 5 0;
#X connect 8 0 12 0;
#X connect 8 0 13 0;
#X connect 12 0 41 0;
#X connect 14 0 15 0;
#X connect 15 0 17 0;
#X connect 16 0 14 0;
#X connect 19 0 20 0;
#X connect 19 1 21 0;
#X connect 20 0 18 0;
#X connect 21 0 18 0;
#X connect 22 0 23 0;
#X connect 22 0 19 0;
#X connect 23 0 26 0;
#X connect 23 1 27 0;
#X connect 23 1 28 0;
#X connect 26 0 25 0;
#X connect 26 0 24 0;
#X connect 26 0 31 0;
#X connect 27 0 24 0;
#X connect 27 0 31 0;
#X connect 28 0 25 0;
#X connect 29 0 0 0;
#X connect 34 0 35 0;
#X connect 35 0 29 1;
#X connect 36 0 29 0;
#X connect 37 0 38 0;
#X connect 37 1 42 0;
#X connect 38 0 39 0;
#X connect 39 0 40 0;
#X connect 39 1 5 1;
#X connect 40 0 12 1;
#X connect 41 0 6 0;
#X connect 42 0 44 0;
#X connect 43 0 12 1;
#X connect 44 0 4 0;
#X connect 44 1 5 1;
#X connect 44 2 43 0;
#X connect 45 0 37 0;
#X coords 0 -1 1 1 91 17 1 100 100;
