#N canvas 397 26 572 550 10;
#X obj 2 362 cnv 3 550 3 empty empty inlets 8 12 0 13 -228856 -1 0
;
#X obj 2 494 cnv 3 550 3 empty empty outlets 8 12 0 13 -228856 -1 0
;
#X obj 2 549 cnv 3 550 3 empty empty arguments 8 12 0 13 -228856 -1
0;
#X obj 81 371 cnv 17 3 85 empty empty 0 5 9 0 16 -228856 -162280 0
;
#X obj 82 512 cnv 17 3 17 empty empty 0 5 9 0 16 -228856 -162280 0
;
#X obj 2 45 cnv 15 552 48 empty empty past 4 14 0 18 -204280 -1 0;
#X obj 509 55 past;
#X text 14 71 report when input increases beyond a certain number;
#X obj 2 633 cnv 3 550 3 empty empty more_info 8 12 0 13 -228856 -1
0;
#X text 133 579 or;
#X text 95 650 The behaviour with floats and lists is consistent with
the Max implementation \, but not the Max5 documentation;
#X obj 2 2 cyclone/fancy/cyheader;
#X obj 2 730 cnv 1 550 1 empty empty empty 0 0 0 4 -262144 -262144
0;
#X obj 2 709 cnv 15 552 21 empty empty empty 20 12 0 14 -233017 -33289
0;
#N canvas 450 97 450 382 META 0;
#X text 40 100 OUTLET_0 bang;
#X text 40 29 LICENSE SIBSD;
#X text 40 10 KEYWORDS control max_compatible;
#X text 40 80 INLET_0 float message;
#X text 40 137 VERSION 0.2-beta1;
#X text 40 155 AUTHOR Krzysztof Czaja;
#X text 41 173 RELEASE_DATE 2002;
#X text 42 192 WEBSITE http://suita.chopin.edu.pl/~czaja/miXed/externs/cyclone.html
;
#X text 41 119 LIBRARY cyclone;
#X text 40 49 DESCRIPTION report when input increases beyond a certain
number;
#X text 42 224 HELP_PATCH_AUTHORS Christoph Kummerer. Revised by Jonathan
Wilkes for Pd-extended 0.42 to conform to the PDDP template. Alex Cleveland
updated this patch for Pd-l2ork version 2013.05.28. Fred Jan Kraan
adapted the patch to pd-extended 2015-02-02. Esteban Viveros updated
this patch for Pd-Vanilla 0.47-2.;
#X restore 502 711 pd META;
#N canvas 341 142 430 82 Related_objects 0;
#X obj 2 2 cnv 15 425 20 empty empty empty 3 12 0 14 -204280 -1 0;
#X text 8 3 Related Objects;
#X obj 18 35 >;
#X obj 51 35 cyclone/maximum;
#X obj 156 35 cyclone/peak;
#X restore 210 711 pd Related_objects;
#X obj 462 339 cnv 12 73 19 empty empty empty 0 0 0 18 -257983 -1 0
;
#N canvas 314 93 585 511 Examples 0;
#X obj 2 2 cnv 15 580 40 empty empty past 3 12 0 18 -204280 -1 0;
#X obj 2 487 cnv 15 580 21 empty empty empty 20 12 0 14 -233017 -33289
0;
#X text 12 25 examples;
#N canvas 440 304 471 125 credits 0;
#X text 71 38 Examples from Max 7 Documentation \, except the first.
, f 54;
#X restore 501 489 pd credits;
#X floatatom 59 68 5 0 0 0 - - -, f 5;
#X msg 81 85 set 8;
#X msg 117 129 clear;
#X obj 59 163 cyclone/past 4;
#X obj 117 107 spigot;
#X obj 164 107 tgl 16 0 empty empty empty 17 7 0 10 -216373 -1 -1 0
1;
#N canvas 446 123 445 372 weirdness 0;
#X obj 81 249 bng 15 250 50 0 empty empty empty 0 -6 0 8 -262144 -1
-1;
#X floatatom 11 67 5 0 0 0 - - -, f 5;
#X msg 81 67 set 10 20 30;
#X obj 11 91 t f f;
#X msg 125 110 20 30 40;
#X msg 125 90 0 0 0;
#X msg 125 130 40 20 wrdlbrnft;
#X msg 335 85 11 22 33;
#X obj 306 248 bng 15 250 50 0 empty empty empty 0 -6 0 8 -262144 -1
-1;
#X msg 306 61 0 0 0;
#X msg 357 106 11 33;
#X msg 371 126 33;
#X text 33 300 > item is greater than (>) a corresponding threshold
\, or if;
#X text 34 312 > _all_ list elements are greater or equal (>=). That
is how;
#X text 34 324 > it looks like in Max but I might be wrong ...;
#X text 33 288 > its list handling is weird indeed \, it bangs if _any_
list;
#X text 78 31 now theses are a bit strange:;
#X text 34 271 this is a quote from an email Krzysztof Czaja sent:
;
#X obj 81 188 cyclone/past 2 5;
#X obj 306 192 cyclone/past 10 20 30;
#X obj 2 2 cnv 15 440 20 empty empty empty 3 12 0 14 -204280 -1 0;
#X text 5 3 different behaviour for floats and lists;
#X obj 11 115 pack f f;
#X connect 1 0 3 0;
#X connect 2 0 18 0;
#X connect 3 0 22 0;
#X connect 3 1 22 1;
#X connect 4 0 18 0;
#X connect 5 0 18 0;
#X connect 6 0 18 0;
#X connect 7 0 19 0;
#X connect 9 0 19 0;
#X connect 10 0 19 0;
#X connect 11 0 19 0;
#X connect 18 0 0 0;
#X connect 19 0 8 0;
#X connect 22 0 18 0;
#X restore 415 411 pd weirdness;
#N canvas 272 48 805 643 diff 0;
#X obj 501 389 bng 15 250 50 0 empty empty empty 17 7 0 10 -262144
-1 -1;
#X msg 550 72 10 20;
#X obj 153 391 bng 15 250 50 0 empty empty empty 17 7 0 10 -262144
-1 -1;
#X msg 232 177 9 19 29;
#X msg 182 52 10 20 30;
#X msg 227 155 9 22 33;
#X msg 240 263 33;
#X msg 236 221 10 19 33;
#X msg 558 94 11 19;
#X msg 571 114 11 22;
#X msg 593 171 9 19;
#X msg 598 191 9 22;
#X msg 603 212 10 19;
#X msg 612 254 33;
#X msg 586 151 9;
#X text 641 82 these report;
#X text 658 180 these don't;
#X msg 203 74 10 22;
#X msg 608 232 11 22 33;
#X msg 239 242 10 20 30 40;
#X text 255 63 these report;
#X text 310 201 these don't;
#X msg 448 359 clear;
#X msg 96 351 clear;
#X msg 233 198 10;
#X obj 153 352 past 10 20 30;
#X obj 501 356 past 10 20;
#X msg 218 97 11 0 0;
#X text 24 478 - all elements of the list are equal or greater than
the argument list;
#X text 25 506 - the list is shorter than the argument list \, but
the elements are equal or greater than their argument counterpart;
#X text 26 547 - the first element is greater than the first argument
element. There must be one other element \, its value is ignored;
#X text 24 590 The bang is not send if the list is larger that the
argument list;
#X text 408 445 The Max5 documentation states that an equal or greater
value in all cases is reason to send a bang \, for ints \, float and
all list elements. No information on smaller or larger lists., f 61
;
#X obj 2 2 cnv 15 800 20 empty empty empty 3 12 0 14 -204280 -1 0;
#X text 3 4 past - behaviour differences with Max5;
#X text 22 451 The behaviour of Pd and Max5 with lists is the same
\, but not very consistent: the bang is send if:;
#X connect 1 0 26 0;
#X connect 3 0 25 0;
#X connect 4 0 25 0;
#X connect 5 0 25 0;
#X connect 6 0 25 0;
#X connect 7 0 25 0;
#X connect 8 0 26 0;
#X connect 9 0 26 0;
#X connect 10 0 26 0;
#X connect 11 0 26 0;
#X connect 12 0 26 0;
#X connect 13 0 26 0;
#X connect 14 0 26 0;
#X connect 17 0 25 0;
#X connect 18 0 26 0;
#X connect 19 0 25 0;
#X connect 22 0 26 0;
#X connect 23 0 25 0;
#X connect 24 0 25 0;
#X connect 25 0 23 0;
#X connect 25 0 2 0;
#X connect 26 0 22 0;
#X connect 26 0 0 0;
#X connect 27 0 25 0;
#X restore 399 431 pd diff with Max5;
#X obj 370 373 cyclone/comment 182 11 helvetica ? 0 80 80 80 for more
information about matters between [past] object and list please see
the subpatches below:;
#X obj 186 105 cyclone/comment 159 11 helvetica ? 0 80 80 80 <--;
#X obj 203 105 cyclone/comment 81 11 helvetica ? 0 80 80 80 to automatize
clear message;
#X obj 59 206 bng 20 250 50 0 empty empty empty 17 7 0 10 -216373 -1
-1;
#X obj 375 93 hsl 90 18 0 127 0 0 empty empty empty -2 -8 0 10 -216373
-1 -1 0 1;
#X obj 372 133 cyclone/past 64;
#X obj 372 185 bng 20 250 50 0 empty empty empty 17 7 0 10 -216373
-1 -1;
#X obj 427 164 cyclone/comment 122 11 helvetica ? 0 80 80 80 only triggers
a bang when increasing past 64;
#X msg 63 312 60 127 1 250;
#X msg 93 342 60 63 1 250;
#X obj 63 384 cyclone/past 60 64 1 250;
#X obj 63 427 bng 20 250 50 0 empty empty empty 17 7 0 10 -216373 -1
-1;
#X obj 150 312 cyclone/comment 122 11 helvetica ? 0 80 80 80 triggers
a bang;
#X obj 172 344 cyclone/comment 122 11 helvetica ? 0 80 80 80 must go
below before bang can be triggered;
#X obj 327 280 cyclone/comment 196 11 helvetica ? 0 80 80 80 to use
[past] object with lists without matters we need to compare lists of
the same length \, If it's restriction has been attended it should
work properly;
#X obj 33 262 cyclone/comment 228 11 helvetica ? 0 80 80 80 only if
each element in received list are equal or greater than the element
in same position in argument list [past] will send a bang;
#N canvas 387 161 431 233 preset 0;
#X obj 123 107 loadbang;
#X obj 2 2 cnv 15 425 20 empty empty empty 3 12 0 14 -204280 -1 0;
#X obj 121 87 cyclone/comment 99 11 helvetica ? 0 80 80 80 horizontal
slider;
#X obj 80 49 cyclone/comment 99 11 helvetica ? 0 80 80 80 set initial
values of:;
#X obj 123 151 s hslider_rcv;
#X msg 123 129 46;
#X text 6 4 past examples preset;
#X connect 0 0 5 0;
#X connect 5 0 4 0;
#X restore 435 489 pd preset;
#X connect 4 0 7 0;
#X connect 5 0 7 0;
#X connect 6 0 7 0;
#X connect 7 0 8 0;
#X connect 7 0 15 0;
#X connect 8 0 6 0;
#X connect 9 0 8 1;
#X connect 16 0 17 0;
#X connect 17 0 18 0;
#X connect 20 0 22 0;
#X connect 21 0 22 0;
#X connect 22 0 23 0;
#X restore 462 339 pd Examples;
#X obj 78 121 vsl 22 65 0 127 0 0 empty empty empty 0 -9 0 10 -216373
-1 -1 0 1;
#X floatatom 86 196 5 0 0 0 - - -, f 5;
#X obj 53 139 cyclone/comment 159 11 helvetica ? 0 80 80 80 80 --------
;
#X obj 78 274 cyclone/past 80;
#X msg 119 216 set 25;
#X msg 139 238 clear;
#X obj 108 139 cyclone/comment 159 11 helvetica ? 0 80 80 80 <---;
#X obj 129 137 cyclone/comment 143 11 helvetica ? 0 80 80 80 move the
slider above "80" and then back down again;
#X obj 78 306 bng 20 250 50 0 empty empty empty 17 7 0 10 -216373 -1
-1;
#X obj 381 259 print past;
#X obj 464 256 bng 20 250 50 0 empty empty empty 17 7 0 10 -216373
-1 -1;
#X msg 329 134 0 8 20;
#X obj 381 215 cyclone/past 0 10 20;
#X msg 381 134 0 10 20;
#X msg 438 134 2 10 20;
#X msg 442 169 set 0 10 20;
#X msg 457 188 set 2 10 20;
#X obj 328 116 cyclone/comment 143 11 helvetica ? 0 80 80 80 can be
used with lists...;
#X obj 355 260 cyclone/comment 25 11 helvetica ? 0 80 80 80 ---->;
#X obj 286 259 cyclone/comment 79 11 helvetica ? 0 80 80 80 see results
of print object in Pd main window;
#X obj 320 310 cyclone/comment 133 11 helvetica ? 0 80 80 80 more about
list behavior please see Examples;
#X obj 420 342 cyclone/comment 47 11 helvetica ? 0 80 80 80 -------->
;
#X obj 311 310 cyclone/comment 63 11 helvetica ? 0 80 80 80 ...;
#X obj 417 340 cyclone/comment 63 11 helvetica ? 0 80 80 80 |;
#X obj 417 332 cyclone/comment 63 11 helvetica ? 0 80 80 80 |;
#X obj 169 213 cyclone/comment 143 11 helvetica ? 0 80 80 80 set threshold
;
#X obj 183 240 cyclone/comment 88 11 helvetica ? 0 80 80 80 forget
previously received input;
#X text 158 374 -;
#X text 118 374 float;
#X text 158 395 -;
#X text 124 395 list;
#X text 158 415 -;
#X text 107 415 message;
#X text 173 374 float to check if past limit, f 60;
#X text 173 395 list of floats to check if past limit, f 60;
#X text 173 415 "clear":;
#X text 227 415 reset the 'past' state \, so a next matching float
or list will send a bang, f 51;
#X text 173 445 "set <x>":;
#X text 239 445 set the new limit to <x>. <x> is a float or list of
floats, f 49;
#X text 158 513 -;
#X text 125 513 bang;
#X text 173 513 bang if input number is more than limit or list or
limits, f 60;
#X text 158 563 -;
#X text 100 563 1) float;
#X text 172 563 initial limit, f 60;
#X text 158 597 -;
#X text 100 597 2) list;
#X text 172 597 initial list of limits, f 60;
#X connect 18 0 19 0;
#X connect 18 0 21 0;
#X connect 21 0 26 0;
#X connect 22 0 21 0;
#X connect 23 0 21 0;
#X connect 29 0 30 0;
#X connect 30 0 27 0;
#X connect 30 0 28 0;
#X connect 31 0 30 0;
#X connect 32 0 30 0;
#X connect 33 0 30 0;
#X connect 34 0 30 0;
