#N canvas 404 28 572 532 10;
#X obj 2 378 cnv 3 550 3 empty empty inlets 8 12 0 13 -228856 -1 0
;
#X obj 2 491 cnv 3 550 3 empty empty outlets 8 12 0 13 -228856 -1 0
;
#X obj 2 588 cnv 3 550 3 empty empty arguments 8 12 0 13 -228856 -1
0;
#X obj 83 387 cnv 17 3 59 empty empty 0 5 9 0 16 -228856 -162280 0
;
#X obj 83 455 cnv 17 3 17 empty empty 1 5 9 0 16 -228856 -162280 0
;
#X obj 2 45 cnv 15 552 48 empty empty peak 4 14 0 18 -204280 -1 0;
#X text 14 71 output only numbers greater than the previous;
#X obj 83 500 cnv 17 3 17 empty empty 0 5 9 0 16 -228856 -162280 0
;
#X obj 83 525 cnv 17 3 17 empty empty 1 5 9 0 16 -228856 -162280 0
;
#X obj 83 550 cnv 17 3 17 empty empty 2 5 9 0 16 -228856 -162280 0
;
#X floatatom 220 162 5 0 0 0 - - -, f 5;
#X floatatom 220 314 5 0 0 0 - - -, f 5;
#X msg 167 193 bang;
#X floatatom 301 193 5 0 0 0 - - -, f 5;
#X obj 220 236 cyclone/Peak 4;
#X obj 2 642 cnv 3 550 3 empty empty more_info 8 12 0 13 -228856 -1
0;
#X text 91 656 if a value is not above maximum \, outlet 2 is banged.
;
#X text 91 670 if the value is above maximum \, outlet 1 is banged
and a new maximum is set;
#X obj 2 2 cyclone/fancy/cyheader;
#X obj 2 750 cnv 1 550 1 empty empty empty 0 0 0 4 -262144 -262144
0;
#X obj 2 729 cnv 15 552 21 empty empty empty 20 12 0 14 -233017 -33289
0;
#N canvas 494 101 375 404 META 0;
#X text 5 29 LICENSE SIBSD;
#X text 5 162 LIBRARY cyclone;
#X text 5 10 KEYWORDS output peak max maximum;
#X text 5 48 DESCRIPTION output only numbers greater than previous
;
#X text 5 67 INLET_0 float bang list;
#X text 5 86 INLET_1 float;
#X text 5 105 OUTLET_0 float;
#X text 5 124 OUTLET_1 bang;
#X text 5 143 OUTLET_2 bang;
#X text 5 180 VERSION 0.2-beta1;
#X text 5 198 AUTHOR Krzysztof Czaja;
#X text 6 216 RELEASE_DATE 2002;
#X text 7 235 WEBSITE http://suita.chopin.edu.pl/~czaja/miXed/externs/cyclone.html
;
#X text 7 267 HELP_PATCH_AUTHORS Christoph Kummerer. Revised by Jonathan
Wilkes for Pd-extended 0.42 to conform to the PDDP template. Alex Cleveland
updated this patch for Pd-l2ork version 2013.05.28. Fred Jan Kraan
adapted the patch to pd-extended 2015-02-02. Esteban Viveros updated
this patch for Pd-Vanilla 0.47-2.;
#X restore 499 731 pd META;
#N canvas 345 144 430 78 Related_objects 0;
#X obj 2 2 cnv 15 425 20 empty empty empty 3 12 0 14 -204280 -1 0;
#X text 8 3 Related Objects;
#X obj 9 33 >;
#X obj 39 33 cyclone/maximum;
#X obj 141 33 cyclone/minimum;
#X obj 326 33 cyclone/trough;
#X obj 243 33 cyclone/past;
#X restore 200 731 pd Related_objects;
#X obj 220 332 bng 15 250 50 0 empty empty empty 17 7 0 10 -216373
-66577 -1;
#X obj 257 318 cyclone/comment 143 11 helvetica ? 0 80 80 80 current
peak;
#X obj 282 289 cyclone/comment 143 11 helvetica ? 0 80 80 80 new peak
;
#X obj 324 265 cyclone/comment 143 11 helvetica ? 0 80 80 80 not peak
;
#X obj 34 102 cyclone/comment 396 10 monaco ? 0 80 80 80 compares a
number to a previous peak-value and \, if larger \, it is sent out
the output while the new-peak value is set to that number;
#X obj 258 161 cyclone/comment 201 11 helvetica ? 0 80 80 80 <--- drag
number box to test for peak;
#X obj 103 183 cyclone/comment 57 11 helvetica ? 0 80 80 80 output
current value;
#X obj 142 192 cyclone/comment 103 11 helvetica ? 0 80 80 80 --->;
#X obj 338 193 cyclone/comment 201 11 helvetica ? 0 80 80 80 <--- set
old peak;
#X obj 508 54 peak;
#X obj 462 354 cnv 12 73 19 empty empty empty 0 0 0 18 -257983 -1 0
;
#N canvas 314 95 585 277 Examples 0;
#X obj 2 2 cnv 15 580 40 empty empty peak 3 12 0 18 -204280 -1 0;
#X obj 2 253 cnv 15 580 21 empty empty empty 20 12 0 14 -233017 -33289
0;
#X text 12 25 examples;
#N canvas 440 304 471 125 credits 0;
#X text 41 38 Examples from Max 7 Reference Documentation \, except
the first., f 64;
#X restore 501 255 pd credits;
#X obj 52 180 cyclone/comment 151 11 helvetica ? 0 80 80 80 if greater
than the maximum \, it becomes the new maximum;
#X msg 57 63 1 \, 4 \, 5 \, -9 \, 3 \, 7 \, 6 \, 2;
#X obj 57 120 cyclone/peak;
#X msg 126 96 0;
#X obj 156 99 cyclone/comment 122 11 helvetica ? 0 80 80 80 initial
maximum value;
#X obj 207 61 cyclone/comment 122 11 helvetica ? 0 80 80 80 <--- click
here;
#X floatatom 57 160 5 0 0 0 - - -, f 5;
#X msg 498 134 34;
#X obj 399 163 cyclone/peak, f 17;
#X floatatom 399 199 5 0 0 0 - - -, f 5;
#X floatatom 448 199 5 0 0 0 - - -, f 5;
#X floatatom 498 199 5 0 0 0 - - -, f 5;
#X obj 365 132 cyclone/comment 188 11 helvetica ? 0 80 80 80 reset
maximum value --->;
#X connect 5 0 6 0;
#X connect 6 0 10 0;
#X connect 7 0 6 1;
#X connect 11 0 12 1;
#X connect 12 0 13 0;
#X connect 12 1 14 0;
#X connect 12 2 15 0;
#X restore 462 354 pd Examples;
#X obj 260 283 tgl 18 0 empty empty empty 0 -6 0 8 -216373 -66577 -1
0 1;
#X obj 301 260 tgl 18 0 empty empty empty 0 -6 0 8 -216373 -66577 -1
0 1;
#X text 158 388 -;
#X text 125 388 bang;
#X text 158 409 -;
#X text 118 409 float;
#X text 158 430 -;
#X text 124 430 list;
#X text 173 388 value checked against maximum, f 60;
#X text 173 409 sends current maximum value out the left outlet, f
60;
#X text 173 430 2nd sets new maximum value \, 1st is a value, f 60
;
#X text 158 455 -;
#X text 118 455 float;
#X text 173 455 set new maximum value, f 60;
#X text 158 503 -;
#X text 118 503 float;
#X text 173 503 maximum value, f 60;
#X text 158 527 -;
#X text 118 527 float;
#X text 158 552 -;
#X text 118 552 float;
#X text 173 527 0 = not a new maximum value \, 1 = new maximum value
, f 60;
#X text 173 552 0 = new maximum value \, 1 = not a new maximum value
, f 60;
#X text 158 606 -;
#X text 100 606 1) float;
#X text 172 606 intial maximum value, f 60;
#X connect 10 0 14 0;
#X connect 11 0 23 0;
#X connect 12 0 14 0;
#X connect 13 0 14 1;
#X connect 14 0 11 0;
#X connect 14 1 35 0;
#X connect 14 2 36 0;
