#N canvas 397 30 570 665 10;
#X obj 7 612 cnv 15 552 21 empty empty empty 20 12 0 14 -233017 -33289
0;
#X obj 7 378 cnv 3 550 3 empty empty inlets 8 12 0 13 -228856 -1 0
;
#N canvas 615 359 363 235 META 0;
#X text 1 19 LICENSE SIBSD;
#X text 1 114 LIBRARY cyclone;
#X text 1 0 KEYWORDS signal amplitude peak max maximum measure;
#X text 1 38 DESCRIPTION measure the peak amplitude of a signal;
#X text 1 57 INLET_0 signal bang;
#X text 1 76 INLET_1 float;
#X text 1 95 OUTLET_0 signal;
#X text 0 134 VERSION 0.2-beta1;
#X text 0 152 AUTHOR Krzysztof Czaja;
#X text 1 170 RELEASE_DATE 2002;
#X text 2 189 WEBSITE http://suita.chopin.edu.pl/~czaja/miXed/externs/cyclone.html
;
#X text 2 221 HELP_PATCH_AUTHORS Christoph Kummerer. Revised by Jonathan
Wilkes for Pd-extended 0.42 to conform to the PDDP template. Alex Cleveland
updated this patch for Pd-l2ork version 2013.05.28. Fred Jan Kraan
adapted the patch to pd-extended 2015-02-02;
#X restore 508 614 pd META;
#X obj 7 462 cnv 3 550 3 empty empty outlets 8 12 0 13 -228856 -1 0
;
#X obj 7 499 cnv 3 550 3 empty empty arguments 8 12 0 13 -228856 -1
0;
#N canvas 320 482 428 109 Related_objects 0;
#X obj 0 0 cnv 15 425 20 empty empty empty 3 12 0 14 -204280 -1 0;
#X text 6 1 Related Objects;
#X restore 212 614 pd Related_objects;
#X obj 105 387 cnv 17 3 34 empty empty 0 5 9 0 16 -228856 -162280 0
;
#X obj 105 434 cnv 17 3 17 empty empty 1 5 9 0 16 -228856 -162280 0
;
#X obj 7 43 cnv 15 552 40 empty empty peakamp~ 3 12 0 18 -204280 -1
0;
#X obj 496 51 peakamp~;
#X text 19 65 measure the peak amplitude of a signal;
#X text 137 386 signal;
#X text 192 386 - signal to measure peak amplitude;
#X text 137 405 bang;
#X text 137 470 float;
#X obj 105 471 cnv 17 3 17 empty empty 0 5 9 0 16 -228856 -162280 0
;
#X text 137 434 float;
#X text 110 509 1) float;
#X obj 226 235 *~;
#X obj 286 189 hsl 128 15 0 1 0 0 empty empty empty -2 -8 0 10 -228856
-1 -1 0 1;
#X floatatom 283 212 0 0 0 0 - - -;
#X obj 226 321 nbx 8 18 -1e+37 1e+37 0 0 empty empty empty 0 -8 0 13
-228856 -1 -1 0 256;
#X text 91 103 Use the [peakamp~] object to report the absolute value
of the peak amplitude of a signal since the last time it was reported.
It outputs the peak amplitude when banged or using its own internal
clock.;
#X text 192 405 - reports a peak value;
#X text 192 434 - time interval in ms to report peak values;
#X text 182 510 - Sets the internal clock interval \, in milliseconds
\, to report peak amplitude. If it is 0 \, the internal clock is not
used \, so peakamp~ will only output data when it receives a bang message.
If it is non-zero \, peakamp~ will repeatedly send out the peak amplitude
received in that interval of time. By default \, the interval is 0
;
#X text 192 470 - reported peak amplitude;
#X obj 226 281 cyclone/peakamp~ 25;
#X obj 93 241 bng 20 250 50 0 empty empty empty 17 7 0 10 -228856 -1
-1;
#X obj 93 321 nbx 8 18 -1e+37 1e+37 0 0 empty empty empty 0 -8 0 13
-228856 -1 -1 0 256;
#X obj 93 281 cyclone/peakamp~;
#X obj 226 201 noise~;
#X floatatom 360 283 6 0 0 0 - - -, f 6;
#X obj 363 259 hsl 128 15 1 500 0 0 empty empty empty -2 -8 0 10 -253822
-1 -1 0 1;
#X text 401 284 clock time;
#X text 83 223 report;
#N canvas 439 241 715 321 (subpatch) 0;
#X obj 51 51 cnv 15 552 28 empty empty Cyclone: 6 13 0 18 -128992 -233080
0;
#X obj 217 65 cnv 5 5 5 empty empty Library 0 0 0 12 -128992 -233080
0;
#X obj 275 65 cnv 5 5 5 empty empty of 0 0 0 12 -128992 -233080 0;
#X obj 298 64 cnv 5 5 5 empty empty objects 0 0 0 12 -128992 -233080
0;
#X obj 356 64 cnv 5 5 5 empty empty cloned 0 0 0 12 -128992 -233080
0;
#X obj 406 64 cnv 5 5 5 empty empty from 0 0 0 12 -128992 -233080 0
;
#X obj 444 64 cnv 5 5 5 empty empty Max/MSP 0 0 0 12 -128992 -233080
0;
#X coords 0 -1 1 1 554 30 1 50 50;
#X restore 6 6 pd;
#X connect 18 0 27 0;
#X connect 18 0 30 0;
#X connect 19 0 20 0;
#X connect 20 0 18 1;
#X connect 27 0 21 0;
#X connect 28 0 30 0;
#X connect 30 0 29 0;
#X connect 31 0 18 0;
#X connect 32 0 27 1;
#X connect 33 0 32 0;
