#N canvas 595 117 563 624 10;
#X obj 5 578 cnv 15 552 21 empty empty empty 20 12 0 14 -233017 -33289
0;
#X obj 7 461 cnv 3 550 3 empty empty inlets 8 12 0 13 -228856 -1 0
;
#N canvas 617 192 359 207 META 0;
#X text 0 19 LICENSE SIBSD;
#X text 0 95 LIBRARY cyclone;
#X text 0 76 OUTLET_0 signal;
#X text 0 0 KEYWORDS signal wrap -pi pi phase;
#X text 0 38 DESCRIPTION wrap a signal between -pi and pi;
#X text 0 57 INLET_0 signal;
#X text 2 115 VERSION 0.2-beta1;
#X text 2 133 AUTHOR Krzysztof Czaja;
#X text 3 151 RELEASE_DATE 2002;
#X text 4 170 WEBSITE http://suita.chopin.edu.pl/~czaja/miXed/externs/cyclone.html
;
#X text 4 202 HELP_PATCH_AUTHORS Christoph Kummerer. Revised by Jonathan
Wilkes for Pd-extended 0.42 to conform to the PDDP template. Alex Cleveland
updated this patch for Pd-l2ork version 2013.05.28. Fred Jan Kraan
adapted the patch to pd-extended 2015-02-02;
#X restore 507 580 pd META;
#X obj 7 501 cnv 3 550 3 empty empty outlets 8 12 0 13 -228856 -1 0
;
#X obj 7 542 cnv 3 550 3 empty empty arguments 8 12 0 13 -228856 -1
0;
#N canvas 309 291 428 109 Related_objects 0;
#X obj 0 0 cnv 15 425 20 empty empty empty 3 12 0 14 -204280 -1 0;
#X text 6 1 Related Objects;
#X restore 202 580 pd Related_objects;
#X obj 117 473 cnv 17 3 17 empty empty 0 5 9 0 16 -228856 -162280 0
;
#X obj 117 512 cnv 17 3 17 empty empty 0 5 9 0 16 -228856 -162280 0
;
#X obj 154 369 nbx 7 14 -1e+37 1e+37 0 0 empty empty empty 0 -8 0 10
-228856 -1 -1 0 256;
#X text 150 473 signal;
#X text 150 512 signal;
#X text 150 551 (none);
#X obj 202 302 cyclone/phasewrap~;
#X text 60 367 wrapped output;
#X obj 157 396 hsl 128 15 -3.1415 3.1415 0 0 empty empty empty -2 -8
0 10 -228856 -1 -1 0 1;
#X text 271 414 pi;
#X text 150 416 -pi;
#X obj 322 333 cyclone/Scope~ 132 107 70 3 256 -3.14 3.14 0 0 0 0 205
229 232 74 79 77 96 98 102 0;
#X obj 2 4 cnv 15 553 42 empty empty empty 20 12 0 14 -233017 -66577
0;
#N canvas 0 22 450 278 (subpatch) 0;
#X coords 0 1 100 -1 554 42 1 0 0;
#X restore 2 3 graph;
#X obj 305 4 cnv 15 250 40 empty empty empty 12 13 0 18 -128992 -233080
0;
#N canvas 382 141 749 319 (subpatch) 0;
#X coords 0 -1 1 1 252 42 2 100 100;
#X restore 304 3 pd;
#X obj 322 28 comment 0 13 courier ? 0 224 228 220 Objects cloned from
Max/MSP;
#X obj 363 4 comment 0 24 courier ? 0 224 228 220 cyclone;
#X obj 16 4 comment 0 37 times ? 0 0 0 0 phasewrap~;
#X obj 14 57 comment 0 18 times ? 0 0 0 0 Wrap between π & -π;
#X text 91 95 Use the [phasewrap~] object to take any input signal
and wrap it between π (pi) and -π (-pi) values - specially useful
for wrapping phase values.;
#X obj 154 338 cyclone/snapshot~ 10;
#X text 92 141 When the input exceeds π (around 3.14159) \, the output
signal value is "wrapped" to a range whose lower bound is -π (around
-3.14159). Thus a signal of increasing value outputs a sawtooth waveform
with -π and π as lower and upper values.;
#X obj 202 274 line~;
#X msg 202 248 0 \, 1000 500000;
#X obj 202 223 loadbang;
#X text 456 431 -pi;
#X text 458 325 pi;
#X text 460 378 0;
#X text 215 512 - the wrapped signal;
#X text 215 473 - the signal to be wrapped;
#N canvas 207 34 366 264 (subpatch) 0;
#X obj 51 101 tgl 42 0 \$0-tgl-s \$0-tgl-r empty 1 8 1 9 -228856 -128992
-262144 0 1;
#X obj 215 68 route dsp;
#X obj 215 37 receive pd;
#N canvas 977 77 379 291 set_color 0;
#X obj 47 30 inlet;
#X obj 147 200 s \$0-cnv;
#X obj 47 83 select 0 1;
#X obj 47 220 s \$0-tgl-r;
#N canvas 0 22 712 637 off 0;
#X obj 490 220 * -1;
#X obj 424 300 +;
#X obj 409 325 +;
#X obj 347 219 * -65536;
#X obj 424 220 * -256;
#X obj 409 356 - 1;
#X obj 390 189 unpack f f f;
#X obj 225 295 +;
#X obj 210 320 +;
#X obj 148 214 * -65536;
#X obj 225 215 * -256;
#X obj 291 215 * -1;
#X obj 210 351 - 1;
#X obj 191 184 unpack f f f;
#X obj 379 423 pack;
#X msg 395 152 124 124 124;
#X msg 203 154 220 220 220;
#X obj 238 121 t b b;
#X obj 238 81 inlet;
#X obj 378 485 outlet;
#X connect 0 0 1 1;
#X connect 1 0 2 1;
#X connect 2 0 5 0;
#X connect 3 0 2 0;
#X connect 4 0 1 0;
#X connect 5 0 14 1;
#X connect 6 0 3 0;
#X connect 6 1 4 0;
#X connect 6 2 0 0;
#X connect 7 0 8 1;
#X connect 8 0 12 0;
#X connect 9 0 8 0;
#X connect 10 0 7 0;
#X connect 11 0 7 1;
#X connect 12 0 14 0;
#X connect 13 0 9 0;
#X connect 13 1 10 0;
#X connect 13 2 11 0;
#X connect 14 0 19 0;
#X connect 15 0 6 0;
#X connect 16 0 13 0;
#X connect 17 0 16 0;
#X connect 17 1 15 0;
#X connect 18 0 17 0;
#X restore 47 113 pd off;
#X msg 47 180 color \$1 \$2 0;
#X msg 147 131 -4.86997e+06 -1.34937e+07;
#X msg 147 171 color \$1 0 \$2;
#X connect 0 0 2 0;
#X connect 2 0 4 0;
#X connect 2 1 6 0;
#X connect 4 0 5 0;
#X connect 4 0 7 0;
#X connect 5 0 3 0;
#X connect 6 0 7 0;
#X connect 6 0 5 0;
#X connect 7 0 1 0;
#X restore 215 165 pd set_color;
#X obj 135 122 r \$0-tgl-s;
#N canvas 121 482 450 300 (subpatch) 0;
#X obj 101 101 cnv 25 40 25 empty \$0-cnv DSP 3 13 0 20 -228856 -128992
0;
#X coords 0 -1 1 1 42 27 1 100 100;
#X restore 51 144 pd;
#X obj 226 139 s \$0-tgl-r;
#X msg 226 115 set \$1;
#X msg 135 177 \; pd dsp \$1;
#N canvas 256 32 278 194 load_check 0;
#X obj 136 53 sig~ 1;
#X obj 74 24 loadbang;
#X obj 136 86 snapshot~;
#X obj 91 52 del 5;
#X obj 136 151 outlet;
#X obj 74 103 tgl 15 0 empty empty empty 17 7 0 10 -262144 -1 -1 0
1;
#X obj 74 126 switch~;
#X connect 0 0 2 0;
#X connect 1 0 3 0;
#X connect 1 0 5 0;
#X connect 2 0 4 0;
#X connect 3 0 2 0;
#X connect 3 0 5 0;
#X connect 5 0 6 0;
#X restore 51 72 pd load_check;
#X connect 1 0 3 0;
#X connect 1 0 7 0;
#X connect 2 0 1 0;
#X connect 4 0 8 0;
#X connect 4 0 3 0;
#X connect 7 0 6 0;
#X connect 9 0 0 0;
#X coords 0 -1 1 1 44 72 2 50 100;
#X restore 504 71 pd;
#X connect 8 0 14 0;
#X connect 12 0 17 0;
#X connect 12 0 27 0;
#X connect 27 0 8 0;
#X connect 29 0 12 0;
#X connect 30 0 29 0;
#X connect 31 0 30 0;
