#N canvas 706 191 426 283 10;
#X obj 107 49 noise~;
#X obj 96 171 output~;
#X obj 107 131 +~;
#X obj 122 103 phaseshift~ 500 1;
#X obj 171 78 scale~ -1 1 500 1000;
#X obj 171 51 osc~ 1;
#X connect 0 0 2 0;
#X connect 0 0 3 0;
#X connect 2 0 1 0;
#X connect 2 0 1 1;
#X connect 3 0 2 1;
#X connect 4 0 3 1;
#X connect 5 0 4 0;
