#N canvas 290 144 730 512 10;
#X obj 103 401 fexpr~ $x1*$x2 + $x1[-1]*$x3 + $x1[-2]*$x4 - $y1*$x5
- $y1[-2]*$x6;
#X text 191 34 Freq (Hz);
#X obj 204 62 inlet~;
#X obj 261 172 r \$0-nyquist;
#X obj 204 172 clip~ 20;
#X obj 204 201 expr~ $v1 * 2*pi/sr_\$0;
#X obj 375 56 inlet~;
#X obj 375 205 max~ 0;
#X obj 360 289 +~ 1;
#X text 352 258 alphaQ;
#X text 394 288 b0;
#X obj 231 233 expr~ cos($v1) \; sin($v1) / (2*$v2);
#X text 419 307 APF \; - a0 = (1 - alphaQ) / b0 \; - a1 = -2*cos(w)
/ b0 \; - a2 = 1 \; - b1 = -2*cos(w) / b0 \; - b2 = (1 - alphaQ) /
b0 \;;
#X obj 231 312 expr~ (1 - $v2) / $v3 \; -2*$v1 / $v3 \; 1 \; -2*$v1
/ $v3 \; (1 - $v2) / $v3 \;;
#X text 380 29 Q;
#X obj 103 65 inlet~;
#X obj 103 471 outlet~;
#X obj 484 145 samplerate~;
#X obj 484 178 / 2;
#X obj 471 259 v pi;
#X obj 513 178 v sr_\$0;
#X obj 484 206 s \$0-nyquist;
#X obj 471 232 expr atan(1) * 4;
#X obj 471 95 loadbang;
#X obj 204 112 expr~ if($v1 != 0 \, $v1 \, \$1 ) \; if($v2 != 0 \,
$v2 \, \$2 );
#X connect 0 0 16 0;
#X connect 2 0 24 0;
#X connect 3 0 4 2;
#X connect 4 0 5 0;
#X connect 5 0 11 0;
#X connect 6 0 24 1;
#X connect 7 0 11 1;
#X connect 8 0 13 2;
#X connect 11 0 13 0;
#X connect 11 1 8 0;
#X connect 11 1 13 1;
#X connect 13 0 0 1;
#X connect 13 1 0 2;
#X connect 13 2 0 3;
#X connect 13 3 0 4;
#X connect 13 4 0 5;
#X connect 15 0 0 0;
#X connect 17 0 18 0;
#X connect 17 0 20 0;
#X connect 18 0 21 0;
#X connect 22 0 19 0;
#X connect 23 0 22 0;
#X connect 23 0 17 0;
#X connect 24 0 4 0;
#X connect 24 1 7 0;
