#N canvas 518 44 563 682 10;
#X obj 5 634 cnv 15 552 21 empty empty empty 20 12 0 14 -233017 -33289
0;
#X obj 5 401 cnv 3 550 3 empty empty inlets 8 12 0 13 -228856 -1 0
;
#N canvas 618 277 360 227 META 0;
#X text 1 19 LICENSE SIBSD;
#X text 1 95 LIBRARY cyclone;
#X text 1 76 OUTLET_0 signal;
#X text 1 0 KEYWORDS signal sample playback play position;
#X text 1 38 DESCRIPTION position based sample playback;
#X text 1 57 INLET_0 signal set x;
#X text 0 114 VERSION 0.2-beta1;
#X text 0 132 AUTHOR Krzysztof Czaja;
#X text 1 150 RELEASE_DATE 2002;
#X text 2 169 WEBSITE http://suita.chopin.edu.pl/~czaja/miXed/externs/cyclone.html
;
#X text 2 201 HELP_PATCH_AUTHORS Christoph Kummerer. Revised by Jonathan
Wilkes for Pd-extended 0.42 to conform to the PDDP template. Alex Cleveland
updated this patch for Pd-l2ork version 2013.05.28. Fred Jan Kraan
adapted the patch to pd-extended 2015-02-02;
#X restore 508 636 pd META;
#X obj 5 457 cnv 3 550 3 empty empty outlets 8 12 0 13 -228856 -1 0
;
#X obj 5 494 cnv 3 550 3 empty empty arguments 8 12 0 13 -228856 -1
0;
#N canvas 320 399 428 109 Related_objects 0;
#X obj 0 0 cnv 15 425 20 empty empty empty 3 12 0 14 -204280 -1 0;
#X text 6 1 Related Objects;
#X obj 70 47 cyclone/index~;
#X restore 213 636 pd Related_objects;
#X obj 86 409 cnv 17 3 35 empty empty 0 5 9 0 16 -228856 -162280 0
;
#X obj 87 465 cnv 17 3 17 empty empty 0 5 9 0 16 -228856 -162280 0
;
#X obj 5 40 cnv 15 552 40 empty empty play~ 3 12 0 18 -204280 -1 0
;
#X obj 510 49 play~;
#X text 128 408 signal;
#X text 111 465 signal;
#X text 93 525 2) float;
#X obj 181 323 output~;
#X obj 196 217 phasor~;
#X text 186 408 - signal to control positional playback in ms;
#X text 17 63 Position-based sample playback;
#X obj 196 249 *~;
#N canvas 116 23 436 325 load 0;
#X obj 60 121 soundfiler;
#X obj 154 133 table \$0-voice;
#X obj 60 149 - 1;
#X obj 0 1 cnv 15 425 20 empty empty empty 3 12 0 14 -204280 -1 0;
#X floatatom 60 174 5 0 0 0 - - -, f 5;
#X obj 60 198 cyclone/sampstoms~;
#X obj 165 232 outlet;
#X text 14 5 load sample;
#X obj 60 88 cyclone/loadmess read -resize voice.wav \$0-voice;
#X connect 0 0 2 0;
#X connect 2 0 4 0;
#X connect 4 0 5 0;
#X connect 5 1 6 0;
#X connect 8 0 0 0;
#X restore 263 218 pd load sample;
#X floatatom 263 246 0 0 0 0 - - -;
#X obj 199 169 hsl 128 15 -1 1 0 0 empty \$0-freq empty -2 -8 0 10
-228856 -1 -1 0 1;
#X floatatom 196 194 5 0 0 0 - - -, f 5;
#X text 171 167 -1;
#X text 335 168 1;
#X text 318 247 ms;
#X text 93 504 1) symbol;
#X text 186 503 - table name;
#X obj 196 283 cyclone/play~ \$0-voice;
#X text 186 525 - number of output channels: 1 \, 2 \, or 4 (default
1);
#X text 186 428 - set <symbol>: sets array name;
#X text 111 428 messages:;
#X text 92 97 [play~] reads an array with interpolation. Position is
specified in ms by a signal.;
#X text 186 465 - the playback of the array;
#X obj 5 546 cnv 3 550 3 empty empty more_info 8 12 0 13 -228856 -1
0;
#X text 139 561 If the buffer~ being played has fewer channels than
the number of play~ output channels \, the extra channels output a
zero signal. If the buffer~ has more channels \, channels are mixed
(not implemented).;
#N canvas 439 241 715 321 (subpatch) 0;
#X obj 51 51 cnv 15 552 28 empty empty Cyclone: 6 13 0 18 -128992 -233080
0;
#X obj 217 65 cnv 5 5 5 empty empty Library 0 0 0 12 -128992 -233080
0;
#X obj 275 65 cnv 5 5 5 empty empty of 0 0 0 12 -128992 -233080 0;
#X obj 298 64 cnv 5 5 5 empty empty objects 0 0 0 12 -128992 -233080
0;
#X obj 356 64 cnv 5 5 5 empty empty cloned 0 0 0 12 -128992 -233080
0;
#X obj 406 64 cnv 5 5 5 empty empty from 0 0 0 12 -128992 -233080 0
;
#X obj 444 64 cnv 5 5 5 empty empty Max/MSP 0 0 0 12 -128992 -233080
0;
#X coords 0 -1 1 1 554 30 1 50 50;
#X restore 4 6 pd;
#X connect 14 0 17 0;
#X connect 17 0 27 0;
#X connect 18 0 19 0;
#X connect 19 0 17 1;
#X connect 20 0 21 0;
#X connect 21 0 14 0;
#X connect 27 0 13 0;
#X connect 27 0 13 1;
