#N canvas 421 30 572 529 10;
#X obj 2 401 cnv 3 550 3 empty empty inlets 8 12 0 13 -228856 -1 0
;
#X obj 2 476 cnv 3 550 3 empty empty outlets 8 12 0 13 -228856 -1 0
;
#X obj 2 548 cnv 3 550 3 empty empty arguments 8 12 0 13 -228856 -1
0;
#X obj 84 414 cnv 17 3 17 empty empty 0 5 9 0 16 -228856 -162280 0
;
#X obj 2 45 cnv 15 552 48 empty empty poltocar 4 14 0 18 -204280 -1
0;
#X obj 84 438 cnv 17 3 17 empty empty 1 5 9 0 16 -228856 -162280 0
;
#X obj 84 486 cnv 17 3 17 empty empty 0 5 9 0 16 -228856 -162280 0
;
#X obj 84 511 cnv 17 3 17 empty empty 1 5 9 0 16 -228856 -162280 0
;
#X text 118 561 (none);
#X obj 485 53 poltocar;
#X text 15 71 polar to cartesian conversion;
#X floatatom 109 243 5 0 0 0 - - -, f 5;
#X floatatom 193 203 5 0 0 1 - - -, f 5;
#X floatatom 109 334 5 0 0 0 - - -, f 5;
#X floatatom 220 334 5 0 0 1 - - -, f 5;
#X obj 367 232 hsl 128 15 -1 1 0 0 empty empty x-axis 133 7 1 10 -216373
-66577 -1 0 1;
#X obj 423 173 vsl 15 128 -1 1 0 0 empty empty y-axis 20 2 1 10 -216373
-66577 -1 0 1;
#X obj 193 226 t b f;
#X obj 112 174 hsl 64 25 -1 1 0 0 empty empty amplitude 10 12 1 10
-261681 -1 -1 0 1;
#X obj 196 174 hsl 64 25 0 6.28318 0 0 empty empty phase 16 12 1 10
-225280 -1 -1 0 1;
#N canvas 480 230 429 300 mosc 0;
#X obj 189 254 outlet;
#X obj 189 115 f;
#X obj 217 115 + 1;
#X floatatom 210 141 5 0 0 0 - - -, f 5;
#X msg 151 82 0;
#X obj 189 48 inlet;
#X obj 189 211 * 6.28319;
#X obj 189 80 metro 100;
#X floatatom 148 212 5 0 0 0 - - -, f 5;
#X obj 122 142 moses 99;
#X obj 189 189 / 100;
#X obj 2 2 cnv 15 425 20 empty empty empty 3 12 0 14 -204280 -1 0;
#X text 4 5 complex message oscillator;
#X connect 1 0 2 0;
#X connect 1 0 3 0;
#X connect 1 0 9 0;
#X connect 1 0 10 0;
#X connect 2 0 1 1;
#X connect 4 0 1 0;
#X connect 5 0 7 0;
#X connect 6 0 8 0;
#X connect 6 0 0 0;
#X connect 7 0 1 0;
#X connect 9 1 4 0;
#X connect 10 0 6 0;
#X restore 193 142 pd mosc;
#X obj 193 115 tgl 20 0 empty empty empty 17 7 0 10 -216373 -66577
-1 0 1;
#X obj 109 283 cyclone/poltocar, f 19;
#X obj 2 2 cyclone/fancy/cyheader;
#X obj 2 628 cnv 1 550 1 empty empty empty 0 0 0 4 -262144 -262144
0;
#X obj 2 607 cnv 15 552 21 empty empty empty 20 12 0 14 -233017 -33289
0;
#N canvas 494 102 391 362 META 0;
#X text 11 29 LICENSE SIBSD;
#X text 11 143 LIBRARY cyclone;
#X text 11 10 KEYWORDS polar cartesian conversion coordinate graph
;
#X text 11 48 DESCRIPTION polar to cartesian conversion;
#X text 11 67 INLET_0 float;
#X text 11 86 INLET_1 float;
#X text 11 124 OUTLET_1 float;
#X text 11 105 OUTLET_1 float;
#X text 10 163 VERSION 0.2-beta1;
#X text 10 181 AUTHOR Krzysztof Czaja;
#X text 11 199 RELEASE_DATE 2002;
#X text 12 218 WEBSITE http://suita.chopin.edu.pl/~czaja/miXed/externs/cyclone.html
;
#X text 12 250 HELP_PATCH_AUTHORS Christoph Kummerer. Revised by Jonathan
Wilkes for Pd-extended 0.42 to conform to the PDDP template. Alex Cleveland
updated this patch for Pd-l2ork version 2013.05.28. Fred Jan Kraan
adapted the patch to pd-extended 2015-02-02. Esteban Viveros updated
this patch for Pd-Vanilla 0.47-2.;
#X restore 502 609 pd META;
#N canvas 367 147 430 84 Related_objects 0;
#X obj 2 2 cnv 15 425 20 empty empty empty 3 12 0 14 -204280 -1 0;
#X text 8 3 Related Objects;
#X obj 78 32 cyclone/cartopol;
#X obj 15 32 cos;
#X obj 46 32 sin;
#X restore 214 610 pd Related_objects;
#X obj 109 353 s y-axis;
#X obj 220 353 s x-axis;
#X obj 364 208 r x-axis;
#X obj 423 144 r y-axis;
#X obj 68 336 cyclone/comment 100 11 helvetica ? 0 80 80 80 real -->
;
#X obj 40 246 cyclone/comment 100 11 helvetica ? 0 80 80 80 amplitude
-->;
#X obj 230 205 cyclone/comment 100 11 helvetica ? 0 80 80 80 <-- phase
;
#X obj 256 336 cyclone/comment 100 11 helvetica ? 0 80 80 80 <-- imaginary
;
#X obj 264 175 cyclone/comment 100 11 helvetica ? 0 80 80 80 (0 to
2pi);
#X obj 22 174 cyclone/comment 100 11 helvetica ? 0 80 80 80 set amplitude
-->;
#X obj 220 118 cyclone/comment 100 11 helvetica ? 0 80 80 80 <--- click
to start;
#X obj 467 378 cnv 12 73 19 empty empty empty 0 0 0 18 -257983 -1 0
;
#N canvas 319 99 585 277 Examples 0;
#X obj 2 2 cnv 15 580 40 empty empty poltocar 3 12 0 18 -204280 -1
0;
#X obj 2 253 cnv 15 580 21 empty empty empty 20 12 0 14 -233017 -33289
0;
#X text 49 25 examples;
#N canvas 547 175 383 90 credits 0;
#X text 114 28 From Max 7 Documentation;
#X restore 503 255 pd credits;
#X msg 49 95 1;
#X floatatom 49 173 5 0 0 0 - - -, f 5;
#X floatatom 142 173 5 0 0 0 - - -, f 5;
#X floatatom 229 173 5 0 0 0 - - -, f 5;
#X floatatom 322 173 5 0 0 0 - - -, f 5;
#X floatatom 399 173 5 0 0 0 - - -, f 5;
#X floatatom 492 173 5 0 0 0 - - -, f 5;
#X msg 492 95 0;
#X obj 249 59 cyclone/comment 100 10 monaco ? 0 80 80 80 x \, theta
in;
#X obj 265 210 cyclone/comment 100 10 monaco ? 0 80 80 80 x \, y out
;
#X obj 49 131 cyclone/poltocar;
#X obj 229 131 cyclone/poltocar;
#X obj 399 131 cyclone/poltocar;
#X msg 142 95 3.14;
#X msg 229 95 0.5;
#X msg 322 95 1.57;
#X msg 399 95 1;
#X connect 4 0 14 0;
#X connect 11 0 16 1;
#X connect 14 0 5 0;
#X connect 14 1 6 0;
#X connect 15 0 7 0;
#X connect 15 1 8 0;
#X connect 16 0 9 0;
#X connect 16 1 10 0;
#X connect 17 0 14 1;
#X connect 18 0 15 0;
#X connect 19 0 15 1;
#X connect 20 0 16 0;
#X restore 467 378 pd Examples;
#X text 158 416 -;
#X text 118 416 float;
#X text 158 440 -;
#X text 118 440 float;
#X text 158 488 -;
#X text 118 488 float;
#X text 158 512 -;
#X text 118 512 float;
#X text 173 416 amplitude, f 60;
#X text 173 440 phase, f 60;
#X text 173 488 real part of argument, f 60;
#X text 173 512 imaginary part of argument, f 60;
#X connect 11 0 22 0;
#X connect 12 0 17 0;
#X connect 13 0 28 0;
#X connect 14 0 29 0;
#X connect 17 0 11 0;
#X connect 17 1 22 1;
#X connect 18 0 11 0;
#X connect 19 0 12 0;
#X connect 20 0 19 0;
#X connect 21 0 20 0;
#X connect 22 0 13 0;
#X connect 22 1 14 0;
#X connect 30 0 15 0;
#X connect 31 0 16 0;
