#N canvas 401 28 572 529 10;
#X obj 2 45 cnv 15 552 48 empty empty prepend 4 14 0 18 -204280 -1
0;
#X obj 2 346 cnv 3 550 3 empty empty inlets 8 12 0 13 -228856 -1 0
;
#X obj 2 491 cnv 3 550 3 empty empty outlets 8 12 0 13 -228856 -1 0
;
#X obj 2 538 cnv 3 550 3 empty empty arguments 8 12 0 13 -228856 -1
0;
#X obj 81 500 cnv 17 3 17 empty empty 0 5 9 0 16 -228856 -162280 0
;
#X obj 81 360 cnv 17 3 17 empty empty 0 5 9 0 16 -228856 -162280 0
;
#X text 10 70 prepend a message with another message;
#X obj 493 53 prepend;
#X msg 165 146 set a quick brown fox;
#X msg 201 174 jumps;
#X obj 176 230 prepend typewriters;
#X msg 122 116 are boring;
#X obj 176 260 prepend set;
#X msg 176 287 a quick brown fox jumps;
#N canvas 403 94 430 381 extended 0;
#X msg 79 129 set a quick brown fox;
#X msg 123 155 jumps;
#X msg 38 104 are boring;
#X obj 129 283 prepend set;
#X msg 129 310 this is not set a quick brown fox;
#X msg 198 192 typewriters;
#X obj 129 258 prepend;
#X msg 168 192 234;
#X msg 279 192 symbol people;
#X msg 279 214 list this is a list;
#X msg 279 238 this is not;
#X obj 2 2 cnv 15 425 20 empty empty empty 3 12 0 14 -204280 -1 0;
#X text 5 4 Extra non-Max functionality;
#X obj 218 131 cyclone/comment 200 11 helvetica ? 0 80 80 80 now the
"set" is passed thru;
#X obj 25 104 cyclone/comment 200 11 helvetica ? 0 80 80 80 1;
#X obj 66 129 cyclone/comment 200 11 helvetica ? 0 80 80 80 2;
#X obj 109 157 cyclone/comment 200 11 helvetica ? 0 80 80 80 3;
#X obj 23 39 cyclone/comment 380 11 helvetica ? 0 80 80 80 This object
also has a non-Max/MSP behavior (although it is still compatible with
the Max/MSP prepend). If [prepend] is created without an argument \,
then it has a right inlet. This right inlet allows you to set what
to prepend:;
#X connect 0 0 6 0;
#X connect 1 0 6 0;
#X connect 2 0 6 0;
#X connect 3 0 4 0;
#X connect 5 0 6 1;
#X connect 6 0 3 0;
#X connect 7 0 6 1;
#X connect 8 0 6 1;
#X connect 9 0 6 1;
#X connect 10 0 6 1;
#X restore 397 319 pd extended behaviour;
#X text 98 547 the default message;
#X obj 2 2 cyclone/fancy/cyheader;
#X obj 2 614 cnv 1 550 1 empty empty empty 0 0 0 4 -262144 -262144
0;
#X obj 2 593 cnv 15 552 21 empty empty empty 20 12 0 14 -233017 -33289
0;
#N canvas 345 143 430 74 Related_objects 0;
#X obj 2 2 cnv 15 425 20 empty empty empty 3 12 0 14 -204280 -1 0;
#X text 8 3 Related Objects;
#X obj 11 30 abs~;
#X obj 49 30 route;
#X obj 93 30 cyclone/Append;
#X restore 208 595 pd Related_objects;
#N canvas 495 103 392 322 META 0;
#X text 12 173 WEBSITE http://suita.chopin.edu.pl/~czaja/miXed/externs/cyclone.html
;
#X text 12 131 AUTHOR Krzysztof Czaja;
#X text 12 30 LICENSE SIBSD;
#X text 11 111 VERSION 0.2-beta1;
#X text 11 152 RELEASE_DATE 2002;
#X text 12 10 KEYWORDS signal max_compatible anything_op;
#X text 12 50 DESCRIPTION prepend a message with another message;
#X text 12 70 INLET_0 bang float list anything set;
#X text 12 90 OUTLET_0 list;
#X text 12 203 HELP_PATCH_AUTHORS Christoph Kummerer. Revised by Jonathan
Wilkes for Pd-extended 0.42 to conform to the PDDP template. Alex Cleveland
updated this patch for Pd-l2ork version 2013.05.28. Fred Jan Kraan
adapted the patch to pd-extended 2015-02-02. Esteban Viveros updated
this patch for Pd-Vanilla 0.47-2.;
#X restore 504 595 pd META;
#X obj 308 151 cyclone/comment 200 11 helvetica ? 0 80 80 80 "set"
changes what to prepend;
#X obj 108 117 cyclone/comment 200 11 helvetica ? 0 80 80 80 1;
#X obj 151 147 cyclone/comment 200 11 helvetica ? 0 80 80 80 2;
#X obj 189 175 cyclone/comment 200 11 helvetica ? 0 80 80 80 3;
#X text 158 380 -;
#X text 125 380 bang;
#X text 158 401 -;
#X text 118 401 float;
#X text 158 422 -;
#X text 158 360 -;
#X text 124 422 list;
#X text 100 360 anything;
#X text 158 442 -;
#X text 107 442 message;
#X text 173 360 the message in prepend will be send with the value
attached, f 60;
#X text 173 380 same as anything (the message and 'bang'), f 60;
#X text 173 401 same as anything, f 60;
#X text 173 442 "set <m>":;
#X text 239 442 the message <m> will replace the message in prepend
, f 49;
#X text 173 422 same as anything, f 60;
#X text 158 502 -;
#X text 124 502 list;
#X text 173 502 the "message" + anything, f 60;
#X connect 8 0 10 0;
#X connect 9 0 10 0;
#X connect 10 0 12 0;
#X connect 11 0 10 0;
#X connect 12 0 13 0;
