#N canvas 153 43 565 693 10;
#X declare -stdlib cyclone/cyclone;
#X declare -stdlib cyclone/cyclone;
#X obj 8 41 cnv 15 552 50 empty empty !/ 3 12 0 18 -204280 -1 0;
#X obj 13 385 cnv 3 550 3 empty empty outlets 8 12 0 13 -228856 -1
0;
#X obj 13 432 cnv 3 550 3 empty empty arguments 8 12 0 13 -228856 -1
0;
#X obj 91 397 cnv 17 3 17 empty empty 0 5 9 0 16 -228856 -162280 0
;
#X obj 91 285 cnv 17 3 44 empty empty 0 5 9 0 16 -228856 -162280 0
;
#X obj 13 271 cnv 3 550 3 empty empty inlets 8 12 0 13 -228856 -1 0
;
#X obj 91 337 cnv 17 3 17 empty empty 1 5 9 0 16 -228856 -162280 0
;
#X obj 91 285 cnv 17 3 17 empty empty 0 5 9 0 16 -228856 -162280 0
;
#X text 114 447 1) float -;
#X floatatom 290 162 5 0 0 0 - - -, f 5;
#X floatatom 244 165 5 0 0 0 - - -, f 5;
#X floatatom 95 177 5 0 0 0 - - -, f 5;
#X floatatom 182 174 5 0 0 0 - - -, f 5;
#X obj 260 195 !/;
#X obj 532 69 !/;
#X text 82 108 [rdiv] or [!/] divides a number by the incoming value.
Functions like the [/] object \, but the inlets' functions are reversed.
;
#X floatatom 95 238 0 0 0 0 - - -;
#X obj 526 47 rdiv;
#X text 130 285 float;
#X text 133 312 bang;
#X text 187 313 - Performs the division with the numbers currently
stored.;
#X obj 47 178 bng 15 250 50 0 empty empty empty 17 7 0 10 -228856 -1
-1;
#X text 130 337 float;
#X text 190 281 - The value that right inlet's value or argument will
be divided by - it's a hot inlet (produces output).;
#X text 190 335 - Numbers received in the right inlet are divided by
numbers received in the left inlet (cold inlet).;
#X text 205 396 - The division of the two numbers.;
#X text 129 398 float;
#X floatatom 260 223 0 0 0 0 - - -;
#X obj 412 176 swap;
#X obj 414 203 /;
#X obj 95 205 cyclone/rdiv 10;
#X floatatom 444 153 5 0 0 0 - - -, f 5;
#X floatatom 398 153 5 0 0 0 - - -, f 5;
#X floatatom 414 230 5 0 0 0 - - -, f 5;
#X text 346 193 same as:;
#N canvas 439 241 715 321 (subpatch) 0;
#X obj 51 51 cnv 15 552 28 empty empty Cyclone: 6 13 0 18 -128992 -233080
0;
#X obj 217 65 cnv 5 5 5 empty empty Library 0 0 0 12 -128992 -233080
0;
#X obj 275 65 cnv 5 5 5 empty empty of 0 0 0 12 -128992 -233080 0;
#X obj 298 64 cnv 5 5 5 empty empty objects 0 0 0 12 -128992 -233080
0;
#X obj 356 64 cnv 5 5 5 empty empty cloned 0 0 0 12 -128992 -233080
0;
#X obj 406 64 cnv 5 5 5 empty empty from 0 0 0 12 -128992 -233080 0
;
#X obj 444 64 cnv 5 5 5 empty empty Max/MSP 0 0 0 12 -128992 -233080
0;
#X coords 0 -1 1 1 554 30 1 50 50;
#X restore 7 4 pd;
#X text 189 447 sets an initial value for the divisor (default 0).
;
#X obj 50 54 cnv 5 5 5 empty empty or 0 0 0 15 -204280 -1 0;
#X obj 81 54 cnv 5 5 5 empty empty rdiv 0 0 0 18 -204280 -1 0;
#X text 20 68 Revered inlets division (divide input from a number)
;
#X text 509 68 or;
#X obj 5 647 cnv 15 552 21 empty empty empty 20 12 0 14 -233017 -33289
0;
#N canvas 502 391 401 260 META 0;
#X text 0 22 LICENSE SIBSD;
#X text 0 102 LIBRARY cyclone;
#X text 0 62 INLET_0 signal;
#X text 0 82 OUTLET_0 signal;
#X text 0 42 DESCRIPTION takes the arc tangent function for signals
;
#X text 0 0 KEYWORDS arc tangent arctangent arctan atan signal;
#X text 0 123 VERSION 0.2-beta1;
#X text 0 141 AUTHOR Krzysztof Czaja;
#X text 1 159 RELEASE_DATE 2002;
#X text 2 178 WEBSITE http://suita.chopin.edu.pl/~czaja/miXed/externs/cyclone.html
;
#X text 2 210 HELP_PATCH_AUTHORS Christoph Kummerer. Revised by Jonathan
Wilkes for Pd-extended 0.42 to conform to the PDDP template. Alex Cleveland
updated this patch for Pd-l2ork version 2013.05.28. Fred Jan Kraan
adapted the patch to pd-extended 2015-02-02;
#X restore 508 649 pd META;
#N canvas 232 526 441 120 Related_objects 0;
#X obj 0 0 cnv 15 425 20 empty empty empty 3 12 0 14 -204280 -1 0;
#X text 6 1 Related Objects;
#X restore 196 649 pd Related_objects;
#X text 121 616 more about the cyclone sub-library;
#X obj 5 484 cnv 3 550 3 empty empty cyclone_sub-library 8 12 0 13
-228856 -1 0;
#X obj 290 579 declare -stdlib cyclone/cyclone;
#X obj 341 615 cyclone-help;
#X text 117 515 [rdiv] is a single binary in cyclone \, but [!/] is
only created if you load the sub-library "cyclone" in the startup as
informed in "How to Install". You can also load the cyclone library
with [declare] like this:;
#X connect 9 0 13 1;
#X connect 10 0 13 0;
#X connect 11 0 30 0;
#X connect 12 0 30 1;
#X connect 13 0 27 0;
#X connect 21 0 30 0;
#X connect 28 0 29 0;
#X connect 28 1 29 1;
#X connect 29 0 33 0;
#X connect 30 0 16 0;
#X connect 31 0 28 1;
#X connect 32 0 28 0;
