#N canvas 424 23 566 791 10;
#X obj 7 740 cnv 15 552 21 empty empty empty 20 12 0 14 -233017 -33289
0;
#X obj 7 341 cnv 3 550 3 empty empty inlets 8 12 0 13 -228856 -1 0
;
#N canvas 621 318 349 250 META 0;
#X text 0 19 LICENSE SIBSD;
#X text 0 133 LIBRARY cyclone;
#X text 0 114 OUTLET_0 signal;
#X text 0 0 KEYWORDS signal read write sample record;
#X text 0 38 DESCRIPTION read and write sample values;
#X text 0 57 INLET_0 signal toggle set;
#X text 0 95 INLET_2 float;
#X text 0 76 INLET_1 float;
#X text 0 154 VERSION 0.2-beta1;
#X text 0 172 AUTHOR Krzysztof Czaja;
#X text 1 190 RELEASE_DATE 2002;
#X text 2 209 WEBSITE http://suita.chopin.edu.pl/~czaja/miXed/externs/cyclone.html
;
#X text 2 241 HELP_PATCH_AUTHORS Christoph Kummerer. Revised by Jonathan
Wilkes for Pd-extended 0.42 to conform to the PDDP template. Alex Cleveland
updated this patch for Pd-l2ork version 2013.05.28. Fred Jan Kraan
adapted the patch to pd-extended 2015-02-02;
#X restore 509 742 pd META;
#X obj 7 584 cnv 3 550 3 empty empty outlets 8 12 0 13 -228856 -1 0
;
#X obj 7 660 cnv 3 550 3 empty empty arguments 8 12 0 13 -228856 -1
0;
#N canvas 299 459 428 109 Related_objects 0;
#X obj 0 0 cnv 15 425 20 empty empty empty 3 12 0 14 -204280 -1 0;
#X text 6 1 Related Objects;
#X obj 14 30 tabwrite~;
#X restore 200 742 pd Related_objects;
#X obj 80 349 cnv 17 3 175 empty empty 0 5 9 0 16 -228856 -162280 0
;
#X obj 80 536 cnv 17 3 17 empty empty n-1 5 9 0 16 -228856 -162280
0;
#X obj 7 42 cnv 15 552 40 empty empty record~ 3 12 0 18 -204280 -1
0;
#X obj 498 52 record~;
#X text 118 593 signal;
#X text 135 348 signal;
#X text 193 348 - signal to record;
#X obj 80 561 cnv 17 3 17 empty empty n 5 9 0 16 -228856 -162280 0
;
#X text 140 536 float;
#X obj 88 593 cnv 17 3 17 empty empty 0 5 9 0 16 -228856 -162280 0
;
#X text 140 561 float;
#X text 113 684 2) float;
#X obj 258 186 tgl 25 0 empty empty empty 0 -6 0 8 -228856 -1 -1 0
1;
#X floatatom 299 307 5 0 0 0 - - -, f 5;
#X msg 361 190 loop \$1;
#X obj 361 167 tgl 15 0 empty empty empty 0 -6 0 8 -262144 -1 -1 0
1;
#X floatatom 369 223 5 0 0 0 - - -, f 5;
#X floatatom 440 223 5 0 0 0 - - -, f 5;
#X text 22 163 1;
#X text 15 299 -1;
#X text 18 65 Record sound into an array;
#X obj 299 283 cyclone/Snapshot~ 10;
#X text 141 366 float;
#X text 147 382 list;
#X text 193 383 - list can be used to specify loop-start and loop-end
points or timing/synchronization settings for transport.;
#X text 119 412 messages:;
#X text 193 412 - set <symbol>: change array for recording values \;
- <reset>: resets the record-loop points to the default values (record
through the whole duration of the array) \; - <loop> followed by a
non-zero number enables loop mode (continue recording at start point
when reaching the end). <loop 0> disables it (default) \; - <append>
followed by a non-zero number enables append mode (when recording is
on \, continues from where was last stopped). <append 0> disables it
(default).;
#X text 193 366 - 0 stops recording. Any non-zero number starts recording.
;
#X text 80 93 [record~] records a signal into an array. You can record
up to 4 channels by specifying the optional argument. Recording stops
when the array is filled.;
#X text 113 664 1) symbol;
#X text 190 663 - array name (required);
#X text 190 681 - number of input channels (1 \, 2 \, or 4). This determines
the number of inlets [record~] has ("n"). The two rightmost inlets
(n-1 & n) always set start and end points.;
#X text 191 539 - startpoint in ms (default 0);
#X text 193 561 - endpoint in ms (default array size);
#X obj 299 160 noise~;
#X text 194 591 - Sync output. During recording \, this outlet outputs
a signal that goes from 0 when recording at the start point to 1 when
recording reaches the end point. When not recording \, a zero signal
is output.;
#X obj 299 247 cyclone/record~ \$0-array;
#N canvas 317 156 444 439 multichannel 0;
#X obj 55 122 adc~;
#X obj 38 93 tgl 15 0 empty empty empty 0 -6 0 8 -262144 -1 -1 0 1
;
#X text 24 71 optional int arg is nr of channels:;
#X text 172 165 can be 1 \, 2 or 4;
#X text 24 197 table naming convention is;
#X text 25 210 0...4-tablename:;
#X text 23 58 enable multichannel by using an;
#X obj 3 4 cnv 15 425 20 empty empty empty 3 12 0 14 -204280 -1 0;
#X obj 151 248 hsl 75 60 0 127 0 0 eliminate_outlet eliminate_inlet
empty -2 -8 0 10 -262144 -262144 -262144 0 1;
#X obj 53 247 hsl 75 60 0 127 0 0 eliminate_outlet eliminate_inlet
empty -2 -8 0 10 -262144 -262144 -262144 0 1;
#N canvas 0 22 450 300 (subpatch) 0;
#X array 1-smp 22050 float 0;
#X coords 0 1 22049 -1 80 60 1 0 0;
#X restore 148 248 graph;
#N canvas 0 22 450 300 (subpatch) 0;
#X array 0-smp 22050 float 0;
#X coords 0 1 22049 -1 80 60 1;
#X restore 50 247 graph;
#X text 134 241 1;
#X text 129 291 -1;
#X obj 38 166 cyclone/record~ smp 2;
#X text 6 5 multi channel;
#X text 35 335 The record object also takes into account any changes
in the buffer~ object’s sampling rate if the buffer~ object’s length
is modified for the purpose of establishing loop points.;
#X connect 0 0 14 0;
#X connect 0 1 14 1;
#X connect 1 0 14 0;
#X restore 452 286 pd multichannel;
#X obj 38 170 cnv 15 198 138 empty empty empty 20 12 0 14 -233017 -66577
0;
#N canvas 1 80 450 300 (subpatch) 0;
#X array \$0-array 44100 float 0;
#X coords 0 1 44099 -1 200 140 1 0 0;
#X restore 37 169 graph;
#N canvas 439 241 715 321 (subpatch) 0;
#X obj 51 51 cnv 15 552 28 empty empty Cyclone: 6 13 0 18 -128992 -233080
0;
#X obj 217 65 cnv 5 5 5 empty empty Library 0 0 0 12 -128992 -233080
0;
#X obj 275 65 cnv 5 5 5 empty empty of 0 0 0 12 -128992 -233080 0;
#X obj 298 64 cnv 5 5 5 empty empty objects 0 0 0 12 -128992 -233080
0;
#X obj 356 64 cnv 5 5 5 empty empty cloned 0 0 0 12 -128992 -233080
0;
#X obj 406 64 cnv 5 5 5 empty empty from 0 0 0 12 -128992 -233080 0
;
#X obj 444 64 cnv 5 5 5 empty empty Max/MSP 0 0 0 12 -128992 -233080
0;
#X coords 0 -1 1 1 554 30 1 50 50;
#X restore 6 8 pd;
#N canvas 673 40 366 264 (subpatch) 0;
#X obj 51 101 tgl 42 0 \$0-tgl-s \$0-tgl-r empty 1 8 1 9 -74965 -212593
-262144 1 1;
#X obj 215 68 route dsp;
#X obj 215 37 receive pd;
#N canvas 939 367 324 271 set_color 0;
#X obj 47 30 inlet;
#X obj 96 146 s \$0-cnv;
#X msg 96 114 color -4.86997e+06 -1.34937e+07;
#N canvas 0 22 712 637 off 0;
#X obj 490 220 * -1;
#X obj 424 300 +;
#X obj 409 325 +;
#X obj 347 219 * -65536;
#X obj 424 220 * -256;
#X obj 409 356 - 1;
#X obj 390 189 unpack f f f;
#X obj 225 295 +;
#X obj 210 320 +;
#X obj 148 214 * -65536;
#X obj 225 215 * -256;
#X obj 291 215 * -1;
#X obj 210 351 - 1;
#X obj 191 184 unpack f f f;
#X obj 379 423 pack;
#X msg 378 447 color \$1 \$2;
#X msg 395 152 124 124 124;
#X msg 203 154 220 220 220;
#X obj 238 121 t b b;
#X obj 238 81 inlet;
#X obj 378 485 outlet;
#X connect 0 0 1 1;
#X connect 1 0 2 1;
#X connect 2 0 5 0;
#X connect 3 0 2 0;
#X connect 4 0 1 0;
#X connect 5 0 14 1;
#X connect 6 0 3 0;
#X connect 6 1 4 0;
#X connect 6 2 0 0;
#X connect 7 0 8 1;
#X connect 8 0 12 0;
#X connect 9 0 8 0;
#X connect 10 0 7 0;
#X connect 11 0 7 1;
#X connect 12 0 14 0;
#X connect 13 0 9 0;
#X connect 13 1 10 0;
#X connect 13 2 11 0;
#X connect 14 0 15 0;
#X connect 15 0 20 0;
#X connect 16 0 6 0;
#X connect 17 0 13 0;
#X connect 18 0 17 0;
#X connect 18 1 16 0;
#X connect 19 0 18 0;
#X restore 47 113 pd off;
#X obj 47 83 select 0 1;
#X obj 47 168 list append 0;
#X obj 47 195 list trim;
#X obj 47 220 s \$0-tgl-r;
#X connect 0 0 4 0;
#X connect 2 0 1 0;
#X connect 2 0 5 0;
#X connect 3 0 1 0;
#X connect 3 0 5 0;
#X connect 4 0 3 0;
#X connect 4 1 2 0;
#X connect 5 0 6 0;
#X connect 6 0 7 0;
#X restore 215 165 pd set_color;
#X obj 135 122 r \$0-tgl-s;
#N canvas 0 22 450 300 (subpatch) 0;
#X obj 101 101 cnv 25 40 25 empty \$0-cnv DSP 3 13 0 20 -74965 -212593
0;
#X coords 0 -1 1 1 42 27 1 100 100;
#X restore 51 144 pd;
#X obj 226 139 s \$0-tgl-r;
#X msg 226 115 set \$1;
#X msg 135 177 \; pd dsp \$1;
#N canvas 256 32 278 194 load_check 0;
#X obj 136 53 sig~ 1;
#X obj 74 24 loadbang;
#X obj 136 86 snapshot~;
#X obj 91 52 del 5;
#X obj 136 151 outlet;
#X obj 74 103 tgl 15 0 empty empty empty 17 7 0 10 -262144 -1 -1 0
1;
#X obj 74 126 switch~;
#X connect 0 0 2 0;
#X connect 1 0 3 0;
#X connect 1 0 5 0;
#X connect 2 0 4 0;
#X connect 3 0 2 0;
#X connect 3 0 5 0;
#X connect 5 0 6 0;
#X restore 51 72 pd load_check;
#X connect 1 0 3 0;
#X connect 1 0 7 0;
#X connect 2 0 1 0;
#X connect 4 0 8 0;
#X connect 4 0 3 0;
#X connect 7 0 6 0;
#X connect 9 0 0 0;
#X coords 0 -1 1 1 44 72 2 50 100;
#X restore 504 93 pd;
#X connect 18 0 42 0;
#X connect 20 0 42 0;
#X connect 21 0 20 0;
#X connect 22 0 42 1;
#X connect 23 0 42 2;
#X connect 27 0 19 0;
#X connect 40 0 42 0;
#X connect 42 0 27 0;
