#N canvas 411 44 343 271 10;
#X obj 145 27 inlet~;
#X obj 95 27 inlet~;
#X obj 196 27 inlet~;
#N canvas 226 68 579 212 args 0;
#X obj 63 83 expr~ if ($v1 == 0 \, \$1 \, $v1);
#X obj 63 44 inlet~;
#X obj 63 117 outlet~;
#X obj 265 45 inlet~;
#X obj 265 118 outlet~;
#X obj 265 84 expr~ if ($v1 == 0 \, if(\$2 == 0 \, 0.5 \, \$2) \, $v1)
;
#X connect 0 0 2 0;
#X connect 1 0 0 0;
#X connect 3 0 5 0;
#X connect 5 0 4 0;
#X restore 95 62 pd args;
#X obj 95 201 outlet~;
#N canvas 494 384 547 277 oscillator 0;
#X obj 107 219 outlet~;
#X obj 87 27 inlet~ lin;
#X obj 241 24 inlet~ lin;
#N canvas 457 142 438 359 lowpass_butterworth_10 0;
#X obj 32 25 inlet~;
#X obj 110 176 clip 0 1;
#X obj 110 232 v r;
#X obj 110 207 expr tan($f1 * pi/2);
#X obj 110 151 expr $f1 / nyquist;
#X obj 83 121 t b f;
#X obj 32 309 outlet~;
#N canvas 53 23 333 262 biquad 0;
#X obj 37 29 inlet~;
#N canvas 594 99 531 367 coeficientes 0;
#X obj 378 248 v sign_\$0;
#X obj 50 257 pack float float float float float;
#X obj 50 82 expr $f1 + $f3 \; -sqrt($f1*$f1 + $f2*$f2) * sqrt($f3*$f3
+ $f4*$f4) * sign_\$0 \; if($f1 > 0 != $f3 > 0 \, -1 \, 1) \; $f9 \;
-$f9 * ($f5 + $f7) \; $f9 * sqrt($f5*$f5 + $f6*$f6) * sqrt($f7*$f7
+ $f8*$f8) * sign_\$0 \; if($f5 > 0 != $f7 > 0 \, -1 \, 1) \;;
#X obj 50 298 outlet;
#X obj 50 47 inlet;
#X connect 1 0 3 0;
#X connect 2 0 1 0;
#X connect 2 1 1 1;
#X connect 2 2 0 0;
#X connect 2 3 1 2;
#X connect 2 4 1 3;
#X connect 2 5 1 4;
#X connect 2 6 0 0;
#X connect 4 0 2 0;
#X restore 89 113 pd coeficientes;
#X obj 89 160 biquad~;
#X obj 89 188 outlet~;
#N canvas 51 23 585 364 polos-zeros 0;
#X obj 218 158 * -1;
#X obj 273 215 expr (pow($f1-1 \, 2) + pow($f2 \, 2)) / 4;
#X obj 108 240 pack float float float float;
#X obj 88 40 inlet;
#X obj 349 127 v theta;
#X obj 108 307 outlet;
#X text 253 158 conjugado;
#X text 362 74 re;
#X text 363 88 im;
#X text 515 214 ganho;
#X msg 108 274 \$1 \$2 \$1 \$3 -1 0 -1 0 \$4;
#X obj 88 136 t f f;
#X obj 88 74 expr (1 - r*r) / (1 + r*r + 2*r*cos(theta)) \; 2*r*sin(theta)
/ (1 + r*r + 2*r*cos(theta)) \; pi/2 * 0.1;
#X connect 0 0 2 2;
#X connect 1 0 2 3;
#X connect 2 0 10 0;
#X connect 3 0 12 0;
#X connect 10 0 5 0;
#X connect 11 0 2 0;
#X connect 11 1 1 0;
#X connect 12 0 11 0;
#X connect 12 1 0 0;
#X connect 12 1 1 1;
#X connect 12 1 2 1;
#X connect 12 2 4 0;
#X restore 89 85 pd polos-zeros;
#X obj 89 29 inlet;
#X obj 205 188 outlet;
#X obj 89 58 trigger bang bang;
#X connect 0 0 2 0;
#X connect 1 0 2 0;
#X connect 2 0 3 0;
#X connect 4 0 1 0;
#X connect 5 0 7 0;
#X connect 7 0 4 0;
#X connect 7 1 6 0;
#X restore 32 149 pd biquad;
#N canvas 53 23 333 262 biquad 0;
#X obj 37 29 inlet~;
#N canvas 594 99 531 367 coeficientes 0;
#X obj 378 248 v sign_\$0;
#X obj 50 257 pack float float float float float;
#X obj 50 82 expr $f1 + $f3 \; -sqrt($f1*$f1 + $f2*$f2) * sqrt($f3*$f3
+ $f4*$f4) * sign_\$0 \; if($f1 > 0 != $f3 > 0 \, -1 \, 1) \; $f9 \;
-$f9 * ($f5 + $f7) \; $f9 * sqrt($f5*$f5 + $f6*$f6) * sqrt($f7*$f7
+ $f8*$f8) * sign_\$0 \; if($f5 > 0 != $f7 > 0 \, -1 \, 1) \;;
#X obj 50 298 outlet;
#X obj 50 47 inlet;
#X connect 1 0 3 0;
#X connect 2 0 1 0;
#X connect 2 1 1 1;
#X connect 2 2 0 0;
#X connect 2 3 1 2;
#X connect 2 4 1 3;
#X connect 2 5 1 4;
#X connect 2 6 0 0;
#X connect 4 0 2 0;
#X restore 89 113 pd coeficientes;
#X obj 89 160 biquad~;
#X obj 89 188 outlet~;
#X obj 89 29 inlet;
#X obj 205 188 outlet;
#X obj 89 58 trigger bang bang;
#N canvas 51 23 585 364 polos-zeros 0;
#X obj 218 158 * -1;
#X obj 273 215 expr (pow($f1-1 \, 2) + pow($f2 \, 2)) / 4;
#X obj 108 240 pack float float float float;
#X obj 88 40 inlet;
#X obj 349 127 v theta;
#X obj 108 307 outlet;
#X text 253 158 conjugado;
#X text 362 74 re;
#X text 363 88 im;
#X text 515 214 ganho;
#X msg 108 274 \$1 \$2 \$1 \$3 -1 0 -1 0 \$4;
#X obj 88 136 t f f;
#X obj 88 74 expr (1 - r*r) / (1 + r*r + 2*r*cos(theta)) \; 2*r*sin(theta)
/ (1 + r*r + 2*r*cos(theta)) \; pi/2 * 0.3;
#X connect 0 0 2 2;
#X connect 1 0 2 3;
#X connect 2 0 10 0;
#X connect 3 0 12 0;
#X connect 10 0 5 0;
#X connect 11 0 2 0;
#X connect 11 1 1 0;
#X connect 12 0 11 0;
#X connect 12 1 0 0;
#X connect 12 1 1 1;
#X connect 12 1 2 1;
#X connect 12 2 4 0;
#X restore 89 84 pd polos-zeros;
#X connect 0 0 2 0;
#X connect 1 0 2 0;
#X connect 2 0 3 0;
#X connect 4 0 6 0;
#X connect 6 0 7 0;
#X connect 6 1 5 0;
#X connect 7 0 1 0;
#X restore 32 177 pd biquad;
#N canvas 53 23 333 262 biquad 0;
#X obj 37 29 inlet~;
#N canvas 594 99 531 367 coeficientes 0;
#X obj 378 248 v sign_\$0;
#X obj 50 257 pack float float float float float;
#X obj 50 82 expr $f1 + $f3 \; -sqrt($f1*$f1 + $f2*$f2) * sqrt($f3*$f3
+ $f4*$f4) * sign_\$0 \; if($f1 > 0 != $f3 > 0 \, -1 \, 1) \; $f9 \;
-$f9 * ($f5 + $f7) \; $f9 * sqrt($f5*$f5 + $f6*$f6) * sqrt($f7*$f7
+ $f8*$f8) * sign_\$0 \; if($f5 > 0 != $f7 > 0 \, -1 \, 1) \;;
#X obj 50 298 outlet;
#X obj 50 47 inlet;
#X connect 1 0 3 0;
#X connect 2 0 1 0;
#X connect 2 1 1 1;
#X connect 2 2 0 0;
#X connect 2 3 1 2;
#X connect 2 4 1 3;
#X connect 2 5 1 4;
#X connect 2 6 0 0;
#X connect 4 0 2 0;
#X restore 89 113 pd coeficientes;
#X obj 89 160 biquad~;
#X obj 89 188 outlet~;
#X obj 89 29 inlet;
#X obj 205 188 outlet;
#X obj 89 58 trigger bang bang;
#N canvas 51 23 585 364 polos-zeros 0;
#X obj 218 158 * -1;
#X obj 273 215 expr (pow($f1-1 \, 2) + pow($f2 \, 2)) / 4;
#X obj 108 240 pack float float float float;
#X obj 88 40 inlet;
#X obj 349 127 v theta;
#X obj 108 307 outlet;
#X text 253 158 conjugado;
#X text 362 74 re;
#X text 363 88 im;
#X text 515 214 ganho;
#X msg 108 274 \$1 \$2 \$1 \$3 -1 0 -1 0 \$4;
#X obj 88 136 t f f;
#X obj 88 74 expr (1 - r*r) / (1 + r*r + 2*r*cos(theta)) \; 2*r*sin(theta)
/ (1 + r*r + 2*r*cos(theta)) \; pi/2 * 0.5;
#X connect 0 0 2 2;
#X connect 1 0 2 3;
#X connect 2 0 10 0;
#X connect 3 0 12 0;
#X connect 10 0 5 0;
#X connect 11 0 2 0;
#X connect 11 1 1 0;
#X connect 12 0 11 0;
#X connect 12 1 0 0;
#X connect 12 1 1 1;
#X connect 12 1 2 1;
#X connect 12 2 4 0;
#X restore 89 83 pd polos-zeros;
#X connect 0 0 2 0;
#X connect 1 0 2 0;
#X connect 2 0 3 0;
#X connect 4 0 6 0;
#X connect 6 0 7 0;
#X connect 6 1 5 0;
#X connect 7 0 1 0;
#X restore 32 209 pd biquad;
#X obj 277 266 v pi;
#X obj 328 162 samplerate~;
#X obj 328 186 / 2;
#X obj 300 100 loadbang;
#X obj 328 211 v nyquist;
#X msg 83 99 16000;
#X obj 300 125 t b b;
#X obj 277 243 expr atan(1) * 4;
#N canvas 53 23 333 262 biquad 0;
#X obj 37 29 inlet~;
#N canvas 594 99 531 367 coeficientes 0;
#X obj 378 248 v sign_\$0;
#X obj 50 257 pack float float float float float;
#X obj 50 82 expr $f1 + $f3 \; -sqrt($f1*$f1 + $f2*$f2) * sqrt($f3*$f3
+ $f4*$f4) * sign_\$0 \; if($f1 > 0 != $f3 > 0 \, -1 \, 1) \; $f9 \;
-$f9 * ($f5 + $f7) \; $f9 * sqrt($f5*$f5 + $f6*$f6) * sqrt($f7*$f7
+ $f8*$f8) * sign_\$0 \; if($f5 > 0 != $f7 > 0 \, -1 \, 1) \;;
#X obj 50 298 outlet;
#X obj 50 47 inlet;
#X connect 1 0 3 0;
#X connect 2 0 1 0;
#X connect 2 1 1 1;
#X connect 2 2 0 0;
#X connect 2 3 1 2;
#X connect 2 4 1 3;
#X connect 2 5 1 4;
#X connect 2 6 0 0;
#X connect 4 0 2 0;
#X restore 89 113 pd coeficientes;
#X obj 89 160 biquad~;
#X obj 89 188 outlet~;
#X obj 89 29 inlet;
#X obj 205 188 outlet;
#X obj 89 58 trigger bang bang;
#N canvas 51 23 585 364 polos-zeros 0;
#X obj 218 158 * -1;
#X obj 273 215 expr (pow($f1-1 \, 2) + pow($f2 \, 2)) / 4;
#X obj 108 240 pack float float float float;
#X obj 88 40 inlet;
#X obj 349 127 v theta;
#X obj 108 307 outlet;
#X text 253 158 conjugado;
#X text 362 74 re;
#X text 363 88 im;
#X text 515 214 ganho;
#X msg 108 274 \$1 \$2 \$1 \$3 -1 0 -1 0 \$4;
#X obj 88 136 t f f;
#X obj 88 74 expr (1 - r*r) / (1 + r*r + 2*r*cos(theta)) \; 2*r*sin(theta)
/ (1 + r*r + 2*r*cos(theta)) \; pi/2 * 0.7;
#X connect 0 0 2 2;
#X connect 1 0 2 3;
#X connect 2 0 10 0;
#X connect 3 0 12 0;
#X connect 10 0 5 0;
#X connect 11 0 2 0;
#X connect 11 1 1 0;
#X connect 12 0 11 0;
#X connect 12 1 0 0;
#X connect 12 1 1 1;
#X connect 12 1 2 1;
#X connect 12 2 4 0;
#X restore 89 83 pd polos-zeros;
#X connect 0 0 2 0;
#X connect 1 0 2 0;
#X connect 2 0 3 0;
#X connect 4 0 6 0;
#X connect 6 0 7 0;
#X connect 6 1 5 0;
#X connect 7 0 1 0;
#X restore 32 245 pd biquad;
#N canvas 53 23 333 262 biquad 0;
#X obj 37 29 inlet~;
#N canvas 594 99 531 367 coeficientes 0;
#X obj 378 248 v sign_\$0;
#X obj 50 257 pack float float float float float;
#X obj 50 82 expr $f1 + $f3 \; -sqrt($f1*$f1 + $f2*$f2) * sqrt($f3*$f3
+ $f4*$f4) * sign_\$0 \; if($f1 > 0 != $f3 > 0 \, -1 \, 1) \; $f9 \;
-$f9 * ($f5 + $f7) \; $f9 * sqrt($f5*$f5 + $f6*$f6) * sqrt($f7*$f7
+ $f8*$f8) * sign_\$0 \; if($f5 > 0 != $f7 > 0 \, -1 \, 1) \;;
#X obj 50 298 outlet;
#X obj 50 47 inlet;
#X connect 1 0 3 0;
#X connect 2 0 1 0;
#X connect 2 1 1 1;
#X connect 2 2 0 0;
#X connect 2 3 1 2;
#X connect 2 4 1 3;
#X connect 2 5 1 4;
#X connect 2 6 0 0;
#X connect 4 0 2 0;
#X restore 89 113 pd coeficientes;
#X obj 89 160 biquad~;
#X obj 89 188 outlet~;
#X obj 89 29 inlet;
#N canvas 51 23 585 364 polos-zeros 0;
#X obj 218 158 * -1;
#X obj 273 215 expr (pow($f1-1 \, 2) + pow($f2 \, 2)) / 4;
#X obj 108 240 pack float float float float;
#X obj 88 40 inlet;
#X obj 349 127 v theta;
#X obj 108 307 outlet;
#X text 253 158 conjugado;
#X text 362 74 re;
#X text 363 88 im;
#X text 515 214 ganho;
#X msg 108 274 \$1 \$2 \$1 \$3 -1 0 -1 0 \$4;
#X obj 88 136 t f f;
#X obj 88 74 expr (1 - r*r) / (1 + r*r + 2*r*cos(theta)) \; 2*r*sin(theta)
/ (1 + r*r + 2*r*cos(theta)) \; pi/2 * 0.9;
#X connect 0 0 2 2;
#X connect 1 0 2 3;
#X connect 2 0 10 0;
#X connect 3 0 12 0;
#X connect 10 0 5 0;
#X connect 11 0 2 0;
#X connect 11 1 1 0;
#X connect 12 0 11 0;
#X connect 12 1 0 0;
#X connect 12 1 1 1;
#X connect 12 1 2 1;
#X connect 12 2 4 0;
#X restore 89 76 pd polos-zeros;
#X connect 0 0 2 0;
#X connect 1 0 2 0;
#X connect 2 0 3 0;
#X connect 4 0 5 0;
#X connect 5 0 1 0;
#X restore 32 277 pd biquad;
#X connect 0 0 7 0;
#X connect 1 0 3 0;
#X connect 3 0 2 0;
#X connect 4 0 1 0;
#X connect 5 0 7 1;
#X connect 5 1 4 0;
#X connect 7 0 8 0;
#X connect 7 1 8 1;
#X connect 8 0 9 0;
#X connect 8 1 9 1;
#X connect 9 0 18 0;
#X connect 9 1 18 1;
#X connect 11 0 12 0;
#X connect 12 0 14 0;
#X connect 13 0 16 0;
#X connect 15 0 5 0;
#X connect 16 0 15 0;
#X connect 16 1 11 0;
#X connect 16 1 17 0;
#X connect 17 0 10 0;
#X connect 18 0 19 0;
#X connect 18 1 19 1;
#X connect 19 0 6 0;
#X restore 107 180 pd lowpass_butterworth_10;
#N canvas 326 103 294 321 phase_sync 0;
#X obj 63 191 -~;
#X obj 63 219 wrap~;
#X obj 63 42 inlet~;
#X obj 78 160 cyclone/sah~;
#X obj 147 41 inlet~;
#X obj 63 249 outlet~;
#X obj 63 96 phasor~;
#X connect 0 0 1 0;
#X connect 1 0 5 0;
#X connect 2 0 6 0;
#X connect 3 0 0 1;
#X connect 4 0 3 1;
#X connect 6 0 0 0;
#X connect 6 0 3 0;
#X restore 107 71 pd phase_sync;
#X obj 374 26 inlet~ lin;
#X obj 107 99 cyclone/lessthan~;
#X obj 107 124 *~ 2;
#X obj 107 148 -~ 1;
#X obj 303 111 block~ 64 1 16;
#X connect 1 0 4 0;
#X connect 2 0 6 1;
#X connect 3 0 0 0;
#X connect 4 0 6 0;
#X connect 5 0 4 1;
#X connect 6 0 7 0;
#X connect 7 0 8 0;
#X connect 8 0 3 0;
#X restore 95 155 pd oscillator;
#N canvas 226 24 450 300 impulse 0;
#X obj 114 90 cyclone/delta~;
#X obj 114 136 cyclone/greaterthan~ 0.5;
#X obj 114 113 abs~;
#X obj 107 56 inlet~;
#X obj 112 177 outlet~;
#X connect 0 0 2 0;
#X connect 1 0 4 0;
#X connect 2 0 1 0;
#X connect 3 0 0 0;
#X restore 167 86 pd impulse;
#X text 219 150 Porres 2016;
#X text 219 175 for cyclone;
#X connect 0 0 3 1;
#X connect 1 0 3 0;
#X connect 2 0 6 0;
#X connect 3 0 5 0;
#X connect 3 1 5 1;
#X connect 5 0 4 0;
#X connect 6 0 5 2;
