#N canvas 634 31 561 727 10;
#X declare -stdlib cyclone/cyclone;
#X declare -stdlib cyclone/cyclone;
#X obj 5 40 cnv 15 552 50 empty empty !-~ 3 12 0 18 -204280 -1 0;
#X obj 57 53 cnv 5 5 5 empty empty or 0 0 0 15 -204280 -1 0;
#X obj 5 671 cnv 15 552 21 empty empty empty 20 12 0 14 -233017 -33289
0;
#X obj 5 363 cnv 3 550 3 empty empty outlets 8 12 0 13 -228856 -1 0
;
#X obj 5 400 cnv 3 550 3 empty empty arguments 8 12 0 13 -228856 -1
0;
#X obj 5 448 cnv 3 550 3 empty empty more_info 8 12 0 13 -228856 -1
0;
#X obj 83 373 cnv 17 3 17 empty empty 0 5 9 0 16 -228856 -162280 0
;
#N canvas 502 391 401 260 META 0;
#X text 0 22 LICENSE SIBSD;
#X text 0 102 LIBRARY cyclone;
#X text 0 62 INLET_0 signal;
#X text 0 82 OUTLET_0 signal;
#X text 0 42 DESCRIPTION takes the arc tangent function for signals
;
#X text 0 0 KEYWORDS arc tangent arctangent arctan atan signal;
#X text 0 123 VERSION 0.2-beta1;
#X text 0 141 AUTHOR Krzysztof Czaja;
#X text 1 159 RELEASE_DATE 2002;
#X text 2 178 WEBSITE http://suita.chopin.edu.pl/~czaja/miXed/externs/cyclone.html
;
#X text 2 210 HELP_PATCH_AUTHORS Christoph Kummerer. Revised by Jonathan
Wilkes for Pd-extended 0.42 to conform to the PDDP template. Alex Cleveland
updated this patch for Pd-l2ork version 2013.05.28. Fred Jan Kraan
adapted the patch to pd-extended 2015-02-02;
#X restore 508 673 pd META;
#N canvas 232 526 441 120 Related_objects 0;
#X obj 0 0 cnv 15 425 20 empty empty empty 3 12 0 14 -204280 -1 0;
#X text 6 1 Related Objects;
#X restore 196 673 pd Related_objects;
#X obj 5 291 cnv 3 550 3 empty empty inlets 8 12 0 13 -228856 -1 0
;
#X floatatom 134 163 5 0 0 0 - - -, f 5;
#X floatatom 88 166 5 0 0 0 - - -, f 5;
#X obj 104 228 cyclone/snapshot~ 1;
#X floatatom 262 169 5 0 0 0 - - -, f 5;
#X obj 104 196 !-~;
#X obj 506 46 rminus~;
#X obj 529 68 !-~;
#X floatatom 104 255 5 0 0 0 - - -, f 5;
#X obj 262 196 cyclone/rminus~ 5;
#X obj 262 229 cyclone/snapshot~ 1;
#X floatatom 262 256 5 0 0 0 - - -, f 5;
#X obj 80 303 cnv 17 3 17 empty empty 0 5 9 0 16 -228856 -162280 0
;
#X obj 80 329 cnv 17 3 17 empty empty 1 5 9 0 16 -228856 -162280 0
;
#X obj 80 303 cnv 17 3 17 empty empty 0 5 9 0 16 -228856 -162280 0
;
#X text 146 302 signal;
#X text 109 331 float/signal;
#X text 146 372 signal;
#X text 100 412 1) float -;
#N canvas 439 241 715 321 (subpatch) 0;
#X obj 51 51 cnv 15 552 28 empty empty Cyclone: 6 13 0 18 -128992 -233080
0;
#X obj 217 65 cnv 5 5 5 empty empty Library 0 0 0 12 -128992 -233080
0;
#X obj 275 65 cnv 5 5 5 empty empty of 0 0 0 12 -128992 -233080 0;
#X obj 298 64 cnv 5 5 5 empty empty objects 0 0 0 12 -128992 -233080
0;
#X obj 356 64 cnv 5 5 5 empty empty cloned 0 0 0 12 -128992 -233080
0;
#X obj 406 64 cnv 5 5 5 empty empty from 0 0 0 12 -128992 -233080 0
;
#X obj 444 64 cnv 5 5 5 empty empty Max/MSP 0 0 0 12 -128992 -233080
0;
#X coords 0 -1 1 1 554 30 1 50 50;
#X restore 5 5 pd;
#N canvas 673 40 366 264 (subpatch) 0;
#X obj 51 101 tgl 42 0 \$0-tgl-s \$0-tgl-r empty 1 8 1 9 -228856 -128992
-262144 0 1;
#X obj 215 68 route dsp;
#X obj 215 37 receive pd;
#N canvas 939 367 324 271 set_color 0;
#X obj 47 30 inlet;
#X obj 96 146 s \$0-cnv;
#X msg 96 114 color -4.86997e+06 -1.34937e+07;
#N canvas 0 22 712 637 off 0;
#X obj 490 220 * -1;
#X obj 424 300 +;
#X obj 409 325 +;
#X obj 347 219 * -65536;
#X obj 424 220 * -256;
#X obj 409 356 - 1;
#X obj 390 189 unpack f f f;
#X obj 225 295 +;
#X obj 210 320 +;
#X obj 148 214 * -65536;
#X obj 225 215 * -256;
#X obj 291 215 * -1;
#X obj 210 351 - 1;
#X obj 191 184 unpack f f f;
#X obj 379 423 pack;
#X msg 378 447 color \$1 \$2;
#X msg 395 152 124 124 124;
#X msg 203 154 220 220 220;
#X obj 238 121 t b b;
#X obj 238 81 inlet;
#X obj 378 485 outlet;
#X connect 0 0 1 1;
#X connect 1 0 2 1;
#X connect 2 0 5 0;
#X connect 3 0 2 0;
#X connect 4 0 1 0;
#X connect 5 0 14 1;
#X connect 6 0 3 0;
#X connect 6 1 4 0;
#X connect 6 2 0 0;
#X connect 7 0 8 1;
#X connect 8 0 12 0;
#X connect 9 0 8 0;
#X connect 10 0 7 0;
#X connect 11 0 7 1;
#X connect 12 0 14 0;
#X connect 13 0 9 0;
#X connect 13 1 10 0;
#X connect 13 2 11 0;
#X connect 14 0 15 0;
#X connect 15 0 20 0;
#X connect 16 0 6 0;
#X connect 17 0 13 0;
#X connect 18 0 17 0;
#X connect 18 1 16 0;
#X connect 19 0 18 0;
#X restore 47 113 pd off;
#X obj 47 83 select 0 1;
#X obj 47 168 list append 0;
#X obj 47 195 list trim;
#X obj 47 220 s \$0-tgl-r;
#X connect 0 0 4 0;
#X connect 2 0 1 0;
#X connect 2 0 5 0;
#X connect 3 0 1 0;
#X connect 3 0 5 0;
#X connect 4 0 3 0;
#X connect 4 1 2 0;
#X connect 5 0 6 0;
#X connect 6 0 7 0;
#X restore 215 165 pd set_color;
#X obj 135 122 r \$0-tgl-s;
#N canvas 0 22 450 300 (subpatch) 0;
#X obj 101 101 cnv 25 40 25 empty \$0-cnv DSP 3 13 0 20 -228856 -128992
0;
#X coords 0 -1 1 1 42 27 1 100 100;
#X restore 51 144 pd;
#X obj 226 139 s \$0-tgl-r;
#X msg 226 115 set \$1;
#X msg 135 177 \; pd dsp \$1;
#N canvas 256 32 278 194 load_check 0;
#X obj 167 53 sig~ 1;
#X obj 74 24 loadbang;
#X obj 167 86 snapshot~;
#X obj 167 151 outlet;
#X obj 74 103 tgl 15 0 empty empty empty 17 7 0 10 -262144 -1 -1 0
1;
#X obj 74 126 switch~;
#X obj 91 52 del 5;
#X connect 0 0 2 0;
#X connect 1 0 4 0;
#X connect 1 0 6 0;
#X connect 2 0 3 0;
#X connect 4 0 5 0;
#X connect 6 0 2 0;
#X connect 6 0 4 0;
#X restore 51 72 pd load_check;
#X connect 1 0 3 0;
#X connect 1 0 7 0;
#X connect 2 0 1 0;
#X connect 4 0 8 0;
#X connect 4 0 3 0;
#X connect 7 0 6 0;
#X connect 9 0 0 0;
#X coords 0 -1 1 1 44 72 2 50 100;
#X restore 506 104 pd;
#X text 198 372 - The subtraction of the two numbers.;
#X text 121 640 more about the cyclone sub-library;
#X text 505 69 or;
#X text 135 456 A float on the right inlet overwrites the argument.
If a signal is connected to the right inlet \, argument is ignored.
If signal is disconnected \, argument's value is restored.;
#X obj 5 508 cnv 3 550 3 empty empty cyclone_sub-library 8 12 0 13
-228856 -1 0;
#X obj 290 603 declare -stdlib cyclone/cyclone;
#X obj 88 52 cnv 5 5 5 empty empty rminus~ 0 0 0 18 -204280 -1 0;
#X text 9 67 Signal reversed inlets subtraction;
#X text 68 101 [!-~] or [rminus~] subtracts a number by the incoming
value. Functions like the [-~] object \, but the inlets' functions
are reversed.;
#X text 174 411 value by which to subtract the signal from left inlet
(default 0).;
#X obj 404 213 expr~ 5 - $v1;
#X text 412 192 same as:;
#X text 196 331 - values to subtract by left inlet's values.;
#X text 196 302 - values subtracted from right inlet's value or argument.
;
#X obj 341 639 cyclone-help;
#X text 117 539 [rminus~] is a single binary in cyclone \, but [!-~]
is only created if you load the sub-library "cyclone" in the startup
as informed in "How to Install". You can also load the cyclone library
with [declare] like this:;
#X connect 10 0 14 1;
#X connect 11 0 14 0;
#X connect 12 0 17 0;
#X connect 13 0 18 0;
#X connect 14 0 12 0;
#X connect 18 0 19 0;
#X connect 19 0 20 0;
