#N canvas 413 28 572 592 10;
#X obj 2 434 cnv 3 550 3 empty empty inlets 8 12 0 13 -228856 -1 0
;
#X obj 2 637 cnv 3 550 3 empty empty outlets 8 12 0 13 -228856 -1 0
;
#X obj 2 720 cnv 3 550 3 empty empty arguments 8 12 0 13 -228856 -1
0;
#X obj 2 796 cnv 3 550 3 empty empty more_info 8 12 0 13 -228856 -1
0;
#X obj 80 443 cnv 17 3 126 empty empty 0 5 9 0 16 -228856 -162280 0
;
#X obj 80 648 cnv 17 3 28 empty empty 0 5 9 0 16 -228856 -162280 0
;
#X obj 2 45 cnv 15 552 48 empty empty Table 4 14 0 18 -204280 -1 0
;
#X obj 506 54 Table;
#C restore;
#X text 14 71 Store and graphically edit an array of numbers;
#X obj 80 683 cnv 17 3 17 empty empty 1 5 9 0 16 -228856 -162280 0
;
#X obj 187 179 bng 18 250 50 0 empty empty empty 17 7 0 10 -216373
-66577 -1;
#X msg 362 232 quantile \$1;
#X msg 157 119 open;
#X msg 305 214 inv \$1;
#X obj 305 134 vsl 22 48 0 79 0 0 empty empty empty 0 -8 0 8 -216373
-66577 -1 0 1;
#X floatatom 157 375 6 0 0 0 - - -, f 6;
#X obj 232 365 bng 26 250 50 0 empty empty empty 17 7 0 10 -216373
-262130 -1;
#X floatatom 362 213 0 0 0 0 - - -;
#X obj 362 194 << 9;
#X text 111 858 You may name the table with an argument. Many boxes
may share the same table by using the same name. If there is a file
by that name it will be read into the table if possible., f 59;
#X msg 167 139 sum;
#X msg 176 159 length;
#X obj 362 134 vsl 22 48 0 79 0 0 empty empty empty 0 -8 0 8 -216373
-66577 -1 0 1;
#X obj 253 135 vsl 22 48 0 79 0 0 empty empty empty 0 -8 0 8 -216373
-66577 -1 0 1;
#X obj 80 587 cnv 17 3 28 empty empty 1 5 9 0 16 -228856 -162280 0
;
#X obj 157 322 cyclone/Table;
#C restore;
#X obj 463 157 t b b, f 6;
#X msg 463 233 100;
#X msg 496 233 42;
#X obj 463 131 bng 18 250 50 0 empty empty empty 17 7 0 10 -216373
-66577 -1;
#N canvas 558 143 305 308 fill 0;
#X obj 107 162 f;
#X obj 134 162 + 1;
#X msg 69 124 0;
#X obj 107 126 metro 10;
#X obj 107 192 moses 128;
#X msg 168 94 0;
#X obj 107 222 t f f;
#X obj 107 275 outlet;
#X obj 107 43 inlet;
#X obj 107 69 t b b;
#X obj 153 275 outlet;
#X obj 2 2 cnv 15 300 20 empty empty empty 3 12 0 14 -204280 -1 0;
#X text 4 3 table filler;
#X connect 0 0 1 0;
#X connect 0 0 4 0;
#X connect 1 0 0 1;
#X connect 2 0 0 0;
#X connect 3 0 0 0;
#X connect 4 0 6 0;
#X connect 4 1 5 0;
#X connect 5 0 3 0;
#X connect 6 0 7 0;
#X connect 6 1 10 0;
#X connect 8 0 9 0;
#X connect 9 0 3 0;
#X connect 9 1 2 0;
#X restore 50 160 pd fill table;
#X obj 80 133 bng 18 250 50 0 empty empty empty 17 7 0 10 -216373 -66577
-1;
#X obj 50 203 pack f f, f 9;
#X obj 305 193 + 100;
#X obj 97 181 + 100;
#X obj 2 2 cyclone/fancy/cyheader;
#X obj 2 964 cnv 1 550 1 empty empty empty 0 0 0 4 -262144 -262144
0;
#X obj 2 943 cnv 15 552 21 empty empty empty 20 12 0 14 -233017 -33289
0;
#N canvas 499 102 391 396 META 0;
#X text 10 28 LICENSE SIBSD;
#X text 10 136 LIBRARY cyclone;
#X text 10 10 KEYWORDS table graph store array;
#X text 10 46 DESCRIPTION store and graphically edit an array of numbers
;
#X text 10 64 INLET_0 int <int1>_<int2> inv_<int> other;
#X text 10 82 INLET_1 ??????;
#X text 10 100 OUTLET_0 float;
#X text 10 118 OUTLET_1 bang;
#X text 11 155 VERSION 0.2-beta1;
#X text 11 173 AUTHOR Krzysztof Czaja;
#X text 12 191 RELEASE_DATE 2002;
#X text 13 210 WEBSITE http://suita.chopin.edu.pl/~czaja/miXed/externs/cyclone.html
;
#X text 13 242 HELP_PATCH_AUTHORS Christoph Kummerer. Revised by Jonathan
Wilkes for Pd-extended 0.42 to conform to the PDDP template. Alex Cleveland
updated this patch for Pd-l2ork version 2013.05.28. Fred Jan Kraan
adapted the patch to pd-extended 2015-02-02. Esteban Viveros updated
this patch for Pd-Vanilla 0.47-2.;
#X restore 503 945 pd META;
#N canvas 357 144 430 87 Related_objects 0;
#X obj 2 2 cnv 15 425 20 empty empty empty 3 12 0 14 -204280 -1 0;
#X text 8 3 Related Objects;
#X obj 116 33 cyclone/coll;
#C restore;
#X obj 202 33 cyclone/funbuff;
#C restore;
#X obj 305 33 cyclone/histo;
#X obj 12 33 cyclone/capture;
#X restore 198 945 pd Related_objects;
#X obj 77 115 cyclone/comment 51 11 helvetica ? 0 80 80 80 store;
#X obj 207 181 cyclone/comment 51 11 helvetica ? 0 80 80 80 random
;
#X obj 251 114 cyclone/comment 51 11 helvetica ? 0 80 80 80 read;
#X obj 296 114 cyclone/comment 51 11 helvetica ? 0 80 80 80 inv read
;
#X obj 350 114 cyclone/comment 62 11 helvetica ? 0 80 80 80 read quantile
;
#X obj 438 114 cyclone/comment 85 11 helvetica ? 0 80 80 80 write one
value;
#X obj 244 325 cyclone/comment 206 11 helvetica ? 0 80 80 80 <--- click
to see Table contents;
#X obj 268 373 cyclone/comment 126 11 helvetica ? 0 80 80 80 bang from
second outlet when data is changed in the user interface;
#X obj 470 410 cnv 12 73 19 empty empty empty 0 0 0 18 -257983 -1 0
;
#N canvas 348 95 565 282 Examples 0;
#X obj 2 2 cnv 15 560 40 empty empty Table 3 12 0 18 -204280 -1 0;
#X text 22 24 examples;
#X obj 2 278 cnv 3 550 3 empty empty empty 0 0 0 4 -262144 -1 0;
#X obj 2 258 cnv 15 560 21 empty empty empty 20 12 0 14 -233017 -33289
0;
#N canvas 545 181 378 120 credits 0;
#X text 60 32 First example from Max 7 Documentation.;
#X restore 481 260 pd credits;
#X obj 89 86 cyclone/comment 227 11 helvetica ? 0 80 80 80 store 36
at address 12;
#X msg 45 87 12 36;
#X msg 68 111 12;
#X obj 45 146 cyclone/Table;
#C restore;
#X floatatom 45 194 8 0 0 0 - - -, f 8;
#X obj 100 111 cyclone/comment 98 11 helvetica ? 0 80 80 80 output
what's stored at address 12;
#X floatatom 255 193 8 0 0 0 - - -, f 8;
#X obj 326 94 cyclone/comment 98 11 helvetica ? 0 80 80 80 these two
Tables share the same content;
#X obj 255 145 cyclone/Table bulls;
#C restore;
#X msg 255 86 goto 0;
#X msg 278 110 next;
#X floatatom 419 193 8 0 0 0 - - -, f 8;
#X obj 419 145 cyclone/Table bulls;
#C restore;
#X msg 419 86 goto 11;
#X msg 442 110 prev;
#N canvas 485 116 430 409 settings 0;
#X obj 2 2 cnv 15 425 20 empty empty empty 3 12 0 14 -204280 -1 0;
#X obj 18 34 cyclone/comment 162 11 helvetica ? 0 80 80 80 set content
of Table bulls:;
#X text 6 4 speedlim examples preset;
#X obj 31 63 loadbang;
#X obj 31 319 cyclone/Table bulls;
#C restore;
#X msg 31 93 0 -1 \, 1 1 \, 2 2 \, 3 4 \, 4 5 \, 5 6 \, 6 7 \, 7 9
\, 8 10 \, 9 11 \, 10 13 \, 11 14 \, 12 16 \, 13 17 \, 14 19 \, 15
20 \, 16 24 \, 17 28 \, 18 30 \, 19 32 \, 20 34 \, 21 36 \, 22 39 \,
23 42 \, 24 46 \, 25 50 \, 26 53 \, 27 56 \, 28 59 \, 29 62 \, 30 64
\, 31 66 \, 32 68 \, 33 69 \, 34 71 \, 35 73 \, 36 75 \, 37 76 \, 38
78 \, 39 80 \, 40 82 \, 41 84 \, 42 85 \, 43 86 \, 44 87 \, 45 88 \,
46 89 \, 47 90 \, 48 91 \, 49 92 \, 50 92 \, 51 93 \, 52 93 \, 53 91
\, 54 90 \, 55 89 \, 56 88 \, 57 87 \, 58 85 \, 59 83 \, 60 80 \, 61
78 \, 62 77 \, 63 75 \, 64 74 \, 65 72 \, 66 71 \, 67 70 \, 68 69 \,
69 68 \, 70 68 \, 71 67 \, 72 67 \, 73 66 \, 74 66 \, 75 65 \, 76 65
\, 77 65 \, 78 65 \, 79 65 \, 80 66 \, 81 67 \, 82 68 \, 83 70 \, 84
72 \, 85 75 \, 86 77 \, 87 79 \, 88 81 \, 89 83 \, 90 86 \, 91 88 \,
92 90 \, 93 91 \, 94 91 \, 95 89 \, 96 89 \, 97 88 \, 98 87 \, 99 86
\, 100 85 \, 101 84 \, 102 83 \, 103 82 \, 104 81 \, 105 80 \, 106
79 \, 107 75 \, 108 73 \, 109 65 \, 110 52 \, 111 50 \, 112 48 \, 113
46 \, 114 44 \, 115 41 \, 116 38 \, 117 37 \, 118 36 \, 119 31 \, 120
29 \, 121 23 \, 122 10 \, 123 9 \, 124 7 \, 125 1 \, 126 0 \, 127 -1
;
#X connect 3 0 5 0;
#X connect 5 0 4 0;
#X restore 396 260 pd settings;
#X connect 6 0 8 0;
#X connect 7 0 8 0;
#X connect 8 0 9 0;
#X connect 13 0 11 0;
#X connect 14 0 13 0;
#X connect 15 0 13 0;
#X connect 17 0 16 0;
#X connect 18 0 17 0;
#X connect 19 0 17 0;
#X restore 470 410 pd Examples;
#N canvas 657 55 609 674 allMessages 0;
#X obj 226 51 cnv 9 365 138 empty empty empty 20 12 0 14 -257983 -66577
0;
#X obj 226 2 cnv 15 365 46 empty empty Description 128 18 0 12 -187701
-1 0;
#X obj 226 351 cnv 9 365 74 empty empty empty 20 12 0 14 -216373 -66577
0;
#X obj 226 301 cnv 9 365 48 empty empty empty 20 12 0 14 -257983 -66577
0;
#X obj 226 239 cnv 9 365 60 empty empty empty 20 12 0 14 -216373 -66577
0;
#X obj 226 215 cnv 9 365 22 empty empty empty 20 12 0 14 -257983 -66577
0;
#X obj 226 427 cnv 9 365 74 empty empty empty 20 12 0 14 -257983 -66577
0;
#X obj 226 503 cnv 9 365 152 empty empty empty 20 12 0 14 -216373 -66577
0;
#X obj 226 657 cnv 9 365 48 empty empty empty 20 12 0 14 -257983 -66577
0;
#X obj 226 707 cnv 9 365 46 empty empty empty 20 12 0 14 -216373 -66577
0;
#X obj 226 755 cnv 9 365 22 empty empty empty 20 12 0 14 -257983 -66577
0;
#X obj 226 779 cnv 9 365 102 empty empty empty 20 12 0 14 -216373 -66577
0;
#X obj 226 883 cnv 9 365 22 empty empty empty 20 12 0 14 -257983 -66577
0;
#X obj 226 907 cnv 9 365 22 empty empty empty 20 12 0 14 -216373 -66577
0;
#X obj 226 931 cnv 9 365 74 empty empty empty 20 12 0 14 -257983 -66577
0;
#X obj 226 1007 cnv 9 365 50 empty empty empty 20 12 0 14 -216373 -66577
0;
#X obj 226 1059 cnv 9 365 60 empty empty empty 20 12 0 14 -257983 -66577
0;
#X obj 226 1121 cnv 9 365 60 empty empty empty 20 12 0 14 -216373 -66577
0;
#X obj 226 1261 cnv 9 365 74 empty empty empty 20 12 0 14 -216373 -66577
0;
#X obj 226 1337 cnv 9 365 34 empty empty empty 20 12 0 14 -257983 -66577
0;
#X obj 226 1373 cnv 9 365 34 empty empty empty 20 12 0 14 -216373 -66577
0;
#X obj 226 1409 cnv 9 365 60 empty empty empty 20 12 0 14 -257983 -66577
0;
#X obj 226 1471 cnv 9 365 150 empty empty empty 20 12 0 14 -216373
-66577 0;
#X obj 226 1623 cnv 9 365 22 empty empty empty 20 12 0 14 -257983 -66577
0;
#X obj 226 1647 cnv 9 365 34 empty empty empty 20 12 0 14 -216373 -66577
0;
#X obj 226 1683 cnv 9 365 50 empty empty empty 20 12 0 14 -257983 -66577
0;
#X obj 2 51 cnv 9 222 138 empty empty empty 20 12 0 14 -257983 -66577
0;
#X obj 2 351 cnv 9 222 74 empty empty empty 20 12 0 14 -216373 -66577
0;
#X obj 2 301 cnv 9 222 48 empty empty empty 20 12 0 14 -257983 -66577
0;
#X obj 2 239 cnv 9 222 60 empty empty empty 20 12 0 14 -216373 -66577
0;
#X obj 2 215 cnv 9 222 22 empty empty empty 20 12 0 14 -257983 -66577
0;
#X obj 2 427 cnv 9 222 74 empty empty empty 20 12 0 14 -257983 -66577
0;
#X obj 2 503 cnv 9 222 152 empty empty empty 20 12 0 14 -216373 -66577
0;
#X obj 2 657 cnv 9 222 48 empty empty empty 20 12 0 14 -257983 -66577
0;
#X obj 2 707 cnv 9 222 46 empty empty empty 20 12 0 14 -216373 -66577
0;
#X obj 2 755 cnv 9 222 22 empty empty empty 20 12 0 14 -257983 -66577
0;
#X obj 2 779 cnv 9 222 102 empty empty empty 20 12 0 14 -216373 -66577
0;
#X obj 2 883 cnv 9 222 22 empty empty empty 20 12 0 14 -257983 -66577
0;
#X obj 2 907 cnv 9 222 22 empty empty empty 20 12 0 14 -216373 -66577
0;
#X obj 2 931 cnv 9 222 74 empty empty empty 20 12 0 14 -257983 -66577
0;
#X obj 2 1007 cnv 9 222 50 empty empty empty 20 12 0 14 -216373 -66577
0;
#X obj 2 1059 cnv 9 222 60 empty empty empty 20 12 0 14 -257983 -66577
0;
#X obj 2 1121 cnv 9 222 60 empty empty empty 20 12 0 14 -216373 -66577
0;
#X obj 2 1261 cnv 9 222 74 empty empty empty 20 12 0 14 -216373 -66577
0;
#X obj 2 1337 cnv 9 222 34 empty empty empty 20 12 0 14 -257983 -66577
0;
#X obj 2 1373 cnv 9 222 34 empty empty empty 20 12 0 14 -216373 -66577
0;
#X obj 2 1409 cnv 9 222 60 empty empty empty 20 12 0 14 -257983 -66577
0;
#X obj 2 1471 cnv 9 222 150 empty empty empty 20 12 0 14 -216373 -66577
0;
#X obj 2 1623 cnv 9 222 22 empty empty empty 20 12 0 14 -257983 -66577
0;
#X obj 2 1647 cnv 9 222 34 empty empty empty 20 12 0 14 -216373 -66577
0;
#X obj 2 1683 cnv 9 222 50 empty empty empty 20 12 0 14 -257983 -66577
0;
#X obj 2 2 cnv 15 222 46 empty empty Message 56 18 0 12 -187701 -1
0;
#X obj 226 191 cnv 9 365 22 empty empty empty 20 12 0 14 -216373 -66577
0;
#X obj 2 191 cnv 9 222 22 empty empty empty 20 12 0 14 -216373 -66577
0;
#X obj 226 1183 cnv 9 365 76 empty empty empty 20 12 0 14 -257983 -66577
0;
#X obj 2 1183 cnv 9 222 76 empty empty empty 20 12 0 14 -257983 -66577
0;
#X obj 4 1768 cnv 3 550 3 empty empty empty 0 0 0 4 -262144 -1 0;
#X obj 2 1757 cnv 10 589 12 empty empty empty 1 1 0 8 -187701 -33289
0;
#X obj 2 1735 cnv 15 589 21 empty empty empty 1 1 0 4 -233017 -33289
0;
#X text 9 241 cancel;
#X text 9 305 dump;
#X text 9 54 (mouse);
#X text 9 193 clear;
#X text 9 756 length;
#X text 9 780 load;
#X text 9 886 max;
#X text 9 908 min;
#X text 9 934 next;
#X text 9 1010 normal;
#X text 9 1061 open;
#X text 9 1123 prev;
#X text 9 1626 sum;
#X text 9 1650 wclose;
#X text 9 1689 write;
#X text 238 53 The values stored in [Table] can be entered and edited
graphically with the mouse. In Max when a [Table] object is first created
in a patcher window \, the Table object’s graphic editing window
is opened \, and values can be entered by drawing with the mouse \,
here we can edit the values in [Table] with mouse and keyboard. When
the patcher window is locked \, the graphic editing window can be opened
by double-clicking with the mouse on the [Table] object.Graphically
editing [Table] data content are ont implemented in cyclone yet.,
f 55;
#X text 238 194 Set all values to 0, f 55;
#X text 9 218 const <number>;
#X text 238 218 Fill the table with a <number>., f 55;
#X text 238 242 Causes [Table] to ignore a number received in the right
inlet \, so that the next number received in the left inlet will output
a number \, rather than storing a number at that address., f 55;
#X text 238 304 Sends all the numbers stored in the [Table] out the
left outlet in immediate succession \, beginning with address 0, f
55;
#X text 9 354 flags <bin> <bin>;
#X text 238 354 Changes the [Table] object’s saving options. The
first <bin> argument (0 / 1) affects the Save with Patcher option \,
and the second argument affects the Don’t Save option. If the argument
is zero the option is unchecked \, otherwise it is checked., f 55
;
#X text 9 429 fquantile <number>;
#X text 238 430 Given a <number> between zero and one \, multiplies
the <number> by the sum of all the numbers in the table. Then \, table
sends out the address at which the sum of the all values up to that
address is greater than or equal to the result., f 55;
#X text 238 506 Gets the value of one or more specific bits of a number
stored in the [Table] \, and sends that value out the left outlet.
The first argument is the <address> to query \; the second argument
is the <starting> bit location in the number stored at that address
(the bit locations are numbered 0 to 31 \, from the least significant
bit to the most significant bit) \; and the third argument specifies
how many <bits> to the right of the starting bit location should be
sent out. The specified bits are sent out the outlet as a single decimal
integer., f 55;
#X text 8 506 getbits <address> <starting> <bits>;
#X text 238 660 Sets a pointer to the <address> specified by the number.
The pointer is set at the beginning of the table initially., f 55
;
#X text 9 658 goto <address>;
#X text 238 709 Finds the first <value> which is greater than or equal
to that number \, and sends the address of that value out the left
outlet., f 55;
#X text 9 708 inv <value>;
#X text 238 758 Output the table size., f 55;
#X text 238 782 Places the [Table] in load mode. In load mode \, every
number received in the left inlet gets stored in the [Table] \, beginning
at address 0 and continuing until the table is filled (or until the
table is taken out of load mode by a "normal" message). If more numbers
are received than will fit in the size of the Table \, additional numbers
are ignored., f 55;
#X text 238 885 Retrieve the maximum stored value., f 55;
#X text 238 909 Retrieve the minimum stored value., f 55;
#X text 238 933 Sends the value stored in the address pointed at by
the pointer out the left outlet \, then sets the pointer to the next
address. If the pointer is currently at the last address in the [Table]
\, it wraps around to the first address., f 55;
#X text 238 1010 Takes the [Table] out of load mode and reverts it
to normal operation. See the load message for more details., f 55
;
#X text 238 1062 Opens the editor window and brings it to the foreground.
Double-clicking on the table object in a locked patcher has the same
effect. Graphic editing window are not implemented yet in Cyclone.
, f 55;
#X text 238 1123 Causes the same output as the "next" message \, but
the pointer is then decremented rather than incremented. If the pointer
is currently at the first address in the [Table] \, it wraps around
to the last address., f 55;
#X text 9 1184 quantile <number>;
#X text 238 1186 Multiplies the incoming <number> by the sum of all
the numbers in the [Table]. This result is then divided by 2^15 (32
\, 768). Then \, [Table] sends out the address at which the sum of
all values up to that address is greater than or equal to the result.
, f 55;
#X text 9 1261 read <file>;
#X text 238 1262 Opens and reads data values from a <file> in Text.
Without an argument \, read opens a standard Open Document dialog to
choose a file. If the file contains valid data \, the entire contents
of the existing [Table] are replaced with the file contents., f 55
;
#X text 238 1338 Sets the receiving [Table] object to read its data
values from the <named> table., f 55;
#X text 9 1340 refer <named>;
#X text 9 1376 send <receiveName> <address>;
#X text 9 1411 set <start> <values>;
#X text 238 1411 Stores values in certain addresses. The first argument
specifies an address \, <start>. The next number is the <values> to
be stored in that address \, and each number after that is stored in
a successive address., f 55;
#X text 238 1376 Sends the value stored at the incoming <address> to
all [receive] objects with that name \, <receiveName>.;
#X text 9 1474 setbits <address> <starting>, f 35;
#X text 129 1486 <count> <value>;
#X text 238 1473 Changes the <value> of one or more specific bits of
a number stored in the [Table]. The first argument is the <address>
being referred to \; the second argument is the <starting> bit location
in the number stored at that address (the bit locations are numbered
0 to 31 \, from the least significant bit to the most significant bit)
\; the third argument \, <count> \, specifies how many bits to the
right of the starting bit location should be modified \, and the fourth
argument is the value (stated in decimal or hexadecimal form) to which
those bits should be set., f 55;
#X text 238 1626 Output the sum of all values., f 55;
#X text 238 1650 Close the editing window. Graphic edit window are
not implemented yet in Cyclone., f 55;
#X text 237 1687 Opens a standard save file dialog for choosing a name
to write data values from the [Table]. The file can be saved in Text
format., f 55;
#X restore 201 553 pd allMessages;
#X text 158 446 -;
#X text 125 446 bang;
#X text 158 490 -;
#X text 118 490 float;
#X text 158 522 -;
#X text 124 522 list;
#X text 158 553 -;
#X text 107 553 message;
#X text 173 553 see:;
#X text 173 446 same as a quantile message with a random number between
0 and 32 \, 768 as an argument. See the quantile message in the subpatch
[pd allMessages], f 60;
#X text 173 490 retrieves the number by address from the [Table] \,
and sends it out the left outlet., f 60;
#X text 173 522 The second number is stored in at the address (index)
specified by the first number., f 60;
#X text 158 588 -;
#X text 118 588 float;
#X text 173 588 stores the value at the next index number received
at the left inlet., f 60;
#X text 158 684 -;
#X text 125 684 bang;
#X text 158 649 -;
#X text 118 649 float;
#X text 173 684 when [Table] has been changed by editing it with the
mouse, f 60;
#X text 173 649 all numbers sent out by [Table] are sent out the left
outlet., f 60;
#X text 183 734 -;
#X text 196 734 the argument gives a name to the table. If two or more
[Table] objects share the same names \, they also share the same values.
, f 56;
#X text 102 734 1) tableName;
#X text 111 813 You can close the table window by clicking its close
box \, and reopen it by double-clicking the "table" box or sending
it the "open" message.;
#X connect 10 0 25 0;
#X connect 11 0 25 0;
#X connect 12 0 25 0;
#X connect 13 0 25 0;
#X connect 14 0 33 0;
#X connect 17 0 11 0;
#X connect 18 0 17 0;
#X connect 20 0 25 0;
#X connect 21 0 25 0;
#X connect 22 0 18 0;
#X connect 23 0 25 0;
#X connect 25 0 15 0;
#X connect 25 1 16 0;
#X connect 26 0 27 0;
#X connect 26 1 28 0;
#X connect 27 0 25 0;
#X connect 28 0 25 1;
#X connect 29 0 26 0;
#X connect 30 0 32 0;
#X connect 30 1 34 0;
#X connect 31 0 30 0;
#X connect 32 0 25 0;
#X connect 33 0 13 0;
#X connect 34 0 32 1;
