#N canvas 34 122 606 523 10;
#X obj 186 308 +~;
#X obj 186 348 +~;
#X obj 278 316 *~;
#X obj 201 279 *~;
#X obj 153 227 *~;
#X obj 153 85 inlet~;
#X obj 364 313 block~ 1;
#X obj 186 419 outlet~;
#X obj 202 387 delwrite~ \$0-y2 1000;
#X obj 24 312 delwrite~ \$0-x2 1000;
#X obj 201 213 vd~ \$0-x2;
#X obj 278 228 vd~ \$0-y2;
#X obj 201 85 inlet~;
#X obj 278 85 inlet~;
#X obj 327 85 inlet~;
#X obj 381 85 inlet~;
#X obj 430 85 inlet~;
#X connect 0 0 1 0;
#X connect 1 0 7 0;
#X connect 1 0 8 0;
#X connect 2 0 1 1;
#X connect 3 0 0 1;
#X connect 4 0 0 0;
#X connect 5 0 4 0;
#X connect 5 0 9 0;
#X connect 10 0 3 0;
#X connect 11 0 2 0;
#X connect 12 0 10 0;
#X connect 13 0 11 0;
#X connect 14 0 4 1;
#X connect 15 0 3 1;
#X connect 16 0 2 1;
