#N canvas 411 28 557 558 10;
#X obj 2 349 cnv 3 550 3 empty empty inlets 8 12 0 13 -228856 -1 0
;
#X obj 2 422 cnv 3 550 3 empty empty outlets 8 12 0 13 -228856 -1 0
;
#X obj 2 471 cnv 3 550 3 empty empty arguments 8 12 0 13 -228856 -1
0;
#X obj 81 359 cnv 17 3 17 empty empty 0 5 9 0 16 -228856 -162280 0
;
#X obj 81 434 cnv 17 3 17 empty empty 0 5 9 0 16 -228856 -162280 0
;
#X obj 2 45 cnv 15 552 48 empty empty thresh 4 14 0 18 -204280 -1 0
;
#X obj 81 385 cnv 17 3 17 empty empty 1 5 9 0 16 -228856 -162280 0
;
#X obj 502 51 thresh;
#X text 14 70 combine numbers that are received close together into
a list;
#X obj 2 2 cyclone/fancy/cyheader;
#X obj 2 555 cnv 1 550 1 empty empty empty 0 0 0 4 -262144 -262144
0;
#X obj 2 534 cnv 15 552 21 empty empty empty 20 12 0 14 -233017 -33289
0;
#N canvas 498 100 398 371 META 0;
#X text 10 29 LICENSE SIBSD;
#X text 10 137 LIBRARY cyclone;
#X text 10 99 INLET_1 float;
#X text 10 10 KEYWORDS combine numbers list threshold thresh;
#X text 10 48 DESCRIPTION combine numbers that are received close together
into a list;
#X text 10 80 INLET_0 float;
#X text 10 118 OUTLET_0 list;
#X text 10 156 VERSION 0.2-beta1;
#X text 10 174 AUTHOR Krzysztof Czaja;
#X text 11 192 RELEASE_DATE 2002;
#X text 12 211 WEBSITE http://suita.chopin.edu.pl/~czaja/miXed/externs/cyclone.html
;
#X text 12 243 HELP_PATCH_AUTHORS Christoph Kummerer. Revised by Jonathan
Wilkes for Pd-extended 0.42 to conform to the PDDP template. Alex Cleveland
updated this patch for Pd-l2ork version 2013.05.28. Fred Jan Kraan
adapted the patch to pd-extended 2015-02-02. Esteban Viveros updated
this patch for Pd-Vanilla 0.47-2.;
#X restore 490 536 pd META;
#N canvas 357 144 430 81 Related_objects 0;
#X obj 2 2 cnv 15 425 20 empty empty empty 3 12 0 14 -204280 -1 0;
#X text 8 3 Related Objects;
#X obj 11 29 pack;
#X obj 85 29 cyclone/bondo;
#X obj 176 29 cyclone/buddy;
#X obj 265 29 cyclone/iter;
#X obj 48 29 join;
#X obj 349 29 cyclone/zl;
#X restore 202 536 pd Related_objects;
#X msg 115 154 76;
#X obj 235 308 print t55;
#X obj 115 308 print t35;
#X obj 115 188 t f f f;
#X obj 134 226 pipe 45;
#X obj 115 266 cyclone/thresh 35;
#X obj 235 266 cyclone/thresh 55;
#X obj 25 104 cyclone/comment 461 10 monaco ? 0 80 80 80 Collects items
into a list if they appear within a certain specifiable amount of time.
Each time an item arrives \, the time is reset.;
#X obj 146 155 cyclone/comment 133 11 helvetica ? 0 80 80 80 <-----
;
#X obj 176 155 cyclone/comment 149 11 helvetica ? 0 80 80 80 click
here and watch the print objects in Pd main window;
#X obj 470 324 cnv 12 73 19 empty empty empty 0 0 0 18 -257983 -1 0
;
#N canvas 201 95 705 315 Examples 0;
#X obj 2 2 cnv 15 700 40 empty empty thresh 3 12 0 18 -204280 -1 0
;
#X text 32 24 examples;
#X obj 2 308 cnv 3 550 3 empty empty empty 0 0 0 4 -262144 -1 0;
#X obj 2 291 cnv 15 700 21 empty empty empty 20 12 0 14 -233017 -33289
0;
#N canvas 549 160 378 120 credits 0;
#X text 70 36 First example from Max 7 Documentation.;
#X restore 622 293 pd credits;
#X obj 369 108 cyclone/comment 52 11 helvetica ? 0 80 80 80 just under
50 ms apart;
#X obj 491 164 cyclone/comment 48 11 helvetica ? 0 80 80 80 just over
50 ms apart;
#X obj 62 64 bng 22 250 50 0 empty empty empty 17 7 0 10 -216373 -66577
-1;
#X obj 312 64 bng 22 250 50 0 empty empty empty 17 7 0 10 -216373 -66577
-1;
#X obj 62 101 t b b;
#X msg 51 132 127;
#X msg 89 132 60;
#X obj 51 165 cyclone/thresh 50;
#X obj 51 243 makenote 63 50;
#X obj 92 191 prepend set;
#X msg 92 213 60 127;
#X msg 272 132 60;
#X obj 312 102 delay 50;
#X msg 312 132 127;
#X obj 272 165 cyclone/thresh 50;
#X obj 272 243 makenote 63 50;
#X obj 313 191 prepend set;
#X msg 313 213 60 127;
#X obj 554 213 cyclone/comment 52 11 helvetica ? 0 80 80 80 even;
#X obj 582 64 bng 22 250 50 0 empty empty empty 17 7 0 10 -216373 -66577
-1;
#X msg 582 132 60;
#X obj 502 102 delay 50;
#X msg 502 132 127;
#X obj 542 165 cyclone/thresh 50;
#X obj 542 243 makenote 63 50;
#X obj 583 191 prepend set;
#X msg 583 213 60 127;
#X connect 7 0 9 0;
#X connect 8 0 17 0;
#X connect 8 0 16 0;
#X connect 9 0 10 0;
#X connect 9 1 11 0;
#X connect 10 0 12 0;
#X connect 11 0 12 0;
#X connect 12 0 13 0;
#X connect 12 0 14 0;
#X connect 14 0 15 0;
#X connect 16 0 19 0;
#X connect 17 0 18 0;
#X connect 18 0 19 0;
#X connect 19 0 20 0;
#X connect 19 0 21 0;
#X connect 21 0 22 0;
#X connect 24 0 26 0;
#X connect 24 0 25 0;
#X connect 25 0 28 0;
#X connect 26 0 27 0;
#X connect 27 0 28 0;
#X connect 28 0 29 0;
#X connect 28 0 30 0;
#X connect 30 0 31 0;
#X restore 470 324 pd Examples;
#X text 158 361 -;
#X text 118 361 float;
#X text 158 435 -;
#X text 124 435 list;
#X text 158 386 -;
#X text 118 386 float;
#X text 173 361 numbers to store into list, f 60;
#X text 173 386 time interval within numbers are added to the list
, f 60;
#X text 173 435 list of numbers stored that a recieved within interval
, f 60;
#X text 159 488 -;
#X text 100 488 1) float, f 9;
#X text 172 488 initial time interval \, the default time is 10 ms
(optional), f 60;
#X connect 14 0 17 0;
#X connect 17 0 19 0;
#X connect 17 1 18 0;
#X connect 17 2 20 0;
#X connect 18 0 19 0;
#X connect 18 0 20 0;
#X connect 19 0 16 0;
#X connect 20 0 15 0;
