#N canvas 403 27 572 530 10;
#X obj 2 375 cnv 3 550 3 empty empty inlets 8 12 0 13 -228856 -1 0
;
#X obj 2 535 cnv 3 550 3 empty empty outlets 8 12 0 13 -228856 -1 0
;
#X obj 2 599 cnv 3 550 3 empty empty arguments 8 12 0 13 -228856 -1
0;
#X obj 84 392 cnv 17 3 55 empty empty 0 5 9 0 16 -228856 -162280 0
;
#X obj 84 547 cnv 17 3 17 empty empty 0 5 9 0 16 -228856 -162280 0
;
#X obj 2 45 cnv 15 552 48 empty empty urn 4 14 0 18 -204280 -1 0;
#X obj 519 55 urn;
#X floatatom 197 308 5 0 0 0 - - -, f 5;
#X obj 164 170 bng 20 250 50 0 empty empty empty 0 -6 0 8 -216373 -66577
-1;
#X msg 197 171 clear;
#X floatatom 302 237 5 0 0 0 - - -, f 5;
#X msg 244 215 seed \$1;
#X floatatom 244 198 5 0 0 0 - - -, f 5;
#X obj 302 304 bng 18 250 50 0 empty empty empty 0 -6 0 8 -216373 -66577
-1;
#X text 14 71 random number generator without duplicate numbers;
#X obj 84 460 cnv 17 3 17 empty empty 1 5 9 0 16 -228856 -162280 0
;
#X obj 84 571 cnv 17 3 17 empty empty 1 5 9 0 16 -228856 -162280 0
;
#X obj 197 257 cyclone/urn 4, f 18;
#X obj 2 2 cyclone/fancy/cyheader;
#X obj 2 870 cnv 1 550 1 empty empty empty 0 0 0 4 -262144 -262144
0;
#X obj 2 849 cnv 15 552 21 empty empty empty 20 12 0 14 -233017 -33289
0;
#N canvas 500 105 395 392 META 0;
#X text 12 29 LICENSE SIBSD;
#X text 12 156 LIBRARY cyclone;
#X text 12 80 INLET_0 bang seed float;
#X text 12 99 INLET_1 float;
#X text 12 118 OUTLET_0 float;
#X text 12 137 OUTLET_1 bang;
#X text 12 48 DESCRIPTION random number generator without duplicate
numbers;
#X text 12 10 KEYWORDS random generator number rng;
#X text 11 174 VERSION 0.2-beta1;
#X text 11 192 AUTHOR Krzysztof Czaja;
#X text 12 210 RELEASE_DATE 2002;
#X text 13 229 WEBSITE http://suita.chopin.edu.pl/~czaja/miXed/externs/cyclone.html
;
#X text 13 261 HELP_PATCH_AUTHORS Christoph Kummerer. Revised by Jonathan
Wilkes for Pd-extended 0.42 to conform to the PDDP template. Alex Cleveland
updated this patch for Pd-l2ork version 2013.05.28. Fred Jan Kraan
adapted the patch to pd-extended 2015-02-02. Esteban Viveros updated
this patch for Pd-Vanilla 0.47-2.;
#X restore 504 851 pd META;
#N canvas 349 144 430 84 Related_objects 0;
#X obj 2 2 cnv 15 425 20 empty empty empty 3 12 0 14 -204280 -1 0;
#X text 8 3 Related Objects;
#X obj 19 33 random;
#X obj 169 33 cyclone/drunk;
#X obj 69 33 cyclone/decide;
#X restore 210 851 pd Related_objects;
#X obj 37 175 cyclone/comment 115 11 helvetica ? 0 80 80 80 click to
generate a number with a bang message;
#X obj 24 100 cyclone/comment 474 10 monaco ? 0 80 80 80 Outputs random
numbers and keeps track of each number that has been generated. When
all numbers up to the maximum (set via an argument or the right inlet)
have been output \, a bang is send out the right outlet.;
#X obj 131 176 cyclone/comment 115 11 helvetica ? 0 80 80 80 ----->
;
#X obj 244 170 cyclone/comment 245 11 helvetica ? 0 80 80 80 reset
the "all numbers have been generated" flag;
#X obj 287 195 cyclone/comment 245 11 helvetica ? 0 80 80 80 set random
number generator seed;
#X obj 301 214 cyclone/comment 245 11 helvetica ? 0 80 80 80 seed 0
sets seed to time-based value;
#X obj 345 241 cyclone/comment 97 11 helvetica ? 0 80 80 80 int in
right inlet sets new maximum;
#X obj 152 317 cyclone/comment 60 11 helvetica ? 0 80 80 80 random
value output;
#X obj 330 311 cyclone/comment 80 11 helvetica ? 0 80 80 80 indicates
all numbers have been generated;
#X text 158 390 -;
#X text 125 390 bang;
#X text 158 409 -;
#X text 107 409 message;
#X text 173 390 send out random number, f 60;
#X text 173 409 "clear":;
#X text 227 409 clears the list of already chosen numbers, f 51;
#X text 263 425 reseed random number generator, f 45;
#X text 173 425 "seed <int>":;
#X text 158 460 -;
#X text 118 460 float;
#X text 173 460 clears the list of already chosen numbers \, and specifies
the number of possible values for the random number generator. The
random numbers will range from 0 to one less than this maximum limit
;
#X text 158 572 -;
#X text 125 572 bang;
#X text 173 572 sent out all different values, f 60;
#X text 158 549 -;
#X text 118 549 float;
#X text 173 549 random output, f 60;
#X obj 2 649 cnv 3 550 3 empty empty more_info 8 12 0 13 -228856 -1
0;
#X text 158 613 -;
#X text 100 613 1) float;
#X text 172 613 number of different values to produce, f 60;
#X text 96 673 The word seed \, followed by a number \, provides a
"seed" value for the random generator \, which causes a specific (reproducible)
sequence of pseudo-random numbers to occur. The number 0 uses the time
elapsed since system startup (an unpredictable value) as the seed \,
ensuring an unpredictable sequence of numbers. This unpredictable seed
is used by default when the urn object is created. However \, once
all numbers have been chosen \, the sequence will repeat. Therefore
\, in order to achieve a non-repeating sequence of numbers \, you will
need to send the [urn] object the seed 0 message each time you send
it the clear message.;
#X connect 8 0 17 0;
#X connect 9 0 17 0;
#X connect 10 0 17 1;
#X connect 11 0 17 0;
#X connect 12 0 11 0;
#X connect 17 0 7 0;
#X connect 17 1 13 0;
