#N canvas 405 27 557 541 10;
#X obj 2 279 cnv 3 550 3 empty empty inlets 8 12 0 13 -228856 -1 0
;
#X obj 2 329 cnv 3 550 3 empty empty outlets 8 12 0 13 -228856 -1 0
;
#X obj 2 401 cnv 3 550 3 empty empty arguments 8 12 0 13 -228856 -1
0;
#X obj 2 454 cnv 3 550 3 empty empty more_info 8 12 0 13 -228856 -1
0;
#X obj 82 290 cnv 17 3 17 empty empty 0 5 9 0 16 -228856 -162280 0
;
#X obj 82 341 cnv 17 3 17 empty empty 0 5 9 0 16 -228856 -162280 0
;
#X obj 2 45 cnv 15 552 48 empty empty xbendin2 4 14 0 18 -204280 -1
0;
#X obj 82 365 cnv 17 3 17 empty empty 1 5 9 0 16 -228856 -162280 0
;
#X obj 489 52 xbendin2;
#X floatatom 189 234 8 0 0 0 - - -, f 8;
#X floatatom 189 118 5 0 0 0 - - -, f 5;
#X floatatom 294 234 8 0 0 0 - - -, f 8;
#X floatatom 300 118 5 0 0 0 - - -, f 5;
#X floatatom 244 118 5 0 0 0 - - -, f 5;
#X text 116 470 in/output from;
#X obj 209 469 midiin;
#X obj 300 469 midiout;
#X text 259 470 or to;
#X obj 189 153 cyclone/xbendout2 1;
#X obj 189 199 cyclone/xbendin2 1;
#X text 14 71 deconstruct extra precision midi pitchbend objects 7
+ 7 bit;
#X obj 2 2 cyclone/fancy/cyheader;
#X obj 2 538 cnv 1 550 1 empty empty empty 0 0 0 4 -262144 -262144
0;
#X obj 2 517 cnv 15 552 21 empty empty empty 20 12 0 14 -233017 -33289
0;
#N canvas 503 100 385 385 META 0;
#X text 8 40 LICENSE SIBSD;
#X text 8 150 LIBRARY cyclone;
#X text 8 90 INLET_0 midi;
#X text 8 110 OUTLET_0 float;
#X text 8 130 OUTLET_1 float;
#X text 8 7 KEYWORDS midi pitchbend pitch bend 14 bit channel msb lsb
most significant bit least;
#X text 9 172 VERSION 0.2-beta1;
#X text 9 190 AUTHOR Krzysztof Czaja;
#X text 10 208 RELEASE_DATE 2002;
#X text 11 227 WEBSITE http://suita.chopin.edu.pl/~czaja/miXed/externs/cyclone.html
;
#X text 8 60 DESCRIPTION deconstruct extra precision midi pitchbend
objects 7 + 7 bit;
#X text 11 259 HELP_PATCH_AUTHORS Christoph Kummerer. Revised by Jonathan
Wilkes for Pd-extended 0.42 to conform to the PDDP template. Alex Cleveland
updated this patch for Pd-l2ork version 2013.05.28. Fred Jan Kraan
adapted the patch to pd-extended 2015-02-02. Esteban Viveros updated
this patch for Pd-Vanilla 0.47-2.;
#X restore 489 519 pd META;
#N canvas 350 143 475 85 Related_objects 0;
#X obj 2 2 cnv 15 470 20 empty empty empty 3 12 0 14 -204280 -1 0;
#X text 8 3 Related Objects;
#X obj 61 32 midiin;
#X obj 13 32 bendin;
#X obj 111 32 cyclone/xbendout2;
#X obj 225 32 cyclone/xbendin;
#X obj 328 32 cyclone/xbendout;
#X restore 212 519 pd Related_objects;
#X obj 462 255 cnv 12 73 19 empty empty empty 0 0 0 18 -257983 -1 0
;
#N canvas 325 94 565 230 Examples 0;
#X obj 2 2 cnv 15 560 40 empty empty xbendin2 3 12 0 18 -204280 -1
0;
#X obj 2 206 cnv 15 560 21 empty empty empty 20 12 0 14 -233017 -33289
0;
#X text 52 25 examples;
#N canvas 558 157 310 101 credits 0;
#X text 74 29 From Max 7 Documentation., f 28;
#X restore 482 208 pd credits;
#X obj 30 147 cyclone/comment 119 11 helvetica ? 0 80 80 80 MSB (7-bit)
;
#X obj 34 72 midiin;
#X floatatom 34 127 5 0 0 0 - - -, f 5;
#X floatatom 104 127 5 0 0 0 - - -, f 5;
#X obj 101 148 cyclone/comment 119 11 helvetica ? 0 80 80 80 LSB (7-bit)
;
#X obj 315 145 cyclone/comment 119 11 helvetica ? 0 80 80 80 MSB (7-bit)
;
#X obj 319 72 midiin;
#X floatatom 319 127 5 0 0 0 - - -, f 5;
#X obj 402 78 cyclone/comment 119 11 helvetica ? 0 80 80 80 with argument
\, gives pitch bend only on single MIDI channel;
#X obj 34 98 xbendin2, f 24;
#X obj 319 98 xbendin2 1, f 12;
#X floatatom 175 127 5 0 0 0 - - -, f 5;
#X obj 172 148 cyclone/comment 119 11 helvetica ? 0 80 80 80 MIDI channel
;
#X obj 384 145 cyclone/comment 119 11 helvetica ? 0 80 80 80 LSB (7-bit)
;
#X floatatom 388 127 5 0 0 0 - - -, f 5;
#X connect 5 0 13 0;
#X connect 10 0 14 0;
#X connect 13 0 6 0;
#X connect 13 1 7 0;
#X connect 13 2 15 0;
#X connect 14 0 11 0;
#X connect 14 1 18 0;
#X restore 462 255 pd Examples;
#X text 158 293 -;
#X text 158 342 -;
#X text 118 342 float;
#X text 125 293 midi;
#X text 173 293 midi stream to input, f 60;
#X text 158 365 -;
#X text 118 365 float;
#X text 158 418 -;
#X text 100 418 1) float;
#X text 172 418 sets initial channel number, f 60;
#X text 173 365 Least Significant Byte (lsb), f 60;
#X text 173 342 Most Significant Byte (msb), f 60;
#X connect 10 0 18 0;
#X connect 12 0 18 2;
#X connect 13 0 18 1;
#X connect 18 0 19 0;
#X connect 19 0 9 0;
#X connect 19 1 11 0;
