#N canvas 405 28 557 548 10;
#X obj 2 281 cnv 3 550 3 empty empty inlets 8 12 0 13 -228856 -1 0
;
#X obj 2 329 cnv 3 550 3 empty empty outlets 8 12 0 13 -228856 -1 0
;
#X obj 2 402 cnv 3 550 3 empty empty arguments 8 12 0 13 -228856 -1
0;
#X obj 2 455 cnv 3 550 3 empty empty more_info 8 12 0 13 -228856 -1
0;
#X obj 82 293 cnv 17 3 17 empty empty 0 5 9 0 16 -228856 -162280 0
;
#X obj 82 341 cnv 17 3 17 empty empty 0 5 9 0 16 -228856 -162280 0
;
#X obj 2 45 cnv 15 552 48 empty empty xbendin 4 14 0 18 -204280 -1
0;
#X obj 497 52 xbendin;
#X floatatom 181 236 8 0 0 0 - - -, f 8;
#X floatatom 280 236 8 0 0 0 - - -, f 8;
#X floatatom 181 114 5 0 0 0 - - -, f 5;
#X floatatom 286 115 5 0 0 0 - - -, f 5;
#X obj 82 365 cnv 17 3 17 empty empty 1 5 9 0 16 -228856 -162280 0
;
#X text 113 471 in/output from;
#X obj 209 471 midiin;
#X obj 300 471 midiout;
#X text 259 471 or to;
#X obj 181 151 cyclone/xbendout 0;
#X obj 181 196 cyclone/xbendin 0;
#X text 14 71 deconstruct extra precision midi pitchbend objects 14
bit;
#X obj 2 2 cyclone/fancy/cyheader;
#X obj 2 545 cnv 1 550 1 empty empty empty 0 0 0 4 -262144 -262144
0;
#X obj 2 524 cnv 15 552 21 empty empty empty 20 12 0 14 -233017 -33289
0;
#N canvas 502 102 385 356 META 0;
#X text 9 27 LICENSE SIBSD;
#X text 9 136 LIBRARY cyclone;
#X text 9 7 KEYWORDS midi pitchbend pitch bend 14 bit channel;
#X text 9 76 INLET_0 midi;
#X text 9 96 OUTLET_0 float;
#X text 9 116 OUTLET_1 float;
#X text 9 155 VERSION 0.2-beta1;
#X text 9 173 AUTHOR Krzysztof Czaja;
#X text 10 191 RELEASE_DATE 2002;
#X text 11 210 WEBSITE http://suita.chopin.edu.pl/~czaja/miXed/externs/cyclone.html
;
#X text 9 47 DESCRIPTION deconstruct extra precision midi pitchbend
objects 14 bit;
#X text 11 242 HELP_PATCH_AUTHORS Christoph Kummerer. Revised by Jonathan
Wilkes for Pd-extended 0.42 to conform to the PDDP template. Alex Cleveland
updated this patch for Pd-l2ork version 2013.05.28. Fred Jan Kraan
adapted the patch to pd-extended 2015-02-02. Esteban Viveros updated
this patch for Pd-Vanilla 0.47-2.;
#X restore 490 526 pd META;
#N canvas 350 144 475 85 Related_objects 0;
#X obj 2 2 cnv 15 470 20 empty empty empty 3 12 0 14 -204280 -1 0;
#X text 8 3 Related Objects;
#X obj 111 32 cyclone/xbendout;
#X obj 221 32 cyclone/xbendin2;
#X obj 328 32 cyclone/xbendout2;
#X obj 61 32 midiin;
#X obj 13 32 bendin;
#X restore 208 526 pd Related_objects;
#X obj 462 255 cnv 12 73 19 empty empty empty 0 0 0 18 -257983 -1 0
;
#N canvas 389 95 465 230 Examples 0;
#X obj 2 2 cnv 15 460 40 empty empty xbendin 3 12 0 18 -204280 -1 0
;
#X obj 2 206 cnv 15 460 21 empty empty empty 20 12 0 14 -233017 -33289
0;
#X text 12 25 examples;
#N canvas 560 158 310 101 credits 0;
#X text 79 28 From Max 7 Documentation., f 26;
#X restore 382 208 pd credits;
#X obj 46 147 cyclone/comment 119 11 helvetica ? 0 80 80 80 14-bit
value;
#X obj 50 72 midiin;
#X floatatom 50 127 5 0 0 0 - - -, f 5;
#X floatatom 137 127 5 0 0 0 - - -, f 5;
#X obj 134 148 cyclone/comment 119 11 helvetica ? 0 80 80 80 MIDI channel
;
#X obj 251 145 cyclone/comment 119 11 helvetica ? 0 80 80 80 14-bit
value;
#X obj 255 72 midiin;
#X floatatom 255 127 5 0 0 0 - - -, f 5;
#X obj 255 98 xbendin 1;
#X obj 322 78 cyclone/comment 119 11 helvetica ? 0 80 80 80 with argument
\, gives pitch bend only on single MIDI channel;
#X obj 50 98 cyclone/xbendin;
#X connect 5 0 14 0;
#X connect 10 0 12 0;
#X connect 12 0 11 0;
#X connect 14 0 6 0;
#X connect 14 1 7 0;
#X restore 462 255 pd Examples;
#X text 158 293 -;
#X text 158 343 -;
#X text 118 343 float;
#X text 125 293 midi;
#X text 173 293 midi stream to input, f 60;
#X text 173 343 14 bit pitchbend value, f 60;
#X text 158 366 -;
#X text 118 366 float;
#X text 173 366 channel number, f 60;
#X text 158 419 -;
#X text 100 419 1) float;
#X text 172 419 sets initial channel number, f 60;
#X connect 10 0 17 0;
#X connect 11 0 17 1;
#X connect 17 0 18 0;
#X connect 18 0 8 0;
#X connect 18 1 9 0;
