#N canvas 402 28 557 568 10;
#X obj 2 311 cnv 3 550 3 empty empty inlets 8 12 0 13 -228856 -1 0
;
#X obj 2 437 cnv 3 550 3 empty empty outlets 8 12 0 13 -228856 -1 0
;
#X obj 2 483 cnv 3 550 3 empty empty arguments 8 12 0 13 -228856 -1
0;
#X obj 81 446 cnv 17 3 17 empty empty 0 5 9 0 16 -228856 -162280 0
;
#X obj 2 45 cnv 15 552 48 empty empty xnoteout 4 14 0 18 -204280 -1
0;
#X obj 81 328 cnv 17 3 17 empty empty 0 5 9 0 16 -228856 -162280 0
;
#X floatatom 166 138 5 0 0 0 - - -, f 5;
#X floatatom 217 138 5 0 0 0 - - -, f 5;
#X floatatom 319 138 5 0 0 0 - - -, f 5;
#X obj 166 265 print out;
#X obj 173 243 midiout 1;
#X text 13 71 compose midi messages with release velocity;
#X obj 81 351 cnv 17 3 17 empty empty 0 5 9 0 16 -228856 -162280 0
;
#X obj 81 375 cnv 17 3 17 empty empty 0 5 9 0 16 -228856 -162280 0
;
#X obj 81 400 cnv 17 3 17 empty empty 0 5 9 0 16 -228856 -162280 0
;
#X obj 486 53 xnoteout;
#X obj 2 2 cyclone/fancy/cyheader;
#X obj 2 565 cnv 1 550 1 empty empty empty 0 0 0 4 -262144 -262144
0;
#X obj 2 544 cnv 15 552 21 empty empty empty 20 12 0 14 -233017 -33289
0;
#N canvas 486 99 399 363 META 0;
#X text 12 28 LICENSE SIBSD;
#X text 12 143 LIBRARY cyclone;
#X text 12 68 INLET_0 float bang;
#X text 12 160 VERSION 0.2-beta1;
#X text 12 178 AUTHOR Krzysztof Czaja;
#X text 13 196 RELEASE_DATE 2002;
#X text 14 215 WEBSITE http://suita.chopin.edu.pl/~czaja/miXed/externs/cyclone.html
;
#X text 12 48 DESCRIPTION interpret midi messages with release velocity
;
#X text 12 88 OUTLET_0 float note number;
#X text 12 106 OUTLET_0 float velocity;
#X text 12 124 OUTLET_0 float 0/1 = off/on;
#X text 12 8 KEYWORDS midi notein max_compatible;
#X text 14 247 HELP_PATCH_AUTHORS Christoph Kummerer. Revised by Jonathan
Wilkes for Pd-extended 0.42 to conform to the PDDP template. Alex Cleveland
updated this patch for Pd-l2ork version 2013.05.28. Fred Jan Kraan
adapted the patch to pd-extended 2015-02-02. Esteban Viveros updated
this patch for Pd-Vanilla 0.47-2.;
#X restore 491 547 pd META;
#N canvas 348 144 430 86 Related_objects 0;
#X obj 2 2 cnv 15 425 20 empty empty empty 3 12 0 14 -204280 -1 0;
#X text 8 3 Related Objects;
#X obj 131 34 cyclone/xnotein;
#X obj 20 34 midiout;
#X obj 75 34 noteout;
#X restore 191 546 pd Related_objects;
#X obj 165 122 cyclone/comment 71 11 helvetica ? 0 80 80 80 state;
#X obj 216 122 cyclone/comment 71 11 helvetica ? 0 80 80 80 pitch;
#X obj 264 122 cyclone/comment 71 11 helvetica ? 0 80 80 80 velocity
;
#X obj 316 122 cyclone/comment 71 11 helvetica ? 0 80 80 80 channel
;
#X obj 166 180 cyclone/xnoteout, f 26;
#X floatatom 267 138 5 0 0 0 - - -, f 5;
#X text 158 498 -;
#X text 100 498 1) float;
#X text 158 352 -;
#X text 118 352 float;
#X text 158 377 -;
#X text 118 377 float;
#X text 158 328 -;
#X text 118 328 float;
#X text 158 401 -;
#X text 118 401 float;
#X text 158 447 -;
#X text 118 447 float;
#X text 173 328 state, f 60;
#X text 173 352 pitch, f 60;
#X text 173 377 velocity, f 60;
#X text 173 401 channel, f 60;
#X text 173 447 three byte midi message, f 60;
#X text 172 498 initial channel, f 60;
#X connect 6 0 25 0;
#X connect 7 0 25 1;
#X connect 8 0 25 3;
#X connect 25 0 9 0;
#X connect 25 0 10 0;
#X connect 26 0 25 2;
