#N canvas 396 52 563 732 10;
#X obj 5 687 cnv 15 552 21 empty empty empty 20 12 0 14 -233017 -33289
0;
#X obj 5 513 cnv 3 550 3 empty empty inlets 8 12 0 13 -228856 -1 0
;
#N canvas 598 348 359 228 META 0;
#X text 1 31 LICENSE SIBSD;
#X text 1 121 LIBRARY cyclone;
#X text 1 85 OUTLET_0 signal;
#X text 1 67 INLET_0 signal message;
#X text 1 0 KEYWORDS signal zero cross crossing couter transient detector
;
#X text 1 49 DESCRIPTION zero crossing couter or transient detector
;
#X text 1 103 OUTLET_0 signal;
#X text 0 140 VERSION 0.2-beta1;
#X text 0 158 AUTHOR Krzysztof Czaja;
#X text 1 176 RELEASE_DATE 2002;
#X text 2 195 WEBSITE http://suita.chopin.edu.pl/~czaja/miXed/externs/cyclone.html
;
#X text 2 227 HELP_PATCH_AUTHORS Christoph Kummerer. Revised by Jonathan
Wilkes for Pd-extended 0.42 to conform to the PDDP template. Alex Cleveland
updated this patch for Pd-l2ork version 2013.05.28. Fred Jan Kraan
adapted the patch to pd-extended 2015-02-02;
#X restore 506 689 pd META;
#X obj 5 574 cnv 3 550 3 empty empty outlets 8 12 0 13 -228856 -1 0
;
#N canvas 294 469 428 109 Related_objects 0;
#X obj 0 0 cnv 15 425 20 empty empty empty 3 12 0 14 -204280 -1 0;
#X text 6 1 Related Objects;
#X restore 203 689 pd Related_objects;
#X obj 84 526 cnv 17 3 36 empty empty 0 5 9 0 16 -228856 -162280 0
;
#X obj 84 580 cnv 17 3 17 empty empty 0 5 9 0 16 -228856 -162280 0
;
#X obj 5 38 cnv 15 552 40 empty empty zerox~ 3 12 0 18 -204280 -1 0
;
#X obj 505 48 zerox~;
#X obj 174 200 loadbang;
#X obj 174 222 samplerate~;
#X obj 174 246 / 64;
#X text 129 525 signal;
#X text 129 579 signal;
#X obj 84 614 cnv 17 3 17 empty empty 1 5 9 0 16 -228856 -162280 0
;
#X text 129 614 signal;
#X obj 380 279 cyclone/zerox~;
#X obj 5 650 cnv 3 550 3 empty empty arguments 8 12 0 13 -228856 -1
0;
#X text 118 661 1) float;
#X text 99 546 set <float>;
#X text 183 546 - set impulse value sent to right outlet;
#X text 191 660 - float sets impulse value from 0-1 (default 1).;
#X text 17 61 Detect zero crossings;
#X text 183 525 - signal to be analyzed.;
#X text 75 96 [zerox~] functions as a zero-crossing counter or transient
detector. Left outlet ouputs a value that corresponds to the number
of zero crossings per signal block - so it depends on the block size.
Right outlet send an impulse at every zero crossing.;
#X text 182 579 - a signal corresponding to the number of zero crossings
per signal block.;
#X text 182 614 - a click (impulse) whenever a zero-crossing is detected.
;
#X obj 88 348 *~ 0.5;
#X obj 37 261 cyclone/zerox~ 1;
#X obj 37 211 osc~ 1000;
#X obj 88 376 cyclone/snapshot~ 1;
#X floatatom 174 272 0 0 0 0 - - -;
#X obj 88 316 *~;
#X text 120 315 multiply by block frequency;
#X text 132 348 half the zero crossings;
#X text 150 412 frequency estimate;
#X msg 419 252 set 0.5;
#X msg 415 228 set 1;
#X obj 461 361 output~;
#X obj 380 196 osc~ 1;
#X obj 324 316 cyclone/snapshot~ 1;
#X obj 324 347 vsl 20 80 -1 1 0 0 empty empty empty 0 -9 0 10 -228856
-1 -1 225 1;
#X text 349 420 -1, f 3;
#X text 352 338 1, f 3;
#X text 352 381 0;
#N canvas 594 162 429 437 transient_detection 0;
#X obj 147 114 adc~ 1;
#X obj 147 165 zerox~;
#X obj 147 204 cyclone/snapshot~ 1;
#X obj 147 271 vsl 20 128 0 32 0 0 empty empty empty 0 -9 0 10 -228856
-1 -1 1587 1;
#X obj 147 235 nbx 5 17 -1e+37 1e+37 0 0 empty empty empty 0 -8 0 13
-228856 -1 -1 4 256;
#X text 42 51 look at the difference between "ssss" and "aaa" or any
noisy/tansient input as opposed to a tonal and stable one.;
#X obj 6 12 cnv 15 400 20 empty empty empty 3 12 0 14 -204280 -1 0
;
#X text 18 14 transient detection;
#X connect 0 0 1 0;
#X connect 1 0 2 0;
#X connect 2 0 4 0;
#X connect 4 0 3 0;
#X restore 208 475 pd transient_detection;
#X obj 88 412 nbx 5 14 -1e+37 1e+37 0 0 empty empty empty 0 -8 0 10
-249661 -1 -1 1000 256;
#N canvas 439 241 715 321 (subpatch) 0;
#X obj 51 51 cnv 15 552 28 empty empty Cyclone: 6 13 0 18 -128992 -233080
0;
#X obj 217 65 cnv 5 5 5 empty empty Library 0 0 0 12 -128992 -233080
0;
#X obj 275 65 cnv 5 5 5 empty empty of 0 0 0 12 -128992 -233080 0;
#X obj 298 64 cnv 5 5 5 empty empty objects 0 0 0 12 -128992 -233080
0;
#X obj 356 64 cnv 5 5 5 empty empty cloned 0 0 0 12 -128992 -233080
0;
#X obj 406 64 cnv 5 5 5 empty empty from 0 0 0 12 -128992 -233080 0
;
#X obj 444 64 cnv 5 5 5 empty empty Max/MSP 0 0 0 12 -128992 -233080
0;
#X coords 0 -1 1 1 554 30 1 50 50;
#X restore 4 5 pd;
#N canvas 673 40 366 264 (subpatch) 0;
#X obj 51 101 tgl 42 0 \$0-tgl-s \$0-tgl-r empty 1 8 1 9 -74965 -212593
-262144 1 1;
#X obj 215 68 route dsp;
#X obj 215 37 receive pd;
#N canvas 939 367 324 271 set_color 0;
#X obj 47 30 inlet;
#X obj 96 146 s \$0-cnv;
#X msg 96 114 color -4.86997e+06 -1.34937e+07;
#N canvas 0 22 712 637 off 0;
#X obj 490 220 * -1;
#X obj 424 300 +;
#X obj 409 325 +;
#X obj 347 219 * -65536;
#X obj 424 220 * -256;
#X obj 409 356 - 1;
#X obj 390 189 unpack f f f;
#X obj 225 295 +;
#X obj 210 320 +;
#X obj 148 214 * -65536;
#X obj 225 215 * -256;
#X obj 291 215 * -1;
#X obj 210 351 - 1;
#X obj 191 184 unpack f f f;
#X obj 379 423 pack;
#X msg 378 447 color \$1 \$2;
#X msg 395 152 124 124 124;
#X msg 203 154 220 220 220;
#X obj 238 121 t b b;
#X obj 238 81 inlet;
#X obj 378 485 outlet;
#X connect 0 0 1 1;
#X connect 1 0 2 1;
#X connect 2 0 5 0;
#X connect 3 0 2 0;
#X connect 4 0 1 0;
#X connect 5 0 14 1;
#X connect 6 0 3 0;
#X connect 6 1 4 0;
#X connect 6 2 0 0;
#X connect 7 0 8 1;
#X connect 8 0 12 0;
#X connect 9 0 8 0;
#X connect 10 0 7 0;
#X connect 11 0 7 1;
#X connect 12 0 14 0;
#X connect 13 0 9 0;
#X connect 13 1 10 0;
#X connect 13 2 11 0;
#X connect 14 0 15 0;
#X connect 15 0 20 0;
#X connect 16 0 6 0;
#X connect 17 0 13 0;
#X connect 18 0 17 0;
#X connect 18 1 16 0;
#X connect 19 0 18 0;
#X restore 47 113 pd off;
#X obj 47 83 select 0 1;
#X obj 47 168 list append 0;
#X obj 47 195 list trim;
#X obj 47 220 s \$0-tgl-r;
#X connect 0 0 4 0;
#X connect 2 0 1 0;
#X connect 2 0 5 0;
#X connect 3 0 1 0;
#X connect 3 0 5 0;
#X connect 4 0 3 0;
#X connect 4 1 2 0;
#X connect 5 0 6 0;
#X connect 6 0 7 0;
#X restore 215 165 pd set_color;
#X obj 135 122 r \$0-tgl-s;
#N canvas 0 22 450 300 (subpatch) 0;
#X obj 101 101 cnv 25 40 25 empty \$0-cnv DSP 3 13 0 20 -74965 -212593
0;
#X coords 0 -1 1 1 42 27 1 100 100;
#X restore 51 144 pd;
#X obj 226 139 s \$0-tgl-r;
#X msg 226 115 set \$1;
#X msg 135 177 \; pd dsp \$1;
#N canvas 256 32 278 194 load_check 0;
#X obj 136 53 sig~ 1;
#X obj 74 24 loadbang;
#X obj 136 86 snapshot~;
#X obj 91 52 del 5;
#X obj 136 151 outlet;
#X obj 74 103 tgl 15 0 empty empty empty 17 7 0 10 -262144 -1 -1 0
1;
#X obj 74 126 switch~;
#X connect 0 0 2 0;
#X connect 1 0 3 0;
#X connect 1 0 5 0;
#X connect 2 0 4 0;
#X connect 3 0 2 0;
#X connect 3 0 5 0;
#X connect 5 0 6 0;
#X restore 51 72 pd load_check;
#X connect 1 0 3 0;
#X connect 1 0 7 0;
#X connect 2 0 1 0;
#X connect 4 0 8 0;
#X connect 4 0 3 0;
#X connect 7 0 6 0;
#X connect 9 0 0 0;
#X coords 0 -1 1 1 44 72 2 50 100;
#X restore 503 90 pd;
#X connect 9 0 10 0;
#X connect 10 0 11 0;
#X connect 11 0 31 0;
#X connect 16 1 38 0;
#X connect 16 1 38 1;
#X connect 27 0 30 0;
#X connect 28 0 32 0;
#X connect 29 0 28 0;
#X connect 30 0 46 0;
#X connect 31 0 32 1;
#X connect 32 0 27 0;
#X connect 36 0 16 0;
#X connect 37 0 16 0;
#X connect 39 0 16 0;
#X connect 39 0 40 0;
#X connect 40 0 41 0;
