#N canvas 477 95 440 558 10;
#X obj 2 2 cnv 15 435 20 empty empty empty 3 12 0 14 -204280 -1 0;
#X text 8 3 Tonal keyboard;
#N canvas 462 258 325 423 C3 0;
#X obj 68 77 key;
#X obj 160 76 keyup;
#X obj 68 121 t b b;
#X msg 68 197 1;
#X obj 160 236 change;
#X msg 160 199 0;
#X obj 68 99 select 97;
#X obj 160 99 select 97;
#X obj 160 177 del 50;
#X msg 95 144 stop;
#X obj 160 263 select 1 0;
#X msg 128 296 60 100;
#X msg 188 296 60 0;
#X obj 2 2 cnv 15 320 20 empty empty empty 3 12 0 14 -204280 -1 0;
#X text 8 3 Tonal keyboard - C3;
#N canvas 402 219 513 222 credits 0;
#X text 80 70 http://stackoverflow.com/questions/24520121/in-pure-data-how-to-keyup-keydown-and-while-keydown
, f 61;
#X restore 243 390 pd credits;
#X obj 128 358 outlet;
#X obj 231 296 cyclone/comment 100 11 helvetica ? 0 80 80 80 note off
;
#X obj 79 295 cyclone/comment 100 11 helvetica ? 0 80 80 80 note on
;
#X obj 22 32 cyclone/comment 223 11 helvetica ? 0 80 80 80 this patch
map "a" key press on/off and send C3 midi note on/off;
#X connect 0 0 6 0;
#X connect 1 0 7 0;
#X connect 2 0 3 0;
#X connect 2 1 9 0;
#X connect 3 0 4 0;
#X connect 4 0 10 0;
#X connect 5 0 4 0;
#X connect 6 0 2 0;
#X connect 7 0 8 0;
#X connect 8 0 5 0;
#X connect 9 0 8 0;
#X connect 10 0 11 0;
#X connect 10 1 12 0;
#X connect 11 0 16 0;
#X connect 12 0 16 0;
#X restore 76 55 pd C3;
#N canvas 462 258 325 426 C#3-Db3 0;
#X obj 68 77 key;
#X obj 160 76 keyup;
#X obj 68 121 t b b;
#X msg 68 197 1;
#X obj 160 236 change;
#X msg 160 199 0;
#X obj 160 177 del 50;
#X msg 95 144 stop;
#X obj 160 263 select 1 0;
#X obj 2 2 cnv 15 320 20 empty empty empty 3 12 0 14 -204280 -1 0;
#N canvas 402 219 513 222 credits 0;
#X text 80 70 http://stackoverflow.com/questions/24520121/in-pure-data-how-to-keyup-keydown-and-while-keydown
, f 61;
#X restore 243 390 pd credits;
#X obj 128 358 outlet;
#X obj 231 296 cyclone/comment 100 11 helvetica ? 0 80 80 80 note off
;
#X obj 79 295 cyclone/comment 100 11 helvetica ? 0 80 80 80 note on
;
#X obj 22 32 cyclone/comment 223 11 helvetica ? 0 80 80 80 this patch
map "w" key press on/off and send C#3-Db3 midi note on/off;
#X text 8 3 Tonal keyboard - C#3-Db3;
#X msg 128 296 61 100;
#X msg 188 296 61 0;
#X obj 68 99 select 119;
#X obj 160 99 select 119;
#X connect 0 0 18 0;
#X connect 1 0 19 0;
#X connect 2 0 3 0;
#X connect 2 1 7 0;
#X connect 3 0 4 0;
#X connect 4 0 8 0;
#X connect 5 0 4 0;
#X connect 6 0 5 0;
#X connect 7 0 6 0;
#X connect 8 0 16 0;
#X connect 8 1 17 0;
#X connect 16 0 11 0;
#X connect 17 0 11 0;
#X connect 18 0 2 0;
#X connect 19 0 6 0;
#X restore 91 74 pd C#3-Db3;
#N canvas 462 258 325 423 D3 0;
#X obj 68 77 key;
#X obj 160 76 keyup;
#X obj 68 121 t b b;
#X msg 68 197 1;
#X obj 160 236 change;
#X msg 160 199 0;
#X obj 160 177 del 50;
#X msg 95 144 stop;
#X obj 160 263 select 1 0;
#X obj 2 2 cnv 15 320 20 empty empty empty 3 12 0 14 -204280 -1 0;
#N canvas 402 219 513 222 credits 0;
#X text 80 70 http://stackoverflow.com/questions/24520121/in-pure-data-how-to-keyup-keydown-and-while-keydown
, f 61;
#X restore 243 390 pd credits;
#X obj 128 358 outlet;
#X obj 231 296 cyclone/comment 100 11 helvetica ? 0 80 80 80 note off
;
#X obj 79 295 cyclone/comment 100 11 helvetica ? 0 80 80 80 note on
;
#X obj 22 32 cyclone/comment 223 11 helvetica ? 0 80 80 80 this patch
map "s" key press on/off and send D3 midi note on/off;
#X text 8 3 Tonal keyboard - D3;
#X obj 68 99 select 115;
#X obj 160 99 select 115;
#X msg 128 296 62 100;
#X msg 188 296 62 0;
#X connect 0 0 16 0;
#X connect 1 0 17 0;
#X connect 2 0 3 0;
#X connect 2 1 7 0;
#X connect 3 0 4 0;
#X connect 4 0 8 0;
#X connect 5 0 4 0;
#X connect 6 0 5 0;
#X connect 7 0 6 0;
#X connect 8 0 18 0;
#X connect 8 1 19 0;
#X connect 16 0 2 0;
#X connect 17 0 6 0;
#X connect 18 0 11 0;
#X connect 19 0 11 0;
#X restore 116 93 pd D3;
#N canvas 492 256 325 432 D#3-Eb3 0;
#X obj 68 77 key;
#X obj 160 76 keyup;
#X obj 68 121 t b b;
#X msg 68 197 1;
#X obj 160 236 change;
#X msg 160 199 0;
#X obj 160 177 del 50;
#X msg 95 144 stop;
#X obj 160 263 select 1 0;
#X obj 2 2 cnv 15 320 20 empty empty empty 3 12 0 14 -204280 -1 0;
#N canvas 402 219 513 222 credits 0;
#X text 80 70 http://stackoverflow.com/questions/24520121/in-pure-data-how-to-keyup-keydown-and-while-keydown
, f 61;
#X restore 243 390 pd credits;
#X obj 128 358 outlet;
#X obj 231 296 cyclone/comment 100 11 helvetica ? 0 80 80 80 note off
;
#X obj 79 295 cyclone/comment 100 11 helvetica ? 0 80 80 80 note on
;
#X obj 22 32 cyclone/comment 223 11 helvetica ? 0 80 80 80 this patch
map "e" key press on/off and send D#3-Eb3 midi note on/off;
#X msg 128 296 63 100;
#X msg 188 296 63 0;
#X obj 68 99 select 101;
#X obj 160 99 select 101;
#X text 8 3 Tonal keyboard - D#3-Eb3;
#X connect 0 0 17 0;
#X connect 1 0 18 0;
#X connect 2 0 3 0;
#X connect 2 1 7 0;
#X connect 3 0 4 0;
#X connect 4 0 8 0;
#X connect 5 0 4 0;
#X connect 6 0 5 0;
#X connect 7 0 6 0;
#X connect 8 0 15 0;
#X connect 8 1 16 0;
#X connect 15 0 11 0;
#X connect 16 0 11 0;
#X connect 17 0 2 0;
#X connect 18 0 6 0;
#X restore 125 113 pd D#3-Eb3;
#N canvas 462 258 325 441 E3 0;
#X obj 68 77 key;
#X obj 160 76 keyup;
#X obj 68 121 t b b;
#X msg 68 197 1;
#X obj 160 236 change;
#X msg 160 199 0;
#X obj 160 177 del 50;
#X msg 95 144 stop;
#X obj 160 263 select 1 0;
#X obj 2 2 cnv 15 320 20 empty empty empty 3 12 0 14 -204280 -1 0;
#N canvas 402 219 513 222 credits 0;
#X text 80 70 http://stackoverflow.com/questions/24520121/in-pure-data-how-to-keyup-keydown-and-while-keydown
, f 61;
#X restore 233 400 pd credits;
#X obj 128 358 outlet;
#X obj 231 296 cyclone/comment 100 11 helvetica ? 0 80 80 80 note off
;
#X obj 79 295 cyclone/comment 100 11 helvetica ? 0 80 80 80 note on
;
#X obj 22 32 cyclone/comment 223 11 helvetica ? 0 80 80 80 this patch
map "d" key press on/off and send E3 midi note on/off;
#X text 8 3 Tonal keyboard - E3;
#X obj 68 99 select 100;
#X obj 160 99 select 100;
#X msg 128 296 64 100;
#X msg 188 296 64 0;
#X connect 0 0 16 0;
#X connect 1 0 17 0;
#X connect 2 0 3 0;
#X connect 2 1 7 0;
#X connect 3 0 4 0;
#X connect 4 0 8 0;
#X connect 5 0 4 0;
#X connect 6 0 5 0;
#X connect 7 0 6 0;
#X connect 8 0 18 0;
#X connect 8 1 19 0;
#X connect 16 0 2 0;
#X connect 17 0 6 0;
#X connect 18 0 11 0;
#X connect 19 0 11 0;
#X restore 154 132 pd E3;
#N canvas 462 258 325 430 F3 0;
#X obj 68 77 key;
#X obj 160 76 keyup;
#X obj 68 121 t b b;
#X msg 68 197 1;
#X obj 160 236 change;
#X msg 160 199 0;
#X obj 160 177 del 50;
#X msg 95 144 stop;
#X obj 160 263 select 1 0;
#X obj 2 2 cnv 15 320 20 empty empty empty 3 12 0 14 -204280 -1 0;
#N canvas 402 219 513 222 credits 0;
#X text 80 70 http://stackoverflow.com/questions/24520121/in-pure-data-how-to-keyup-keydown-and-while-keydown
, f 61;
#X restore 243 390 pd credits;
#X obj 128 358 outlet;
#X obj 231 296 cyclone/comment 100 11 helvetica ? 0 80 80 80 note off
;
#X obj 79 295 cyclone/comment 100 11 helvetica ? 0 80 80 80 note on
;
#X obj 22 32 cyclone/comment 223 11 helvetica ? 0 80 80 80 this patch
map "f" key press on/off and send F3 midi note on/off;
#X text 8 3 Tonal keyboard - F3;
#X obj 68 99 select 102;
#X obj 160 99 select 102;
#X msg 128 296 65 100;
#X msg 188 296 65 0;
#X connect 0 0 16 0;
#X connect 1 0 17 0;
#X connect 2 0 3 0;
#X connect 2 1 7 0;
#X connect 3 0 4 0;
#X connect 4 0 8 0;
#X connect 5 0 4 0;
#X connect 6 0 5 0;
#X connect 7 0 6 0;
#X connect 8 0 18 0;
#X connect 8 1 19 0;
#X connect 16 0 2 0;
#X connect 17 0 6 0;
#X connect 18 0 11 0;
#X connect 19 0 11 0;
#X restore 173 155 pd F3;
#N canvas 492 256 325 443 F#3-Gb3 0;
#X obj 68 77 key;
#X obj 160 76 keyup;
#X obj 68 121 t b b;
#X msg 68 197 1;
#X obj 160 236 change;
#X msg 160 199 0;
#X obj 160 177 del 50;
#X msg 95 144 stop;
#X obj 160 263 select 1 0;
#X obj 2 2 cnv 15 320 20 empty empty empty 3 12 0 14 -204280 -1 0;
#N canvas 402 219 513 222 credits 0;
#X text 80 70 http://stackoverflow.com/questions/24520121/in-pure-data-how-to-keyup-keydown-and-while-keydown
, f 61;
#X restore 224 402 pd credits;
#X obj 128 358 outlet;
#X obj 231 296 cyclone/comment 100 11 helvetica ? 0 80 80 80 note off
;
#X obj 79 295 cyclone/comment 100 11 helvetica ? 0 80 80 80 note on
;
#X obj 22 32 cyclone/comment 223 11 helvetica ? 0 80 80 80 this patch
map "t" key press on/off and send F#3-Gb3 midi note on/off;
#X text 8 3 Tonal keyboard - F#3-Gb3;
#X obj 68 99 select 116;
#X obj 160 99 select 116;
#X msg 128 296 66 100;
#X msg 188 296 66 0;
#X connect 0 0 16 0;
#X connect 1 0 17 0;
#X connect 2 0 3 0;
#X connect 2 1 7 0;
#X connect 3 0 4 0;
#X connect 4 0 8 0;
#X connect 5 0 4 0;
#X connect 6 0 5 0;
#X connect 7 0 6 0;
#X connect 8 0 18 0;
#X connect 8 1 19 0;
#X connect 16 0 2 0;
#X connect 17 0 6 0;
#X connect 18 0 11 0;
#X connect 19 0 11 0;
#X restore 183 176 pd F#3-Gb3;
#N canvas 462 258 325 431 G3 0;
#X obj 68 74 key;
#X obj 160 73 keyup;
#X obj 68 121 t b b;
#X msg 68 197 1;
#X obj 160 236 change;
#X msg 160 199 0;
#X obj 160 177 del 50;
#X msg 95 144 stop;
#X obj 160 263 select 1 0;
#X obj 2 2 cnv 15 320 20 empty empty empty 3 12 0 14 -204280 -1 0;
#N canvas 402 219 513 222 credits 0;
#X text 80 70 http://stackoverflow.com/questions/24520121/in-pure-data-how-to-keyup-keydown-and-while-keydown
, f 61;
#X restore 233 402 pd credits;
#X obj 128 358 outlet;
#X obj 231 296 cyclone/comment 100 11 helvetica ? 0 80 80 80 note off
;
#X obj 79 295 cyclone/comment 100 11 helvetica ? 0 80 80 80 note on
;
#X obj 22 32 cyclone/comment 223 11 helvetica ? 0 80 80 80 this patch
map "g" key press on/off and send G3 midi note on/off;
#X text 8 3 Tonal keyboard - G3;
#X obj 160 99 select 103;
#X obj 68 99 select 103;
#X msg 128 296 67 100;
#X msg 188 296 67 0;
#X connect 0 0 17 0;
#X connect 1 0 16 0;
#X connect 2 0 3 0;
#X connect 2 1 7 0;
#X connect 3 0 4 0;
#X connect 4 0 8 0;
#X connect 5 0 4 0;
#X connect 6 0 5 0;
#X connect 7 0 6 0;
#X connect 8 0 18 0;
#X connect 8 1 19 0;
#X connect 16 0 6 0;
#X connect 17 0 2 0;
#X connect 18 0 11 0;
#X connect 19 0 11 0;
#X restore 203 195 pd G3;
#N canvas 492 256 325 415 G#3-Ab3 0;
#X obj 68 73 key;
#X obj 160 72 keyup;
#X obj 68 121 t b b;
#X msg 68 197 1;
#X obj 160 236 change;
#X msg 160 199 0;
#X obj 160 177 del 50;
#X msg 95 144 stop;
#X obj 160 263 select 1 0;
#X obj 2 2 cnv 15 320 20 empty empty empty 3 12 0 14 -204280 -1 0;
#N canvas 402 219 513 222 credits 0;
#X text 80 70 http://stackoverflow.com/questions/24520121/in-pure-data-how-to-keyup-keydown-and-while-keydown
, f 61;
#X restore 238 386 pd credits;
#X obj 128 358 outlet;
#X obj 231 296 cyclone/comment 100 11 helvetica ? 0 80 80 80 note off
;
#X obj 79 295 cyclone/comment 100 11 helvetica ? 0 80 80 80 note on
;
#X obj 22 32 cyclone/comment 223 11 helvetica ? 0 80 80 80 this patch
map "y" key press on/off and send G#3-Ab3 midi note on/off;
#X text 8 3 Tonal keyboard - G#3-Ab3;
#X obj 68 99 select 121;
#X obj 160 99 select 121;
#X msg 128 296 68 100;
#X msg 188 296 68 0;
#X connect 0 0 16 0;
#X connect 1 0 17 0;
#X connect 2 0 3 0;
#X connect 2 1 7 0;
#X connect 3 0 4 0;
#X connect 4 0 8 0;
#X connect 5 0 4 0;
#X connect 6 0 5 0;
#X connect 7 0 6 0;
#X connect 8 0 18 0;
#X connect 8 1 19 0;
#X connect 16 0 2 0;
#X connect 17 0 6 0;
#X connect 18 0 11 0;
#X connect 19 0 11 0;
#X restore 217 216 pd G#3-Ab3;
#N canvas 462 258 327 427 A3 0;
#X obj 69 75 key;
#X obj 161 74 keyup;
#X obj 69 122 t b b;
#X msg 69 198 1;
#X obj 161 237 change;
#X msg 161 200 0;
#X obj 161 178 del 50;
#X msg 96 145 stop;
#X obj 161 264 select 1 0;
#X obj 3 3 cnv 15 320 20 empty empty empty 3 12 0 14 -204280 -1 0;
#N canvas 402 219 513 222 credits 0;
#X text 80 70 http://stackoverflow.com/questions/24520121/in-pure-data-how-to-keyup-keydown-and-while-keydown
, f 61;
#X restore 227 383 pd credits;
#X obj 129 359 outlet;
#X obj 232 297 cyclone/comment 100 11 helvetica ? 0 80 80 80 note off
;
#X obj 80 296 cyclone/comment 100 11 helvetica ? 0 80 80 80 note on
;
#X obj 23 33 cyclone/comment 223 11 helvetica ? 0 80 80 80 this patch
map "h" key press on/off and send A3 midi note on/off;
#X text 9 4 Tonal keyboard - A3;
#X obj 69 100 select 104;
#X obj 161 100 select 104;
#X msg 129 297 69 100;
#X msg 189 297 69 0;
#X connect 0 0 16 0;
#X connect 1 0 17 0;
#X connect 2 0 3 0;
#X connect 2 1 7 0;
#X connect 3 0 4 0;
#X connect 4 0 8 0;
#X connect 5 0 4 0;
#X connect 6 0 5 0;
#X connect 7 0 6 0;
#X connect 8 0 18 0;
#X connect 8 1 19 0;
#X connect 16 0 2 0;
#X connect 17 0 6 0;
#X connect 18 0 11 0;
#X connect 19 0 11 0;
#X restore 248 235 pd A3;
#N canvas 492 256 325 419 A#3-Bb3 0;
#X obj 68 73 key;
#X obj 160 72 keyup;
#X obj 68 121 t b b;
#X msg 68 197 1;
#X obj 160 236 change;
#X msg 160 199 0;
#X obj 160 177 del 50;
#X msg 95 144 stop;
#X obj 160 263 select 1 0;
#X obj 2 2 cnv 15 320 20 empty empty empty 3 12 0 14 -204280 -1 0;
#N canvas 402 219 513 222 credits 0;
#X text 80 70 http://stackoverflow.com/questions/24520121/in-pure-data-how-to-keyup-keydown-and-while-keydown
, f 61;
#X restore 243 390 pd credits;
#X obj 128 358 outlet;
#X obj 231 296 cyclone/comment 100 11 helvetica ? 0 80 80 80 note off
;
#X obj 79 295 cyclone/comment 100 11 helvetica ? 0 80 80 80 note on
;
#X obj 22 32 cyclone/comment 223 11 helvetica ? 0 80 80 80 this patch
map "u" key press on/off and send A#3-Bb3 midi note on/off;
#X text 8 3 Tonal keyboard - A#3-Bb3;
#X msg 128 296 70 100;
#X msg 188 296 70 0;
#X obj 68 99 select 117;
#X obj 160 99 select 117;
#X connect 0 0 18 0;
#X connect 1 0 19 0;
#X connect 2 0 3 0;
#X connect 2 1 7 0;
#X connect 3 0 4 0;
#X connect 4 0 8 0;
#X connect 5 0 4 0;
#X connect 6 0 5 0;
#X connect 7 0 6 0;
#X connect 8 0 16 0;
#X connect 8 1 17 0;
#X connect 16 0 11 0;
#X connect 17 0 11 0;
#X connect 18 0 2 0;
#X connect 19 0 6 0;
#X restore 259 263 pd A#3-Bb3;
#N canvas 462 258 325 458 B3 0;
#X obj 68 74 key;
#X obj 160 73 keyup;
#X obj 68 121 t b b;
#X msg 68 197 1;
#X obj 160 236 change;
#X msg 160 199 0;
#X obj 160 177 del 50;
#X msg 95 144 stop;
#X obj 160 263 select 1 0;
#X obj 2 2 cnv 15 320 20 empty empty empty 3 12 0 14 -204280 -1 0;
#N canvas 402 219 513 222 credits 0;
#X text 80 70 http://stackoverflow.com/questions/24520121/in-pure-data-how-to-keyup-keydown-and-while-keydown
, f 61;
#X restore 221 406 pd credits;
#X obj 128 358 outlet;
#X obj 231 296 cyclone/comment 100 11 helvetica ? 0 80 80 80 note off
;
#X obj 79 295 cyclone/comment 100 11 helvetica ? 0 80 80 80 note on
;
#X obj 22 32 cyclone/comment 223 11 helvetica ? 0 80 80 80 this patch
map "j" key press on/off and send B3 midi note on/off;
#X text 8 3 Tonal keyboard - B3;
#X obj 68 99 select 106;
#X obj 160 99 select 106;
#X msg 128 296 71 100;
#X msg 188 296 71 0;
#X connect 0 0 16 0;
#X connect 1 0 17 0;
#X connect 2 0 3 0;
#X connect 2 1 7 0;
#X connect 3 0 4 0;
#X connect 4 0 8 0;
#X connect 5 0 4 0;
#X connect 6 0 5 0;
#X connect 7 0 6 0;
#X connect 8 0 18 0;
#X connect 8 1 19 0;
#X connect 16 0 2 0;
#X connect 17 0 6 0;
#X connect 18 0 11 0;
#X connect 19 0 11 0;
#X restore 278 283 pd B3;
#N canvas 462 258 325 451 C4 0;
#X obj 68 74 key;
#X obj 160 73 keyup;
#X obj 68 121 t b b;
#X msg 68 197 1;
#X obj 160 236 change;
#X msg 160 199 0;
#X obj 160 177 del 50;
#X msg 95 144 stop;
#X obj 160 263 select 1 0;
#X obj 2 2 cnv 15 320 20 empty empty empty 3 12 0 14 -204280 -1 0;
#N canvas 402 219 513 222 credits 0;
#X text 80 70 http://stackoverflow.com/questions/24520121/in-pure-data-how-to-keyup-keydown-and-while-keydown
, f 61;
#X restore 216 404 pd credits;
#X obj 128 358 outlet;
#X obj 231 296 cyclone/comment 100 11 helvetica ? 0 80 80 80 note off
;
#X obj 79 295 cyclone/comment 100 11 helvetica ? 0 80 80 80 note on
;
#X obj 22 32 cyclone/comment 223 11 helvetica ? 0 80 80 80 this patch
map "k" key press on/off and send C3 midi note on/off;
#X obj 68 99 select 107;
#X obj 160 99 select 107;
#X msg 128 296 72 100;
#X msg 188 296 72 0;
#X text 8 3 Tonal keyboard - C4;
#X connect 0 0 15 0;
#X connect 1 0 16 0;
#X connect 2 0 3 0;
#X connect 2 1 7 0;
#X connect 3 0 4 0;
#X connect 4 0 8 0;
#X connect 5 0 4 0;
#X connect 6 0 5 0;
#X connect 7 0 6 0;
#X connect 8 0 17 0;
#X connect 8 1 18 0;
#X connect 15 0 2 0;
#X connect 16 0 6 0;
#X connect 17 0 11 0;
#X connect 18 0 11 0;
#X restore 295 302 pd C4;
#N canvas 462 258 325 426 C#4-Db4 0;
#X obj 68 72 key;
#X obj 160 71 keyup;
#X obj 68 121 t b b;
#X msg 68 197 1;
#X obj 160 236 change;
#X msg 160 199 0;
#X obj 160 177 del 50;
#X msg 95 144 stop;
#X obj 160 263 select 1 0;
#X obj 2 2 cnv 15 320 20 empty empty empty 3 12 0 14 -204280 -1 0;
#N canvas 402 219 513 222 credits 0;
#X text 80 70 http://stackoverflow.com/questions/24520121/in-pure-data-how-to-keyup-keydown-and-while-keydown
, f 61;
#X restore 243 390 pd credits;
#X obj 128 358 outlet;
#X obj 231 296 cyclone/comment 100 11 helvetica ? 0 80 80 80 note off
;
#X obj 79 295 cyclone/comment 100 11 helvetica ? 0 80 80 80 note on
;
#X obj 22 32 cyclone/comment 223 11 helvetica ? 0 80 80 80 this patch
map "o" key press on/off and send C#4-Db4 midi note on/off;
#X msg 128 296 73 100;
#X msg 188 296 73 0;
#X text 8 3 Tonal keyboard - C#4-Db4;
#X obj 68 99 select 111;
#X obj 160 99 select 111;
#X connect 0 0 18 0;
#X connect 1 0 19 0;
#X connect 2 0 3 0;
#X connect 2 1 7 0;
#X connect 3 0 4 0;
#X connect 4 0 8 0;
#X connect 5 0 4 0;
#X connect 6 0 5 0;
#X connect 7 0 6 0;
#X connect 8 0 15 0;
#X connect 8 1 16 0;
#X connect 15 0 11 0;
#X connect 16 0 11 0;
#X connect 18 0 2 0;
#X connect 19 0 6 0;
#X restore 305 322 pd C#4-Db4;
#N canvas 462 258 327 429 D4 0;
#X obj 69 78 key;
#X obj 161 77 keyup;
#X obj 69 122 t b b;
#X msg 69 198 1;
#X obj 161 237 change;
#X msg 161 200 0;
#X obj 161 178 del 50;
#X msg 96 145 stop;
#X obj 161 264 select 1 0;
#X obj 3 3 cnv 15 320 20 empty empty empty 3 12 0 14 -204280 -1 0;
#N canvas 402 219 513 222 credits 0;
#X text 80 70 http://stackoverflow.com/questions/24520121/in-pure-data-how-to-keyup-keydown-and-while-keydown
, f 61;
#X restore 234 391 pd credits;
#X obj 129 359 outlet;
#X obj 232 297 cyclone/comment 100 11 helvetica ? 0 80 80 80 note off
;
#X obj 80 296 cyclone/comment 100 11 helvetica ? 0 80 80 80 note on
;
#X obj 23 33 cyclone/comment 223 11 helvetica ? 0 80 80 80 this patch
map "l" key press on/off and send D3 midi note on/off;
#X text 9 4 Tonal keyboard - D4;
#X obj 69 100 select 108;
#X obj 161 100 select 108;
#X msg 129 297 74 100;
#X msg 189 297 74 0;
#X connect 0 0 16 0;
#X connect 1 0 17 0;
#X connect 2 0 3 0;
#X connect 2 1 7 0;
#X connect 3 0 4 0;
#X connect 4 0 8 0;
#X connect 5 0 4 0;
#X connect 6 0 5 0;
#X connect 7 0 6 0;
#X connect 8 0 18 0;
#X connect 8 1 19 0;
#X connect 16 0 2 0;
#X connect 17 0 6 0;
#X connect 18 0 11 0;
#X connect 19 0 11 0;
#X restore 322 343 pd D4;
#N canvas 308 271 325 324 transpose 0;
#X obj 2 2 cnv 15 320 20 empty empty empty 3 12 0 14 -204280 -1 0;
#X text 8 3 Transpose;
#X obj 29 73 inlet;
#X obj 29 119 unpack f f;
#N canvas 421 190 546 447 octave_control 0;
#X msg 57 118 1;
#X msg 158 118 -1;
#X obj 156 169 loadbang;
#X msg 156 188 5;
#X msg 213 335 0;
#X msg 57 335 -60;
#X msg 88 335 -48;
#X msg 119 335 -36;
#X msg 151 335 -24;
#X msg 182 335 -12;
#X msg 245 335 12;
#X msg 276 335 24;
#X msg 307 335 36;
#X msg 339 335 48;
#X msg 370 335 60;
#X obj 2 2 cnv 15 540 20 empty empty empty 3 12 0 14 -204280 -1 0;
#X obj 213 417 outlet;
#X obj 57 59 inlet;
#X obj 158 59 inlet;
#X obj 87 122 cyclone/comment 55 11 helvetica ? 0 80 80 80 increment
counter;
#X obj 191 120 cyclone/comment 65 11 helvetica ? 0 80 80 80 decrement
counter;
#X obj 188 194 cyclone/comment 63 11 helvetica ? 0 80 80 80 set counter
initial value;
#X text 8 3 Octave control;
#X obj 57 298 route -2 -1 0 1 2 3 4 5 6 7 8, f 58;
#N canvas 0 22 405 375 octave_counter 0;
#X obj 144 75 inlet;
#X obj 215 75 inlet;
#X obj 2 2 cnv 15 400 20 empty empty empty 3 12 0 14 -204280 -1 0;
#X text 8 3 Octave counter;
#X obj 215 181 f;
#X obj 144 169 +;
#X obj 144 216 moses -2;
#X obj 144 191 moses 9;
#X obj 215 316 outlet;
#X obj 29 38 cyclone/comment 158 11 helvetica ? 0 80 80 80 It counts
from -2 to 8;
#X obj 86 84 cyclone/comment 84 11 helvetica ? 0 80 80 80 increment/
decrement;
#X obj 253 88 cyclone/comment 158 11 helvetica ? 0 80 80 80 set initial
value;
#X obj 231 299 cyclone/comment 158 11 helvetica ? 0 80 80 80 output
octave value;
#X obj 65 201 cyclone/comment 77 11 helvetica ? 0 80 80 80 moses objects
set max and min values of the counter;
#X connect 0 0 5 0;
#X connect 1 0 4 0;
#X connect 4 0 5 1;
#X connect 4 0 8 0;
#X connect 5 0 7 0;
#X connect 6 1 4 0;
#X connect 7 0 6 0;
#X restore 57 234 pd octave_counter;
#X obj 414 309 cyclone/comment 107 11 helvetica ? 0 80 80 80 adjust
values to transpose MIDI note to a particular octave;
#X obj 107 260 s octave_number;
#X obj 207 258 cyclone/comment 106 11 helvetica ? 0 80 80 80 send the
octave to pd current_octave subpatch;
#X connect 0 0 24 0;
#X connect 1 0 24 0;
#X connect 2 0 3 0;
#X connect 3 0 24 1;
#X connect 4 0 16 0;
#X connect 5 0 16 0;
#X connect 6 0 16 0;
#X connect 7 0 16 0;
#X connect 8 0 16 0;
#X connect 9 0 16 0;
#X connect 10 0 16 0;
#X connect 11 0 16 0;
#X connect 12 0 16 0;
#X connect 13 0 16 0;
#X connect 14 0 16 0;
#X connect 17 0 0 0;
#X connect 18 0 1 0;
#X connect 23 0 5 0;
#X connect 23 1 6 0;
#X connect 23 2 7 0;
#X connect 23 3 8 0;
#X connect 23 4 9 0;
#X connect 23 5 4 0;
#X connect 23 6 10 0;
#X connect 23 7 11 0;
#X connect 23 8 12 0;
#X connect 23 9 13 0;
#X connect 23 10 14 0;
#X connect 24 0 23 0;
#X connect 24 0 26 0;
#X restore 121 157 pd octave_control;
#X obj 29 174 +;
#X obj 29 211 pack f f, f 10;
#X obj 29 270 outlet;
#X obj 17 38 cyclone/comment 267 11 helvetica ? 0 80 80 80 transpose
MIDI note to different octaves;
#N canvas 479 253 325 441 up_octave 0;
#X obj 68 77 key;
#X obj 160 76 keyup;
#X obj 68 121 t b b;
#X msg 68 197 1;
#X obj 68 246 change;
#X msg 160 199 0;
#X obj 160 177 del 50;
#X msg 95 144 stop;
#X obj 2 2 cnv 15 320 20 empty empty empty 3 12 0 14 -204280 -1 0;
#N canvas 402 219 513 222 credits 0;
#X text 80 70 http://stackoverflow.com/questions/24520121/in-pure-data-how-to-keyup-keydown-and-while-keydown
, f 61;
#X restore 233 400 pd credits;
#X obj 68 348 outlet;
#X text 8 3 Tonal keyboard - up octave;
#X obj 68 273 select 1;
#X obj 68 99 select 120;
#X obj 160 99 select 120;
#X obj 22 32 cyclone/comment 230 11 helvetica ? 0 80 80 80 this patch
map "x" key pressed and send bang;
#X connect 0 0 13 0;
#X connect 1 0 14 0;
#X connect 2 0 3 0;
#X connect 2 1 7 0;
#X connect 3 0 4 0;
#X connect 4 0 12 0;
#X connect 5 0 4 0;
#X connect 6 0 5 0;
#X connect 7 0 6 0;
#X connect 12 0 10 0;
#X connect 13 0 2 0;
#X connect 14 0 6 0;
#X restore 121 97 pd up_octave;
#N canvas 479 253 328 438 down_octave 0;
#X obj 3 3 cnv 15 320 20 empty empty empty 3 12 0 14 -204280 -1 0;
#N canvas 402 219 513 222 credits 0;
#X text 80 70 http://stackoverflow.com/questions/24520121/in-pure-data-how-to-keyup-keydown-and-while-keydown
, f 61;
#X restore 234 401 pd credits;
#X text 9 4 Tonal keyboard - down octave;
#X obj 68 77 key;
#X obj 160 76 keyup;
#X obj 68 121 t b b;
#X msg 68 197 1;
#X obj 68 246 change;
#X msg 160 199 0;
#X obj 160 177 del 50;
#X msg 95 144 stop;
#X obj 68 348 outlet;
#X obj 68 273 select 1;
#X obj 22 32 cyclone/comment 230 11 helvetica ? 0 80 80 80 this patch
map "z" key pressed and send bang;
#X obj 68 99 select 122;
#X obj 160 99 select 122;
#X connect 3 0 14 0;
#X connect 4 0 15 0;
#X connect 5 0 6 0;
#X connect 5 1 10 0;
#X connect 6 0 7 0;
#X connect 7 0 12 0;
#X connect 8 0 7 0;
#X connect 9 0 8 0;
#X connect 10 0 9 0;
#X connect 12 0 11 0;
#X connect 14 0 5 0;
#X connect 15 0 9 0;
#X restore 220 97 pd down_octave;
#X connect 2 0 3 0;
#X connect 3 0 5 0;
#X connect 3 1 6 1;
#X connect 4 0 5 1;
#X connect 5 0 6 0;
#X connect 6 0 7 0;
#X connect 9 0 4 0;
#X connect 10 0 4 1;
#X restore 76 377 pd transpose;
#X obj 76 506 outlet;
#X obj 281 121 cnv 15 98 43 empty empty empty 20 12 0 14 -233017 -66577
0;
#X obj 361 124 tgl 15 0 tgl_snd tgl_rcv empty 17 7 0 10 -262144 -1
-1 0 1;
#N canvas 257 373 726 344 current_octave 0;
#X obj 2 2 cnv 15 720 20 empty empty empty 3 12 0 14 -204280 -1 0;
#X text 8 3 Current octave;
#X obj 27 36 cyclone/comment 320 11 helvetica ? 0 80 80 80 provide
current octave for visualization;
#X obj 268 87 r octave_number;
#X floatatom 268 109 5 0 0 0 - - -, f 5;
#X obj 268 128 route -2 -1 0 1 2 3 4 5 6 7 8;
#X msg 46 209 \; rcv_display label C-1_to_D0;
#X msg 69 239 \; rcv_display label C0_to_D1;
#X msg 26 179 \; rcv_display label C-2_to_D-1;
#X msg 90 269 \; rcv_display label C1_to_D2;
#X msg 232 177 \; rcv_display label C2_to_D3;
#X msg 250 207 \; rcv_display label C3_to_D4;
#X msg 264 237 \; rcv_display label C4_to_D5;
#X msg 285 267 \; rcv_display label C5_to_D6;
#X msg 430 170 \; rcv_display label C6_to_D7;
#X msg 471 200 \; rcv_display label C7_to_D8;
#X msg 505 230 \; rcv_display label C8_to_D9;
#X connect 3 0 4 0;
#X connect 4 0 5 0;
#X connect 5 0 8 0;
#X connect 5 1 6 0;
#X connect 5 2 7 0;
#X connect 5 3 9 0;
#X connect 5 4 10 0;
#X connect 5 5 11 0;
#X connect 5 6 12 0;
#X connect 5 7 13 0;
#X connect 5 8 14 0;
#X connect 5 9 15 0;
#X connect 5 10 16 0;
#X restore 305 173 pd current_octave;
#X obj 292 143 cnv 15 76 15 empty rcv_display C5_to_D6 8 8 0 10 -257983
-66577 0;
#X obj 76 449 spigot;
#X obj 109 427 r tgl_snd;
#X obj 281 163 cnv 1 7 1 empty empty empty 20 12 0 14 -1 -66577 0;
#X text 285 123 Tabajara Key;
#X connect 2 0 17 0;
#X connect 3 0 17 0;
#X connect 4 0 17 0;
#X connect 5 0 17 0;
#X connect 6 0 17 0;
#X connect 7 0 17 0;
#X connect 8 0 17 0;
#X connect 9 0 17 0;
#X connect 10 0 17 0;
#X connect 11 0 17 0;
#X connect 12 0 17 0;
#X connect 13 0 17 0;
#X connect 14 0 17 0;
#X connect 15 0 17 0;
#X connect 16 0 17 0;
#X connect 17 0 23 0;
#X connect 23 0 18 0;
#X connect 24 0 23 1;
