#N canvas 711 32 559 553 10;
#X obj 84 198 noise~;
#X obj 3 329 cnv 3 550 3 empty empty inlets 8 12 0 13 -228856 -1 0
;
#X obj 3 436 cnv 3 550 3 empty empty outlets 8 12 0 13 -228856 -1 0
;
#X text 139 338 signal;
#X obj 78 445 cnv 17 3 17 empty empty 0 5 9 0 16 -228856 -162280 0
;
#X obj 78 338 cnv 17 3 60 empty empty 0 5 9 0 16 -228856 -162280 0
;
#X text 198 337 - input to filter;
#X obj 3 506 cnv 15 552 21 empty empty empty 20 12 0 14 -233017 -33289
0;
#X obj 3 473 cnv 3 550 3 empty empty arguments 8 12 0 13 -228856 -1
0;
#X msg 53 169 clear;
#X text 145 355 clear;
#X text 199 373 - resets previous in/outputs (x[-1] \, x[-2] \, y[-1]
& y[-2]);
#X obj 2 4 cnv 15 553 42 empty empty empty 20 12 0 14 -233017 -66577
0;
#N canvas 0 22 450 278 (subpatch) 0;
#X coords 0 1 100 -1 554 42 1 0 0;
#X restore 2 3 graph;
#X obj 305 4 cnv 15 250 40 empty empty empty 12 13 0 18 -128992 -233080
0;
#N canvas 382 141 749 319 (subpatch) 0;
#X coords 0 -1 1 1 252 42 2 100 100;
#X restore 304 3 pd;
#X obj 84 229 cyclone/cascade~;
#X text 75 93 [cascade~] filters an input with a series of biquad filters
\, each of them defined as a list of 5 coefficients (as in the [cyclone/biquad~]
standard \, not Pd's vanilla [biquad~]).;
#X msg 177 172 0.02635 0 -0.02635 -1.97899 0.982357 0.02635 0 -0.02635
-1.97899 0.982357, f 37;
#X msg 205 216 0.02635 0 -0.02635 -1.97899 0.982357 0.02635 0 -0.02635
-1.97899 0.982357, f 36;
#X text 139 372 bypass;
#X text 199 355 - clears the filter memory;
#X text 127 390 zero <f>;
#X text 199 391 - <1> mutes the output;
#X obj 77 411 cnv 17 3 17 empty empty 1 5 9 0 16 -228856 -162280 0
;
#X text 151 409 list;
#X text 198 408 - the 5 coefficients (a0 \, a1 \, a2 \, b1 \, b2);
#X text 139 482 (none);
#X text 198 445 - filtered output;
#X text 139 445 signal;
#N canvas 909 335 471 150 inconsistencies 0;
#X text 55 16 Inconsistencies to Max/MSP:;
#X text 57 44 - The cyclone version of max's [cascade~] is missing
the ability to get filter values from a "dictionary" \, because we
don't have those implemented (at least yet).;
#X restore 431 294 pd inconsistencies;
#X obj 16 4 cyclone/comment 0 37 times ? 0 0 0 0 cascade~;
#X obj 322 28 cyclone/comment 0 13 courier ? 0 224 228 220 Objects
cloned from Max/MSP;
#X obj 363 4 cyclone/comment 0 24 courier ? 0 224 228 220 cyclone;
#X obj 65 264 ./out~;
#X obj 220 262 cnv 15 140 50 empty empty empty 20 12 0 14 -261234 -66577
0;
#X obj 234 265 cyclone/comment 166 18 times ? 0 0 0 0 New object \,
still experimental!;
#X obj 17 56 cyclone/comment 0 18 times ? 0 0 0 0 Cascade series of
biquad filters;
#X connect 0 0 16 0;
#X connect 9 0 16 0;
#X connect 16 0 34 0;
#X connect 16 0 34 1;
#X connect 18 0 16 1;
#X connect 19 0 16 1;
