#N canvas 752 39 560 718 10;
#X obj 4 681 cnv 15 552 21 empty empty empty 20 12 0 14 -233017 -33289
0;
#X obj 5 330 cnv 3 550 3 empty empty inlets 8 12 0 13 -228856 -1 0
;
#X obj 5 521 cnv 3 550 3 empty empty outlets 8 12 0 13 -228856 -1 0
;
#X obj 5 632 cnv 3 550 3 empty empty arguments 8 12 0 13 -228856 -1
0;
#X obj 81 340 cnv 17 3 128 empty empty 0 5 9 0 16 -228856 -162280 0
;
#X obj 2 4 cnv 15 553 42 empty empty empty 20 12 0 14 -233017 -66577
0;
#N canvas 0 22 450 278 (subpatch) 0;
#X coords 0 1 100 -1 554 42 1 0 0;
#X restore 2 3 graph;
#X obj 305 4 cnv 15 250 40 empty empty empty 12 13 0 18 -128992 -233080
0;
#N canvas 382 141 749 319 (subpatch) 0;
#X coords 0 -1 1 1 252 42 2 100 100;
#X restore 304 3 pd;
#X obj 80 531 cnv 17 3 17 empty empty 1 5 9 0 16 -228856 -162280 0
;
#X obj 80 550 cnv 17 3 17 empty empty 2 5 9 0 16 -228856 -162280 0
;
#X obj 80 569 cnv 17 3 17 empty empty 3 5 9 0 16 -228856 -162280 0
;
#X obj 80 588 cnv 17 3 17 empty empty 4 5 9 0 16 -228856 -162280 0
;
#X obj 80 607 cnv 17 3 17 empty empty 5 5 9 0 16 -228856 -162280 0
;
#X text 141 532 signal;
#X text 141 550 signal;
#X text 141 569 signal;
#X text 141 588 signal;
#X text 141 607 signal;
#X obj 143 224 cyclone/biquad~, f 35;
#X obj 80 473 cnv 17 3 17 empty empty 1 5 9 0 16 -228856 -162280 0
;
#X obj 80 495 cnv 17 3 17 empty empty 2 5 9 0 16 -228856 -162280 0
;
#X text 122 640 1) symbol;
#X text 122 657 1) float;
#X text 190 657 - resampling factor (default x?);
#X text 190 640 - sets filter type (highpass/lowpass/etc...) default
'off';
#X text 105 341 float/signal;
#X text 105 496 float/signal;
#X obj 120 176 noise~;
#N canvas 952 304 450 300 resampling_factor 0;
#X text 169 75 not yet;
#X restore 417 294 pd resampling_factor;
#X text 190 341 - sets cutoff/center frequency;
#X text 105 474 float/signal;
#X text 190 474 - sets amplitude/gain (not all filters have this parameter)
;
#X text 190 496 - sets Q / Slope;
#X text 190 431 - resampling factor;
#X text 129 361 anything;
#X text 77 88 [filtercoeff~] generates biquad coefficients at signal-rate
for several filter types from the parameters: 1) frequency \, 2) gain
and 3) resonance (Q) or slope (S).;
#N canvas 368 52 913 594 filter_types 0;
#N canvas 133 181 1039 427 (subpatch) 0;
#X obj 101 101 cnv 15 888 288 empty empty empty 18 9 1 15 -262144 -1
0;
#X obj 146 109 cnv 15 805 235 empty empty empty 20 12 0 14 -1 -66577
0;
#X obj 481 366 cnv 15 15 15 empty empty Kilohertz 18 9 1 16 -262144
-1 0;
#X obj 150 314 cnv 15 798 27 empty empty empty 20 12 0 14 -257983 -66577
0;
#X obj 150 258 cnv 15 798 27 empty empty empty 20 12 0 14 -257983 -66577
0;
#X obj 150 286 cnv 15 798 27 empty empty empty 20 12 0 14 -241340 -66577
0;
#X obj 150 230 cnv 15 798 27 empty empty empty 20 12 0 14 -241340 -66577
0;
#N canvas 391 118 975 563 (subpatch) 0;
#X array \$0-fase 400 float 1;
#A 0 0 0 0 0 0 0 0 0 0 0 0 0 0 0 0 0 0 0 0 0 0 0 0 0 0 0 0 0 0 0 0
0 0 0 0 0 0 0 0 0 0 0 0 0 0 0 0 0 0 0 0 0 0 0 0 0 0 0 0 0 0 0 0 0 0
0 0 0 0 0 0 0 0 0 0 0 0 0 0 0 0 0 0 0 0 0 0 0 0 0 0 0 0 0 0 0 0 0 0
0 0 0 0 0 0 0 0 0 0 0 0 0 0 0 0 0 0 0 0 0 0 0 0 0 0 0 0 0 0 0 0 0 0
0 0 0 0 0 0 0 0 0 0 0 0 0 0 0 0 0 0 0 0 0 0 0 0 0 0 0 0 0 0 0 0 0 0
0 0 0 0 0 0 0 0 0 0 0 0 0 0 0 0 0 0 0 0 0 0 0 0 0 0 0 0 0 0 0 0 0 0
0 0 0 0 0 0 0 0 0 0 0 0 0 0 0 0 0 0 0 0 0 0 0 0 0 0 0 0 0 0 0 0 0 0
0 0 0 0 0 0 0 0 0 0 0 0 0 0 0 0 0 0 0 0 0 0 0 0 0 0 0 0 0 0 0 0 0 0
0 0 0 0 0 0 0 0 0 0 0 0 0 0 0 0 0 0 0 0 0 0 0 0 0 0 0 0 0 0 0 0 0 0
0 0 0 0 0 0 0 0 0 0 0 0 0 0 0 0 0 0 0 0 0 0 0 0 0 0 0 0 0 0 0 0 0 0
0 0 0 0 0 0 0 0 0 0 0 0 0 0 0 0 0 0 0 0 0 0 0 0 0 0 0 0 0 0 0 0 0 0
0 0 0 0 0 0 0 0 0 0 0 0 0 0 0 0 0 0 0 0 0 0 0 0 0 0 0 0 0;
#X coords 0 1 399 -1 800 111 1;
#X restore 149 230 graph;
#X obj 150 198 cnv 15 798 27 empty empty empty 20 12 0 14 -257983 -66577
0;
#X obj 150 142 cnv 15 798 27 empty empty empty 20 12 0 14 -257983 -66577
0;
#X text 254 344 0.05;
#X text 154 344 0.02;
#X obj 150 170 cnv 15 798 27 empty empty empty 20 12 0 14 -241340 -66577
0;
#X text 855 343 10;
#X text 932 344 20;
#X text 780 343 5;
#X text 677 343 2;
#X text 599 344 1;
#X text 513 344 0.5;
#X text 411 344 0.2;
#X text 331 344 0.1;
#X text 950 215 -24;
#X text 957 163 0;
#X obj 114 176 cnv 15 15 15 empty empty dB 0 9 1 17 -262144 -1 0;
#X text 951 192 -12;
#X obj 150 114 cnv 15 798 27 empty empty empty 20 12 0 14 -241340 -66577
0;
#N canvas 0 22 450 278 (subpatch) 0;
#X coords 0 1 100 -1 100 227 1;
#X restore 167 114 graph;
#N canvas 0 22 450 278 (subpatch) 0;
#X coords 0 1 100 -1 77 227 1;
#X restore 267 114 graph;
#N canvas 0 22 450 278 (subpatch) 0;
#X coords 0 1 100 -1 80 227 1;
#X restore 344 114 graph;
#N canvas 0 22 450 278 (subpatch) 0;
#X coords 0 1 100 -1 102 227 1;
#X restore 424 114 graph;
#N canvas 0 22 450 278 (subpatch) 0;
#X coords 0 1 100 -1 78 227 1;
#X restore 526 114 graph;
#N canvas 0 22 450 278 (subpatch) 0;
#X coords 0 1 100 -1 78 227 1;
#X restore 604 114 graph;
#N canvas 0 22 450 278 (subpatch) 0;
#X coords 0 1 100 -1 103 227 1;
#X restore 682 114 graph;
#N canvas 0 22 450 278 (subpatch) 0;
#X coords 0 1 100 -1 78 227 1;
#X restore 785 114 graph;
#N canvas 0 22 450 278 (subpatch) 0;
#X coords 0 1 100 -1 78 227 1;
#X restore 863 114 graph;
#N canvas 391 118 975 563 (subpatch) 0;
#X array \$0-amp 400 float 1;
#A 0 0 0 0 0 0 0 0 0 0 0 0 0 0 0 0 0 0 0 0 0 0 0 0 0 0 0 0 0 0 0 0
0 0 0 0 0 0 0 0 0 0 0 0 0 0 0 0 0 0 0 0 0 0 0 0 0 0 0 0 0 0 0 0 0 0
0 0 0 0 0 0 0 0 0 0 0 0 0 0 0 0 0 0 0 0 0 0 0 0 0 0 0 0 0 0 0 0 0 0
0 0 0 0 0 0 0 0 0 0 0 0 0 0 0 0 0 0 0 0 0 0 0 0 0 0 0 0 0 0 0 0 0 0
0 0 0 0 0 0 0 0 0 0 0 0 0 0 0 0 0 0 0 0 0 0 0 0 0 0 0 0 0 0 0 0 0 0
0 0 0 0 0 0 0 0 0 0 0 0 0 0 0 0 0 0 0 0 0 0 0 0 0 0 0 0 0 0 0 0 0 0
0 0 0 0 0 0 0 0 0 0 0 0 0 0 0 0 0 0 0 0 0 0 0 0 0 0 0 0 0 0 0 0 0 0
0 0 0 0 0 0 0 0 0 0 0 0 0 0 0 0 0 0 0 0 0 0 0 0 0 0 0 0 0 0 0 0 0 0
0 0 0 0 0 0 0 0 0 0 0 0 0 0 0 0 0 0 0 0 0 0 0 0 0 0 0 0 0 0 0 0 0 0
0 0 0 0 0 0 0 0 0 0 0 0 0 0 0 0 0 0 0 0 0 0 0 0 0 0 0 0 0 0 0 0 0 0
0 0 0 0 0 0 0 0 0 0 0 0 0 0 0 0 0 0 0 0 0 0 0 0 0 0 0 0 0 0 0 0 0 0
0 0 0 0 0 0 0 0 0 0 0 0 0 0 0 0 0 0 0 0 0 0 0 0 0 0 0 0 0;
#X coords 0 1 399 -1 800 113 1;
#X restore 149 114 graph;
#X text 955 331 -pi;
#X text 954 305 -pi/2;
#X text 954 275 0;
#X text 954 248 pi/2;
#X text 955 226 pi;
#X obj 110 292 cnv 15 15 15 empty empty rad 0 0 1 17 -262144 -1 0;
#X text 952 133 12;
#X text 954 108 24;
#X obj 101 101 cnv 8 888 8 empty empty empty 18 9 1 15 -262144 -1 0
;
#X text 106 267 phase;
#X text 113 159 amp;
#X coords 0 -1 1 1 890 290 2 100 100;
#X restore 13 278 pd;
#X obj 108 166 cyclone/biquad~, f 16;
#X obj 36 125 noise~;
#X obj 126 105 nbx 7 14 -1e+37 1e+37 0 0 empty empty empty 0 -8 0 10
-228856 -1 -1 0 256;
#X obj 377 22 vradio 15 1 0 15 \$0-type \$0-set_type empty 0 -8 0 10
-228856 -1 -1 2;
#X text 397 52 bandpass;
#X text 397 96 peaknotch;
#X text 397 112 lowshelf;
#X text 398 127 highshelf;
#X text 397 67 resonant;
#X text 398 142 allpass;
#X text 396 22 lowpass;
#X text 396 37 highpass;
#X text 398 155 gainlpass;
#X text 397 171 gainhpass;
#X text 397 185 gainbpass;
#X text 397 200 gainbstop;
#X text 397 215 gainresonant;
#X text 397 231 gainapass;
#X text 397 83 bandstop;
#X obj 126 129 cyclone/filtercoeff~ lowpass;
#X obj 291 105 nbx 5 14 -1e+37 1e+37 0 0 empty empty empty 0 -8 0 10
-228856 -1 -1 0 256;
#X obj 208 105 nbx 5 14 -1e+37 1e+37 0 0 empty empty empty 0 -8 0 10
-228856 -1 -1 0 256;
#X obj 30 49 cnv 14 80 14 empty empty empty 20 12 0 14 -233017 -66577
0;
#X symbolatom 30 49 13 0 0 0 - #0-symbol-set -, f 13;
#X obj 126 20 vsl 18 70 200 2000 0 0 empty empty empty 0 -9 0 10 -228856
-1 -1 0 1;
#X obj 208 20 vsl 18 70 -24 24 0 0 empty empty empty 0 -9 0 10 -228856
-1 -1 0 1;
#X obj 291 20 vsl 18 70 0.1 100 1 0 empty empty empty 0 -9 0 10 -228856
-1 -1 0 1;
#N canvas 594 398 599 371 plot 0;
#N canvas 707 143 657 467 init 0;
#X obj 110 66 loadbang;
#X obj 180 353 s \$0-dbrange;
#X obj 282 91 samplerate~;
#X obj 282 114 v sr_\$0;
#X msg 217 289 400;
#X text 247 289 array size;
#X obj 110 102 trigger b b b;
#X msg 180 320 24;
#X obj 273 193 v midi_range_\$0;
#X obj 273 167 ftom;
#X msg 273 141 8750.55;
#X obj 265 224 expr atan(1) * 4;
#X obj 266 255 v pi_\$0;
#N canvas 760 51 502 549 get-freq 0;
#X msg 211 218 resize \$1;
#X obj 88 66 change;
#X obj 230 157 v table_size_\$0;
#X obj 88 99 trigger bang float;
#X obj 211 192 change 400;
#X obj 88 29 inlet;
#N canvas 192 80 935 668 loop 0;
#X obj 106 192 until;
#X obj 144 241 + 1;
#X msg 124 216 0;
#X obj 106 95 t f f;
#X obj 483 216 until;
#X obj 529 265 + 1;
#X msg 501 241 0;
#X obj 106 270 t f f;
#X obj 211 355 +;
#X obj 106 370 mtof;
#X obj 106 144 t f b f;
#X obj 483 191 t f b f;
#X obj 483 326 /;
#X obj 106 31 inlet;
#X obj 106 574 outlet;
#X obj 259 583 outlet;
#X obj 483 144 expr table_size_\$0 - $f1;
#X obj 483 265 f;
#X obj 483 379 expr pow($f1 \, 0.4);
#X obj 106 241 f;
#X obj 483 296 trigger f f;
#X obj 106 63 expr rint(table_size_\$0 * 0.98);
#X obj 483 407 * 20.6017;
#X text 556 407 MIDI 16;
#X obj 106 298 expr (($f1 + 1) * (midi_range_\$0 / $f2)) + 16;
#X obj 106 465 expr $f1 * (2 * pi_\$0) / 44100;
#X obj 483 498 expr $f1 * (2 * pi_\$0) / 44100;
#X connect 0 0 19 0;
#X connect 1 0 19 1;
#X connect 2 0 19 1;
#X connect 3 0 10 0;
#X connect 3 1 16 0;
#X connect 4 0 17 0;
#X connect 5 0 17 1;
#X connect 6 0 17 1;
#X connect 7 0 24 0;
#X connect 7 1 8 0;
#X connect 8 0 15 0;
#X connect 9 0 25 0;
#X connect 10 0 0 0;
#X connect 10 1 2 0;
#X connect 10 2 24 1;
#X connect 11 0 4 0;
#X connect 11 1 6 0;
#X connect 11 2 12 1;
#X connect 12 0 18 0;
#X connect 13 0 21 0;
#X connect 16 0 8 1;
#X connect 16 0 11 0;
#X connect 17 0 5 0;
#X connect 17 0 20 0;
#X connect 18 0 22 0;
#X connect 19 0 1 0;
#X connect 19 0 7 0;
#X connect 20 0 12 0;
#X connect 20 1 15 0;
#X connect 21 0 3 0;
#X connect 22 0 26 0;
#X connect 24 0 9 0;
#X connect 25 0 14 0;
#X connect 26 0 14 0;
#X restore 88 129 pd loop;
#X obj 211 257 s freq_\$0;
#X obj 73 280 expr cos($f1) \; sin($f1) \; cos($f1 * 2) \; sin($f1
* 2) \; $f2;
#X obj 66 433 tabwrite sinW_\$0;
#X obj 99 461 tabwrite cos2W_\$0;
#X obj 35 397 tabwrite cosW_\$0;
#X obj 131 492 tabwrite sin2W_\$0;
#X connect 0 0 7 0;
#X connect 1 0 3 0;
#X connect 3 0 6 0;
#X connect 3 1 2 0;
#X connect 3 1 4 0;
#X connect 4 0 0 0;
#X connect 5 0 1 0;
#X connect 6 0 8 0;
#X connect 6 1 8 1;
#X connect 8 0 11 0;
#X connect 8 1 9 0;
#X connect 8 2 10 0;
#X connect 8 3 12 0;
#X connect 8 4 9 1;
#X connect 8 4 10 1;
#X connect 8 4 11 1;
#X connect 8 4 12 1;
#X restore 217 317 pd get-freq;
#X obj 428 233 table sin2W_\$0 400;
#X obj 428 208 table cos2W_\$0 400;
#X obj 429 171 table sinW_\$0 400;
#X obj 429 146 table cosW_\$0 400;
#X connect 0 0 6 0;
#X connect 2 0 3 0;
#X connect 4 0 13 0;
#X connect 6 0 7 0;
#X connect 6 1 4 0;
#X connect 6 2 2 0;
#X connect 6 2 10 0;
#X connect 6 2 11 0;
#X connect 7 0 1 0;
#X connect 9 0 8 0;
#X connect 10 0 9 0;
#X connect 11 0 12 0;
#X restore 246 97 pd init \; tables;
#X obj 161 175 trigger float float;
#N canvas 284 136 621 423 H(z) 0;
#X obj 32 34 inlet;
#X obj 148 36 inlet;
#X text 79 35 index;
#X obj 281 255 cnv 15 320 90 empty empty empty 20 12 0 14 -233017 -66577
0;
#X text 294 262 Função de Transferência:;
#X obj 32 265 /;
#X obj 151 263 -;
#X text 310 293 H(z) =;
#X text 351 290 _________________________________;
#X text 361 284 a0 + (a1 * z^-1) + (a2 * z^-2);
#N canvas 121 22 226 277 db-range 0;
#X obj 42 31 inlet;
#X obj 42 61 rmstodb;
#X obj 42 90 - 100;
#X obj 98 61 r \$0-dbrange;
#X obj 108 109 * -1;
#X obj 41 147 clip;
#X obj 80 183 /;
#X obj 80 216 outlet;
#X connect 0 0 1 0;
#X connect 1 0 2 0;
#X connect 2 0 5 0;
#X connect 3 0 4 0;
#X connect 3 0 5 2;
#X connect 3 0 6 1;
#X connect 4 0 5 1;
#X connect 5 0 6 0;
#X connect 6 0 7 0;
#X restore 32 309 pd db-range;
#X obj 151 298 expr $f1 / pi_\$0;
#X obj 32 378 outlet;
#X obj 151 378 outlet;
#X obj 32 104 list;
#X text 187 36 coeficientes;
#X text 368 306 1 - (b1 * z^-1) - (b2 * z^-2);
#X obj 32 139 expr $f4 + ($f5 * cosW_\$0[$f1]) + ($f6 * cos2W_\$0[$f1])
\; ($f5 * sinW_\$0[$f1]) + ($f6 * sin2W_\$0[$f1]) \; 1 - ($f2 * cosW_\$0[$f1])
- ($f3 * cos2W_\$0[$f1]) \; 0 - ($f2 * sinW_\$0[$f1]) - ($f3 * sin2W_\$0[$f1])
;
#X obj 32 229 cyclone/cartopol;
#X obj 151 229 cyclone/cartopol;
#X obj 151 324 cyclone/pong -1 1 @mode wrap, f 17;
#X connect 0 0 14 0;
#X connect 1 0 14 1;
#X connect 5 0 10 0;
#X connect 6 0 11 0;
#X connect 10 0 12 0;
#X connect 11 0 20 0;
#X connect 14 0 17 0;
#X connect 17 0 18 0;
#X connect 17 1 18 1;
#X connect 17 2 19 0;
#X connect 17 3 19 1;
#X connect 18 0 5 0;
#X connect 18 1 6 0;
#X connect 19 0 5 1;
#X connect 19 1 6 1;
#X connect 20 0 13 0;
#X restore 161 202 pd H(z);
#X obj 101 117 trigger bang list;
#X obj 161 232 tabwrite \$0-amp;
#X obj 179 268 tabwrite \$0-fase;
#N canvas 57 25 863 358 coeficientes 0;
#N canvas 114 184 482 252 lowpass 0;
#X obj 39 190 s \$0-coefficients;
#X obj 39 165 pack f f f f f;
#X obj 142 165 v b0;
#X text 47 210 b1 b2 a0 a1 a2;
#N canvas 76 96 259 188 get-coef 0;
#X obj 61 93 sel 1;
#X obj 61 38 r \$0-get-coeff;
#X obj 61 128 outlet;
#X obj 61 66 expr type_\$0 == 1;
#X connect 0 0 2 0;
#X connect 1 0 3 0;
#X connect 3 0 0 0;
#X restore 39 21 pd get-coef;
#X obj 174 165 v alphaQ;
#X text 180 33 LPF \; - b1 = 2*cos(w) / b0 \; - b2 = (alphaQ - 1) /
b0 \; - a0 = (1-cos(w)) / (2*b0) \; - a1 = (1-cos(w)) / b0 \; - a2
= (1-cos(w)) / (2*b0) \; - b0 = alphaQ + 1 \; - alphaQ = sin(w) / (2*Q)
;
#X obj 39 47 expr 2*cos(w) / b0 \; (alphaQ - 1) / b0 \; (1 - cos(w))
/ (2*b0) \; (1 - cos(w)) / b0 \; (1 - cos(w)) / (2*b0) \; alphaQ +
1 \; sin(w) / (2*Q);
#X connect 1 0 0 0;
#X connect 4 0 7 0;
#X connect 7 0 1 0;
#X connect 7 1 1 1;
#X connect 7 2 1 2;
#X connect 7 3 1 3;
#X connect 7 4 1 4;
#X connect 7 5 2 0;
#X connect 7 6 5 0;
#X restore 588 61 pd lowpass;
#N canvas 75 99 377 287 highpass 0;
#X obj 15 195 pack f f f f f;
#X obj 15 228 s \$0-coefficients;
#X text 16 251 b1 b2 a0 a1 a2;
#N canvas 76 96 254 201 get-coef 0;
#X obj 61 93 sel 1;
#X obj 61 38 r \$0-get-coeff;
#X obj 62 135 outlet;
#X obj 61 66 expr type_\$0 == 2;
#X connect 0 0 2 0;
#X connect 1 0 3 0;
#X connect 3 0 0 0;
#X restore 15 40 pd get-coef;
#X text 156 62 HPF \; - b1 = 2*cos(w) / b0 \; - b2 = (alphaQ - 1) /
b0 \; - a0 = (1 + cos(w)) / (2*b0) \; - a1 = -(1 + cos(w)) / b0 \;
- a2 = (1 + cos(w)) / (2*b0) \; - b0 = alphaQ + 1 \; - alphaQ = sin(w)
/ (2*Q);
#X obj 122 187 v b0;
#X obj 154 187 v alphaQ;
#X obj 15 76 expr 2*cos(w) / b0 \; (alphaQ - 1) / b0 \; (cos(w) + 1)
/ (2*b0) \; -(cos(w) + 1) / b0 \; (cos(w) + 1) / (2*b0) \; alphaQ +
1 \; sin(w) / (2*Q);
#X connect 0 0 1 0;
#X connect 3 0 7 0;
#X connect 7 0 0 0;
#X connect 7 1 0 1;
#X connect 7 2 0 2;
#X connect 7 3 0 3;
#X connect 7 4 0 4;
#X connect 7 5 5 0;
#X connect 7 6 6 0;
#X restore 588 80 pd highpass;
#N canvas 228 192 467 316 bandpass 0;
#X obj 32 266 s \$0-coefficients;
#X obj 32 236 pack float float float 0 float;
#X obj 235 235 v b0;
#N canvas 76 96 259 263 get-coef 0;
#X obj 61 93 sel 1;
#X obj 61 38 r \$0-get-coeff;
#X obj 61 130 outlet;
#X obj 61 66 expr type_\$0 == 3;
#X connect 0 0 2 0;
#X connect 1 0 3 0;
#X connect 3 0 0 0;
#X restore 116 28 pd get-coef;
#X obj 274 232 v alphaQ;
#X obj 116 96 expr 2*cos(w) / b0 \; (alphaQ - 1) / b0 \; alphaQ / b0
\; 0 \; -alphaQ / b0 \; alphaQ + 1 \; sin(w) / (2*Q);
#X text 250 70 BPF \; - b1 = 2*cos(w) / b0 \; - b2 = (alphaQ - 1) /
b0 \; - a0 = alphaQ / b0 \; - a1 = 0 \; - a2 = -alphaQ / b0 \; - b0
= alphaQ + 1 \; - alphaQ = sin(w) / (2*Q);
#X connect 1 0 0 0;
#X connect 3 0 5 0;
#X connect 5 0 1 0;
#X connect 5 1 1 1;
#X connect 5 2 1 2;
#X connect 5 3 1 3;
#X connect 5 4 1 4;
#X connect 5 5 2 0;
#X connect 5 6 4 0;
#X restore 588 99 pd bandpass;
#N canvas 96 66 495 278 resonant 0;
#X obj 85 223 s \$0-coefficients;
#X obj 184 190 v b0;
#X obj 85 190 pack f f f 0 f;
#N canvas 76 96 259 263 get-coef 0;
#X obj 61 93 sel 1;
#X obj 61 38 r \$0-get-coeff;
#X obj 61 162 outlet;
#X obj 61 66 expr type_\$0 == 4;
#X connect 0 0 2 0;
#X connect 1 0 3 0;
#X connect 3 0 0 0;
#X restore 92 33 pd get-coef;
#X obj 203 167 v alphaQ;
#X obj 92 67 expr 2*cos(w) / b0 \; (alphaQ - 1) / b0 \; alphaQ * Q
/ b0 \; 0 \; -alphaQ * Q / b0 \; alphaQ + 1 \; sin(w) / (2*Q);
#X text 221 48 Resonant \; - b1 = 2*cos(w) / b0 \; - b2 = (alphaQ -
1) / b0 \; - a0 = alphaQ * Q / b0 \; - a1 = 0 \; - a2 = -alphaQ * Q
/ b0 \; - b0 = alphaQ + 1 \; - alphaQ = sin(w) / (2*Q);
#X connect 2 0 0 0;
#X connect 3 0 5 0;
#X connect 5 0 2 0;
#X connect 5 1 2 1;
#X connect 5 2 2 2;
#X connect 5 3 2 3;
#X connect 5 4 2 4;
#X connect 5 5 1 0;
#X connect 5 6 4 0;
#X restore 588 118 pd resonant;
#N canvas 709 37 464 322 peaking 0;
#X obj 60 215 pack f f f f f;
#X obj 60 249 s \$0-coefficients;
#X obj 159 214 v b0;
#N canvas 76 96 259 263 get-coef 0;
#X obj 61 93 sel 1;
#X obj 61 38 r \$0-get-coeff;
#X obj 61 144 outlet;
#X obj 61 66 expr type_\$0 == 6;
#X connect 0 0 2 0;
#X connect 1 0 3 0;
#X connect 3 0 0 0;
#X restore 67 50 pd get-coef;
#X obj 178 190 v alphaQ;
#X obj 67 81 expr 2*cos(w) / b0 \; (alphaQ/G - 1) / b0 \; (1 + alphaQ*G)
/ b0 \; -2*cos(w) / b0 \; (1 - alphaQ*G) / b0 \; alphaQ/G + 1 \; sin(w)
/ (2*Q) \;;
#X text 201 63 Peak \; - b1 = 2*cos(w) / bO \; - b2 = (alphaQ/G - 1)
/ b0 \; - a0 = (1 + alphaQ*G) / b0 \; - a1 = -2*cos(w) / b0 \; - a2
= (1 - alphaQ*G) / b0 \; - b0 = alphaQ/G + 1 \; - alphaQ = sin(w) /
(2*Q);
#X connect 0 0 1 0;
#X connect 3 0 5 0;
#X connect 5 0 0 0;
#X connect 5 1 0 1;
#X connect 5 2 0 2;
#X connect 5 3 0 3;
#X connect 5 4 0 4;
#X connect 5 5 2 0;
#X connect 5 6 4 0;
#X restore 588 157 pd peaking;
#N canvas 43 98 749 274 lowshelf 0;
#X obj 253 179 v b0;
#X obj 46 184 pack f f f f f;
#X obj 46 216 s \$0-coefficients;
#N canvas 76 96 259 263 get-coef 0;
#X obj 61 93 sel 1;
#X obj 61 38 r \$0-get-coeff;
#X obj 61 148 outlet;
#X obj 61 66 expr type_\$0 == 7;
#X connect 0 0 2 0;
#X connect 1 0 3 0;
#X connect 3 0 0 0;
#X restore 46 41 pd get-coef;
#X obj 295 179 v alphaS;
#X obj 46 73 expr 2*(G-1 + (G+1)*cos(w)) / b0 \; -(G+1 + (G-1)*cos(w)
- alphaS) / b0 \; G*(G+1 - (G-1)*cos(w) + alphaS) / b0 \; 2*G*(G-1
- (G+1)*cos(w)) / b0 \; G*(G+1 - (G-1)*cos(w) - alphaS) / b0 \; G+1
+ (G-1)*cos(w) + alphaS \; sin(w) * sqrt((G*G + 1) * (1/S - 1) + 2*G)
;
#X text 307 60 LowShelf \; - b1 = 2*(G-1 + (G+1)*cos(w)) / b0 \; -
b2 = -(G+1 + (G-1)*cos(w) - alphaS) / b0 \; - a0 = G*(G+1 - (G-1)*cos(w)
+ alphaS) / b0 \; - a1 = 2*G*(G-1 - (G+1)*cos(w)) / b0 \; - a2 = G*(G+1
- (G-1)*cos(w) - alphaS) / b0 \; - b0 = G+1 + (G-1)*cos(w) + alphaS
\; - alphaS = sin(w)*sqrt((G*G + 1) * (1/S - 1) + 2*G);
#X connect 1 0 2 0;
#X connect 3 0 5 0;
#X connect 5 0 1 0;
#X connect 5 1 1 1;
#X connect 5 2 1 2;
#X connect 5 3 1 3;
#X connect 5 4 1 4;
#X connect 5 5 0 0;
#X connect 5 6 4 0;
#X restore 588 176 pd lowshelf;
#N canvas 164 83 356 242 allpass 0;
#X obj 31 171 pack f f f f 1;
#X obj 31 202 s \$0-coefficients;
#N canvas 76 96 259 263 get-coef 0;
#X obj 61 93 sel 1;
#X obj 61 38 r \$0-get-coeff;
#X obj 61 188 outlet;
#X obj 61 66 expr type_\$0 == 9;
#X connect 0 0 2 0;
#X connect 1 0 3 0;
#X connect 3 0 0 0;
#X restore 31 24 pd get-coef;
#X obj 126 169 v b0;
#X obj 164 169 v alphaQ;
#X obj 31 61 expr 2*cos(w) / b0 \; (alphaQ - 1) / b0 \; (1 - alphaQ)
/ b0 \; -2*cos(w) / b0 \; 1 \; alphaQ + 1 \; sin(w) / (2*Q);
#X text 154 45 APF \; - b1 = 2*cos(w) / b0 \; - b2 = (alphaQ - 1) /
b0 \; - a0 = (1 - alphaQ) / b0 \; - a1 = -2*cos(w) / b0 \; - a2 = 1
\; - b0 = 1 + alphaQ \; - alphaQ = sin(w) / (2*Q);
#X connect 0 0 1 0;
#X connect 2 0 5 0;
#X connect 5 0 0 0;
#X connect 5 1 0 1;
#X connect 5 2 0 2;
#X connect 5 3 0 3;
#X connect 5 4 0 4;
#X connect 5 5 3 0;
#X connect 5 6 4 0;
#X restore 588 216 pd allpass;
#N canvas 28 209 673 252 highshelf 0;
#N canvas 76 96 259 263 get-coef 0;
#X obj 61 93 sel 1;
#X obj 61 38 r \$0-get-coeff;
#X obj 61 188 outlet;
#X obj 61 66 expr type_\$0 == 8;
#X connect 0 0 2 0;
#X connect 1 0 3 0;
#X connect 3 0 0 0;
#X restore 39 44 pd get-coef;
#X obj 246 183 v b0;
#X obj 39 188 pack f f f f f;
#X obj 39 220 s \$0-coefficients;
#X obj 288 184 v alphaS;
#X obj 39 77 expr -2*(G-1 - (G+1)*cos(w)) / b0 \; -(G+1 - (G-1)*cos(w)
-alphaS) / b0 \; G*(G+1 + (G-1)*cos(w) + alphaS) / b0 \; -2*G*(G-1
+ (G+1)*cos(w)) / b0 \; G*(G+1 + (G-1)*cos(w) - alphaS) / b0 \; (G+1)
- (G-1)*cos(w) + alphaS \; sin(w) * sqrt((G*G + 1) * (1/S - 1) + 2*G)
;
#X text 299 63 HighShelf \; - b1 = -2*(G-1 - (G+1)*cos(w)) / b0 \;
- b2 = -(G+1 - (G-1)*cos(w) -alphaS) / b0 \; - a0 = G*(G+1 + (G-1)*cos(w)
+ alphaS) / b0 \; - a1 = -2*G*(G-1 + (G+1)*cos(w)) / b0 \; - a2 = G*(G+1
+ (G-1)*cos(w) - alphaS) / b0 \; - b0 = (G+1) - (G-1)*cos(w) + alphaS
\; - alphaS = sin(w) * sqrt((G*G + 1) * (1/S - 1) + 2*G);
#X connect 0 0 5 0;
#X connect 2 0 3 0;
#X connect 5 0 2 0;
#X connect 5 1 2 1;
#X connect 5 2 2 2;
#X connect 5 3 2 3;
#X connect 5 4 2 4;
#X connect 5 5 1 0;
#X connect 5 6 4 0;
#X restore 588 196 pd highshelf;
#N canvas 447 145 415 271 notch 0;
#X obj 54 173 pack f f f f f;
#X obj 54 209 s \$0-coefficients;
#X obj 146 171 v b0;
#N canvas 76 96 259 263 get-coef 0;
#X obj 61 93 sel 1;
#X obj 61 38 r \$0-get-coeff;
#X obj 61 158 outlet;
#X obj 61 66 expr type_\$0 == 5;
#X connect 0 0 2 0;
#X connect 1 0 3 0;
#X connect 3 0 0 0;
#X restore 54 25 pd get-coef;
#X obj 186 171 v alphaQ;
#X obj 54 61 expr 2*cos(w) / b0 \; (alphaQ - 1) / b0 \; 1 / b0 \; -2*cos(w)
/ b0 \; 1 / b0 \; alphaQ + 1 \; sin(w) / (2*Q);
#X text 176 44 Notch \; - b1 = 2*cos(w) / b0 \; - b2 = (alphaQ - 1)
/ b0 \; - a0 = 1 / b0 \; - a1 = -2*cos(w) / b0 \; - a2 = 1 / b0 \;
- b0 = alphaQ + 1 \; - alphaQ = sin(w) / (2*Q);
#X connect 0 0 1 0;
#X connect 3 0 5 0;
#X connect 5 0 0 0;
#X connect 5 1 0 1;
#X connect 5 2 0 2;
#X connect 5 3 0 3;
#X connect 5 4 0 4;
#X connect 5 5 2 0;
#X connect 5 6 4 0;
#X restore 588 137 pd notch;
#N canvas 106 124 878 413 init 0;
#X obj 601 209 s \$0-menu-set;
#X msg 565 173 0;
#X obj 289 123 r \$0-menu;
#X obj 306 256 s \$0-sl-2;
#X msg 603 160 \; pd dsp 1;
#X obj 503 276 s \$0-freq-set;
#X msg 503 252 500;
#X obj 583 230 s \$0-sl-1;
#X obj 565 254 s \$0-sl-2;
#X msg 358 226 label \, color 0 0 -1;
#X obj 289 158 sel 5 6 7;
#X msg 306 189 label Ganho \, color 1 -1 -1;
#X obj 215 371 s \$0-sl-1;
#X msg 214 337 label Q \, label_pos -15 10 \, color 1 -1 -1;
#X msg 162 295 label Slope \, label_pos -52 10 \, color 1 -1 -1;
#X obj 150 172 sel 6 7;
#X msg 535 205 1;
#X obj 722 93 samplerate~;
#X obj 722 126 / 2;
#X obj 611 134 v pi;
#X obj 751 126 v sr_\$0;
#X obj 535 67 t b b;
#X obj 537 38 loadbang;
#X obj 722 154 s \$0-nyquist;
#X obj 611 108 expr atan(1) * 4;
#X connect 1 0 0 0;
#X connect 1 0 8 0;
#X connect 2 0 10 0;
#X connect 2 0 15 0;
#X connect 6 0 5 0;
#X connect 9 0 3 0;
#X connect 10 0 11 0;
#X connect 10 1 11 0;
#X connect 10 2 11 0;
#X connect 10 3 9 0;
#X connect 11 0 3 0;
#X connect 13 0 12 0;
#X connect 14 0 12 0;
#X connect 15 0 14 0;
#X connect 15 1 14 0;
#X connect 15 2 13 0;
#X connect 16 0 7 0;
#X connect 17 0 18 0;
#X connect 17 0 20 0;
#X connect 18 0 23 0;
#X connect 21 0 1 0;
#X connect 21 0 4 0;
#X connect 21 0 6 0;
#X connect 21 0 16 0;
#X connect 21 1 17 0;
#X connect 21 1 24 0;
#X connect 22 0 21 0;
#X connect 24 0 19 0;
#X restore 742 93 pd init \; GUI;
#X obj 101 63 inlet;
#X obj 185 61 inlet;
#X obj 270 63 inlet;
#X obj 101 273 s \$0-get-coeff;
#X obj 354 58 inlet;
#X obj 354 128 trigger bang float;
#X obj 185 129 t b f;
#X obj 270 114 t b f;
#X obj 482 181 v type_\$0;
#X obj 482 128 + 1;
#X obj 222 153 v Q;
#X obj 128 183 v w;
#X obj 101 159 t b f;
#X obj 185 247 s \$0-get-coeff;
#N canvas 307 33 282 287 w 0;
#X obj 47 18 inlet;
#X obj 47 205 outlet;
#X obj 47 177 expr $f1 * 2*pi/sr_\$0;
#X obj 86 111 r \$0-nyquist;
#X obj 47 136 clip 20;
#X connect 0 0 4 0;
#X connect 2 0 1 0;
#X connect 3 0 4 2;
#X connect 4 0 2 0;
#X restore 101 113 pd w;
#X obj 270 220 s \$0-get-coeff;
#X obj 354 180 s \$0-get-coeff;
#X text 25 113 rad/amostra:;
#X text 356 37 Tipo do Filtro;
#X obj 388 269 r \$0-coefficients;
#X obj 388 299 outlet;
#X text 190 34 Q/S;
#X text 88 35 Freq (Hz);
#X text 235 38 Ganho (dB);
#X obj 212 185 v S;
#X obj 185 96 max 0;
#X obj 297 183 v G;
#X obj 297 152 expr if(f1 > 0 \, sqrt($f1) \, -sqrt(abs($f1)));
#X connect 10 0 24 0;
#X connect 11 0 35 0;
#X connect 12 0 17 0;
#X connect 14 0 15 0;
#X connect 15 0 26 0;
#X connect 15 1 19 0;
#X connect 16 0 23 0;
#X connect 16 1 20 0;
#X connect 16 1 34 0;
#X connect 17 0 25 0;
#X connect 17 1 37 0;
#X connect 19 0 18 0;
#X connect 22 0 13 0;
#X connect 22 1 21 0;
#X connect 24 0 22 0;
#X connect 29 0 30 0;
#X connect 35 0 16 0;
#X connect 37 0 36 0;
#X restore 101 76 pd coeficientes;
#X obj 62 143 cyclone/uzi 400 0;
#N canvas 111 23 535 612 type 0;
#X msg 116 475 symbol lowpass;
#X obj 116 505 s \$0-symbol-set;
#X obj 131 438 s \$0-symbol-set;
#X msg 131 408 symbol highpass;
#X obj 151 368 s \$0-symbol-set;
#X msg 151 338 symbol bandpass;
#X obj 174 310 s \$0-symbol-set;
#X msg 174 280 symbol resonant;
#X obj 187 239 s \$0-symbol-set;
#X msg 187 209 symbol bandstop;
#X obj 203 178 s \$0-symbol-set;
#X msg 203 148 symbol peaknotch;
#X obj 256 515 s \$0-symbol-set;
#X obj 271 448 s \$0-symbol-set;
#X obj 291 378 s \$0-symbol-set;
#X obj 314 320 s \$0-symbol-set;
#X obj 327 249 s \$0-symbol-set;
#X obj 343 188 s \$0-symbol-set;
#X msg 256 485 symbol lowshelf;
#X msg 271 418 symbol highshelf;
#X msg 291 348 symbol allpass;
#X msg 314 290 symbol gainlpass;
#X msg 327 219 symbol gainhpass;
#X msg 343 158 symbol gainbpass;
#X obj 394 525 s \$0-symbol-set;
#X obj 409 458 s \$0-symbol-set;
#X obj 429 388 s \$0-symbol-set;
#X msg 394 495 symbol gainbstop;
#X msg 409 428 symbol gainresonant;
#X msg 429 358 symbol gainapass;
#X obj 127 87 sel 0 1 2 3 4 5 6 7 8 9 10 11 12 13 14;
#X obj 127 52 r \$0-type;
#X connect 0 0 1 0;
#X connect 3 0 2 0;
#X connect 5 0 4 0;
#X connect 7 0 6 0;
#X connect 9 0 8 0;
#X connect 11 0 10 0;
#X connect 18 0 12 0;
#X connect 19 0 13 0;
#X connect 20 0 14 0;
#X connect 21 0 15 0;
#X connect 22 0 16 0;
#X connect 23 0 17 0;
#X connect 27 0 24 0;
#X connect 28 0 25 0;
#X connect 29 0 26 0;
#X connect 30 0 0 0;
#X connect 30 1 3 0;
#X connect 30 2 5 0;
#X connect 30 3 7 0;
#X connect 30 4 9 0;
#X connect 30 5 11 0;
#X connect 30 6 18 0;
#X connect 30 7 19 0;
#X connect 30 8 20 0;
#X connect 30 9 21 0;
#X connect 30 10 22 0;
#X connect 30 11 23 0;
#X connect 30 12 27 0;
#X connect 30 13 28 0;
#X connect 30 14 29 0;
#X connect 31 0 30 0;
#X restore 421 98 pd type;
#X connect 1 0 2 0;
#X connect 1 1 4 1;
#X connect 1 1 5 1;
#X connect 2 0 4 0;
#X connect 2 1 5 0;
#X connect 3 0 7 0;
#X connect 3 1 2 1;
#X connect 6 0 3 0;
#X connect 7 2 1 0;
#X restore 527 182 pd plot;
#X obj 90 206 ./out~;
#X text 585 183 not yet;
#X connect 1 0 29 0;
#X connect 1 0 29 1;
#X connect 2 0 1 0;
#X connect 3 0 20 0;
#X connect 20 0 1 1;
#X connect 20 1 1 2;
#X connect 20 2 1 3;
#X connect 20 3 1 4;
#X connect 20 4 1 5;
#X connect 21 0 20 2;
#X connect 22 0 20 1;
#X connect 24 0 20 0;
#X connect 25 0 3 0;
#X connect 26 0 22 0;
#X connect 27 0 21 0;
#X restore 447 270 pd filter_types;
#X obj 184 187 cyclone/filtercoeff~ lowpass;
#X text 159 450 off;
#X text 190 450 - sets no filter (original input is output);
#X obj 349 157 nbx 5 14 -1e+37 1e+37 0 0 empty empty empty 0 -8 0 10
-228856 -1 -1 0 256;
#X text 189 361 - 1st element sets the filter (lowpass \, highpass
\, bandpass \, bandstop \, peaknotch \, lowshelf \, highshelf \, resonant
\, allpass \, gainlpass \, gainhpass \, gainbpass \, gainbstop \, gainresonant
\, gainapass). The other elements set gain and Q or S (if applicable)
- see filter types example above;
#X text 93 431 resamp <float>;
#X text 190 532 - a0 (gain) coefficient;
#X text 190 551 - a1 (feedforward 1) coefficient;
#X text 190 570 - a2 (feedforward 2) coefficient;
#X text 190 588 - b1 (feedback 1) coefficient;
#X text 190 607 - b2 (feedback 2) coefficient;
#X obj 17 56 cyclone/comment 0 18 times ? 0 0 0 0 Generate biquad coefficients
;
#X obj 322 28 cyclone/comment 0 13 courier ? 0 224 228 220 Objects
cloned from Max/MSP;
#X obj 363 4 cyclone/comment 0 24 courier ? 0 224 228 220 cyclone;
#X obj 16 6 cyclone/comment 0 37 times ? 0 0 0 0 filtercoeff~;
#X obj 184 155 cyclone/number~ 1;
#X obj 122 261 ./out~;
#X obj 242 255 cnv 15 140 50 empty empty empty 20 12 0 14 -261234 -66577
0;
#X obj 256 258 cyclone/comment 166 18 times ? 0 0 0 0 New object \,
still experimental!;
#X connect 19 0 54 0;
#X connect 19 0 54 1;
#X connect 28 0 19 0;
#X connect 38 0 19 1;
#X connect 38 1 19 2;
#X connect 38 2 19 3;
#X connect 38 3 19 4;
#X connect 38 4 19 5;
#X connect 41 0 38 2;
#X connect 53 0 38 0;
