#N canvas 679 46 559 649 10;
#X obj 2 4 cnv 15 553 42 empty empty empty 20 12 0 14 -233017 -66577
0;
#N canvas 0 22 450 278 (subpatch) 0;
#X coords 0 1 100 -1 554 42 1 0 0;
#X restore 2 3 graph;
#X obj 305 4 cnv 15 250 40 empty empty empty 12 13 0 18 -128992 -233080
0;
#N canvas 382 141 749 319 (subpatch) 0;
#X coords 0 -1 1 1 252 42 2 100 100;
#X restore 304 3 pd;
#X obj 173 271 cyclone/freqshift~;
#X obj 4 611 cnv 15 552 21 empty empty empty 20 12 0 14 -233017 -33289
0;
#X obj 5 387 cnv 3 550 3 empty empty inlets 8 12 0 13 -228856 -1 0
;
#X obj 5 468 cnv 3 550 3 empty empty outlets 8 12 0 13 -228856 -1 0
;
#X obj 5 508 cnv 3 550 3 empty empty arguments 8 12 0 13 -228856 -1
0;
#X obj 105 397 cnv 17 3 33 empty empty 0 5 9 0 16 -228856 -162280 0
;
#X text 175 397 signal;
#X obj 104 438 cnv 17 3 17 empty empty 1 5 9 0 16 -228856 -162280 0
;
#X obj 104 479 cnv 17 3 17 empty empty 0 5 9 0 16 -228856 -162280 0
;
#X text 175 480 signal;
#X text 139 440 float/signal;
#X text 181 416 clear;
#X text 164 520 1) float;
#X text 228 397 - signal to be shifted in frequency;
#X text 228 480 - frequncy shifted signal;
#X text 228 519 - the requency shift value (default 0);
#X text 228 440 - the requency shift value;
#X obj 6 551 cnv 3 550 3 empty empty more_info 8 12 0 13 -228856 -1
0;
#X text 82 88 [freqshift~] is a frequency shifter (not a pitch shifter!)
implemented via complex amplitude modulation - it is also known as
a single-sideband modulation \, as opposed to a ring modulation that
has two sidebands.;
#X text 82 146 [freqshift~] has two outputs \, the left outlet is the
frequency shifted signal and the right outlet carries a second sideband
as if there'd be in the case of a ring modulation (and which has an
opposite frequency shift).;
#X text 57 293 single sideband =>;
#X text 312 291 <= opposite sideband;
#X obj 281 231 hsl 128 15 -220 220 0 0 empty empty empty -2 -8 0 10
-228856 -1 -1 0 1;
#X obj 278 252 nbx 7 14 -1e+37 1e+37 0 0 empty empty empty 0 -8 0 10
-228856 -1 -1 0 256;
#X text 296 231 frequency shift;
#X obj 173 245 cyclone/saw~;
#X obj 173 219 sig~ 440;
#X text 228 416 - clears filter's memory *;
#X text 129 560 * Internally \, [freqshift~] has a hilbert transformer
composed of allpass filters to convert a real signal to a complex signal.
;
#X obj 17 56 cyclone/comment 0 18 times ? 0 0 0 0 Frequency shifter
;
#X obj 16 5 cyclone/comment 0 37 times ? 0 0 0 0 freqshift~;
#X obj 322 28 cyclone/comment 0 13 courier ? 0 224 228 220 Objects
cloned from Max/MSP;
#X obj 363 4 cyclone/comment 0 24 courier ? 0 224 228 220 cyclone;
#X obj 278 314 ./out~;
#X obj 173 314 ./out~;
#X obj 396 315 cnv 15 140 50 empty empty empty 20 12 0 14 -261234 -66577
0;
#X obj 410 318 cyclone/comment 166 18 times ? 0 0 0 0 New object \,
still experimental!;
#X connect 4 0 38 0;
#X connect 4 0 38 1;
#X connect 4 1 37 1;
#X connect 4 1 37 0;
#X connect 26 0 27 0;
#X connect 27 0 4 1;
#X connect 29 0 4 0;
#X connect 30 0 29 0;
