#N canvas 660 232 560 548 10;
#X declare -stdlib cyclone/cyclone;
#X obj 4 506 cnv 15 552 21 empty empty empty 20 12 0 14 -233017 -33289
0;
#X obj 4 416 cnv 3 550 3 empty empty outlets 8 12 0 13 -228856 -1 0
;
#X obj 92 365 cnv 17 3 17 empty empty 0 5 9 0 16 -228856 -162280 0
;
#X obj 4 354 cnv 3 550 3 empty empty inlets 8 12 0 13 -228856 -1 0
;
#X obj 92 388 cnv 17 3 17 empty empty 1 5 9 0 16 -228856 -162280 0
;
#X text 125 389 float/signal;
#X obj 92 365 cnv 17 3 17 empty empty 0 5 9 0 16 -228856 -162280 0
;
#X text 63 97 [greaterthan~] or [>~] outputs a 1 signal when the left
input is greater-than the right input or argument and a 0 when it is
less-than or equal-to the right input or argument.;
#X text 162 365 signal;
#X text 216 388 - value for comparison with left inlet;
#X text 216 364 - value is compared to right inlet's or argument;
#X obj 7 459 cnv 3 550 3 empty empty arguments 8 12 0 13 -228856 -1
0;
#X obj 2 4 cnv 15 553 42 empty empty empty 20 12 0 14 -233017 -66577
0;
#N canvas 0 22 450 278 (subpatch) 0;
#X coords 0 1 100 -1 554 42 1 0 0;
#X restore 2 3 graph;
#X obj 305 4 cnv 15 250 40 empty empty empty 12 13 0 18 -128992 -233080
0;
#N canvas 382 141 749 319 (subpatch) 0;
#X coords 0 -1 1 1 252 42 2 100 100;
#X restore 304 3 pd;
#X text 176 469 - value for comparison with left inlet's input (default
0);
#X text 110 469 1) float;
#X obj 92 429 cnv 17 3 17 empty empty 0 5 9 0 16 -228856 -162280 0
;
#X text 161 428 signal;
#X text 212 428 - 1 or 0 (depending on the result of the comparison)
;
#N canvas 207 34 366 264 (subpatch) 0;
#X obj 51 101 tgl 42 0 \$0-tgl-s \$0-tgl-r empty 1 8 1 9 -228856 -128992
-262144 0 1;
#X obj 215 68 route dsp;
#X obj 215 37 receive pd;
#N canvas 977 77 379 291 set_color 0;
#X obj 47 30 inlet;
#X obj 147 200 s \$0-cnv;
#X obj 47 83 select 0 1;
#X obj 47 220 s \$0-tgl-r;
#N canvas 0 22 712 637 off 0;
#X obj 490 220 * -1;
#X obj 424 300 +;
#X obj 409 325 +;
#X obj 347 219 * -65536;
#X obj 424 220 * -256;
#X obj 409 356 - 1;
#X obj 390 189 unpack f f f;
#X obj 225 295 +;
#X obj 210 320 +;
#X obj 148 214 * -65536;
#X obj 225 215 * -256;
#X obj 291 215 * -1;
#X obj 210 351 - 1;
#X obj 191 184 unpack f f f;
#X obj 379 423 pack;
#X msg 395 152 124 124 124;
#X msg 203 154 220 220 220;
#X obj 238 121 t b b;
#X obj 238 81 inlet;
#X obj 378 485 outlet;
#X connect 0 0 1 1;
#X connect 1 0 2 1;
#X connect 2 0 5 0;
#X connect 3 0 2 0;
#X connect 4 0 1 0;
#X connect 5 0 14 1;
#X connect 6 0 3 0;
#X connect 6 1 4 0;
#X connect 6 2 0 0;
#X connect 7 0 8 1;
#X connect 8 0 12 0;
#X connect 9 0 8 0;
#X connect 10 0 7 0;
#X connect 11 0 7 1;
#X connect 12 0 14 0;
#X connect 13 0 9 0;
#X connect 13 1 10 0;
#X connect 13 2 11 0;
#X connect 14 0 19 0;
#X connect 15 0 6 0;
#X connect 16 0 13 0;
#X connect 17 0 16 0;
#X connect 17 1 15 0;
#X connect 18 0 17 0;
#X restore 47 113 pd off;
#X msg 47 180 color \$1 \$2 0;
#X msg 147 131 -4.86997e+06 -1.34937e+07;
#X msg 147 171 color \$1 0 \$2;
#X connect 0 0 2 0;
#X connect 2 0 4 0;
#X connect 2 1 6 0;
#X connect 4 0 5 0;
#X connect 4 0 7 0;
#X connect 5 0 3 0;
#X connect 6 0 7 0;
#X connect 6 0 5 0;
#X connect 7 0 1 0;
#X restore 215 165 pd set_color;
#X obj 135 122 r \$0-tgl-s;
#N canvas 121 482 450 300 (subpatch) 0;
#X obj 101 101 cnv 25 40 25 empty \$0-cnv DSP 3 13 0 20 -228856 -128992
0;
#X coords 0 -1 1 1 42 27 1 100 100;
#X restore 51 144 pd;
#X obj 226 139 s \$0-tgl-r;
#X msg 226 115 set \$1;
#X msg 135 177 \; pd dsp \$1;
#N canvas 256 32 278 194 load_check 0;
#X obj 136 53 sig~ 1;
#X obj 74 24 loadbang;
#X obj 136 86 snapshot~;
#X obj 91 52 del 5;
#X obj 136 151 outlet;
#X obj 74 103 tgl 15 0 empty empty empty 17 7 0 10 -262144 -1 -1 0
1;
#X obj 74 126 switch~;
#X connect 0 0 2 0;
#X connect 1 0 3 0;
#X connect 1 0 5 0;
#X connect 2 0 4 0;
#X connect 3 0 2 0;
#X connect 3 0 5 0;
#X connect 5 0 6 0;
#X restore 51 72 pd load_check;
#X connect 1 0 3 0;
#X connect 1 0 7 0;
#X connect 2 0 1 0;
#X connect 4 0 8 0;
#X connect 4 0 3 0;
#X connect 7 0 6 0;
#X connect 9 0 0 0;
#X coords 0 -1 1 1 44 72 2 50 100;
#X restore 504 71 pd;
#X obj 273 262 cyclone/snapshot~ 1;
#X obj 153 297 tgl 40 0 empty empty empty 17 7 0 10 -228856 -1 -1 0
1;
#X obj 273 297 tgl 40 0 empty empty empty 17 7 0 10 -228856 -1 -1 0
1;
#X obj 273 206 sig~ 30;
#X obj 273 183 nbx 5 14 -1e+37 1e+37 0 0 empty empty empty 0 -8 0 10
-228856 -1 -1 0 256;
#X obj 408 183 nbx 5 14 -1e+37 1e+37 0 0 empty empty empty 0 -8 0 10
-228856 -1 -1 0 256;
#X obj 69 230 >~, f 5;
#N canvas 724 142 478 298 cyclone 0;
#X obj 209 99 declare -stdlib cyclone/cyclone;
#X text 63 206 More about the cyclone sub-library;
#X text 66 136 If you need more details in installing cyclone \, check:
https://github.com/porres/pd-cyclone/wiki/How-To-Install;
#X obj 283 206 cyclone-help;
#X text 58 51 [greaterthan~] is a single binary in cyclone \, but [>~]
is from the cyclone "sub-library" \, loaded via startup or with [declare]
like this:;
#X restore 457 297 pd cyclone \; sub_library;
#X obj 273 232 cyclone/greaterthan~ 30;
#X obj 17 56 cyclone/comment 0 18 times ? 0 0 0 0 "Is greater than"
comparison for signals;
#X obj 322 28 cyclone/comment 0 13 courier ? 0 224 228 220 Objects
cloned from Max/MSP;
#X obj 363 4 cyclone/comment 0 24 courier ? 0 224 228 220 cyclone;
#X obj 16 4 cyclone/comment 0 37 times ? 0 0 0 0 >~;
#X obj 69 180 cyclone/number~ 1;
#X obj 96 205 cyclone/number~ 1;
#X obj 69 263 cyclone/number~;
#X connect 22 0 24 0;
#X connect 25 0 30 0;
#X connect 26 0 25 0;
#X connect 27 0 30 1;
#X connect 28 0 37 0;
#X connect 30 0 22 0;
#X connect 35 0 28 0;
#X connect 36 0 28 1;
#X connect 37 1 23 0;
