#N canvas 783 163 498 501 10;
#X obj 223 157 inlet~;
#X obj 223 338 *~;
#X text 251 135 audio in;
#X obj 275 157 inlet~;
#X obj 275 337 *~;
#X obj 223 209 hip~ 3;
#X obj 275 208 hip~ 3;
#X obj 386 273 block~ 64;
#X obj 329 155 inlet;
#X obj 348 423 outlet;
#X obj 275 424 outlet~;
#X obj 223 423 outlet~;
#X obj 348 355 r \$0-slider;
#N canvas 353 417 373 245 set_GUI 0;
#X obj 66 178 s \$0-set-slider;
#X obj 98 18 inlet;
#X obj 66 144 clip 0 1;
#X obj 129 145 s \$0-dsp-toggle-set;
#X obj 191 118 s \$0-mute-set;
#X msg 157 118 0;
#X msg 129 115 1;
#X obj 225 95 s \$0-dac;
#X obj 98 52 route float on off mute dac mode;
#X obj 254 73 s \$0-mode;
#X connect 1 0 8 0;
#X connect 2 0 0 0;
#X connect 5 0 3 0;
#X connect 6 0 3 0;
#X connect 8 0 2 0;
#X connect 8 1 6 0;
#X connect 8 2 5 0;
#X connect 8 3 4 0;
#X connect 8 4 7 0;
#X connect 8 5 9 0;
#X restore 329 206 pd set_GUI;
#N canvas 438 181 450 300 GUI 0;
#X obj 103 116 hsl 89 20 0 1 0 0 \$0-slider \$0-set-slider volume 17
9 0 14 -228856 -1 -1 8200 1;
#N canvas 151 252 418 301 mute 0;
#X obj 101 101 cnv 5 51 14 empty \$0-cnv_mute mute 18 6 0 12 -228856
-91542 0;
#X obj 100 100 tgl 16 0 \$0-mute \$0-mute-set empty 19 7 0 12 -228856
-128992 -262144 0 1;
#N canvas 610 237 712 637 off 0;
#X obj 490 220 * -1;
#X obj 424 300 +;
#X obj 409 325 +;
#X obj 347 219 * -65536;
#X obj 424 220 * -256;
#X obj 409 356 - 1;
#X obj 390 189 unpack f f f;
#X obj 225 295 +;
#X obj 210 320 +;
#X obj 148 214 * -65536;
#X obj 225 215 * -256;
#X obj 291 215 * -1;
#X obj 210 351 - 1;
#X obj 191 184 unpack f f f;
#X obj 379 423 pack;
#X msg 378 447 color \$1 \$2;
#X obj 238 121 t b b;
#X obj 238 81 inlet;
#X obj 378 485 outlet;
#X msg 395 152 88 88 84;
#X msg 203 154 220 220 220;
#X connect 0 0 1 1;
#X connect 1 0 2 1;
#X connect 2 0 5 0;
#X connect 3 0 2 0;
#X connect 4 0 1 0;
#X connect 5 0 14 1;
#X connect 6 0 3 0;
#X connect 6 1 4 0;
#X connect 6 2 0 0;
#X connect 7 0 8 1;
#X connect 8 0 12 0;
#X connect 9 0 8 0;
#X connect 10 0 7 0;
#X connect 11 0 7 1;
#X connect 12 0 14 0;
#X connect 13 0 9 0;
#X connect 13 1 10 0;
#X connect 13 2 11 0;
#X connect 14 0 15 0;
#X connect 15 0 18 0;
#X connect 16 0 20 0;
#X connect 16 1 19 0;
#X connect 17 0 16 0;
#X connect 19 0 6 0;
#X connect 20 0 13 0;
#X restore 100 174 pd off;
#X obj 100 144 select 0 1;
#X obj 147 207 s \$0-cnv_mute;
#N canvas 612 446 324 271 set_tgl_color 0;
#X obj 47 30 inlet;
#N canvas 0 22 712 637 off 0;
#X obj 490 220 * -1;
#X obj 424 300 +;
#X obj 409 325 +;
#X obj 347 219 * -65536;
#X obj 424 220 * -256;
#X obj 409 356 - 1;
#X obj 390 189 unpack f f f;
#X obj 225 295 +;
#X obj 210 320 +;
#X obj 148 214 * -65536;
#X obj 225 215 * -256;
#X obj 291 215 * -1;
#X obj 210 351 - 1;
#X obj 191 184 unpack f f f;
#X obj 379 423 pack;
#X msg 395 152 124 124 124;
#X msg 203 154 220 220 220;
#X obj 238 121 t b b;
#X obj 238 81 inlet;
#X obj 378 485 outlet;
#X msg 378 447 color \$1 \$2 0;
#X connect 0 0 1 1;
#X connect 1 0 2 1;
#X connect 2 0 5 0;
#X connect 3 0 2 0;
#X connect 4 0 1 0;
#X connect 5 0 14 1;
#X connect 6 0 3 0;
#X connect 6 1 4 0;
#X connect 6 2 0 0;
#X connect 7 0 8 1;
#X connect 8 0 12 0;
#X connect 9 0 8 0;
#X connect 10 0 7 0;
#X connect 11 0 7 1;
#X connect 12 0 14 0;
#X connect 13 0 9 0;
#X connect 13 1 10 0;
#X connect 13 2 11 0;
#X connect 14 0 20 0;
#X connect 15 0 6 0;
#X connect 16 0 13 0;
#X connect 17 0 16 0;
#X connect 17 1 15 0;
#X connect 18 0 17 0;
#X connect 20 0 19 0;
#X restore 47 113 pd off;
#X obj 47 83 select 0 1;
#X obj 96 148 s \$0-mute-set;
#X msg 96 114 color -4.86997e+06 -1.34937e+07 0;
#X connect 0 0 2 0;
#X connect 1 0 3 0;
#X connect 2 0 1 0;
#X connect 2 1 4 0;
#X connect 4 0 3 0;
#X restore 34 206 pd set_tgl_color;
#X msg 185 132 color -4.86997e+06 -1.34937e+07;
#X text 242 107 old;
#X msg 105 63 0;
#X obj 107 39 loadbang;
#N canvas 610 237 712 637 off 0;
#X obj 490 220 * -1;
#X obj 424 300 +;
#X obj 409 325 +;
#X obj 347 219 * -65536;
#X obj 424 220 * -256;
#X obj 409 356 - 1;
#X obj 390 189 unpack f f f;
#X obj 225 295 +;
#X obj 210 320 +;
#X obj 148 214 * -65536;
#X obj 225 215 * -256;
#X obj 291 215 * -1;
#X obj 210 351 - 1;
#X obj 191 184 unpack f f f;
#X obj 238 121 t b b;
#X obj 238 81 inlet;
#X msg 203 154 220 220 220;
#X floatatom 413 397 5 0 0 0 - - -, f 5;
#X msg 395 152 0 0 0;
#X connect 0 0 1 1;
#X connect 1 0 2 1;
#X connect 2 0 5 0;
#X connect 3 0 2 0;
#X connect 4 0 1 0;
#X connect 5 0 17 0;
#X connect 6 0 3 0;
#X connect 6 1 4 0;
#X connect 6 2 0 0;
#X connect 7 0 8 1;
#X connect 8 0 12 0;
#X connect 9 0 8 0;
#X connect 10 0 7 0;
#X connect 11 0 7 1;
#X connect 13 0 9 0;
#X connect 13 1 10 0;
#X connect 13 2 11 0;
#X connect 14 0 16 0;
#X connect 14 1 18 0;
#X connect 15 0 14 0;
#X connect 16 0 13 0;
#X connect 18 0 6 0;
#X restore 323 195 pd off;
#X msg 275 160 color -8.15833e+06 -0;
#N canvas 610 237 274 400 on 0;
#X obj 127 212 +;
#X obj 112 237 +;
#X obj 50 131 * -65536;
#X obj 127 132 * -256;
#X obj 193 132 * -1;
#X obj 112 268 - 1;
#X obj 93 101 unpack f f f;
#X obj 93 36 inlet;
#X obj 112 337 outlet;
#X msg 93 71 220 220 220;
#X msg 112 299 color \$1 -1;
#X connect 0 0 1 1;
#X connect 1 0 5 0;
#X connect 2 0 1 0;
#X connect 3 0 0 0;
#X connect 4 0 0 1;
#X connect 5 0 10 0;
#X connect 6 0 2 0;
#X connect 6 1 3 0;
#X connect 6 2 4 0;
#X connect 7 0 9 0;
#X connect 9 0 6 0;
#X connect 10 0 8 0;
#X restore 158 178 pd on;
#X connect 1 0 3 0;
#X connect 1 0 5 0;
#X connect 2 0 4 0;
#X connect 3 0 2 0;
#X connect 3 1 12 0;
#X connect 8 0 1 0;
#X connect 9 0 8 0;
#X connect 12 0 4 0;
#X coords 0 -1 1 1 53 16 2 100 100;
#X restore 100 100 pd mute;
#N canvas 565 338 514 332 DSP 0;
#X obj 101 101 cnv 5 40 14 empty \$0-cnv_dsp DSP 18 7 0 12 -228856
-91542 0;
#X obj 100 100 tgl 16 0 \$0-dsp-toggle \$0-dsp-toggle-set empty 19
8 0 12 -228856 -128992 -262144 0 1;
#X coords 0 -1 1 1 42 16 2 100 100;
#X restore 152 100 pd DSP;
#X coords 0 -1 1 1 94 36 2 100 100;
#X restore 60 215 pd GUI;
#X obj 275 287 *~;
#X obj 223 289 *~;
#N canvas 139 226 571 479 dac 0;
#X obj 117 402 dac~;
#X obj 76 104 inlet~;
#X obj 138 103 inlet~;
#X obj 206 121 r \$0-dac;
#X obj 138 357 *~;
#X obj 77 290 *~;
#X obj 206 233 line~;
#X obj 206 263 *~;
#X obj 206 294 *~;
#X obj 354 122 symbol \$1;
#X obj 354 145 select nodac;
#X msg 423 174 1;
#X msg 354 174 0;
#X msg 206 212 \$1 50;
#X obj 268 149 sel 0 1;
#X msg 287 172 1;
#X obj 354 252 switch~;
#X obj 354 97 loadbang;
#X msg 268 244 0;
#X obj 268 215 delay 50;
#X obj 354 221 change;
#X connect 1 0 5 0;
#X connect 2 0 4 0;
#X connect 3 0 13 0;
#X connect 3 0 14 0;
#X connect 4 0 0 1;
#X connect 5 0 0 0;
#X connect 6 0 7 0;
#X connect 6 0 7 1;
#X connect 7 0 8 0;
#X connect 7 0 8 1;
#X connect 8 0 4 1;
#X connect 8 0 5 1;
#X connect 9 0 10 0;
#X connect 10 0 12 0;
#X connect 10 1 11 0;
#X connect 11 0 20 0;
#X connect 11 0 13 0;
#X connect 12 0 20 0;
#X connect 13 0 6 0;
#X connect 14 0 19 0;
#X connect 14 1 15 0;
#X connect 15 0 20 0;
#X connect 17 0 9 0;
#X connect 18 0 20 0;
#X connect 19 0 18 0;
#X connect 20 0 16 0;
#X restore 288 383 pd dac;
#X text 58 37 [output~] is a stereo output with gain control designed
by Alexandre Torres Porres as an extra for cyclone's help files. Check
its help file for more infor.;
#N canvas 103 34 605 295 gain 0;
#N canvas 251 205 450 331 quartic 0;
#X obj 100 126 line~;
#X obj 100 158 *~;
#X obj 100 186 *~;
#X obj 100 92 inlet;
#X obj 100 252 outlet~;
#X obj 100 217 *~;
#X obj 221 54 r \$0-mode;
#X msg 250 104 0;
#X obj 269 157 switch~;
#X msg 221 104 1;
#X obj 197 179 line~;
#X msg 197 157 \$1 50;
#X obj 273 132 pipe 50;
#X obj 221 79 sel 0;
#X connect 0 0 1 0;
#X connect 0 0 1 1;
#X connect 1 0 2 0;
#X connect 1 0 2 1;
#X connect 2 0 5 0;
#X connect 3 0 0 0;
#X connect 5 0 4 0;
#X connect 6 0 13 0;
#X connect 7 0 11 0;
#X connect 7 0 12 0;
#X connect 9 0 8 0;
#X connect 9 0 11 0;
#X connect 10 0 5 1;
#X connect 11 0 10 0;
#X connect 12 0 8 0;
#X connect 13 0 9 0;
#X connect 13 1 7 0;
#X restore 80 126 pd quartic;
#X obj 179 196 outlet~;
#N canvas 251 205 450 300 dB 0;
#X obj 129 110 line~;
#X obj 129 76 inlet;
#X obj 159 235 outlet~;
#X obj 129 140 *~ 100;
#X obj 129 168 dbtorms~;
#X obj 221 54 r \$0-mode;
#X msg 250 104 0;
#X obj 269 157 switch~;
#X msg 221 104 1;
#X obj 221 79 sel 1;
#X obj 197 179 line~;
#X obj 159 203 *~;
#X msg 197 157 \$1 50;
#X obj 273 132 pipe 50;
#X connect 0 0 3 0;
#X connect 1 0 0 0;
#X connect 3 0 4 0;
#X connect 4 0 11 0;
#X connect 5 0 9 0;
#X connect 6 0 12 0;
#X connect 6 0 13 0;
#X connect 8 0 7 0;
#X connect 8 0 12 0;
#X connect 9 0 8 0;
#X connect 9 1 6 0;
#X connect 10 0 11 1;
#X connect 11 0 2 0;
#X connect 12 0 10 0;
#X connect 13 0 7 0;
#X restore 162 130 pd dB;
#N canvas 251 205 450 300 linear 0;
#X obj 136 65 line~;
#X obj 136 31 inlet;
#X obj 139 241 outlet~;
#X obj 260 54 r \$0-mode;
#X msg 289 104 0;
#X obj 308 157 switch~;
#X msg 260 104 1;
#X obj 236 179 line~;
#X msg 236 157 \$1 50;
#X obj 312 132 pipe 50;
#X obj 260 79 sel 2;
#X obj 131 187 *~;
#X connect 0 0 11 0;
#X connect 1 0 0 0;
#X connect 3 0 10 0;
#X connect 4 0 8 0;
#X connect 4 0 9 0;
#X connect 6 0 5 0;
#X connect 6 0 8 0;
#X connect 7 0 11 1;
#X connect 8 0 7 0;
#X connect 9 0 5 0;
#X connect 10 0 6 0;
#X connect 10 1 4 0;
#X connect 11 0 2 0;
#X restore 238 125 pd linear;
#N canvas 244 23 407 422 Gui_control 0;
#X msg 242 154 0;
#X msg 34 283 \; pd dsp 1;
#X obj 61 97 value slider_\$0;
#X obj 62 199 value slider_\$0;
#X obj 270 220 value slider_\$0;
#X msg 62 229 \$1 10;
#X obj 242 126 select 0 1;
#N canvas 551 397 404 450 DSP_state 0;
#X obj 274 195 route dsp;
#X obj 274 168 receive pd;
#N canvas 0 22 560 312 set_GUI 0;
#X msg 187 138 set \$1;
#N canvas 555 532 635 266 set_color 0;
#X obj 47 30 inlet;
#N canvas 0 22 712 637 off 0;
#X obj 490 220 * -1;
#X obj 424 300 +;
#X obj 409 325 +;
#X obj 347 219 * -65536;
#X obj 424 220 * -256;
#X obj 409 356 - 1;
#X obj 390 189 unpack f f f;
#X obj 225 295 +;
#X obj 210 320 +;
#X obj 148 214 * -65536;
#X obj 225 215 * -256;
#X obj 291 215 * -1;
#X obj 210 351 - 1;
#X obj 191 184 unpack f f f;
#X obj 379 423 pack;
#X msg 395 152 124 124 124;
#X msg 203 154 220 220 220;
#X obj 238 121 t b b;
#X obj 238 81 inlet;
#X obj 378 485 outlet;
#X msg 378 447 color \$1 \$2 0;
#X connect 0 0 1 1;
#X connect 1 0 2 1;
#X connect 2 0 5 0;
#X connect 3 0 2 0;
#X connect 4 0 1 0;
#X connect 5 0 14 1;
#X connect 6 0 3 0;
#X connect 6 1 4 0;
#X connect 6 2 0 0;
#X connect 7 0 8 1;
#X connect 8 0 12 0;
#X connect 9 0 8 0;
#X connect 10 0 7 0;
#X connect 11 0 7 1;
#X connect 12 0 14 0;
#X connect 13 0 9 0;
#X connect 13 1 10 0;
#X connect 13 2 11 0;
#X connect 14 0 20 0;
#X connect 15 0 6 0;
#X connect 16 0 13 0;
#X connect 17 0 16 0;
#X connect 17 1 15 0;
#X connect 18 0 17 0;
#X connect 20 0 19 0;
#X restore 47 113 pd off;
#X obj 47 83 select 0 1;
#X obj 96 160 send \$0-dsp-toggle-set;
#N canvas 0 22 712 637 off 0;
#X obj 490 220 * -1;
#X obj 424 300 +;
#X obj 409 325 +;
#X obj 347 219 * -65536;
#X obj 424 220 * -256;
#X obj 409 356 - 1;
#X obj 390 189 unpack f f f;
#X obj 225 295 +;
#X obj 210 320 +;
#X obj 148 214 * -65536;
#X obj 225 215 * -256;
#X obj 291 215 * -1;
#X obj 210 351 - 1;
#X obj 191 184 unpack f f f;
#X obj 379 423 pack;
#X msg 378 447 color \$1 \$2;
#X msg 203 154 220 220 220;
#X obj 238 121 t b b;
#X obj 238 81 inlet;
#X obj 378 485 outlet;
#X msg 395 152 88 88 84;
#X connect 0 0 1 1;
#X connect 1 0 2 1;
#X connect 2 0 5 0;
#X connect 3 0 2 0;
#X connect 4 0 1 0;
#X connect 5 0 14 1;
#X connect 6 0 3 0;
#X connect 6 1 4 0;
#X connect 6 2 0 0;
#X connect 7 0 8 1;
#X connect 8 0 12 0;
#X connect 9 0 8 0;
#X connect 10 0 7 0;
#X connect 11 0 7 1;
#X connect 12 0 14 0;
#X connect 13 0 9 0;
#X connect 13 1 10 0;
#X connect 13 2 11 0;
#X connect 14 0 15 0;
#X connect 15 0 19 0;
#X connect 16 0 13 0;
#X connect 17 0 16 0;
#X connect 17 1 20 0;
#X connect 18 0 17 0;
#X connect 20 0 6 0;
#X restore 346 138 pd off;
#X obj 346 108 select 0 1;
#X obj 403 171 s \$0-cnv_dsp;
#X msg 427 78 color -8.15833e+06 -1.34937e+07;
#X msg 96 114 color -4.86997e+06 -1.34937e+07 0;
#X text 456 59 velho;
#X msg 447 107 color -8.15833e+06 0;
#N canvas 253 23 385 507 on 0;
#X obj 231 177 * -1;
#X obj 165 257 +;
#X obj 150 282 +;
#X obj 88 176 * -65536;
#X obj 165 177 * -256;
#X obj 150 313 - 1;
#X obj 131 146 unpack f f f;
#X obj 136 58 inlet;
#X obj 149 395 outlet;
#X msg 146 355 color -8.15833e+06 \$1;
#X msg 136 109 244 244 244;
#X connect 0 0 1 1;
#X connect 1 0 2 1;
#X connect 2 0 5 0;
#X connect 3 0 2 0;
#X connect 4 0 1 0;
#X connect 5 0 9 0;
#X connect 6 0 3 0;
#X connect 6 1 4 0;
#X connect 6 2 0 0;
#X connect 7 0 10 0;
#X connect 9 0 8 0;
#X connect 10 0 6 0;
#X restore 404 138 pd on;
#X connect 0 0 2 0;
#X connect 0 0 5 0;
#X connect 1 0 3 0;
#X connect 2 0 1 0;
#X connect 2 1 8 0;
#X connect 4 0 6 0;
#X connect 5 0 4 0;
#X connect 5 1 11 0;
#X connect 8 0 3 0;
#X restore 93 159 pd set_color;
#X obj 187 99 inlet;
#X obj 187 169 send \$0-dsp-toggle-set;
#X connect 0 0 3 0;
#X connect 2 0 0 0;
#X connect 2 0 1 0;
#X restore 257 271 pd set_GUI;
#N canvas 116 23 288 228 dsp_check 0;
#X obj 168 45 loadbang;
#X obj 59 60 sig~ 1;
#X obj 59 119 snapshot~;
#X obj 149 143 switch~;
#X msg 168 117 1;
#X msg 135 117 0;
#X obj 108 85 delay 5;
#X obj 59 149 outlet;
#X connect 0 0 4 0;
#X connect 0 0 6 0;
#X connect 1 0 2 0;
#X connect 2 0 7 0;
#X connect 4 0 3 0;
#X connect 5 0 3 0;
#X connect 6 0 2 0;
#X connect 6 0 5 0;
#X restore 261 144 pd dsp_check;
#X obj 233 40 inlet;
#X obj 190 363 outlet;
#X obj 233 70 sel 0 1;
#X msg 252 104 \; pd dsp 1;
#X msg 257 240 0;
#X msg 139 198 set 0;
#X msg 112 233 \; pd dsp 0;
#X obj 112 172 t b b;
#X obj 58 363 outlet;
#X obj 73 300 value dsp_state_\$0;
#X msg 58 141 0;
#X obj 58 329 b;
#X msg 190 171 1;
#X obj 190 240 change -1;
#X obj 112 147 delay 150;
#X connect 0 0 17 0;
#X connect 1 0 0 0;
#X connect 3 0 17 0;
#X connect 4 0 6 0;
#X connect 6 0 8 0;
#X connect 6 0 14 0;
#X connect 6 0 18 0;
#X connect 6 1 7 0;
#X connect 6 1 16 0;
#X connect 8 0 2 0;
#X connect 9 0 17 0;
#X connect 11 0 10 0;
#X connect 11 1 9 0;
#X connect 14 0 13 0;
#X connect 14 0 15 0;
#X connect 15 0 12 0;
#X connect 16 0 17 0;
#X connect 17 0 2 0;
#X connect 17 0 5 0;
#X connect 17 0 13 0;
#X connect 18 0 11 0;
#X restore 173 63 pd DSP_state;
#X obj 34 133 value dsp_state_\$0;
#X obj 34 72 t b f;
#X obj 34 162 select 0 1;
#X obj 260 93 value dsp_state_\$0;
#X obj 34 38 receive \$0-slider;
#X obj 173 36 receive \$0-dsp-toggle;
#X msg 270 245 0 \, \$1 100;
#X obj 173 372 outlet;
#X msg 173 119 0 150;
#X connect 0 0 15 0;
#X connect 3 0 5 0;
#X connect 4 0 14 0;
#X connect 5 0 15 0;
#X connect 6 0 0 0;
#X connect 6 1 4 0;
#X connect 7 0 16 0;
#X connect 7 1 11 0;
#X connect 7 1 6 0;
#X connect 8 0 10 0;
#X connect 9 0 8 0;
#X connect 9 1 2 0;
#X connect 10 0 1 0;
#X connect 10 1 3 0;
#X connect 12 0 9 0;
#X connect 13 0 7 0;
#X connect 14 0 15 0;
#X connect 16 0 15 0;
#X restore 161 30 pd Gui_control;
#N canvas 350 64 524 357 mode_check 0;
#X obj 58 220 expr if($f1 == 0 || $f2 == 1 \, 0 \, if($f1 == 1 || $f2
== 1 \, 1 \, if($f1 == 2 || $f2 == 2 \, 2 \, -1)));
#X obj 58 120 list append \$1;
#X msg 58 178 -1;
#X floatatom 101 179 5 0 0 0 - - -, f 5;
#X msg 364 182 -1;
#X floatatom 415 183 5 0 0 0 - - -, f 5;
#X obj 364 129 list append \$2;
#X obj 58 150 route symbol float;
#X obj 364 154 route symbol float;
#X obj 58 75 trigger bang bang;
#X obj 58 37 bng 15 250 50 0 empty empty empty 17 7 0 10 -262144 -1
-1;
#X obj 58 263 s \$0-mode;
#X obj 100 35 loadbang;
#X connect 0 0 11 0;
#X connect 1 0 7 0;
#X connect 2 0 0 0;
#X connect 3 0 0 0;
#X connect 4 0 0 1;
#X connect 5 0 0 1;
#X connect 6 0 8 0;
#X connect 7 0 2 0;
#X connect 7 1 3 0;
#X connect 8 0 4 0;
#X connect 8 1 5 0;
#X connect 9 0 1 0;
#X connect 9 1 6 0;
#X connect 10 0 9 0;
#X connect 12 0 9 0;
#X restore 349 103 pd mode_check;
#X connect 0 0 1 0;
#X connect 2 0 1 0;
#X connect 3 0 1 0;
#X connect 4 0 2 0;
#X connect 4 0 3 0;
#X connect 4 0 0 0;
#X restore 312 292 pd gain;
#N canvas 495 23 450 300 mute 0;
#X obj 121 90 r \$0-mute;
#X obj 121 167 line~;
#X obj 121 196 *~;
#X obj 121 221 *~;
#X obj 121 114 expr 1 - $f1;
#X msg 121 140 \$1 50;
#X obj 206 114 loadbang;
#X msg 206 140 1;
#X obj 121 245 outlet~;
#X connect 0 0 4 0;
#X connect 1 0 2 0;
#X connect 1 0 2 1;
#X connect 2 0 3 0;
#X connect 2 0 3 1;
#X connect 3 0 8 0;
#X connect 4 0 5 0;
#X connect 5 0 1 0;
#X connect 6 0 7 0;
#X connect 7 0 1 0;
#X restore 309 241 pd mute;
#X connect 0 0 5 0;
#X connect 1 0 11 0;
#X connect 1 0 17 0;
#X connect 3 0 6 0;
#X connect 4 0 10 0;
#X connect 4 0 17 1;
#X connect 5 0 16 0;
#X connect 6 0 15 0;
#X connect 8 0 13 0;
#X connect 12 0 9 0;
#X connect 15 0 4 0;
#X connect 16 0 1 0;
#X connect 19 0 4 1;
#X connect 19 0 1 1;
#X connect 20 0 15 1;
#X connect 20 0 16 1;
#X coords 0 0 1 1 94 54 1 60 200;
