#N canvas 319 23 1046 824 10;
#X text 502 28 All tracks of a multi-track midi file are merged into
one.;
#X text 505 55 [seq] has his own midi list editor.;
#X obj 162 211 midirealtimein;
#X msg 192 273 start -1;
#X msg 156 273 tick;
#X text 514 103 extra features;
#X obj 667 122 midirealtimein;
#X obj 667 153 route 248;
#X text 617 328 251 - continue;
#X obj 162 242 route 248 250 251 252;
#X msg 258 273 continue;
#X msg 354 319 flush;
#X msg 339 232 stop;
#X msg 424 283 pause;
#X text 466 283 dont do nothing;
#X msg 325 273 stop;
#X text 378 233 goes to start / para mesmo \, não rola tocar nem com
clock;
#X obj 464 413 s \$0-midi2;
#X msg 435 341 start;
#X msg 504 372 pause;
#X msg 558 377 continue;
#X msg 488 343 stop;
#X msg 79 283 goto 2;
#X text 417 453 should continue allow ticks?;
#X text 416 471 i think continue should set the same speed as before
\, and it it was clock (-1) so it should allow ticks;
#X text 617 304 252 - stop for continue?;
#X text 416 513 stop should be pause \, then delete pause...;
#N canvas 422 23 982 376 realtime 0;
#X text 62 65 Used to tell a sequencer to stop playing \; Any subsequent
MIDI Timing Clock messages are to be ignored \; Note-off messages should
be sent for all notes which are still on \, and all controllers should
be returned to their 'normal' settings \; \; The current song position
pointer should be stored \, so that playing can continue from the same
point if a MIDI Continue message is received.;
#X text 500 87 Any superfluous Real Time messages should be ignored.
For example \, if a Start message is followed by a subsequent Start
message \, the second Start message should have no effect - not what
happens in max with 'start 1';
#X text 65 232 Continue \; Used to tell a sequencer to continue playing
the current song from where it last left off. The sequencer should
continue from the current song-position when the next Timing Clock
message is received (;
#X text 506 242 Start \; Used to synchronise the start-up of sequencers
The sequence must start from song position 0 Sequencing begins at song-position
0 when the next Timing Clock message is received;
#X text 71 41 STOP (which is pause);
#X restore 218 546 pd realtime;
#X obj 714 191 print midirealtimein;
#X obj 769 138 midiclkin;
#X obj 683 189 bng 15 250 50 0 empty empty empty 17 7 0 10 -262144
-1 -1;
#X floatatom 761 243 5 0 0 0 - - -, f 5;
#X msg 383 649 start -1;
#X obj 465 658 metro;
#X msg 465 682 tick;
#X obj 517 660 !/ 1000;
#X obj 517 683 nbx 8 14 -1e+37 1e+37 0 0 empty empty empty 0 -8 0 10
-228856 -1 -1 20.8333 256;
#X obj 465 635 tgl 15 0 empty empty empty 17 7 0 10 -228856 -1 -1 1
1;
#X obj 465 609 loadbang;
#X msg 517 637 48;
#X obj 465 740 s \$0-midi;
#X text 329 649 play =>;
#X obj 251 603 cyclone/seq seq.txt;
#X obj 465 710 cyclone/seq seq.mid;
#X obj 314 699 s \$0-midi;
#X obj 77 576 cyclone/midiparse;
#X obj 77 548 cyclone/midiflush;
#X msg 77 430 bang;
#N canvas 638 210 457 353 polysynth 0;
#X obj 65 20 inlet;
#N canvas 667 245 370 323 synth 0;
#X obj 234 124 / 127;
#X obj 219 204 *~;
#X obj 81 134 phasor~;
#X obj 81 102 mtof;
#X obj 81 31 inlet;
#X obj 219 273 outlet~;
#X obj 81 70 unpack float float;
#X obj 234 174 vline~;
#X msg 234 149 \$1 50;
#X obj 81 162 cyclone/triangle~ 0.9;
#X obj 219 236 /~ 3;
#X connect 0 0 8 0;
#X connect 1 0 10 0;
#X connect 2 0 9 0;
#X connect 3 0 2 0;
#X connect 4 0 6 0;
#X connect 6 0 3 0;
#X connect 6 1 0 0;
#X connect 7 0 1 1;
#X connect 8 0 7 0;
#X connect 9 0 1 0;
#X connect 10 0 5 0;
#X restore 41 151 pd synth;
#X obj 65 84 pack f f f;
#X obj 100 207 outlet~;
#N canvas 667 245 370 323 synth 0;
#X obj 234 124 / 127;
#X obj 219 204 *~;
#X obj 81 134 phasor~;
#X obj 81 102 mtof;
#X obj 81 31 inlet;
#X obj 219 273 outlet~;
#X obj 81 70 unpack float float;
#X obj 234 174 vline~;
#X msg 234 149 \$1 50;
#X obj 81 162 cyclone/triangle~ 0.9;
#X obj 219 236 /~ 3;
#X connect 0 0 8 0;
#X connect 1 0 10 0;
#X connect 2 0 9 0;
#X connect 3 0 2 0;
#X connect 4 0 6 0;
#X connect 6 0 3 0;
#X connect 6 1 0 0;
#X connect 7 0 1 1;
#X connect 8 0 7 0;
#X connect 9 0 1 0;
#X connect 10 0 5 0;
#X restore 100 151 pd synth;
#N canvas 667 245 370 323 synth 0;
#X obj 234 124 / 127;
#X obj 219 204 *~;
#X obj 81 134 phasor~;
#X obj 81 102 mtof;
#X obj 81 31 inlet;
#X obj 219 273 outlet~;
#X obj 81 70 unpack float float;
#X obj 234 174 vline~;
#X msg 234 149 \$1 50;
#X obj 81 162 cyclone/triangle~ 0.9;
#X obj 219 236 /~ 3;
#X connect 0 0 8 0;
#X connect 1 0 10 0;
#X connect 2 0 9 0;
#X connect 3 0 2 0;
#X connect 4 0 6 0;
#X connect 6 0 3 0;
#X connect 6 1 0 0;
#X connect 7 0 1 1;
#X connect 8 0 7 0;
#X connect 9 0 1 0;
#X connect 10 0 5 0;
#X restore 161 152 pd synth;
#X text 124 19 3-voice polyphonic synth;
#N canvas 667 245 370 323 synth 0;
#X obj 234 124 / 127;
#X obj 219 204 *~;
#X obj 81 134 phasor~;
#X obj 81 102 mtof;
#X obj 81 31 inlet;
#X obj 219 273 outlet~;
#X obj 81 70 unpack float float;
#X obj 234 174 vline~;
#X msg 234 149 \$1 50;
#X obj 81 162 cyclone/triangle~ 0.9;
#X obj 219 236 /~ 3;
#X connect 0 0 8 0;
#X connect 1 0 10 0;
#X connect 2 0 9 0;
#X connect 3 0 2 0;
#X connect 4 0 6 0;
#X connect 6 0 3 0;
#X connect 6 1 0 0;
#X connect 7 0 1 1;
#X connect 8 0 7 0;
#X connect 9 0 1 0;
#X connect 10 0 5 0;
#X restore 234 157 pd synth;
#N canvas 667 245 370 323 synth 0;
#X obj 234 124 / 127;
#X obj 219 204 *~;
#X obj 81 134 phasor~;
#X obj 81 102 mtof;
#X obj 81 31 inlet;
#X obj 219 273 outlet~;
#X obj 81 70 unpack float float;
#X obj 234 174 vline~;
#X msg 234 149 \$1 50;
#X obj 81 162 cyclone/triangle~ 0.9;
#X obj 219 236 /~ 3;
#X connect 0 0 8 0;
#X connect 1 0 10 0;
#X connect 2 0 9 0;
#X connect 3 0 2 0;
#X connect 4 0 6 0;
#X connect 6 0 3 0;
#X connect 6 1 0 0;
#X connect 7 0 1 1;
#X connect 8 0 7 0;
#X connect 9 0 1 0;
#X connect 10 0 5 0;
#X restore 293 157 pd synth;
#N canvas 667 245 370 323 synth 0;
#X obj 234 124 / 127;
#X obj 219 204 *~;
#X obj 81 134 phasor~;
#X obj 81 102 mtof;
#X obj 81 31 inlet;
#X obj 219 273 outlet~;
#X obj 81 70 unpack float float;
#X obj 234 174 vline~;
#X msg 234 149 \$1 50;
#X obj 81 162 cyclone/triangle~ 0.9;
#X obj 219 236 /~ 3;
#X connect 0 0 8 0;
#X connect 1 0 10 0;
#X connect 2 0 9 0;
#X connect 3 0 2 0;
#X connect 4 0 6 0;
#X connect 6 0 3 0;
#X connect 6 1 0 0;
#X connect 7 0 1 1;
#X connect 8 0 7 0;
#X connect 9 0 1 0;
#X connect 10 0 5 0;
#X restore 354 158 pd synth;
#X obj 65 115 route 1 2 3 4 5 6, f 18;
#X obj 293 213 *~ 1;
#X obj 65 52 poly 6 0;
#X connect 0 0 12 0;
#X connect 1 0 3 0;
#X connect 2 0 10 0;
#X connect 4 0 3 0;
#X connect 5 0 3 0;
#X connect 7 0 11 0;
#X connect 8 0 11 0;
#X connect 9 0 11 0;
#X connect 10 0 1 0;
#X connect 10 1 4 0;
#X connect 10 2 5 0;
#X connect 10 3 7 0;
#X connect 10 4 8 0;
#X connect 10 5 9 0;
#X connect 11 0 3 0;
#X connect 12 0 2 0;
#X connect 12 1 2 1;
#X connect 12 2 2 2;
#X restore 77 609 pd polysynth;
#X obj 57 646 output~;
#X obj 101 133 metro;
#X msg 101 157 tick;
#X obj 153 135 !/ 1000;
#X obj 153 158 nbx 8 14 -1e+37 1e+37 0 0 empty empty empty 0 -8 0 10
-228856 -1 -1 20.8333 256;
#X obj 101 110 tgl 15 0 empty empty empty 17 7 0 10 -228856 -1 -1 1
1;
#X obj 101 84 loadbang;
#X msg 153 112 48;
#X obj 192 326 cyclone/seq seq.mid;
#X connect 2 0 9 0;
#X connect 3 0 57 0;
#X connect 4 0 57 0;
#X connect 6 0 7 0;
#X connect 6 1 31 0;
#X connect 7 0 30 0;
#X connect 9 0 4 0;
#X connect 9 1 3 0;
#X connect 9 2 10 0;
#X connect 9 3 15 0;
#X connect 10 0 57 0;
#X connect 15 0 57 0;
#X connect 18 0 17 0;
#X connect 19 0 17 0;
#X connect 20 0 17 0;
#X connect 21 0 17 0;
#X connect 22 0 57 0;
#X connect 29 0 28 0;
#X connect 32 0 43 0;
#X connect 33 0 34 0;
#X connect 34 0 43 0;
#X connect 35 0 36 0;
#X connect 36 0 33 1;
#X connect 37 0 33 0;
#X connect 38 0 37 0;
#X connect 38 0 39 0;
#X connect 39 0 35 0;
#X connect 43 0 40 0;
#X connect 45 0 48 0;
#X connect 46 0 45 0;
#X connect 47 0 46 0;
#X connect 48 0 49 0;
#X connect 48 0 49 1;
#X connect 50 0 51 0;
#X connect 51 0 4 0;
#X connect 52 0 53 0;
#X connect 53 0 50 1;
#X connect 54 0 50 0;
#X connect 55 0 54 0;
#X connect 55 0 56 0;
#X connect 56 0 52 0;
#X connect 57 0 46 0;
