#N canvas 309 244 595 546 12;
#X obj 62 449 pack;
#X obj 62 387 t b b;
#X obj 62 356 until;
#X obj 33 250 makefilename #%x;
#X obj 33 219 + 256;
#X obj 33 188 random 3840;
#X obj 62 418 random 500;
#X obj 175 418 random 500;
#X obj 33 126 + 3;
#X obj 83 6 tgl 15 0 empty empty empty 0 -6 0 8 -262144 -1 -1 0 1;
#X obj 33 33 metro 500;
#X obj 157 95 random 10;
#X obj 157 126 sel 7;
#X obj 33 64 t b b;
#X obj 175 449 + 20;
#X obj 33 6 bng 15 250 50 0 empty empty empty 0 -6 0 8 -262144 -1 -1
;
#X msg 130 33 tot .^.c delete bulk;
#X msg 98 544 tot .^.c configure -bg pink;
#X msg 62 480 add [expr \$1 + .#1] [expr \$2 + .#2];
#X msg 62 511 debug;
#X obj 33 285 pack s 0 0;
#X obj 33 157 t b b b 0 b;
#X msg 33 320 add -tags bulk -fill \$1 -smooth true \, push \$2 \$3
;
#X msg 157 188 reset \, add .^.c create polygon;
#X obj 261 250 random 150;
#X obj 201 219 random 100;
#X obj 201 250 + 10;
#X obj 33 95 random 700;
#X obj 33 544 tot .;
#X connect 0 0 18 0;
#X connect 1 0 6 0;
#X connect 1 1 7 0;
#X connect 2 0 1 0;
#X connect 3 0 20 0;
#X connect 4 0 3 0;
#X connect 5 0 4 0;
#X connect 6 0 0 0;
#X connect 7 0 14 0;
#X connect 8 0 21 0;
#X connect 9 0 10 0;
#X connect 10 0 13 0;
#X connect 11 0 12 0;
#X connect 12 0 16 0;
#X connect 13 0 27 0;
#X connect 13 1 11 0;
#X connect 14 0 0 1;
#X connect 15 0 13 0;
#X connect 16 0 28 0;
#X connect 17 0 28 0;
#X connect 18 0 28 0;
#X connect 19 0 28 0;
#X connect 20 0 22 0;
#X connect 21 0 5 0;
#X connect 21 1 25 0;
#X connect 21 2 24 0;
#X connect 21 3 2 0;
#X connect 21 4 23 0;
#X connect 22 0 28 0;
#X connect 23 0 28 0;
#X connect 24 0 20 2;
#X connect 25 0 26 0;
#X connect 26 0 20 1;
#X connect 27 0 8 0;
#X connect 28 3 17 0;
