#N canvas 706 191 434 502 10;
#X declare -lib nettles;
#X obj 141 77 declare -lib nettles;
#X obj 50 43 inlet~;
#X obj 111 42 inlet~;
#X obj 84 111 outlet~;
#X obj 84 78 !-~;
#X obj 38 249 loadbang;
#X text 66 175 check help file for more info on how to load the object
version;
#X obj 38 359 print WARNING!!!;
#X text 68 152 this is an abstraction for [!-~];
#X msg 38 276 ======> Cyclone 0.3beta: You've loaded the abstraction
version of the [!-~] object which does not work with arguments. Use
[declare -lib nettles] to load the object version with full functionality
- check help file for more info.;
#X connect 1 0 4 0;
#X connect 2 0 4 1;
#X connect 4 0 3 0;
#X connect 5 0 9 0;
#X connect 9 0 7 0;
