#N canvas 811 146 450 454 10;
#X declare -lib nettles;
#X obj 225 67 declare -lib nettles;
#X obj 63 33 inlet~;
#X obj 124 32 inlet~;
#X obj 97 101 outlet~;
#X obj 38 249 loadbang;
#X text 66 175 check help file for more info on how to load the object
version;
#X obj 38 359 print WARNING!!!;
#X obj 97 68 %~;
#X text 68 152 this is an abstraction for [%~];
#X msg 38 276 ======> Cyclone 0.3beta: You've loaded the abstraction
version of the [%~] object which does not work with arguments. Use
[declare -lib nettles] to load the object version with full functionality
- check help file for more info.;
#X connect 1 0 7 0;
#X connect 2 0 7 1;
#X connect 4 0 9 0;
#X connect 7 0 3 0;
#X connect 9 0 6 0;
