#N canvas 655 25 561 831 10;
#X declare -lib nettles;
#X declare -lib nettles;
#X obj 3 38 cnv 15 552 50 empty empty <=~ 3 12 0 18 -204280 -1 0;
#X obj 3 780 cnv 15 552 21 empty empty empty 20 12 0 14 -233017 -33289
0;
#X obj 3 422 cnv 3 550 3 empty empty outlets 8 12 0 13 -228856 -1 0
;
#X obj 3 479 cnv 3 550 3 empty empty arguments 8 12 0 13 -228856 -1
0;
#X obj 3 565 cnv 3 550 3 empty empty more_info 8 12 0 13 -228856 -1
0;
#X obj 81 434 cnv 17 3 17 empty empty 0 5 9 0 16 -228856 -162280 0
;
#N canvas 502 391 401 260 META 0;
#X text 0 22 LICENSE SIBSD;
#X text 0 102 LIBRARY cyclone;
#X text 0 62 INLET_0 signal;
#X text 0 82 OUTLET_0 signal;
#X text 0 42 DESCRIPTION takes the arc tangent function for signals
;
#X text 0 0 KEYWORDS arc tangent arctangent arctan atan signal;
#X text 0 123 VERSION 0.2-beta1;
#X text 0 141 AUTHOR Krzysztof Czaja;
#X text 1 159 RELEASE_DATE 2002;
#X text 2 178 WEBSITE http://suita.chopin.edu.pl/~czaja/miXed/externs/cyclone.html
;
#X text 2 210 HELP_PATCH_AUTHORS Christoph Kummerer. Revised by Jonathan
Wilkes for Pd-extended 0.42 to conform to the PDDP template. Alex Cleveland
updated this patch for Pd-l2ork version 2013.05.28. Fred Jan Kraan
adapted the patch to pd-extended 2015-02-02;
#X restore 506 780 pd META;
#N canvas 232 526 441 120 Related_objects 0;
#X obj 0 0 cnv 15 425 20 empty empty empty 3 12 0 14 -204280 -1 0;
#X text 6 1 Related Objects;
#X restore 194 782 pd Related_objects;
#X obj 81 365 cnv 17 3 17 empty empty 0 5 9 0 16 -228856 -162280 0
;
#X obj 3 353 cnv 3 550 3 empty empty inlets 8 12 0 13 -228856 -1 0
;
#X obj 81 390 cnv 17 3 17 empty empty 1 5 9 0 16 -228856 -162280 0
;
#X obj 81 365 cnv 17 3 17 empty empty 0 5 9 0 16 -228856 -162280 0
;
#X text 110 433 signal -;
#X floatatom 310 185 5 0 0 0 - - -, f 5;
#X floatatom 264 188 5 0 0 0 - - -, f 5;
#X obj 280 255 cyclone/snapshot~ 1;
#X floatatom 76 195 5 0 0 0 - - -, f 5;
#X obj 76 257 cyclone/snapshot~ 1;
#X obj 280 293 tgl 40 0 empty empty empty 17 7 0 10 -261234 -1 -1 1
1;
#X obj 76 295 tgl 40 0 empty empty empty 17 7 0 10 -261234 -1 -1 1
1;
#X obj 280 218 <=~;
#X obj 481 44 lessthaneq~;
#X obj 527 66 <=~;
#X text 15 61 Is less than or equal to \, comparison of two signals:
;
#X text 332 61 alias of [lessthaneq~];
#X text 177 433 If the signal in the left inlet is less than or equal
to the value in the right inlet 1 is sent out - 0 otherwise.;
#X text 57 108 [lessthaneq~] or [<=~] <~ outputs a 1 signal when the
left input is greater-than or equal-to the right input or argument
and a 0 when it is less-than the right input or rgument.;
#X obj 76 222 cyclone/lessthaneq~ 5;
#N canvas 439 241 715 321 (subpatch) 0;
#X obj 51 51 cnv 15 552 28 empty empty Cyclone: 6 13 0 18 -128992 -233080
0;
#X obj 217 65 cnv 5 5 5 empty empty Library 0 0 0 12 -128992 -233080
0;
#X obj 275 65 cnv 5 5 5 empty empty of 0 0 0 12 -128992 -233080 0;
#X obj 298 64 cnv 5 5 5 empty empty objects 0 0 0 12 -128992 -233080
0;
#X obj 356 64 cnv 5 5 5 empty empty cloned 0 0 0 12 -128992 -233080
0;
#X obj 406 64 cnv 5 5 5 empty empty from 0 0 0 12 -128992 -233080 0
;
#X obj 444 64 cnv 5 5 5 empty empty Max/MSP 0 0 0 12 -128992 -233080
0;
#X coords 0 -1 1 1 554 30 1 50 50;
#X restore 2 4 pd;
#N canvas 673 40 366 264 (subpatch) 0;
#X obj 51 101 tgl 42 0 \$0-tgl-s \$0-tgl-r empty 1 8 1 9 -74965 -212593
-262144 1 1;
#X obj 215 68 route dsp;
#X obj 215 37 receive pd;
#N canvas 939 367 324 271 set_color 0;
#X obj 47 30 inlet;
#X obj 96 146 s \$0-cnv;
#X msg 96 114 color -4.86997e+06 -1.34937e+07;
#N canvas 0 22 712 637 off 0;
#X obj 490 220 * -1;
#X obj 424 300 +;
#X obj 409 325 +;
#X obj 347 219 * -65536;
#X obj 424 220 * -256;
#X obj 409 356 - 1;
#X obj 390 189 unpack f f f;
#X obj 225 295 +;
#X obj 210 320 +;
#X obj 148 214 * -65536;
#X obj 225 215 * -256;
#X obj 291 215 * -1;
#X obj 210 351 - 1;
#X obj 191 184 unpack f f f;
#X obj 379 423 pack;
#X msg 378 447 color \$1 \$2;
#X msg 395 152 124 124 124;
#X msg 203 154 220 220 220;
#X obj 238 121 t b b;
#X obj 238 81 inlet;
#X obj 378 485 outlet;
#X connect 0 0 1 1;
#X connect 1 0 2 1;
#X connect 2 0 5 0;
#X connect 3 0 2 0;
#X connect 4 0 1 0;
#X connect 5 0 14 1;
#X connect 6 0 3 0;
#X connect 6 1 4 0;
#X connect 6 2 0 0;
#X connect 7 0 8 1;
#X connect 8 0 12 0;
#X connect 9 0 8 0;
#X connect 10 0 7 0;
#X connect 11 0 7 1;
#X connect 12 0 14 0;
#X connect 13 0 9 0;
#X connect 13 1 10 0;
#X connect 13 2 11 0;
#X connect 14 0 15 0;
#X connect 15 0 20 0;
#X connect 16 0 6 0;
#X connect 17 0 13 0;
#X connect 18 0 17 0;
#X connect 18 1 16 0;
#X connect 19 0 18 0;
#X restore 47 113 pd off;
#X obj 47 83 select 0 1;
#X obj 47 168 list append 0;
#X obj 47 195 list trim;
#X obj 47 220 s \$0-tgl-r;
#X connect 0 0 4 0;
#X connect 2 0 1 0;
#X connect 2 0 5 0;
#X connect 3 0 1 0;
#X connect 3 0 5 0;
#X connect 4 0 3 0;
#X connect 4 1 2 0;
#X connect 5 0 6 0;
#X connect 6 0 7 0;
#X restore 215 165 pd set_color;
#X obj 135 122 r \$0-tgl-s;
#N canvas 0 22 450 300 (subpatch) 0;
#X obj 101 101 cnv 25 40 25 empty \$0-cnv DSP 3 13 0 20 -74965 -212593
0;
#X coords 0 -1 1 1 42 27 1 100 100;
#X restore 51 144 pd;
#X obj 226 139 s \$0-tgl-r;
#X msg 226 115 set \$1;
#X msg 135 177 \; pd dsp \$1;
#N canvas 256 32 278 194 load_check 0;
#X obj 167 53 sig~ 1;
#X obj 74 24 loadbang;
#X obj 167 86 snapshot~;
#X obj 167 151 outlet;
#X obj 74 103 tgl 15 0 empty empty empty 17 7 0 10 -262144 -1 -1 0
1;
#X obj 74 126 switch~;
#X obj 91 52 del 5;
#X connect 0 0 2 0;
#X connect 1 0 4 0;
#X connect 1 0 6 0;
#X connect 2 0 3 0;
#X connect 4 0 5 0;
#X connect 6 0 2 0;
#X connect 6 0 4 0;
#X restore 51 72 pd load_check;
#X connect 1 0 3 0;
#X connect 1 0 7 0;
#X connect 2 0 1 0;
#X connect 4 0 8 0;
#X connect 4 0 3 0;
#X connect 7 0 6 0;
#X connect 9 0 0 0;
#X coords 0 -1 1 1 44 72 2 50 100;
#X restore 503 103 pd;
#X floatatom 199 194 5 0 0 0 - - -, f 5;
#X text 121 389 float/signal;
#X text 157 365 signal;
#X text 212 389 - value used for comparison with left inlet;
#X text 212 365 - value is compared to right inlet's or argument;
#X text 105 490 1) float -;
#X obj 417 606 declare -lib nettles, f 21;
#X obj 420 737 nettles-help;
#X text 65 738 Open help files of "nettles" to understand what it is
===>;
#X text 62 593 So far \, [<=~] only correctly loads if you declare
the "nettles" library with the declare object like this =====>;
#X text 63 629 There's a [cyclone/<=~] abstraction that internally
loads the object if you didn't declare nettles \, but the it won't
load arguments and work as it should. If you are not sure if you have
an abstraction \, check warning in Pd window or click on it to see
if it opens.;
#X text 64 701 You can also load the alias object [cyclone/lessthaneq~]
with no such issues and outside "nettles".;
#X text 179 490 A number to be used for comparison with incoming from
left inlet (default 0). A float on the right inlet overwrites the argument.
If a signal is connected to the right inlet \, argument is ignored.
If signal is disconnected \, argument value is restored.;
#X connect 13 0 20 1;
#X connect 14 0 20 0;
#X connect 15 0 18 0;
#X connect 16 0 27 0;
#X connect 17 0 19 0;
#X connect 20 0 15 0;
#X connect 27 0 17 0;
#X connect 30 0 27 1;
