#N canvas 688 55 608 761 10;
#X declare -lib nettles;
#X declare -lib nettles;
#X obj 10 10 cnv 15 552 50 empty empty ==~ 3 12 0 18 -204280 -1 0;
#X obj 40 696 cnv 15 552 21 empty empty empty 20 12 0 14 -233017 -33289
0;
#X obj 40 491 cnv 3 550 3 empty empty outlets 8 12 0 13 -228856 -1
0;
#X obj 40 548 cnv 3 550 3 empty empty arguments 8 12 0 13 -228856 -1
0;
#X obj 40 641 cnv 3 550 3 empty empty more_info 8 12 0 13 -228856 -1
0;
#X obj 118 503 cnv 17 3 17 empty empty 0 5 9 0 16 -228856 -162280 0
;
#N canvas 502 391 401 260 META 0;
#X text 0 22 LICENSE SIBSD;
#X text 0 102 LIBRARY cyclone;
#X text 0 62 INLET_0 signal;
#X text 0 82 OUTLET_0 signal;
#X text 0 42 DESCRIPTION takes the arc tangent function for signals
;
#X text 0 0 KEYWORDS arc tangent arctangent arctan atan signal;
#X text 0 123 VERSION 0.2-beta1;
#X text 0 141 AUTHOR Krzysztof Czaja;
#X text 1 159 RELEASE_DATE 2002;
#X text 2 178 WEBSITE http://suita.chopin.edu.pl/~czaja/miXed/externs/cyclone.html
;
#X text 2 210 HELP_PATCH_AUTHORS Christoph Kummerer. Revised by Jonathan
Wilkes for Pd-extended 0.42 to conform to the PDDP template. Alex Cleveland
updated this patch for Pd-l2ork version 2013.05.28. Fred Jan Kraan
adapted the patch to pd-extended 2015-02-02;
#X restore 543 698 pd META;
#N canvas 232 526 441 120 Related_objects 0;
#X obj 0 0 cnv 15 425 20 empty empty empty 3 12 0 14 -204280 -1 0;
#X text 6 1 Related Objects;
#X restore 231 698 pd Related_objects;
#X obj 118 413 cnv 17 3 17 empty empty 0 5 9 0 16 -228856 -162280 0
;
#X obj 40 399 cnv 3 550 3 empty empty inlets 8 12 0 13 -228856 -1 0
;
#X obj 118 443 cnv 17 3 17 empty empty 1 5 9 0 16 -228856 -162280 0
;
#X text 147 442 float/signal;
#X text 232 441 - value used for comparison with incoming value from
left inlet.;
#X obj 118 413 cnv 17 3 17 empty empty 0 5 9 0 16 -228856 -162280 0
;
#X text 147 502 signal -;
#X text 132 561 1) float -;
#X floatatom 307 160 5 0 0 0 - - -;
#X floatatom 261 163 5 0 0 0 - - -;
#X obj 277 230 cyclone/snapshot~ 1;
#X obj 451 279 loadbang;
#X msg 451 302 \; pd dsp 1;
#X floatatom 94 169 5 0 0 0 - - -;
#X obj 94 232 cyclone/snapshot~ 1;
#X obj 277 268 tgl 40 0 empty empty empty 17 7 0 10 -261234 -1 -1 0
1;
#X obj 94 270 tgl 40 0 empty empty empty 17 7 0 10 -261234 -1 -1 1
1;
#X obj 229 653 cnv 15 100 30 empty empty empty 20 12 0 14 -261234 -66577
0;
#X text 214 658 nettles is fucked up;
#X obj 397 182 cyclone/lessthan~;
#X obj 445 207 cyclone/<~;
#X text 230 411 - value is compared to right inlet's or argument.;
#X text 214 502 If the signal in the left inlet is less than or equal
to the value in the right inlet 1 is sent out - 0 otherwise.;
#X text 22 37 Is equal to \, comparison of two signals: alias of [equals~]
;
#X obj 511 16 equals~;
#X obj 534 38 ==~;
#X obj 94 197 equals~ 5;
#X floatatom 145 170 5 0 0 0 - - -;
#X text 147 412 signal;
#X text 206 561 A number to be used for comparison with incoming from
left inlet. A float on the right inlet overwrites the argument. If
a signal is connected to the right inlet \, argument is ignored. If
signal is disconnected \, argument value is restored.;
#X obj 277 193 ==~ 30;
#X obj 329 185 sig~ 10;
#X text 64 80 [equals~] or [==~] outputs a 1 signal when the left input
is equal to the right input or argument and sends a 0 when it is not
equal to the right inlet or argument.;
#X connect 16 0 38 1;
#X connect 17 0 38 0;
#X connect 18 0 23 0;
#X connect 19 0 20 0;
#X connect 21 0 34 0;
#X connect 22 0 24 0;
#X connect 34 0 22 0;
#X connect 35 0 34 1;
#X connect 38 0 18 0;
