#N canvas 706 191 421 215 10;
#X declare -lib nettles;
#X obj 202 65 declare -lib nettles;
#X obj 40 33 inlet~;
#X obj 101 32 inlet~;
#X obj 75 154 outlet~;
#X obj 75 98 ==~ \$1;
#X text 171 122 check help file for more info;
#X text 166 99 this is an abstraction for [==~];
#X connect 1 0 4 0;
#X connect 2 0 4 1;
#X connect 4 0 3 0;
