#N canvas 706 191 510 450 10;
#X declare -lib nettles;
#X obj 95 43 inlet~;
#X obj 162 42 inlet~;
#X obj 129 111 outlet~;
#X obj 186 77 declare -lib nettles;
#X obj 129 78 >=~;
#X obj 58 249 loadbang;
#X text 86 175 check help file for more info on how to load the object
version;
#X obj 58 359 print WARNING!!!;
#X text 88 152 this is an abstraction for [>=~];
#X msg 58 276 ======> Cyclone 0.3beta: You've loaded the abstraction
version of the [>=~] object which does not work with arguments. Use
[declare -lib nettles] to load the object version with full functionality
- check help file for more info.;
#X connect 0 0 4 0;
#X connect 1 0 4 1;
#X connect 4 0 2 0;
#X connect 5 0 9 0;
#X connect 9 0 7 0;
