#N canvas 706 191 499 438 10;
#X declare -lib nettles;
#X obj 212 73 declare -lib nettles;
#X obj 121 39 inlet~;
#X obj 182 38 inlet~;
#X obj 155 107 outlet~;
#X obj 58 249 loadbang;
#X obj 155 74 >~;
#X text 86 175 check help file for more info on how to load the object
version;
#X obj 58 359 print WARNING!!!;
#X text 88 152 this is an abstraction for [>~];
#X msg 58 276 ======> Cyclone 0.3beta: You've loaded the abstraction
version of the [>~] object which does not work with arguments. Use
[declare -lib nettles] to load the object version with full functionality
- check help file for more info.;
#X connect 1 0 5 0;
#X connect 2 0 5 1;
#X connect 4 0 9 0;
#X connect 5 0 3 0;
#X connect 9 0 7 0;
