#N canvas 620 23 562 494 10;
#X obj 2 434 cnv 15 552 21 empty empty empty 20 12 0 14 -233017 -33289
0;
#X obj 2 271 cnv 3 550 3 empty empty inlets 8 12 0 13 -228856 -1 0
;
#N canvas 383 289 391 328 META 0;
#X text 0 20 LICENSE SIBSD;
#X text 0 113 LIBRARY cyclone;
#X text 0 73 INLET_0 signal;
#X text 0 93 OUTLET_0 signal;
#X text 0 40 DESCRIPTION takes the arc hyperbolic cosine function for
signals;
#X text 0 0 KEYWORDS hyperbolic cosine cosh signal acos acosh;
#X text 0 134 VERSION 0.2-beta1;
#X text 0 155 AUTHOR Krzysztof Czaja;
#X text 1 174 RELEASE_DATE 2002;
#X text 1 194 WEBSITE http://suita.chopin.edu.pl/~czaja/miXed/externs/cyclone.html
;
#X text 1 224 HELP_PATCH_AUTHORS Christoph Kummerer. Revised by Jonathan
Wilkes for Pd-extended 0.42 to conform to the PDDP template. Alex Cleveland
updated this patch for Pd-l2ork version 2013.05.28. Fred Jan Kraan
adapted the patch to pd-extended 2015-02-02;
#X restore 505 436 pd META;
#X obj 2 351 cnv 3 550 3 empty empty outlets 8 12 0 13 -228856 -1 0
;
#X obj 2 388 cnv 3 550 3 empty empty arguments 8 12 0 13 -228856 -1
0;
#N canvas 108 413 427 190 Related_objects 0;
#X obj 0 0 cnv 15 425 20 empty empty empty 3 12 0 14 -204280 -1 0;
#X text 6 1 Related Objects;
#X obj 5 76 cyclone/acosh~;
#X obj 6 29 cyclone/acos;
#X obj 105 76 cyclone/asinh~;
#X obj 106 52 cyclone/asin~;
#X obj 202 45 cyclone/atan~;
#X obj 202 70 cyclone/atanh~;
#X obj 5 123 cyclone/cosh~;
#X obj 5 100 cyclone/cosh;
#X obj 5 148 cyclone/cosx~;
#X obj 5 53 cyclone/acos~;
#X obj 106 30 cyclone/asin;
#X obj 106 100 cyclone/sinh;
#X obj 105 123 cyclone/sinh~;
#X obj 105 147 cyclone/sinx~;
#X obj 202 93 cyclone/tanh;
#X obj 203 116 cyclone/tanh~;
#X obj 202 140 cyclone/tanx~;
#X obj 332 104 cos~;
#X text 325 74 vanilla;
#X restore 199 436 pd Related_objects;
#X obj 81 363 cnv 17 3 17 empty empty 0 5 9 0 16 -228856 -162280 0
;
#X obj 2 40 cnv 15 552 40 empty empty asinh 3 12 0 18 -204280 -1 0
;
#X obj 81 281 cnv 17 3 58 empty empty 0 5 9 0 16 -228856 -162280 0
;
#X text 171 364 - The hyperbolic arc-sine of the input in radians;
#N canvas 439 241 715 321 (subpatch) 0;
#X obj 51 51 cnv 15 552 28 empty empty Cyclone: 6 13 0 18 -128992 -233080
0;
#X obj 217 65 cnv 5 5 5 empty empty Library 0 0 0 12 -128992 -233080
0;
#X obj 275 65 cnv 5 5 5 empty empty of 0 0 0 12 -128992 -233080 0;
#X obj 298 64 cnv 5 5 5 empty empty objects 0 0 0 12 -128992 -233080
0;
#X obj 356 64 cnv 5 5 5 empty empty cloned 0 0 0 12 -128992 -233080
0;
#X obj 406 64 cnv 5 5 5 empty empty from 0 0 0 12 -128992 -233080 0
;
#X obj 444 64 cnv 5 5 5 empty empty Max/MSP 0 0 0 12 -128992 -233080
0;
#X coords 0 -1 1 1 554 30 1 50 50;
#X restore 2 5 pd;
#X text 18 64 Hyperbolic arc-sine function for signals;
#X obj 512 55 asinh;
#X obj 217 161 nbx 8 14 -1e+37 1e+37 0 0 empty empty empty 0 -8 0 12
-245500 -1 -1 0 256;
#X obj 217 241 nbx 8 14 -1e+37 1e+37 0 0 empty empty empty 0 -8 0 12
-245500 -1 -1 0 256;
#X obj 181 158 bng 20 250 50 0 empty empty empty 17 7 0 10 -228856
-1 -1;
#X text 123 100 Use the [asinh] object to calculate and output the
hyperbolic arc-sine of any given number.;
#X text 112 403 1) Float -;
#X text 108 364 float;
#X text 110 282 float;
#X text 115 315 bang;
#X text 171 282 - Input to hyperbolic arc-sine function \, this value
is stored;
#X text 171 315 - Calculates the hyperbolic arc-sine of the number
currently stored.;
#X text 186 403 initially stored input value (default 0).;
#X obj 217 199 cyclone/asinh;
#X connect 13 0 24 0;
#X connect 15 0 24 0;
#X connect 24 0 14 0;
