#N canvas 478 23 566 702 10;
#X obj 7 652 cnv 15 552 21 empty empty empty 20 12 0 14 -233017 -33289
0;
#X obj 7 479 cnv 3 550 3 empty empty inlets 8 12 0 13 -228856 -1 0
;
#N canvas 431 386 390 256 META 0;
#X text 1 20 LICENSE SIBSD;
#X text 1 100 LIBRARY cyclone;
#X text 1 80 OUTLET_0 float;
#X text 1 40 DESCRIPTION computes the average value of signal;
#X text 1 60 INLET_0 signal bang;
#X text 1 0 KEYWORDS average mean signal;
#X text 0 121 VERSION 0.2-beta1;
#X text 0 139 AUTHOR Krzysztof Czaja;
#X text 1 157 RELEASE_DATE 2002;
#X text 2 176 WEBSITE http://suita.chopin.edu.pl/~czaja/miXed/externs/cyclone.html
;
#X text 2 208 HELP_PATCH_AUTHORS Christoph Kummerer. Revised by Jonathan
Wilkes for Pd-extended 0.42 to conform to the PDDP template. Alex Cleveland
updated this patch for Pd-l2ork version 2013.05.28. Fred Jan Kraan
adapted the patch to pd-extended 2015-02-02;
#X restore 502 654 pd META;
#X obj 7 554 cnv 3 550 3 empty empty outlets 8 12 0 13 -228856 -1 0
;
#X obj 7 605 cnv 3 550 3 empty empty arguments 8 12 0 13 -228856 -1
0;
#N canvas 163 537 428 109 Related_objects 0;
#X obj 0 0 cnv 15 425 20 empty empty empty 3 12 0 14 -204280 -1 0;
#X text 6 1 Related Objects;
#X obj 8 32 cyclone/average~;
#X restore 215 654 pd Related_objects;
#X obj 84 569 cnv 17 3 17 empty empty 0 5 9 0 16 -228856 -162280 0
;
#X obj 7 36 cnv 15 552 40 empty empty avg~ 3 12 0 18 -204280 -1 0;
#X text 117 492 signal;
#X text 184 491 - the signal to have average taken;
#X text 117 568 float;
#X floatatom 246 297 0 0 0 0 - - -;
#X floatatom 297 216 0 0 0 0 - - -;
#X obj 246 188 tgl 25 0 empty empty empty 17 7 0 10 -228856 -1 -1 1
1;
#X msg 327 189 200;
#X msg 297 189 50;
#X text 118 513 bang;
#X text 184 513 - When average receives a bang \, it computes the mean
amplitude of its input signal since it last received a bang.;
#X text 184 559 - the average of signal. The mean amplitude is the
sum of the absolute values of the input divided by the number of samples
received.;
#X text 115 623 (none);
#X obj 524 44 avg~;
#X obj 84 495 cnv 17 3 35 empty empty 0 5 9 0 16 -228856 -162280 0
;
#X text 327 213 try different intervals to see;
#X text 327 225 the change in avg~ behavior;
#X obj 127 208 cycle~ 2;
#X obj 112 179 cycle~ 100;
#X obj 112 234 *~;
#X obj 246 272 cyclone/avg~;
#X text 64 97 Use the avg~ object to keep track of the average (absolute)
amplitude of the input signal received over a specified time interval.
;
#X text 18 59 Computes the absolute average value of signal;
#X obj 246 238 metro 200;
#X obj 246 331 vsl 30 124 -1 1 0 0 asflksjdf nthihjkdbvk empty 0 -9
0 10 -228856 -1 -1 8699 1;
#X text 280 446 -1;
#X text 285 384 0;
#X text 284 325 1;
#X obj 112 329 cyclone/Scope~ 130 130 256 3 128 -1 1 0 0 0 0 205 229
232 74 79 77 96 98 102 0;
#X obj 246 164 loadbang;
#N canvas 439 241 715 321 (subpatch) 0;
#X obj 51 51 cnv 15 552 28 empty empty Cyclone: 6 13 0 18 -128992 -233080
0;
#X obj 217 65 cnv 5 5 5 empty empty Library 0 0 0 12 -128992 -233080
0;
#X obj 275 65 cnv 5 5 5 empty empty of 0 0 0 12 -128992 -233080 0;
#X obj 298 64 cnv 5 5 5 empty empty objects 0 0 0 12 -128992 -233080
0;
#X obj 356 64 cnv 5 5 5 empty empty cloned 0 0 0 12 -128992 -233080
0;
#X obj 406 64 cnv 5 5 5 empty empty from 0 0 0 12 -128992 -233080 0
;
#X obj 444 64 cnv 5 5 5 empty empty Max/MSP 0 0 0 12 -128992 -233080
0;
#X coords 0 -1 1 1 554 30 1 50 50;
#X restore 7 2 pd;
#N canvas 673 40 366 264 (subpatch) 0;
#X obj 51 101 tgl 42 0 \$0-tgl-s \$0-tgl-r empty 1 8 1 9 -74965 -212593
-262144 1 1;
#X obj 215 68 route dsp;
#X obj 215 37 receive pd;
#N canvas 939 367 324 271 set_color 0;
#X obj 47 30 inlet;
#X obj 96 146 s \$0-cnv;
#X msg 96 114 color -4.86997e+06 -1.34937e+07;
#N canvas 0 22 712 637 off 0;
#X obj 490 220 * -1;
#X obj 424 300 +;
#X obj 409 325 +;
#X obj 347 219 * -65536;
#X obj 424 220 * -256;
#X obj 409 356 - 1;
#X obj 390 189 unpack f f f;
#X obj 225 295 +;
#X obj 210 320 +;
#X obj 148 214 * -65536;
#X obj 225 215 * -256;
#X obj 291 215 * -1;
#X obj 210 351 - 1;
#X obj 191 184 unpack f f f;
#X obj 379 423 pack;
#X msg 378 447 color \$1 \$2;
#X msg 395 152 124 124 124;
#X msg 203 154 220 220 220;
#X obj 238 121 t b b;
#X obj 238 81 inlet;
#X obj 378 485 outlet;
#X connect 0 0 1 1;
#X connect 1 0 2 1;
#X connect 2 0 5 0;
#X connect 3 0 2 0;
#X connect 4 0 1 0;
#X connect 5 0 14 1;
#X connect 6 0 3 0;
#X connect 6 1 4 0;
#X connect 6 2 0 0;
#X connect 7 0 8 1;
#X connect 8 0 12 0;
#X connect 9 0 8 0;
#X connect 10 0 7 0;
#X connect 11 0 7 1;
#X connect 12 0 14 0;
#X connect 13 0 9 0;
#X connect 13 1 10 0;
#X connect 13 2 11 0;
#X connect 14 0 15 0;
#X connect 15 0 20 0;
#X connect 16 0 6 0;
#X connect 17 0 13 0;
#X connect 18 0 17 0;
#X connect 18 1 16 0;
#X connect 19 0 18 0;
#X restore 47 113 pd off;
#X obj 47 83 select 0 1;
#X obj 47 168 list append 0;
#X obj 47 195 list trim;
#X obj 47 220 s \$0-tgl-r;
#X connect 0 0 4 0;
#X connect 2 0 1 0;
#X connect 2 0 5 0;
#X connect 3 0 1 0;
#X connect 3 0 5 0;
#X connect 4 0 3 0;
#X connect 4 1 2 0;
#X connect 5 0 6 0;
#X connect 6 0 7 0;
#X restore 215 165 pd set_color;
#X obj 135 122 r \$0-tgl-s;
#N canvas 0 22 450 300 (subpatch) 0;
#X obj 101 101 cnv 25 40 25 empty \$0-cnv DSP 3 13 0 20 -74965 -212593
0;
#X coords 0 -1 1 1 42 27 1 100 100;
#X restore 51 144 pd;
#X obj 226 139 s \$0-tgl-r;
#X msg 226 115 set \$1;
#X msg 135 177 \; pd dsp \$1;
#N canvas 256 32 278 194 load_check 0;
#X obj 136 53 sig~ 1;
#X obj 74 24 loadbang;
#X obj 136 86 snapshot~;
#X obj 91 52 del 5;
#X obj 136 151 outlet;
#X obj 74 103 tgl 15 0 empty empty empty 17 7 0 10 -262144 -1 -1 0
1;
#X obj 74 126 switch~;
#X connect 0 0 2 0;
#X connect 1 0 3 0;
#X connect 1 0 5 0;
#X connect 2 0 4 0;
#X connect 3 0 2 0;
#X connect 3 0 5 0;
#X connect 5 0 6 0;
#X restore 51 72 pd load_check;
#X connect 1 0 3 0;
#X connect 1 0 7 0;
#X connect 2 0 1 0;
#X connect 4 0 8 0;
#X connect 4 0 3 0;
#X connect 7 0 6 0;
#X connect 9 0 0 0;
#X coords 0 -1 1 1 44 72 2 50 100;
#X restore 503 91 pd;
#X connect 11 0 31 0;
#X connect 12 0 30 1;
#X connect 13 0 30 0;
#X connect 14 0 12 0;
#X connect 15 0 12 0;
#X connect 24 0 26 1;
#X connect 25 0 26 0;
#X connect 26 0 27 0;
#X connect 26 0 35 0;
#X connect 27 0 11 0;
#X connect 30 0 27 0;
#X connect 36 0 13 0;
