#N canvas 191 343 517 216 10;
#X obj 55 41 inlet~;
#X obj 55 149 outlet~;
#X obj 121 41 inlet~;
#X obj 163 41 inlet~;
#X obj 206 41 inlet~;
#X obj 249 41 inlet~;
#X obj 292 41 inlet~;
#X obj 55 96 fexpr~ $x2[0]*$x1[0] + $x3[0]*$x1[-1] + $x4[0]*$x1[-2]
- $x5[0]*$y1[-1] - $x6[0]*$y1[-2];
#X text 112 149 y[0] = a0*x[0] + a1*x[-1] + a2*x[-2] - b1*y[-1] - b2*y[-2]
;
#X connect 0 0 7 0;
#X connect 2 0 7 1;
#X connect 3 0 7 2;
#X connect 4 0 7 3;
#X connect 5 0 7 4;
#X connect 6 0 7 5;
#X connect 7 0 1 0;
