#N canvas 735 23 562 807 10;
#X obj 3 758 cnv 15 552 21 empty empty empty 20 12 0 14 -233017 -33289
0;
#X obj 5 447 cnv 3 550 3 empty empty inlets 8 12 0 13 -228856 -1 0
;
#N canvas 552 276 413 321 META 0;
#X text 0 20 LICENSE SIBSD;
#X text 0 180 LIBRARY cyclone;
#X text 0 160 OUTLET_0 signal;
#X text 0 0 KEYWORDS signal comb filter buffer delay;
#X text 0 40 DESCRIPTION comb filter;
#X text 0 60 INLET_0 signal list message;
#X text 0 80 INLET_0 float signal;
#X text 0 100 INLET_0 float signal;
#X text 0 120 INLET_0 float signal;
#X text 0 140 INLET_0 float signal;
#X text 0 200 VERSION 0.2-beta1;
#X text 0 218 AUTHOR Krzysztof Czaja;
#X text 1 236 RELEASE_DATE 2002;
#X text 2 255 WEBSITE http://suita.chopin.edu.pl/~czaja/miXed/externs/cyclone.html
;
#X text 2 287 HELP_PATCH_AUTHORS Christoph Kummerer. Revised by Jonathan
Wilkes for Pd-extended 0.42 to conform to the PDDP template. Alex Cleveland
updated this patch for Pd-l2ork version 2013.05.28. Fred Jan Kraan
adapted the patch to pd-extended 2015-02-02;
#X restore 503 760 pd META;
#X obj 5 618 cnv 3 550 3 empty empty outlets 8 12 0 13 -228856 -1 0
;
#X obj 5 655 cnv 3 550 3 empty empty arguments 8 12 0 13 -228856 -1
0;
#N canvas 310 489 428 109 Related_objects 0;
#X obj 0 0 cnv 15 425 20 empty empty empty 3 12 0 14 -204280 -1 0;
#X text 6 1 Related Objects;
#X obj 9 30 buffir~;
#X restore 209 760 pd Related_objects;
#X obj 83 457 cnv 17 3 55 empty empty 0 5 9 0 16 -228856 -162280 0
;
#X obj 83 520 cnv 17 3 17 empty empty 1 5 9 0 16 -228856 -162280 0
;
#X obj 4 44 cnv 15 552 40 empty empty comb~ 3 12 0 18 -204280 -1 0
;
#X obj 114 142 tgl 15 0 empty empty empty 0 -6 0 8 -228856 -1 -1 1
1;
#X floatatom 170 238 5 0 100 0 - - -, f 5;
#X floatatom 226 237 5 0 100 0 - - -, f 5;
#X floatatom 282 237 5 0 0 0 - - -, f 5;
#X floatatom 339 238 5 0 0 0 - - -, f 5;
#X msg 62 213 clear;
#X text 116 455 signal;
#X text 228 455 - signal to pass through comb filter;
#X obj 83 542 cnv 17 3 17 empty empty 2 5 9 0 16 -228856 -162280 0
;
#X obj 83 585 cnv 17 3 17 empty empty 4 5 9 0 16 -228856 -162280 0
;
#X obj 83 626 cnv 17 3 17 empty empty 0 5 9 0 16 -228856 -162280 0
;
#X text 116 585 float or signal;
#X obj 83 564 cnv 17 3 17 empty empty 3 5 9 0 16 -228856 -162280 0
;
#X obj 83 564 cnv 17 3 17 empty empty 3 5 9 0 16 -228856 -162280 0
;
#X text 116 625 signal;
#X text 228 626 - output from comb filter;
#X text 116 663 1) float;
#X text 116 680 2) float;
#X text 116 697 3) float;
#X text 116 714 4) float;
#X obj 514 59 comb~;
#X text 116 476 list;
#X obj 96 309 output~;
#X text 214 234 a;
#X text 268 235 b;
#X text 328 234 c;
#X text 130 187 D;
#X text 149 187 a;
#X text 172 188 b;
#X text 198 182 c;
#X msg 126 207 10 0.4 0.7 0.6;
#X text 116 729 5) float;
#X text 228 729 - c = feedback gain coefficient;
#X text 228 714 - b = feedforward gain coefficient;
#X text 228 697 - a = gain coefficient;
#X obj 232 314 cnv 15 270 120 empty empty empty 20 12 0 14 -233017
-66577 0;
#X text 279 327 |;
#X text 279 339 |;
#X text 279 351 |;
#X text 260 362 |;
#X text 302 362 |;
#X text 302 382 |;
#X text 260 382 |;
#X text 263 353 _______;
#X text 263 382 _______;
#X text 279 354 v;
#X text 341 354 |;
#X text 341 365 |;
#X text 341 335 |;
#X text 341 344 |;
#X text 341 330 ^;
#X text 425 328 |;
#X text 425 340 |;
#X text 425 352 |;
#X text 406 363 |;
#X text 448 363 |;
#X text 448 383 |;
#X text 406 383 |;
#X text 409 354 _______;
#X text 409 383 _______;
#X text 425 355 v;
#X text 371 356 |;
#X text 371 366 |;
#X text 371 334 |;
#X text 371 344 |;
#X text 371 329 ^;
#X text 448 320 >;
#X text 308 371 -(*b)-;
#X text 372 372 -(*c)-;
#X text 239 321 x[n] -----(*a)--(+)--(+)----------- y[n];
#X text 156 237 D;
#X text 260 372 | z^-D |;
#X text 241 406 y[n] = a * x[n] + b * x[n-D] + c * y[n-D];
#X text 228 680 - D = delay time in ms;
#X text 116 496 clear message;
#X text 228 496 - clears buffer;
#X text 228 476 - sets arguments for filter (D \, a \, b \, c);
#X text 116 520 float/signal;
#X text 116 542 float/signal;
#X text 116 564 float/signal;
#X obj 229 154 hsl 128 15 -1 1 0 0 empty empty empty -2 -8 0 10 -228856
-1 -1 0 1;
#X obj 114 266 cyclone/comb~ 100 10.5 0.25 0.33 0.925;
#X obj 247 177 hsl 128 15 -1 1 0 0 empty empty empty -2 -8 0 10 -228856
-1 -1 0 1;
#X obj 294 199 hsl 128 15 -1 1 0 0 empty empty empty -2 -8 0 10 -228856
-1 -1 0 1;
#X text 307 197 feedback (c);
#X text 274 177 feedforward (b);
#X text 276 152 gain (a);
#X text 406 373 | z^-D |;
#X text 16 67 A comb filter;
#X text 228 520 - D = delay time in ms;
#X text 228 542 - a = gain coefficient;
#X text 228 564 - b = feedforward gain coefficient;
#X text 228 585 - c = feedback gain coefficient;
#X text 392 292 Filter equation:;
#X text 92 411 c - feedback coef;
#X text 92 396 b - feedforward coef;
#X text 92 382 a - gain coef;
#X text 92 369 D - delay time;
#X text 228 665 - Maximum delay time in ms (default 10 ms);
#X obj 114 119 loadbang;
#X text 15 93 Use [comb~] for comb filtering and delay effects.;
#N canvas 1 107 290 283 noise-bursts 0;
#X obj 72 181 noise~;
#X obj 119 180 line~;
#X obj 103 211 *~;
#X obj 119 81 metro 300;
#X msg 67 140 0 20;
#X msg 119 120 1 10;
#X obj 68 120 del 20;
#X obj 119 51 inlet;
#X obj 103 244 outlet~;
#X obj 2 0 cnv 15 425 20 empty empty empty 3 12 0 14 -204280 -1 0;
#X text 7 1 Generate noise bursts;
#X connect 0 0 2 0;
#X connect 1 0 2 1;
#X connect 2 0 8 0;
#X connect 3 0 5 0;
#X connect 3 0 6 0;
#X connect 4 0 1 0;
#X connect 5 0 1 0;
#X connect 6 0 4 0;
#X connect 7 0 3 0;
#X restore 114 166 pd noise-bursts;
#N canvas 439 241 715 321 (subpatch) 0;
#X obj 51 51 cnv 15 552 28 empty empty Cyclone: 6 13 0 18 -128992 -233080
0;
#X obj 217 65 cnv 5 5 5 empty empty Library 0 0 0 12 -128992 -233080
0;
#X obj 275 65 cnv 5 5 5 empty empty of 0 0 0 12 -128992 -233080 0;
#X obj 298 64 cnv 5 5 5 empty empty objects 0 0 0 12 -128992 -233080
0;
#X obj 356 64 cnv 5 5 5 empty empty cloned 0 0 0 12 -128992 -233080
0;
#X obj 406 64 cnv 5 5 5 empty empty from 0 0 0 12 -128992 -233080 0
;
#X obj 444 64 cnv 5 5 5 empty empty Max/MSP 0 0 0 12 -128992 -233080
0;
#X coords 0 -1 1 1 554 30 1 50 50;
#X restore 3 8 pd;
#X connect 9 0 110 0;
#X connect 10 0 90 1;
#X connect 11 0 90 2;
#X connect 12 0 90 3;
#X connect 13 0 90 4;
#X connect 14 0 90 0;
#X connect 39 0 90 0;
#X connect 89 0 11 0;
#X connect 90 0 31 0;
#X connect 90 0 31 1;
#X connect 91 0 12 0;
#X connect 92 0 13 0;
#X connect 108 0 9 0;
#X connect 110 0 90 0;
