#N canvas 62 339 668 255 10;
#X obj 65 29 inlet~;
#X obj 65 177 outlet~;
#X obj 308 31 inlet~;
#X text 303 12 samples;
#X text 326 115 sample and hold triggered by impulse oscillator;
#X text 326 141 wrapped phase;
#X text 326 128 unwrapped phase;
#X text 399 89 phase step;
#X obj 308 90 expr~ 1 / $v1;
#X obj 308 59 max~ 1;
#X obj 65 116 fexpr~ if($y2[-1] >= 1 \, $x1[0] \, $y1[-1]) \; $x2[0]
+ $y3[-1] \; fmod($x2[0] + $y3[-1] \, 1);
#X connect 0 0 10 0;
#X connect 2 0 9 0;
#X connect 8 0 10 1;
#X connect 9 0 8 0;
#X connect 10 0 1 0;
