#N canvas 50 411 430 408 10;
#X obj 50 95 tgl 30 0 THIS_IS_HERE_TO_GET_RID_OF_THE_OUTLET \$0-dsp-toggle
dsp 2 9 1 17 -262144 -195568 -33289 0 1;
#N canvas 436 649 433 356 dsp 0;
#X obj 70 31 inlet;
#X obj 151 250 select 0 1;
#X msg 184 275 6;
#X obj 151 87 route dsp;
#X obj 151 60 receive pd;
#X msg 70 251 dsp \$1;
#X obj 70 276 send pd;
#X msg 265 302 set \$1;
#X msg 151 302 color \$1 20 12;
#X obj 265 333 send \$0-dsp-toggle;
#X msg 151 274 0;
#X obj 285 130 loadbang;
#X obj 265 100 sig~ 1;
#X obj 265 192 snapshot~;
#X obj 285 159 delay 100;
#X obj 151 139 change -1;
#X obj 3 3 cnv 15 425 20 empty empty empty 3 12 0 14 -204280 -1 0;
#X text 7 4 Retrieve and set DSP state;
#X connect 0 0 5 0;
#X connect 0 0 15 0;
#X connect 1 0 10 0;
#X connect 1 1 2 0;
#X connect 2 0 8 0;
#X connect 3 0 15 0;
#X connect 4 0 3 0;
#X connect 5 0 6 0;
#X connect 7 0 9 0;
#X connect 8 0 9 0;
#X connect 10 0 8 0;
#X connect 11 0 14 0;
#X connect 12 0 13 0;
#X connect 13 0 1 0;
#X connect 13 0 7 0;
#X connect 14 0 13 0;
#X connect 15 0 7 0;
#X connect 15 0 1 0;
#X restore 82 158 pd dsp logic;
#X obj 2 2 cnv 15 425 20 empty empty empty 3 12 0 14 -204280 -1 0;
#X text 7 3 DSP switch abstraction;
#X text 20 355 Derived from output~.pd created by Katja Vetter after
an idea by Claude Heiland-Allen;
#X connect 0 0 1 0;
#X coords 0 0 1 1 30 30 2 50 95;
