#N canvas 706 191 420 244 10;
#X declare -lib nettles;
#X obj 173 77 declare -lib nettles;
#X obj 88 43 inlet~;
#X obj 149 42 inlet~;
#X obj 116 111 outlet~;
#X obj 116 78 ==~;
#X text 43 158 this is an abstraction and alias of [==~];
#X text 44 177 to understand how to load the object version \, check
help file;
#X connect 1 0 4 0;
#X connect 2 0 4 1;
#X connect 4 0 3 0;
