#N canvas 625 105 567 676 10;
#X obj 5 633 cnv 15 552 21 empty empty empty 20 12 0 14 -233017 -33289
0;
#X obj 5 489 cnv 3 550 3 empty empty inlets 8 12 0 13 -228856 -1 0
;
#N canvas 589 162 378 222 META 0;
#X text 0 20 LICENSE SIBSD;
#X text 0 100 LIBRARY cyclone;
#X text 0 60 INLET_0 signal;
#X text 0 80 OUTLET_0 signal;
#X text 0 0 KEYWORDS signal interpolation playback sample;
#X text 0 40 DESCRIPTION sample playback without interpolation;
#X text 0 120 VERSION 0.2-beta1;
#X text 0 138 AUTHOR Krzysztof Czaja;
#X text 1 156 RELEASE_DATE 2002;
#X text 2 175 WEBSITE http://suita.chopin.edu.pl/~czaja/miXed/externs/cyclone.html
;
#X text 2 207 HELP_PATCH_AUTHORS Christoph Kummerer. Revised by Jonathan
Wilkes for Pd-extended 0.42 to conform to the PDDP template. Alex Cleveland
updated this patch for Pd-l2ork version 2013.05.28. Fred Jan Kraan
adapted the patch to pd-extended 2015-02-02;
#X restore 508 635 pd META;
#X obj 5 554 cnv 3 550 3 empty empty outlets 8 12 0 13 -228856 -1 0
;
#X obj 5 591 cnv 3 550 3 empty empty arguments 8 12 0 13 -228856 -1
0;
#N canvas 301 275 428 109 Related_objects 0;
#X obj 0 0 cnv 15 425 20 empty empty empty 3 12 0 14 -204280 -1 0;
#X text 6 1 Related Objects;
#X restore 202 635 pd Related_objects;
#X obj 101 499 cnv 17 3 17 empty empty 0 5 9 0 16 -228856 -162280 0
;
#X obj 101 564 cnv 17 3 17 empty empty 0 5 9 0 16 -228856 -162280 0
;
#X obj 5 40 cnv 15 552 40 empty empty index~ 3 12 0 18 -204280 -1 0
;
#X obj 507 42 index~;
#X text 126 498 signal;
#X text 126 563 signal;
#X text 193 563 - signal without interpolation;
#X obj 101 524 cnv 17 3 17 empty empty 1 5 9 0 16 -228856 -162280 0
;
#X text 126 523 float;
#X obj 101 422 output~;
#X text 17 63 read from an array without interpolation;
#X text 110 602 1) symbol;
#X text 193 602 - name of array;
#X obj 276 334 line~;
#X text 379 301 backwards;
#X obj 124 378 index~ \$0-voice;
#X text 193 523 - channel number (not implemented yet);
#X msg 124 269 bang;
#X msg 134 292 stop;
#X obj 124 321 cyclone/count~ 0 62078;
#X msg 276 278 0 \, 62078 1407;
#X msg 290 303 62078 \, 0 1407;
#X text 364 277 forwards;
#X text 97 109 Use [index~] to read an array with no interpolation.
Unlike [peek~] is specified as a signal \, not a float. It is very
similar to pd vanilla's [tabread~].;
#X text 193 498 - index to read the array;
#X text 97 159 since the index~ object does no interpolation \, it
is less useful for general sample playback tasks than other objects
such as [play~] and [tabread4~] \, such as playing in different speeds.
That's why using [count~] is very convenient and accurate.;
#X obj 242 411 soundfiler;
#X obj 323 411 table \$0-voice;
#X obj 242 386 cyclone/loadmess read -resize voice.wav \$0-voice;
#N canvas 439 241 715 321 (subpatch) 0;
#X obj 51 51 cnv 15 552 28 empty empty Cyclone: 6 13 0 18 -128992 -233080
0;
#X obj 217 65 cnv 5 5 5 empty empty Library 0 0 0 12 -128992 -233080
0;
#X obj 275 65 cnv 5 5 5 empty empty of 0 0 0 12 -128992 -233080 0;
#X obj 298 64 cnv 5 5 5 empty empty objects 0 0 0 12 -128992 -233080
0;
#X obj 356 64 cnv 5 5 5 empty empty cloned 0 0 0 12 -128992 -233080
0;
#X obj 406 64 cnv 5 5 5 empty empty from 0 0 0 12 -128992 -233080 0
;
#X obj 444 64 cnv 5 5 5 empty empty Max/MSP 0 0 0 12 -128992 -233080
0;
#X coords 0 -1 1 1 554 30 1 50 50;
#X restore 4 6 pd;
#X connect 19 0 21 0;
#X connect 21 0 15 1;
#X connect 21 0 15 0;
#X connect 23 0 25 0;
#X connect 24 0 25 0;
#X connect 25 0 21 0;
#X connect 26 0 19 0;
#X connect 27 0 19 0;
#X connect 34 0 32 0;
