#N canvas 509 23 565 773 10;
#X obj 6 732 cnv 15 552 21 empty empty empty 20 12 0 14 -233017 -33289
0;
#X obj 6 406 cnv 3 550 3 empty empty inlets 8 12 0 13 -228856 -1 0
;
#N canvas 608 337 360 272 META 0;
#X text 0 20 LICENSE SIBSD;
#X text 0 140 LIBRARY cyclone;
#X text 0 120 OUTLET_0 signal;
#X text 0 0 KEYWORDS signal filter low-pass resonance;
#X text 0 40 DESCRIPTION low-pass filter with resonance;
#X text 0 100 INLET_2 signal float;
#X text 0 80 INLET_1 signal float;
#X text 0 60 INLET_0 signal;
#X text 0 161 VERSION 0.2-beta1;
#X text 0 179 AUTHOR Krzysztof Czaja;
#X text 1 197 RELEASE_DATE 2002;
#X text 2 216 WEBSITE http://suita.chopin.edu.pl/~czaja/miXed/externs/cyclone.html
;
#X text 2 248 HELP_PATCH_AUTHORS Christoph Kummerer. Revised by Jonathan
Wilkes for Pd-extended 0.42 to conform to the PDDP template. Alex Cleveland
updated this patch for Pd-l2ork version 2013.05.28. Fred Jan Kraan
adapted the patch to pd-extended 2015-02-02;
#X restore 511 734 pd META;
#X obj 6 518 cnv 3 550 3 empty empty outlets 8 12 0 13 -228856 -1 0
;
#X obj 6 555 cnv 3 550 3 empty empty arguments 8 12 0 13 -228856 -1
0;
#X obj 6 634 cnv 3 550 3 empty empty more_info 8 12 0 13 -228856 -1
0;
#N canvas 310 494 428 109 Related_objects 0;
#X obj 0 0 cnv 15 425 20 empty empty empty 3 12 0 14 -204280 -1 0;
#X text 6 1 Related Objects;
#X restore 214 734 pd Related_objects;
#X obj 85 420 cnv 17 3 35 empty empty 0 5 9 0 16 -228856 -162280 0
;
#X obj 85 464 cnv 17 3 17 empty empty 1 5 9 0 16 -228856 -162280 0
;
#X obj 6 40 cnv 15 552 40 empty empty lores~ 3 12 0 18 -204280 -1 0
;
#X obj 509 47 lores~;
#X obj 119 208 phasor~ 150;
#X text 153 420 signal;
#X obj 85 488 cnv 17 3 17 empty empty 2 5 9 0 16 -228856 -162280 0
;
#X obj 85 528 cnv 17 3 17 empty empty 0 5 9 0 16 -228856 -162280 0
;
#X text 155 528 signal;
#X text 143 567 1) float;
#X text 143 587 2) float;
#X obj 157 330 output~;
#X text 118 464 float/signal;
#X text 209 463 - cutoff frequency;
#X text 118 489 float/signal;
#X text 210 488 - resonance;
#X obj 119 239 triangle~ 0;
#X text 18 63 Low-pass resonant filter;
#X obj 318 283 line~;
#X msg 318 258 \$1 100;
#X obj 222 250 +~ 1000;
#X obj 321 215 hsl 128 15 0 1 0 0 empty empty empty -2 -8 0 10 -228856
-1 -1 10100 1;
#X floatatom 318 235 5 0 0 0 - - -, f 5;
#X obj 222 226 *~ 750;
#X obj 222 197 osc~ 1;
#X text 342 215 resonance (0-1);
#X text 130 185 input;
#X text 160 442 clear;
#X text 133 691 Since it is a recursive filter \, you may need to use
the "clear" message if it blows up.;
#X text 132 643 The equation of the filter is <yn = scale * xn - c1
* yn-1 + c2 * yn-2> \, where scale \, c1 \, and c2 are parameters calculated
from the cutoff frequency and resonance factor.;
#X text 221 175 LFO (filter sweep);
#X text 99 89 [lores~] implements an inexpensive resonant lowpass filter.
The first argument or middle inlet sets the cutoff frequency \, and
the resonance is set by the second argument or the right inlet. Below
\, we use a LFO to control the cutoff \, resulting in a filter sweep
effect.;
#X text 210 440 - clears the buffer and resets the filter;
#N canvas 439 241 715 321 (subpatch) 0;
#X obj 51 51 cnv 15 552 28 empty empty Cyclone: 6 13 0 18 -128992 -233080
0;
#X obj 217 65 cnv 5 5 5 empty empty Library 0 0 0 12 -128992 -233080
0;
#X obj 275 65 cnv 5 5 5 empty empty of 0 0 0 12 -128992 -233080 0;
#X obj 298 64 cnv 5 5 5 empty empty objects 0 0 0 12 -128992 -233080
0;
#X obj 356 64 cnv 5 5 5 empty empty cloned 0 0 0 12 -128992 -233080
0;
#X obj 406 64 cnv 5 5 5 empty empty from 0 0 0 12 -128992 -233080 0
;
#X obj 444 64 cnv 5 5 5 empty empty Max/MSP 0 0 0 12 -128992 -233080
0;
#X coords 0 -1 1 1 554 30 1 50 50;
#X restore 5 5 pd;
#X text 209 420 - signal to be filtered;
#X text 211 527 - output of filter;
#X obj 182 289 cyclone/lores~;
#X text 212 569 - cutoff frequency (default 0);
#X text 212 587 - resonance (default 0): minimum is 0 (a little bit
sharp) and maximum is 1 (as sharp as possible).;
#X connect 11 0 23 0;
#X connect 23 0 43 0;
#X connect 25 0 43 2;
#X connect 26 0 25 0;
#X connect 27 0 43 1;
#X connect 28 0 29 0;
#X connect 29 0 26 0;
#X connect 30 0 27 0;
#X connect 31 0 30 0;
#X connect 43 0 18 0;
#X connect 43 0 18 1;
