#N canvas 783 163 482 621 10;
#X obj 223 157 inlet~;
#X obj 208 458 *~;
#X text 251 135 audio in;
#X obj 275 157 inlet~;
#X obj 260 457 *~;
#X obj 223 249 hip~ 3;
#X obj 275 248 hip~ 3;
#X obj 386 393 block~ 64;
#X obj 97 329 line~;
#X obj 97 361 *~;
#X obj 97 389 *~;
#X obj 329 155 inlet;
#X obj 322 543 outlet;
#X obj 260 544 outlet~;
#X obj 208 543 outlet~;
#X obj 322 475 r \$0-slider;
#N canvas 269 608 373 245 set_GUI 0;
#X obj 66 178 s \$0-set-slider;
#X obj 98 38 inlet;
#X obj 66 144 clip 0 1;
#X obj 129 145 s \$0-dsp-toggle-set;
#X obj 191 118 s \$0-mute-set;
#X msg 157 118 0;
#X msg 129 115 1;
#X obj 98 72 route float on off mute dac;
#X obj 225 95 s \$0-dac;
#X connect 1 0 7 0;
#X connect 2 0 0 0;
#X connect 5 0 3 0;
#X connect 6 0 3 0;
#X connect 7 0 2 0;
#X connect 7 1 6 0;
#X connect 7 2 5 0;
#X connect 7 3 4 0;
#X connect 7 4 8 0;
#X restore 329 206 pd set_GUI;
#N canvas 244 23 407 422 Gui_control 0;
#X msg 242 154 0;
#X obj 173 372 outlet;
#X msg 34 283 \; pd dsp 1;
#X obj 61 97 value slider_\$0;
#X obj 62 199 value slider_\$0;
#X obj 270 220 value slider_\$0;
#X msg 62 229 \$1 10;
#X obj 242 126 select 0 1;
#N canvas 551 397 404 450 DSP_state 0;
#X obj 274 195 route dsp;
#X obj 274 168 receive pd;
#N canvas 0 22 560 312 set_GUI 0;
#X msg 187 138 set \$1;
#N canvas 555 532 635 266 set_color 0;
#X obj 47 30 inlet;
#N canvas 0 22 712 637 off 0;
#X obj 490 220 * -1;
#X obj 424 300 +;
#X obj 409 325 +;
#X obj 347 219 * -65536;
#X obj 424 220 * -256;
#X obj 409 356 - 1;
#X obj 390 189 unpack f f f;
#X obj 225 295 +;
#X obj 210 320 +;
#X obj 148 214 * -65536;
#X obj 225 215 * -256;
#X obj 291 215 * -1;
#X obj 210 351 - 1;
#X obj 191 184 unpack f f f;
#X obj 379 423 pack;
#X msg 395 152 124 124 124;
#X msg 203 154 220 220 220;
#X obj 238 121 t b b;
#X obj 238 81 inlet;
#X obj 378 485 outlet;
#X msg 378 447 color \$1 \$2 0;
#X connect 0 0 1 1;
#X connect 1 0 2 1;
#X connect 2 0 5 0;
#X connect 3 0 2 0;
#X connect 4 0 1 0;
#X connect 5 0 14 1;
#X connect 6 0 3 0;
#X connect 6 1 4 0;
#X connect 6 2 0 0;
#X connect 7 0 8 1;
#X connect 8 0 12 0;
#X connect 9 0 8 0;
#X connect 10 0 7 0;
#X connect 11 0 7 1;
#X connect 12 0 14 0;
#X connect 13 0 9 0;
#X connect 13 1 10 0;
#X connect 13 2 11 0;
#X connect 14 0 20 0;
#X connect 15 0 6 0;
#X connect 16 0 13 0;
#X connect 17 0 16 0;
#X connect 17 1 15 0;
#X connect 18 0 17 0;
#X connect 20 0 19 0;
#X restore 47 113 pd off;
#X obj 47 83 select 0 1;
#X obj 96 160 send \$0-dsp-toggle-set;
#N canvas 0 22 712 637 off 0;
#X obj 490 220 * -1;
#X obj 424 300 +;
#X obj 409 325 +;
#X obj 347 219 * -65536;
#X obj 424 220 * -256;
#X obj 409 356 - 1;
#X obj 390 189 unpack f f f;
#X obj 225 295 +;
#X obj 210 320 +;
#X obj 148 214 * -65536;
#X obj 225 215 * -256;
#X obj 291 215 * -1;
#X obj 210 351 - 1;
#X obj 191 184 unpack f f f;
#X obj 379 423 pack;
#X msg 378 447 color \$1 \$2;
#X msg 203 154 220 220 220;
#X obj 238 121 t b b;
#X obj 238 81 inlet;
#X obj 378 485 outlet;
#X msg 395 152 88 88 84;
#X connect 0 0 1 1;
#X connect 1 0 2 1;
#X connect 2 0 5 0;
#X connect 3 0 2 0;
#X connect 4 0 1 0;
#X connect 5 0 14 1;
#X connect 6 0 3 0;
#X connect 6 1 4 0;
#X connect 6 2 0 0;
#X connect 7 0 8 1;
#X connect 8 0 12 0;
#X connect 9 0 8 0;
#X connect 10 0 7 0;
#X connect 11 0 7 1;
#X connect 12 0 14 0;
#X connect 13 0 9 0;
#X connect 13 1 10 0;
#X connect 13 2 11 0;
#X connect 14 0 15 0;
#X connect 15 0 19 0;
#X connect 16 0 13 0;
#X connect 17 0 16 0;
#X connect 17 1 20 0;
#X connect 18 0 17 0;
#X connect 20 0 6 0;
#X restore 346 138 pd off;
#X obj 346 108 select 0 1;
#X obj 403 171 s \$0-cnv_dsp;
#X msg 427 78 color -8.15833e+06 -1.34937e+07;
#X msg 96 114 color -4.86997e+06 -1.34937e+07 0;
#X text 456 59 velho;
#X msg 447 107 color -8.15833e+06 0;
#N canvas 253 23 385 507 on 0;
#X obj 231 177 * -1;
#X obj 165 257 +;
#X obj 150 282 +;
#X obj 88 176 * -65536;
#X obj 165 177 * -256;
#X obj 150 313 - 1;
#X obj 131 146 unpack f f f;
#X obj 136 58 inlet;
#X obj 149 395 outlet;
#X msg 146 355 color -8.15833e+06 \$1;
#X msg 136 109 244 244 244;
#X connect 0 0 1 1;
#X connect 1 0 2 1;
#X connect 2 0 5 0;
#X connect 3 0 2 0;
#X connect 4 0 1 0;
#X connect 5 0 9 0;
#X connect 6 0 3 0;
#X connect 6 1 4 0;
#X connect 6 2 0 0;
#X connect 7 0 10 0;
#X connect 9 0 8 0;
#X connect 10 0 6 0;
#X restore 404 138 pd on;
#X connect 0 0 2 0;
#X connect 0 0 5 0;
#X connect 1 0 3 0;
#X connect 2 0 1 0;
#X connect 2 1 8 0;
#X connect 4 0 6 0;
#X connect 5 0 4 0;
#X connect 5 1 11 0;
#X connect 8 0 3 0;
#X restore 93 159 pd set_color;
#X obj 187 99 inlet;
#X obj 187 169 send \$0-dsp-toggle-set;
#X connect 0 0 3 0;
#X connect 2 0 0 0;
#X connect 2 0 1 0;
#X restore 257 271 pd set_GUI;
#N canvas 116 23 288 228 dsp_check 0;
#X obj 168 45 loadbang;
#X obj 59 60 sig~ 1;
#X obj 59 119 snapshot~;
#X obj 149 143 switch~;
#X msg 168 117 1;
#X msg 135 117 0;
#X obj 108 85 delay 5;
#X obj 59 149 outlet;
#X connect 0 0 4 0;
#X connect 0 0 6 0;
#X connect 1 0 2 0;
#X connect 2 0 7 0;
#X connect 4 0 3 0;
#X connect 5 0 3 0;
#X connect 6 0 2 0;
#X connect 6 0 5 0;
#X restore 261 144 pd dsp_check;
#X obj 233 40 inlet;
#X obj 190 363 outlet;
#X obj 233 70 sel 0 1;
#X msg 252 104 \; pd dsp 1;
#X msg 257 240 0;
#X msg 139 198 set 0;
#X msg 112 233 \; pd dsp 0;
#X obj 112 172 t b b;
#X obj 58 363 outlet;
#X obj 73 300 value dsp_state_\$0;
#X msg 58 141 0;
#X obj 58 329 b;
#X msg 190 171 1;
#X obj 112 147 delay 50;
#X obj 190 240 change -1;
#X connect 0 0 18 0;
#X connect 1 0 0 0;
#X connect 3 0 18 0;
#X connect 4 0 6 0;
#X connect 6 0 8 0;
#X connect 6 0 14 0;
#X connect 6 0 17 0;
#X connect 6 1 7 0;
#X connect 6 1 16 0;
#X connect 8 0 2 0;
#X connect 9 0 18 0;
#X connect 11 0 10 0;
#X connect 11 1 9 0;
#X connect 14 0 13 0;
#X connect 14 0 15 0;
#X connect 15 0 12 0;
#X connect 16 0 18 0;
#X connect 17 0 11 0;
#X connect 18 0 2 0;
#X connect 18 0 5 0;
#X connect 18 0 13 0;
#X restore 173 63 pd DSP_state;
#X obj 34 133 value dsp_state_\$0;
#X obj 34 72 t b f;
#X obj 34 162 select 0 1;
#X obj 260 93 value dsp_state_\$0;
#X obj 34 38 receive \$0-slider;
#X obj 173 36 receive \$0-dsp-toggle;
#X msg 173 119 0 50;
#X msg 270 245 0 \, \$1 100;
#X connect 0 0 1 0;
#X connect 4 0 6 0;
#X connect 5 0 16 0;
#X connect 6 0 1 0;
#X connect 7 0 0 0;
#X connect 7 1 5 0;
#X connect 8 0 15 0;
#X connect 8 1 12 0;
#X connect 8 1 7 0;
#X connect 9 0 11 0;
#X connect 10 0 9 0;
#X connect 10 1 3 0;
#X connect 11 0 2 0;
#X connect 11 1 4 0;
#X connect 13 0 10 0;
#X connect 14 0 8 0;
#X connect 15 0 1 0;
#X connect 16 0 1 0;
#X restore 97 301 pd Gui_control;
#N canvas 438 181 450 300 GUI 0;
#X obj 103 116 hsl 86 20 0 1 0 0 \$0-slider \$0-set-slider volume 17
9 0 14 -228856 -1 -1 803 1;
#N canvas 151 252 418 301 mute 0;
#X obj 101 101 cnv 5 47 14 empty \$0-cnv_mute mute 18 6 0 12 -228856
-91542 0;
#X obj 100 100 tgl 16 0 \$0-mute \$0-mute-set empty 19 7 0 12 -228856
-128992 -262144 0 1;
#N canvas 610 237 712 637 off 0;
#X obj 490 220 * -1;
#X obj 424 300 +;
#X obj 409 325 +;
#X obj 347 219 * -65536;
#X obj 424 220 * -256;
#X obj 409 356 - 1;
#X obj 390 189 unpack f f f;
#X obj 225 295 +;
#X obj 210 320 +;
#X obj 148 214 * -65536;
#X obj 225 215 * -256;
#X obj 291 215 * -1;
#X obj 210 351 - 1;
#X obj 191 184 unpack f f f;
#X obj 379 423 pack;
#X msg 378 447 color \$1 \$2;
#X obj 238 121 t b b;
#X obj 238 81 inlet;
#X obj 378 485 outlet;
#X msg 395 152 88 88 84;
#X msg 203 154 220 220 220;
#X connect 0 0 1 1;
#X connect 1 0 2 1;
#X connect 2 0 5 0;
#X connect 3 0 2 0;
#X connect 4 0 1 0;
#X connect 5 0 14 1;
#X connect 6 0 3 0;
#X connect 6 1 4 0;
#X connect 6 2 0 0;
#X connect 7 0 8 1;
#X connect 8 0 12 0;
#X connect 9 0 8 0;
#X connect 10 0 7 0;
#X connect 11 0 7 1;
#X connect 12 0 14 0;
#X connect 13 0 9 0;
#X connect 13 1 10 0;
#X connect 13 2 11 0;
#X connect 14 0 15 0;
#X connect 15 0 18 0;
#X connect 16 0 20 0;
#X connect 16 1 19 0;
#X connect 17 0 16 0;
#X connect 19 0 6 0;
#X connect 20 0 13 0;
#X restore 100 174 pd off;
#X obj 100 144 select 0 1;
#X obj 147 207 s \$0-cnv_mute;
#N canvas 612 446 324 271 set_tgl_color 0;
#X obj 47 30 inlet;
#N canvas 0 22 712 637 off 0;
#X obj 490 220 * -1;
#X obj 424 300 +;
#X obj 409 325 +;
#X obj 347 219 * -65536;
#X obj 424 220 * -256;
#X obj 409 356 - 1;
#X obj 390 189 unpack f f f;
#X obj 225 295 +;
#X obj 210 320 +;
#X obj 148 214 * -65536;
#X obj 225 215 * -256;
#X obj 291 215 * -1;
#X obj 210 351 - 1;
#X obj 191 184 unpack f f f;
#X obj 379 423 pack;
#X msg 395 152 124 124 124;
#X msg 203 154 220 220 220;
#X obj 238 121 t b b;
#X obj 238 81 inlet;
#X obj 378 485 outlet;
#X msg 378 447 color \$1 \$2 0;
#X connect 0 0 1 1;
#X connect 1 0 2 1;
#X connect 2 0 5 0;
#X connect 3 0 2 0;
#X connect 4 0 1 0;
#X connect 5 0 14 1;
#X connect 6 0 3 0;
#X connect 6 1 4 0;
#X connect 6 2 0 0;
#X connect 7 0 8 1;
#X connect 8 0 12 0;
#X connect 9 0 8 0;
#X connect 10 0 7 0;
#X connect 11 0 7 1;
#X connect 12 0 14 0;
#X connect 13 0 9 0;
#X connect 13 1 10 0;
#X connect 13 2 11 0;
#X connect 14 0 20 0;
#X connect 15 0 6 0;
#X connect 16 0 13 0;
#X connect 17 0 16 0;
#X connect 17 1 15 0;
#X connect 18 0 17 0;
#X connect 20 0 19 0;
#X restore 47 113 pd off;
#X obj 47 83 select 0 1;
#X obj 96 148 s \$0-mute-set;
#X msg 96 114 color -4.86997e+06 -1.34937e+07 0;
#X connect 0 0 2 0;
#X connect 1 0 3 0;
#X connect 2 0 1 0;
#X connect 2 1 4 0;
#X connect 4 0 3 0;
#X restore 34 206 pd set_tgl_color;
#X msg 185 132 color -4.86997e+06 -1.34937e+07;
#X text 242 107 old;
#X msg 105 63 0;
#X obj 107 39 loadbang;
#N canvas 610 237 712 637 off 0;
#X obj 490 220 * -1;
#X obj 424 300 +;
#X obj 409 325 +;
#X obj 347 219 * -65536;
#X obj 424 220 * -256;
#X obj 409 356 - 1;
#X obj 390 189 unpack f f f;
#X obj 225 295 +;
#X obj 210 320 +;
#X obj 148 214 * -65536;
#X obj 225 215 * -256;
#X obj 291 215 * -1;
#X obj 210 351 - 1;
#X obj 191 184 unpack f f f;
#X obj 238 121 t b b;
#X obj 238 81 inlet;
#X msg 203 154 220 220 220;
#X floatatom 413 397 5 0 0 0 - - -, f 5;
#X msg 395 152 0 0 0;
#X connect 0 0 1 1;
#X connect 1 0 2 1;
#X connect 2 0 5 0;
#X connect 3 0 2 0;
#X connect 4 0 1 0;
#X connect 5 0 17 0;
#X connect 6 0 3 0;
#X connect 6 1 4 0;
#X connect 6 2 0 0;
#X connect 7 0 8 1;
#X connect 8 0 12 0;
#X connect 9 0 8 0;
#X connect 10 0 7 0;
#X connect 11 0 7 1;
#X connect 13 0 9 0;
#X connect 13 1 10 0;
#X connect 13 2 11 0;
#X connect 14 0 16 0;
#X connect 14 1 18 0;
#X connect 15 0 14 0;
#X connect 16 0 13 0;
#X connect 18 0 6 0;
#X restore 323 195 pd off;
#X msg 275 160 color -8.15833e+06 -0;
#N canvas 610 237 274 400 on 0;
#X obj 127 212 +;
#X obj 112 237 +;
#X obj 50 131 * -65536;
#X obj 127 132 * -256;
#X obj 193 132 * -1;
#X obj 112 268 - 1;
#X obj 93 101 unpack f f f;
#X obj 93 36 inlet;
#X obj 112 337 outlet;
#X msg 93 71 220 220 220;
#X msg 112 299 color \$1 -1;
#X connect 0 0 1 1;
#X connect 1 0 5 0;
#X connect 2 0 1 0;
#X connect 3 0 0 0;
#X connect 4 0 0 1;
#X connect 5 0 10 0;
#X connect 6 0 2 0;
#X connect 6 1 3 0;
#X connect 6 2 4 0;
#X connect 7 0 9 0;
#X connect 9 0 6 0;
#X connect 10 0 8 0;
#X restore 158 178 pd on;
#X connect 1 0 3 0;
#X connect 1 0 5 0;
#X connect 2 0 4 0;
#X connect 3 0 2 0;
#X connect 3 1 12 0;
#X connect 8 0 1 0;
#X connect 9 0 8 0;
#X connect 12 0 4 0;
#X coords 0 -1 1 1 49 16 2 100 100;
#X restore 100 100 pd mute;
#N canvas 565 338 514 332 DSP 0;
#X obj 101 101 cnv 5 40 14 empty \$0-cnv_dsp DSP 18 7 0 12 -228856
-91542 0;
#X obj 100 100 tgl 16 0 \$0-dsp-toggle \$0-dsp-toggle-set empty 19
8 0 12 -74965 -212593 -262144 1 1;
#X coords 0 -1 1 1 42 16 2 100 100;
#X restore 149 100 pd DSP;
#X coords 0 -1 1 1 91 36 2 100 100;
#X restore 60 215 pd GUI;
#X obj 328 248 r \$0-mute;
#X obj 328 325 line~;
#X obj 328 354 *~;
#X obj 328 379 *~;
#X obj 275 407 *~;
#X obj 223 409 *~;
#X obj 328 272 expr 1 - $f1;
#X msg 328 298 \$1 50;
#N canvas 139 226 571 479 dac 0;
#X obj 117 402 dac~;
#X obj 76 104 inlet~;
#X obj 138 103 inlet~;
#X obj 206 121 r \$0-dac;
#X obj 138 357 *~;
#X obj 77 290 *~;
#X obj 206 233 line~;
#X obj 206 263 *~;
#X obj 206 294 *~;
#X obj 354 122 symbol \$1;
#X obj 354 145 select nodac;
#X msg 423 174 1;
#X msg 354 174 0;
#X msg 206 212 \$1 50;
#X obj 268 149 sel 0 1;
#X msg 287 172 1;
#X obj 354 252 switch~;
#X obj 354 97 loadbang;
#X msg 268 244 0;
#X obj 268 215 delay 50;
#X obj 354 221 change;
#X connect 1 0 5 0;
#X connect 2 0 4 0;
#X connect 3 0 13 0;
#X connect 3 0 14 0;
#X connect 4 0 0 1;
#X connect 5 0 0 0;
#X connect 6 0 7 0;
#X connect 6 0 7 1;
#X connect 7 0 8 0;
#X connect 7 0 8 1;
#X connect 8 0 4 1;
#X connect 8 0 5 1;
#X connect 9 0 10 0;
#X connect 10 0 12 0;
#X connect 10 1 11 0;
#X connect 11 0 20 0;
#X connect 11 0 13 0;
#X connect 12 0 20 0;
#X connect 13 0 6 0;
#X connect 14 0 19 0;
#X connect 14 1 15 0;
#X connect 15 0 20 0;
#X connect 17 0 9 0;
#X connect 18 0 20 0;
#X connect 19 0 18 0;
#X connect 20 0 16 0;
#X restore 153 494 pd dac;
#X text 58 37 [output~] is a stereo output with gain control designed
by Alexandre Torres Porres as an extra for cyclone's help files. Check
its help file for more infor.;
#X obj 413 272 loadbang;
#X msg 413 298 1;
#X connect 0 0 5 0;
#X connect 1 0 14 0;
#X connect 1 0 27 0;
#X connect 3 0 6 0;
#X connect 4 0 13 0;
#X connect 4 0 27 1;
#X connect 5 0 24 0;
#X connect 6 0 23 0;
#X connect 8 0 9 0;
#X connect 8 0 9 1;
#X connect 9 0 10 0;
#X connect 9 0 10 1;
#X connect 10 0 1 0;
#X connect 10 0 4 0;
#X connect 11 0 16 0;
#X connect 15 0 12 0;
#X connect 17 0 8 0;
#X connect 19 0 25 0;
#X connect 20 0 21 0;
#X connect 20 0 21 1;
#X connect 21 0 22 0;
#X connect 21 0 22 1;
#X connect 22 0 23 1;
#X connect 22 0 24 1;
#X connect 23 0 4 1;
#X connect 24 0 1 1;
#X connect 25 0 26 0;
#X connect 26 0 20 0;
#X connect 29 0 30 0;
#X connect 30 0 20 0;
#X coords 0 0 1 1 91 54 1 60 200;
