#N canvas 147 23 568 744 10;
#X obj 9 697 cnv 15 552 21 empty empty empty 20 12 0 14 -233017 -33289
0;
#X obj 9 509 cnv 3 550 3 empty empty inlets 8 12 0 13 -228856 -1 0
;
#N canvas 1088 157 431 306 META 0;
#X text 1 20 LICENSE SIBSD;
#X text 1 140 LIBRARY cyclone;
#X text 1 0 KEYWORDS signal cartesian polar conversion;
#X text 1 40 DESCRIPTION cartesian to polar conversion for signals
;
#X text 1 80 INLET_1 signal;
#X text 1 60 INLET_0 signal;
#X text 1 100 OUTLET_0 signal;
#X text 1 120 OUTLET_1 signal;
#X text 0 162 VERSION 0.2-beta1;
#X text 0 180 AUTHOR Krzysztof Czaja;
#X text 1 198 RELEASE_DATE 2002;
#X text 2 217 WEBSITE http://suita.chopin.edu.pl/~czaja/miXed/externs/cyclone.html
;
#X text 2 249 HELP_PATCH_AUTHORS Christoph Kummerer. Revised by Jonathan
Wilkes for Pd-extended 0.42 to conform to the PDDP template. Alex Cleveland
updated this patch for Pd-l2ork version 2013.05.28. Fred Jan Kraan
adapted the patch to pd-extended 2015-02-02;
#X restore 513 699 pd META;
#X obj 9 581 cnv 3 550 3 empty empty outlets 8 12 0 13 -228856 -1 0
;
#X obj 9 662 cnv 3 550 3 empty empty arguments 8 12 0 13 -228856 -1
0;
#N canvas 1095 187 428 164 Related_objects 0;
#X obj 0 0 cnv 15 425 20 empty empty empty 3 12 0 14 -204280 -1 0;
#X text 6 1 Related Objects;
#X obj 35 41 poltocar~;
#X restore 225 700 pd Related_objects;
#X obj 7 45 cnv 15 552 40 empty empty poltocar~ 3 12 0 18 -204280 -1
0;
#X text 114 673 (none);
#X text 127 514 signal;
#X text 127 540 signal;
#X text 127 594 signal;
#X text 127 620 signal;
#X obj 96 515 cnv 17 3 17 empty empty 0 5 9 0 16 -228856 -162280 0
;
#X obj 96 541 cnv 17 3 17 empty empty 1 5 9 0 16 -228856 -162280 0
;
#X obj 96 596 cnv 17 3 17 empty empty 0 5 9 0 16 -228856 -162280 0
;
#X obj 96 621 cnv 17 3 17 empty empty 1 5 9 0 16 -228856 -162280 0
;
#X text 200 620 - imaginary part of signal in cartesian form;
#X text 200 594 - real part of signal in cartesian form;
#X text 201 514 - Amplitude output of signal in polar form;
#X text 202 541 - Phase (in radians: -pi to pi) output of signal in
polar form;
#X obj 492 48 poltocar~;
#X text 22 68 polar to cartesian conversion for signals;
#N canvas 161 66 547 384 spectral_processing 0;
#X obj 252 132 cyclone/cartopol~;
#X obj 252 215 cyclone/poltocar~;
#X obj 252 81 rfft~;
#X obj 252 275 rifft~;
#X text 46 112 complex signal in cartesian form;
#X text 142 243 back to cartesian;
#X text 259 113 <= real;
#X text 345 110 <= imaginary;
#X text 255 171 do some spectral;
#X text 256 188 processing here;
#X text 264 152 (polar form);
#X text 164 171 amplitude =>;
#X text 368 171 <= phase;
#X text 263 57 FFT;
#X text 265 303 iFFT;
#X connect 0 0 1 0;
#X connect 0 1 1 1;
#X connect 1 0 3 0;
#X connect 1 1 3 1;
#X connect 2 0 0 0;
#X connect 2 1 0 1;
#X restore 261 471 pd spectral_processing;
#X text 116 412 It's useful for spectral processing in the more intuitive
polar form (amplitude/phase). Here's the idea in the subpatch below:
;
#X floatatom 195 207 0 0 0 0 - - -;
#X floatatom 294 205 0 0 0 0 - - -;
#X floatatom 189 334 0 0 0 0 - - -;
#X obj 189 296 cyclone/Snapshot~ 1;
#X obj 195 236 sig~;
#X obj 294 236 sig~;
#X floatatom 294 363 0 0 0 0 - - -;
#X obj 294 325 cyclone/Snapshot~ 1;
#X text 186 357 Real;
#X text 290 386 Imaginary;
#X text 186 185 Amplitude;
#X text 291 182 Phase;
#X obj 195 267 cyclone/poltocar~;
#X text 107 119 Use the [poltocar~] object to convert signal values
representing polar coordinates to a signal composed of cartesian coordinates.
;
#N canvas 439 241 715 321 (subpatch) 0;
#X obj 51 51 cnv 15 552 28 empty empty Cyclone: 6 13 0 18 -128992 -233080
0;
#X obj 217 65 cnv 5 5 5 empty empty Library 0 0 0 12 -128992 -233080
0;
#X obj 275 65 cnv 5 5 5 empty empty of 0 0 0 12 -128992 -233080 0;
#X obj 298 64 cnv 5 5 5 empty empty objects 0 0 0 12 -128992 -233080
0;
#X obj 356 64 cnv 5 5 5 empty empty cloned 0 0 0 12 -128992 -233080
0;
#X obj 406 64 cnv 5 5 5 empty empty from 0 0 0 12 -128992 -233080 0
;
#X obj 444 64 cnv 5 5 5 empty empty Max/MSP 0 0 0 12 -128992 -233080
0;
#X coords 0 -1 1 1 554 30 1 50 50;
#X restore 7 11 pd;
#N canvas 673 40 366 264 (subpatch) 0;
#X obj 51 101 tgl 42 0 \$0-tgl-s \$0-tgl-r empty 1 8 1 9 -74965 -212593
-262144 1 1;
#X obj 215 68 route dsp;
#X obj 215 37 receive pd;
#N canvas 939 367 324 271 set_color 0;
#X obj 47 30 inlet;
#X obj 96 146 s \$0-cnv;
#X msg 96 114 color -4.86997e+06 -1.34937e+07;
#N canvas 0 22 712 637 off 0;
#X obj 490 220 * -1;
#X obj 424 300 +;
#X obj 409 325 +;
#X obj 347 219 * -65536;
#X obj 424 220 * -256;
#X obj 409 356 - 1;
#X obj 390 189 unpack f f f;
#X obj 225 295 +;
#X obj 210 320 +;
#X obj 148 214 * -65536;
#X obj 225 215 * -256;
#X obj 291 215 * -1;
#X obj 210 351 - 1;
#X obj 191 184 unpack f f f;
#X obj 379 423 pack;
#X msg 378 447 color \$1 \$2;
#X msg 395 152 124 124 124;
#X msg 203 154 220 220 220;
#X obj 238 121 t b b;
#X obj 238 81 inlet;
#X obj 378 485 outlet;
#X connect 0 0 1 1;
#X connect 1 0 2 1;
#X connect 2 0 5 0;
#X connect 3 0 2 0;
#X connect 4 0 1 0;
#X connect 5 0 14 1;
#X connect 6 0 3 0;
#X connect 6 1 4 0;
#X connect 6 2 0 0;
#X connect 7 0 8 1;
#X connect 8 0 12 0;
#X connect 9 0 8 0;
#X connect 10 0 7 0;
#X connect 11 0 7 1;
#X connect 12 0 14 0;
#X connect 13 0 9 0;
#X connect 13 1 10 0;
#X connect 13 2 11 0;
#X connect 14 0 15 0;
#X connect 15 0 20 0;
#X connect 16 0 6 0;
#X connect 17 0 13 0;
#X connect 18 0 17 0;
#X connect 18 1 16 0;
#X connect 19 0 18 0;
#X restore 47 113 pd off;
#X obj 47 83 select 0 1;
#X obj 47 168 list append 0;
#X obj 47 195 list trim;
#X obj 47 220 s \$0-tgl-r;
#X connect 0 0 4 0;
#X connect 2 0 1 0;
#X connect 2 0 5 0;
#X connect 3 0 1 0;
#X connect 3 0 5 0;
#X connect 4 0 3 0;
#X connect 4 1 2 0;
#X connect 5 0 6 0;
#X connect 6 0 7 0;
#X restore 215 165 pd set_color;
#X obj 135 122 r \$0-tgl-s;
#N canvas 0 22 450 300 (subpatch) 0;
#X obj 101 101 cnv 25 40 25 empty \$0-cnv DSP 3 13 0 20 -74965 -212593
0;
#X coords 0 -1 1 1 42 27 1 100 100;
#X restore 51 144 pd;
#X obj 226 139 s \$0-tgl-r;
#X msg 226 115 set \$1;
#X msg 135 177 \; pd dsp \$1;
#N canvas 256 32 278 194 load_check 0;
#X obj 136 53 sig~ 1;
#X obj 74 24 loadbang;
#X obj 136 86 snapshot~;
#X obj 91 52 del 5;
#X obj 136 151 outlet;
#X obj 74 103 tgl 15 0 empty empty empty 17 7 0 10 -262144 -1 -1 0
1;
#X obj 74 126 switch~;
#X connect 0 0 2 0;
#X connect 1 0 3 0;
#X connect 1 0 5 0;
#X connect 2 0 4 0;
#X connect 3 0 2 0;
#X connect 3 0 5 0;
#X connect 5 0 6 0;
#X restore 51 72 pd load_check;
#X connect 1 0 3 0;
#X connect 1 0 7 0;
#X connect 2 0 1 0;
#X connect 4 0 8 0;
#X connect 4 0 3 0;
#X connect 7 0 6 0;
#X connect 9 0 0 0;
#X coords 0 -1 1 1 44 72 2 50 100;
#X restore 504 101 pd;
#X connect 24 0 28 0;
#X connect 25 0 29 0;
#X connect 27 0 26 0;
#X connect 28 0 36 0;
#X connect 29 0 36 1;
#X connect 31 0 30 0;
#X connect 36 0 27 0;
#X connect 36 1 31 0;
