#N canvas 485 23 567 623 10;
#X obj 6 573 cnv 15 552 21 empty empty empty 20 12 0 14 -233017 -33289
0;
#X obj 6 451 cnv 3 550 3 empty empty inlets 8 12 0 13 -228856 -1 0
;
#N canvas 613 162 350 207 META 0;
#X text 1 19 LICENSE SIBSD;
#X text 1 95 LIBRARY cyclone;
#X text 1 76 OUTLET_0 signal;
#X text 1 0 KEYWORDS signal band limited bandlimited random noise;
#X text 1 38 DESCRIPTION bandlimited random noise;
#X text 1 57 INLET_0 float;
#X text 0 115 VERSION 0.2-beta1;
#X text 0 133 AUTHOR Krzysztof Czaja;
#X text 1 151 RELEASE_DATE 2002;
#X text 2 170 WEBSITE http://suita.chopin.edu.pl/~czaja/miXed/externs/cyclone.html
;
#X text 2 202 HELP_PATCH_AUTHORS Christoph Kummerer. Revised by Jonathan
Wilkes for Pd-extended 0.42 to conform to the PDDP template. Alex Cleveland
updated this patch for Pd-l2ork version 2013.05.28. Fred Jan Kraan
adapted the patch to pd-extended 2015-02-02;
#X restore 509 575 pd META;
#X obj 6 491 cnv 3 550 3 empty empty outlets 8 12 0 13 -228856 -1 0
;
#X obj 6 528 cnv 3 550 3 empty empty arguments 8 12 0 13 -228856 -1
0;
#N canvas 308 259 428 109 Related_objects 0;
#X obj 0 0 cnv 15 425 20 empty empty empty 3 12 0 14 -204280 -1 0;
#X text 6 1 Related Objects;
#X restore 208 575 pd Related_objects;
#X obj 87 462 cnv 17 3 17 empty empty 0 5 9 0 16 -228856 -162280 0
;
#X obj 87 501 cnv 17 3 17 empty empty 0 5 9 0 16 -228856 -162280 0
;
#X obj 6 39 cnv 15 552 40 empty empty rand~ 3 12 0 18 -204280 -1 0
;
#X obj 511 48 rand~;
#X text 207 462 - set frequency;
#X floatatom 269 221 0 0 0 0 - - -;
#X text 122 501 signal;
#X text 104 540 1) float;
#X obj 269 306 output~;
#X text 18 62 bandlimited random noise (interpolated);
#X obj 272 200 hsl 128 15 41.1 44100 1 0 empty empty empty -2 -8 0
10 -228856 -1 -1 0 1;
#X text 207 501 - interpolated random noise signal;
#X text 101 97 Use the [rand~] object to generate a signal consisting
of random values between -1 and 1 generated at a frequency specified
by its input or argument. The resulting sound is bandlimited from 0
to that frequency. The [rand~] object interpolates linearly between
the generated values.;
#N canvas 173 37 452 382 random 0;
#X obj 165 144 rand~ 1;
#X obj 165 190 expr~ $v1 * 300 + 800;
#X obj 165 230 cyclone/cycle~;
#X obj 140 275 output~;
#X text 46 62 you can use [rand~]as an LFO to generate random ramps
up and down to control several parameters. Below \, it generates random
glissandi.;
#X obj 2 3 cnv 15 425 20 empty empty empty 3 12 0 14 -204280 -1 0;
#X text 5 4 [rand~] as random control;
#X connect 0 0 1 0;
#X connect 1 0 2 0;
#X connect 2 0 3 0;
#X connect 2 0 3 1;
#X restore 302 390 pd random control;
#X text 207 540 - set intial frequency (default 0);
#X text 122 462 float/signal;
#X obj 269 244 cyclone/rand~ 441;
#X obj 104 299 cyclone/Scope~ 130 130 16 3 128 -1 1 50 0 0 0 205 229
232 74 79 77 96 98 102 0;
#N canvas 439 241 715 321 (subpatch) 0;
#X obj 51 51 cnv 15 552 28 empty empty Cyclone: 6 13 0 18 -128992 -233080
0;
#X obj 217 65 cnv 5 5 5 empty empty Library 0 0 0 12 -128992 -233080
0;
#X obj 275 65 cnv 5 5 5 empty empty of 0 0 0 12 -128992 -233080 0;
#X obj 298 64 cnv 5 5 5 empty empty objects 0 0 0 12 -128992 -233080
0;
#X obj 356 64 cnv 5 5 5 empty empty cloned 0 0 0 12 -128992 -233080
0;
#X obj 406 64 cnv 5 5 5 empty empty from 0 0 0 12 -128992 -233080 0
;
#X obj 444 64 cnv 5 5 5 empty empty Max/MSP 0 0 0 12 -128992 -233080
0;
#X coords 0 -1 1 1 554 30 1 50 50;
#X restore 5 5 pd;
#N canvas 673 40 366 264 (subpatch) 0;
#X obj 51 101 tgl 42 0 \$0-tgl-s \$0-tgl-r empty 1 8 1 9 -74965 -212593
-262144 1 1;
#X obj 215 68 route dsp;
#X obj 215 37 receive pd;
#N canvas 939 367 324 271 set_color 0;
#X obj 47 30 inlet;
#X obj 96 146 s \$0-cnv;
#X msg 96 114 color -4.86997e+06 -1.34937e+07;
#N canvas 0 22 712 637 off 0;
#X obj 490 220 * -1;
#X obj 424 300 +;
#X obj 409 325 +;
#X obj 347 219 * -65536;
#X obj 424 220 * -256;
#X obj 409 356 - 1;
#X obj 390 189 unpack f f f;
#X obj 225 295 +;
#X obj 210 320 +;
#X obj 148 214 * -65536;
#X obj 225 215 * -256;
#X obj 291 215 * -1;
#X obj 210 351 - 1;
#X obj 191 184 unpack f f f;
#X obj 379 423 pack;
#X msg 378 447 color \$1 \$2;
#X msg 395 152 124 124 124;
#X msg 203 154 220 220 220;
#X obj 238 121 t b b;
#X obj 238 81 inlet;
#X obj 378 485 outlet;
#X connect 0 0 1 1;
#X connect 1 0 2 1;
#X connect 2 0 5 0;
#X connect 3 0 2 0;
#X connect 4 0 1 0;
#X connect 5 0 14 1;
#X connect 6 0 3 0;
#X connect 6 1 4 0;
#X connect 6 2 0 0;
#X connect 7 0 8 1;
#X connect 8 0 12 0;
#X connect 9 0 8 0;
#X connect 10 0 7 0;
#X connect 11 0 7 1;
#X connect 12 0 14 0;
#X connect 13 0 9 0;
#X connect 13 1 10 0;
#X connect 13 2 11 0;
#X connect 14 0 15 0;
#X connect 15 0 20 0;
#X connect 16 0 6 0;
#X connect 17 0 13 0;
#X connect 18 0 17 0;
#X connect 18 1 16 0;
#X connect 19 0 18 0;
#X restore 47 113 pd off;
#X obj 47 83 select 0 1;
#X obj 47 168 list append 0;
#X obj 47 195 list trim;
#X obj 47 220 s \$0-tgl-r;
#X connect 0 0 4 0;
#X connect 2 0 1 0;
#X connect 2 0 5 0;
#X connect 3 0 1 0;
#X connect 3 0 5 0;
#X connect 4 0 3 0;
#X connect 4 1 2 0;
#X connect 5 0 6 0;
#X connect 6 0 7 0;
#X restore 215 165 pd set_color;
#X obj 135 122 r \$0-tgl-s;
#N canvas 0 22 450 300 (subpatch) 0;
#X obj 101 101 cnv 25 40 25 empty \$0-cnv DSP 3 13 0 20 -74965 -212593
0;
#X coords 0 -1 1 1 42 27 1 100 100;
#X restore 51 144 pd;
#X obj 226 139 s \$0-tgl-r;
#X msg 226 115 set \$1;
#X msg 135 177 \; pd dsp \$1;
#N canvas 256 32 278 194 load_check 0;
#X obj 136 53 sig~ 1;
#X obj 74 24 loadbang;
#X obj 136 86 snapshot~;
#X obj 91 52 del 5;
#X obj 136 151 outlet;
#X obj 74 103 tgl 15 0 empty empty empty 17 7 0 10 -262144 -1 -1 0
1;
#X obj 74 126 switch~;
#X connect 0 0 2 0;
#X connect 1 0 3 0;
#X connect 1 0 5 0;
#X connect 2 0 4 0;
#X connect 3 0 2 0;
#X connect 3 0 5 0;
#X connect 5 0 6 0;
#X restore 51 72 pd load_check;
#X connect 1 0 3 0;
#X connect 1 0 7 0;
#X connect 2 0 1 0;
#X connect 4 0 8 0;
#X connect 4 0 3 0;
#X connect 7 0 6 0;
#X connect 9 0 0 0;
#X coords 0 -1 1 1 44 72 2 50 100;
#X restore 503 90 pd;
#X connect 11 0 22 0;
#X connect 16 0 11 0;
#X connect 22 0 14 0;
#X connect 22 0 14 1;
#X connect 22 0 23 0;
