#N canvas 668 30 568 674 10;
#X obj 5 631 cnv 15 552 21 empty empty empty 20 12 0 14 -233017 -33289
0;
#X obj 5 375 cnv 3 550 3 empty empty inlets 8 12 0 13 -228856 -1 0
;
#N canvas 946 439 373 349 META 0;
#X text 1 19 LICENSE SIBSD;
#X text 1 153 LIBRARY cyclone;
#X text 1 134 OUTLET_0 signal;
#X text 1 77 INLET_1 flaot signal;
#X text 1 96 INLET_2 float signal;
#X text 1 58 INLET_0 signal;
#X text 1 115 INLET_3 float signal;
#X text 0 171 VERSION 0.2-beta1;
#X text 0 189 AUTHOR Krzysztof Czaja;
#X text 1 207 RELEASE_DATE 2002;
#X text 2 226 WEBSITE http://suita.chopin.edu.pl/~czaja/miXed/externs/cyclone.html
;
#X text 2 258 HELP_PATCH_AUTHORS Christoph Kummerer. Revised by Jonathan
Wilkes for Pd-extended 0.42 to conform to the PDDP template. Alex Cleveland
updated this patch for Pd-l2ork version 2013.05.28. Fred Jan Kraan
adapted the patch to pd-extended 2015-02-02;
#X text 1 0 KEYWORDS signal resonant bandpass filter gain frequency
;
#X text 1 38 DESCRIPTION resonant bandpass filter;
#X restore 507 633 pd META;
#X obj 5 524 cnv 3 550 3 empty empty outlets 8 12 0 13 -228856 -1 0
;
#X obj 5 563 cnv 3 550 3 empty empty arguments 8 12 0 13 -228856 -1
0;
#N canvas 320 447 428 109 Related_objects 0;
#X obj 0 0 cnv 15 425 20 empty empty empty 3 12 0 14 -204280 -1 0;
#X text 6 1 Related Objects;
#X restore 208 633 pd Related_objects;
#X obj 87 384 cnv 17 3 17 empty empty 0 5 9 0 16 -228856 -162280 0
;
#X obj 87 494 cnv 17 3 17 empty empty 3 5 9 0 16 -228856 -162280 0
;
#X obj 5 37 cnv 15 552 40 empty empty reson~ 3 12 0 18 -204280 -1 0
;
#X obj 492 47 reson~;
#X text 150 384 signal;
#X obj 87 450 cnv 17 3 17 empty empty 1 5 9 0 16 -228856 -162280 0
;
#X obj 87 473 cnv 17 3 17 empty empty 2 5 9 0 16 -228856 -162280 0
;
#X obj 87 534 cnv 17 3 17 empty empty 0 5 9 0 16 -228856 -162280 0
;
#X text 212 451 - set gain;
#X text 211 473 - center frequency;
#X text 212 494 - set Q \, the range;
#X text 116 534 signal;
#X text 97 572 1) float;
#X text 97 589 2) float;
#X text 97 605 3) float;
#X floatatom 306 235 0 1 100 0 - - -;
#X floatatom 194 222 5 0 10 0 - - -, f 5;
#X obj 126 314 output~;
#X text 18 60 Resonant Bandpass filter;
#X text 213 572 - initial gain (default 0);
#X text 213 589 - initial center freq (default 0);
#X text 213 605 - initial Q range (default 0.01);
#X text 116 473 float/signal;
#X text 116 494 float/signal;
#X text 213 384 - input signal to filter;
#X text 213 534 - filtered signal;
#X text 116 452 float/signal;
#X obj 239 226 *~ 500;
#X obj 239 203 osc~ 1;
#X obj 239 247 +~ 1000;
#X obj 197 179 hsl 128 15 0 2 0 0 empty empty empty -2 -8 0 10 -228856
-1 -1 0 1;
#X text 82 222 input;
#X text 243 178 gain;
#X text 285 203 <= center frequency;
#X text 335 236 resonance (Q);
#X text 74 99 use [reson~] when you need a resonant bandpass filter.
It implements the following filter equation: y[n] = a0 * (x[n] - r
* x[n-2]) + b1 * y[n-1] + b2 * y[n-2] \, where r \, b1 \, and b2 are
calculated from the input center frequency and Q.;
#X text 163 401 list;
#X text 157 416 clear;
#X text 213 416 - clears the filter's memory. Since reson~ is a recursive
filter \, this may be necessary to recover from blowups.;
#X obj 149 274 cyclone/reson~ 1 200 23;
#X obj 124 222 noise~;
#X text 213 401 - initial gain \, center frequency \, Q;
#N canvas 439 241 715 321 (subpatch) 0;
#X obj 51 51 cnv 15 552 28 empty empty Cyclone: 6 13 0 18 -128992 -233080
0;
#X obj 217 65 cnv 5 5 5 empty empty Library 0 0 0 12 -128992 -233080
0;
#X obj 275 65 cnv 5 5 5 empty empty of 0 0 0 12 -128992 -233080 0;
#X obj 298 64 cnv 5 5 5 empty empty objects 0 0 0 12 -128992 -233080
0;
#X obj 356 64 cnv 5 5 5 empty empty cloned 0 0 0 12 -128992 -233080
0;
#X obj 406 64 cnv 5 5 5 empty empty from 0 0 0 12 -128992 -233080 0
;
#X obj 444 64 cnv 5 5 5 empty empty Max/MSP 0 0 0 12 -128992 -233080
0;
#X coords 0 -1 1 1 554 30 1 50 50;
#X restore 4 3 pd;
#X connect 21 0 45 3;
#X connect 22 0 45 1;
#X connect 33 0 35 0;
#X connect 34 0 33 0;
#X connect 35 0 45 2;
#X connect 36 0 22 0;
#X connect 45 0 23 0;
#X connect 45 0 23 1;
#X connect 46 0 45 0;
