#N canvas 552 23 566 705 10;
#X obj 3 654 cnv 15 552 21 empty empty empty 20 12 0 14 -233017 -33289
0;
#X obj 3 427 cnv 3 550 3 empty empty inlets 8 12 0 13 -228856 -1 0
;
#N canvas 582 203 552 521 META 0;
#X text 0 20 LICENSE SIBSD;
#X text 0 123 LIBRARY cyclone;
#X text 0 143 VERSION 0.2-beta1;
#X text 2 198 WEBSITE http://suita.chopin.edu.pl/~czaja/miXed/externs/cyclone.html
;
#X text 2 230 HELP_PATCH_AUTHORS Christoph Kummerer. Revised by Jonathan
Wilkes for Pd-extended 0.42 to conform to the PDDP template. Alex Cleveland
updated this patch for Pd-l2ork version 2013.05.28. Fred Jan Kraan
adapted the patch to pd-extended 2015-02-02;
#X text 0 161 AUTHOR Derek Kwan;
#X text 0 0 KEYWORDS round;
#X text 1 179 RELEASE_DATE 2016;
#X text 0 60 INLET_0 float list message;
#X text 0 80 INLET_1 float;
#X text 2 101 OUTLET_0 float list;
#X text 0 40 DESCRIPTION rounds floats or lists of floats;
#X restore 506 656 pd META;
#X obj 3 523 cnv 3 550 3 empty empty outlets 8 12 0 13 -228856 -1 0
;
#X obj 3 560 cnv 3 550 3 empty empty arguments 8 12 0 13 -228856 -1
0;
#N canvas 283 325 428 171 Related_objects 0;
#X obj 0 0 cnv 15 425 20 empty empty empty 3 12 0 14 -204280 -1 0;
#X text 6 1 Related Objects;
#X obj 13 55 cyclone/minimum~;
#X obj 13 33 cyclone/maximum~;
#X obj 13 77 cyclone/pong~;
#X obj 13 99 cyclone/round~;
#X restore 206 656 pd Related_objects;
#X obj 83 532 cnv 17 3 17 empty empty 0 5 9 0 16 -228856 -162280 0
;
#X obj 3 39 cnv 15 552 40 empty empty round 3 12 0 18 -204280 -1 0
;
#X text 123 574 1) float;
#X obj 82 486 cnv 17 3 25 empty empty 1 5 9 0 16 -228856 -162280 0
;
#X obj 83 434 cnv 17 3 45 empty empty 0 5 9 0 16 -228856 -162280 0
;
#X obj 3 598 cnv 3 550 3 empty empty attributes 8 12 0 13 -228856 -1
0;
#X text 6 61 rounds floats or lists of floats;
#X obj 514 49 round;
#X text 111 533 float/list;
#X text 139 486 float;
#X floatatom 288 320 0 0 0 0 - - -;
#X text 110 432 float/list;
#X text 194 431 - value(s) to round;
#X obj 291 295 hsl 128 15 0 10 0 0 empty empty empty -2 -8 0 10 -228856
-1 -1 0 1;
#X obj 72 317 nbx 6 14 -1e+37 1e+37 0 0 empty empty empty 0 -8 0 10
-228856 -1 -1 0 256;
#X obj 72 290 trigger b a;
#X msg 72 262 nearest \$1;
#X obj 72 230 tgl 25 0 empty empty empty 17 7 0 10 -228856 -1 -1 0
1;
#X text 105 95 [round] approximates positive and negative numbers to
an integer multiple of any given number that is greater or equal to
0 (0 makes no approximention - original input is output).;
#X text 104 158 it works in two modes \, rounding to the nearest multiple
(default) or to the approximating to the truncated multiple value.
;
#X text 128 452 nearest;
#X text 192 533 - approximated value(s);
#X text 115 617 @nearest <int>;
#X text 192 574 - value to round to (default = 0 \, no rounding);
#X text 214 616 - sets mode: non zero = round (default) \, 0 = truncate
;
#X text 111 235 (1 = round \, 0 truncate);
#X obj 135 349 cyclone/round 1 @nearest 0;
#X obj 135 384 nbx 6 18 -1e+37 1e+37 0 0 empty empty empty 0 -8 0 14
-228856 -1 -1 0 256;
#X text 194 451 - "nearest" followed by 0 sets to "truncate mode" \,
non zero number sets to "round mode" (default).;
#X text 192 486 - value to round to (whose multple values will be approximated
to);
#N canvas 439 241 715 321 (subpatch) 0;
#X obj 51 51 cnv 15 552 28 empty empty Cyclone: 6 13 0 18 -128992 -233080
0;
#X obj 217 65 cnv 5 5 5 empty empty Library 0 0 0 12 -128992 -233080
0;
#X obj 275 65 cnv 5 5 5 empty empty of 0 0 0 12 -128992 -233080 0;
#X obj 298 64 cnv 5 5 5 empty empty objects 0 0 0 12 -128992 -233080
0;
#X obj 356 64 cnv 5 5 5 empty empty cloned 0 0 0 12 -128992 -233080
0;
#X obj 406 64 cnv 5 5 5 empty empty from 0 0 0 12 -128992 -233080 0
;
#X obj 444 64 cnv 5 5 5 empty empty Max/MSP 0 0 0 12 -128992 -233080
0;
#X coords 0 -1 1 1 554 30 1 50 50;
#X restore 2 4 pd;
#N canvas 126 23 450 300 lists 0;
#X msg 113 127 0.5 5 8;
#X obj 113 187 cyclone/tosymbol;
#X symbolatom 113 218 15 0 0 0 - - -, f 15;
#X floatatom 200 127 5 0 0 0 - - -, f 5;
#X obj 113 155 cyclone/round 3;
#X obj 113 101 loadbang;
#X text 92 67 it also works with lists:;
#X connect 0 0 4 0;
#X connect 1 0 2 0;
#X connect 3 0 4 1;
#X connect 4 0 1 0;
#X connect 5 0 0 0;
#X restore 364 351 pd lists;
#X connect 16 0 32 1;
#X connect 19 0 16 0;
#X connect 20 0 32 0;
#X connect 21 0 20 0;
#X connect 21 1 32 0;
#X connect 22 0 21 0;
#X connect 23 0 22 0;
#X connect 32 0 33 0;
