#N canvas 132 294 563 547 10;
#X obj 0 505 cnv 15 552 21 empty empty empty 20 12 0 14 -233017 -33289
0;
#X obj 0 237 cnv 3 550 3 empty empty inlets 8 12 0 13 -228856 -1 0
;
#N canvas 582 203 552 521 META 0;
#X text 0 20 LICENSE SIBSD;
#X text 0 123 LIBRARY cyclone;
#X text 0 143 VERSION 0.2-beta1;
#X text 2 198 WEBSITE http://suita.chopin.edu.pl/~czaja/miXed/externs/cyclone.html
;
#X text 2 230 HELP_PATCH_AUTHORS Christoph Kummerer. Revised by Jonathan
Wilkes for Pd-extended 0.42 to conform to the PDDP template. Alex Cleveland
updated this patch for Pd-l2ork version 2013.05.28. Fred Jan Kraan
adapted the patch to pd-extended 2015-02-02;
#X text 0 161 AUTHOR Derek Kwan;
#X text 0 40 DESCRIPTION rounds input signal values;
#X text 0 0 KEYWORDS round;
#X text 2 101 OUTLET_0 signal;
#X text 1 179 RELEASE_DATE 2016;
#X text 0 60 INLET_0 signal float message;
#X text 0 80 INLET_1 signal float;
#X restore 503 507 pd META;
#X obj 0 338 cnv 3 550 3 empty empty outlets 8 12 0 13 -228856 -1 0
;
#X obj 0 375 cnv 3 550 3 empty empty arguments 8 12 0 13 -228856 -1
0;
#N canvas 285 322 428 171 Related_objects 0;
#X obj 0 0 cnv 15 425 20 empty empty empty 3 12 0 14 -204280 -1 0;
#X text 6 1 Related Objects;
#X obj 13 55 cyclone/minimum~;
#X obj 13 33 cyclone/maximum~;
#X obj 13 77 cyclone/pong~;
#X obj 13 99 cyclone/round;
#X restore 203 507 pd Related_objects;
#X obj 75 347 cnv 17 3 17 empty empty 0 5 9 0 16 -228856 -162280 0
;
#X obj 0 0 cnv 15 552 40 empty empty round~ 3 12 0 18 -204280 -1 0
;
#X text 91 390 1) float;
#X obj 511 10 round~;
#X text 11 25 rounds input signal values;
#X floatatom 118 92 5 0 0 0 - - -, f 5;
#X obj 118 111 sig~;
#X obj 118 184 snapshot~;
#X msg 45 83 1;
#X obj 45 105 metro 100;
#X obj 45 56 loadbang;
#X floatatom 118 206 5 0 0 0 - - -, f 5;
#X obj 72 300 cnv 17 3 25 empty empty 1 5 9 0 16 -228856 -162280 0
;
#X obj 75 244 cnv 17 3 25 empty empty 0 5 9 0 16 -228856 -162280 0
;
#X text 195 241 - signal to round;
#X obj 269 182 snapshot~;
#X floatatom 269 204 5 0 0 0 - - -, f 5;
#X text 178 348 - rounded signal;
#X text 189 297 - value to round to;
#X text 106 261 message;
#X text 157 260 - "nearest (int)" to set mode (1 = round \, 0 = truncate)
;
#X text 108 348 signal;
#X obj 194 109 sig~;
#X floatatom 193 92 5 0 0 0 - - -, f 5;
#X msg 193 68 0.5;
#X msg 269 109 nearest 1;
#X msg 341 109 nearest 0;
#X text 265 90 change mode;
#X text 104 298 signal/float;
#X obj 0 413 cnv 3 550 3 empty empty attributes 8 12 0 13 -228856 -1
0;
#X text 178 428 - set mode (1 = round \, 0 = truncate);
#X text 178 390 - optional value to round to (default = 0 \, no rounding)
;
#X obj 118 162 cyclone/round~ 0.5;
#X obj 269 160 cyclone/round~ 0.5 @nearest 0;
#X text 107 242 signal/float;
#X text 91 428 @nearest (int);
#X connect 11 0 12 0;
#X connect 12 0 38 0;
#X connect 12 0 39 0;
#X connect 13 0 17 0;
#X connect 14 0 15 0;
#X connect 15 0 13 0;
#X connect 15 0 21 0;
#X connect 16 0 14 0;
#X connect 16 0 30 0;
#X connect 21 0 22 0;
#X connect 28 0 38 1;
#X connect 28 0 39 1;
#X connect 29 0 28 0;
#X connect 30 0 29 0;
#X connect 31 0 39 0;
#X connect 32 0 39 0;
#X connect 38 0 13 0;
#X connect 39 0 21 0;
