#N canvas 179 23 563 746 10;
#X obj 4 701 cnv 15 552 21 empty empty empty 20 12 0 14 -233017 -33289
0;
#X obj 4 401 cnv 3 550 3 empty empty inlets 8 12 0 13 -228856 -1 0
;
#N canvas 599 339 377 257 META 0;
#X text 0 31 LICENSE SIBSD;
#X text 0 139 LIBRARY cyclone;
#X text 0 121 OUTLET_0 signal;
#X text 0 67 INLET_0 signal;
#X text 0 85 INLET_1 float;
#X text 0 103 INLET_2 float;
#X text 0 49 DESCRIPTION smooth-out changes in signal values;
#X text 0 0 KEYWORDS signal smooth smooth-out changes slideup slidedown
slide;
#X text 0 158 VERSION 0.2-beta1;
#X text 0 176 AUTHOR Krzysztof Czaja;
#X text 1 194 RELEASE_DATE 2002;
#X text 2 213 WEBSITE http://suita.chopin.edu.pl/~czaja/miXed/externs/cyclone.html
;
#X text 2 245 HELP_PATCH_AUTHORS Christoph Kummerer. Revised by Jonathan
Wilkes for Pd-extended 0.42 to conform to the PDDP template. Alex Cleveland
updated this patch for Pd-l2ork version 2013.05.28. Fred Jan Kraan
adapted the patch to pd-extended 2015-02-02;
#X restore 505 703 pd META;
#X obj 4 539 cnv 3 550 3 empty empty outlets 8 12 0 13 -228856 -1 0
;
#X obj 4 576 cnv 3 550 3 empty empty arguments 8 12 0 13 -228856 -1
0;
#X obj 4 631 cnv 3 550 3 empty empty more_info 8 12 0 13 -228856 -1
0;
#N canvas 321 491 428 109 Related_objects 0;
#X obj 0 0 cnv 15 425 20 empty empty empty 3 12 0 14 -204280 -1 0;
#X text 6 1 Related Objects;
#X restore 207 703 pd Related_objects;
#X obj 85 410 cnv 17 3 75 empty empty 0 5 9 0 16 -228856 -162280 0
;
#X obj 85 549 cnv 17 3 17 empty empty 0 5 9 0 16 -228856 -162280 0
;
#X obj 4 36 cnv 15 552 40 empty empty slide~ 3 12 0 18 -204280 -1 0
;
#X obj 503 47 slide~;
#X obj 85 491 cnv 17 3 17 empty empty 1 5 9 0 16 -228856 -162280 0
;
#X obj 85 512 cnv 17 3 17 empty empty 2 5 9 0 16 -228856 -162280 0
;
#X floatatom 310 223 0 0 0 0 - - -;
#X text 309 151 slide down;
#X floatatom 233 224 0 0 0 0 - - -;
#X obj 157 215 sig~;
#X text 232 151 slide up;
#X text 129 410 signal;
#X text 187 410 - signal to smooth out;
#X text 136 491 float;
#X text 136 512 float;
#X text 130 549 signal;
#X text 119 586 1) float;
#X text 119 605 2) float;
#X msg 233 170 44100;
#X msg 310 172 44100;
#X obj 157 250 cyclone/slide~ 44100 44100;
#X text 187 491 - slideup value in samples;
#X text 187 512 - slidedown vlaue in samples;
#X text 23 60 Filter and smooth-out signals logarithmically;
#X text 187 586 - initial slide up time in samples (default 1);
#X text 187 605 - initial slide down time in samples (default 1);
#X msg 245 195 4410;
#X msg 325 197 4410;
#X obj 157 174 tgl 20 0 empty empty empty 17 7 0 10 -228856 -1 -1 0
1;
#X text 139 370 0;
#X text 139 278 1;
#X text 111 432 messages:;
#X text 187 549 - smoothed out/filtered signal;
#X text 127 645 [slide~] filters an input signal logarithmically between
changes in signal value. The formula is: y(n) = y(n-1) + ((x(n) - y(n-1))/slide).
;
#X text 78 92 Different than [rampsmooth~] \, [slide~] will smooth
audio transitions across a given number of samples in a non linear
way. It's also useful for envelope following and lowpass filtering.
;
#X text 186 433 - slide_down <float>: slide-down value in samples \;
- slide_ip <float>: slide-up value \; - reset: Sets the current output
sample value to 0(the next incoming value will smoothly transition
from that 0).;
#X obj 157 282 cyclone/Scope~ 178 100 64 3 128 0 1 0 0 0 0 205 229
232 74 79 77 96 98 102 0;
#N canvas 439 241 715 321 (subpatch) 0;
#X obj 51 51 cnv 15 552 28 empty empty Cyclone: 6 13 0 18 -128992 -233080
0;
#X obj 217 65 cnv 5 5 5 empty empty Library 0 0 0 12 -128992 -233080
0;
#X obj 275 65 cnv 5 5 5 empty empty of 0 0 0 12 -128992 -233080 0;
#X obj 298 64 cnv 5 5 5 empty empty objects 0 0 0 12 -128992 -233080
0;
#X obj 356 64 cnv 5 5 5 empty empty cloned 0 0 0 12 -128992 -233080
0;
#X obj 406 64 cnv 5 5 5 empty empty from 0 0 0 12 -128992 -233080 0
;
#X obj 444 64 cnv 5 5 5 empty empty Max/MSP 0 0 0 12 -128992 -233080
0;
#X coords 0 -1 1 1 554 30 1 50 50;
#X restore 3 2 pd;
#N canvas 673 40 366 264 (subpatch) 0;
#X obj 51 101 tgl 42 0 \$0-tgl-s \$0-tgl-r empty 1 8 1 9 -74965 -212593
-262144 1 1;
#X obj 215 68 route dsp;
#X obj 215 37 receive pd;
#N canvas 939 367 324 271 set_color 0;
#X obj 47 30 inlet;
#X obj 96 146 s \$0-cnv;
#X msg 96 114 color -4.86997e+06 -1.34937e+07;
#N canvas 0 22 712 637 off 0;
#X obj 490 220 * -1;
#X obj 424 300 +;
#X obj 409 325 +;
#X obj 347 219 * -65536;
#X obj 424 220 * -256;
#X obj 409 356 - 1;
#X obj 390 189 unpack f f f;
#X obj 225 295 +;
#X obj 210 320 +;
#X obj 148 214 * -65536;
#X obj 225 215 * -256;
#X obj 291 215 * -1;
#X obj 210 351 - 1;
#X obj 191 184 unpack f f f;
#X obj 379 423 pack;
#X msg 378 447 color \$1 \$2;
#X msg 395 152 124 124 124;
#X msg 203 154 220 220 220;
#X obj 238 121 t b b;
#X obj 238 81 inlet;
#X obj 378 485 outlet;
#X connect 0 0 1 1;
#X connect 1 0 2 1;
#X connect 2 0 5 0;
#X connect 3 0 2 0;
#X connect 4 0 1 0;
#X connect 5 0 14 1;
#X connect 6 0 3 0;
#X connect 6 1 4 0;
#X connect 6 2 0 0;
#X connect 7 0 8 1;
#X connect 8 0 12 0;
#X connect 9 0 8 0;
#X connect 10 0 7 0;
#X connect 11 0 7 1;
#X connect 12 0 14 0;
#X connect 13 0 9 0;
#X connect 13 1 10 0;
#X connect 13 2 11 0;
#X connect 14 0 15 0;
#X connect 15 0 20 0;
#X connect 16 0 6 0;
#X connect 17 0 13 0;
#X connect 18 0 17 0;
#X connect 18 1 16 0;
#X connect 19 0 18 0;
#X restore 47 113 pd off;
#X obj 47 83 select 0 1;
#X obj 47 168 list append 0;
#X obj 47 195 list trim;
#X obj 47 220 s \$0-tgl-r;
#X connect 0 0 4 0;
#X connect 2 0 1 0;
#X connect 2 0 5 0;
#X connect 3 0 1 0;
#X connect 3 0 5 0;
#X connect 4 0 3 0;
#X connect 4 1 2 0;
#X connect 5 0 6 0;
#X connect 6 0 7 0;
#X restore 215 165 pd set_color;
#X obj 135 122 r \$0-tgl-s;
#N canvas 0 22 450 300 (subpatch) 0;
#X obj 101 101 cnv 25 40 25 empty \$0-cnv DSP 3 13 0 20 -74965 -212593
0;
#X coords 0 -1 1 1 42 27 1 100 100;
#X restore 51 144 pd;
#X obj 226 139 s \$0-tgl-r;
#X msg 226 115 set \$1;
#X msg 135 177 \; pd dsp \$1;
#N canvas 256 32 278 194 load_check 0;
#X obj 136 53 sig~ 1;
#X obj 74 24 loadbang;
#X obj 136 86 snapshot~;
#X obj 91 52 del 5;
#X obj 136 151 outlet;
#X obj 74 103 tgl 15 0 empty empty empty 17 7 0 10 -262144 -1 -1 0
1;
#X obj 74 126 switch~;
#X connect 0 0 2 0;
#X connect 1 0 3 0;
#X connect 1 0 5 0;
#X connect 2 0 4 0;
#X connect 3 0 2 0;
#X connect 3 0 5 0;
#X connect 5 0 6 0;
#X restore 51 72 pd load_check;
#X connect 1 0 3 0;
#X connect 1 0 7 0;
#X connect 2 0 1 0;
#X connect 4 0 8 0;
#X connect 4 0 3 0;
#X connect 7 0 6 0;
#X connect 9 0 0 0;
#X coords 0 -1 1 1 44 72 2 50 100;
#X restore 502 87 pd;
#X connect 13 0 27 2;
#X connect 15 0 27 1;
#X connect 16 0 27 0;
#X connect 25 0 15 0;
#X connect 26 0 13 0;
#X connect 27 0 43 0;
#X connect 33 0 15 0;
#X connect 34 0 13 0;
#X connect 35 0 16 0;
