#N canvas 502 79 562 615 10;
#X obj 4 563 cnv 15 552 21 empty empty empty 20 12 0 14 -233017 -33289
0;
#X obj 4 455 cnv 3 550 3 empty empty inlets 8 12 0 13 -228856 -1 0
;
#N canvas 485 319 494 254 META 0;
#X text 0 20 LICENSE SIBSD;
#X text 0 113 LIBRARY cyclone;
#X text 0 73 INLET_0 signal;
#X text 0 93 OUTLET_0 signal;
#X text 0 0 KEYWORDS hyperbolic tan tangent tanh signal;
#X text 0 40 DESCRIPTION takes the hyperbolic tangent function for
signals;
#X text 0 133 VERSION 0.2-beta1;
#X text 0 151 AUTHOR Krzysztof Czaja;
#X text 1 169 RELEASE_DATE 2002;
#X text 2 188 WEBSITE http://suita.chopin.edu.pl/~czaja/miXed/externs/cyclone.html
;
#X text 2 220 HELP_PATCH_AUTHORS Christoph Kummerer. Revised by Jonathan
Wilkes for Pd-extended 0.42 to conform to the PDDP template. Alex Cleveland
updated this patch for Pd-l2ork version 2013.05.28. Fred Jan Kraan
adapted the patch to pd-extended 2015-02-02;
#X restore 508 565 pd META;
#X obj 4 495 cnv 3 550 3 empty empty outlets 8 12 0 13 -228856 -1 0
;
#X obj 4 534 cnv 3 550 3 empty empty arguments 8 12 0 13 -228856 -1
0;
#N canvas 316 464 428 174 Related_objects 0;
#X obj 0 0 cnv 15 425 20 empty empty empty 3 12 0 14 -204280 -1 0;
#X text 6 1 Related Objects;
#X obj 3 74 cyclone/acosh~;
#X obj 4 27 cyclone/acos;
#X obj 103 74 cyclone/asinh~;
#X obj 104 50 cyclone/asin~;
#X obj 200 49 cyclone/atan~;
#X obj 200 74 cyclone/atanh~;
#X obj 3 121 cyclone/cosh~;
#X obj 3 98 cyclone/cosh;
#X obj 3 146 cyclone/cosx~;
#X obj 3 51 cyclone/acos~;
#X obj 104 28 cyclone/asin;
#X obj 104 98 cyclone/sinh;
#X obj 103 121 cyclone/sinh~;
#X obj 103 145 cyclone/sinx~;
#X obj 200 97 cyclone/tanh;
#X obj 201 120 cyclone/tanh~;
#X obj 200 144 cyclone/tanx~;
#X obj 305 26 cos~;
#X restore 208 565 pd Related_objects;
#X obj 86 466 cnv 17 3 17 empty empty 0 5 9 0 16 -228856 -162280 0
;
#X obj 86 506 cnv 17 3 17 empty empty 0 5 9 0 16 -228856 -162280 0
;
#X obj 4 37 cnv 15 552 40 empty empty tanh~ 3 12 0 18 -204280 -1 0
;
#X text 114 466 signal;
#X text 114 506 signal;
#X text 112 544 (none);
#X obj 515 46 tanh~;
#X obj 103 223 -~ 3.14159;
#X obj 103 200 *~ 6.28319;
#X obj 103 258 cyclone/tanh~;
#X text 20 59 Hyperbolic tangent function for signals;
#X text 181 466 - input to hyperbolic tangent function;
#X text 181 506 - output of hyperbolic tangent function;
#X obj 103 178 phasor~ 2;
#N canvas 774 137 444 424 waveshaping 0;
#X obj 225 206 +~ 11;
#X obj 225 179 *~ 10;
#X obj 225 155 cycle~ 0.5;
#X obj 145 177 cycle~ 110;
#X obj 111 318 output~;
#X obj 145 272 cyclone/tanh~;
#X obj 145 226 *~;
#X obj 3 3 cnv 15 425 20 empty empty empty 3 12 0 14 -204280 -1 0;
#X text 4 3 simulated analog distortion;
#X text 18 44 [tanh~] will clip values between -1 and 1 \, but will
do so not as "hard clipping" (which would be the case with the [clip~]
object). It can actually be considered a waveshaper for soft clipping.
This generates a distortion which is more closely related to how analog
circuitry does clip a signal in overdrive.;
#X connect 0 0 6 1;
#X connect 1 0 0 0;
#X connect 2 0 1 0;
#X connect 3 0 6 0;
#X connect 5 0 4 0;
#X connect 5 0 4 1;
#X connect 6 0 5 0;
#X restore 318 346 pd waveshaping analog distortion;
#X text 66 97 Use the [tanh~] object to calculate and output a signal
that is the hyperbolic tangent function of each sample of the input
signal.;
#X obj 103 293 cyclone/Scope~ 153 137 512 3 128 -1 1 0 0 0 0 205 229
232 74 79 77 96 98 102 0;
#N canvas 439 241 715 321 (subpatch) 0;
#X obj 51 51 cnv 15 552 28 empty empty Cyclone: 6 13 0 18 -128992 -233080
0;
#X obj 217 65 cnv 5 5 5 empty empty Library 0 0 0 12 -128992 -233080
0;
#X obj 275 65 cnv 5 5 5 empty empty of 0 0 0 12 -128992 -233080 0;
#X obj 298 64 cnv 5 5 5 empty empty objects 0 0 0 12 -128992 -233080
0;
#X obj 356 64 cnv 5 5 5 empty empty cloned 0 0 0 12 -128992 -233080
0;
#X obj 406 64 cnv 5 5 5 empty empty from 0 0 0 12 -128992 -233080 0
;
#X obj 444 64 cnv 5 5 5 empty empty Max/MSP 0 0 0 12 -128992 -233080
0;
#X coords 0 -1 1 1 554 30 1 50 50;
#X restore 3 4 pd;
#N canvas 673 40 366 264 (subpatch) 0;
#X obj 51 101 tgl 42 0 \$0-tgl-s \$0-tgl-r empty 1 8 1 9 -74965 -212593
-262144 1 1;
#X obj 215 68 route dsp;
#X obj 215 37 receive pd;
#N canvas 939 367 324 271 set_color 0;
#X obj 47 30 inlet;
#X obj 96 146 s \$0-cnv;
#X msg 96 114 color -4.86997e+06 -1.34937e+07;
#N canvas 0 22 712 637 off 0;
#X obj 490 220 * -1;
#X obj 424 300 +;
#X obj 409 325 +;
#X obj 347 219 * -65536;
#X obj 424 220 * -256;
#X obj 409 356 - 1;
#X obj 390 189 unpack f f f;
#X obj 225 295 +;
#X obj 210 320 +;
#X obj 148 214 * -65536;
#X obj 225 215 * -256;
#X obj 291 215 * -1;
#X obj 210 351 - 1;
#X obj 191 184 unpack f f f;
#X obj 379 423 pack;
#X msg 378 447 color \$1 \$2;
#X msg 395 152 124 124 124;
#X msg 203 154 220 220 220;
#X obj 238 121 t b b;
#X obj 238 81 inlet;
#X obj 378 485 outlet;
#X connect 0 0 1 1;
#X connect 1 0 2 1;
#X connect 2 0 5 0;
#X connect 3 0 2 0;
#X connect 4 0 1 0;
#X connect 5 0 14 1;
#X connect 6 0 3 0;
#X connect 6 1 4 0;
#X connect 6 2 0 0;
#X connect 7 0 8 1;
#X connect 8 0 12 0;
#X connect 9 0 8 0;
#X connect 10 0 7 0;
#X connect 11 0 7 1;
#X connect 12 0 14 0;
#X connect 13 0 9 0;
#X connect 13 1 10 0;
#X connect 13 2 11 0;
#X connect 14 0 15 0;
#X connect 15 0 20 0;
#X connect 16 0 6 0;
#X connect 17 0 13 0;
#X connect 18 0 17 0;
#X connect 18 1 16 0;
#X connect 19 0 18 0;
#X restore 47 113 pd off;
#X obj 47 83 select 0 1;
#X obj 47 168 list append 0;
#X obj 47 195 list trim;
#X obj 47 220 s \$0-tgl-r;
#X connect 0 0 4 0;
#X connect 2 0 1 0;
#X connect 2 0 5 0;
#X connect 3 0 1 0;
#X connect 3 0 5 0;
#X connect 4 0 3 0;
#X connect 4 1 2 0;
#X connect 5 0 6 0;
#X connect 6 0 7 0;
#X restore 215 165 pd set_color;
#X obj 135 122 r \$0-tgl-s;
#N canvas 0 22 450 300 (subpatch) 0;
#X obj 101 101 cnv 25 40 25 empty \$0-cnv DSP 3 13 0 20 -74965 -212593
0;
#X coords 0 -1 1 1 42 27 1 100 100;
#X restore 51 144 pd;
#X obj 226 139 s \$0-tgl-r;
#X msg 226 115 set \$1;
#X msg 135 177 \; pd dsp \$1;
#N canvas 256 32 278 194 load_check 0;
#X obj 136 53 sig~ 1;
#X obj 74 24 loadbang;
#X obj 136 86 snapshot~;
#X obj 91 52 del 5;
#X obj 136 151 outlet;
#X obj 74 103 tgl 15 0 empty empty empty 17 7 0 10 -262144 -1 -1 0
1;
#X obj 74 126 switch~;
#X connect 0 0 2 0;
#X connect 1 0 3 0;
#X connect 1 0 5 0;
#X connect 2 0 4 0;
#X connect 3 0 2 0;
#X connect 3 0 5 0;
#X connect 5 0 6 0;
#X restore 51 72 pd load_check;
#X connect 1 0 3 0;
#X connect 1 0 7 0;
#X connect 2 0 1 0;
#X connect 4 0 8 0;
#X connect 4 0 3 0;
#X connect 7 0 6 0;
#X connect 9 0 0 0;
#X coords 0 -1 1 1 44 72 2 50 100;
#X restore 501 89 pd;
#X connect 13 0 15 0;
#X connect 14 0 13 0;
#X connect 15 0 22 0;
#X connect 19 0 14 0;
