#N canvas 217 155 431 256 10;

#X text 31 210 docs based on the MAX/MSP reference (c) cycling'74
;
#X text 30 224 ___________________________________________________ ;
#X obj 41 22 active;
#X text 108 24 report if window is active / inactive;
#X obj 39 117 tgl 15 0 empty empty empty 0 -6 0 8 -262144 -1 -1 0 1
;
#X obj 39 86 active;
#X text 64 118 focus / unfocus window and watch the toggle;
#X connect 6 0 5 0;
