#N canvas 217 155 421 323 10;
#X text 20 263 cyclone is (c) Miller Puckette and others;
#X text 21 278 docs based on the MAX/MSP reference (c) cycling'74
;
#X text 20 292 ___________________________________________________ ;
#X floatatom 46 216 8 0 0 0 - - -;
#X msg 46 83 bang;
#X obj 67 152 / 100;
#X floatatom 67 132 5 0 0 0 - - -;
#X text 123 185 arg sets initial value;
#X obj 41 22 asin 0.2;
#X text 108 24 calculate arc sine function;
#X obj 46 183 asin 0.2;
#X text 96 84 output acsin of current val;
#X text 121 130 calculate and output asin;
#X connect 4 0 10 0;
#X connect 5 0 10 0;
#X connect 6 0 5 0;
#X connect 10 0 3 0;
