#N canvas 1228 219 785 678 10;
#X declare -lib cyclone;
#X declare -lib iemlib;
#X text 17 -10 Bitwise and signal operator.;
#X obj 26 429 clip~ -1 1;
#X floatatom 546 246 0 0 0 0 - - -;
#X msg 546 264 mode \$1;
#X text 38 209 bitwise boolean operation on a signal and some bitmask
as bits;
#X floatatom 494 244 0 0 0 0 - - -;
#X floatatom 445 244 0 0 0 0 - - -;
#X obj 494 264 sig~ 1;
#X obj 445 264 sig~ 1;
#X text 159 409 modes \; mode 0: treat both floating point signal inputs
as raw 32 bit values \; mode 1: convert both floating point signal
inputs to integers \; mode 2: treat left input as raw 32 bit value
\, convert right input to integer \; mode 3: convert left input to
integer \, treat right input as raw 32 bit value \;;
#X text 19 103 send bitmask;
#X floatatom 55 451 0 0 0 0 - - -;
#X obj 26 470 *~ 0.2;
#X obj 222 114 tgl 15 0 empty empty empty 17 7 0 10 -262144 -1 -1 0
1;
#X obj 437 155 tgl 15 0 empty empty empty 17 7 0 10 -262144 -1 -1 0
1;
#X obj 424 155 tgl 15 0 empty empty empty 17 7 0 10 -262144 -1 -1 0
1;
#X obj 411 155 tgl 15 0 empty empty empty 17 7 0 10 -262144 -1 -1 0
1;
#X obj 398 155 tgl 15 0 empty empty empty 17 7 0 10 -262144 -1 -1 0
1;
#X obj 385 155 tgl 15 0 empty empty empty 17 7 0 10 -262144 -1 -1 0
1;
#X obj 372 155 tgl 15 0 empty empty empty 17 7 0 10 -262144 -1 -1 0
1;
#X obj 359 155 tgl 15 0 empty empty empty 17 7 0 10 -262144 -1 -1 0
1;
#X obj 346 155 tgl 15 0 empty empty empty 17 7 0 10 -262144 -1 -1 0
1;
#X obj 333 155 tgl 15 0 empty empty empty 17 7 0 10 -262144 -1 -1 0
1;
#X obj 320 155 tgl 15 0 empty empty empty 17 7 0 10 -262144 -1 -1 0
1;
#X obj 307 155 tgl 15 0 empty empty empty 17 7 0 10 -262144 -1 -1 0
1;
#X obj 294 155 tgl 15 0 empty empty empty 17 7 0 10 -262144 -1 -1 0
1;
#X obj 281 155 tgl 15 0 empty empty empty 17 7 0 10 -262144 -1 -1 0
1;
#X obj 268 155 tgl 15 0 empty empty empty 17 7 0 10 -262144 -1 -1 0
1;
#X obj 255 155 tgl 15 0 empty empty empty 17 7 0 10 -262144 -1 -1 0
1;
#X obj 242 155 tgl 15 0 empty empty empty 17 7 0 10 -262144 -1 -1 0
1;
#X obj 229 155 tgl 15 0 empty empty empty 17 7 0 10 -262144 -1 -1 0
1;
#X obj 216 155 tgl 15 0 empty empty empty 17 7 0 10 -262144 -1 -1 0
1;
#X obj 203 155 tgl 15 0 empty empty empty 17 7 0 10 -262144 -1 -1 0
1;
#X obj 190 155 tgl 15 0 empty empty empty 17 7 0 10 -262144 -1 -1 0
1;
#X obj 177 155 tgl 15 0 empty empty empty 17 7 0 10 -262144 -1 -1 0
1;
#X obj 164 155 tgl 15 0 empty empty empty 17 7 0 10 -262144 -1 -1 0
1;
#X obj 151 155 tgl 15 0 empty empty empty 17 7 0 10 -262144 -1 -1 0
1;
#X obj 138 155 tgl 15 0 empty empty empty 17 7 0 10 -262144 -1 -1 0
1;
#X obj 21 117 bng 15 250 50 0 empty empty empty 17 7 0 10 -262144 -1
-1;
#X obj 125 155 tgl 15 0 empty empty empty 17 7 0 10 -262144 -1 -1 0
1;
#X obj 112 155 tgl 15 0 empty empty empty 17 7 0 10 -262144 -1 -1 0
1;
#X obj 99 155 tgl 15 0 empty empty empty 17 7 0 10 -262144 -1 -1 0
1;
#X obj 86 155 tgl 15 0 empty empty empty 17 7 0 10 -262144 -1 -1 0
1;
#X obj 73 155 tgl 15 0 empty empty empty 17 7 0 10 -262144 -1 -1 0
1;
#X obj 60 155 tgl 15 0 empty empty empty 17 7 0 10 -262144 -1 -1 0
1;
#X obj 47 155 tgl 15 0 empty empty empty 17 7 0 10 -262144 -1 -1 0
1;
#X obj 34 155 tgl 15 0 empty empty empty 17 7 0 10 -262144 -1 -1 0
1;
#X obj 21 180 pack bits 0 0 0 0 0 0 0 0 0 0 0 0 0 0 0 0 0 0 0 0 0 0
0 0 0 0 0 0 0 0 0 0;
#X floatatom 90 288 0 0 0 0 - - -;
#X obj 26 509 dac~;
#X obj 59 249 cycle~ 440;
#X text 159 383 args: <mask> <mode>. both default to 0;
#X text 454 156 <= set bitmask;
#X text 446 209 bitwise boolean operation on signals as integers;
#X text 93 314 use an integer as a bitmask;
#X text 15 15 Performs bitwise boolean operations on a floating point
signal as bits or as an integer. Note that if you are converting the
floats to ints and back that single precision floating point values
only retain 24 bits of integer resolution. The floating point bits
from left to right are <1 sign bit> <8 exponent bits> <23 mantissa
bits>.;
#X obj 457 38 import cyclone;
#X obj 445 288 bitand~ 0 1;
#X obj 551 37 import iemlib;
#X obj 445 348 nbx 5 14 -1e+37 1e+37 0 0 empty empty empty 0 -8 0 10
-262144 -1 -1 1 256;
#X obj 445 321 unsig~;
#X obj 27 387 bitand~;
#X connect 1 0 12 0;
#X connect 2 0 3 0;
#X connect 3 0 57 0;
#X connect 5 0 7 0;
#X connect 6 0 8 0;
#X connect 7 0 57 1;
#X connect 8 0 57 0;
#X connect 11 0 12 1;
#X connect 12 0 49 0;
#X connect 12 0 49 1;
#X connect 13 0 46 0;
#X connect 13 0 45 0;
#X connect 13 0 44 0;
#X connect 13 0 43 0;
#X connect 13 0 42 0;
#X connect 13 0 41 0;
#X connect 13 0 40 0;
#X connect 13 0 39 0;
#X connect 13 0 37 0;
#X connect 13 0 36 0;
#X connect 13 0 35 0;
#X connect 13 0 34 0;
#X connect 13 0 33 0;
#X connect 13 0 32 0;
#X connect 13 0 31 0;
#X connect 13 0 30 0;
#X connect 13 0 29 0;
#X connect 13 0 28 0;
#X connect 13 0 27 0;
#X connect 13 0 26 0;
#X connect 13 0 25 0;
#X connect 13 0 24 0;
#X connect 13 0 23 0;
#X connect 13 0 22 0;
#X connect 13 0 21 0;
#X connect 13 0 20 0;
#X connect 13 0 19 0;
#X connect 13 0 18 0;
#X connect 13 0 17 0;
#X connect 13 0 16 0;
#X connect 13 0 15 0;
#X connect 13 0 14 0;
#X connect 14 0 47 32;
#X connect 15 0 47 31;
#X connect 16 0 47 30;
#X connect 17 0 47 29;
#X connect 18 0 47 28;
#X connect 19 0 47 27;
#X connect 20 0 47 26;
#X connect 21 0 47 25;
#X connect 22 0 47 24;
#X connect 23 0 47 23;
#X connect 24 0 47 22;
#X connect 25 0 47 21;
#X connect 26 0 47 20;
#X connect 27 0 47 19;
#X connect 28 0 47 18;
#X connect 29 0 47 17;
#X connect 30 0 47 16;
#X connect 31 0 47 15;
#X connect 32 0 47 14;
#X connect 33 0 47 13;
#X connect 34 0 47 12;
#X connect 35 0 47 11;
#X connect 36 0 47 10;
#X connect 37 0 47 9;
#X connect 38 0 47 0;
#X connect 39 0 47 8;
#X connect 40 0 47 7;
#X connect 41 0 47 6;
#X connect 42 0 47 5;
#X connect 43 0 47 4;
#X connect 44 0 47 3;
#X connect 45 0 47 2;
#X connect 46 0 47 1;
#X connect 47 0 61 0;
#X connect 48 0 61 1;
#X connect 50 0 61 0;
#X connect 57 0 60 0;
#X connect 60 0 59 0;
#X connect 61 0 1 0;
