#N canvas 276 216 433 404 10;
#X text 15 343 cyclone is (c) Krzysztof Czaja and others;
#X text 16 358 docs based on the MAX/MSP reference (c) cycling'74
;
#X text 15 372 ___________________________________________________ ;
#X obj 41 22 bondo 4;
#X text 114 22 synx a group of messages;
#X text 114 218 arg sets number of in/outlets;
#X obj 42 215 bondo 3;
#X obj 64 265 print two;
#X msg 64 97 brown;
#X msg 86 121 fox;
#X msg 86 141 jumps;
#X obj 86 241 print one;
#X obj 42 291 print three;
#X msg 64 78 quick;
#X msg 42 124 a;
#X msg 161 140 set newval;
#X text 246 139 set the value / no output;
#X msg 162 89 bang;
#X text 200 84 output all values;
#X text 199 95 works for all inlets;
#X connect 6 0 12 0;
#X connect 6 1 7 0;
#X connect 6 2 11 0;
#X connect 8 0 6 1;
#X connect 9 0 6 2;
#X connect 10 0 6 2;
#X connect 13 0 6 1;
#X connect 14 0 6 0;
#X connect 15 0 6 1;
#X connect 15 0 6 2;
#X connect 15 0 6 0;
#X connect 17 0 6 2;
