#N canvas 171 195 421 340 10;
#X text 14 272 cyclone is (c) Krzysztof Czaja and others;
#X text 15 287 docs based on the MAX/MSP reference (c) cycling'74
;
#X text 14 301 ___________________________________________________ ;
#X text 100 171 arg sets number of in/outlets;
#X obj 41 21 buddy 4;
#X obj 28 168 buddy 3;
#X floatatom 28 235 5 0 0 0 - - -;
#X floatatom 50 213 5 0 0 0 - - -;
#X floatatom 72 193 5 0 0 0 - - -;
#X floatatom 28 102 5 0 0 0 - - -;
#X floatatom 50 126 5 0 0 0 - - -;
#X floatatom 72 146 5 0 0 0 - - -;
#X msg 106 89 clear;
#X text 162 89 clear all stored values;
#X text 105 15 sync incoming data \, output when all;
#X text 105 27 inlets received data;
#X connect 5 0 6 0;
#X connect 5 1 7 0;
#X connect 5 2 8 0;
#X connect 9 0 5 0;
#X connect 10 0 5 1;
#X connect 11 0 5 2;
#X connect 12 0 5 0;
