#N canvas 196 184 702 481 10;
#X floatatom 235 341 0 0 100 0 - - -;
#N canvas 159 26 532 285 output 0;
#X obj 338 160 t b;
#X obj 338 110 f;
#X obj 338 60 inlet;
#X text 344 29 mute;
#X obj 338 185 f;
#X msg 426 180 0;
#X msg 338 85 bang;
#X obj 338 135 moses 1;
#X obj 397 110 moses 1;
#X obj 83 148 dbtorms;
#X obj 397 85 r master-lvl;
#X obj 83 42 r master-lvl;
#X obj 338 210 s master-lvl;
#X obj 20 155 inlet~;
#X obj 199 41 inlet;
#X text 199 18 level;
#X obj 199 105 s master-lvl;
#X msg 96 65 set \$1;
#X obj 96 90 outlet;
#X msg 214 65 \; pd dsp 1;
#X obj 83 198 line~;
#X obj 20 207 *~;
#X obj 20 232 dac~;
#X obj 83 173 pack 0 50;
#X text 20 132 audio;
#X text 96 114 show level;
#X obj 426 155 t b;
#X obj 20 181 hip~ 1;
#X connect 0 0 4 0;
#X connect 1 0 7 0;
#X connect 2 0 6 0;
#X connect 4 0 12 0;
#X connect 5 0 12 0;
#X connect 6 0 1 0;
#X connect 7 0 0 0;
#X connect 7 1 26 0;
#X connect 8 1 4 1;
#X connect 9 0 23 0;
#X connect 10 0 1 1;
#X connect 10 0 8 0;
#X connect 11 0 9 0;
#X connect 11 0 17 0;
#X connect 13 0 27 0;
#X connect 14 0 16 0;
#X connect 14 0 19 0;
#X connect 17 0 18 0;
#X connect 20 0 21 1;
#X connect 21 0 22 0;
#X connect 21 0 22 1;
#X connect 23 0 20 0;
#X connect 26 0 5 0;
#X connect 27 0 21 0;
#X restore 206 365 pd output;
#X msg 264 341 MUTE;
#X obj 206 94 tgl 15 0 empty empty empty 0 -6 0 8 -262144 -1 -1 0 1
;
#X text 235 93 generate short noisebursts;
#N canvas 0 0 290 283 burst 0;
#X obj 48 173 noise~;
#X obj 95 172 line~;
#X obj 79 203 *~;
#X obj 95 73 metro 300;
#X msg 43 132 0 20;
#X msg 95 112 1 10;
#X obj 44 112 del 20;
#X obj 95 43 inlet;
#X obj 79 236 outlet~;
#X connect 0 0 2 0;
#X connect 1 0 2 1;
#X connect 2 0 8 0;
#X connect 3 0 5 0;
#X connect 3 0 6 0;
#X connect 4 0 1 0;
#X connect 5 0 1 0;
#X connect 6 0 4 0;
#X connect 7 0 3 0;
#X restore 206 122 pd burst;
#X text 23 426 cyclone is (c) Miller Puckette and others;
#X text 22 440 docs based on the MAX/MSP reference (c) cycling'74
;
#X text 21 454 ___________________________________________________ ;
#X obj 36 30 comb~;
#X text 110 28 comb filter;
#X floatatom 248 167 5 0 0 0 - - -;
#X floatatom 291 191 5 0 0 0 - - -;
#X floatatom 333 214 5 0 0 0 - - -;
#X floatatom 376 240 5 0 0 0 - - -;
#X msg 90 229 clear;
#X text 53 207 clear buffer;
#X msg 127 167 10 0.4 0.7;
#X text 297 167 D = delay time;
#X text 335 191 a = input (pre delay) amplitude coefficient;
#X text 381 215 b = input (post delay) amplitude coefficient;
#X text 421 241 c = outnput amplitude coefficient;
#X text 132 148 D a b;
#X text 278 141 D \, a \, b \, c inlets support signals aswell;
#X obj 206 265 comb~ 100 0.2 0.2 0.3 0.9;
#X connect 0 0 1 1;
#X connect 1 0 0 0;
#X connect 2 0 1 2;
#X connect 3 0 5 0;
#X connect 5 0 24 0;
#X connect 11 0 24 1;
#X connect 12 0 24 2;
#X connect 13 0 24 3;
#X connect 14 0 24 4;
#X connect 15 0 24 0;
#X connect 17 0 24 0;
#X connect 24 0 1 0;
