#N canvas 162 57 437 208 10;
#X text 20 154 cyclone is (c) Miller Puckette and others;
#X text 21 167 docs based on the MAX/MSP reference (c) cycling'74
;
#X text 20 181 ___________________________________________________ ;
#X obj 39 17 forward;
#X text 102 18 send remote messages;
#X obj 218 78 r foo;
#X obj 268 78 tgl 15 0 empty bar empty 0 -6 64 8 -262144 -1 -1 1 1
;
#X floatatom 218 104 5 0 0 0 - - -;
#X obj 57 108 forward foo;
#X floatatom 57 78 5 0 0 0 - - -;
#X msg 102 76 send bar;
#X obj 28 77 tgl 15 0 empty empty empty 0 -6 0 8 -262144 -1 -1 1 1
;
#X msg 102 57 send foo;
#X connect 5 0 7 0;
#X connect 9 0 8 0;
#X connect 10 0 8 0;
#X connect 11 0 8 0;
#X connect 12 0 8 0;
