#N canvas 196 184 510 300 10;
#X text 5 5 ;
#X text 31 268 docs based on the MAX/MSP reference (c) cycling'74;
#X text 31 281 ___________________________________________________
;
#X text 117 30 sample playback without interpolation;
#X obj 36 30 index~;
#X floatatom 267 171 0 0 100 0 - - -;
#N canvas 159 26 532 285 output 0;
#X obj 338 160 t b;
#X obj 338 110 f;
#X obj 338 60 inlet;
#X text 344 29 mute;
#X obj 338 185 f;
#X msg 426 180 0;
#X msg 338 85 bang;
#X obj 338 135 moses 1;
#X obj 397 110 moses 1;
#X obj 83 148 dbtorms;
#X obj 397 85 r master-lvl;
#X obj 83 42 r master-lvl;
#X obj 338 210 s master-lvl;
#X obj 20 155 inlet~;
#X obj 199 41 inlet;
#X text 199 18 level;
#X obj 199 105 s master-lvl;
#X msg 96 65 set \$1;
#X obj 96 90 outlet;
#X msg 214 65 \; pd dsp 1;
#X obj 83 198 line~;
#X obj 20 207 *~;
#X obj 20 232 dac~;
#X obj 83 173 pack 0 50;
#X text 20 132 audio;
#X text 96 114 show level;
#X obj 426 155 t b;
#X obj 20 181 hip~ 1;
#X connect 0 0 4 0;
#X connect 1 0 7 0;
#X connect 2 0 6 0;
#X connect 4 0 12 0;
#X connect 5 0 12 0;
#X connect 6 0 1 0;
#X connect 7 0 0 0;
#X connect 7 1 26 0;
#X connect 8 1 4 1;
#X connect 9 0 23 0;
#X connect 10 0 1 1;
#X connect 10 0 8 0;
#X connect 11 0 9 0;
#X connect 11 0 17 0;
#X connect 13 0 27 0;
#X connect 14 0 16 0;
#X connect 14 0 19 0;
#X connect 17 0 18 0;
#X connect 20 0 21 1;
#X connect 21 0 22 0;
#X connect 21 0 22 1;
#X connect 23 0 20 0;
#X connect 26 0 5 0;
#X connect 27 0 21 0;
#X restore 238 195 pd output;
#X msg 296 171 MUTE;
#X obj 38 184 table sample;
#X obj 38 110 openpanel;
#X msg 38 135 read -resize \$1 sample;
#X obj 38 160 soundfiler;
#X obj 38 85 bng 15 250 50 0 empty empty empty 0 -6 0 8 -262144 -1
-1;
#X text 64 86 load a sample;
#X obj 238 144 index~ sample;
#X obj 238 115 count~;
#X obj 238 88 bng 15 250 50 0 empty empty empty 0 -6 0 8 -262144 -1
-1;
#X text 261 89 playback sample at current srate;
#X connect 5 0 6 1;
#X connect 6 0 5 0;
#X connect 7 0 6 2;
#X connect 9 0 10 0;
#X connect 10 0 11 0;
#X connect 12 0 9 0;
#X connect 14 0 6 0;
#X connect 15 0 14 0;
#X connect 16 0 15 0;
