#N canvas 158 104 419 351 10;
#X text 15 298 cyclone is (c) Krzysztof Czaja and others;
#X text 15 313 docs based on the MAX/MSP reference (c) cycling'74
;
#X text 14 327 ___________________________________________________ ;
#X floatatom 98 250 5 0 0 0 - - -;
#X obj 24 27 mean;
#X text 60 32 find the running average of a stream of numbers;
#X obj 98 215 mean;
#X floatatom 44 130 5 0 0 0 - - -;
#X obj 157 163 line;
#X msg 98 85 clear;
#X msg 157 131 0 \, 1 1000;
#X msg 158 99 1 2 3 4 5;
#X connect 6 0 3 0;
#X connect 7 0 6 0;
#X connect 8 0 6 0;
#X connect 9 0 6 0;
#X connect 10 0 8 0;
#X connect 11 0 6 0;
