#N canvas 1299 353 554 360 10;
#X declare -lib cyclone;
#X text 15 35 output the minimum of two signals;
#X obj 286 97 cycle~ 3.14;
#X obj 242 74 cycle~ 2;
#X obj 351 12 import cyclone;
#X obj 236 142 maximum~;
#X obj 236 169 Scope~ 130 130 256 3 128 -1 1 0 0 0 0 102 255 51 135
135 135 0;
#X obj 62 144 sig~;
#X floatatom 62 114 5 0 0 0 - - -;
#X obj 62 208 Snapshot~ 100;
#X obj 63 235 nbx 5 14 -1e+37 1e+37 0 0 empty empty empty 0 -8 0 10
-262144 -1 -1 0 256;
#X obj 62 183 minimum~ 0.5;
#X connect 1 0 4 1;
#X connect 2 0 4 0;
#X connect 4 0 5 0;
#X connect 6 0 10 0;
#X connect 7 0 6 0;
#X connect 8 0 9 0;
#X connect 10 0 8 0;
