#N canvas 170 52 461 344 10;
#X text 5 5 ;
#X text 22 294 docs based on the MAX/MSP reference (c) cycling'74;
#X text 21 308 ___________________________________________________
;
#X obj 32 61 mousefilter;
#X text 127 61 passes numbers only when mousebutton is up;
#X obj 90 119 hsl 128 15 0 127 0 0 empty empty empty -2 -6 0 8 -262144
-1 -1 0 1;
#X floatatom 44 119 5 0 0 0 - - -;
#X obj 75 165 mousefilter;
#X floatatom 75 205 5 0 0 0 - - -;
#X text 112 247 For more info:;
#X obj 216 247 pddp_open all_about_hid;
#X obj 7 4 cnv 15 450 30 empty empty [mousefilter] 20 12 1 14 -233017
-66577 0;
#X obj 319 247 pddp_open all_about_cyclone;
#X connect 5 0 7 0;
#X connect 6 0 7 0;
#X connect 7 0 8 0;
