#N canvas 342 212 515 376 10;

#X text 5 331 docs based on the MAX/MSP reference (c) cycling'74;
#X text 4 345 ___________________________________________________;
#X obj 13 32 switch;
#X text 85 33 output a message from a specific inlet;
#X obj 220 216 switch 4;
#X obj 220 244 print;
#X floatatom 147 88 5 0 0 0 - - -;
#X msg 232 115 one;
#X msg 245 137 two;
#X msg 258 163 three;
#X msg 271 188 four;
#X obj 192 87 bng 15 250 50 0 empty empty empty 0 -6 0 8 -262144 -1
-1;
#X text 286 217 arg is nr of inlets;
#X msg 146 177 bang;
#X text 15 177 which one's open ?;
#X connect 5 0 6 0;
#X connect 7 0 5 0;
#X connect 8 0 5 1;
#X connect 9 0 5 2;
#X connect 10 0 5 3;
#X connect 11 0 5 4;
#X connect 12 0 8 0;
#X connect 12 0 9 0;
#X connect 12 0 10 0;
#X connect 12 0 11 0;
#X connect 14 0 5 0;
