#N canvas 217 155 421 323 10;
#X text 20 263 cyclone is (c) Krzysztof Czaja and others;
#X text 21 278 docs based on the MAX/MSP reference (c) cycling'74
;
#X text 20 292 ___________________________________________________ ;
#X floatatom 46 216 8 0 0 0 - - -;
#X msg 46 83 bang;
#X obj 67 152 / 100;
#X floatatom 67 132 5 0 0 0 - - -;
#X text 123 185 arg sets initial value;
#X obj 42 22 tanh 0.2;
#X text 95 82 output tanh of current val;
#X text 121 130 calculate and output tanh;
#X obj 46 183 tanh 0.2;
#X text 108 25 calculate hyperbolic tangent function;
#X connect 4 0 11 0;
#X connect 5 0 11 0;
#X connect 6 0 5 0;
#X connect 11 0 3 0;
