#N canvas 342 212 559 277 10;
#X text 5 5 ;
#X text 11 237 docs based on the MAX/MSP reference (c) cycling'74;
#X text 10 251 ___________________________________________________
;
#X obj 12 33 thresh;
#X text 71 35 combine numbers into a list that are received close together
;
#X obj 13 151 thresh 100;
#X obj 13 175 print thresh;
#X floatatom 13 82 5 0 0 0 - - -;
#X text 62 83 move fast!!!;
#X floatatom 78 112 5 0 0 0 - - -;
#X text 123 111 period length;
#X text 93 150 inital arg sets period length (default 10msecs);
#X connect 5 0 6 0;
#X connect 7 0 5 0;
#X connect 9 0 5 1;
