#N canvas 85 25 887 599 10;
#X text 5 5 ;
#X text 30 542 docs based on the MAX/MSP reference (c) cycling'74
;
#X text 30 557 ___________________________________________________ ;
#X floatatom 465 435 0 0 100 0 - - -;
#N canvas 159 26 532 285 output 0;
#X obj 338 160 t b;
#X obj 338 110 f;
#X obj 338 60 inlet;
#X text 344 29 mute;
#X obj 338 185 f;
#X msg 426 180 0;
#X msg 338 85 bang;
#X obj 338 135 moses 1;
#X obj 397 110 moses 1;
#X obj 83 148 dbtorms;
#X obj 397 85 r master-lvl;
#X obj 83 42 r master-lvl;
#X obj 338 210 s master-lvl;
#X obj 20 155 inlet~;
#X obj 199 41 inlet;
#X text 199 18 level;
#X obj 199 105 s master-lvl;
#X msg 96 65 set \$1;
#X obj 96 90 outlet;
#X msg 214 65 \; pd dsp 1;
#X obj 83 198 line~;
#X obj 20 207 *~;
#X obj 20 232 dac~;
#X obj 83 173 pack 0 50;
#X text 20 132 audio;
#X text 96 114 show level;
#X obj 426 155 t b;
#X obj 20 181 hip~ 1;
#X connect 0 0 4 0;
#X connect 1 0 7 0;
#X connect 2 0 6 0;
#X connect 4 0 12 0;
#X connect 5 0 12 0;
#X connect 6 0 1 0;
#X connect 7 0 0 0;
#X connect 7 1 26 0;
#X connect 8 1 4 1;
#X connect 9 0 23 0;
#X connect 10 0 1 1;
#X connect 10 0 8 0;
#X connect 11 0 9 0;
#X connect 11 0 17 0;
#X connect 13 0 27 0;
#X connect 14 0 16 0;
#X connect 14 0 19 0;
#X connect 17 0 18 0;
#X connect 20 0 21 1;
#X connect 21 0 22 0;
#X connect 21 0 22 1;
#X connect 23 0 20 0;
#X connect 26 0 5 0;
#X connect 27 0 21 0;
#X restore 436 458 pd output;
#X msg 494 435 MUTE;
#X obj 26 18 wave~;
#X text 90 19 variable size wavetable;
#X obj 103 137 table sample;
#X obj 26 87 openpanel;
#X msg 26 112 read -resize \$1 sample;
#X obj 26 137 soundfiler;
#X obj 26 62 bng 15 250 50 0 empty empty empty 0 -6 0 8 -262144 -1
-1;
#X text 52 63 load a sample;
#X obj 436 82 phasor~;
#X floatatom 436 59 5 0 0 0 - - -;
#X floatatom 475 110 5 0 0 0 - - -;
#X floatatom 515 136 5 0 0 0 - - -;
#X floatatom 26 187 10 0 0 0 - - -;
#N canvas 0 0 206 239 samples2len 0;
#X obj 45 25 inlet;
#X obj 61 86 samplerate~;
#X obj 45 115 /;
#X obj 45 59 t f b;
#X obj 45 140 * 1000;
#X obj 45 175 outlet;
#X connect 0 0 3 0;
#X connect 1 0 2 1;
#X connect 2 0 4 0;
#X connect 3 0 2 0;
#X connect 3 1 1 0;
#X connect 4 0 5 0;
#X restore 26 162 pd samples2len;
#X text 482 59 frequency (1=normal speed negative is backwards);
#X text 519 112 startpoint (msec);
#X text 560 136 endpoint (msec);
#X text 101 187 length in msec;
#X obj 436 388 wave~ sample;
#X obj 527 397 wave~ sample [start] [end] [num_channels];
#X text 527 378 arg is table name \, you can also use:;
#X msg 341 82 set sample;
#X text 247 81 change table:;
#X msg 305 170 enable \$1;
#X obj 305 148 tgl 15 0 empty empty empty 0 -6 0 8 -262144 -1 -1 1
1;
#X text 374 171 en/disable object;
#X obj 263 212 tgl 15 0 empty empty empty 0 -6 0 8 -262144 -1 -1 1
1;
#X msg 263 237 interp \$1;
#X text 335 237 en/disable interpolation;
#X text 680 112 signals can also be used;
#X text 681 125 as start and endpoints;
#X connect 3 0 4 1;
#X connect 4 0 3 0;
#X connect 5 0 4 2;
#X connect 9 0 10 0;
#X connect 10 0 11 0;
#X connect 11 0 19 0;
#X connect 12 0 9 0;
#X connect 14 0 24 0;
#X connect 15 0 14 0;
#X connect 16 0 24 1;
#X connect 17 0 24 2;
#X connect 19 0 18 0;
#X connect 24 0 4 0;
#X connect 27 0 24 0;
#X connect 29 0 24 0;
#X connect 30 0 29 0;
#X connect 32 0 33 0;
#X connect 33 0 24 0;
