#N canvas 70 132 714 373 10;
#X obj 26 16 xbendin;
#X obj 97 37 xbendout2;
#X obj 97 16 xbendout;
#X obj 26 36 xbendin2;
#X floatatom 46 248 5 0 0 0 - - -;
#X obj 46 191 xbendin;
#X floatatom 90 220 5 0 0 0 - - -;
#X obj 266 192 xbendin 1;
#X floatatom 266 249 5 0 0 0 - - -;
#X text 341 191 arg = channel nr;
#X text 130 221 channel nr;
#X obj 46 156 xbendout;
#X floatatom 46 105 5 0 0 0 - - -;
#X floatatom 97 133 5 0 0 0 - - -;
#X text 97 250 14 bit pitchbend value;
#X floatatom 266 107 5 0 0 0 - - -;
#X obj 266 161 xbendout 1;
#X text 98 104 14 bit pitchbend value;
#X text 136 133 channel nr;
#X text 462 18 that can handle 14 bit values;
#X obj 480 197 xbendin2 1;
#X obj 480 164 xbendout2 1;
#X floatatom 480 252 5 0 0 0 - - -;
#X floatatom 480 89 5 0 0 0 - - -;
#X floatatom 545 226 5 0 0 0 - - -;
#X floatatom 552 141 5 0 0 0 - - -;
#X text 594 142 channel;
#X text 560 116 lsb;
#X text 523 90 msb;
#X floatatom 516 114 5 0 0 0 - - -;
#X text 587 224 lsb;
#X text 522 252 msb;
#X text 192 19 extra precision midi pitchbend objects;
#X text 31 317 cyclone is (c) Krzysztof Czaja and others;
#X text 31 332 docs based on the MAX/MSP reference (c) cycling'74
;
#X text 30 346 ___________________________________________________ ;
#X text 192 34 in/output from;
#X obj 300 39 midiin;
#X obj 391 39 midiout;
#X text 350 34 or to;
#X connect 5 0 4 0;
#X connect 5 1 6 0;
#X connect 7 0 8 0;
#X connect 11 0 5 0;
#X connect 12 0 11 0;
#X connect 13 0 11 1;
#X connect 15 0 16 0;
#X connect 16 0 7 0;
#X connect 20 0 22 0;
#X connect 20 1 24 0;
#X connect 21 0 20 0;
#X connect 23 0 21 0;
#X connect 25 0 21 2;
#X connect 29 0 21 1;
