#N canvas 572 427 434 408 10;
#X obj 13 106 hsl 42 23 0.01 1 1 0 \$0-v \$0-v volume 7 13 1 9 -245500
-13381 -1 0 0;
#X obj 57 106 tgl 18 0 THIS_IS_HERE_TO_GET_RID_OF_THE_OUTLET \$0-dsp-toggle
dsp 2 9 1 9 -262144 -195568 -33289 0 1;
#N canvas 1019 468 429 371 dsp 0;
#X obj 36 30 inlet;
#X obj 117 227 select 0 1;
#X msg 150 252 6;
#X obj 117 86 route dsp;
#X obj 117 59 receive pd;
#X msg 36 228 dsp \$1;
#X obj 36 253 send pd;
#X msg 231 279 set \$1;
#X msg 117 279 color \$1 20 12;
#X obj 231 310 send \$0-dsp-toggle;
#X msg 117 251 0;
#X obj 251 129 loadbang;
#X obj 231 99 sig~ 1;
#X obj 231 191 snapshot~;
#X obj 251 158 delay 100;
#X obj 117 138 change -1;
#X obj 2 2 cnv 15 425 20 empty empty empty 3 12 0 14 -204280 -1 0;
#X text 6 3 Retrieve and set DSP state;
#X connect 0 0 5 0;
#X connect 0 0 15 0;
#X connect 1 0 10 0;
#X connect 1 1 2 0;
#X connect 2 0 8 0;
#X connect 3 0 15 0;
#X connect 4 0 3 0;
#X connect 5 0 6 0;
#X connect 7 0 9 0;
#X connect 8 0 9 0;
#X connect 10 0 8 0;
#X connect 11 0 14 0;
#X connect 12 0 13 0;
#X connect 13 0 1 0;
#X connect 13 0 7 0;
#X connect 14 0 13 0;
#X connect 15 0 7 0;
#X connect 15 0 1 0;
#X restore 82 148 pd dsp logic;
#X obj 188 31 inlet~;
#X obj 74 268 line~;
#X obj 174 328 *~;
#X obj 194 358 dac~;
#X text 200 51 audio in;
#X obj 250 31 inlet~;
#X obj 236 327 *~;
#X obj 188 102 hip~ 3;
#X obj 250 102 hip~ 3;
#X obj 10 283 send pd;
#X msg 10 262 dsp 1;
#X obj 74 247 pack 0 50;
#X text 141 246 <-- make a ramp to avoid clicks or zipper noise;
#X msg 74 212 0;
#X obj 74 189 moses 0.011;
#X text 294 103 filter out DC;
#X obj 4 3 cnv 15 425 20 empty empty empty 3 12 0 14 -204280 -1 0;
#X text 10 3 dac~ and DSP switch abstraction;
#X text 14 376 Created by Katja Vetter after an idea by Claude Heiland-Allen
;
#X connect 0 0 13 0;
#X connect 0 0 17 0;
#X connect 1 0 2 0;
#X connect 3 0 10 0;
#X connect 4 0 9 0;
#X connect 4 0 5 0;
#X connect 5 0 6 0;
#X connect 8 0 11 0;
#X connect 9 0 6 1;
#X connect 10 0 5 1;
#X connect 11 0 9 1;
#X connect 13 0 12 0;
#X connect 14 0 4 0;
#X connect 16 0 14 0;
#X connect 17 0 16 0;
#X connect 17 1 14 0;
#X coords 0 0 1 1 65 39 1 10 90;
