#N canvas 80 452 450 529 10;
#X obj 224 438 *~ 0.15;
#X obj 284 438 *~ 0.15;
#X obj 222 222 osc~ 111;
#X obj 246 243 osc~ 222;
#X obj 271 264 osc~ 333;
#X obj 295 285 osc~ 444;
#X obj 320 306 osc~ 555;
#X obj 345 327 osc~ 666;
#X obj 346 437 print dump;
#X obj 225 470 output~;
#X msg 20 340 dump;
#X msg 20 210 2 1 0 10;
#X msg 20 235 2 1 1 10;
#X msg 21 263 2 1 2 10;
#X msg 92 210 3 0 0 1000;
#X msg 92 235 3 0 1 1000;
#X msg 93 263 3 0 2 1000;
#X obj 223 378 cyclone/matrix~ 6 2 1;
#X text 8 104 non-binary mode (mixer mode);
#X text 8 35 binary mode (switch mode);
#X msg 24 60 i o c;
#X msg 22 133 i o g r;
#X text 84 132 i o g r - inlet \, outlet \, gain \, ramp;
#X text 76 77 i is an integer \, o is an integer \, c is 0 or 1;
#X text 84 148 i is an integer \, o is an integer \, g is afloat \,
r is a integer;
#X text 22 10 Max/MSP 5 documentation of matrix~: lists;
#X text 75 59 i o c = inlet \, outlet \, connect mode: 0=disconnect
\, 1=connect;
#X connect 0 0 9 0;
#X connect 1 0 9 1;
#X connect 2 0 17 0;
#X connect 3 0 17 1;
#X connect 4 0 17 2;
#X connect 5 0 17 3;
#X connect 6 0 17 4;
#X connect 7 0 17 5;
#X connect 10 0 17 0;
#X connect 11 0 17 0;
#X connect 12 0 17 0;
#X connect 13 0 17 0;
#X connect 14 0 17 0;
#X connect 15 0 17 0;
#X connect 16 0 17 0;
#X connect 17 0 0 0;
#X connect 17 1 1 0;
#X connect 17 2 8 0;
