#N canvas 468 115 566 605 10;
#X declare -stdpath cyclone -stdlib cyclone;
#X text 79 561 Please report them at: https://github.com/porres/pd-cyclone/issues
, f 66;
#X text 48 188 Most of cyclone objects are single binaries \, so all
you need is to have tem inside the cyclone folder amongst your other
external libraries (preferably in the Pd standard path)., f 72;
#X text 49 235 You can then include this folder in Pd's "Path" \, but
there's also a "cyclone sub-library" that includes a subset of 12 non-alphanumeric
objects. To install it you need to include "cyclone" in Pd's Startup.
, f 72;
#X obj 157 328 declare -stdpath cyclone -stdlib cyclone;
#X text 50 349 More in: https://github.com/porres/pd-cyclone/wiki/How-To-Install
, f 60;
#X text 3 526 ===========================================================================================
, f 91;
#X text 3 388 ============================================================================================
, f 92;
#X text 49 299 You can also use [declare] to add the path and/or library
as below:, f 68;
#X text 3 144 ============================================================================================
, f 92;
#X text 43 39 - Cyclone's development starts in 2002 (at the time of
Max 4.0) and never reached full compliance to the latest Max 4 release
(4.6.3 from 2007). Cyclone 0.3 updates the library by including missing
functionalities from Max 4 and further updates (from Max 5 to Max 7).
, f 73;
#X text 43 99 - New objects were also included and several bug fixes
were made \; check details in the changelog at: https://github.com/porres/pd-cyclone/wiki/cyclone-0.3-changlelog
, f 73;
#N canvas 526 130 649 620 All_Cyclone_Objects 1;
#X obj 69 129 ==~;
#X obj 69 153 !=~;
#X obj 69 178 <~;
#X obj 69 201 <=~;
#X obj 69 227 >~;
#X obj 69 250 >=~;
#X obj 70 276 %~;
#X obj 69 349 +=~;
#X obj 70 301 !-~;
#X text 101 130 same as;
#X text 101 154 same as;
#X text 101 178 same as;
#X text 101 201 same as;
#X text 101 226 same as;
#X text 101 250 same as;
#X text 103 276 same as;
#X text 103 301 same as;
#X text 103 325 same as;
#X obj 70 325 !/~;
#X text 103 350 same as;
#X obj 160 130 cyclone/equals~;
#X obj 160 154 cyclone/notequals~;
#X obj 160 178 cyclone/lessthan~;
#X obj 160 201 cyclone/lessthaneq~;
#X obj 160 226 cyclone/greaterthan~;
#X obj 160 250 cyclone/greaterthaneq~;
#X obj 162 276 cyclone/modulo~;
#X obj 162 301 cyclone/rminus~;
#X obj 162 325 cyclone/rdiv~;
#X obj 163 350 cyclone/plusequals~;
#X obj 69 69 !-;
#X text 102 70 same as;
#X text 102 92 same as;
#X obj 69 92 !/;
#X obj 161 69 cyclone/rminus;
#X obj 161 92 cyclone/rdiv;
#X obj 147 455 cyclone/accum;
#X obj 147 480 cyclone/acos;
#X obj 147 535 cyclone/active;
#X obj 147 560 cyclone/anal;
#X obj 147 610 cyclone/asin;
#X obj 147 700 cyclone/bangbang;
#X obj 147 725 cyclone/bondo;
#X obj 147 800 cyclone/buddy;
#X obj 147 825 cyclone/capture;
#X obj 147 850 cyclone/cartopol;
#X obj 147 900 cyclone/coll;
#C restore;
#X obj 147 928 cyclone/cosh;
#X obj 147 953 cyclone/counter;
#X obj 147 978 cyclone/cycle;
#X obj 147 1024 cyclone/decide;
#X obj 147 1074 cyclone/drunk;
#X obj 147 1099 cyclone/flush;
#X obj 147 1124 cyclone/forward;
#X obj 147 1149 cyclone/fromsymbol;
#X obj 147 1174 cyclone/funbuff;
#C restore;
#X obj 147 1199 cyclone/funnel;
#X obj 147 1224 cyclone/gate;
#X obj 147 1249 cyclone/grab;
#X obj 147 1299 cyclone/iter;
#X obj 147 1400 cyclone/match;
#X obj 147 1425 cyclone/maximum;
#X obj 147 1450 cyclone/mean;
#X obj 147 1475 cyclone/midiflush;
#X obj 147 1500 cyclone/midiformat;
#X obj 147 1525 cyclone/midiparse;
#X obj 147 1553 cyclone/minimum;
#X obj 147 1576 cyclone/mousefilter;
#X obj 147 1626 cyclone/mtr;
#X obj 147 1651 cyclone/next;
#X obj 147 1676 cyclone/offer;
#X obj 147 1701 cyclone/onebang;
#X obj 147 1750 cyclone/past;
#X obj 147 1800 cyclone/poltocar;
#X obj 147 1846 cyclone/prepend;
#X obj 147 1871 cyclone/prob;
#C restore;
#X obj 147 1969 cyclone/seq;
#X obj 147 1994 cyclone/sinh;
#X obj 147 2019 cyclone/speedlim;
#X obj 147 2044 cyclone/spell;
#X obj 147 2069 cyclone/split;
#X obj 147 2094 cyclone/spray;
#X obj 147 2144 cyclone/substitute;
#X obj 147 2169 cyclone/sustain;
#X obj 147 2194 cyclone/switch;
#X obj 147 2244 cyclone/tanh;
#X obj 147 2269 cyclone/thresh;
#X obj 147 2319 cyclone/tosymbol;
#X obj 147 2369 cyclone/universal;
#X obj 147 2394 cyclone/urn;
#X obj 147 2444 cyclone/xbendin;
#X obj 147 2491 cyclone/xbendout;
#X obj 147 2541 cyclone/xnotein;
#X obj 147 2566 cyclone/xnoteout;
#X obj 147 2591 cyclone/zl;
#X obj 147 585 cyclone/append;
#X obj 147 750 cyclone/borax;
#X obj 147 775 cyclone/bucket;
#X obj 147 875 cyclone/clip;
#X obj 147 1049 cyclone/decode;
#X obj 147 1274 cyclone/histo;
#X obj 147 1775 cyclone/peak;
#X obj 147 1601 cyclone/mousestate;
#X obj 147 2294 cyclone/togedge;
#X obj 147 2344 cyclone/trough;
#X obj 147 2419 cyclone/uzi;
#X obj 147 2467 cyclone/xbendin2;
#X obj 147 2515 cyclone/xbendout2;
#X obj 148 506 cyclone/acosh;
#X obj 147 633 cyclone/asinh;
#X obj 147 656 cyclone/atanh;
#X obj 147 678 cyclone/atodb;
#X obj 147 1001 cyclone/dbtoa;
#X obj 147 1373 cyclone/loadmess;
#X obj 147 1725 cyclone/pak;
#X obj 147 1920 cyclone/round;
#X obj 147 1944 cyclone/scale;
#X obj 147 1822 cyclone/pong;
#X obj 147 1348 cyclone/linedrive;
#X obj 147 1323 cyclone/join;
#X obj 147 2219 cyclone/table;
#C restore;
#X obj 147 1896 cyclone/pv foo;
#X text 97 1895 =====>;
#X obj 147 2119 cyclone/sprintf;
#X text 98 425 Control Objects:;
#X obj 330 455 cyclone/acos~;
#X obj 330 480 cyclone/acosh~;
#X obj 330 505 cyclone/allpass~;
#X obj 330 530 cyclone/asin~;
#X obj 330 555 cyclone/asinh~;
#X obj 330 580 cyclone/atan~;
#X obj 330 605 cyclone/atan2~;
#X obj 330 630 cyclone/atanh~;
#X obj 330 679 cyclone/average~;
#X obj 330 703 cyclone/avg~;
#X obj 330 753 cyclone/bitand~;
#X obj 330 778 cyclone/bitnot~;
#X obj 330 803 cyclone/bitor~;
#X obj 330 853 cyclone/bitshift~;
#X obj 330 878 cyclone/bitxor~;
#X obj 330 927 cyclone/buffir~;
#X obj 330 952 cyclone/capture~;
#X obj 330 977 cyclone/cartopol~;
#X obj 330 1026 cyclone/change~;
#X obj 330 1051 cyclone/click~;
#X obj 330 1101 cyclone/comb~;
#X obj 330 1126 cyclone/cosh~;
#X obj 330 1151 cyclone/cosx~;
#X obj 330 1176 cyclone/count~;
#X obj 330 1221 cyclone/curve~;
#X obj 330 1246 cyclone/cycle~;
#X obj 330 1317 cyclone/delay~;
#X obj 329 1342 cyclone/delta~;
#X obj 330 1366 cyclone/deltaclip~;
#X obj 330 1418 cyclone/edge~;
#X obj 330 1466 cyclone/frameaccum~;
#X obj 330 1491 cyclone/framedelta~;
#X obj 330 1587 cyclone/index~;
#X obj 330 1612 cyclone/kink~;
#X obj 330 1663 cyclone/lookup~;
#X obj 330 1691 cyclone/lores~;
#X obj 330 1741 cyclone/maximum~;
#X obj 330 1766 cyclone/minimum~;
#X obj 330 1791 cyclone/minmax~;
#X obj 330 1816 cyclone/mstosamps~;
#X obj 330 1841 cyclone/onepole~;
#X obj 330 1866 cyclone/overdrive~;
#X obj 330 1891 cyclone/peakamp~;
#X obj 330 1916 cyclone/peek~;
#X obj 330 1961 cyclone/phasewrap~;
#X obj 330 1986 cyclone/pink~;
#X obj 330 2011 cyclone/play~;
#X obj 330 2036 cyclone/poke~;
#X obj 330 2061 cyclone/poltocar~;
#X obj 330 2086 cyclone/pong~;
#X obj 330 2111 cyclone/pow~;
#X obj 330 2136 cyclone/rampsmooth~;
#X obj 330 2161 cyclone/rand~;
#X obj 330 2186 cyclone/record~;
#X obj 330 2234 cyclone/reson~;
#X obj 330 2282 cyclone/sah~;
#X obj 330 2307 cyclone/sampstoms~;
#X obj 330 2400 cyclone/sinh~;
#X obj 330 2425 cyclone/sinx~;
#X obj 330 2450 cyclone/slide~;
#X obj 330 2500 cyclone/spike~;
#X obj 330 2525 cyclone/svf~;
#X obj 330 2550 cyclone/tanh~;
#X obj 330 2575 cyclone/tanx~;
#X obj 329 2647 cyclone/train~;
#X obj 330 2672 cyclone/trapezoid~;
#X obj 330 2720 cyclone/triangle~;
#X obj 331 2771 cyclone/vectral~;
#X obj 331 2796 cyclone/wave~;
#X obj 331 2821 cyclone/zerox~;
#X obj 330 1393 cyclone/downsamp~;
#X obj 330 2623 cyclone/thresh~;
#X obj 330 728 cyclone/biquad~;
#X obj 331 2744 cyclone/trunc~;
#X obj 330 653 cyclone/atodb~;
#X obj 330 1271 cyclone/dbtoa~;
#X obj 330 2258 cyclone/round~;
#X obj 330 2353 cyclone/scale~;
#X obj 330 828 cyclone/bitsafe~;
#X obj 330 1076 cyclone/clip~;
#X obj 330 1637 cyclone/line~;
#X obj 330 2475 cyclone/snapshot~;
#X obj 330 1716 cyclone/matrix~;
#X obj 330 1539 cyclone/gate~;
#X obj 330 2377 cyclone/selector~;
#X obj 330 1198 cyclone/cross~;
#X obj 330 1441 cyclone/filtercoeff~;
#X obj 330 1938 cyclone/phaseshift~;
#X obj 330 1002 cyclone/cascade~;
#X obj 330 904 cyclone/buffer~;
#X obj 330 1293 cyclone/degrade~;
#X obj 330 1515 cyclone/freqshift~;
#X obj 330 1563 cyclone/hilbert~;
#X obj 330 2211 cyclone/rect~;
#X obj 330 2329 cyclone/saw~;
#X obj 330 2598 cyclone/teeth~;
#X obj 329 2696 cyclone/tri~;
#X text 311 427 Signal Objects:;
#X obj 407 190 cyclone/scope~ 130 130 256 3 128 -1 1 0 0 0 0 205 229
232 74 79 77 96 98 102 0;
#X obj 408 121 cyclone/number~;
#X text 406 96 [cyclone/number~]:;
#X text 414 170 [cyclone/scope~]:;
#X text 360 54 GUI objects:;
#X text 44 28 Cyclone sub library and aliases:;
#X restore 151 461 pd All_Cyclone_Objects;
#X obj 378 458 switch~;
#X obj 368 413 tgl 30 0 \$0-zxcx \$0-zxcxsfljsfl empty 17 7 0 10 -228856
-1 -1 0 1;
#X msg 368 487 \; pd dsp \$1;
#X text 404 419 DSP (for testing);
#X text 46 16 About Cyclone 0.3 alpha 1;
#X connect 13 0 12 0;
#X connect 13 0 14 0;
