#N canvas 696 65 559 540 10;
#X obj 2 316 cnv 3 550 3 empty empty inlets 8 12 0 13 -228856 -1 0
;
#X obj 2 394 cnv 3 550 3 empty empty outlets 8 12 0 13 -228856 -1 0
;
#X obj 2 458 cnv 3 550 3 empty empty arguments 8 12 0 13 -228856 -1
0;
#X obj 101 325 cnv 17 3 35 empty empty 0 5 9 0 16 -228856 -162280 0
;
#X obj 101 369 cnv 17 3 17 empty empty 1 5 9 0 16 -228856 -162280 0
;
#X obj 101 428 cnv 17 3 17 empty empty 1 5 9 0 16 -228856 -162280 0
;
#X obj 101 405 cnv 17 3 17 empty empty 0 5 9 0 16 -228856 -162280 0
;
#X obj 2 513 cnv 3 550 3 empty empty empty 0 0 0 4 -262144 -1 0;
#X obj 2 493 cnv 15 552 21 empty empty empty 20 12 0 14 -233017 -33289
0;
#X text 129 468 (none);
#X text 135 343 float;
#X text 135 371 float;
#X text 135 406 float;
#X text 135 429 float;
#X text 85 88 [cartopol~] converts cartesian coordinates (real / imaginary)
to polar coordinates (amplitude / phase).;
#X text 109 268 Amplitude;
#X text 361 267 Phase;
#X obj 181 269 nbx 8 14 -1e+37 1e+37 0 0 empty empty empty 0 -8 0 10
-228856 -1 -1 0 256;
#X obj 274 268 nbx 8 14 -1e+37 1e+37 0 0 empty empty empty 0 -8 0 10
-228856 -1 -1 0 256;
#X obj 181 226 cyclone/cartopol;
#X text 141 151 Real;
#X text 321 151 Imaginary;
#X obj 181 152 nbx 5 14 -1e+37 1e+37 0 0 empty empty empty 0 -8 0 10
-228856 -1 -1 0 256;
#X obj 262 152 nbx 5 14 -1e+37 1e+37 0 0 empty empty empty 0 -8 0 10
-228856 -1 -1 0 256;
#X text 190 406 - amplitude of the polar form, f 32;
#X text 190 429 - phase in radians (-pi to pi) of the polar form,
f 51;
#X text 189 343 - real part from the cartesian coordinates, f 43;
#X text 190 371 - imaginary part from the cartesian coordinates, f
48;
#X text 141 326 bang;
#X text 189 326 - converts the last received coordinates pair;
#X obj 205 194 t bang float;
#X obj 3 3 cnv 15 301 42 empty empty cartopol 20 20 2 37 -233017 -1
0;
#X obj 305 4 cnv 15 250 40 empty empty empty 12 13 0 18 -128992 -233080
0;
#N canvas 0 22 450 278 (subpatch) 0;
#X coords 0 1 100 -1 302 42 1 0 0;
#X restore 2 3 graph;
#N canvas 382 141 749 319 (subpatch) 0;
#X coords 0 -1 1 1 252 42 2 100 100;
#X restore 304 3 pd;
#X obj 374 11 cnv 10 10 10 empty empty cyclone 0 5 2 24 -128992 -233080
0;
#X obj 340 29 cnv 10 10 10 empty empty Objects 0 6 2 13 -128992 -233080
0;
#X obj 395 29 cnv 10 10 10 empty empty cloned 0 6 2 13 -128992 -233080
0;
#X obj 441 29 cnv 10 10 10 empty empty from 0 6 2 13 -128992 -233080
0;
#X obj 474 30 cnv 10 10 10 empty empty Max/MSP 0 6 2 13 -128992 -233080
0;
#X text 22 61 Cartesian to polar conversion;
#X connect 19 0 17 0;
#X connect 19 1 18 0;
#X connect 22 0 19 0;
#X connect 23 0 30 0;
#X connect 30 0 19 0;
#X connect 30 1 19 1;
