#N canvas 715 31 559 557 10;
#X obj 4 513 cnv 15 552 21 empty empty empty 20 12 0 14 -233017 -33289
0;
#X obj 5 295 cnv 3 550 3 empty empty inlets 8 12 0 13 -228856 -1 0
;
#X obj 5 409 cnv 3 550 3 empty empty outlets 8 12 0 13 -228856 -1 0
;
#X obj 5 449 cnv 3 550 3 empty empty arguments 8 12 0 13 -228856 -1
0;
#X obj 77 305 cnv 17 3 38 empty empty 0 5 9 0 16 -228856 -162280 0
;
#X obj 121 422 cnv 17 3 17 empty empty 0 5 9 0 16 -228856 -162280 0
;
#X obj 165 261 print;
#X floatatom 165 195 5 0 0 0 - - -, f 5;
#X msg 343 197 2 3 4;
#X text 77 93 [join] takes any type of messages (anything \, float
\, symbol \, list) in any inlet and combines them all into an output
list.;
#X floatatom 271 197 5 0 0 0 - - -, f 5;
#X msg 218 144 list x y z;
#X symbolatom 116 172 10 0 0 0 - - -, f 10;
#X msg 186 143 a;
#X obj 77 349 cnv 17 3 54 empty empty n 5 9 0 16 -228856 -162280 0
;
#X text 142 350 anything;
#X text 166 369 bang;
#X text 99 305 triggers <list>;
#N canvas 927 157 450 470 triggers 0;
#X msg 118 240 triggers -1;
#X obj 97 316 cyclone/join 3 @triggers 1 2;
#X msg 97 207 triggers 0 1;
#X msg 66 170 triggers 0 2;
#X text 42 65 You can specify which outlets will trigger (make the
inlet "hot") an output with the @triggers attribute. Just include a
list of input numbers that match the inlet number. The first (left)
inlet is 0 \, the second is 1 and so on (-1 makes all inlets "hot").
;
#X text 198 241 all inlets;
#X text 184 207 first and middle inlet;
#X text 151 169 first and right inlet;
#X obj 33 10 cnv 15 80 30 empty empty empty 20 12 0 14 -233017 -66577
0;
#X obj 121 280 nbx 5 14 -1e+37 1e+37 0 0 empty empty empty 0 -8 0 10
-228856 -1 -1 0 256;
#X obj 191 280 nbx 5 14 -1e+37 1e+37 0 0 empty empty empty 0 -8 0 10
-228856 -1 -1 0 256;
#X obj 262 280 nbx 5 14 -1e+37 1e+37 0 0 empty empty empty 0 -8 0 10
-228856 -1 -1 0 256;
#X obj 97 365 unpack float float float;
#X obj 97 410 nbx 5 14 -1e+37 1e+37 0 0 empty empty empty 0 -8 0 10
-228856 -1 -1 0 256;
#X obj 167 410 nbx 5 14 -1e+37 1e+37 0 0 empty empty empty 0 -8 0 10
-228856 -1 -1 0 256;
#X obj 238 410 nbx 5 14 -1e+37 1e+37 0 0 empty empty empty 0 -8 0 10
-228856 -1 -1 0 256;
#X text 278 311 middle and right inlet initially, f 16;
#X text 39 17 Triggers:;
#X connect 0 0 1 0;
#X connect 1 0 12 0;
#X connect 2 0 1 0;
#X connect 3 0 1 0;
#X connect 9 0 1 0;
#X connect 10 0 1 1;
#X connect 11 0 1 2;
#X connect 12 0 13 0;
#X connect 12 1 14 0;
#X connect 12 2 15 0;
#X restore 456 258 pd triggers;
#X text 142 457 1) float;
#X text 203 369 - forces output of stored messages, f 55;
#X text 203 387 - sets a message to that inlet without output, f 55
;
#X text 166 421 list;
#X text 200 421 - the list composed of the joined messages;
#X obj 5 482 cnv 3 550 3 empty empty attributes 8 12 0 13 -228856 -1
0;
#X text 153 490 @triggers <list> - default "0" (left inlet is hot)
;
#X msg 242 176 symbol hi;
#X msg 324 170 set bim booh bah;
#X obj 306 145 bng 15 250 50 0 empty empty empty 17 7 0 10 -228856
-1 -1;
#X obj 165 226 cyclone/join 4 @triggers -1;
#X text 106 387 set <anything>;
#X text 202 305 -;
#X text 216 305 define a list of input numbers that trigger an output
(make the inlet "hot"): 0 is the first inlet \, 1 the second and so
on (-1 makes all inlets "hot"), f 53;
#X text 203 350 - any message type to be combined into a list, f 55
;
#X text 201 457 - number of inlets (default 2 \, min 2 / max 255);
#X obj 3 3 cnv 15 301 42 empty empty join 20 20 2 37 -233017 -1 0;
#X obj 305 4 cnv 15 250 40 empty empty empty 12 13 0 18 -128992 -233080
0;
#N canvas 0 22 450 278 (subpatch) 0;
#X coords 0 1 100 -1 302 42 1 0 0;
#X restore 2 3 graph;
#N canvas 382 141 749 319 (subpatch) 0;
#X coords 0 -1 1 1 252 42 2 100 100;
#X restore 304 3 pd;
#X obj 374 11 cnv 10 10 10 empty empty cyclone 0 5 2 24 -128992 -233080
0;
#X obj 340 29 cnv 10 10 10 empty empty Objects 0 6 2 13 -128992 -233080
0;
#X obj 395 29 cnv 10 10 10 empty empty cloned 0 6 2 13 -128992 -233080
0;
#X obj 441 29 cnv 10 10 10 empty empty from 0 6 2 13 -128992 -233080
0;
#X obj 474 30 cnv 10 10 10 empty empty Max/MSP 0 6 2 13 -128992 -233080
0;
#X text 22 61 Join items into a list;
#X connect 7 0 29 0;
#X connect 8 0 29 3;
#X connect 10 0 29 2;
#X connect 11 0 29 1;
#X connect 12 0 29 0;
#X connect 13 0 29 1;
#X connect 26 0 29 2;
#X connect 27 0 29 3;
#X connect 28 0 29 3;
#X connect 29 0 6 0;
