#N canvas 651 27 389 177 10;
#N canvas 734 51 649 620 All_Cyclone_Objects 1;
#X obj 69 129 ==~;
#X obj 69 153 !=~;
#X obj 69 178 <~;
#X obj 69 201 <=~;
#X obj 69 227 >~;
#X obj 69 250 >=~;
#X obj 70 276 %~;
#X obj 69 349 +=~;
#X obj 70 301 !-~;
#X text 101 130 same as;
#X text 101 154 same as;
#X text 101 178 same as;
#X text 101 201 same as;
#X text 101 226 same as;
#X text 101 250 same as;
#X text 103 276 same as;
#X text 103 301 same as;
#X text 103 325 same as;
#X obj 70 325 !/~;
#X text 103 350 same as;
#X obj 160 130 cyclone/equals~;
#X obj 160 154 cyclone/notequals~;
#X obj 160 178 cyclone/lessthan~;
#X obj 160 201 cyclone/lessthaneq~;
#X obj 160 226 cyclone/greaterthan~;
#X obj 160 250 cyclone/greaterthaneq~;
#X obj 162 276 cyclone/modulo~;
#X obj 162 301 cyclone/rminus~;
#X obj 162 325 cyclone/rdiv~;
#X obj 163 350 cyclone/plusequals~;
#X obj 69 69 !-;
#X text 102 70 same as;
#X text 102 92 same as;
#X obj 69 92 !/;
#X obj 161 69 cyclone/rminus;
#X obj 161 92 cyclone/rdiv;
#X obj 147 455 cyclone/accum;
#X obj 147 480 cyclone/acos;
#X obj 147 535 cyclone/active;
#X obj 147 560 cyclone/anal;
#X obj 147 610 cyclone/asin;
#X obj 147 700 cyclone/bangbang;
#X obj 147 725 cyclone/bondo;
#X obj 147 800 cyclone/buddy;
#X obj 147 825 cyclone/capture;
#X obj 147 850 cyclone/cartopol;
#X obj 147 900 cyclone/coll;
#C restore;
#X obj 147 928 cyclone/cosh;
#X obj 147 953 cyclone/counter;
#X obj 147 978 cyclone/cycle;
#X obj 147 1024 cyclone/decide;
#X obj 147 1074 cyclone/drunk;
#X obj 147 1099 cyclone/flush;
#X obj 147 1124 cyclone/forward;
#X obj 147 1149 cyclone/fromsymbol;
#X obj 147 1174 cyclone/funbuff;
#C restore;
#X obj 147 1199 cyclone/funnel;
#X obj 147 1224 cyclone/gate;
#X obj 147 1249 cyclone/grab;
#X obj 147 1299 cyclone/iter;
#X obj 147 1423 cyclone/match;
#X obj 147 1448 cyclone/maximum;
#X obj 147 1473 cyclone/mean;
#X obj 147 1498 cyclone/midiflush;
#X obj 147 1523 cyclone/midiformat;
#X obj 147 1548 cyclone/midiparse;
#X obj 147 1576 cyclone/minimum;
#X obj 147 1599 cyclone/mousefilter;
#X obj 147 1649 cyclone/mtr;
#X obj 147 1674 cyclone/next;
#X obj 147 1699 cyclone/offer;
#X obj 147 1724 cyclone/onebang;
#X obj 147 1773 cyclone/past;
#X obj 147 1823 cyclone/poltocar;
#X obj 147 1869 cyclone/prepend;
#X obj 147 1894 cyclone/prob;
#C restore;
#X obj 147 1992 cyclone/seq;
#X obj 147 2017 cyclone/sinh;
#X obj 147 2042 cyclone/speedlim;
#X obj 147 2067 cyclone/spell;
#X obj 147 2092 cyclone/split;
#X obj 147 2117 cyclone/spray;
#X obj 147 2167 cyclone/substitute;
#X obj 147 2192 cyclone/sustain;
#X obj 147 2217 cyclone/switch;
#X obj 147 2267 cyclone/tanh;
#X obj 147 2292 cyclone/thresh;
#X obj 147 2342 cyclone/tosymbol;
#X obj 147 2392 cyclone/universal;
#X obj 147 2440 cyclone/urn;
#X obj 147 2490 cyclone/xbendin;
#X obj 147 2537 cyclone/xbendout;
#X obj 147 2587 cyclone/xnotein;
#X obj 147 2612 cyclone/xnoteout;
#X obj 147 2637 cyclone/zl;
#X obj 147 585 cyclone/append;
#X obj 147 750 cyclone/borax;
#X obj 147 775 cyclone/bucket;
#X obj 147 875 cyclone/clip;
#X obj 147 1049 cyclone/decode;
#X obj 147 1274 cyclone/histo;
#X obj 147 1798 cyclone/peak;
#X obj 147 1624 cyclone/mousestate;
#X obj 147 2317 cyclone/togedge;
#X obj 147 2367 cyclone/trough;
#X obj 147 2465 cyclone/uzi;
#X obj 147 2513 cyclone/xbendin2;
#X obj 147 2561 cyclone/xbendout2;
#X obj 148 506 cyclone/acosh;
#X obj 147 633 cyclone/asinh;
#X obj 147 656 cyclone/atanh;
#X obj 147 678 cyclone/atodb;
#X obj 147 1001 cyclone/dbtoa;
#X obj 147 1396 cyclone/loadmess;
#X obj 147 1748 cyclone/pak;
#X obj 147 1943 cyclone/round;
#X obj 147 1967 cyclone/scale;
#X obj 147 1845 cyclone/pong;
#X obj 147 1348 cyclone/linedrive;
#X obj 147 1323 cyclone/join;
#X obj 147 2242 cyclone/table;
#C restore;
#X obj 147 1919 cyclone/pv foo;
#X text 97 1918 =====>;
#X obj 147 2142 cyclone/sprintf;
#X text 98 425 Control Objects:;
#X obj 350 455 cyclone/abs~;
#X obj 350 480 cyclone/acos~;
#X obj 350 505 cyclone/acosh~;
#X obj 350 530 cyclone/allpass~;
#X obj 350 555 cyclone/asin~;
#X obj 350 580 cyclone/asinh~;
#X obj 350 605 cyclone/atan~;
#X obj 350 630 cyclone/atan2~;
#X obj 350 655 cyclone/atanh~;
#X obj 350 704 cyclone/average~;
#X obj 350 728 cyclone/avg~;
#X obj 350 778 cyclone/bitand~;
#X obj 350 803 cyclone/bitnot~;
#X obj 350 828 cyclone/bitor~;
#X obj 350 878 cyclone/bitshift~;
#X obj 350 903 cyclone/bitxor~;
#X obj 350 952 cyclone/buffir~;
#X obj 350 977 cyclone/capture~;
#X obj 350 1002 cyclone/cartopol~;
#X obj 350 1051 cyclone/change~;
#X obj 350 1076 cyclone/click~;
#X obj 350 1126 cyclone/comb~;
#X obj 350 1151 cyclone/cosh~;
#X obj 350 1176 cyclone/cosx~;
#X obj 350 1201 cyclone/count~;
#X obj 350 1246 cyclone/curve~;
#X obj 350 1271 cyclone/cycle~;
#X obj 350 1342 cyclone/delay~;
#X obj 349 1367 cyclone/delta~;
#X obj 350 1391 cyclone/deltaclip~;
#X obj 350 1443 cyclone/edge~;
#X obj 350 1491 cyclone/frameaccum~;
#X obj 350 1516 cyclone/framedelta~;
#X obj 350 1612 cyclone/index~;
#X obj 350 1637 cyclone/kink~;
#X obj 350 1688 cyclone/log~;
#X obj 350 1713 cyclone/lookup~;
#X obj 350 1741 cyclone/lores~;
#X obj 350 1791 cyclone/maximum~;
#X obj 350 1816 cyclone/minimum~;
#X obj 350 1841 cyclone/minmax~;
#X obj 350 1866 cyclone/mstosamps~;
#X obj 350 1891 cyclone/onepole~;
#X obj 350 1916 cyclone/overdrive~;
#X obj 350 1941 cyclone/peakamp~;
#X obj 350 1966 cyclone/peek~;
#X obj 350 2011 cyclone/phasewrap~;
#X obj 350 2036 cyclone/pink~;
#X obj 350 2061 cyclone/play~;
#X obj 350 2086 cyclone/poke~;
#X obj 350 2111 cyclone/poltocar~;
#X obj 350 2136 cyclone/pong~;
#X obj 350 2161 cyclone/pow~;
#X obj 350 2186 cyclone/rampsmooth~;
#X obj 350 2211 cyclone/rand~;
#X obj 350 2236 cyclone/record~;
#X obj 350 2284 cyclone/reson~;
#X obj 350 2332 cyclone/sah~;
#X obj 350 2357 cyclone/sampstoms~;
#X obj 350 2450 cyclone/sinh~;
#X obj 350 2475 cyclone/sinx~;
#X obj 350 2500 cyclone/slide~;
#X obj 350 2550 cyclone/spike~;
#X obj 350 2575 cyclone/svf~;
#X obj 350 2600 cyclone/tanh~;
#X obj 350 2625 cyclone/tanx~;
#X obj 349 2697 cyclone/train~;
#X obj 350 2722 cyclone/trapezoid~;
#X obj 350 2770 cyclone/triangle~;
#X obj 351 2821 cyclone/vectral~;
#X obj 351 2846 cyclone/wave~;
#X obj 351 2871 cyclone/zerox~;
#X obj 350 1418 cyclone/downsamp~;
#X obj 350 2673 cyclone/thresh~;
#X obj 350 753 cyclone/biquad~;
#X obj 351 2794 cyclone/trunc~;
#X obj 350 678 cyclone/atodb~;
#X obj 350 1296 cyclone/dbtoa~;
#X obj 350 2308 cyclone/round~;
#X obj 350 2403 cyclone/scale~;
#X obj 350 853 cyclone/bitsafe~;
#X obj 350 1101 cyclone/clip~;
#X obj 350 1662 cyclone/line~;
#X obj 350 2525 cyclone/snapshot~;
#X obj 350 1766 cyclone/matrix~;
#X obj 350 1564 cyclone/gate~;
#X obj 350 2427 cyclone/selector~;
#X obj 350 1223 cyclone/cross~;
#X obj 350 1466 cyclone/filtercoeff~;
#X obj 350 1988 cyclone/phaseshift~;
#X obj 350 1027 cyclone/cascade~;
#X obj 350 929 cyclone/buffer~;
#X obj 350 1318 cyclone/degrade~;
#X obj 350 1540 cyclone/freqshift~;
#X obj 350 1588 cyclone/hilbert~;
#X obj 350 2261 cyclone/rect~;
#X obj 350 2379 cyclone/saw~;
#X obj 350 2648 cyclone/teeth~;
#X obj 349 2746 cyclone/tri~;
#X text 311 427 Signal Objects:;
#X obj 412 226 cyclone/scope~ 130 130 256 3 128 -1 1 0 0 0 0 205 229
232 74 79 77 96 98 102 0;
#X obj 413 157 cyclone/number~;
#X text 406 64 [cyclone/comment]:;
#X obj 416 85 cyclone/comment 0 22 Courier ? 0 0 128 128 comment;
#X text 411 132 [cyclone/number~]:;
#X text 419 206 [cyclone/scope~]:;
#X text 359 30 GUI objects:;
#X text 44 28 Cyclone sub library and aliases:;
#X obj 147 2415 cyclone/unjoin;
#X obj 147 1372 cyclone/listfunnel;
#X restore 192 32 pd All_Cyclone_Objects;
#X obj 96 72 switch~;
#X obj 86 27 tgl 30 0 \$0-zxcx \$0-zxcxsfljsfl empty 17 7 0 10 -228856
-1 -1 0 1;
#X text 122 32 DSP;
#X msg 86 101 \; pd dsp \$1;
#N canvas 587 120 243 292 meter 0;
#X obj 66 150 cputime;
#X obj 66 40 loadbang;
#X obj 66 94 metro 1000;
#X obj 66 122 t b b;
#X obj 66 210 * 0.1;
#X obj 66 179 int;
#X obj 66 240 outlet;
#X obj 66 66 tgl 15 0 empty empty empty 17 7 0 10 -262144 -1 -1 1 1
;
#X connect 0 0 5 0;
#X connect 1 0 7 0;
#X connect 2 0 3 0;
#X connect 3 0 0 0;
#X connect 3 1 0 1;
#X connect 4 0 6 0;
#X connect 5 0 4 0;
#X connect 7 0 2 0;
#X restore 238 79 pd meter;
#X obj 238 107 nbx 4 14 -1e+37 1e+37 0 0 empty empty empty 0 -8 0 10
-261682 -1 -1 0 256;
#X connect 2 0 1 0;
#X connect 2 0 4 0;
#X connect 5 0 6 0;
