#N canvas 550 150 561 282 10;
#N canvas 433 69 649 620 All_Cyclone_Objects 0;
#X text 102 156 same as;
#X text 102 180 same as;
#X text 102 204 same as;
#X text 102 227 same as;
#X text 102 252 same as;
#X text 102 276 same as;
#X text 104 302 same as;
#X text 104 327 same as;
#X text 104 351 same as;
#X text 104 376 same as;
#X obj 161 156 cyclone/equals~;
#X obj 161 180 cyclone/notequals~;
#X obj 161 204 cyclone/lessthan~;
#X obj 161 227 cyclone/lessthaneq~;
#X obj 161 252 cyclone/greaterthan~;
#X obj 161 276 cyclone/greaterthaneq~;
#X obj 163 302 cyclone/modulo~;
#X obj 163 327 cyclone/rminus~;
#X obj 163 351 cyclone/rdiv~;
#X obj 164 376 cyclone/plusequals~;
#X text 103 96 same as;
#X text 103 118 same as;
#X obj 162 95 cyclone/rminus;
#X obj 162 118 cyclone/rdiv;
#X obj 147 449 cyclone/accum;
#X obj 147 474 cyclone/acos;
#X obj 147 529 cyclone/active;
#X obj 147 554 cyclone/anal;
#X obj 147 604 cyclone/asin;
#X obj 147 694 cyclone/bangbang;
#X obj 147 719 cyclone/bondo;
#X obj 147 794 cyclone/buddy;
#X obj 147 819 cyclone/capture;
#X obj 147 844 cyclone/cartopol;
#X obj 147 894 cyclone/coll;
#C restore;
#X obj 147 922 cyclone/cosh;
#X obj 147 947 cyclone/counter;
#X obj 147 972 cyclone/cycle;
#X obj 147 1018 cyclone/decide;
#X obj 147 1088 cyclone/drunk;
#X obj 147 1113 cyclone/flush;
#X obj 147 1138 cyclone/forward;
#X obj 147 1163 cyclone/fromsymbol;
#X obj 147 1188 cyclone/funbuff;
#C restore;
#X obj 147 1213 cyclone/funnel;
#X obj 147 1238 cyclone/gate;
#X obj 147 1263 cyclone/grab;
#X obj 147 1313 cyclone/iter;
#X obj 147 1437 cyclone/match;
#X obj 147 1462 cyclone/maximum;
#X obj 147 1487 cyclone/mean;
#X obj 147 1512 cyclone/midiflush;
#X obj 147 1537 cyclone/midiformat;
#X obj 147 1562 cyclone/midiparse;
#X obj 147 1590 cyclone/minimum;
#X obj 147 1613 cyclone/mousefilter;
#X obj 147 1663 cyclone/mtr;
#X obj 147 1688 cyclone/next;
#X obj 147 1713 cyclone/offer;
#X obj 147 1738 cyclone/onebang;
#X obj 147 1787 cyclone/past;
#X obj 147 1837 cyclone/poltocar;
#X obj 147 1883 cyclone/prepend;
#X obj 147 1908 cyclone/prob;
#C restore;
#X obj 147 2006 cyclone/seq;
#X obj 147 2031 cyclone/sinh;
#X obj 147 2056 cyclone/speedlim;
#X obj 147 2081 cyclone/spell;
#X obj 147 2106 cyclone/split;
#X obj 147 2131 cyclone/spray;
#X obj 147 2181 cyclone/substitute;
#X obj 147 2206 cyclone/sustain;
#X obj 147 2231 cyclone/switch;
#X obj 147 2281 cyclone/tanh;
#X obj 147 2306 cyclone/thresh;
#X obj 147 2356 cyclone/tosymbol;
#X obj 147 2406 cyclone/universal;
#X obj 147 2454 cyclone/urn;
#X obj 147 2504 cyclone/xbendin;
#X obj 147 2551 cyclone/xbendout;
#X obj 147 2601 cyclone/xnotein;
#X obj 147 2626 cyclone/xnoteout;
#X obj 147 579 cyclone/append;
#X obj 147 744 cyclone/borax;
#X obj 147 769 cyclone/bucket;
#X obj 147 869 cyclone/clip;
#X obj 147 1043 cyclone/decode;
#X obj 147 1288 cyclone/histo;
#X obj 147 1812 cyclone/peak;
#X obj 147 1638 cyclone/mousestate;
#X obj 147 2331 cyclone/togedge;
#X obj 147 2381 cyclone/trough;
#X obj 147 2479 cyclone/uzi;
#X obj 147 2527 cyclone/xbendin2;
#X obj 147 2575 cyclone/xbendout2;
#X obj 148 500 cyclone/acosh;
#X obj 147 627 cyclone/asinh;
#X obj 147 650 cyclone/atanh;
#X obj 147 672 cyclone/atodb;
#X obj 147 995 cyclone/dbtoa;
#X obj 147 1410 cyclone/loadmess;
#X obj 147 1762 cyclone/pak;
#X obj 147 1957 cyclone/round;
#X obj 147 1981 cyclone/scale;
#X obj 147 1859 cyclone/pong;
#X obj 147 1362 cyclone/linedrive;
#X obj 147 1337 cyclone/join;
#X obj 147 2256 cyclone/table;
#C restore;
#X obj 147 2156 cyclone/sprintf;
#X text 98 419 Control Objects:;
#X obj 350 450 cyclone/acos~;
#X obj 350 475 cyclone/acosh~;
#X obj 350 500 cyclone/allpass~;
#X obj 350 525 cyclone/asin~;
#X obj 350 550 cyclone/asinh~;
#X obj 350 575 cyclone/atan~;
#X obj 350 600 cyclone/atan2~;
#X obj 350 625 cyclone/atanh~;
#X obj 350 674 cyclone/average~;
#X obj 350 698 cyclone/avg~;
#X obj 350 748 cyclone/bitand~;
#X obj 350 773 cyclone/bitnot~;
#X obj 350 798 cyclone/bitor~;
#X obj 350 848 cyclone/bitshift~;
#X obj 350 873 cyclone/bitxor~;
#X obj 350 922 cyclone/buffir~;
#X obj 350 947 cyclone/capture~;
#X obj 350 972 cyclone/cartopol~;
#X obj 350 1021 cyclone/change~;
#X obj 350 1046 cyclone/click~;
#X obj 350 1096 cyclone/comb~;
#X obj 350 1121 cyclone/cosh~;
#X obj 350 1146 cyclone/cosx~;
#X obj 350 1171 cyclone/count~;
#X obj 350 1216 cyclone/curve~;
#X obj 350 1241 cyclone/cycle~;
#X obj 350 1312 cyclone/delay~;
#X obj 349 1337 cyclone/delta~;
#X obj 350 1361 cyclone/deltaclip~;
#X obj 350 1413 cyclone/edge~;
#X obj 350 1461 cyclone/frameaccum~;
#X obj 350 1486 cyclone/framedelta~;
#X obj 350 1582 cyclone/index~;
#X obj 350 1607 cyclone/kink~;
#X obj 350 1656 cyclone/lookup~;
#X obj 350 1684 cyclone/lores~;
#X obj 350 1734 cyclone/maximum~;
#X obj 350 1759 cyclone/minimum~;
#X obj 350 1784 cyclone/minmax~;
#X obj 350 1809 cyclone/mstosamps~;
#X obj 350 1834 cyclone/onepole~;
#X obj 350 1859 cyclone/overdrive~;
#X obj 350 1884 cyclone/peakamp~;
#X obj 350 1909 cyclone/peek~;
#X obj 350 1954 cyclone/phasewrap~;
#X obj 350 1979 cyclone/pink~;
#X obj 350 2004 cyclone/play~;
#X obj 350 2029 cyclone/poke~;
#X obj 350 2054 cyclone/poltocar~;
#X obj 350 2079 cyclone/pong~;
#X obj 350 2104 cyclone/pow~;
#X obj 350 2129 cyclone/rampsmooth~;
#X obj 350 2154 cyclone/rand~;
#X obj 350 2179 cyclone/record~;
#X obj 350 2227 cyclone/reson~;
#X obj 350 2275 cyclone/sah~;
#X obj 350 2300 cyclone/sampstoms~;
#X obj 350 2393 cyclone/sinh~;
#X obj 350 2418 cyclone/sinx~;
#X obj 350 2443 cyclone/slide~;
#X obj 350 2493 cyclone/spike~;
#X obj 350 2518 cyclone/svf~;
#X obj 350 2543 cyclone/tanh~;
#X obj 350 2568 cyclone/tanx~;
#X obj 349 2640 cyclone/train~;
#X obj 350 2665 cyclone/trapezoid~;
#X obj 350 2713 cyclone/triangle~;
#X obj 351 2764 cyclone/vectral~;
#X obj 351 2789 cyclone/wave~;
#X obj 351 2814 cyclone/zerox~;
#X obj 350 1388 cyclone/downsamp~;
#X obj 350 2616 cyclone/thresh~;
#X obj 350 723 cyclone/biquad~;
#X obj 351 2737 cyclone/trunc~;
#X obj 350 648 cyclone/atodb~;
#X obj 350 1266 cyclone/dbtoa~;
#X obj 350 2251 cyclone/round~;
#X obj 350 2346 cyclone/scale~;
#X obj 350 823 cyclone/bitsafe~;
#X obj 350 1071 cyclone/clip~;
#X obj 350 1632 cyclone/line~;
#X obj 350 2468 cyclone/snapshot~;
#X obj 350 1709 cyclone/matrix~;
#X obj 350 1534 cyclone/gate~;
#X obj 350 2370 cyclone/selector~;
#X obj 350 1193 cyclone/cross~;
#X obj 350 1436 cyclone/filtercoeff~;
#X obj 350 1931 cyclone/phaseshift~;
#X obj 350 997 cyclone/cascade~;
#X obj 350 899 cyclone/buffer~;
#X obj 350 1288 cyclone/degrade~;
#X obj 350 1510 cyclone/freqshift~;
#X obj 350 2204 cyclone/rect~;
#X obj 350 2322 cyclone/saw~;
#X obj 350 2591 cyclone/teeth~;
#X obj 349 2689 cyclone/tri~;
#X text 311 421 Signal Objects:;
#X obj 412 220 cyclone/scope~ 130 130 256 3 128 -1 1 0 0 0 0 205 229
232 74 79 77 96 98 102 0;
#X obj 413 151 cyclone/number~;
#X text 406 58 [cyclone/comment]:;
#X obj 416 79 cyclone/comment 0 22 Courier ? 0 0 128 128 comment;
#X text 411 126 [cyclone/number~]:;
#X text 419 200 [cyclone/scope~]:;
#X text 359 24 GUI objects:;
#X obj 147 2429 cyclone/unjoin;
#X obj 147 1386 cyclone/listfunnel;
#X obj 350 1558 cyclone/Hilbert~;
#X obj 97 65 cyclone/cyclone;
#X obj 70 95 !-;
#X obj 70 118 !/;
#X obj 70 155 ==~;
#X obj 70 179 !=~;
#X obj 70 204 <~;
#X obj 70 227 <=~;
#X obj 70 253 >~;
#X obj 70 276 >=~;
#X obj 71 302 %~;
#X obj 71 327 !-~;
#X obj 71 351 !/~;
#X obj 70 375 +=~;
#X text 43 20 Objects loaded from the Cyclone library and its aliases:
, f 39;
#X obj 147 2651 cyclone/zl len;
#X obj 147 1933 cyclone/pv x;
#X obj 147 1065 cyclone/ddg.mono;
#X restore 353 211 pd All_Cyclone_Objects;
#X obj 230 194 switch~;
#X obj 220 149 tgl 30 0 \$0-zxcx \$0-zxcxsfljsfl empty 17 7 0 10 -228856
-1 -1 0 1;
#X text 256 154 DSP;
#X msg 220 223 \; pd dsp \$1;
#N canvas 587 120 243 292 meter 0;
#X obj 66 150 cputime;
#X obj 66 40 loadbang;
#X obj 66 94 metro 1000;
#X obj 66 122 t b b;
#X obj 66 210 * 0.1;
#X obj 66 179 int;
#X obj 66 240 outlet;
#X obj 66 66 tgl 15 0 empty empty empty 17 7 0 10 -262144 -1 -1 1 1
;
#X connect 0 0 5 0;
#X connect 1 0 7 0;
#X connect 2 0 3 0;
#X connect 3 0 0 0;
#X connect 3 1 0 1;
#X connect 4 0 6 0;
#X connect 5 0 4 0;
#X connect 7 0 2 0;
#X restore 86 174 pd meter;
#X obj 86 202 nbx 4 18 -1e+37 1e+37 0 0 empty empty empty 0 -8 0 13
-228856 -1 -1 3 256;
#X obj 4 2 cnv 15 552 60 empty empty empty 6 13 0 18 -128992 -233080
0;
#X obj 29 5 comment 0 22 courier ? 0 224 228 220 cyclone;
#X obj 30 33 comment 0 14 courier ? 0 224 228 220 version 0.3 beta-4
;
#X obj 137 8 comment 0 14 courier ? 0 224 228 220 - a set of Pure Data
objects cloned from Max/MSP;
#X obj 272 35 comment 0 12 courier ? 0 224 228 220 https://github.com/porres/pd-cyclone
;
#X obj 35 88 comment 481 14 helvetica ? 0 0 0 0 In this patch you'll
find all objects available in cyclone. You can turn the DSP on to check
how much CPU load you have with all objects on and just test if they
all work.;
#X text 359 186 open this subpatch;
#X connect 2 0 1 0;
#X connect 2 0 4 0;
#X connect 5 0 6 0;
