#N canvas 688 46 560 675 10;
#X declare -lib cyclone;
#X obj 3 4 cnv 15 553 42 empty empty empty 20 12 0 14 -233017 -66577
0;
#N canvas 0 22 450 278 (subpatch) 0;
#X coords 0 1 100 -1 554 42 1 0 0;
#X restore 3 3 graph;
#X obj 306 4 cnv 15 250 40 empty empty empty 12 13 0 18 -128992 -233080
0;
#N canvas 382 141 749 319 (subpatch) 0;
#X coords 0 -1 1 1 252 42 2 100 100;
#X restore 305 3 pd;
#X obj 323 28 cyclone/comment 0 13 DejaVu\ Sans\ Mono empty 0 224 228
220 0 255 255 255 0 0 Objects cloned from Max/MSP;
#X obj 364 4 cyclone/comment 0 24 DejaVu\ Sans\ Mono empty 0 224 228
220 0 255 255 255 0 0 cyclone;
#X obj 11 3 cyclone/comment 0 33 DejaVu\ Sans\ Mono empty 0 0 0 0 0
255 255 255 0 0 cyclone;
#X obj 19 56 cyclone/comment 0 18 DejaVu\ Sans\ Mono empty 0 0 0 0
0 255 255 255 0 0 The Cyclone library;
#X obj 158 12 cyclone/comment 0 23 DejaVu\ Sans\ Mono empty 0 0 0 0
0 255 255 255 0 0 (library);
#X msg 157 399 about;
#X text 63 150 For more information on the loaded objects \, check:
;
#X obj 373 260 declare -lib cyclone;
#N canvas 604 130 484 477 operators 0;
#X text 34 145 Comparatives:;
#X text 45 368 Accumulator:;
#X text 215 100 same as;
#X text 215 124 same as;
#X text 215 148 same as;
#X text 215 171 same as;
#X text 215 196 same as;
#X text 215 220 same as;
#X text 217 253 same as;
#X text 217 334 same as;
#X text 217 315 same as;
#X text 217 293 same as;
#X text 217 273 same as;
#X text 217 369 same as;
#X text 37 286 Math objects:;
#X obj 274 100 cyclone/equals~;
#X obj 274 124 cyclone/notequals~;
#X obj 274 148 cyclone/lessthan~;
#X obj 274 171 cyclone/lessthaneq~;
#X obj 274 196 cyclone/greaterthan~;
#X obj 274 220 cyclone/greaterthaneq~;
#X obj 276 253 cyclone/modulo~;
#X obj 276 314 cyclone/rminus;
#X obj 276 334 cyclone/rminus~;
#X obj 276 273 cyclone/rdiv;
#X obj 276 293 cyclone/rdiv~;
#X obj 277 369 cyclone/plusequals~;
#X obj 273 68 cyclone/comment 0 18 DejaVu\ Sans\ Mono empty 0 0 0 0
0 255 255 255 0 0 comment;
#X obj 78 68 cyclone/comment 0 18 DejaVu\ Sans\ Mono empty 0 0 0 0
0 255 255 255 0 0 comment;
#X obj 133 99 cyclone/==~;
#X obj 133 123 cyclone/!=~;
#X obj 133 148 cyclone/<~;
#X obj 133 171 cyclone/<=~;
#X obj 133 197 cyclone/>~;
#X obj 133 220 cyclone/>=~;
#X obj 134 253 cyclone/%~;
#X obj 134 314 cyclone/!-;
#X obj 134 334 cyclone/!-~;
#X obj 134 273 cyclone/!/;
#X obj 134 293 cyclone/!/~;
#X obj 133 368 cyclone/+=~;
#X text 29 17 You can also find alphanumeric versions of these objects
(whith the same name alias as in Max/MSP) as single separate binaries
\, they are:, f 70;
#X text 89 415 Note that even though the non-alphanumeric versions
come from a single binary pack \, it is also possible to load them
with the "cyclone/" prefix., f 56;
#X restore 375 149 pd operators;
#X text 63 270 Check declare's help file for more information.;
#X text 64 294 And see https://github.com/porres/pd-cyclone/wiki/How-To-Install
for more details., f 64;
#X text 63 178 Check "All About Cyclone" =>;
#X obj 246 178 cyclone/All_about_cyclone;
#X obj 3 649 cnv 15 552 21 empty empty empty 20 12 0 14 -233017 -33289
0;
#X obj 4 534 cnv 3 550 3 empty empty inlets 8 12 0 13 -228856 -1 0
;
#X obj 4 582 cnv 3 550 3 empty empty outlets 8 12 0 13 -228856 -1 0
;
#X obj 4 617 cnv 3 550 3 empty empty arguments 8 12 0 13 -228856 -1
0;
#X obj 123 542 cnv 17 3 32 empty empty 0 5 9 0 16 -228856 -162280 0
;
#X obj 123 591 cnv 17 3 17 empty empty 0 5 9 0 16 -228856 -162280 0
;
#X text 242 626 (none);
#X text 157 541 about;
#X text 145 558 version;
#X text 207 541 - prints library information on the terimnal;
#X text 163 591 list;
#X text 207 558 - outputs version informaton as a list;
#X text 207 592 - version (major \, minor \, bugfix);
#X text 63 98 The cyclone's single binary pack contains the cyclone
operators \, which are: [!-] \, [!-~] \, [!/] \, [!/~] \, [!=~] \,
[%~] \, [+=~] \, [<=~] \, [<~] \, [==~] \, [>=~] and [>~]. These objects
with non-alphanumeric names need to be loaded as a library to avoid
issues., f 71;
#X text 63 203 The cyclone library also automatically loads cyclone's
path to Pd so you can load the separate binaries. Objects from the
cyclone library are mostly a set of separate binaries \, but also contains
a few abstractions. You can load the cyclone library via "Startup".
Alternatively \, you can use [declare] as follows:, f 71;
#X msg 202 399 version;
#X text 61 325 The binary is also loaded as the cyclone object. This
also loads the library \, but you shouldn't load it this way! The object
only accepts the "about" message \, which prints basic information
(objects \, version \, release date) on the terminal and the "version"
message that outputs the cyclone version as a list of major \, minor
\, bugfix., f 71;
#X symbolatom 202 503 20 0 0 0 - - -;
#X obj 202 427 cyclone/cyclone;
#X obj 214 453 print version;
#X obj 202 478 cyclone/sprintf symout cyclone %d.%d-%d;
#X connect 9 0 35 0;
#X connect 32 0 35 0;
#X connect 35 0 36 0;
#X connect 35 0 37 0;
#X connect 37 0 34 0;
