#N canvas 295 331 813 307 10;
#X obj 24 24 inlet;
#N canvas 172 51 533 410 rename 0;
#X obj 319 189 r \$0-name;
#X obj 59 76 symbol;
#X obj 59 50 inlet;
#X obj 162 186 cyclone/uzi 1 0;
#X obj 135 138 v ch_\$0;
#X obj 135 161 sel 1;
#X obj 212 130 s \$0-new-name;
#X obj 390 190 r \$0-new-name;
#X obj 59 132 s \$0-name;
#X obj 59 105 trigger symbol bang symbol;
#X obj 204 285 r \$0-name;
#X obj 147 251 r \$0-new-name;
#X obj 249 217 pack float symbol symbol;
#X msg 249 242 \; \$1-\$2 rename \$1-\$3;
#X obj 135 311 cyclone/join;
#X msg 147 283 set \$1;
#X msg 135 337 \; \$1 rename \$2;
#X connect 0 0 12 1;
#X connect 1 0 9 0;
#X connect 2 0 1 0;
#X connect 3 2 12 0;
#X connect 4 0 5 0;
#X connect 5 0 14 0;
#X connect 5 1 3 0;
#X connect 7 0 12 2;
#X connect 9 0 8 0;
#X connect 9 1 4 0;
#X connect 9 2 6 0;
#X connect 10 0 14 1;
#X connect 11 0 15 0;
#X connect 12 0 13 0;
#X connect 14 0 16 0;
#X connect 15 0 14 0;
#X restore 64 100 pd rename;
#N canvas 803 185 479 442 \$0-buffers 0;
#X coords 0 0 0 0 10 20 0;
#X restore 627 59 pd \$0-buffers;
#N canvas 386 286 457 330 clear 0;
#X obj 301 150 r \$0-name;
#X obj 202 177 pack float symbol;
#X msg 202 201 \; \$1-\$2 const 0;
#X obj 88 25 inlet;
#X obj 115 142 cyclone/uzi 1 0;
#X obj 88 94 v ch_\$0;
#X obj 88 58 t b f;
#X obj 88 117 sel 1;
#X obj 121 168 r \$0-name;
#X obj 88 218 pack s f;
#X obj 88 189 symbol;
#X msg 88 246 \; \$1 const 0;
#X connect 0 0 1 1;
#X connect 1 0 2 0;
#X connect 3 0 6 0;
#X connect 4 2 1 0;
#X connect 5 0 7 0;
#X connect 6 0 5 0;
#X connect 6 1 9 1;
#X connect 7 0 10 0;
#X connect 7 1 4 0;
#X connect 8 0 10 1;
#X connect 9 0 11 0;
#X connect 10 0 9 0;
#X restore 24 124 pd clear;
#N canvas 645 213 502 387 fill 0;
#X obj 65 22 inlet;
#X obj 92 190 cyclone/uzi 1 0;
#X obj 65 142 v ch_\$0;
#X obj 314 189 r \$0-name;
#X obj 179 215 pack float float symbol;
#X msg 179 239 \; \$1-\$3 const \$2;
#X obj 134 77 route bang;
#X msg 134 101 1;
#N canvas 447 25 577 511 sin 0;
#X obj 329 222 r \$0-name;
#X obj 284 246 pack f s;
#X obj 141 317 cyclone/uzi 1 0;
#X obj 314 416 tabwrite;
#X obj 473 279 list;
#X obj 395 202 list length;
#X obj 395 229 > 1;
#X obj 395 253 sel 0 1;
#X obj 473 302 /;
#X obj 395 177 trigger list list;
#X obj 434 281 list;
#X obj 62 46 inlet;
#X obj 214 245 r \$0-size;
#X obj 179 250 f;
#X obj 179 217 trigger bang float;
#X obj 141 288 trigger float float;
#X obj 62 80 trigger bang list;
#X obj 128 369 expr sin(($f1 / ($f2 / $f3)) * 2 * pi_\$0) \; $f1;
#X obj 118 173 cyclone/uzi 1 0;
#X obj 62 112 v ch_\$0;
#X obj 98 223 r \$0-name;
#X obj 65 247 symbol;
#X obj 65 274 t b s;
#X msg 78 301 set \$1;
#X msg 284 272 set \$1-\$2;
#X obj 62 135 sel 1 0;
#X obj 26 178 t b b;
#X obj 57 200 s \$0-set-buff;
#X connect 0 0 1 1;
#X connect 1 0 24 0;
#X connect 2 2 17 0;
#X connect 4 0 8 0;
#X connect 5 0 6 0;
#X connect 6 0 7 0;
#X connect 7 0 10 0;
#X connect 7 1 4 0;
#X connect 8 0 17 2;
#X connect 9 0 5 0;
#X connect 9 1 4 1;
#X connect 9 1 10 1;
#X connect 10 0 17 2;
#X connect 11 0 16 0;
#X connect 12 0 13 1;
#X connect 13 0 15 0;
#X connect 14 0 13 0;
#X connect 14 1 1 0;
#X connect 15 0 2 0;
#X connect 15 1 17 1;
#X connect 16 0 19 0;
#X connect 16 1 9 0;
#X connect 17 0 3 0;
#X connect 17 1 3 1;
#X connect 18 2 14 0;
#X connect 19 0 25 0;
#X connect 20 0 21 1;
#X connect 21 0 22 0;
#X connect 22 0 13 0;
#X connect 22 1 23 0;
#X connect 23 0 3 0;
#X connect 24 0 3 0;
#X connect 25 0 21 0;
#X connect 25 1 26 0;
#X connect 25 2 18 0;
#X connect 26 0 21 0;
#X connect 26 1 27 0;
#X restore 152 133 pd sin;
#X obj 204 77 route bang;
#X msg 204 101 1;
#X obj 65 106 t b f;
#N canvas 294 40 740 581 cos 0;
#X obj 467 249 r \$0-name;
#X obj 422 273 pack f s;
#X obj 279 344 cyclone/uzi 1 0;
#X obj 461 443 tabwrite;
#X obj 230 221 cyclone/uzi 1 0;
#X obj 620 306 list;
#X obj 542 229 list length;
#X obj 542 256 > 1;
#X obj 542 280 sel 0 1;
#X obj 620 329 /;
#X obj 542 204 trigger list list;
#X obj 581 308 list;
#X obj 85 114 inlet;
#X obj 352 272 r \$0-size;
#X obj 317 277 f;
#X obj 317 244 trigger bang float;
#X obj 279 315 trigger float float;
#X obj 85 148 trigger bang list;
#X obj 275 396 expr cos(($f1 / ($f2 / $f3)) * 2 * pi_\$0) \; $f1;
#X obj 85 172 v ch_\$0;
#X obj 118 279 r \$0-name;
#X obj 85 303 symbol;
#X obj 85 330 t b s;
#X msg 98 357 set \$1;
#X msg 422 299 set \$1-\$2;
#X obj 85 196 sel 1 0;
#X obj 65 226 t b b;
#X obj 96 248 s \$0-set-buff;
#X connect 0 0 1 1;
#X connect 1 0 24 0;
#X connect 2 2 18 0;
#X connect 4 2 15 0;
#X connect 5 0 9 0;
#X connect 6 0 7 0;
#X connect 7 0 8 0;
#X connect 8 0 11 0;
#X connect 8 1 5 0;
#X connect 9 0 18 2;
#X connect 10 0 6 0;
#X connect 10 1 5 1;
#X connect 10 1 11 1;
#X connect 11 0 18 2;
#X connect 12 0 17 0;
#X connect 13 0 14 1;
#X connect 14 0 16 0;
#X connect 15 0 14 0;
#X connect 15 1 1 0;
#X connect 16 0 2 0;
#X connect 16 1 18 1;
#X connect 17 0 19 0;
#X connect 17 1 10 0;
#X connect 18 0 3 0;
#X connect 18 1 3 1;
#X connect 19 0 25 0;
#X connect 20 0 21 1;
#X connect 21 0 22 0;
#X connect 22 0 14 0;
#X connect 22 1 23 0;
#X connect 23 0 3 0;
#X connect 24 0 3 0;
#X connect 25 0 21 0;
#X connect 25 1 26 0;
#X connect 25 2 4 0;
#X connect 26 0 21 0;
#X connect 26 1 27 0;
#X restore 219 133 pd cos;
#X obj 99 254 r \$0-name;
#X obj 66 304 pack s f;
#X obj 66 275 symbol;
#X msg 66 332 \; \$1 const \$2;
#N canvas 206 189 276 214 pi 0;
#X obj 97 94 expr atan(1) * 4;
#X obj 97 66 loadbang;
#X obj 97 120 v pi_\$0;
#X connect 0 0 2 0;
#X connect 1 0 0 0;
#X restore 392 120 pd pi;
#X obj 65 49 route float sin cos sinc, f 47;
#N canvas 258 23 674 597 sinc 0;
#X obj 521 256 r \$0-name;
#X obj 476 295 pack f s;
#X obj 253 365 cyclone/uzi 1 0;
#X obj 253 524 tabwrite;
#X obj 264 200 cyclone/uzi 1 0;
#X obj 35 21 inlet;
#X obj 452 255 r \$0-size;
#X obj 397 287 f;
#X obj 119 196 v ch_\$0;
#X obj 152 301 r \$0-name;
#X obj 119 325 symbol;
#X obj 119 352 t b s;
#X msg 146 379 set \$1;
#X obj 484 502 v x_\$0;
#X obj 533 491 /;
#X msg 533 470 1;
#X obj 533 513 v r_\$0;
#X obj 533 448 t b f;
#X obj 253 459 expr if($f1 == 0 \, 1 \, sin(x_\$0) * r_\$0) \; $f1 * 2*pi_\$0 * $f2;
#X obj 216 258 / 2;
#X obj 119 159 t b f;
#X obj 189 197 sel 0;
#X obj 216 228 abs;
#X obj 397 322 t f f;
#X obj 397 254 t b f;
#X obj 35 55 route bang;
#X obj 164 135 != 0;
#X obj 92 128 sel 0;
#X obj 164 159 v half_\$0;
#X obj 253 394 expr if(half_\$0 == 1 \, ($f1 / $f2) \, ($f1 - $f2/2) / ($f2/2)) \; $f1, f 34;
#X obj 164 57 list length;
#X obj 164 82 sel 1;
#X msg 164 107 0;
#X obj 92 79 t l l;
#X obj 92 103 unpack;
#X msg 476 321 set \$1-\$2;
#N canvas 154 73 351 400 fill_1 0;
#X obj 75 32 inlet;
#X obj 278 140 r \$0-name;
#X obj 233 179 pack f s;
#X obj 146 98 cyclone/uzi 1 0;
#X obj 75 69 v ch_\$0;
#X obj 75 206 symbol;
#X msg 233 205 symbol \$1-\$2;
#X obj 227 314 send, f 12;
#X msg 227 264 const 1;
#X obj 177 275 t b s;
#X obj 233 235 trigger b s;
#X obj 75 99 sel 1 0;
#X obj 56 136 t b b;
#X obj 87 158 s \$0-set-buff;
#X connect 0 0 4 0;
#X connect 1 0 2 1;
#X connect 1 0 5 1;
#X connect 2 0 6 0;
#X connect 3 2 2 0;
#X connect 4 0 11 0;
#X connect 5 0 9 0;
#X connect 6 0 10 0;
#X connect 8 0 7 0;
#X connect 9 0 8 0;
#X connect 9 1 7 1;
#X connect 10 0 8 0;
#X connect 10 1 7 1;
#X connect 11 0 5 0;
#X connect 11 1 12 0;
#X connect 11 2 3 0;
#X connect 12 0 5 0;
#X connect 12 1 13 0;
#X restore 44 180 pd fill_1;
#X obj 119 226 sel 1 0;
#X obj 81 255 t b b;
#X obj 112 277 s \$0-set-buff;
#X connect 0 0 1 1;
#X connect 1 0 35 0;
#X connect 2 2 29 0;
#X connect 4 2 24 0;
#X connect 5 0 25 0;
#X connect 6 0 7 1;
#X connect 7 0 23 0;
#X connect 8 0 37 0;
#X connect 9 0 10 1;
#X connect 10 0 11 0;
#X connect 11 0 7 0;
#X connect 11 1 12 0;
#X connect 12 0 3 0;
#X connect 14 0 16 0;
#X connect 15 0 14 0;
#X connect 17 0 15 0;
#X connect 17 1 14 1;
#X connect 18 0 3 0;
#X connect 18 1 13 0;
#X connect 18 1 17 0;
#X connect 19 0 18 1;
#X connect 20 0 8 0;
#X connect 20 1 21 0;
#X connect 21 1 22 0;
#X connect 22 0 19 0;
#X connect 23 0 2 0;
#X connect 23 1 29 1;
#X connect 24 0 7 0;
#X connect 24 1 1 0;
#X connect 25 1 33 0;
#X connect 26 0 28 0;
#X connect 27 0 36 0;
#X connect 27 1 20 0;
#X connect 29 0 18 0;
#X connect 29 1 3 1;
#X connect 30 0 31 0;
#X connect 31 0 32 0;
#X connect 32 0 26 0;
#X connect 33 0 34 0;
#X connect 33 1 30 0;
#X connect 34 0 27 0;
#X connect 34 1 26 0;
#X connect 35 0 3 0;
#X connect 37 0 10 0;
#X connect 37 1 38 0;
#X connect 37 2 4 0;
#X connect 38 0 10 0;
#X connect 38 1 39 0;
#X restore 274 134 pd sinc;
#X obj 65 163 sel 1 0;
#X obj 46 204 t b b;
#X obj 77 226 s \$0-set-buff;
#X connect 0 0 18 0;
#X connect 1 2 4 0;
#X connect 2 0 20 0;
#X connect 3 0 4 2;
#X connect 4 0 5 0;
#X connect 6 0 7 0;
#X connect 6 1 8 0;
#X connect 7 0 8 0;
#X connect 9 0 10 0;
#X connect 9 1 12 0;
#X connect 10 0 12 0;
#X connect 11 0 2 0;
#X connect 11 1 4 1;
#X connect 11 1 14 1;
#X connect 13 0 15 1;
#X connect 14 0 16 0;
#X connect 15 0 14 0;
#X connect 18 0 11 0;
#X connect 18 1 6 0;
#X connect 18 2 9 0;
#X connect 18 3 19 0;
#X connect 20 0 15 0;
#X connect 20 1 21 0;
#X connect 20 2 1 0;
#X connect 21 0 15 0;
#X connect 21 1 22 0;
#X restore 228 124 pd fill;
#N canvas 727 241 450 300 vis 0;
#X msg 241 123 vis \$1;
#X msg 241 96 1;
#X msg 273 96 0;
#X obj 231 149 send pd-\$0-buffers;
#X obj 212 54 inlet;
#X obj 287 58 inlet;
#X connect 0 0 3 0;
#X connect 1 0 0 0;
#X connect 2 0 0 0;
#X connect 4 0 1 0;
#X connect 5 0 2 0;
#X restore 149 100 pd vis;
#N canvas 745 220 574 222 apply 0;
#X obj 35 24 inlet;
#N canvas 318 219 560 455 gain 0;
#X obj 409 175 r \$0-name;
#X obj 364 199 pack f s;
#X obj 197 231 cyclone/uzi 1 0;
#X obj 231 205 r \$0-size;
#X obj 197 204 f;
#X obj 172 133 cyclone/uzi 1 0;
#X obj 172 105 v ch_\$0;
#X obj 259 166 trigger bang float;
#X obj 172 78 trigger bang float;
#X obj 277 102 v gain_\$0;
#X obj 172 35 inlet;
#X obj 311 294 tabread;
#X obj 311 390 tabwrite;
#X obj 311 318 expr $f1 * gain_\$0;
#X obj 284 254 t f f;
#X obj 290 342 swap;
#X obj 105 135 sel 1;
#X msg 364 225 set \$1-\$2;
#X obj 142 168 r \$0-name;
#X obj 109 192 symbol;
#X obj 109 226 t b s;
#X msg 168 263 set \$1;
#X connect 0 0 1 1;
#X connect 1 0 17 0;
#X connect 2 2 14 0;
#X connect 3 0 4 1;
#X connect 4 0 2 0;
#X connect 5 2 7 0;
#X connect 6 0 16 0;
#X connect 7 0 4 0;
#X connect 7 1 1 0;
#X connect 8 0 6 0;
#X connect 8 1 9 0;
#X connect 10 0 8 0;
#X connect 11 0 13 0;
#X connect 13 0 15 1;
#X connect 14 0 15 0;
#X connect 14 1 11 0;
#X connect 15 0 12 0;
#X connect 15 1 12 1;
#X connect 16 0 19 0;
#X connect 16 1 5 0;
#X connect 17 0 11 0;
#X connect 17 0 12 0;
#X connect 18 0 19 1;
#X connect 19 0 20 0;
#X connect 20 0 4 0;
#X connect 20 1 21 0;
#X connect 21 0 11 0;
#X connect 21 0 12 0;
#X restore 35 117 pd gain;
#N canvas 601 88 532 489 offset 0;
#X obj 413 180 r \$0-name;
#X obj 368 204 pack f s;
#X obj 263 236 cyclone/uzi 1 0;
#X obj 297 210 r \$0-size;
#X obj 263 209 f;
#X obj 176 138 cyclone/uzi 1 0;
#X obj 176 110 v ch_\$0;
#X obj 263 171 trigger bang float;
#X obj 176 83 trigger bang float;
#X obj 176 40 inlet;
#X obj 315 319 tabread;
#X obj 312 407 tabwrite;
#X msg 368 230 \$1-\$2;
#X obj 368 273 cyclone/prepend set;
#X obj 288 279 t f f;
#X obj 288 375 swap;
#X obj 281 107 v offset_\$0;
#X obj 315 343 expr $f1 + offset_\$0;
#X obj 128 139 sel 1;
#X obj 148 168 r \$0-name;
#X obj 128 196 symbol;
#X obj 128 235 t b s;
#X connect 0 0 1 1;
#X connect 1 0 12 0;
#X connect 2 2 14 0;
#X connect 3 0 4 1;
#X connect 4 0 2 0;
#X connect 5 2 7 0;
#X connect 6 0 18 0;
#X connect 7 0 4 0;
#X connect 7 1 1 0;
#X connect 8 0 6 0;
#X connect 8 1 16 0;
#X connect 9 0 8 0;
#X connect 10 0 17 0;
#X connect 12 0 13 0;
#X connect 13 0 10 0;
#X connect 13 0 11 0;
#X connect 14 0 15 0;
#X connect 14 1 10 0;
#X connect 15 0 11 0;
#X connect 15 1 11 1;
#X connect 17 0 15 1;
#X connect 18 0 20 0;
#X connect 18 1 5 0;
#X connect 19 0 20 1;
#X connect 20 0 21 0;
#X connect 21 0 4 0;
#X connect 21 1 13 0;
#X restore 49 92 pd offset;
#N canvas 132 100 605 629 hanning 0;
#X obj 374 246 r \$0-name;
#X obj 329 270 pack f s;
#X obj 137 204 cyclone/uzi 1 0;
#X obj 110 138 v ch_\$0;
#X obj 224 237 trigger bang float;
#X obj 110 48 inlet;
#X obj 276 397 tabread;
#X obj 329 561 tabwrite;
#X msg 329 328 \$1-\$2;
#X obj 329 351 cyclone/prepend set;
#X obj 249 369 t f f;
#X obj 249 305 r \$0-size;
#X obj 110 169 sel 1;
#X obj 125 232 r \$0-name;
#X obj 92 256 symbol;
#X obj 92 358 t b s;
#X obj 110 72 route half;
#X obj 110 96 t b b;
#X obj 167 96 t b b;
#X msg 194 119 0;
#X msg 164 119 1;
#X obj 180 148 v half_\$0;
#X obj 162 333 cyclone/uzi 1 0;
#X obj 197 458 expr if (half_\$0 == 1 \, (($f1 * 0.5) / $f2) + 0.5 \, $f1/$f2) \; $f1, f 30;
#X obj 162 511 expr $f2 * (cos(pi_\$0 + ($f1 * 2*pi_\$0)) * 0.5 + 0.5), f 61;
#X connect 0 0 1 1;
#X connect 1 0 8 0;
#X connect 2 2 4 0;
#X connect 3 0 12 0;
#X connect 4 0 22 0;
#X connect 4 1 1 0;
#X connect 5 0 16 0;
#X connect 6 0 24 1;
#X connect 8 0 9 0;
#X connect 9 0 6 0;
#X connect 9 0 7 0;
#X connect 10 0 23 0;
#X connect 10 1 6 0;
#X connect 11 0 22 1;
#X connect 11 0 23 1;
#X connect 12 0 14 0;
#X connect 12 1 2 0;
#X connect 13 0 14 1;
#X connect 14 0 15 0;
#X connect 15 0 22 0;
#X connect 15 1 9 0;
#X connect 16 0 17 0;
#X connect 16 1 18 0;
#X connect 17 0 3 0;
#X connect 17 1 20 0;
#X connect 18 0 3 0;
#X connect 18 1 19 0;
#X connect 19 0 21 0;
#X connect 20 0 21 0;
#X connect 22 2 10 0;
#X connect 23 0 24 0;
#X connect 23 1 7 1;
#X connect 24 0 7 0;
#X restore 141 135 pd hanning;
#N canvas 727 125 654 634 blackman 0;
#X obj 374 246 r \$0-name;
#X obj 329 270 pack f s;
#X obj 137 204 cyclone/uzi 1 0;
#X obj 110 138 v ch_\$0;
#X obj 224 237 trigger bang float;
#X obj 110 48 inlet;
#X obj 276 397 tabread;
#X obj 329 561 tabwrite;
#X msg 329 328 \$1-\$2;
#X obj 329 351 cyclone/prepend set;
#X obj 249 369 t f f;
#X obj 249 305 r \$0-size;
#X obj 110 169 sel 1;
#X obj 125 232 r \$0-name;
#X obj 92 256 symbol;
#X obj 92 358 t b s;
#X obj 110 72 route half;
#X obj 110 96 t b b;
#X obj 167 96 t b b;
#X msg 194 119 0;
#X msg 164 119 1;
#X obj 180 148 v half_\$0;
#X obj 162 333 cyclone/uzi 1 0;
#X obj 197 458 expr if (half_\$0 == 1 \, (($f1 * 0.5) / $f2) + 0.5 \, $f1/$f2) \; $f1, f 30;
#X obj 197 509 expr $f2 * (0.42 - (cos($f1 * 2*pi_\$0) * 0.5)) + (cos($f1 * 4*pi_\$0) * 0.08), f 47;
#X connect 0 0 1 1;
#X connect 1 0 8 0;
#X connect 2 2 4 0;
#X connect 3 0 12 0;
#X connect 4 0 22 0;
#X connect 4 1 1 0;
#X connect 5 0 16 0;
#X connect 6 0 24 1;
#X connect 8 0 9 0;
#X connect 9 0 6 0;
#X connect 9 0 7 0;
#X connect 10 0 23 0;
#X connect 10 1 6 0;
#X connect 11 0 22 1;
#X connect 11 0 23 1;
#X connect 12 0 14 0;
#X connect 12 1 2 0;
#X connect 13 0 14 1;
#X connect 14 0 15 0;
#X connect 15 0 22 0;
#X connect 15 1 9 0;
#X connect 16 0 17 0;
#X connect 16 1 18 0;
#X connect 17 0 3 0;
#X connect 17 1 20 0;
#X connect 18 0 3 0;
#X connect 18 1 19 0;
#X connect 19 0 21 0;
#X connect 20 0 21 0;
#X connect 22 2 10 0;
#X connect 23 0 24 0;
#X connect 23 1 7 1;
#X connect 24 0 7 0;
#X restore 218 89 pd blackman;
#N canvas 296 45 515 593 hamming 0;
#X obj 324 216 r \$0-name;
#X obj 279 240 pack f s;
#X obj 87 174 cyclone/uzi 1 0;
#X obj 60 108 v ch_\$0;
#X obj 174 207 trigger bang float;
#X obj 60 18 inlet;
#X obj 226 375 tabread;
#X obj 279 531 tabwrite;
#X msg 279 298 \$1-\$2;
#X obj 279 321 cyclone/prepend set;
#X obj 199 339 t f f;
#X obj 199 275 r \$0-size;
#X obj 60 139 sel 1;
#X obj 75 202 r \$0-name;
#X obj 42 226 symbol;
#X obj 42 328 t b s;
#X obj 60 42 route half;
#X obj 60 66 t b b;
#X obj 117 66 t b b;
#X msg 144 89 0;
#X msg 114 89 1;
#X obj 130 118 v half_\$0;
#X obj 112 303 cyclone/uzi 1 0;
#X obj 147 432 expr if (half_\$0 == 1 \, (($f1 * 0.5) / $f2) + 0.5 \, $f1/$f2) \; $f1, f 30;
#X obj 147 482 expr $f2 * (cos(pi_\$0 + ($f1 * 2*pi_\$0)) * 0.46 + 0.54);
#X connect 0 0 1 1;
#X connect 1 0 8 0;
#X connect 2 2 4 0;
#X connect 3 0 12 0;
#X connect 4 0 22 0;
#X connect 4 1 1 0;
#X connect 5 0 16 0;
#X connect 6 0 24 1;
#X connect 8 0 9 0;
#X connect 9 0 6 0;
#X connect 9 0 7 0;
#X connect 10 0 23 0;
#X connect 10 1 6 0;
#X connect 11 0 22 1;
#X connect 11 0 23 1;
#X connect 12 0 14 0;
#X connect 12 1 2 0;
#X connect 13 0 14 1;
#X connect 14 0 15 0;
#X connect 15 0 22 0;
#X connect 15 1 9 0;
#X connect 16 0 17 0;
#X connect 16 1 18 0;
#X connect 17 0 3 0;
#X connect 17 1 20 0;
#X connect 18 0 3 0;
#X connect 18 1 19 0;
#X connect 19 0 21 0;
#X connect 20 0 21 0;
#X connect 22 2 10 0;
#X connect 23 0 24 0;
#X connect 23 1 7 1;
#X connect 24 0 7 0;
#X restore 194 112 pd hamming;
#N canvas 225 220 519 522 triangle 0;
#X obj 328 221 r \$0-name;
#X obj 283 245 pack f s;
#X obj 91 179 cyclone/uzi 1 0;
#X obj 178 212 trigger bang float;
#X obj 64 24 inlet;
#X obj 404 361 tabread;
#X obj 283 453 tabwrite;
#X msg 283 271 \$1-\$2;
#X obj 283 294 cyclone/prepend set;
#X obj 204 263 r \$0-size;
#X obj 191 324 t f f;
#X obj 64 152 sel 1;
#X obj 97 207 r \$0-name;
#X obj 64 233 symbol;
#X obj 64 262 t b s;
#X obj 117 297 cyclone/uzi 1 0;
#X obj 64 122 v ch_\$0;
#X obj 64 56 route half;
#X obj 64 80 t b b;
#X obj 121 80 t b b;
#X msg 148 103 0;
#X msg 118 103 1;
#X obj 134 132 v half_\$0;
#X obj 137 392 expr $f3 * if(half_\$0 == 1 \, 1 - ($f1 / $f2) \, 1 - (abs($f1 - ($f2 * 0.5)) / ($f2 * 0.5))) \; $f1, f 45;
#X connect 0 0 1 1;
#X connect 1 0 7 0;
#X connect 2 2 3 0;
#X connect 3 0 15 0;
#X connect 3 1 1 0;
#X connect 4 0 17 0;
#X connect 5 0 23 2;
#X connect 7 0 8 0;
#X connect 8 0 5 0;
#X connect 8 0 6 0;
#X connect 9 0 15 1;
#X connect 9 0 23 1;
#X connect 10 0 23 0;
#X connect 10 1 5 0;
#X connect 11 0 13 0;
#X connect 11 1 2 0;
#X connect 12 0 13 1;
#X connect 13 0 14 0;
#X connect 14 0 15 0;
#X connect 14 1 8 0;
#X connect 15 2 10 0;
#X connect 16 0 11 0;
#X connect 17 0 18 0;
#X connect 17 1 19 0;
#X connect 18 0 16 0;
#X connect 18 1 21 0;
#X connect 19 0 16 0;
#X connect 19 1 20 0;
#X connect 20 0 22 0;
#X connect 21 0 22 0;
#X connect 23 0 6 0;
#X connect 23 1 6 1;
#X restore 300 123 pd triangle;
#N canvas 715 130 552 528 welch 0;
#X obj 328 221 r \$0-name;
#X obj 283 245 pack f s;
#X obj 91 179 cyclone/uzi 1 0;
#X obj 178 212 trigger bang float;
#X obj 64 24 inlet;
#X obj 434 361 tabread;
#X obj 283 453 tabwrite;
#X msg 283 271 \$1-\$2;
#X obj 283 294 cyclone/prepend set;
#X obj 204 263 r \$0-size;
#X obj 204 324 t f f;
#X obj 64 152 sel 1;
#X obj 97 207 r \$0-name;
#X obj 64 233 symbol;
#X obj 64 262 t b s;
#X obj 117 297 cyclone/uzi 1 0;
#X obj 64 122 v ch_\$0;
#X obj 64 56 route half;
#X obj 64 80 t b b;
#X obj 121 80 t b b;
#X msg 148 103 0;
#X msg 118 103 1;
#X obj 134 132 v half_\$0;
#X obj 137 392 expr $f3 * if(half_\$0 == 1 \, 1 - pow($f1 / $f2 \, 2) \, 1 - pow((($f1 - ($f2 * 0.5)) / ($f2 * 0.5)) \, 2)) \; $f1, f 50;
#X connect 0 0 1 1;
#X connect 1 0 7 0;
#X connect 2 2 3 0;
#X connect 3 0 15 0;
#X connect 3 1 1 0;
#X connect 4 0 17 0;
#X connect 5 0 23 2;
#X connect 7 0 8 0;
#X connect 8 0 5 0;
#X connect 8 0 6 0;
#X connect 9 0 15 1;
#X connect 9 0 23 1;
#X connect 10 0 23 0;
#X connect 10 1 5 0;
#X connect 11 0 13 0;
#X connect 11 1 2 0;
#X connect 12 0 13 1;
#X connect 13 0 14 0;
#X connect 14 0 15 0;
#X connect 14 1 8 0;
#X connect 15 2 10 0;
#X connect 16 0 11 0;
#X connect 17 0 18 0;
#X connect 17 1 19 0;
#X connect 18 0 16 0;
#X connect 18 1 21 0;
#X connect 19 0 16 0;
#X connect 19 1 20 0;
#X connect 20 0 22 0;
#X connect 21 0 22 0;
#X connect 23 0 6 0;
#X connect 23 1 6 1;
#X restore 345 93 pd welch;
#X obj 35 62 route gain offset hanning hamming blackman triangle welch kaiser getdeltas, f 80;
#N canvas 457 204 459 446 getdeltas 0;
#X obj 146 333 expr $s2[$f1 + 1] - $s2[$f1] \; $f1;
#X obj 338 389 tabwrite;
#X msg 338 305 set \$1;
#X obj 338 219 pack f s;
#X obj 146 126 cyclone/uzi 1 0;
#X obj 59 86 v ch_\$0;
#X obj 233 159 trigger bang float;
#X obj 59 128 sel 1;
#X obj 92 161 r \$0-name;
#X obj 59 185 symbol;
#X obj 59 43 inlet;
#X msg 338 245 symbol \$1-\$2;
#X obj 166 304 r \$0-size;
#X obj 59 303 cyclone/uzi 0 0;
#X obj 59 212 t b s;
#X connect 0 0 1 0;
#X connect 0 1 1 1;
#X connect 2 0 1 0;
#X connect 3 0 11 0;
#X connect 4 2 6 0;
#X connect 5 0 7 0;
#X connect 6 0 13 0;
#X connect 6 1 3 0;
#X connect 7 0 9 0;
#X connect 7 1 4 0;
#X connect 8 0 9 1;
#X connect 8 0 3 1;
#X connect 9 0 14 0;
#X connect 10 0 5 0;
#X connect 11 0 0 1;
#X connect 11 0 2 0;
#X connect 12 0 13 1;
#X connect 13 2 0 0;
#X connect 14 0 13 0;
#X connect 14 1 2 0;
#X connect 14 1 0 1;
#X restore 459 96 pd getdeltas;
#N canvas 286 23 809 723 kaiser 0;
#X obj 380 359 r \$0-name;
#X obj 335 383 pack f s;
#X obj 143 317 cyclone/uzi 1 0;
#X obj 116 266 v ch_\$0;
#X obj 230 350 trigger bang float;
#X obj 59 24 inlet;
#X obj 282 490 tabread;
#X obj 335 677 tabwrite;
#X msg 335 421 \$1-\$2;
#X obj 335 444 cyclone/prepend set;
#X obj 255 462 t f f;
#X obj 255 398 r \$0-size;
#X obj 116 292 sel 1;
#X obj 131 345 r \$0-name;
#X obj 98 369 symbol;
#X obj 98 451 t b s;
#X obj 258 255 route half;
#X msg 315 283 0;
#X msg 258 283 1;
#X obj 258 316 v half_\$0;
#X obj 168 426 cyclone/uzi 1 0;
#X obj 590 97 loadbang;
#X obj 677 255 t f f;
#X obj 569 299 * 1;
#X obj 601 299 t f;
#X obj 569 327 swap 1;
#X obj 569 354 /;
#X obj 569 383 t f f;
#X obj 569 413 *;
#X obj 569 453 tabwrite inv_sq_fact_\$0;
#X msg 590 160 23;
#X obj 537 56 array define inv_sq_fact_\$0 24;
#X msg 525 299 1 0;
#X obj 590 189 cyclone/uzi 1 1;
#X obj 116 100 list split 1;
#X obj 116 210 t b f;
#N canvas 519 73 1081 738 kaiser_window 0;
#X obj 70 38 inlet;
#X obj 413 38 inlet;
#X obj 298 417 outlet;
#X text 69 17 modified n;
#X obj 313 38 inlet;
#X text 292 17 value from table;
#N canvas 239 73 486 549 besselI0 0;
#X msg 88 118 24;
#X msg 120 149 pause;
#X obj 172 126 *;
#X obj 172 148 * 0.25;
#X msg 231 146 1;
#X obj 188 238 f;
#X obj 261 238 *;
#X obj 172 321 *;
#X obj 169 207 t f b;
#X obj 43 238 tabread inv_sq_fact_\$0;
#X obj 172 355 +;
#X msg 356 271 0;
#X obj 230 355 t f;
#X obj 45 35 inlet;
#X obj 51 511 outlet;
#X obj 172 396 t f b f;
#X obj 192 448 f;
#X obj 224 475 ==;
#X obj 138 513 sel 1;
#X obj 88 181 cyclone/uzi 1 0;
#X obj 208 268 moses 1.7e+38;
#X msg 221 302 0;
#X obj 51 413 f;
#X obj 64 69 t b b f f, f 26;
#X connect 0 0 19 0;
#X connect 1 0 19 0;
#X connect 2 0 3 0;
#X connect 3 0 6 1;
#X connect 4 0 5 1;
#X connect 5 0 6 0;
#X connect 5 0 20 0;
#X connect 6 0 5 1;
#X connect 7 0 10 0;
#X connect 8 0 9 0;
#X connect 8 1 5 0;
#X connect 9 0 7 0;
#X connect 10 0 12 0;
#X connect 10 0 15 0;
#X connect 11 0 10 1;
#X connect 11 0 16 1;
#X connect 12 0 10 1;
#X connect 13 0 23 0;
#X connect 15 0 16 1;
#X connect 15 0 22 1;
#X connect 15 1 16 0;
#X connect 15 2 17 1;
#X connect 16 0 17 0;
#X connect 17 0 18 0;
#X connect 18 0 1 0;
#X connect 19 2 8 0;
#X connect 20 0 7 1;
#X connect 20 1 21 0;
#X connect 21 0 7 1;
#X connect 22 0 14 0;
#X connect 23 0 22 0;
#X connect 23 1 0 0;
#X connect 23 2 2 0;
#X connect 23 3 4 0;
#X connect 23 3 11 0;
#X connect 23 3 2 1;
#X restore 527 189 pd besselI0;
#X text 413 16 alpha * pi;
#X obj 133 289 /;
#X obj 298 373 *;
#N canvas 239 73 486 549 besselI0 0;
#X msg 88 118 24;
#X msg 120 149 pause;
#X obj 172 126 *;
#X obj 172 148 * 0.25;
#X msg 231 146 1;
#X obj 188 238 f;
#X obj 261 238 *;
#X obj 172 321 *;
#X obj 169 207 t f b;
#X obj 43 238 tabread inv_sq_fact_\$0;
#X obj 172 355 +;
#X msg 356 271 0;
#X obj 230 355 t f;
#X obj 45 35 inlet;
#X obj 51 511 outlet;
#X obj 172 396 t f b f;
#X obj 192 448 f;
#X obj 224 475 ==;
#X obj 138 513 sel 1;
#X obj 88 181 cyclone/uzi 1 0;
#X obj 208 268 moses 1.7e+38;
#X msg 221 302 0;
#X obj 51 413 f;
#X obj 64 69 t b b f f, f 26;
#X connect 0 0 19 0;
#X connect 1 0 19 0;
#X connect 2 0 3 0;
#X connect 3 0 6 1;
#X connect 4 0 5 1;
#X connect 5 0 6 0;
#X connect 5 0 20 0;
#X connect 6 0 5 1;
#X connect 7 0 10 0;
#X connect 8 0 9 0;
#X connect 8 1 5 0;
#X connect 9 0 7 0;
#X connect 10 0 12 0;
#X connect 10 0 15 0;
#X connect 11 0 10 1;
#X connect 11 0 16 1;
#X connect 12 0 10 1;
#X connect 13 0 23 0;
#X connect 15 0 16 1;
#X connect 15 0 22 1;
#X connect 15 1 16 0;
#X connect 15 2 17 1;
#X connect 16 0 17 0;
#X connect 17 0 18 0;
#X connect 18 0 1 0;
#X connect 19 2 8 0;
#X connect 20 0 7 1;
#X connect 20 1 21 0;
#X connect 21 0 7 1;
#X connect 22 0 14 0;
#X connect 23 0 22 0;
#X connect 23 1 0 0;
#X connect 23 2 2 0;
#X connect 23 3 4 0;
#X connect 23 3 11 0;
#X connect 23 3 2 1;
#X restore 70 163 pd besselI0;
#X obj 70 86 expr $f2 * sqrt(1 - $f1*$f1);
#X obj 662 191 expr exp($f1)/sqrt(2*$f1 * pi_\$0 ) * (1.0 + 1.0/(8.0*$f1) * (1.0 + 9.0/(16.0*$f1) * (1.0 + 25.0/(24.0*$f1))));
#X obj 163 163 expr exp($f1)/sqrt(2*$f1 * pi_\$0 ) * (1.0 + 1.0/(8.0*$f1) * (1.0 + 9.0/(16.0*$f1) * (1.0 + 25.0/(24.0*$f1))));
#X obj 559 122 moses 16;
#X obj 70 120 moses 16;
#X connect 0 0 11 0;
#X connect 1 0 11 1;
#X connect 1 0 14 0;
#X connect 4 0 9 1;
#X connect 6 0 8 1;
#X connect 8 0 9 0;
#X connect 9 0 2 0;
#X connect 10 0 8 0;
#X connect 11 0 15 0;
#X connect 12 0 8 1;
#X connect 13 0 8 0;
#X connect 14 0 6 0;
#X connect 14 1 12 0;
#X connect 15 0 10 0;
#X connect 15 1 13 0;
#X restore 203 641 pd kaiser_window;
#X obj 143 236 s \$0-kaiser_a;
#X obj 296 608 r \$0-kaiser_a;
#X obj 258 226 list trim;
#X obj 203 524 expr if (half_\$0 == 1 \, ($f1 / $f2 ) + 1 \, 2.0*$f1/$f2) - 1 \; $f1, f 30;
#X obj 116 133 abs;
#X obj 341 155 sel 1;
#X obj 341 251 print apply-kaiser;
#X obj 264 188 t f f;
#X obj 341 191 f;
#X obj 341 131 > 88;
#X obj 116 176 min 88;
#X msg 341 216 alpha value \$1 clipped to 88;
#X obj 59 49 route bang;
#X msg 59 75 6;
#X connect 0 0 1 1;
#X connect 1 0 8 0;
#X connect 2 2 4 0;
#X connect 3 0 12 0;
#X connect 4 0 20 0;
#X connect 4 1 1 0;
#X connect 5 0 49 0;
#X connect 6 0 36 1;
#X connect 8 0 9 0;
#X connect 9 0 6 0;
#X connect 9 0 7 0;
#X connect 10 0 40 0;
#X connect 10 1 6 0;
#X connect 11 0 20 1;
#X connect 11 0 40 1;
#X connect 12 0 14 0;
#X connect 12 1 2 0;
#X connect 13 0 14 1;
#X connect 14 0 15 0;
#X connect 15 0 20 0;
#X connect 15 1 9 0;
#X connect 16 0 18 0;
#X connect 16 1 17 0;
#X connect 17 0 19 0;
#X connect 18 0 19 0;
#X connect 20 2 10 0;
#X connect 21 0 30 0;
#X connect 21 0 32 0;
#X connect 22 0 23 0;
#X connect 22 1 29 1;
#X connect 23 0 24 0;
#X connect 23 0 25 0;
#X connect 24 0 23 1;
#X connect 25 0 26 0;
#X connect 25 1 26 1;
#X connect 26 0 27 0;
#X connect 27 0 28 0;
#X connect 27 1 28 1;
#X connect 28 0 29 0;
#X connect 30 0 33 0;
#X connect 32 0 29 0;
#X connect 33 2 22 0;
#X connect 34 0 41 0;
#X connect 34 1 39 0;
#X connect 35 0 3 0;
#X connect 35 1 37 0;
#X connect 36 0 7 0;
#X connect 38 0 36 2;
#X connect 39 0 16 0;
#X connect 40 0 36 0;
#X connect 40 1 7 1;
#X connect 41 0 44 0;
#X connect 41 0 47 0;
#X connect 42 0 45 0;
#X connect 44 0 46 0;
#X connect 44 1 45 1;
#X connect 45 0 48 0;
#X connect 46 0 42 0;
#X connect 47 0 35 0;
#X connect 48 0 43 0;
#X connect 49 0 50 0;
#X connect 49 1 34 0;
#X connect 50 0 34 0;
#X restore 406 130 pd kaiser;
#X connect 0 0 8 0;
#X connect 8 0 1 0;
#X connect 8 1 2 0;
#X connect 8 2 3 0;
#X connect 8 3 5 0;
#X connect 8 4 4 0;
#X connect 8 5 6 0;
#X connect 8 6 7 0;
#X connect 8 7 10 0;
#X connect 8 8 9 0;
#X restore 269 100 pd apply;
#N canvas 445 200 495 313 norm 0;
#X obj 134 144 cyclone/uzi 1 0;
#X obj 107 96 v ch_\$0;
#X obj 356 148 r \$0-name;
#X obj 107 42 inlet;
#X obj 107 68 trigger bang float;
#X obj 221 174 pack float float symbol;
#X msg 221 198 \; \$1-\$3 normalize \$2;
#X obj 107 120 sel 1;
#X obj 140 178 r \$0-name;
#X obj 107 204 symbol;
#X obj 107 241 pack s f;
#X msg 108 269 \; \$1 normalize \$2;
#X connect 0 2 5 0;
#X connect 1 0 7 0;
#X connect 2 0 5 2;
#X connect 3 0 4 0;
#X connect 4 0 1 0;
#X connect 4 1 5 1;
#X connect 4 1 10 1;
#X connect 5 0 6 0;
#X connect 7 0 9 0;
#X connect 7 1 0 0;
#X connect 8 0 9 1;
#X connect 9 0 10 0;
#X connect 10 0 11 0;
#X restore 473 128 pd norm;
#N canvas 449 97 592 501 resize 0;
#X obj 345 237 s \$0-size;
#X obj 175 123 cyclone/mstosamps~;
#X obj 175 77 inlet;
#X obj 303 81 inlet;
#X obj 176 266 cyclone/uzi 1 0;
#X obj 149 218 v ch_\$0;
#X obj 398 305 r \$0-name;
#X obj 263 331 pack float float symbol;
#X obj 303 183 t b f;
#X obj 149 241 sel 1;
#X obj 182 308 r \$0-name;
#X obj 179 368 pack s f;
#X obj 149 329 symbol;
#X msg 263 355 \; \$1-\$3 resize \$2;
#X msg 179 396 \; \$1 resize \$2;
#X obj 314 124 r \$0-size;
#X obj 303 155 change;
#X connect 1 1 16 0;
#X connect 2 0 1 0;
#X connect 3 0 16 0;
#X connect 4 2 7 0;
#X connect 5 0 9 0;
#X connect 6 0 7 2;
#X connect 7 0 13 0;
#X connect 8 0 5 0;
#X connect 8 1 7 1;
#X connect 8 1 11 1;
#X connect 8 1 0 0;
#X connect 9 0 12 0;
#X connect 9 1 4 0;
#X connect 10 0 12 1;
#X connect 11 0 14 0;
#X connect 12 0 11 0;
#X connect 15 0 16 0;
#X connect 16 0 8 0;
#X restore 347 100 pd resize;
#N canvas 245 23 711 512 crop 0;
#X obj 269 30 inlet;
#X obj 108 213 unpack;
#X obj 141 240 cyclone/mstosamps~;
#X obj 47 275 cyclone/mstosamps~;
#X obj 181 356 array get;
#X obj 246 315 r \$0-name;
#X obj 195 388 array set;
#X obj 214 423 array size;
#X obj 54 313 trigger float float;
#X obj 74 365 expr $f2 - $f1;
#X obj 373 178 cyclone/uzi 1 0;
#X obj 269 100 v ch_\$0;
#X obj 269 124 sel 1;
#X obj 323 218 list;
#X obj 510 218 pack float symbol;
#X obj 609 194 r \$0-name;
#X msg 510 242 symbol \$1-\$2;
#X obj 269 71 trigger bang list;
#X obj 380 271 cyclone/mstosamps~;
#X obj 323 306 cyclone/mstosamps~;
#X obj 420 387 array get;
#X obj 434 419 array set;
#X obj 453 454 array size;
#X obj 313 396 expr $f2 - $f1;
#X obj 269 159 list;
#X obj 323 244 unpack f f;
#X obj 313 344 trigger f f;
#X obj 262 478 s \$0-size;
#X connect 0 0 17 0;
#X connect 1 0 3 0;
#X connect 1 1 2 0;
#X connect 2 1 4 1;
#X connect 2 1 9 1;
#X connect 3 1 8 0;
#X connect 4 0 6 0;
#X connect 5 0 4 2;
#X connect 5 0 6 2;
#X connect 5 0 7 1;
#X connect 8 0 9 0;
#X connect 8 1 4 0;
#X connect 9 0 7 0;
#X connect 9 0 27 0;
#X connect 10 0 13 0;
#X connect 10 2 14 0;
#X connect 11 0 12 0;
#X connect 12 0 24 0;
#X connect 12 1 10 0;
#X connect 13 0 25 0;
#X connect 14 0 16 0;
#X connect 15 0 14 1;
#X connect 16 0 20 2;
#X connect 16 0 21 2;
#X connect 16 0 22 1;
#X connect 17 0 11 0;
#X connect 17 1 13 1;
#X connect 17 1 24 1;
#X connect 18 1 20 1;
#X connect 18 1 23 1;
#X connect 19 1 26 0;
#X connect 20 0 21 0;
#X connect 23 0 22 0;
#X connect 23 0 27 0;
#X connect 24 0 1 0;
#X connect 25 0 19 0;
#X connect 25 1 18 0;
#X connect 26 0 23 0;
#X connect 26 1 20 0;
#X restore 514 101 pd crop;
#N canvas 602 260 419 399 soundfiler 0;
#X obj 162 112 list prepend;
#X obj 162 139 list;
#X obj 99 183 list append;
#X obj 99 223 list trim;
#X obj 99 257 soundfiler;
#X obj 126 333 s \$0-size;
#X obj 162 32 inlet;
#X obj 65 32 inlet;
#X msg 162 82 \$1-\$2;
#X obj 118 32 inlet;
#X msg 118 82 \$2;
#X obj 207 141 r \$0-reset-buf-names;
#N canvas 328 183 469 491 check 0;
#X obj 135 91 list trim;
#X obj 202 146 list prepend read;
#X obj 135 157 list prepend write, f 7;
#X obj 135 37 inlet;
#X obj 215 409 outlet;
#X obj 202 182 list split 4;
#X obj 286 264 <= 0;
#X obj 306 241 t f f, f 6;
#X obj 324 316 f;
#X obj 202 237 list split 3;
#X obj 202 295 list;
#X msg 258 311 -resize;
#X obj 286 285 sel 1 0;
#X obj 215 332 list;
#X obj 324 345 s \$0-size;
#X obj 135 119 route write read, f 23;
#X obj 286 380 s \$0-resize;
#X connect 0 0 15 0;
#X connect 1 0 5 0;
#X connect 2 0 4 0;
#X connect 3 0 0 0;
#X connect 5 0 9 0;
#X connect 5 1 7 0;
#X connect 6 0 12 0;
#X connect 6 0 16 0;
#X connect 7 0 6 0;
#X connect 7 1 8 1;
#X connect 8 0 14 0;
#X connect 9 0 10 0;
#X connect 9 1 13 1;
#X connect 10 0 13 0;
#X connect 11 0 10 1;
#X connect 12 0 11 0;
#X connect 12 1 10 1;
#X connect 12 1 8 0;
#X connect 13 0 4 0;
#X connect 15 0 2 0;
#X connect 15 1 1 0;
#X restore 65 127 pd check;
#X obj 150 284 r \$0-resize;
#X obj 99 285 spigot;
#X obj 99 309 t b f;
#X msg 144 309 0;
#X connect 0 0 1 0;
#X connect 1 0 0 1;
#X connect 1 0 2 1;
#X connect 2 0 3 0;
#X connect 3 0 4 0;
#X connect 4 0 14 0;
#X connect 6 0 8 0;
#X connect 7 0 12 0;
#X connect 8 0 0 0;
#X connect 9 0 10 0;
#X connect 10 0 1 0;
#X connect 11 0 0 1;
#X connect 11 0 2 1;
#X connect 11 0 1 1;
#X connect 12 0 2 0;
#X connect 13 0 14 1;
#X connect 14 0 15 0;
#X connect 15 0 16 0;
#X connect 15 1 5 0;
#X connect 16 0 14 1;
#X restore 581 172 pd soundfiler;
#N canvas 206 23 1005 668 read/write 0;
#X obj 227 237 symbol;
#X obj 142 116 route bang;
#X obj 142 157 openpanel;
#X obj 425 279 cyclone/fromsymbol @separator ., f 18;
#X obj 338 235 list;
#X obj 364 368 t l l, f 6;
#X msg 397 402 \$2;
#X msg 364 403 \$1;
#X obj 338 189 cyclone/fromsymbol @separator ., f 18;
#X obj 313 116 route bang, f 14;
#X obj 338 319 list length;
#X obj 338 292 t l l;
#X obj 304 321 > 1;
#X obj 364 346 list;
#X obj 305 344 sel 0 1;
#X obj 327 375 list;
#X obj 313 139 savepanel;
#X obj 201 619 outlet;
#X obj 34 22 inlet;
#X msg 425 341 \$2;
#X obj 425 313 list;
#X obj 549 277 route wave aiff, f 9;
#X obj 648 266 route bang, f 12;
#X obj 569 457 savepanel;
#X obj 717 322 t s b;
#X obj 648 290 t b b;
#X obj 758 279 route bang;
#X obj 815 348 t s b;
#X obj 758 323 t b b;
#X msg 828 478 -wave;
#X msg 875 476 -aiff;
#X obj 756 480 r \$0-bytes;
#X obj 142 82 route read readagain write filetype writewave writeaiff format sr, f 115;
#N canvas 520 43 450 300 bytes 0;
#X obj 115 40 inlet;
#X msg 161 152 2;
#X msg 207 151 3;
#X msg 253 151 4;
#X obj 142 111 sel 16 24;
#X obj 207 185 s \$0-bytes;
#X obj 115 73 route float int16 int24 float32 float64;
#X msg 299 151 8;
#X connect 0 0 6 0;
#X connect 1 0 5 0;
#X connect 2 0 5 0;
#X connect 3 0 5 0;
#X connect 4 0 1 0;
#X connect 4 1 2 0;
#X connect 6 0 4 0;
#X connect 6 1 1 0;
#X connect 6 2 2 0;
#X connect 6 3 3 0;
#X connect 6 4 7 0;
#X connect 7 0 5 0;
#X restore 656 111 pd bytes;
#X obj 743 113 s \$0-sr;
#X obj 638 526 cyclone/pak write -rate 0 -bytes 2 -aiff;
#X obj 702 480 r \$0-sr;
#X obj 569 558 list prepend;
#X obj 425 370 route wav aiff aif caf;
#X msg 933 476 -caf;
#N canvas 390 27 515 591 check 0;
#X obj 58 235 file which;
#X obj 58 209 list append 1;
#X obj 58 27 inlet;
#X obj 58 175 list split 1, f 14;
#X obj 58 114 list;
#X obj 259 396 list;
#X msg 119 355 read;
#N canvas 93 74 401 365 start 0;
#X obj 100 257 cyclone/pak -skip 0;
#X obj 106 111 cyclone/mstosamps~;
#X obj 106 87 max 0;
#X obj 211 135 expr rint($f1);
#X obj 224 166 r \$0-read;
#X obj 100 305 outlet;
#X obj 106 53 inlet;
#X msg 224 187 0;
#X obj 211 224 max 0;
#X connect 0 0 5 0;
#X connect 1 1 3 0;
#X connect 2 0 1 0;
#X connect 3 0 8 0;
#X connect 4 0 7 0;
#X connect 6 0 2 0;
#X connect 7 0 8 0;
#X connect 8 0 0 1;
#X restore 280 293 pd start;
#X obj 280 264 unpack float float float;
#N canvas 709 145 372 371 size 0;
#X obj 163 226 outlet;
#X obj 58 84 inlet;
#X obj 88 151 r \$0-read;
#X obj 88 179 v \$0-size;
#X obj 58 119 cyclone/mstosamps~;
#X connect 1 0 4 0;
#X connect 2 0 3 0;
#X connect 3 0 0 0;
#X connect 4 1 0 0;
#X restore 350 292 pd size;
#N canvas 93 74 359 503 ch 0;
#X obj 209 121 inlet;
#X obj 237 292 v ch_\$0;
#X obj 237 249 r \$0-read;
#X obj 100 104 inlet;
#X obj 194 343 f;
#X obj 194 407 outlet;
#X obj 100 327 soundfiler;
#X obj 100 269 symbol;
#X msg 100 301 read \$1;
#X msg 157 359 \$3;
#X obj 100 145 t b s;
#X obj 100 239 sel 1 0;
#X obj 100 210 <= 0;
#X obj 100 186 f;
#X connect 0 0 4 1;
#X connect 0 0 13 1;
#X connect 1 0 4 1;
#X connect 1 0 13 1;
#X connect 2 0 1 0;
#X connect 3 0 10 0;
#X connect 4 0 5 0;
#X connect 6 1 9 0;
#X connect 7 0 8 0;
#X connect 8 0 6 0;
#X connect 9 0 5 0;
#X connect 10 0 13 0;
#X connect 10 1 7 1;
#X connect 11 0 7 0;
#X connect 11 1 4 0;
#X connect 12 0 11 0;
#X connect 13 0 12 0;
#X restore 375 386 pd ch;
#X obj 58 486 outlet;
#X obj 259 486 outlet;
#X obj 115 296 print Warning;
#X obj 122 143 s \$0-read;
#X obj 375 486 outlet;
#X obj 79 69 r \$0-file;
#X obj 280 230 list;
#X obj 58 322 trigger symbol bang symbol bang;
#X obj 319 486 outlet;
#X obj 58 142 t l b;
#X msg 115 260 [buffer~] \$1 file not found, f 15;
#X connect 0 0 18 0;
#X connect 0 1 21 0;
#X connect 1 0 0 0;
#X connect 2 0 4 0;
#X connect 3 0 1 0;
#X connect 3 1 17 1;
#X connect 4 0 20 0;
#X connect 5 0 12 0;
#X connect 6 0 5 0;
#X connect 7 0 5 1;
#X connect 8 0 7 0;
#X connect 8 1 9 0;
#X connect 8 2 10 1;
#X connect 9 0 19 0;
#X connect 10 0 15 0;
#X connect 16 0 4 0;
#X connect 17 0 8 0;
#X connect 18 0 11 0;
#X connect 18 1 6 0;
#X connect 18 2 10 0;
#X connect 18 3 17 0;
#X connect 20 0 3 0;
#X connect 20 1 14 0;
#X connect 21 0 13 0;
#X restore 248 208 pd check;
#X obj 201 286 list prepend;
#X obj 293 621 outlet;
#X obj 201 349 list;
#X obj 34 49 route replace;
#X obj 65 82 list 0 0 0;
#X obj 34 120 route bang;
#X obj 34 153 openpanel;
#X connect 0 0 3 0;
#X connect 0 0 41 0;
#X connect 1 0 2 0;
#X connect 1 1 40 0;
#X connect 2 0 0 0;
#X connect 3 0 20 0;
#X connect 4 0 11 0;
#X connect 5 0 7 0;
#X connect 5 1 6 0;
#X connect 6 0 38 0;
#X connect 7 0 37 0;
#X connect 8 0 4 0;
#X connect 9 0 16 0;
#X connect 9 1 8 0;
#X connect 10 0 12 0;
#X connect 11 0 10 0;
#X connect 11 1 13 1;
#X connect 11 1 15 1;
#X connect 12 0 14 0;
#X connect 13 0 5 0;
#X connect 14 0 15 0;
#X connect 14 1 13 0;
#X connect 15 0 7 0;
#X connect 16 0 8 0;
#X connect 18 0 44 0;
#X connect 19 0 38 0;
#X connect 20 0 19 0;
#X connect 21 0 29 0;
#X connect 21 1 30 0;
#X connect 22 0 25 0;
#X connect 22 1 24 0;
#X connect 23 0 37 0;
#X connect 24 0 37 0;
#X connect 24 1 29 0;
#X connect 25 0 23 0;
#X connect 25 1 29 0;
#X connect 26 0 28 0;
#X connect 26 1 27 0;
#X connect 27 0 37 0;
#X connect 27 1 30 0;
#X connect 28 0 23 0;
#X connect 28 1 30 0;
#X connect 29 0 35 5;
#X connect 30 0 35 5;
#X connect 31 0 35 4;
#X connect 32 0 1 0;
#X connect 32 1 0 0;
#X connect 32 2 9 0;
#X connect 32 3 21 0;
#X connect 32 4 22 0;
#X connect 32 5 26 0;
#X connect 32 6 33 0;
#X connect 32 7 34 0;
#X connect 35 0 37 1;
#X connect 36 0 35 2;
#X connect 37 0 17 0;
#X connect 38 0 29 0;
#X connect 38 1 30 0;
#X connect 38 2 30 0;
#X connect 38 3 39 0;
#X connect 39 0 35 5;
#X connect 40 0 0 0;
#X connect 40 1 41 1;
#X connect 40 2 43 1;
#X connect 40 3 42 0;
#X connect 41 0 43 0;
#X connect 43 0 17 0;
#X connect 44 0 46 0;
#X connect 44 1 32 0;
#X connect 45 0 1 0;
#X connect 46 0 47 0;
#X connect 46 1 45 0;
#X connect 47 0 45 0;
#X restore 581 101 pd read/write;
#N canvas 259 180 896 461 init-buffers 0;
#X obj 340 296 send pd-\$0-buffers;
#X msg 340 135 \$1;
#X obj 235 33 inlet;
#X obj 438 173 - 1;
#X obj 389 148 + 20;
#X obj 389 170 t f f;
#X obj 389 125 * 100;
#X obj 340 199 pack float float float \$0;
#X obj 235 282 list append \$0;
#X obj 340 157 t f f;
#X msg 340 228 obj 6 \$2 cnv 15 448 80 empty empty empty 3 10 2 14 -233017 -66577 0 \, obj 5 \$3 pd ch\$1_\$4;
#X msg 276 326 \; pd-ch\$1_\$4 array \$1-\$2 \$3 float 2 \, coords 0 1 \$3 -1 450 82 2 0 0 \, vis 0;
#X obj 74 33 inlet;
#X obj 74 318 list append \$0;
#X msg 115 379 \; pd-ch\$1_\$4 array \$2 \$3 float 2 \, coords 0 1 \$3 -1 450 82 2 0 0 \, vis 0;
#X obj 235 74 t l l;
#X obj 74 74 t l l;
#X connect 1 0 9 0;
#X connect 2 0 15 0;
#X connect 3 0 7 2;
#X connect 4 0 5 0;
#X connect 5 0 7 1;
#X connect 5 1 3 0;
#X connect 6 0 4 0;
#X connect 7 0 10 0;
#X connect 8 0 11 0;
#X connect 9 0 7 0;
#X connect 9 1 6 0;
#X connect 10 0 0 0;
#X connect 11 0 0 0;
#X connect 12 0 16 0;
#X connect 13 0 14 0;
#X connect 14 0 0 0;
#X connect 15 0 8 0;
#X connect 15 1 1 0;
#X connect 16 0 13 0;
#X connect 16 1 1 0;
#X restore 675 172 pd init-buffers;
#X obj 24 69 route clear name set open wclose fill apply setsize size sizeinsamps samps normalize crop, f 89;
#X text 319 185 porres \, barber \, 2017-2024 \; for cyclone;
#N canvas 577 23 421 328 init-args 0;
#X obj 40 28 loadbang;
#X obj 171 125 samplerate~;
#X obj 171 154 s \$0-sr;
#X obj 40 59 trigger bang bang;
#X obj 183 94 send pd-\$0-buffers;
#X msg 183 46 clear;
#X obj 151 207 v ch_\$0;
#X msg 139 180 0;
#N canvas 404 163 698 506 buffer_arg 0;
#X obj 105 300 print Warning:;
#X msg 105 248 [buffer~] needs a buffer name as the 1st argument, f 25;
#X obj 346 439 outlet;
#X obj 316 224 s \$0-name;
#X obj 60 173 route float;
#X obj 60 201 select 0;
#X obj 123 203 select @samps @size;
#X obj 60 27 inlet;
#X obj 60 99 pdcontrol;
#X msg 60 57 args;
#X obj 60 132 list split 1, f 63;
#X obj 435 202 print Warning:;
#X msg 435 170 [buffer~] no buffer name given;
#X obj 289 303 route bang;
#X obj 376 391 print Warning:;
#X msg 376 359 [buffer~] no duration and channels defined;
#X obj 289 272 list;
#X obj 289 186 t b s;
#X connect 1 0 0 0;
#X connect 4 0 5 0;
#X connect 4 1 6 0;
#X connect 5 1 1 0;
#X connect 6 0 1 0;
#X connect 6 1 1 0;
#X connect 6 2 17 0;
#X connect 7 0 9 0;
#X connect 8 0 10 0;
#X connect 9 0 8 0;
#X connect 10 0 4 0;
#X connect 10 1 16 1;
#X connect 10 2 12 0;
#X connect 12 0 11 0;
#X connect 13 0 15 0;
#X connect 13 1 2 0;
#X connect 15 0 14 0;
#X connect 16 0 13 0;
#X connect 17 0 16 0;
#X connect 17 1 3 0;
#X restore 40 98 pd buffer_arg;
#N canvas 270 59 497 527 other-args 0;
#X obj 290 325 cyclone/mstosamps~;
#X obj 250 433 s \$0-file;
#X obj 73 45 inlet;
#X obj 73 96 list trim;
#X obj 73 130 route @size @samps;
#X obj 250 148 list;
#X obj 250 173 list split 1, f 14;
#X obj 290 290 unpack;
#X obj 193 121 route list;
#X obj 341 289 v ch_\$0;
#X obj 290 205 list trim;
#X obj 125 395 v \$0-size;
#X obj 290 243 route list float;
#X connect 0 1 11 0;
#X connect 2 0 3 0;
#X connect 3 0 4 0;
#X connect 4 0 0 0;
#X connect 4 1 11 0;
#X connect 4 2 8 0;
#X connect 5 0 6 0;
#X connect 6 0 1 0;
#X connect 6 1 10 0;
#X connect 7 0 0 0;
#X connect 7 1 9 0;
#X connect 8 0 7 0;
#X connect 8 1 5 0;
#X connect 10 0 12 0;
#X connect 12 0 7 0;
#X connect 12 1 0 0;
#X connect 12 2 4 0;
#X restore 40 126 pd other-args;
#X obj 139 241 v \$0-size;
#X text 223 39 in case it gets corrupted, f 14;
#X connect 0 0 3 0;
#X connect 1 0 2 0;
#X connect 3 0 8 0;
#X connect 3 1 1 0;
#X connect 3 1 5 0;
#X connect 3 1 7 0;
#X connect 5 0 4 0;
#X connect 7 0 6 0;
#X connect 7 0 10 0;
#X connect 8 0 9 0;
#X restore 700 98 pd init-args;
#N canvas 419 140 393 515 channels 0;
#X obj 78 438 outlet;
#X obj 192 438 outlet;
#X obj 78 32 inlet;
#X obj 97 240 v ch_\$0;
#X obj 220 318 r \$0-name;
#X obj 249 346 r \$0-size;
#X obj 105 315 cyclone/uzi 1 0;
#X obj 192 388 pack f s f;
#X obj 78 279 sel 1;
#X obj 78 375 pack f s f;
#X obj 78 78 max 1;
#X obj 78 105 min 64;
#X obj 78 166 change;
#X obj 78 202 t f f b;
#X obj 155 261 send pd-\$0-buffers;
#X msg 155 232 clear;
#X obj 155 198 s \$0-reset-buf-names;
#X obj 145 62 r \$0-set-buff;
#X msg 145 83 1;
#X obj 145 104 t b f;
#X obj 145 155 s \$0-size;
#X obj 145 135 v \$0-size;
#X connect 2 0 10 0;
#X connect 4 0 7 1;
#X connect 4 0 9 1;
#X connect 5 0 7 2;
#X connect 5 0 9 2;
#X connect 6 2 7 0;
#X connect 7 0 1 0;
#X connect 8 0 9 0;
#X connect 8 1 6 0;
#X connect 9 0 0 0;
#X connect 10 0 11 0;
#X connect 11 0 12 0;
#X connect 12 0 13 0;
#X connect 13 0 8 0;
#X connect 13 1 3 0;
#X connect 13 2 16 0;
#X connect 13 2 15 0;
#X connect 15 0 14 0;
#X connect 17 0 18 0;
#X connect 18 0 19 0;
#X connect 19 0 21 0;
#X connect 19 1 12 0;
#X connect 21 0 20 0;
#X restore 675 131 pd channels;
#X connect 0 0 13 0;
#X connect 11 0 10 0;
#X connect 11 1 16 0;
#X connect 13 0 3 0;
#X connect 13 1 1 0;
#X connect 13 2 1 0;
#X connect 13 3 5 0;
#X connect 13 4 5 1;
#X connect 13 5 4 0;
#X connect 13 6 6 0;
#X connect 13 7 8 0;
#X connect 13 8 8 0;
#X connect 13 9 8 1;
#X connect 13 10 8 1;
#X connect 13 11 7 0;
#X connect 13 12 9 0;
#X connect 13 13 11 0;
#X connect 16 0 10 1;
#X connect 16 0 12 0;
#X connect 16 1 10 2;
#X connect 16 1 12 1;
