#N canvas 398 177 472 224 10;
#X obj 112 163 outlet;
#X obj 112 33 inlet;
#X obj 187 33 inlet;
#X obj 187 163 outlet;
#X text 235 66 Alexandre Torres Porres (2018);
#N canvas 172 140 504 581 monophonic 0;
#X obj 157 532 outlet;
#X obj 214 532 outlet;
#X obj 49 15 inlet;
#X obj 442 15 inlet;
#X obj 49 73 poly 10 1, f 66;
#X obj 38 430 pack f 0;
#X msg 112 392 0;
#X obj 112 415 v i_\$0;
#X obj 86 237 symbol notes_\$0;
#X obj 49 207 symbol order_\$0;
#X obj 38 405 v last_\$0;
#X obj 86 291 array max;
#X obj 157 437 pack float float;
#X obj 157 372 v idx_\$0;
#X obj 287 275 sel 1;
#X msg 307 182 128;
#X obj 307 203 v low_\$0;
#X msg 270 206 0;
#X obj 86 316 > 0;
#X obj 86 345 sel 0 1;
#X obj 86 266 t b s;
#X obj 287 297 expr 1 \; low_\$0 = $f2 \; idx_\$0 = $f3;
#X obj 384 308 v note_\$0;
#X obj 287 232 expr note_\$0>0 && note_\$0<low_\$0 \; notes_\$0[$f1]
\; $f1;
#X obj 38 370 t b b;
#X obj 157 395 expr last_\$0 = notes_\$0[$f1] \; velocities_\$0[$f1]
;
#X obj 159 183 trigger b b, f 19;
#N canvas 137 126 270 317 changed 0;
#X obj 69 29 inlet;
#X obj 75 262 outlet;
#X obj 131 262 outlet;
#X obj 75 225 unpack f f;
#X obj 88 96 unpack;
#X msg 136 96 0;
#X obj 147 148 b;
#X msg 147 169 1;
#X obj 88 149 b;
#X msg 88 170 1;
#X obj 75 198 spigot 0;
#X obj 69 70 t l l b;
#X obj 147 128 change;
#X obj 88 127 change;
#X connect 0 0 11 0;
#X connect 3 0 1 0;
#X connect 3 1 2 0;
#X connect 4 0 13 0;
#X connect 4 1 12 0;
#X connect 5 0 10 1;
#X connect 6 0 7 0;
#X connect 7 0 10 1;
#X connect 8 0 9 0;
#X connect 9 0 10 1;
#X connect 10 0 3 0;
#X connect 11 0 10 0;
#X connect 11 1 4 0;
#X connect 11 2 5 0;
#X connect 12 0 6 0;
#X connect 13 0 8 0;
#X restore 157 498 pd changed;
#X obj 69 43 r \$0-poly;
#X obj 159 206 cyclone/uzi 10 0;
#X obj 217 158 s \$0-laststep;
#X obj 49 100 expr if(legato_\$0 == 2 && velocities_\$0[$f1-1] == 0
\, 3 \, mode_\$0) \; order_\$0[$f1-1] = (i_\$0 = i_\$0+1) * ($f3>0)
\; notes_\$0[$f1-1] = (laststep_\$0 = $f2) * ($f3>0) \; velocities_\$0[$f1-1]
= $f3, f 66;
#X obj 243 296 float;
#X obj 355 386 v laststep_\$0;
#X obj 355 349 r \$0-laststep;
#X obj 355 438 pack f 0;
#X obj 368 411 v last_\$0;
#X obj 49 158 select 0 1 2 3, f 25;
#X connect 2 0 4 0;
#X connect 3 0 4 1;
#X connect 4 0 31 0;
#X connect 4 1 31 1;
#X connect 4 2 31 2;
#X connect 5 0 27 0;
#X connect 6 0 7 0;
#X connect 8 0 20 0;
#X connect 9 0 20 0;
#X connect 10 0 5 0;
#X connect 11 0 18 0;
#X connect 11 1 13 0;
#X connect 12 0 27 0;
#X connect 13 0 25 0;
#X connect 14 0 21 0;
#X connect 15 0 16 0;
#X connect 17 0 32 1;
#X connect 18 0 19 0;
#X connect 19 0 24 0;
#X connect 19 1 13 0;
#X connect 20 0 11 0;
#X connect 20 1 11 2;
#X connect 21 0 32 1;
#X connect 23 0 14 0;
#X connect 23 1 21 1;
#X connect 23 1 22 0;
#X connect 23 2 21 2;
#X connect 24 0 10 0;
#X connect 24 1 6 0;
#X connect 25 0 12 0;
#X connect 25 1 12 1;
#X connect 26 0 29 0;
#X connect 26 1 17 0;
#X connect 26 1 15 0;
#X connect 27 0 0 0;
#X connect 27 1 1 0;
#X connect 28 0 4 0;
#X connect 29 1 32 0;
#X connect 29 2 23 0;
#X connect 31 0 37 0;
#X connect 32 0 19 0;
#X connect 33 0 35 0;
#X connect 33 0 36 0;
#X connect 34 0 33 0;
#X connect 35 0 27 0;
#X connect 37 0 9 0;
#X connect 37 1 8 0;
#X connect 37 2 26 0;
#X connect 37 3 30 0;
#X restore 112 107 pd monophonic;
#N canvas 164 94 506 291 route 0;
#X obj 44 30 inlet;
#X obj 301 99 f \$0;
#X obj 101 237 outlet;
#X obj 215 101 clip 0 2;
#X obj 215 127 v mode_\$0;
#X obj 158 148 v legato_\$0;
#X msg 301 123 clear \; notes_\$1 const 0 \; velocities_\$1 const 0
\; order_\$1 const 0 \; \$1-last bang \;;
#X obj 44 65 route float list legatomode mode clear, f 48;
#X obj 158 102 clip 0 2;
#X connect 0 0 7 0;
#X connect 1 0 6 0;
#X connect 3 0 4 0;
#X connect 6 0 2 0;
#X connect 7 0 2 0;
#X connect 7 1 2 0;
#X connect 7 2 8 0;
#X connect 7 3 3 0;
#X connect 7 4 1 0;
#X connect 8 0 5 0;
#X restore 112 75 pd route;
#N canvas 486 325 724 192 init 0;
#N canvas 0 22 450 278 (subpatch) 0;
#X array notes_\$0 10 float 2;
#X coords 0 127 10 0 150 100 1;
#X restore 239 48 graph;
#N canvas 0 22 450 278 (subpatch) 0;
#X array velocities_\$0 10 float 2;
#X coords 0 127 10 0 150 100 1;
#X restore 394 48 graph;
#N canvas 0 22 450 278 (subpatch) 0;
#X array order_\$0 10 float 2;
#X coords 0 127 10 0 150 100 1;
#X restore 548 48 graph;
#X obj 28 16 loadbang;
#X obj 142 133 v legato_\$0;
#N canvas 494 30 708 707 load_args 0;
#X obj 378 251 makefilename $%d;
#X obj 292 327 pack f \$0;
#X text 160 79 Maximum attempts, f 8;
#X obj 504 338 send pd-\$0-test_arg;
#X msg 378 282 obj 37 135 list append \$1, f 14;
#X obj 27 101 r \$0-noarg;
#X obj 201 219 select;
#X obj 292 219 trigger float float float;
#X msg 119 85 4096;
#X text 225 87 (that might be engouh);
#X obj 504 245 makefilename $%d-test;
#N canvas 344 339 309 232 \$0-test_arg 0;
#X obj 10 60 symbol \$2-test;
#X obj 133 60 makefilename $%d-test;
#X obj 37 135 list append \$2;
#X obj 10 10 r 1024-i;
#X obj 10 35 trigger bang float;
#X obj 10 85 sel s;
#X obj 37 110 b;
#X obj 37 160 s 1024-arg;
#X obj 10 185 s 1024-noarg;
#X connect 0 0 5 0;
#X connect 1 0 5 1;
#X connect 2 0 7 0;
#X connect 3 0 4 0;
#X connect 4 0 0 0;
#X connect 4 1 1 0;
#X connect 5 0 8 0;
#X connect 5 1 6 0;
#X connect 6 0 2 0;
#X restore 518 178 pd \$0-test_arg;
#X obj 184 428 r \$0-arg;
#X obj 184 463 list prepend;
#X obj 140 492 list;
#X text 200 631 list of arguments, f 9;
#X msg 292 380 \; pd-\$2-test_arg obj 10 10 r \$2-i \; pd-\$2-test_arg
obj 10 35 trigger bang float \; pd-\$2-test_arg obj 10 85 sel s \;
pd-\$2-test_arg obj 37 110 b \; pd-\$2-test_arg obj 37 160 s \$2-arg
\; pd-\$2-test_arg obj 10 185 s \$2-noarg \; pd-\$2-test_arg connect
3 0 4 0 \; pd-\$2-test_arg connect 4 1 1 0 \; pd-\$2-test_arg connect
4 0 0 0 \; pd-\$2-test_arg connect 1 0 5 1 \; pd-\$2-test_arg connect
0 0 5 0 \; pd-\$2-test_arg connect 5 1 6 0 \; pd-\$2-test_arg connect
6 0 2 0 \; pd-\$2-test_arg connect 2 0 7 0 \; pd-\$2-test_arg connect
5 0 8 0 \; \$2-i \$1 \;;
#X msg 504 272 clear \, obj 10 60 symbol \$1 \, obj 133 60 makefilename
$%d-test, f 27;
#X obj 139 638 outlet;
#X obj 119 157 until;
#X obj 201 189 + 1;
#X msg 176 147 0;
#X obj 146 188 float;
#X obj 119 55 inlet;
#X obj 119 123 trigger float bang float bang;
#X obj 184 492 t l;
#X connect 0 0 4 0;
#X connect 1 0 16 0;
#X connect 4 0 3 0;
#X connect 5 0 14 0;
#X connect 5 0 19 1;
#X connect 6 0 14 0;
#X connect 6 1 7 0;
#X connect 7 0 1 0;
#X connect 7 1 0 0;
#X connect 7 2 10 0;
#X connect 8 0 24 0;
#X connect 10 0 17 0;
#X connect 12 0 13 0;
#X connect 13 0 25 0;
#X connect 14 0 18 0;
#X connect 17 0 3 0;
#X connect 19 0 22 0;
#X connect 20 0 22 1;
#X connect 20 0 6 0;
#X connect 21 0 22 1;
#X connect 22 0 20 0;
#X connect 23 0 8 0;
#X connect 24 0 19 0;
#X connect 24 1 21 0;
#X connect 24 2 6 1;
#X connect 24 3 13 1;
#X connect 25 0 13 1;
#X connect 25 0 14 1;
#X restore 28 44 pd load_args;
#N canvas 666 97 396 376 break 0;
#X obj 40 18 inlet;
#X obj 28 77 until;
#X obj 46 112 list;
#X obj 46 141 list split 1, f 17;
#X obj 166 84 route float symbol;
#X obj 218 109 t s s;
#X obj 245 138 list fromsymbol;
#X obj 246 160 list split 1;
#X obj 246 199 sel 64;
#X obj 166 182 list prepend, f 7;
#X obj 166 226 t l;
#X obj 145 277 list;
#X obj 145 305 list trim;
#X obj 145 332 outlet;
#X obj 40 43 t b l;
#X text 289 199 "@";
#X connect 0 0 14 0;
#X connect 1 0 2 0;
#X connect 2 0 3 0;
#X connect 3 0 4 0;
#X connect 3 1 2 1;
#X connect 3 2 1 1;
#X connect 3 2 9 1;
#X connect 3 2 11 0;
#X connect 4 0 9 0;
#X connect 4 1 5 0;
#X connect 5 0 9 0;
#X connect 5 1 6 0;
#X connect 6 0 7 0;
#X connect 7 0 8 0;
#X connect 8 0 9 1;
#X connect 8 0 11 0;
#X connect 9 0 10 0;
#X connect 10 0 11 1;
#X connect 10 0 9 1;
#X connect 11 0 12 0;
#X connect 12 0 13 0;
#X connect 14 0 1 0;
#X connect 14 1 2 1;
#X restore 28 69 pd break;
#X obj 28 94 route float @mode @legatomode;
#X obj 56 155 v mode_\$0;
#X obj 56 131 clip 0 2;
#X connect 3 0 5 0;
#X connect 5 0 6 0;
#X connect 6 0 7 0;
#X connect 7 0 9 0;
#X connect 7 1 9 0;
#X connect 7 2 4 0;
#X connect 9 0 8 0;
#X restore 31 85 pd init \; tables;
#X text 233 85 Part of Cyclone \; https://github.com/porres/pd-cyclone
;
#N canvas 595 160 418 534 legatomode 0;
#X obj 51 47 inlet;
#X obj 133 431 outlet;
#X obj 51 214 f;
#X obj 141 261 f;
#X obj 51 88 trigger bang float;
#X obj 97 187 v i_\$0;
#X obj 97 227 sel 1;
#X obj 51 118 v legato_\$0;
#X obj 51 142 sel 0 1 2;
#X obj 97 207 < 2;
#X obj 235 289 f \$0;
#X obj 172 173 f;
#X obj 241 126 v i_\$0;
#X obj 241 169 sel 1;
#X obj 241 147 < 2;
#X obj 172 206 sel 0;
#X obj 241 224 f;
#X obj 199 228 b;
#X obj 235 381 v i_\$0;
#X msg 235 313 0 \; notes_\$1 const 0 \; velocities_\$1 const 0 \;
order_\$1 const 0 \; \$1-poly clear \;;
#X obj 172 261 trigger f b;
#X connect 0 0 4 0;
#X connect 2 0 1 0;
#X connect 3 0 1 0;
#X connect 4 0 7 0;
#X connect 4 1 2 1;
#X connect 4 1 3 1;
#X connect 4 1 11 1;
#X connect 4 1 16 1;
#X connect 5 0 9 0;
#X connect 6 0 3 0;
#X connect 7 0 8 0;
#X connect 8 0 2 0;
#X connect 8 1 5 0;
#X connect 8 2 11 0;
#X connect 9 0 6 0;
#X connect 10 0 19 0;
#X connect 11 0 15 0;
#X connect 12 0 14 0;
#X connect 13 0 16 0;
#X connect 14 0 13 0;
#X connect 15 0 20 0;
#X connect 15 1 17 0;
#X connect 16 0 1 0;
#X connect 17 0 12 0;
#X connect 19 0 18 0;
#X connect 20 0 1 0;
#X connect 20 1 10 0;
#X restore 187 134 pd legatomode;
#X connect 1 0 6 0;
#X connect 2 0 5 1;
#X connect 5 0 0 0;
#X connect 5 1 9 0;
#X connect 6 0 5 0;
#X connect 9 0 3 0;
