#N canvas 414 87 727 453 10;
#X obj 243 296 line~;
#X obj 243 399 outlet~;
#X obj 539 17 inlet;
#X obj 315 267 f;
#X obj 243 158 spigot;
#X obj 315 363 s \$0-set-n;
#X obj 351 303 spigot;
#X obj 422 400 outlet;
#X obj 243 267 pack f \$2;
#X obj 539 76 max 0;
#X obj 539 99 change -1;
#X obj 243 234 change;
#X obj 276 126 t b f;
#X msg 384 267 1;
#X msg 350 329 set \$1;
#X msg 354 267 0;
#X obj 315 126 t b f b;
#X obj 276 78 r \$0-tgl;
#X obj 100 100 tgl 17 0 \$0-tgl \$0-tgl-set empty 17 7 0 10 -228856
-1 -204800 1 1;
#X obj 101 101 cnv 15 15 15 empty \$0-cnv-c empty 2 6 0 19 -41806 -188416
0;
#X obj 101 101 cnv 2 2 2 empty \$0-cnv-a | 4 7 0 12 -41806 -188416
0;
#X obj 101 101 cnv 2 2 2 empty \$0-cnv-b v 4 8 0 12 -41806 -188416
0;
#X obj 117 68 r \$0-set-n;
#X obj 117 100 nbx 8 17 -100 100 0 0 \$0-send-nbx \$0-receive-nbx empty
0 0 0 12 -41806 -262144 -188416 0 256;
#X obj 207 101 cnv 3 3 3 empty \$0-cnv-d empty 20 12 0 14 -41806 -188416
0;
#X msg 61 294 range -100 100;
#X text 63 265 before saving;
#X obj 61 324 s \$0-receive-nbx;
#X obj 422 267 snapshot~;
#X obj 422 17 inlet~ fwd;
#X obj 276 100 moses 1;
#N canvas 279 504 824 226 route 0;
#X obj 71 34 inlet;
#X obj 148 109 unpack;
#X obj 225 145 s \$0-ramp;
#X msg 71 109 set \$1;
#X obj 148 178 s \$0-set-n;
#X obj 533 156 s \$0-tgl-set;
#X obj 71 72 route set list ft1 interval min max bang bgcolor textcolor
, f 116;
#X obj 302 172 s \$0-interval;
#X obj 302 143 max 1;
#X obj 379 133 s \$0-min;
#X obj 456 122 s \$0-max;
#N canvas 180 29 390 311 tohex 0;
#X obj 227 98 makefilename %02x;
#X obj 155 124 makefilename %02x;
#X obj 82 161 makefilename %02x;
#X msg 82 220 symbol #\$1\$2\$3;
#X obj 82 191 pack symbol symbol symbol;
#X obj 120 70 unpack f f f;
#X obj 120 26 inlet;
#X obj 82 258 outlet;
#X connect 0 0 4 2;
#X connect 1 0 4 1;
#X connect 2 0 4 0;
#X connect 3 0 7 0;
#X connect 4 0 3 0;
#X connect 5 0 2 0;
#X connect 5 1 1 0;
#X connect 5 2 0 0;
#X connect 6 0 5 0;
#X restore 610 102 pd tohex;
#N canvas 180 29 390 311 tohex 0;
#X obj 227 98 makefilename %02x;
#X obj 155 124 makefilename %02x;
#X obj 82 161 makefilename %02x;
#X msg 82 220 symbol #\$1\$2\$3;
#X obj 82 191 pack symbol symbol symbol;
#X obj 120 70 unpack f f f;
#X obj 120 26 inlet;
#X obj 82 258 outlet;
#X connect 0 0 4 2;
#X connect 1 0 4 1;
#X connect 2 0 4 0;
#X connect 3 0 7 0;
#X connect 4 0 3 0;
#X connect 5 0 2 0;
#X connect 5 1 1 0;
#X connect 5 2 0 0;
#X connect 6 0 5 0;
#X restore 687 102 pd tohex;
#X obj 610 126 s \$0-bg;
#X obj 687 126 s \$0-fg;
#X connect 0 0 6 0;
#X connect 1 0 4 0;
#X connect 1 1 2 0;
#X connect 3 0 4 0;
#X connect 6 0 3 0;
#X connect 6 1 1 0;
#X connect 6 2 2 0;
#X connect 6 3 8 0;
#X connect 6 4 9 0;
#X connect 6 5 10 0;
#X connect 6 6 5 0;
#X connect 6 7 11 0;
#X connect 6 8 12 0;
#X connect 8 0 7 0;
#X connect 11 0 13 0;
#X connect 12 0 14 0;
#X restore 479 48 pd route;
#X obj 243 53 r \$0-set;
#X obj 551 46 r \$0-ramp;
#N canvas 793 53 524 603 init 0;
#X msg 233 526 range \$1 \$2;
#X obj 233 549 s \$0-receive-nbx;
#X obj 296 403 expr -pow(1e+19 \, 1e+19) \; pow(1e+19 \, 1e+19);
#X obj 72 139 savestate;
#X obj 91 231 list split 1;
#X obj 125 253 list split 1;
#X obj 159 275 list split 1;
#X obj 233 306 list split 2;
#X obj 345 174 list split 3;
#X obj 141 204 cyclone/prepend set;
#X obj 258 144 cyclone/pak 0 0 0 0 0 s s s;
#X obj 91 453 s \$0-tgl-set;
#X obj 91 430 expr \$1 != 0;
#X obj 233 334 expr $f1 \; $f2 \; $f1 == $f2, f 11;
#X obj 296 379 sel 1;
#X obj 72 501 s \$0-start;
#X obj 72 208 t b l l;
#X obj 233 503 cyclone/pak;
#X msg 296 453 set \$1;
#X obj 308 476 r \$0-min;
#X obj 313 503 r \$0-max;
#X obj 144 372 s \$0-interval;
#X obj 144 348 max 1;
#X obj 125 397 s \$0-ramp;
#X obj 322 99 r \$0-receive-nbx;
#X obj 303 72 r \$0-interval;
#X obj 280 51 r \$0-ramp;
#X obj 322 120 route range color;
#X msg 345 246 color \$1 \$2 \$3;
#X obj 345 353 s \$0-receive-nbx;
#X obj 375 270 s \$0-cnv-a;
#X obj 369 289 s \$0-cnv-b;
#X obj 364 308 s \$0-cnv-c;
#X obj 357 327 s \$0-cnv-d;
#X obj 345 225 cyclone/pak s s s;
#X obj 258 29 r \$0-tgl;
#X obj 356 198 r \$0-bg;
#X obj 411 198 r \$0-fg;
#X obj 123 168 list append 0 0 100 0 0 #2a3434 #ffffff #b6fefd, f
23;
#X connect 0 0 1 0;
#X connect 2 0 17 0;
#X connect 2 1 18 0;
#X connect 3 0 16 0;
#X connect 3 1 38 0;
#X connect 4 0 12 0;
#X connect 4 1 5 0;
#X connect 5 0 23 0;
#X connect 5 1 6 0;
#X connect 6 0 22 0;
#X connect 6 1 7 0;
#X connect 7 0 13 0;
#X connect 7 1 8 0;
#X connect 8 0 34 0;
#X connect 9 0 10 0;
#X connect 10 0 38 1;
#X connect 12 0 11 0;
#X connect 13 0 17 0;
#X connect 13 1 18 0;
#X connect 13 2 14 0;
#X connect 14 0 2 0;
#X connect 16 0 15 0;
#X connect 16 1 4 0;
#X connect 16 2 9 0;
#X connect 17 0 0 0;
#X connect 18 0 17 1;
#X connect 19 0 17 0;
#X connect 20 0 17 1;
#X connect 22 0 21 0;
#X connect 24 0 27 0;
#X connect 25 0 10 2;
#X connect 26 0 10 1;
#X connect 27 0 10 3;
#X connect 27 1 10 5;
#X connect 28 0 29 0;
#X connect 28 0 33 0;
#X connect 28 0 32 0;
#X connect 28 0 31 0;
#X connect 28 0 30 0;
#X connect 34 0 28 0;
#X connect 35 0 10 0;
#X connect 36 0 34 0;
#X connect 37 0 34 1;
#X connect 38 0 3 0;
#X restore 95 182 pd init;
#N canvas 0 23 450 300 gui-set 0;
#X obj 55 213 s \$0-cnv-c;
#X obj 55 133 sel 0 1;
#X msg 55 172 label ~;
#X msg 116 173 label;
#X obj 200 71 r \$0-tgl;
#X obj 200 96 sel 0 1;
#X obj 282 179 s \$0-cnv-a;
#X obj 175 192 s \$0-cnv-b;
#X msg 175 132 label;
#X msg 282 133 label |;
#X msg 219 133 label v;
#X connect 1 0 2 0;
#X connect 1 1 3 0;
#X connect 2 0 0 0;
#X connect 3 0 0 0;
#X connect 4 0 5 0;
#X connect 4 0 1 0;
#X connect 5 0 8 0;
#X connect 5 1 9 0;
#X connect 5 1 10 0;
#X connect 8 0 7 0;
#X connect 8 0 6 0;
#X connect 9 0 6 0;
#X connect 10 0 7 0;
#X restore 95 210 pd gui-set;
#X obj 460 220 r \$0-interval;
#X obj 433 244 metro;
#X obj 433 197 r \$0-start;
#X text 457 307 Part of Cyclone;
#X text 457 325 https://github.com/porres/pd-cyclone;
#X connect 0 0 1 0;
#X connect 2 0 9 0;
#X connect 3 0 5 0;
#X connect 4 0 3 1;
#X connect 4 0 11 0;
#X connect 6 0 14 0;
#X connect 8 0 0 0;
#X connect 9 0 10 0;
#X connect 10 0 8 1;
#X connect 11 0 8 0;
#X connect 12 0 13 0;
#X connect 12 1 4 1;
#X connect 13 0 6 1;
#X connect 14 0 5 0;
#X connect 15 0 6 1;
#X connect 16 0 3 0;
#X connect 16 1 4 1;
#X connect 16 2 15 0;
#X connect 17 0 30 0;
#X connect 22 0 23 0;
#X connect 23 0 4 0;
#X connect 25 0 27 0;
#X connect 28 0 6 0;
#X connect 28 0 7 0;
#X connect 29 0 28 0;
#X connect 29 1 31 0;
#X connect 30 0 12 0;
#X connect 30 1 16 0;
#X connect 32 0 4 0;
#X connect 33 0 9 0;
#X connect 36 0 37 1;
#X connect 37 0 28 0;
#X connect 38 0 37 0;
#X coords 0 -1 1 1 111 17 2 100 100;
