#N canvas 275 164 759 464 10;
#X obj 225 284 line~;
#X obj 225 399 outlet~;
#X obj 551 17 inlet;
#X obj 297 276 f;
#X obj 225 158 spigot;
#X obj 297 341 s \$0-set-n;
#X obj 344 278 spigot;
#X obj 444 400 outlet;
#X obj 225 257 pack f \$2;
#X obj 551 67 max 0;
#X obj 551 94 change -1;
#X obj 225 234 change;
#X obj 258 123 t b f;
#X msg 378 231 1;
#X msg 343 304 set \$1;
#X msg 348 230 0;
#X obj 297 123 t b f b;
#X obj 258 75 r \$0-tgl;
#X obj 100 100 tgl 17 0 \$0-tgl \$0-tgl-set empty 17 7 0 10 -228856
-1 -204800 1 1;
#X obj 101 101 cnv 15 15 15 empty \$0-cnv-c empty 2 6 0 19 -41806 -1
0;
#X obj 101 101 cnv 2 2 2 empty \$0-cnv-a | 4 7 0 12 -41806 -1 0;
#X obj 101 101 cnv 2 2 2 empty \$0-cnv-b v 4 8 0 12 -41806 -1 0;
#X obj 117 68 r \$0-set-n;
#N canvas 433 336 813 453 GUI 0;
#X obj 90 104 f \$1;
#X obj 90 130 != 0;
#X obj 90 34 loadbang;
#X obj 90 154 s \$0-tgl-set;
#X obj 45 386 s \$0-cnv-c;
#X obj 45 306 sel 0 1;
#X msg 45 345 label ~;
#X msg 106 346 label;
#X obj 190 244 r \$0-tgl;
#X obj 190 269 sel 0 1;
#X obj 272 352 s \$0-cnv-a;
#X obj 165 365 s \$0-cnv-b;
#X msg 165 305 label;
#X msg 272 306 label |;
#X msg 209 306 label v;
#X obj 181 130 pack;
#X obj 181 81 expr -pow(1e+19 \, 1e+19) \; pow(1e+19 \, 1e+19);
#X msg 181 160 range \$1 \$2;
#X obj 181 193 s \$0-receive-nbx;
#X obj 426 72 loadbang;
#X msg 427 198 color \$1 \$2 \$3;
#N canvas 180 29 390 311 tohex 0;
#X obj 227 98 makefilename %02x;
#X obj 155 124 makefilename %02x;
#X obj 82 161 makefilename %02x;
#X msg 82 220 symbol #\$1\$2\$3;
#X obj 82 191 pack symbol symbol symbol;
#X obj 120 70 unpack f f f;
#X obj 120 26 inlet;
#X obj 82 258 outlet;
#X connect 0 0 4 2;
#X connect 1 0 4 1;
#X connect 2 0 4 0;
#X connect 3 0 7 0;
#X connect 4 0 3 0;
#X connect 5 0 2 0;
#X connect 5 1 1 0;
#X connect 5 2 0 0;
#X connect 6 0 5 0;
#X restore 449 140 pd tohex;
#N canvas 180 29 390 311 tohex 0;
#X obj 227 98 makefilename %02x;
#X obj 155 124 makefilename %02x;
#X obj 82 161 makefilename %02x;
#X msg 82 220 symbol #\$1\$2\$3;
#X obj 82 191 pack symbol symbol symbol;
#X obj 120 70 unpack f f f;
#X obj 120 26 inlet;
#X obj 82 258 outlet;
#X connect 0 0 4 2;
#X connect 1 0 4 1;
#X connect 2 0 4 0;
#X connect 3 0 7 0;
#X connect 4 0 3 0;
#X connect 5 0 2 0;
#X connect 5 1 1 0;
#X connect 5 2 0 0;
#X connect 6 0 5 0;
#X restore 530 140 pd tohex;
#X obj 449 110 r \$0-bg;
#X obj 427 322 s \$0-receive-nbx;
#X obj 530 110 r \$0-fg;
#X obj 484 227 s \$0-cnv-a;
#X obj 472 248 s \$0-cnv-b;
#X obj 458 271 s \$0-cnv-c;
#X obj 446 292 s \$0-cnv-d;
#X obj 427 169 cyclone/pak #2a3434 #ffffff #b6fefd;
#X connect 0 0 1 0;
#X connect 1 0 3 0;
#X connect 2 0 0 0;
#X connect 2 0 16 0;
#X connect 5 0 6 0;
#X connect 5 1 7 0;
#X connect 6 0 4 0;
#X connect 7 0 4 0;
#X connect 8 0 9 0;
#X connect 8 0 5 0;
#X connect 9 0 12 0;
#X connect 9 1 13 0;
#X connect 9 1 14 0;
#X connect 12 0 11 0;
#X connect 12 0 10 0;
#X connect 13 0 10 0;
#X connect 14 0 11 0;
#X connect 15 0 17 0;
#X connect 16 0 15 0;
#X connect 16 1 15 1;
#X connect 17 0 18 0;
#X connect 19 0 30 0;
#X connect 20 0 24 0;
#X connect 20 0 29 0;
#X connect 20 0 28 0;
#X connect 20 0 27 0;
#X connect 20 0 26 0;
#X connect 21 0 30 0;
#X connect 22 0 30 1;
#X connect 23 0 21 0;
#X connect 25 0 22 0;
#X connect 30 0 20 0;
#X restore 117 201 pd GUI \; init;
#X obj 117 100 nbx 8 17 -100 100 0 0 \$0-send-nbx \$0-receive-nbx empty
0 0 0 12 -41806 -262144 -1 44 256;
#X obj 207 101 cnv 3 3 3 empty \$0-cnv-d empty 20 12 0 14 -41806 -1
0;
#X msg 62 309 range -100 100;
#X text 64 280 before saving;
#X obj 62 344 s \$0-receive-nbx;
#X obj 444 244 snapshot~;
#X obj 444 17 inlet~ fwd;
#X obj 258 97 moses 1;
#N canvas 667 194 846 326 route 0;
#X obj 71 33 inlet;
#X obj 128 121 unpack;
#X obj 186 157 s \$0-ramp;
#X msg 71 121 set \$1;
#X obj 244 257 outlet;
#X msg 302 162 range \$1 \$2;
#X obj 302 203 s \$0-set-n;
#X obj 302 136 cyclone/pak -1e+12 1e+12;
#X obj 128 190 s \$0-set-n;
#X obj 517 129 s \$0-tgl-set;
#X obj 71 84 route set list ft1 interval min max bang bgcolor textcolor
, f 116;
#X obj 613 171 s \$0-bg;
#X obj 642 127 s \$0-fg;
#X connect 0 0 10 0;
#X connect 1 0 8 0;
#X connect 1 1 2 0;
#X connect 3 0 8 0;
#X connect 5 0 6 0;
#X connect 7 0 5 0;
#X connect 10 0 3 0;
#X connect 10 1 1 0;
#X connect 10 2 2 0;
#X connect 10 3 4 0;
#X connect 10 4 7 0;
#X connect 10 5 7 1;
#X connect 10 6 9 0;
#X connect 10 7 11 0;
#X connect 10 8 12 0;
#X restore 530 181 pd route;
#X obj 243 46 r \$0-set;
#X obj 563 41 r \$0-ramp;
#X obj 457 217 metro 100;
#X obj 457 182 loadbang;
#X connect 0 0 1 0;
#X connect 2 0 9 0;
#X connect 3 0 5 0;
#X connect 4 0 3 1;
#X connect 4 0 11 0;
#X connect 6 0 14 0;
#X connect 8 0 0 0;
#X connect 9 0 10 0;
#X connect 10 0 8 1;
#X connect 11 0 8 0;
#X connect 12 0 13 0;
#X connect 12 1 4 1;
#X connect 13 0 6 1;
#X connect 14 0 5 0;
#X connect 15 0 6 1;
#X connect 16 0 3 0;
#X connect 16 1 4 1;
#X connect 16 2 15 0;
#X connect 17 0 31 0;
#X connect 22 0 24 0;
#X connect 24 0 4 0;
#X connect 26 0 28 0;
#X connect 29 0 6 0;
#X connect 29 0 7 0;
#X connect 30 0 29 0;
#X connect 30 1 32 0;
#X connect 31 0 12 0;
#X connect 31 1 16 0;
#X connect 32 0 35 1;
#X connect 33 0 4 0;
#X connect 34 0 9 0;
#X connect 35 0 29 0;
#X connect 36 0 35 0;
#X coords 0 -1 1 1 111 17 2 100 100;
