#N canvas 275 164 759 464 10;
#X obj 225 284 line~;
#X obj 225 379 outlet~;
#X obj 551 17 inlet;
#X obj 297 276 f;
#X obj 225 158 spigot;
#X obj 297 341 s \$0-set-n;
#X obj 344 278 spigot;
#X obj 444 380 outlet;
#X obj 225 257 pack f \$2;
#X obj 551 67 max 0;
#X obj 551 94 change -1;
#X obj 225 234 change;
#X obj 258 123 t b f;
#X msg 378 231 1;
#X msg 343 304 set \$1;
#X msg 348 230 0;
#X obj 297 123 t b f b;
#X obj 258 75 r \$0-tgl;
#X obj 100 100 tgl 17 0 \$0-tgl \$0-tgl-set empty 17 7 0 10 -228856
-1 -204800 1 1;
#X obj 101 101 cnv 15 15 15 empty \$0-cnv-c empty 2 6 0 19 -62546 -204800
0;
#X obj 101 101 cnv 2 2 2 empty \$0-cnv-a | 4 7 0 12 -62546 -204800
0;
#X obj 101 101 cnv 2 2 2 empty \$0-cnv-b v 4 8 0 12 -62546 -204800
0;
#X obj 117 68 r \$0-set-n;
#N canvas 217 77 752 539 GUI 0;
#X obj 214 123 f \$1;
#X obj 214 149 != 0;
#X obj 214 83 loadbang;
#X obj 214 173 s \$0-tgl-set;
#X obj 173 400 s \$0-cnv-c;
#X obj 173 320 sel 0 1;
#X msg 173 359 label ~;
#X msg 234 360 label;
#X obj 318 258 r \$0-tgl;
#X obj 318 283 sel 0 1;
#X obj 400 366 s \$0-cnv-a;
#X obj 293 379 s \$0-cnv-b;
#X msg 293 319 label;
#X msg 400 320 label |;
#X msg 337 320 label v;
#X obj 380 390 s \$0-cnv-d;
#X obj 536 191 pack;
#X obj 536 137 expr -pow(1e+19 \, 1e+19) \; pow(1e+19 \, 1e+19);
#X msg 536 226 range \$1 \$2;
#X obj 535 112 loadbang;
#X obj 536 259 s \$0-receive-nbx;
#X obj 510 113 bng 15 250 50 0 empty empty empty 17 7 0 10 -262144
-1 -1;
#X connect 0 0 1 0;
#X connect 1 0 3 0;
#X connect 2 0 0 0;
#X connect 5 0 6 0;
#X connect 5 1 7 0;
#X connect 6 0 4 0;
#X connect 7 0 4 0;
#X connect 8 0 9 0;
#X connect 8 0 5 0;
#X connect 9 0 12 0;
#X connect 9 1 13 0;
#X connect 9 1 14 0;
#X connect 12 0 11 0;
#X connect 12 0 10 0;
#X connect 12 0 15 0;
#X connect 13 0 10 0;
#X connect 13 0 15 0;
#X connect 14 0 11 0;
#X connect 16 0 18 0;
#X connect 17 0 16 0;
#X connect 17 1 16 1;
#X connect 18 0 20 0;
#X connect 19 0 17 0;
#X connect 21 0 17 0;
#X restore 130 220 pd GUI \; init;
#X obj 117 100 nbx 8 17 -100 100 0 0 \$0-send-nbx \$0-receive-nbx empty
0 0 0 12 -62546 -262144 -262144 81 256;
#X obj 207 101 cnv 3 3 3 empty empty empty 20 12 0 14 -62546 -262144
0;
#X msg 62 309 range -100 100;
#X text 64 280 before saving;
#X obj 62 344 s \$0-receive-nbx;
#X obj 444 244 snapshot~;
#X obj 444 17 inlet~ fwd;
#X obj 258 97 moses 1;
#N canvas 667 194 979 506 route 0;
#X obj 71 33 inlet;
#X obj 128 121 unpack;
#X obj 186 157 s \$0-ramp;
#X msg 71 121 set \$1;
#X obj 244 257 outlet;
#X msg 302 162 range \$1 \$2;
#X obj 302 203 s \$0-set-n;
#X obj 302 136 cyclone/pak -1e+12 1e+12;
#X obj 128 190 s \$0-set-n;
#X obj 517 129 s \$0-tgl-set;
#X obj 71 84 route set list ft1 interval min max bang bgcolor textcolor
, f 116;
#X connect 0 0 10 0;
#X connect 1 0 8 0;
#X connect 1 1 2 0;
#X connect 3 0 8 0;
#X connect 5 0 6 0;
#X connect 7 0 5 0;
#X connect 10 0 3 0;
#X connect 10 1 1 0;
#X connect 10 2 2 0;
#X connect 10 3 4 0;
#X connect 10 4 7 0;
#X connect 10 5 7 1;
#X connect 10 6 9 0;
#X restore 550 181 pd route;
#X obj 243 46 r \$0-set;
#X obj 563 41 r \$0-ramp;
#X obj 457 217 metro 100;
#X obj 457 190 loadbang;
#X connect 0 0 1 0;
#X connect 2 0 9 0;
#X connect 3 0 5 0;
#X connect 4 0 3 1;
#X connect 4 0 11 0;
#X connect 6 0 14 0;
#X connect 8 0 0 0;
#X connect 9 0 10 0;
#X connect 10 0 8 1;
#X connect 11 0 8 0;
#X connect 12 0 13 0;
#X connect 12 1 4 1;
#X connect 13 0 6 1;
#X connect 14 0 5 0;
#X connect 15 0 6 1;
#X connect 16 0 3 0;
#X connect 16 1 4 1;
#X connect 16 2 15 0;
#X connect 17 0 31 0;
#X connect 22 0 24 0;
#X connect 24 0 4 0;
#X connect 26 0 28 0;
#X connect 29 0 6 0;
#X connect 29 0 7 0;
#X connect 30 0 29 0;
#X connect 30 1 32 0;
#X connect 31 0 12 0;
#X connect 31 1 16 0;
#X connect 32 0 35 1;
#X connect 33 0 4 0;
#X connect 34 0 9 0;
#X connect 35 0 29 0;
#X connect 36 0 35 0;
#X coords 0 -1 1 1 111 17 2 100 100;
