#N canvas 797 278 583 417 10;
#X obj 225 250 line~;
#X obj 394 17 inlet~;
#X obj 225 359 outlet~;
#X obj 451 17 inlet;
#X obj 327 236 f;
#X obj 225 158 spigot;
#X obj 327 301 s \$0-set-n;
#X obj 417 226 spigot;
#X obj 394 359 outlet;
#X obj 225 223 pack f \$2;
#X obj 451 51 max 0;
#X obj 451 74 change -1;
#X obj 225 200 change;
#X obj 281 61 sel 0 1;
#X msg 281 88 0;
#X obj 281 112 t b f;
#X msg 450 201 1;
#X msg 341 269 set \$1;
#X msg 327 93 1;
#X msg 366 185 0;
#X obj 327 117 t b f b;
#X obj 281 37 r \$0-tgl;
#X obj 100 100 tgl 17 0 \$0-tgl \$0-tgl-set empty 17 7 0 10 -228856
-1 -204800 0 1;
#X obj 101 101 cnv 15 15 15 empty \$0-cnv-c ~ 2 6 0 19 -62546 -204800
0;
#X obj 101 101 cnv 2 2 2 empty \$0-cnv-a empty 4 7 0 12 -62546 -204800
0;
#X obj 101 101 cnv 2 2 2 empty \$0-cnv-b empty 4 8 0 12 -62546 -204800
0;
#X obj 117 48 r \$0-set-n;
#N canvas 217 77 752 539 GUI 0;
#X obj 214 123 f \$1;
#X obj 214 149 != 0;
#X obj 214 83 loadbang;
#X obj 214 173 s \$0-tgl-set;
#X obj 173 400 s \$0-cnv-c;
#X obj 173 320 sel 0 1;
#X msg 173 359 label ~;
#X msg 234 360 label;
#X obj 318 258 r \$0-tgl;
#X obj 318 283 sel 0 1;
#X obj 400 366 s \$0-cnv-a;
#X obj 293 379 s \$0-cnv-b;
#X msg 293 319 label;
#X msg 400 320 label |;
#X msg 337 320 label v;
#X obj 380 390 s \$0-cnv-d;
#X obj 536 191 pack;
#X obj 536 137 expr -pow(1e+19 \, 1e+19) \; pow(1e+19 \, 1e+19);
#X msg 536 226 range \$1 \$2;
#X obj 535 112 loadbang;
#X obj 536 259 s \$0-receive-nbx;
#X obj 510 113 bng 15 250 50 0 empty empty empty 17 7 0 10 -262144
-1 -1;
#X connect 0 0 1 0;
#X connect 1 0 3 0;
#X connect 2 0 0 0;
#X connect 5 0 6 0;
#X connect 5 1 7 0;
#X connect 6 0 4 0;
#X connect 7 0 4 0;
#X connect 8 0 9 0;
#X connect 8 0 5 0;
#X connect 9 0 12 0;
#X connect 9 1 13 0;
#X connect 9 1 14 0;
#X connect 12 0 11 0;
#X connect 12 0 10 0;
#X connect 12 0 15 0;
#X connect 13 0 10 0;
#X connect 13 0 15 0;
#X connect 14 0 11 0;
#X connect 16 0 18 0;
#X connect 17 0 16 0;
#X connect 17 1 16 1;
#X connect 18 0 20 0;
#X connect 19 0 17 0;
#X connect 21 0 17 0;
#X restore 130 220 pd GUI \; init;
#X obj 117 100 nbx 8 17 -100 100 0 0 \$0-send-nbx \$0-receive-nbx empty
0 0 0 12 -62546 -262144 -262144 0 256;
#X obj 207 101 cnv 3 3 3 empty empty empty 20 12 0 14 -62546 -262144
0;
#X msg 62 309 range -100 100;
#X text 64 280 before saving;
#X obj 62 344 s \$0-receive-nbx;
#X obj 394 151 snapshot~;
#X obj 430 124 bang~;
#X connect 0 0 2 0;
#X connect 1 0 33 0;
#X connect 3 0 10 0;
#X connect 4 0 6 0;
#X connect 5 0 4 1;
#X connect 5 0 12 0;
#X connect 7 0 17 0;
#X connect 9 0 0 0;
#X connect 10 0 11 0;
#X connect 11 0 9 1;
#X connect 12 0 9 0;
#X connect 13 0 14 0;
#X connect 13 1 18 0;
#X connect 14 0 15 0;
#X connect 15 0 16 0;
#X connect 15 1 5 1;
#X connect 16 0 7 1;
#X connect 17 0 6 0;
#X connect 18 0 20 0;
#X connect 19 0 7 1;
#X connect 20 0 4 0;
#X connect 20 1 5 1;
#X connect 20 2 19 0;
#X connect 21 0 13 0;
#X connect 26 0 28 0;
#X connect 28 0 5 0;
#X connect 30 0 32 0;
#X connect 33 0 7 0;
#X connect 33 0 8 0;
#X connect 34 0 33 0;
#X coords 0 -1 1 1 111 17 2 100 100;
