#N canvas 176 102 561 605 10;
#X obj 2 534 cnv 15 552 21 empty empty empty 20 12 0 14 -233017 -33289
0;
#X obj 2 413 cnv 3 550 3 empty empty inlets 8 12 0 13 -228856 -1 0
;
#X obj 2 459 cnv 3 550 3 empty empty outlets 8 12 0 13 -228856 -1 0
;
#X obj 2 496 cnv 3 550 3 empty empty arguments 8 12 0 13 -228856 -1
0;
#X obj 114 471 cnv 17 3 17 empty empty 0 5 9 0 16 -228856 -162280 0
;
#X text 148 427 signal;
#X text 148 471 signal;
#X text 148 507 (none);
#X obj 114 429 cnv 17 3 17 empty empty 0 5 9 0 16 -228856 -162280 0
;
#X text 204 428 - input to hyperbolic arc-sine function;
#X text 79 95 Use [asinh~] to output the hyperbolic arc-sine of each
input sample (probably only useful for mathematical calculations).
;
#X text 204 472 - the hyperbolic arc-sine of the input;
#X obj 429 304 cyclone/asinh~;
#X obj 429 345 cyclone/number~;
#X obj 429 262 cyclone/number~ 1;
#X text 22 61 Signal hyperbolic arc sine function;
#X obj 3 3 cnv 15 301 42 empty empty asinh~ 19 12 2 37 -233017 -1 0
;
#X obj 305 4 cnv 15 250 40 empty empty empty 12 13 0 18 -128992 -233080
0;
#N canvas 382 141 749 319 (subpatch) 0;
#X coords 0 -1 1 1 252 42 2 100 100;
#X restore 304 3 pd;
#X obj 374 11 cnv 10 10 10 empty empty cyclone 0 5 2 24 -128992 -233080
0;
#X obj 340 29 cnv 10 10 10 empty empty Objects 0 6 2 13 -128992 -233080
0;
#X obj 395 29 cnv 10 10 10 empty empty cloned 0 6 2 13 -128992 -233080
0;
#X obj 441 29 cnv 10 10 10 empty empty from 0 6 2 13 -128992 -233080
0;
#X obj 474 30 cnv 10 10 10 empty empty Max/MSP 0 6 2 13 -128992 -233080
0;
#X obj 486 79 ./setdsp~;
#N canvas 0 22 450 278 (subpatch) 0;
#X coords 0 1 100 -1 302 42 1 0 0;
#X restore 2 3 graph;
#X obj 61 187 *~ 3.14159;
#X obj 249 193 -~ 3.14159;
#X obj 249 171 *~ 6.28319;
#X obj 249 145 phasor~ 2;
#X text 43 252 2;
#X text 233 255 2;
#X text 38 375 -2;
#X text 43 313 0;
#X text 226 378 -2;
#X text 233 316 0;
#X text 131 187 * pi;
#X text 319 171 * 2pi;
#X text 321 194 - pi;
#X obj 61 216 cyclone/asinh~;
#X obj 249 221 cyclone/asinh~;
#X obj 61 157 osc~ 2;
#X obj 61 259 cyclone/scope~ 130 130 256 3 128 -2 2 0 0 0 0 205 229
232 74 79 77 96 98 102 0;
#X obj 249 259 cyclone/scope~ 130 130 256 3 128 -2 2 0 0 0 0 205 229
232 74 79 77 96 98 102 0;
#X connect 12 0 13 0;
#X connect 14 0 12 0;
#X connect 26 0 39 0;
#X connect 27 0 40 0;
#X connect 28 0 27 0;
#X connect 29 0 28 0;
#X connect 39 0 42 0;
#X connect 40 0 43 0;
#X connect 41 0 26 0;
