#N canvas 476 162 558 564 10;
#X obj 3 524 cnv 15 552 21 empty empty empty 20 12 0 14 -233017 -33289
0;
#X obj 3 413 cnv 3 550 3 empty empty inlets 8 12 0 13 -228856 -1 0
;
#X obj 3 451 cnv 3 550 3 empty empty outlets 8 12 0 13 -228856 -1 0
;
#X obj 3 488 cnv 3 550 3 empty empty arguments 8 12 0 13 -228856 -1
0;
#X obj 131 463 cnv 17 3 17 empty empty 0 5 9 0 16 -228856 -162280 0
;
#X text 160 462 signal;
#X text 160 425 signal;
#X text 260 499 (none);
#X obj 131 426 cnv 17 3 17 empty empty 0 5 9 0 16 -228856 -162280 0
;
#X text 214 461 - the arc-tangent of the input;
#X text 212 426 - input to arc-tangent function;
#X text 66 97 Use [atan~] to output the arc-tangent of each input sample
(probably only useful for mathematical calculations).;
#X obj 424 304 cyclone/atan~;
#X obj 424 345 cyclone/number~;
#X obj 424 262 cyclone/number~ 1;
#X text 22 61 Signal arc tangent function;
#X obj 3 3 cnv 15 301 42 empty empty atan~ 20 20 2 37 -233017 -1 0
;
#X obj 305 4 cnv 15 250 40 empty empty empty 12 13 0 18 -128992 -233080
0;
#N canvas 382 141 749 319 (subpatch) 0;
#X coords 0 -1 1 1 252 42 2 100 100;
#X restore 304 3 pd;
#X obj 374 11 cnv 10 10 10 empty empty cyclone 0 5 2 24 -128992 -233080
0;
#X obj 340 29 cnv 10 10 10 empty empty Objects 0 6 2 13 -128992 -233080
0;
#X obj 395 29 cnv 10 10 10 empty empty cloned 0 6 2 13 -128992 -233080
0;
#X obj 441 29 cnv 10 10 10 empty empty from 0 6 2 13 -128992 -233080
0;
#X obj 474 30 cnv 10 10 10 empty empty Max/MSP 0 6 2 13 -128992 -233080
0;
#X obj 496 69 ./setdsp~;
#N canvas 0 22 450 278 (subpatch) 0;
#X coords 0 1 100 -1 554 42 1 0 0;
#X restore 2 3 graph;
#X obj 40 186 *~ 3.14159;
#X obj 231 199 -~ 3.14195;
#X obj 231 179 *~ 6.28319;
#X obj 231 153 phasor~ 2;
#X text 177 314 0;
#X text 176 379 -pi/2;
#X text 177 255 pi/2;
#X text 368 314 0;
#X text 367 379 -pi/2;
#X text 368 255 pi/2;
#X obj 40 217 cyclone/atan~;
#X obj 231 228 cyclone/atan~;
#X obj 40 156 osc~ 2;
#X obj 40 260 cyclone/scope~ 130 130 256 3 128 -1.57 1.57 0 0 0 0 205
229 232 74 79 77 96 98 102 0;
#X obj 231 262 cyclone/scope~ 130 130 256 3 128 -1.57 1.57 0 0 0 0
205 229 232 74 79 77 96 98 102 0;
#X text 110 188 * pi;
#X text 301 180 * 2pi;
#X text 305 198 - pi;
#X connect 12 0 13 0;
#X connect 14 0 12 0;
#X connect 26 0 36 0;
#X connect 27 0 37 0;
#X connect 28 0 27 0;
#X connect 29 0 28 0;
#X connect 36 0 39 0;
#X connect 37 0 40 0;
#X connect 38 0 26 0;
