#N canvas 851 172 559 610 10;
#X obj 3 563 cnv 15 552 21 empty empty empty 20 12 0 14 -233017 -33289
0;
#X obj 3 412 cnv 3 550 3 empty empty inlets 8 12 0 13 -228856 -1 0
;
#X obj 3 448 cnv 3 550 3 empty empty outlets 8 12 0 13 -228856 -1 0
;
#X obj 3 485 cnv 3 550 3 empty empty arguments 8 12 0 13 -228856 -1
0;
#X obj 117 460 cnv 17 3 17 empty empty 0 5 9 0 16 -228856 -162280 0
;
#X text 162 460 signal;
#X text 161 494 (none);
#X obj 117 422 cnv 17 3 17 empty empty 0 5 9 0 16 -228856 -162280 0
;
#X text 164 420 signal - input to hyperbolic arc-tangent function;
#X text 207 460 - the hyperbolic arc-tangent of the input;
#X obj 2 523 cnv 3 550 3 empty empty more_info 8 12 0 13 -228856 -1
0;
#X text 154 532 For input values <= -1 or >=1 \, the output is zero!
;
#X obj 430 304 cyclone/atanh~;
#X obj 430 262 cyclone/number~ 1;
#X obj 430 345 cyclone/number~;
#X text 54 93 Use [atanh~] to output the hyperbolic arc tangent of
each input sample (probably only useful for mathematical calculations).
;
#X text 21 62 Signal hyperbolic arc tangent function;
#X obj 3 3 cnv 15 301 42 empty empty atanh~ 20 20 2 37 -233017 -1 0
;
#X obj 305 4 cnv 15 250 40 empty empty empty 12 13 0 18 -128992 -233080
0;
#N canvas 382 141 749 319 (subpatch) 0;
#X coords 0 -1 1 1 252 42 2 100 100;
#X restore 304 3 pd;
#X obj 374 11 cnv 10 10 10 empty empty cyclone 0 5 2 24 -128992 -233080
0;
#X obj 340 29 cnv 10 10 10 empty empty Objects 0 6 2 13 -128992 -233080
0;
#X obj 395 29 cnv 10 10 10 empty empty cloned 0 6 2 13 -128992 -233080
0;
#X obj 441 29 cnv 10 10 10 empty empty from 0 6 2 13 -128992 -233080
0;
#X obj 474 30 cnv 10 10 10 empty empty Max/MSP 0 6 2 13 -128992 -233080
0;
#X obj 498 79 ./setdsp~;
#N canvas 0 22 450 278 (subpatch) 0;
#X coords 0 1 100 -1 554 42 1 0 0;
#X restore 2 3 graph;
#X obj 46 199 cyclone/atanh~;
#X obj 243 218 cyclone/atanh~;
#X text 183 304 0;
#X obj 243 147 phasor~ 2;
#X text 182 369 -pi;
#X text 183 245 pi;
#X text 380 303 0;
#X text 379 368 -pi;
#X text 380 244 pi;
#X obj 243 182 cyclone/triangle~ 1;
#X obj 46 165 osc~ 2;
#X obj 46 251 cyclone/scope~ 130 130 256 3 128 -3.14 3.14 0 0 0 0 205
229 232 74 79 77 96 98 102 0;
#X obj 243 251 cyclone/scope~ 130 130 256 3 128 -3.14 3.14 0 0 0 0
205 229 232 74 79 77 96 98 102 0;
#X obj 46 199 cyclone/atanh~;
#X connect 12 0 14 0;
#X connect 13 0 12 0;
#X connect 27 0 38 0;
#X connect 28 0 39 0;
#X connect 30 0 36 0;
#X connect 36 0 28 0;
#X connect 37 0 27 0;
