#N canvas 536 30 558 492 10;
#X obj 2 452 cnv 15 552 21 empty empty empty 20 12 0 14 -233017 -33289
0;
#X obj 2 309 cnv 3 550 3 empty empty inlets 8 12 0 13 -228856 -1 0
;
#X obj 2 377 cnv 3 550 3 empty empty outlets 8 12 0 13 -228856 -1 0
;
#X obj 2 414 cnv 3 550 3 empty empty arguments 8 12 0 13 -228856 -1
0;
#X obj 79 386 cnv 17 3 17 empty empty 0 5 9 0 16 -228856 -162280 0
;
#X text 142 386 signal;
#X obj 79 322 cnv 17 3 17 empty empty 0 5 9 0 16 -228856 -162280 0
;
#X obj 80 345 cnv 17 3 17 empty empty 1 5 9 0 16 -228856 -162280 0
;
#X text 132 423 1) float;
#N canvas 656 137 549 398 calculating 0;
#X obj 273 196 cyclone/atan2~;
#X obj 40 202 cyclone/cartopol~;
#X text 98 24 Calculating the phase value from a real and imaginary
part (cartesian coordinates):;
#X text 106 306 The purpose of using two arguments instead of one is
to gather information on the signs of the inputs in order to return
the appropriate quadrant of the computed angle \, which is not possible
for the single-argument arctangent function.;
#X text 287 86 Imaginary;
#X text 159 87 Real;
#X obj 273 244 cyclone/number~;
#X obj 139 244 cyclone/number~;
#X obj 131 107 cyclone/number~ 1;
#X obj 273 107 cyclone/number~ 1;
#N canvas 792 106 503 358 expr~ 0;
#X obj 68 217 cyclone/atan2~;
#X text 294 102 Imaginary;
#X text 177 101 Real;
#X obj 68 265 cyclone/number~;
#X obj 149 121 cyclone/number~ 1;
#X obj 280 123 cyclone/number~ 1;
#X obj 280 216 expr~ atan2($v1 \, $v2);
#X obj 280 262 cyclone/number~;
#X text 113 45 You can also find the atan2 function in [expr~];
#X connect 0 0 3 0;
#X connect 4 0 0 1;
#X connect 4 0 6 1;
#X connect 5 0 0 0;
#X connect 5 0 6 0;
#X connect 6 0 7 0;
#X restore 426 175 pd expr~;
#X connect 0 0 6 0;
#X connect 1 1 7 0;
#X connect 8 0 1 0;
#X connect 8 0 0 1;
#X connect 9 0 1 1;
#X connect 9 0 0 0;
#X restore 422 270 pd calculating phase;
#X obj 198 238 cyclone/atan2~;
#X text 54 134 Useful for mathematical calculations such as finding
the phase from cartesian coordinates.;
#X text 82 275 Arc-tangent (a/b);
#X text 189 386 - result of arctan(a/b) in radians;
#X text 172 178 "a";
#X text 254 207 "b";
#X obj 198 177 cyclone/number~ 1;
#X obj 279 207 cyclone/number~ 1;
#X obj 198 273 cyclone/number~;
#X text 54 99 Use the [atan2~] object to output the arc tangent of
two given values ("a" and "b") calculated as: Arc tangent (a/b).;
#X text 190 423 - value of "b" (default 0);
#X text 112 322 float/signal - "a" value input to an arc tangent function
;
#X text 111 347 float/signal - "b" value input to an arc tangent function
;
#X text 21 64 Signal two arguments arc tangent function;
#X obj 3 3 cnv 15 301 42 empty empty atan2~ 20 20 2 37 -233017 -1 0
;
#X obj 305 4 cnv 15 250 40 empty empty empty 12 13 0 18 -128992 -233080
0;
#N canvas 382 141 749 319 (subpatch) 0;
#X coords 0 -1 1 1 252 42 2 100 100;
#X restore 304 3 pd;
#X obj 374 11 cnv 10 10 10 empty empty cyclone 0 5 2 24 -128992 -233080
0;
#X obj 340 29 cnv 10 10 10 empty empty Objects 0 6 2 13 -128992 -233080
0;
#X obj 395 29 cnv 10 10 10 empty empty cloned 0 6 2 13 -128992 -233080
0;
#X obj 441 29 cnv 10 10 10 empty empty from 0 6 2 13 -128992 -233080
0;
#X obj 474 30 cnv 10 10 10 empty empty Max/MSP 0 6 2 13 -128992 -233080
0;
#X obj 495 79 ./setdsp~;
#N canvas 0 22 450 278 (subpatch) 0;
#X coords 0 1 100 -1 554 42 1 0 0;
#X restore 2 3 graph;
#X connect 10 0 18 0;
#X connect 16 0 10 0;
#X connect 17 0 10 1;
