#N canvas 582 66 565 560 10;
#X obj 6 520 cnv 15 552 21 empty empty empty 20 12 0 14 -233017 -33289
0;
#X obj 6 307 cnv 3 550 3 empty empty inlets 8 12 0 13 -228856 -1 0
;
#X obj 6 371 cnv 3 550 3 empty empty outlets 8 12 0 13 -228856 -1 0
;
#X obj 6 436 cnv 3 550 3 empty empty arguments 8 12 0 13 -228856 -1
0;
#X text 132 444 (none);
#X text 131 319 signal;
#X text 131 343 signal;
#X text 131 382 signal;
#X text 131 406 signal;
#X obj 100 320 cnv 17 3 17 empty empty 0 5 9 0 16 -228856 -162280 0
;
#X obj 100 344 cnv 17 3 17 empty empty 1 5 9 0 16 -228856 -162280 0
;
#X obj 100 384 cnv 17 3 17 empty empty 0 5 9 0 16 -228856 -162280 0
;
#X obj 100 407 cnv 17 3 17 empty empty 1 5 9 0 16 -228856 -162280 0
;
#N canvas 323 228 534 482 spectral_processing 0;
#X obj 110 239 cnv 15 300 100 empty empty polar: 6 10 0 14 -233017
-66577 0;
#X obj 205 210 cyclone/cartopol~;
#X obj 205 369 cyclone/poltocar~;
#X obj 241 147 rfft~;
#X obj 230 426 rifft~;
#X text 323 370 back to cartesian;
#X text 287 170 <= imaginary;
#X text 123 283 amplitude =>;
#X text 317 282 <= phase;
#X text 229 269 spectral;
#X text 223 288 processing;
#X text 229 306 in here;
#X text 178 172 real =>;
#X text 319 210 to polar form;
#X text 230 252 Do some;
#X text 88 22 [cartopol~] is useful for spectral processing in the
more intuitive polar form (with amplitude and phase values). This is
because when performing spectral analysis in Pd \, the signal is in
the cartesian form \, so we need [cartopol~] and [poltocar~] to convert
to and from the polar form in order to perform the FFT and iFFT. Here's
the general idea:;
#X connect 1 0 2 0;
#X connect 1 1 2 1;
#X connect 2 0 4 0;
#X connect 2 1 4 1;
#X connect 3 0 1 0;
#X connect 3 1 1 1;
#X restore 396 256 pd spectral_processing;
#X text 188 343 - imaginary part of the complex signal in cartesian
form;
#X text 188 319 - real part of the complex signal in cartesian form
;
#X text 137 154 Real;
#X text 247 154 Imaginary;
#X text 120 274 Amplitude;
#X text 255 274 Phase;
#X text 79 95 Use the [cartopol~] object to convert signal values representing
cartesian coordinates to a signal composed of polar coordinates - useful
for spectral processing.;
#X text 188 381 - amplitude output of the polar form;
#X text 189 406 - phase in radians (-pi to pi) output of the polar
form;
#X obj 6 472 cnv 3 550 3 empty empty more_info 8 12 0 13 -228856 -1
0;
#X obj 108 210 cyclone/cartopol~, f 21;
#X text 125 480 If the right outlet ins't connected to anything \,
the object won't compute the phase \, saving you some CPU.;
#X obj 231 250 cyclone/number~;
#X obj 108 250 cyclone/number~;
#X obj 108 174 cyclone/number~ 1;
#X obj 231 175 cyclone/number~ 1;
#X obj 3 3 cnv 15 301 42 empty empty cartopol~ 20 15 2 37 -233017 -1
0;
#X obj 305 4 cnv 15 250 40 empty empty empty 12 13 0 18 -128992 -233080
0;
#N canvas 382 141 749 319 (subpatch) 0;
#X coords 0 -1 1 1 252 42 2 100 100;
#X restore 304 3 pd;
#X obj 374 11 cnv 10 10 10 empty empty cyclone 0 5 2 24 -128992 -233080
0;
#X obj 340 29 cnv 10 10 10 empty empty Objects 0 6 2 13 -128992 -233080
0;
#X obj 395 29 cnv 10 10 10 empty empty cloned 0 6 2 13 -128992 -233080
0;
#X obj 441 29 cnv 10 10 10 empty empty from 0 6 2 13 -128992 -233080
0;
#X obj 474 30 cnv 10 10 10 empty empty Max/MSP 0 6 2 13 -128992 -233080
0;
#X text 24 61 Signal cartesian to polar conversion;
#X obj 494 63 ./setdsp~;
#N canvas 0 22 450 278 (subpatch) 0;
#X coords 0 1 100 -1 554 42 1 0 0;
#X restore 2 3 graph;
#X connect 24 0 27 0;
#X connect 24 1 26 0;
#X connect 28 0 24 0;
#X connect 29 0 24 1;
