#N canvas 551 83 560 558 10;
#X obj 6 515 cnv 15 552 21 empty empty empty 20 12 0 14 -233017 -33289
0;
#X obj 6 393 cnv 3 550 3 empty empty inlets 8 12 0 13 -228856 -1 0
;
#X obj 6 437 cnv 3 550 3 empty empty outlets 8 12 0 13 -228856 -1 0
;
#X obj 6 478 cnv 3 550 3 empty empty arguments 8 12 0 13 -228856 -1
0;
#X obj 119 448 cnv 17 3 17 empty empty 0 5 9 0 16 -228856 -162280 0
;
#X text 153 409 signal;
#X text 153 448 signal;
#X text 153 489 (none);
#X obj 119 409 cnv 17 3 17 empty empty 0 5 9 0 16 -228856 -162280 0
;
#X obj 156 228 cyclone/cosh~;
#X obj 156 153 phasor~ 2;
#X text 289 360 0;
#X text 285 304 pi/2;
#X text 287 248 pi;
#X obj 156 254 cyclone/Scope~ 123 117 256 3 128 0 3.14 0 0 0 0 205
229 232 74 79 77 0 98 102 0;
#X text 61 93 Use [cosh~] to output the hyperbolic cosine function
of each input sample (probably only useful for mathematical calculations).
;
#X text 227 177 * pi;
#X text 226 201 - pi/2;
#X text 209 409 - input to hyperbolic cosine function;
#X text 209 448 - output of hyperbolic cosine function;
#X obj 156 177 *~ 3.14159;
#X obj 156 200 -~ 1.5708;
#X obj 371 287 cyclone/cosh~;
#X obj 371 245 cyclone/number~ 1;
#X obj 371 328 cyclone/number~;
#X obj 3 3 cnv 15 301 42 empty empty cosh~ 20 14 2 37 -233017 -1 0
;
#X obj 305 4 cnv 15 250 40 empty empty empty 12 13 0 18 -128992 -233080
0;
#N canvas 382 141 749 319 (subpatch) 0;
#X coords 0 -1 1 1 252 42 2 100 100;
#X restore 304 3 pd;
#X obj 374 11 cnv 10 10 10 empty empty cyclone 0 5 2 24 -128992 -233080
0;
#X obj 340 29 cnv 10 10 10 empty empty Objects 0 6 2 13 -128992 -233080
0;
#X obj 395 29 cnv 10 10 10 empty empty cloned 0 6 2 13 -128992 -233080
0;
#X obj 441 29 cnv 10 10 10 empty empty from 0 6 2 13 -128992 -233080
0;
#X obj 474 30 cnv 10 10 10 empty empty Max/MSP 0 6 2 13 -128992 -233080
0;
#X text 22 61 Signal hyperbolic cosine function;
#X obj 494 63 ./setdsp~;
#N canvas 0 22 450 278 (subpatch) 0;
#X coords 0 1 100 -1 554 42 1 0 0;
#X restore 2 3 graph;
#X connect 9 0 14 0;
#X connect 10 0 20 0;
#X connect 20 0 21 0;
#X connect 21 0 9 0;
#X connect 22 0 24 0;
#X connect 23 0 22 0;
