#N canvas 544 76 559 750 10;
#X declare -stdlib cyclone/cyclops;
#X obj 3 3 cnv 15 301 42 empty empty cyclops 19 12 2 37 -233017 -1
0;
#X obj 305 4 cnv 15 250 40 empty empty empty 12 13 0 18 -128992 -233080
0;
#N canvas 382 141 749 319 (subpatch) 0;
#X coords 0 -1 1 1 252 42 2 100 100;
#X restore 304 3 pd;
#X obj 374 11 cnv 10 10 10 empty empty cyclone 0 5 2 24 -128992 -233080
0;
#X obj 340 29 cnv 10 10 10 empty empty Objects 0 6 2 13 -128992 -233080
0;
#X obj 395 29 cnv 10 10 10 empty empty cloned 0 6 2 13 -128992 -233080
0;
#X obj 441 29 cnv 10 10 10 empty empty from 0 6 2 13 -128992 -233080
0;
#X obj 474 30 cnv 10 10 10 empty empty Max/MSP 0 6 2 13 -128992 -233080
0;
#N canvas 0 22 450 278 (subpatch) 0;
#X coords 0 1 100 -1 554 42 1 0 0;
#X restore 2 3 graph;
#X text 24 59 Cyclone Operators sub library;
#X obj 200 309 ==~;
#X obj 200 333 !=~;
#X obj 200 358 <~;
#X obj 200 381 <=~;
#X obj 200 407 >~;
#X obj 200 430 >=~;
#X obj 201 463 %~;
#X obj 200 578 +=~;
#X obj 201 504 !-~;
#X obj 201 484 !-;
#X text 93 355 Comparatives:;
#X text 104 578 Accumulator:;
#X text 232 310 same as;
#X text 232 334 same as;
#X text 232 358 same as;
#X text 232 381 same as;
#X text 232 406 same as;
#X text 232 430 same as;
#X text 234 463 same as;
#X text 234 504 same as;
#X text 234 485 same as;
#X text 234 545 same as;
#X text 234 525 same as;
#X obj 201 525 !/;
#X obj 201 545 !/~;
#X text 234 579 same as;
#X text 96 496 Math objects:;
#X obj 291 310 cyclone/equals~;
#X obj 291 334 cyclone/notequals~;
#X obj 291 358 cyclone/lessthan~;
#X obj 291 381 cyclone/lessthaneq~;
#X obj 291 406 cyclone/greaterthan~;
#X obj 291 430 cyclone/greaterthaneq~;
#X obj 293 463 cyclone/modulo~;
#X obj 293 484 cyclone/rminus;
#X obj 293 504 cyclone/rminus~;
#X obj 293 525 cyclone/rdiv;
#X obj 293 545 cyclone/rdiv~;
#X obj 294 579 cyclone/plusequals~;
#X text 95 603 ============================================================
;
#X obj 290 285 cyclone/comment 0 18 times ? 0 0 0 0 Alphaumeric;
#X obj 95 285 cyclone/comment 0 18 times ? 0 0 0 0 Non-alphaumeric
;
#N canvas 753 266 486 406 load_cyclops 0;
#X text 71 353 https://github.com/porres/pd-cyclone/wiki/How-To-Install
;
#X obj 237 193 declare -stdlib cyclone/cyclops;
#X text 72 168 Note you can also just use [declare] instead of changing
the preferences. such as in:;
#X text 41 20 Loading/Installing cyclops:;
#X text 70 84 If cyclone's path is loaded in preferences => path (as
recomended!) \, just add 'cyclops' via preferences => startup.;
#X text 71 51 Because cyclops is a single binary pack containing several
objects \, it needs to be pre loaded in Pd's "startup".;
#X text 71 118 If you don't have cyclone's path loaded \, and for some
reason you don't wanna do it even if it is recomended \, you can load
the library as 'cyclone/cyclops' (this works either way).;
#X text 71 289 If you don't have cyclone added to your path \, and
the above declare isn't loading cyclops \, you do not have the cyclone
folder into one of Pd's standard paths \, as recomended. For more details
\, check "How to Install Cyclone":;
#X text 46 266 Troubleshoot:;
#X text 72 222 [declare] can also add the cyclone path \, check its
help file for more info.;
#X restore 363 705 pd load_cyclops;
#X text 80 250 For more info on each operator \, check their help file:
;
#X text 80 93 Cyclops is a single binary pack that contains the cyclone
operators \, which are objects with non-alphanumeric names., f 61
;
#X text 81 204 You can also find alphanumeric versions of these objects
(whith the same name alias as in Max/MSP) as single binaries outside
the cyclops sub library., f 61;
#X text 80 130 Objects from the cyclone library are mostly a set of
separate binaries. But you can't load non-alphanumeric objects that
way in certain file systems \, so we need this to load these 12 objects
with such "weird" character names. Therefore \, cyclops is a sub library
of cyclone., f 61;
#X text 97 627 Note that since cyclops is single binary pack \, it
needs to be pre loaded in Pd. And such objects cannot be loaded with
a prefix as it's the case of other objects in cyclone that are just
a set of separate binaries and can use the 'cyclone/' prefix.;
#X text 229 706 How to load Cyclops:;
