#N canvas 718 160 563 516 10;
#X obj 0 358 cnv 3 550 3 empty empty inlets 8 12 0 13 -228856 -1 0
;
#X obj 0 406 cnv 3 550 3 empty empty outlets 8 12 0 13 -228856 -1 0
;
#X obj 0 443 cnv 3 550 3 empty empty arguments 8 12 0 13 -228856 -1
0;
#X obj 83 415 cnv 17 3 17 empty empty 0 5 9 0 16 -228856 -162280 0
;
#X obj 83 372 cnv 17 3 17 empty empty 0 5 9 0 16 -228856 -162280 0
;
#X text 157 415 signal;
#X text 156 453 (none);
#X obj 4 475 cnv 15 552 21 empty empty empty 20 12 0 14 -233017 -33289
0;
#X obj 150 215 nbx 5 14 -100 0 1 0 empty empty empty 0 -8 0 10 -228856
-1 -1 0 256;
#X obj 153 184 hsl 180 15 -100 0 0 0 empty empty empty -2 -8 0 10 -228856
-1 -1 0 1;
#X text 121 372 signal/float;
#X text 77 92 [atodb~] takes any given signal representing a dBFS amplitude
value and outputs a signal which is a linear amplitude conversion of
the input.;
#X text 75 141 Conversion expression: amp = pow(10 \, dBFS / 20);
#X obj 150 277 cyclone/dbtoa~;
#X text 209 372 - value representing dBFS amplitude;
#X text 209 417 - corresponding linear amplitude value;
#X text 267 318 Linear Amplitude;
#X obj 150 240 sig~ -100;
#X obj 150 317 cyclone/number~;
#X obj 3 3 cnv 15 301 42 empty empty dbtoa~ 20 20 2 37 -233017 -1 0
;
#X obj 305 4 cnv 15 250 40 empty empty empty 12 13 0 18 -128992 -233080
0;
#N canvas 0 22 450 278 (subpatch) 0;
#X coords 0 1 100 -1 302 42 1 0 0;
#X restore 2 3 graph;
#N canvas 382 141 749 319 (subpatch) 0;
#X coords 0 -1 1 1 252 42 2 100 100;
#X restore 304 3 pd;
#X obj 374 11 cnv 10 10 10 empty empty cyclone 0 5 2 24 -128992 -233080
0;
#X obj 340 29 cnv 10 10 10 empty empty Objects 0 6 2 13 -128992 -233080
0;
#X obj 395 29 cnv 10 10 10 empty empty cloned 0 6 2 13 -128992 -233080
0;
#X obj 441 29 cnv 10 10 10 empty empty from 0 6 2 13 -128992 -233080
0;
#X obj 474 30 cnv 10 10 10 empty empty Max/MSP 0 6 2 13 -128992 -233080
0;
#X text 21 60 Signal dBFS to linear amplitude conversion;
#X text 209 215 dBFS;
#X obj 494 63 ./setdsp~;
#X connect 8 0 17 0;
#X connect 9 0 8 0;
#X connect 13 0 18 0;
#X connect 17 0 13 0;
