#N canvas 692 121 561 403 10;
#X obj 6 363 cnv 15 552 21 empty empty empty 20 12 0 14 -233017 -33289
0;
#X obj 7 264 cnv 3 550 3 empty empty inlets 8 12 0 13 -228856 -1 0
;
#X obj 7 299 cnv 3 550 3 empty empty outlets 8 12 0 13 -228856 -1 0
;
#X obj 7 332 cnv 3 550 3 empty empty arguments 8 12 0 13 -228856 -1
0;
#X obj 91 273 cnv 17 3 17 empty empty 0 5 9 0 16 -228856 -162280 0
;
#X text 122 273 signal;
#X obj 91 308 cnv 17 3 17 empty empty 0 5 9 0 16 -228856 -162280 0
;
#X text 122 308 signal;
#X text 122 340 (none);
#X obj 170 188 cyclone/delta~;
#X text 173 273 - input signal to be evaluated;
#X obj 170 153 phasor~ 10;
#X text 280 179 What's the increment between succesive samples of a
phasor output at 10 Hz?, f 38;
#X obj 170 220 cyclone/number~;
#X text 77 89 [delta~] outputs the difference between each incoming
sample and the previous sample. So \, if the input signal contains
1 \, 0.5 \, 2 \, 0.5 \, the output would be 1 \, -0.5 \, 1.5 \, -1.5
;
#X text 173 308 - difference between the current and last sample;
#X obj 3 3 cnv 15 301 42 empty empty delta~ 20 20 2 37 -233017 -1 0
;
#X obj 305 4 cnv 15 250 40 empty empty empty 12 13 0 18 -128992 -233080
0;
#N canvas 0 22 450 278 (subpatch) 0;
#X coords 0 1 100 -1 302 42 1 0 0;
#X restore 2 3 graph;
#N canvas 382 141 749 319 (subpatch) 0;
#X coords 0 -1 1 1 252 42 2 100 100;
#X restore 304 3 pd;
#X obj 374 11 cnv 10 10 10 empty empty cyclone 0 5 2 24 -128992 -233080
0;
#X obj 340 29 cnv 10 10 10 empty empty Objects 0 6 2 13 -128992 -233080
0;
#X obj 395 29 cnv 10 10 10 empty empty cloned 0 6 2 13 -128992 -233080
0;
#X obj 441 29 cnv 10 10 10 empty empty from 0 6 2 13 -128992 -233080
0;
#X obj 474 30 cnv 10 10 10 empty empty Max/MSP 0 6 2 13 -128992 -233080
0;
#X text 22 61 Difference between samples;
#X obj 494 63 ./setdsp~;
#X connect 9 0 13 0;
#X connect 11 0 9 0;
