#N canvas 752 39 560 483 10;
#X obj 4 444 cnv 15 552 21 empty empty empty 20 12 0 14 -233017 -33289
0;
#X obj 5 316 cnv 3 550 3 empty empty inlets 8 12 0 13 -228856 -1 0
;
#X obj 5 350 cnv 3 550 3 empty empty outlets 8 12 0 13 -228856 -1 0
;
#X obj 5 410 cnv 3 550 3 empty empty arguments 8 12 0 13 -228856 -1
0;
#X obj 97 326 cnv 17 3 17 empty empty 0 5 9 0 16 -228856 -162280 0
;
#X text 176 326 signal;
#X obj 96 361 cnv 17 3 17 empty empty 0 5 9 0 16 -228856 -162280 0
;
#X text 176 362 signal;
#X obj 170 165 cyclone/hilbert~;
#X obj 161 197 cyclone/scope~ 118 100 6 3 33 -1 1 0 0 0 0 205 229 232
74 79 77 96 98 102 0;
#X obj 170 135 osc~ 440;
#X text 177 419 (none);
#X text 228 326 - signal input;
#X text 78 86 [cyclone/hilbert~] is a hilbert transformer (a a Phase
quadrature filter). It turns real signals into complex signals.;
#X obj 96 382 cnv 17 3 17 empty empty 1 5 9 0 16 -228856 -162280 0
;
#X text 176 383 signal;
#X text 228 362 - real part of the signal;
#X text 228 383 - imaginary pasrt of the signal;
#X obj 3 3 cnv 15 301 42 empty empty hilbert~ 20 20 2 37 -233017 -1
0;
#X obj 305 4 cnv 15 250 40 empty empty empty 12 13 0 18 -128992 -233080
0;
#N canvas 0 22 450 278 (subpatch) 0;
#X coords 0 1 100 -1 302 42 1 0 0;
#X restore 2 3 graph;
#N canvas 382 141 749 319 (subpatch) 0;
#X coords 0 -1 1 1 252 42 2 100 100;
#X restore 304 3 pd;
#X obj 374 11 cnv 10 10 10 empty empty cyclone 0 5 2 24 -128992 -233080
0;
#X obj 340 29 cnv 10 10 10 empty empty Objects 0 6 2 13 -128992 -233080
0;
#X obj 395 29 cnv 10 10 10 empty empty cloned 0 6 2 13 -128992 -233080
0;
#X obj 441 29 cnv 10 10 10 empty empty from 0 6 2 13 -128992 -233080
0;
#X obj 474 30 cnv 10 10 10 empty empty Max/MSP 0 6 2 13 -128992 -233080
0;
#X text 22 61 Hilbert Transformer;
#X obj 494 63 ./setdsp~;
#X connect 8 0 9 0;
#X connect 8 1 9 1;
#X connect 10 0 8 0;
