#N canvas 579 88 560 762 10;
#X obj 3 716 cnv 15 552 21 empty empty empty 20 12 0 14 -233017 -33289
0;
#X obj 3 502 cnv 3 550 3 empty empty inlets 8 12 0 13 -228856 -1 0
;
#X obj 3 589 cnv 3 550 3 empty empty outlets 8 12 0 13 -228856 -1 0
;
#X obj 3 648 cnv 3 550 3 empty empty arguments 8 12 0 13 -228856 -1
0;
#X obj 121 513 cnv 17 3 17 empty empty 0 5 9 0 16 -228856 -162280 0
;
#X obj 121 535 cnv 17 3 17 empty empty 1 5 9 0 16 -228856 -162280 0
;
#X obj 121 558 cnv 17 3 17 empty empty 2 5 9 0 16 -228856 -162280 0
;
#X obj 119 598 cnv 17 3 17 empty empty 0 5 9 0 16 -228856 -162280 0
;
#X text 183 598 signal;
#X text 238 598 - the pulse train signal;
#X text 171 657 1) float;
#X text 171 674 2) float;
#X text 171 690 3) float;
#X obj 119 622 cnv 17 3 17 empty empty 1 5 9 0 16 -228856 -162280 0
;
#X text 195 622 bang;
#X text 238 622 - when transition from 0 to 1 occurs;
#X floatatom 326 264 0 0 0 0 - - -;
#X obj 364 294 bng 23 250 50 0 empty empty empty 17 7 0 10 -228856
-1 -1;
#X floatatom 258 242 0 0 0 0 - - -;
#X obj 122 326 cyclone/sah~;
#X obj 122 394 cyclone/cycle~;
#X text 148 559 float/signal;
#X floatatom 191 242 5 0 2000 0 - - -, f 5;
#X obj 261 216 hsl 128 16 0 1 0 0 empty empty empty -2 -8 0 10 -228856
-1 -1 0 1;
#X text 148 514 float/signal;
#X text 148 537 float/signal;
#X obj 329 242 hsl 128 16 0 1 0 0 empty empty empty -2 -8 0 10 -228856
-1 -1 0 1;
#X text 271 216 pulse width (0-1);
#X obj 122 290 noise~;
#X text 489 466 -1;
#X text 493 398 0;
#X text 493 333 1;
#X obj 328 341 cyclone/scope~ 159 141 147 3 64 -1 1 0 0 0 0 205 229
232 74 79 77 96 98 102 0;
#X text 238 514 - pulse period (in ms);
#X text 238 537 - pulse width (0-1);
#X text 338 242 onset phase (0-1);
#X text 238 559 - onset phase offset (0-1);
#X text 25 322 triggering a;
#X text 16 339 sample and hold;
#X text 185 222 period;
#X text 166 241 ms;
#X text 237 656 - period in ms (default 1000);
#X text 237 673 - pulse width from 0-1 (default 0.5);
#X text 237 690 - onset phase offset from 0-1 (default 0);
#X text 91 91 [train~] generates a pulse signal alternating from on
(1) to off (0) at a period given in ms. It also sends a bang when going
from 0 to 1 \, so it can be used as a metronome.;
#X obj 122 361 cyclone/scale~ -1 1 500 1000;
#X obj 191 290 cyclone/train~ 1000 0.5;
#X text 92 136 A pulse width of 0 has the smallest "on" pulse size
(a single sample) \, while a pulse widht of 1 has the largest (the
entire period except the last sample). The "onset phase" delays the
"on" portion by a fraction of the total pulse period.;
#X obj 122 430 ./out~;
#X obj 3 3 cnv 15 301 42 empty empty train~ 20 20 2 37 -233017 -1 0
;
#X obj 305 4 cnv 15 250 40 empty empty empty 12 13 0 18 -128992 -233080
0;
#N canvas 0 22 450 278 (subpatch) 0;
#X coords 0 1 100 -1 302 42 1 0 0;
#X restore 2 3 graph;
#N canvas 382 141 749 319 (subpatch) 0;
#X coords 0 -1 1 1 252 42 2 100 100;
#X restore 304 3 pd;
#X obj 374 11 cnv 10 10 10 empty empty cyclone 0 5 2 24 -128992 -233080
0;
#X obj 340 29 cnv 10 10 10 empty empty Objects 0 6 2 13 -128992 -233080
0;
#X obj 395 29 cnv 10 10 10 empty empty cloned 0 6 2 13 -128992 -233080
0;
#X obj 441 29 cnv 10 10 10 empty empty from 0 6 2 13 -128992 -233080
0;
#X obj 474 30 cnv 10 10 10 empty empty Max/MSP 0 6 2 13 -128992 -233080
0;
#X text 24 59 Pulse-train generator and metronome;
#X obj 494 63 ./setdsp~;
#X connect 16 0 46 2;
#X connect 18 0 46 1;
#X connect 19 0 45 0;
#X connect 20 0 48 0;
#X connect 20 0 48 1;
#X connect 22 0 46 0;
#X connect 23 0 18 0;
#X connect 26 0 16 0;
#X connect 28 0 19 0;
#X connect 45 0 20 0;
#X connect 46 0 19 1;
#X connect 46 0 32 0;
#X connect 46 1 17 0;
