#N canvas 397 63 558 484 10;
#X obj 2 453 cnv 15 552 21 empty empty empty 20 12 0 14 #e0e0e0 #202020 0;
#X obj 2 301 cnv 3 550 3 empty empty inlets 8 12 0 13 #dcdcdc #000000 0;
#X obj 2 370 cnv 3 550 3 empty empty outlets 8 12 0 13 #dcdcdc #000000 0;
#X obj 2 407 cnv 3 550 3 empty empty arguments 8 12 0 13 #dcdcdc #000000 0;
#X obj 227 154 nbx 8 16 -1e+37 1e+37 0 0 empty empty empty 0 -8 0 12 #ececec #000000 #000000 0 256;
#X obj 191 151 bng 20 250 50 0 empty empty empty 17 7 0 10 #dcdcdc #000000 #000000;
#X text 130 381 float;
#X text 130 312 float;
#X text 135 341 bang;
#X text 101 98 use the [atanh] object to calculate the hyperbolic arc-tangent of any given number.;
#X text 113 422 1) float;
#X text 182 423 - initially stored input value (default 0);
#X text 181 312 - input to hyperbolic arc-tangent function \, this value is stored and updates the argument;
#X text 182 341 - calculates output according to the stored input;
#X obj 98 380 cnv 17 3 17 empty empty 0 5 9 0 16 #dcdcdc #9c9c9c 0;
#X obj 98 312 cnv 17 3 45 empty empty 0 5 9 0 16 #dcdcdc #9c9c9c 0;
#X text 182 381 - the hyperbolic arc-tangent of the input;
#X obj 227 191 cyclone/atanh 0.5;
#X obj 227 224 nbx 8 16 -1e+37 1e+37 0 0 empty empty empty 0 -8 0 12 #ececec #000000 #000000 0 256;
#X obj 2 3 header atanh;
#X text 16 54 Hyperbolic arc-tangent function;
#X text 210 267 as a Vanilla alternative;
#X text 46 267 see also:;
#X text 370 267 and;
#N canvas 425 211 552 420 all-trig-objects 0;
#X obj 110 60 cyclone/acos;
#X obj 110 87 cyclone/acosh;
#X obj 110 115 cyclone/asin;
#X obj 110 145 cyclone/atanh;
#X obj 110 175 cyclone/cosh;
#X obj 110 205 cyclone/sinh;
#X obj 110 234 cyclone/tanh;
#X obj 72 295 sin;
#X obj 105 295 cos;
#X obj 137 295 tan;
#X obj 169 295 atan;
#X obj 208 295 atan2;
#X text 256 294 - trigonometric functions from Vanilla;
#X text 109 358 All of the functions above are also present in vanilla's, f 29;
#X obj 300 364 expr;
#X text 338 363 or;
#X obj 361 364 expr~;
#X obj 285 80 cyclone/acos~;
#X obj 285 104 cyclone/acosh~;
#X obj 285 128 cyclone/asin~;
#X obj 285 152 cyclone/asinh~;
#X obj 285 176 cyclone/atan~;
#X obj 285 200 cyclone/atan2~;
#X text 70 19 Control data trigonometric functions from Cyclone:, f 26;
#X obj 285 224 cyclone/atanh~;
#X obj 392 98 cyclone/cosh~;
#X obj 392 122 cyclone/cosx~;
#X obj 392 144 cyclone/sinh~;
#X obj 392 167 cyclone/sinx~;
#X obj 392 190 cyclone/tanh~;
#X obj 392 213 cyclone/tanx~;
#X text 297 26 Sigal trigonometric functions from Cyclone:, f 26;
#X obj 215 323 cos~;
#X text 257 322 - actually a cosine wavetable;
#X restore 402 268 pd all-trig-objects;
#X obj 110 268 expr atanh($f1);
#X connect 4 0 17 0;
#X connect 5 0 17 0;
#X connect 17 0 18 0;
