#N canvas 345 89 712 505 12;
#X msg 117 82 bgcolor 240 100 0;
#X msg 106 46 bgcolor 140 240 0;
#X obj 106 144 ./comment 482 30 helvetica empty 0 0 0 0 0 140 240 0
1 1 comment is being updated;
#X msg 270 97 bg \$1;
#X obj 270 74 tgl 15 0 empty empty empty 17 7 0 10 -262144 -1 -1 0
1;
#X obj 106 183 cnv 15 360 60 empty empty empty 20 12 0 14 -233017 -66577
0;
#X text 187 299 linux 85 140 442 175;
#X text 201 274 mac 85 140 439 174;
#X connect 0 0 2 0;
#X connect 1 0 2 0;
#X connect 3 0 2 0;
#X connect 4 0 3 0;
#X coords 0 505 1 504 238 60 0;
