#N canvas 182 25 563 671 10;
#X declare -stdlib cyclone/cyclone_ops;
#X obj 200 309 ==~;
#X obj 200 333 !=~;
#X obj 200 358 <~;
#X obj 200 381 <=~;
#X obj 200 407 >~;
#X obj 200 430 >=~;
#X obj 201 463 %~;
#X obj 200 578 +=~;
#X obj 201 504 !-~;
#X obj 201 484 !-;
#X text 93 355 Comparatives:;
#X text 104 578 Accumulator:;
#X text 232 310 same as;
#X text 232 334 same as;
#X text 232 358 same as;
#X text 232 381 same as;
#X text 232 406 same as;
#X text 232 430 same as;
#X text 234 463 same as;
#X text 234 504 same as;
#X text 234 485 same as;
#X text 234 545 same as;
#X text 234 525 same as;
#X obj 201 525 !/;
#X obj 201 545 !/~;
#X text 234 579 same as;
#X text 96 496 Math objects:;
#X obj 291 310 cyclone/equals~;
#X obj 291 334 cyclone/notequals~;
#X obj 291 358 cyclone/lessthan~;
#X obj 291 381 cyclone/lessthaneq~;
#X obj 291 406 cyclone/greaterthan~;
#X obj 291 430 cyclone/greaterthaneq~;
#X obj 293 463 cyclone/modulo~;
#X obj 293 484 cyclone/rminus;
#X obj 293 504 cyclone/rminus~;
#X obj 293 525 cyclone/rdiv;
#X obj 293 545 cyclone/rdiv~;
#X obj 294 579 cyclone/plusequals~;
#X obj 3 4 cnv 15 553 42 empty empty empty 20 12 0 14 -233017 -66577
0;
#N canvas 0 22 450 278 (subpatch) 0;
#X coords 0 1 100 -1 554 42 1 0 0;
#X restore 3 3 graph;
#X obj 306 4 cnv 15 250 40 empty empty empty 12 13 0 18 -128992 -233080
0;
#N canvas 382 141 749 319 (subpatch) 0;
#X coords 0 -1 1 1 252 42 2 100 100;
#X restore 305 3 pd;
#X text 95 603 ============================================================
;
#X obj 290 285 cyclone/comment 0 18 times ? 0 0 0 0 Alphaumeric;
#X obj 323 28 cyclone/comment 0 13 courier ? 0 224 228 220 Objects
cloned from Max/MSP;
#X obj 364 4 cyclone/comment 0 24 courier ? 0 224 228 220 cyclone;
#X obj 95 285 cyclone/comment 0 18 times ? 0 0 0 0 Non-alphaumeric
;
#X obj 19 56 cyclone/comment 0 18 times ? 0 0 0 0 Cyclone Operators
sub library;
#X text 80 250 For more info on each operator \, check their help file:
;
#X obj 10 3 cyclone/comment 0 37 times ? 0 0 0 0 cyclone_ops;
#X text 80 93 Cyclone_ops is a single binary pack that contains the
cyclone operators \, which are objects with non-alphanumeric names.
, f 61;
#X text 80 130 Objects from the cyclone library are mostly a set of
separate binaries. But you can't load non-alphanumeric objects that
way in certain file systems \, so we need this to load these 12 objects
with such "weird" character names. Therefore \, cyclone_ops is a sub
library of cyclone., f 61;
#X text 81 204 You can also find alphanumeric versions of these objects
(whith the same name alias as in Max/MSP) as single binaries outside
the cyclone_ops sub library., f 61;
#X text 97 627 Note that since cyclone_ops is single binary pack \,
it needs to be pre loaded in Pd. And such objects cannot be loaded
with a prefix as it's the case of other objects in cyclone that are
just a set of separate binaries and can use the 'cyclone/' prefix.
;
#X obj 128 715 cyclone/comment 0 18 times ? 0 0 0 0 How to load cyclone_ops:
;
#N canvas 259 160 486 452 load_cyclone_ops 0;
#X text 71 393 https://github.com/porres/pd-cyclone/wiki/How-To-Install
;
#X text 72 198 Note you can also just use [declare] instead of changing
the preferences. such as in:;
#X text 46 296 Troubleshoot:;
#X text 72 252 [declare] can also add the cyclone path \, check its
help file for more info.;
#X text 41 20 Loading/Installing cyclone_ops:;
#X text 71 51 Because cyclone_ops is a single binary pack containing
several objects \, it needs to be pre loaded in Pd's "startup".;
#X text 70 94 If cyclone's path is loaded in preferences => path (as
recomended!) \, just add 'cyclone_ops' via preferences => startup.
;
#X text 71 138 If you don't have cyclone's path loaded \, and for some
reason you don't wanna do it even if it is recomended \, you can load
the library as 'cyclone/cyclone_ops' (this works either way).;
#X text 71 319 If you don't have cyclone added to your path \, and
the above declare isn't loading cyclone_ops \, you do not have the
cyclone folder into one of Pd's standard paths \, as recomended. For
more details \, check "How to Install Cyclone":;
#X obj 237 223 declare -stdlib cyclone/cyclone_ops;
#X restore 332 717 pd load_cyclone_ops;
