#N canvas 123 178 560 551 10;
#X obj 170 131 tgl 15 0 empty empty empty 17 7 0 10 -228856 -1 -1 0
127;
#X msg 170 155 30 \$1;
#X obj 211 131 tgl 15 0 empty empty empty 17 7 0 10 -228856 -1 -1 0
127;
#X msg 211 155 33 \$1;
#X obj 252 131 tgl 15 0 empty empty empty 17 7 0 10 -228856 -1 -1 0
127;
#X msg 252 155 36 \$1;
#X obj 293 131 tgl 15 0 empty empty empty 17 7 0 10 -228856 -1 -1 0
127;
#X msg 293 155 39 \$1;
#N canvas 553 185 674 408 example 0;
#X obj 301 57 tgl 15 0 empty empty empty 17 7 0 10 -228856 -1 -1 0
64;
#X msg 301 89 30 \$1;
#X obj 354 57 tgl 15 0 empty empty empty 17 7 0 10 -228856 -1 -1 0
64;
#X msg 354 89 33 \$1;
#X obj 410 58 tgl 15 0 empty empty empty 17 7 0 10 -228856 -1 -1 0
64;
#X msg 410 90 36 \$1;
#X obj 462 59 tgl 15 0 empty empty empty 17 7 0 10 -228856 -1 -1 0
64;
#X msg 462 91 39 \$1;
#X obj 241 20 vradio 15 1 0 3 empty empty empty 0 -8 0 10 -228856 -1
-1 1;
#X msg 241 96 mode \$1;
#X floatatom 241 72 3 0 0 0 - - -, f 3;
#X text 207 20 last;
#X text 207 35 high;
#X text 213 50 low;
#X obj 444 276 *~;
#X obj 354 194 mtof;
#X obj 354 244 cyclone/saw~;
#X obj 459 165 nbx 5 14 -1e+37 1e+37 0 0 empty empty empty 0 -8 0 10
-228856 -1 -1 0 256;
#X obj 354 165 nbx 5 14 -1e+37 1e+37 0 0 empty empty empty 0 -8 0 10
-228856 -1 -1 0 256;
#X obj 459 193 /~ 127;
#X obj 459 243 cyclone/slide~ 1000 5000;
#X text 11 14 Here's a patch where you can test ddg.[mono] to emulate
MIDI input via toggles that act as note on/off., f 28;
#X obj 525 19 vradio 15 1 0 3 empty empty empty 0 -8 0 10 -228856 -1
-1 2;
#X floatatom 525 71 3 0 0 0 - - -, f 3;
#X msg 525 95 legatomode \$1;
#X text 543 19 retrig;
#X text 545 34 legato;
#X text 544 49 laststep;
#X text 12 228 When you set priority to "low" \, a new note on goes
through only when it's lower than the existing ones. And when you release
the lowest note \, it recalls the next lowest note that is still on.
, f 54;
#X text 11 177 When the priority is set to "high" \, a new note on
goes through only when it is higher than the existing ones. Nnd when
you release the highest note \, it recalls the next highest note that
is still on., f 54;
#X text 11 64 You can set the mode via an attribute or via the mode
message. The default priotiy mode is "last" So whenever you play a
new note when you're still holding other notes \, it goes through -
and when you release it \, the last note you had played before that
is still on gets recalled., f 32;
#X obj 438 164 bng 15 250 50 0 empty empty empty 17 7 0 10 -228856
-1 -1;
#X text 12 287 You can set the legatomode via an attribute or via the
legatomode message. In legato mode 0 (retrig) \, a new velocity value
is only sent every time a new note on is given. In mode 1 legato) \,
a new velocity value is only sent if a first note on is given. In legatomode
2 (laststep) \, you have a similar behaviour than mode 1 \, but when
you release a note \, it gets a note off message and all other notes
are cleared., f 65;
#X obj 354 137 cyclone/ddg.mono;
#X obj 586 191 poly;
#X obj 444 319 ./out~;
#X connect 0 0 1 0;
#X connect 1 0 33 0;
#X connect 2 0 3 0;
#X connect 3 0 33 0;
#X connect 4 0 5 0;
#X connect 5 0 33 0;
#X connect 6 0 7 0;
#X connect 7 0 33 0;
#X connect 8 0 10 0;
#X connect 9 0 33 0;
#X connect 10 0 9 0;
#X connect 14 0 35 0;
#X connect 14 0 35 1;
#X connect 15 0 16 0;
#X connect 16 0 14 0;
#X connect 17 0 19 0;
#X connect 18 0 15 0;
#X connect 19 0 20 0;
#X connect 20 0 14 1;
#X connect 22 0 23 0;
#X connect 23 0 24 0;
#X connect 24 0 33 0;
#X connect 33 0 18 0;
#X connect 33 1 17 0;
#X connect 33 1 31 0;
#X restore 466 253 pd example;
#X obj 5 526 cnv 15 552 21 empty empty empty 20 12 0 14 -233017 -33289
0;
#X obj 7 283 cnv 3 550 3 empty empty inlets 8 12 0 13 -228856 -1 0
;
#X obj 5 403 cnv 3 550 3 empty empty outlets 8 12 0 13 -228856 -1 0
;
#X obj 5 456 cnv 3 550 3 empty empty arguments 8 12 0 13 -228856 -1
0;
#X obj 76 411 cnv 17 3 17 empty empty 0 5 9 0 16 -228856 -162280 0
;
#X obj 77 293 cnv 17 3 80 empty empty 0 5 9 0 16 -228856 -162280 0
;
#X obj 5 484 cnv 3 550 3 empty empty attributes 8 12 0 13 -228856 -1
0;
#X obj 77 380 cnv 17 3 17 empty empty 1 5 9 0 16 -228856 -162280 0
;
#X obj 76 432 cnv 17 3 17 empty empty 1 5 9 0 16 -228856 -162280 0
;
#X text 169 293 list - MIDI note messages (note and velocity pair)
, f 58;
#X text 163 309 float - note values, f 59;
#X text 163 380 float - velocity values, f 59;
#X text 121 325 mode <float> - sets priority mode: <0> last \, <1 \,
high> \, <2 \, low>, f 66;
#X text 161 411 float - note values, f 59;
#X text 161 433 float - velocity values, f 59;
#X msg 293 180 clear;
#X text 163 358 clear - sends a note off for the hanging note and clears
memory, f 63;
#X text 316 132 <= emulate note messages;
#X obj 2 5 cnv 15 553 42 empty empty empty 20 12 0 14 -233017 -66577
0;
#N canvas 0 22 450 278 (subpatch) 0;
#X coords 0 1 100 -1 554 42 1 0 0;
#X restore 2 4 graph;
#X obj 305 5 cnv 15 250 40 empty empty empty 12 13 0 18 -128992 -233080
0;
#N canvas 382 141 749 319 (subpatch) 0;
#X coords 0 -1 1 1 252 42 2 100 100;
#X restore 304 4 pd;
#X obj 16 5 cyclone/comment 0 37 times ? 0 0 0 0 ddg.mono;
#X obj 322 29 cyclone/comment 0 13 courier ? 0 224 228 220 Objects
cloned from Max/MSP;
#X obj 363 5 cyclone/comment 0 24 courier ? 0 224 228 220 cyclone;
#X text 51 88 [ddg.mono] takes note messages and handles them to emulate
monophonic synth behaviour. Its internal memory can remember up to
the last 10 input voices., f 69;
#X obj 304 238 nbx 5 14 -1e+37 1e+37 0 0 empty empty empty 0 -8 0 10
-228856 -1 -1 0 256;
#X obj 211 238 nbx 5 14 -1e+37 1e+37 0 0 empty empty empty 0 -8 0 10
-228856 -1 -1 0 256;
#X text 85 342 legatomode <float> - non zero sets to legato mode \,
zero restores default, f 73;
#X text 191 491 @mode: sets mode (0 \, 1 or 2);
#X text 155 506 @legatomode: sets legatomode (0 \, 1 or 2);
#X obj 211 260 print;
#X obj 304 260 print;
#X text 179 463 1) float - sets mode (0 \, 1 or 2);
#X obj 211 213 cyclone/ddg.mono;
#X obj 17 58 cyclone/comment 0 18 times ? 0 0 0 0 Monophonic voice
manager;
#X connect 0 0 1 0;
#X connect 1 0 43 0;
#X connect 2 0 3 0;
#X connect 3 0 43 0;
#X connect 4 0 5 0;
#X connect 5 0 43 0;
#X connect 6 0 7 0;
#X connect 7 0 43 0;
#X connect 24 0 43 0;
#X connect 35 0 41 0;
#X connect 36 0 40 0;
#X connect 43 0 36 0;
#X connect 43 1 35 0;
