#N canvas 421 23 558 526 10;
#X obj 2 290 cnv 3 550 3 empty empty inlets 8 12 0 13 -228856 -1 0
;
#X obj 2 388 cnv 3 550 3 empty empty outlets 8 12 0 13 -228856 -1 0
;
#X obj 2 421 cnv 3 550 3 empty empty arguments 8 12 0 13 -228856 -1
0;
#X obj 81 299 cnv 17 3 83 empty empty 0 5 9 0 16 -228856 -162280 0
;
#X obj 81 397 cnv 17 3 17 empty empty 0 5 9 0 16 -228856 -162280 0
;
#X symbolatom 127 189 15 0 0 0 - - -, f 15;
#X obj 127 221 cyclone/fromsymbol;
#X obj 2 504 cnv 3 550 3 empty empty empty 0 0 0 4 -262144 -1 0;
#X obj 2 484 cnv 15 552 21 empty empty empty 20 12 0 14 -233017 -33289
0;
#X text 175 298 symbol;
#X text 176 429 (none);
#X obj 127 255 nbx 10 14 -1e+37 1e+37 0 0 empty empty empty 0 -8 0
10 -228856 -1 -1 0 256;
#X obj 2 4 cnv 15 553 42 empty empty empty 20 12 0 14 -233017 -66577
0;
#N canvas 0 22 450 278 (subpatch) 0;
#X coords 0 1 100 -1 554 42 1 0 0;
#X restore 2 3 graph;
#X obj 305 4 cnv 15 250 40 empty empty empty 12 13 0 18 -128992 -233080
0;
#N canvas 382 141 749 319 (subpatch) 0;
#X coords 0 -1 1 1 252 42 2 100 100;
#X restore 304 3 pd;
#X text 164 397 anything;
#X text 225 397 - a converted message from a symbol;
#X text 225 186 <= atom symbol box;
#X text 232 254 <= number box;
#N canvas 404 123 839 565 symbol_to_lists 0;
#X obj 114 132 cyclone/tosymbol;
#X obj 114 220 cyclone/fromsymbol;
#X floatatom 146 489 5 0 0 0 - - -, f 5;
#X obj 146 389 cyclone/tosymbol;
#X obj 146 425 cyclone/fromsymbol;
#X obj 146 457 unpack float symbol symbol;
#X symbolatom 222 489 10 0 0 0 - - -, f 10;
#X symbolatom 299 489 10 0 0 0 - - -, f 10;
#X msg 146 363 1 two three;
#X msg 114 106 23.6 4.56 0.01;
#X obj 114 262 unpack float float float;
#X symbolatom 114 176 20 0 0 0 - - -, f 20;
#X obj 114 287 nbx 6 14 -1e+37 1e+37 0 0 empty empty empty 0 -8 0 10
-228856 -1 -1 0 256;
#X obj 184 285 nbx 6 14 -1e+37 1e+37 0 0 empty empty empty 0 -8 0 10
-228856 -1 -1 0 256;
#X obj 255 285 nbx 6 14 -1e+37 1e+37 0 0 empty empty empty 0 -8 0 10
-228856 -1 -1 0 256;
#X text 56 331 Convert a symbol composed of 1 float and 2 symbols to
a list:;
#X obj 569 231 cyclone/fromsymbol;
#X obj 569 270 route list;
#X obj 587 300 bng 15 250 50 0 empty empty empty 17 7 0 10 -228856
-1 -1;
#X obj 569 332 print list;
#X obj 646 333 print not_a_list;
#X obj 654 299 bng 15 250 50 0 empty empty empty 17 7 0 10 -228856
-1 -1;
#X symbolatom 569 199 25 0 0 0 - - -, f 25;
#X text 440 65 If you want to contert to a list a given symbol composed
of elements that start with a symbol \, you need to include the "list"
selector in the symbol \, otherwise it'll convert to something else.
Try it below:;
#X text 441 143 - Type things like "list one two" and just "one two"
and see the difference:;
#X text 41 19 - Below we convert a symbol composed of 3 floats (separated
by spaces) into a list of 3 floats. Also note the usage of [cyclone/tosymbol]
- it's handy to convert any message to a symbol since you can't do
that easily in Pd Vanilla.;
#X text 461 383 (note that one symbloic element lists are converted
to symbol automatically in pd \, just as one float lists are converted
to floats).;
#X connect 0 0 11 0;
#X connect 1 0 10 0;
#X connect 3 0 4 0;
#X connect 4 0 5 0;
#X connect 5 0 2 0;
#X connect 5 1 6 0;
#X connect 5 2 7 0;
#X connect 8 0 3 0;
#X connect 9 0 0 0;
#X connect 10 0 12 0;
#X connect 10 1 13 0;
#X connect 10 2 14 0;
#X connect 11 0 1 0;
#X connect 16 0 17 0;
#X connect 17 0 18 0;
#X connect 17 0 19 0;
#X connect 17 1 20 0;
#X connect 17 1 21 0;
#X connect 22 0 16 0;
#X restore 400 172 pd symbol_to_lists;
#N canvas 455 75 892 434 symbol_to_anything 0;
#X obj 114 175 cyclone/fromsymbol;
#X msg 114 128 symbol something;
#X symbolatom 146 222 10 0 0 0 - - -, f 10;
#X msg 230 129 symbol else;
#X obj 194 304 print Not_a_Symbol;
#X obj 114 264 route symbol;
#X obj 183 347 route something else;
#X obj 183 373 bng 15 250 50 0 empty empty empty 17 7 0 10 -262144
-1 -1;
#X obj 241 373 bng 15 250 50 0 empty empty empty 17 7 0 10 -262144
-1 -1;
#X text 41 40 If you send a symbol message to [fromsymbol] \, it removes
the "symbol" selector and convert the message to "anything" (composed
of one element).;
#X msg 575 155 anything goes;
#X obj 575 197 cyclone/tosymbol;
#X symbolatom 575 236 17 0 0 0 - - -, f 17;
#X obj 575 270 cyclone/fromsymbol;
#X obj 674 337 print Not_a_list;
#X text 460 66 And \, as you might already have noticed \, a symbol
composed of more than one element without a list selector is converted
to "anything" (with more than one element). Just making it really clear...
;
#X obj 575 306 route symbol list;
#X text 140 198 <= not a symbol anymore;
#X connect 0 0 2 0;
#X connect 0 0 5 0;
#X connect 1 0 0 0;
#X connect 3 0 0 0;
#X connect 5 1 4 0;
#X connect 5 1 6 0;
#X connect 6 0 7 0;
#X connect 6 1 8 0;
#X connect 10 0 11 0;
#X connect 11 0 12 0;
#X connect 12 0 13 0;
#X connect 13 0 16 0;
#X connect 16 2 14 0;
#X restore 391 192 pd symbol_to_anything;
#X text 105 163 symbol to float:;
#N canvas 455 75 444 344 symbol_to_bang 0;
#X obj 68 184 cyclone/fromsymbol;
#X symbolatom 68 143 20 0 0 0 - - -, f 20;
#X msg 68 106 symbol bang;
#X obj 68 254 route bang;
#X obj 68 288 bng 15 250 50 0 empty empty empty 17 7 0 10 -228856 -1
-1;
#X text 43 23 Since the [fromsymbol] object removes the "symbol" selector
\, if you have a "symbol bang" message \, it converts it to a bang:
;
#X text 91 287 <= bang message;
#X obj 96 215 print fromsymbol;
#X obj 265 212 cyclone/fromsymbol;
#X obj 265 260 bng 15 250 50 0 empty empty empty 17 7 0 10 -262144
-1 -1;
#X text 275 237 <= bang message;
#X obj 265 188 bng 15 250 50 0 empty empty empty 17 7 0 10 -228856
-1 -1;
#X text 315 184 as a bang;
#X text 263 169 a bang just comes out;
#X connect 0 0 3 0;
#X connect 0 0 7 0;
#X connect 1 0 0 0;
#X connect 2 0 1 0;
#X connect 3 0 4 0;
#X connect 8 0 9 0;
#X connect 11 0 8 0;
#X restore 405 212 pd symbol_to_bang;
#N canvas 636 114 470 529 separators 0;
#X symbolatom 187 185 20 0 0 0 - - -, f 20;
#X obj 215 414 print fromsymbol;
#X text 49 19 The separator message/attribute allows you to split a
symbol into different elements by setting the character that separates
one element from the other. The default separator is a "space".;
#X obj 187 453 unpack float float float float;
#X obj 187 484 nbx 5 14 -1e+37 1e+37 0 0 empty empty empty 0 -8 0 10
-228856 -1 -1 179 256;
#X obj 246 484 nbx 5 14 -1e+37 1e+37 0 0 empty empty empty 0 -8 0 10
-228856 -1 -1 101 256;
#X obj 305 484 nbx 5 14 -1e+37 1e+37 0 0 empty empty empty 0 -8 0 10
-228856 -1 -1 88 256;
#X obj 364 484 nbx 5 14 -1e+37 1e+37 0 0 empty empty empty 0 -8 0 10
-228856 -1 -1 112 256;
#X text 50 77 if a separator doesn't match \, the symbol is not converted
;
#X msg 220 255 separator;
#X msg 187 138 symbol 179.101.88.112;
#X msg 198 161 symbol 255.255.0.0;
#X msg 204 213 separator .;
#X obj 249 340 cyclone/tosymbol;
#X msg 92 212 separator /;
#X symbolatom 35 186 20 0 0 0 - - -, f 20;
#X msg 37 141 symbol 19/11/8/12;
#X msg 48 164 symbol 1/2/3/4;
#X obj 187 114 loadbang;
#X text 325 268 (default);
#X text 281 255 <= space as separator;
#X msg 249 318 4 3 2 1;
#X obj 187 381 cyclone/fromsymbol @separator .;
#X msg 224 281 separator " ";
#X text 310 281 <= also space;
#X connect 0 0 22 0;
#X connect 3 0 4 0;
#X connect 3 1 5 0;
#X connect 3 2 6 0;
#X connect 3 3 7 0;
#X connect 9 0 22 0;
#X connect 10 0 0 0;
#X connect 11 0 0 0;
#X connect 12 0 22 0;
#X connect 13 0 22 0;
#X connect 14 0 22 0;
#X connect 15 0 22 0;
#X connect 16 0 15 0;
#X connect 17 0 15 0;
#X connect 18 0 10 0;
#X connect 21 0 13 0;
#X connect 22 0 1 0;
#X connect 22 0 3 0;
#X connect 23 0 22 0;
#X restore 420 248 pd separators;
#X text 225 365 - sets the separator character;
#X text 181 331 float;
#X text 225 331 - just goes right through as a float;
#X text 187 348 list;
#X text 103 365 separator <symbol>;
#X obj 2 452 cnv 3 550 3 empty empty attributes 8 12 0 13 -228856 -1
0;
#X text 105 461 @separator <symbol>;
#X text 225 461 - sets the separator character (default "space");
#X text 225 298 - the symbol to be converted to any message type;
#X text 187 314 bang;
#X text 225 314 - outputs a bang;
#X text 225 348 - if the 1st element is a float \, it goes through
;
#X text 70 90 [fromsymbol] converts a symbol message to anything (any
kind of message). Start by typing a float in the atom symbol box below
and see how it converts to a float message \, then check more examples
to the right.;
#X obj 17 56 cyclone/comment 0 18 times ? 0 0 0 0 Convert symbol to
anything;
#X obj 16 4 cyclone/comment 0 37 times ? 0 0 0 0 fromsymbol;
#X obj 322 28 cyclone/comment 0 13 courier ? 0 224 228 220 Objects
cloned from Max/MSP;
#X obj 363 4 cyclone/comment 0 24 courier ? 0 224 228 220 cyclone;
#X connect 5 0 6 0;
#X connect 6 0 11 0;
