#N canvas 489 48 725 465 10;
#X obj 1 1 cnv 15 545 42 empty \$0-header atan~ 12 17 0 33 #e0e0e0 #000000 0;
#X obj 296 1 cnv 15 250 42 empty empty Cyclone 70 13 0 18 #7c7c7c #e0e4dc 0;
#X obj 309 33 cnv 5 5 5 empty empty Objects\ cloned\ from\ MAX/MSP 10 0 0 13 #7c7c7c #e0e4dc 0;
#X msg 217 229 label \$1;
#X obj 215 187 symbol \$1;
#X obj 214 159 loadbang;
#X obj 217 250 s \$0-header;
#X obj 187 158 bng 16 250 50 0 empty empty empty 0 -8 0 10 #fcfcfc #000000 #000000;
#X connect 3 0 6 0;
#X connect 4 0 3 0;
#X connect 5 0 4 0;
#X connect 7 0 4 0;
#X coords 0 -1 1 1 547 44 2 0 0;
