#N canvas 485 33 563 564 10;
#X obj 4 537 cnv 15 552 21 empty empty empty 20 12 0 14 -233017 -33289
0;
#X obj 4 269 cnv 3 550 3 empty empty inlets 8 12 0 13 -228856 -1 0
;
#X obj 2 359 cnv 3 550 3 empty empty outlets 8 12 0 13 -228856 -1 0
;
#X obj 6 423 cnv 3 550 3 empty empty arguments 8 12 0 13 -228856 -1
0;
#X obj 90 332 cnv 1 3 17 empty empty 0=>n 5 9 0 16 -228856 -162280
0;
#X text 140 333 signal;
#X text 140 370 signal;
#X text 152 391 list;
#X obj 90 279 cnv 17 3 47 empty empty 0 5 9 0 16 -228856 -162280 0
;
#X text 126 430 1) float;
#X text 126 445 2) float;
#X text 126 460 3) float;
#X obj 91 389 cnv 1 3 28 empty empty n+1 5 9 0 16 -228856 -162280 0
;
#X text 190 333 - signals to route and mix;
#X text 190 369 - routed/mixed signals from inlets;
#X obj 91 368 cnv 1 3 17 empty empty 0=>n 5 9 0 16 -228856 -162280
0;
#X obj 6 489 cnv 3 550 3 empty empty attributes 8 12 0 13 -228856 -1
0;
#X obj 2 3 cnv 15 553 42 empty empty empty 20 12 0 14 -233017 -66577
0;
#N canvas 0 22 450 278 (subpatch) 0;
#X coords 0 1 100 -1 554 42 1 0 0;
#X restore 2 2 graph;
#X obj 305 3 cnv 15 250 40 empty empty empty 12 13 0 18 -128992 -233080
0;
#N canvas 382 141 749 319 (subpatch) 0;
#X coords 0 -1 1 1 252 42 2 100 100;
#X restore 304 2 pd;
#X text 60 88 [matrix~] routs signals from any inlets to one or more
outlets. If more than one inlet connects to an outlet \, the output
is the sum of the inlets' signals., f 64;
#X text 190 430 - 'n' number of inputs (1 to 250 \, default 1), f
52;
#X text 190 445 - 'n' number of outputs (1 to 499 \, default 1), f
52;
#X obj 17 56 cyclone/comment 0 14 DejaVu\ Sans\ Mono empty 0 0 0 0
0 255 255 255 0 0 Signal routing/mixing matrix;
#X obj 16 3 cyclone/comment 0 33 DejaVu\ Sans\ Mono empty 0 0 0 0 0
255 255 255 0 0 matrix~;
#X obj 322 27 cyclone/comment 0 13 DejaVu\ Sans\ Mono empty 0 224 228
220 0 255 255 255 0 0 Objects cloned from Max/MSP;
#X obj 363 3 cyclone/comment 0 24 DejaVu\ Sans\ Mono empty 0 224 228
220 0 255 255 255 0 0 cyclone;
#N canvas 616 136 498 299 example 0;
#X obj 366 206 print dump;
#X msg 163 82 dump;
#X text 86 104 0;
#X text 101 104 1;
#X text 116 104 2;
#X text 131 105 3;
#N canvas 0 23 892 491 matrix-logic 0;
#X obj 496 410 outlet;
#X obj 112 48 inlet;
#X obj 496 375 t b a;
#X msg 353 272 0 0 \$1;
#X msg 401 272 1 0 \$1;
#X msg 450 273 2 0 \$1;
#X msg 504 274 3 0 \$1;
#X msg 560 276 0 1 \$1;
#X msg 612 277 1 1 \$1;
#X msg 664 279 2 1 \$1;
#X msg 720 280 3 1 \$1;
#X obj 496 348 cyclone/prepend set;
#X obj 122 196 s \$0-r00;
#X obj 108 232 s \$0-r10;
#X obj 91 257 s \$0-r20;
#X obj 81 280 s \$0-r30;
#X obj 234 175 s \$0-r01;
#X obj 223 198 s \$0-r11;
#X obj 220 227 s \$0-r21;
#X obj 211 252 s \$0-r31;
#X obj 495 147 r \$0-s00;
#X obj 497 173 r \$0-s10;
#X obj 511 196 r \$0-s20;
#X obj 513 222 r \$0-s30;
#X obj 702 162 r \$0-s01;
#X obj 704 188 r \$0-s11;
#X obj 718 211 r \$0-s21;
#X obj 720 237 r \$0-s31;
#X obj 300 100 tgl 15 0 \$0-s00 \$0-r00 empty 17 7 0 10 -228856 -1
-1 0 1;
#X obj 315 100 tgl 15 0 \$0-s10 \$0-r10 empty 17 7 0 10 -228856 -1
-1 0 1;
#X obj 330 100 tgl 15 0 \$0-s20 \$0-r20 empty 17 7 0 10 -228856 -1
-1 0 1;
#X obj 345 100 tgl 15 0 \$0-s30 \$0-r30 empty 17 7 0 10 -228856 -1
-1 0 1;
#X obj 300 115 tgl 15 0 \$0-s01 \$0-r01 empty 17 7 0 10 -228856 -1
-1 0 1;
#X obj 315 115 tgl 15 0 \$0-s11 \$0-r11 empty 17 7 0 10 -228856 -1
-1 0 1;
#X obj 330 115 tgl 15 0 \$0-s21 \$0-r21 empty 17 7 0 10 -228856 -1
-1 0 1;
#X obj 345 115 tgl 15 0 \$0-s31 \$0-r31 empty 17 7 0 10 -228856 -1
-1 0 1;
#X msg 562 385 0 0 0;
#X connect 1 0 12 0;
#X connect 1 0 13 0;
#X connect 1 0 14 0;
#X connect 1 0 15 0;
#X connect 1 0 16 0;
#X connect 1 0 17 0;
#X connect 1 0 18 0;
#X connect 1 0 19 0;
#X connect 2 0 0 0;
#X connect 2 1 0 0;
#X connect 3 0 11 0;
#X connect 4 0 11 0;
#X connect 5 0 11 0;
#X connect 6 0 11 0;
#X connect 7 0 11 0;
#X connect 8 0 11 0;
#X connect 9 0 11 0;
#X connect 10 0 11 0;
#X connect 11 0 2 0;
#X connect 11 0 36 0;
#X connect 20 0 3 0;
#X connect 21 0 4 0;
#X connect 22 0 5 0;
#X connect 23 0 6 0;
#X connect 24 0 7 0;
#X connect 25 0 8 0;
#X connect 26 0 9 0;
#X connect 27 0 10 0;
#X coords 0 -1 1 1 60 30 2 300 100;
#X restore 82 120 pd matrix-logic;
#X msg 123 26 clear;
#X obj 184 138 osc~ 300;
#X obj 240 138 osc~ 400;
#X obj 303 138 osc~ 500;
#X obj 366 138 osc~ 600;
#X msg 82 83 set 0;
#X text 161 201 0;
#X text 209 202 1;
#X text 161 166 0;
#X text 225 166 1;
#X text 290 166 2;
#X text 353 167 3;
#X msg 82 157 0 0 0;
#X text 26 120 output 0;
#X text 26 135 output 1;
#X text 44 104 input:;
#X msg 147 57 ramp 100;
#X obj 177 182 cyclone/matrix~ 4 2 1 @ramp 1000;
#X obj 177 219 ./out~;
#X msg 177 107 print;
#X text 246 67 basic binary mode operation;
#X connect 1 0 24 0;
#X connect 6 0 19 0;
#X connect 7 0 12 0;
#X connect 7 0 24 0;
#X connect 8 0 24 0;
#X connect 9 0 24 1;
#X connect 10 0 24 2;
#X connect 11 0 24 3;
#X connect 12 0 6 0;
#X connect 19 0 24 0;
#X connect 23 0 24 0;
#X connect 24 0 25 0;
#X connect 24 1 25 1;
#X connect 24 2 0 0;
#X connect 26 0 24 0;
#X restore 480 220 pd example;
#X obj 248 238 cyclone/number~;
#A saved 0 0 100 -inf inf #2a3434 #ffffff #b6fefd;
#X obj 248 189 cyclone/matrix~ 2 2;
#X obj 258 164 sig~ 1;
#X obj 359 160 sig~ 2;
#X obj 303 214 cyclone/number~;
#A saved 0 0 100 -inf inf #2a3434 #ffffff #b6fefd;
#X obj 487 94 ./setdsp~;
#N canvas 538 238 457 215 all_messages 0;
#X text 81 67 clear;
#X text 87 100 dump;
#X text 39 84 ramp <float>;
#X text 27 12 connect <list>;
#X text 9 39 disconnect <list>;
#X text 126 83 - sets ramp (fade) time - only in non-binary mode,
f 53;
#X text 126 66 - removes all connections, f 53;
#X text 51 164 dumptarget;
#X text 81 127 print;
#X text 125 126 -;
#X text 125 100 -;
#X text 138 99 outputs current state of all connections in the rightmost
outlet a list: <inlet# \, outlet# \, gain>, f 51;
#X text 125 163 -;
#X text 138 164 in the context of the non-binary mode \, it prints
the target state of all connections in the Pd window as a list: <inlet#
\, outlet# \, target-gain>, f 51;
#X text 138 126 in the context of the binary mode \, it prints the
current state of all connections in the Pd window as a list: <inlet#
\, outlet# \, on/off>, f 51;
#X text 125 11 -;
#X text 138 12 connects any inlet specified by the 1st value to outlet(s)
specified by remaining value(s), f 51;
#X text 125 38 -;
#X text 138 39 disconnects any inlet specified by the 1st value to
outlet(s) specified by the remaining value(s);
#X restore 444 309 pd all_messages;
#X obj 248 141 r \$0-matrix;
#X text 106 495 @ramp <float> -;
#X text 204 496 only in non-binary mode (that is \, if all 3 arguments
are given \, you can include a ramp value as an attribute) - default
is 10 ms., f 44;
#X text 190 460 -;
#X text 208 460 sets to "non-binary" mode and the gain value for connections.
If not provided \, "binary" mode is on;
#X obj 56 239 s \$0-matrix;
#X obj 56 151 tgl 15 0 empty empty empty 17 7 0 10 -228856 -1 -1 0
1;
#X msg 56 171 0 0 \$1;
#X obj 68 194 tgl 15 0 empty empty empty 17 7 0 10 -228856 -1 -1 0
1;
#X msg 68 214 0 1 \$1;
#X obj 143 239 s \$0-matrix;
#X obj 143 151 tgl 15 0 empty empty empty 17 7 0 10 -228856 -1 -1 0
1;
#X obj 155 194 tgl 15 0 empty empty empty 17 7 0 10 -228856 -1 -1 0
1;
#X msg 143 171 1 0 \$1;
#X msg 155 214 1 1 \$1;
#X text 201 279 in binary mode: <inlet# \, outlet# \, on/off>. In non
binary mode: <inlet# \, outlet# \, gain \, ramp>;
#N canvas 412 150 781 466 binary/Non-binary 0;
#X obj 455 98 osc~ 300;
#X obj 512 98 osc~ 400;
#X obj 571 98 osc~ 500;
#X obj 627 99 osc~ 600;
#X floatatom 378 45 5 0 0 0 - - -;
#X floatatom 420 273 5 0 0 0 - - -;
#X obj 462 322 osc~ 300;
#X obj 525 322 osc~ 400;
#X obj 588 322 osc~ 500;
#X obj 651 322 osc~ 600;
#X obj 378 20 hradio 15 1 1 4 empty empty empty 0 -8 0 10 -228856 -1
-1 0;
#X obj 420 252 hradio 15 1 1 4 empty empty empty 0 -8 0 10 -228856
-1 -1 1;
#X text 13 118 "binary" mode (default):;
#X text 15 179 "non-binary" mode:;
#X obj 455 131 cyclone/matrix~ 4 2;
#X obj 70 44 cnv 15 220 30 empty empty empty 20 12 0 14 -233017 -66577
0;
#X text 32 142 - in "binary" mode \, connections are either on or off.
This can cause audible clicks when routing.;
#X text 32 282 - "non-binary" mode is set when there is a third argument
(that also specifies the default gain for all connections).;
#X text 34 322 In "non-binary" mode \, connections formed with the
<connect> message always have the gain specified by the third argument.
However \, list messages can alter the gain of connections formed with
the <connect> message. So \, if you want to specify the gain of each
connection in "non-binary" mode \, you must use three- or four-element
list messages rather than the <connect> message.;
#X obj 77 46 cyclone/comment 0 14 DejaVu\ Sans\ Mono empty 0 0 0 0
0 255 255 255 0 0 comment;
#X obj 462 393 ./out~;
#X obj 455 165 ./out~;
#X obj 462 356 cyclone/matrix~ 4 1 1 @ramp 1000;
#X text 32 200 - in "non-binary" mode (requires more CPU time) \, each
connection has a variable linear gain (0-1). When you send a list in
"non-binary" mode \, the 3rd float sets the gain of the connection.
This mode also allows for a ramp time as a 4th item on the list (for
fade in/out or crossfading).;
#X text 449 13 In binary mode \, only 0/1 gain values (clicks occur)
, f 30;
#X obj 566 167 print dump;
#X obj 651 384 print dumptarget;
#X msg 378 68 clear \, connect \$1 0 1 \, dump \, print;
#X msg 420 293 clear \, \$1 0 0.5 \, dumptarget;
#X text 490 246 In non-binary mode \, you can set gain values and ramp
time (optional), f 36;
#X connect 0 0 14 0;
#X connect 1 0 14 1;
#X connect 2 0 14 2;
#X connect 3 0 14 3;
#X connect 4 0 27 0;
#X connect 5 0 28 0;
#X connect 6 0 22 0;
#X connect 7 0 22 1;
#X connect 8 0 22 2;
#X connect 9 0 22 3;
#X connect 10 0 4 0;
#X connect 11 0 5 0;
#X connect 14 0 21 0;
#X connect 14 1 21 1;
#X connect 14 2 25 0;
#X connect 22 0 20 0;
#X connect 22 0 20 1;
#X connect 22 1 26 0;
#X connect 27 0 14 0;
#X connect 28 0 22 0;
#X restore 420 243 pd binary/Non-binary;
#X text 190 391 -;
#X text 202 391 on <dump> messages \, rightmost outlet dumps a list
with all connections: <inlet# \, outlet# \, gain>, f 49;
#X text 152 280 list;
#X text 190 280 -;
#X text 138 309 for all other messages \, check ==================>
;
#X connect 30 0 29 0;
#X connect 30 1 33 0;
#X connect 31 0 30 0;
#X connect 32 0 30 1;
#X connect 36 0 30 0;
#X connect 42 0 43 0;
#X connect 43 0 41 0;
#X connect 44 0 45 0;
#X connect 45 0 41 0;
#X connect 47 0 49 0;
#X connect 48 0 50 0;
#X connect 49 0 46 0;
#X connect 50 0 46 0;
