#N canvas 218 25 562 532 10;
#X text 53 91 [notequals~] or [!=~] outputs a 1 signal when the left
input is not-equal to the right input or argument and a 0 when it is
equal to the right input or argument.;
#X obj 2 4 cnv 15 553 42 empty empty empty 20 12 0 14 -233017 -66577
0;
#N canvas 0 22 450 278 (subpatch) 0;
#X coords 0 1 100 -1 554 42 1 0 0;
#X restore 2 3 graph;
#X obj 305 4 cnv 15 250 40 empty empty empty 12 13 0 18 -128992 -233080
0;
#N canvas 382 141 749 319 (subpatch) 0;
#X coords 0 -1 1 1 252 42 2 100 100;
#X restore 304 3 pd;
#X obj 7 408 cnv 3 550 3 empty empty outlets 8 12 0 13 -228856 -1 0
;
#X obj 7 446 cnv 3 550 3 empty empty arguments 8 12 0 13 -228856 -1
0;
#X obj 89 420 cnv 17 3 17 empty empty 0 5 9 0 16 -228856 -162280 0
;
#X obj 89 353 cnv 17 3 17 empty empty 0 5 9 0 16 -228856 -162280 0
;
#X obj 7 342 cnv 3 550 3 empty empty inlets 8 12 0 13 -228856 -1 0
;
#X obj 89 378 cnv 17 3 17 empty empty 1 5 9 0 16 -228856 -162280 0
;
#X text 118 378 float/signal;
#X obj 89 353 cnv 17 3 17 empty empty 0 5 9 0 16 -228856 -162280 0
;
#X text 154 354 signal;
#X text 205 354 - value is compared to right inlet's or argument;
#X obj 5 486 cnv 15 552 21 empty empty empty 20 12 0 14 -233017 -33289
0;
#X text 205 378 - value used for comparison with left inlet's input
;
#X text 176 456 - value for comparison with left inlet's input (default
0);
#X text 154 419 signal;
#X text 114 456 1) float;
#X text 205 419 - 1 or 0 (depending on the result of the comparison)
;
#X obj 233 242 cyclone/snapshot~ 1;
#X obj 133 277 tgl 40 0 empty empty empty 17 7 0 10 -228856 -1 -1 0
1;
#X obj 233 277 tgl 40 0 empty empty empty 17 7 0 10 -228856 -1 -1 0
1;
#X obj 233 186 sig~ 30;
#X obj 233 163 nbx 5 14 -1e+37 1e+37 0 0 empty empty empty 0 -8 0 10
-228856 -1 -1 0 256 0;
#X obj 356 163 nbx 5 14 -1e+37 1e+37 0 0 empty empty empty 0 -8 0 10
-228856 -1 -1 0 256 0;
#X obj 233 212 cyclone/notequals~ 30;
#X obj 17 56 cyclone/comment 0 18 times ? 0 0 0 0 "Not equal to" comparison
for signals;
#X obj 16 4 cyclone/comment 0 37 times ? 0 0 0 0 !=~;
#X obj 321 28 cyclone/comment 0 13 courier ? 0 224 228 220 Objects
cloned from Max/MSP;
#X obj 363 4 cyclone/comment 0 24 courier ? 0 224 228 220 cyclone;
#X obj 29 160 cyclone/number~ 1;
#X obj 56 185 cyclone/number~ 1;
#X obj 29 243 cyclone/number~;
#X obj 499 69 cyclone/setdsp~;
#X obj 29 210 !=~, f 5;
#X text 423 254 About the 'Cyclone_ops' sub library, f 13;
#X obj 422 300 cyclone_ops-help;
#X connect 21 0 23 0;
#X connect 25 0 24 0;
#X connect 26 0 27 1;
#X connect 27 0 21 0;
#X connect 32 0 36 0;
#X connect 33 0 36 1;
#X connect 34 1 22 0;
#X connect 36 0 34 0;
