#N canvas 459 163 449 547 10;
#X obj 59 28 inlet;
#X msg 208 114 version;
#X obj 208 135 cyclone;
#X obj 214 199 symbol;
#X obj 59 244 file which;
#X obj 59 451 file splitname;
#X msg 59 480 \; pd open \$2 \$1;
#X obj 59 130 symbol;
#X obj 247 168 t s;
#X msg 59 204 symbol else/\$1-help.pd;
#X obj 154 231 t s b;
#X obj 154 256 spigot;
#X msg 214 257 1;
#X obj 154 341 pdcontrol;
#X obj 154 288 file splitname;
#X obj 154 400 file normalize;
#X obj 154 373 file which;
#X msg 154 311 dir 0 ../9.else/\$2;
#X obj 214 230 sel plugdata Pd-Vanilla;
#N canvas 586 174 350 347 \$0-warning 0;
#X text 58 120 You can download it via Pd's external manager via "Help" -> "Find Externals" \, then search for "else" and install it., f 41;
#X obj 58 241 pdcontrol;
#X msg 58 211 browse https://github.com/porres/pd-else;
#X text 58 165 Click on the message below to open ELSE's repository and check it out., f 41;
#X obj 143 50 cnv 5 5 5 empty \$0-cnv empty 7 3 0 12 #ffffff #404040 0;
#X text 58 27 You tried to open the help file of:, f 22;
#X text 58 86 You are in Pd-Vanilla and you don't have ELSE installed \, why not give it a try?, f 41;
#X text 58 66 From the ELSE library \, but it failed!, f 41;
#X text 48 277 The ELSE library has alternatives for most of Cyclone objects and much \, much more cool stuff!, f 43;
#X connect 2 0 1 0;
#X restore 289 329 pd \$0-warning;
#X msg 281 262 vis 1;
#X obj 281 295 s pd-\$0-warning;
#X obj 59 173 t s s;
#X msg 120 151 label \$1;
#X obj 120 177 s \$0-cnv;
#X msg 120 124 symbol;
#X obj 208 81 loadbang;
#X connect 0 0 7 0;
#X connect 1 0 2 0;
#X connect 2 2 8 0;
#X connect 3 0 18 0;
#X connect 4 0 5 0;
#X connect 4 1 10 0;
#X connect 5 0 6 0;
#X connect 7 0 22 0;
#X connect 8 0 3 1;
#X connect 9 0 4 0;
#X connect 10 0 11 0;
#X connect 10 1 3 0;
#X connect 11 0 14 0;
#X connect 12 0 11 1;
#X connect 13 0 16 0;
#X connect 14 0 17 0;
#X connect 15 0 5 0;
#X connect 16 0 15 0;
#X connect 17 0 13 0;
#X connect 18 0 12 0;
#X connect 18 1 20 0;
#X connect 20 0 21 0;
#X connect 22 0 9 0;
#X connect 22 1 23 0;
#X connect 23 0 24 0;
#X connect 25 0 23 0;
#X connect 26 0 1 0;
#X connect 26 0 25 0;
