#N canvas 202 25 560 500 10;
#X obj 7 365 cnv 3 550 3 empty empty outlets 8 12 0 13 -228856 -1 0
;
#X obj 7 411 cnv 3 550 3 empty empty arguments 8 12 0 13 -228856 -1
0;
#X obj 115 377 cnv 17 3 17 empty empty 0 5 9 0 16 -228856 -162280 0
;
#X obj 115 314 cnv 17 3 17 empty empty 0 5 9 0 16 -228856 -162280 0
;
#X obj 7 301 cnv 3 550 3 empty empty inlets 8 12 0 13 -228856 -1 0
;
#X obj 115 336 cnv 17 3 17 empty empty 1 5 9 0 16 -228856 -162280 0
;
#X obj 115 314 cnv 17 3 17 empty empty 0 5 9 0 16 -228856 -162280 0
;
#X text 121 421 1) float -;
#X text 181 313 signal;
#X text 144 338 float/signal;
#X text 180 376 signal;
#X obj 2 4 cnv 15 553 42 empty empty empty 20 12 0 14 -233017 -66577
0;
#N canvas 0 22 450 278 (subpatch) 0;
#X coords 0 1 100 -1 554 42 1 0 0;
#X restore 2 3 graph;
#X obj 305 4 cnv 15 250 40 empty empty empty 12 13 0 18 -128992 -233080
0;
#N canvas 382 141 749 319 (subpatch) 0;
#X coords 0 -1 1 1 252 42 2 100 100;
#X restore 304 3 pd;
#X text 61 94 [rdiv~] or [!/~] divides a number by the incoming value
on the left inlet. Functions like the [/~] object \, but the inlets'
functions are reversed.;
#X obj 5 453 cnv 15 552 21 empty empty empty 20 12 0 14 -233017 -33289
0;
#X text 231 313 - the divisor;
#X text 231 338 - the dividend;
#X text 231 376 - the division of the two numbers;
#X text 195 421 sets an initial value for the dividend (default 0)
;
#X obj 338 170 nbx 5 14 -1e+37 1e+37 0 0 empty empty empty 0 -8 0 10
-228856 -1 -1 0 256 0;
#X obj 221 212 cyclone/rdiv~ 10, f 20;
#X text 416 167 similar to:;
#X obj 412 188 expr~ 10 / $v1;
#X obj 17 56 cyclone/comment 0 18 times ? 0 0 0 0 Reversed inlets division
for signals;
#X obj 15 4 cyclone/comment 0 37 times ? 0 0 0 0 !/~;
#X obj 322 28 cyclone/comment 0 13 courier ? 0 224 228 220 Objects
cloned from Max/MSP;
#X obj 363 4 cyclone/comment 0 24 courier ? 0 224 228 220 cyclone;
#X obj 221 260 cyclone/number~;
#X obj 220 169 cyclone/number~ 1;
#X obj 17 170 cyclone/number~ 1;
#X obj 44 195 cyclone/number~ 1;
#X obj 17 253 cyclone/number~;
#X obj 499 69 cyclone/setdsp~;
#X obj 17 220 !/~, f 5;
#X text 425 218 About the 'Cyclone_ops' sub library, f 14;
#X obj 424 264 cyclone_ops-help;
#X connect 21 0 22 1;
#X connect 22 0 29 0;
#X connect 30 0 22 0;
#X connect 31 0 35 0;
#X connect 32 0 35 1;
#X connect 35 0 33 0;
