#N canvas 439 174 558 595 10;
#X obj 2 4 cnv 15 553 42 empty empty empty 20 12 0 14 -233017 -66577
0;
#N canvas 0 22 450 278 (subpatch) 0;
#X coords 0 1 100 -1 554 42 1 0 0;
#X restore 2 3 graph;
#X obj 305 4 cnv 15 250 40 empty empty empty 12 13 0 18 -128992 -233080
0;
#N canvas 382 141 749 319 (subpatch) 0;
#X coords 0 -1 1 1 252 42 2 100 100;
#X restore 304 3 pd;
#X obj 2 548 cnv 15 552 21 empty empty empty 20 12 0 14 -233017 -33289
0;
#X obj 2 317 cnv 3 550 3 empty empty inlets 8 12 0 13 -228856 -1 0
;
#X obj 2 399 cnv 3 550 3 empty empty outlets 8 12 0 13 -228856 -1 0
;
#X obj 2 436 cnv 3 550 3 empty empty arguments 8 12 0 13 -228856 -1
0;
#X obj 111 411 cnv 17 3 17 empty empty 0 5 9 0 16 -228856 -162280 0
;
#X obj 111 327 cnv 17 3 17 empty empty 0 5 9 0 16 -228856 -162280 0
;
#X text 139 327 float/signal;
#X obj 112 349 cnv 17 3 17 empty empty 1 5 9 0 16 -228856 -162280 0
;
#X text 139 349 float/signal;
#X obj 112 371 cnv 17 3 17 empty empty 2 5 9 0 16 -228856 -162280 0
;
#X text 175 371 signal;
#X text 173 411 signal;
#X obj 147 159 nbx 5 14 -1e+37 1e+37 0 0 empty empty empty 0 -8 0 10
-228856 -1 -1 0 256;
#X obj 227 148 hsl 128 15 0.01 0.99 0 0 empty empty empty -2 -8 0 10
-228856 -1 -1 0 1;
#X obj 224 171 nbx 5 14 -1e+37 1e+37 0 0 empty empty empty 0 -8 0 10
-228856 -1 -1 0 256;
#X text 256 148 pulse width;
#X text 48 91 [rect~] generates an anti-aliased rectangular (pulse)
wave at a given frequency. It has a sync input and you can set the
pulse width.;
#X text 233 326 - frequency in hertz;
#X text 234 348 - pulse width (from 0 to 1);
#X text 235 370 - oscillator sync \, from a [phasor~] signal;
#X text 235 411 - the bandlimited pulse oscillator output;
#X obj 226 223 cyclone/scope~ 125 73 9 3 128 -1.2 1.2 200 0 0 0 205
229 232 74 79 77 96 98 102 0;
#X text 161 445 1) float;
#X text 161 463 2) float;
#X text 235 463 - pulse width (default 0.5);
#X obj 3 488 cnv 3 550 3 empty empty more_info 8 12 0 13 -228856 -1
0;
#N canvas 720 125 581 603 antialiasing 0;
#N canvas 232 59 441 363 plot 0;
#X obj 62 33 inlet~;
#X obj 62 88 rfft~;
#X obj 191 185 metro 100;
#X obj 191 162 tgl 15 0 empty empty empty 17 7 0 10 -262144 -1 -1 1
1;
#X obj 220 235 block~ 4096;
#X obj 191 134 loadbang;
#X obj 62 187 /~ 1024;
#X obj 62 214 rmstodb~;
#X obj 62 241 clip~ 40 100;
#X obj 62 157 cyclone/cartopol~;
#X obj 146 279 tabwrite~ \$0-non-limited;
#X connect 0 0 1 0;
#X connect 1 0 9 0;
#X connect 1 1 9 1;
#X connect 2 0 10 0;
#X connect 3 0 2 0;
#X connect 5 0 3 0;
#X connect 6 0 7 0;
#X connect 7 0 8 0;
#X connect 8 0 10 0;
#X connect 9 0 6 0;
#X restore 32 174 pd plot;
#X text 507 375 Nyquist;
#X text 33 377 0 Hz;
#X text 509 543 Nyquist;
#X text 35 545 0 Hz;
#X obj 36 253 cnv 15 510 118 empty empty empty 20 12 0 14 -228856 -66577
0;
#X obj 38 421 cnv 15 510 118 empty empty empty 20 12 0 14 -228856 -66577
0;
#N canvas 0 22 450 300 (subpatch) 0;
#X array \$0-non-limited 2048 float 0;
#X coords 0 100 2047 40 512 120 1 0 0;
#X restore 35 252 graph;
#N canvas 0 22 450 300 (subpatch) 0;
#X array \$0-bandlimited 2048 float 0;
#X coords 0 100 2047 40 512 120 1 0 0;
#X restore 37 420 graph;
#X obj 100 129 expr~ if($v1 > 0.5 \, 1 \, -1);
#X obj 100 95 phasor~ 2000;
#X text 98 18 A perfectly square/pulse oscillator generates aliasing
(check spectral analisys graphs below). Hence \, it's preferable for
musical purposes a band limited osicllator.;
#X text 185 93 Aliasing;
#X obj 483 175 switch~;
#X obj 483 97 tgl 50 0 empty empty empty 17 7 0 10 -228856 -1 -1 1
1;
#X text 482 73 turn on;
#N canvas 232 59 445 362 plot 0;
#X obj 102 33 inlet~;
#X obj 102 88 rfft~;
#X obj 230 226 metro 100;
#X obj 230 203 tgl 15 0 empty empty empty 17 7 0 10 -262144 -1 -1 1
1;
#X obj 308 145 block~ 4096;
#X obj 230 175 loadbang;
#X obj 102 187 /~ 1024;
#X obj 102 214 rmstodb~;
#X obj 112 251 clip~ 40 100;
#X obj 138 280 tabwrite~ \$0-bandlimited;
#X obj 102 149 cyclone/cartopol~;
#X connect 0 0 1 0;
#X connect 1 0 10 0;
#X connect 1 1 10 1;
#X connect 2 0 9 0;
#X connect 3 0 2 0;
#X connect 5 0 3 0;
#X connect 6 0 7 0;
#X connect 7 0 8 0;
#X connect 8 0 9 0;
#X connect 10 0 6 0;
#X restore 249 185 pd plot;
#X obj 311 132 cyclone/rect~ 2000;
#X obj 100 160 ./out~;
#X obj 311 173 ./out~;
#X text 313 105 That's better...;
#X connect 9 0 0 0;
#X connect 9 0 18 0;
#X connect 9 0 18 1;
#X connect 10 0 9 0;
#X connect 14 0 13 0;
#X connect 17 0 16 0;
#X connect 17 0 19 0;
#X connect 17 0 19 1;
#X restore 449 257 pd antialiasing;
#N canvas 830 125 450 300 sync 0;
#X obj 219 140 phasor~;
#X obj 219 116 nbx 5 14 -1e+37 1e+37 0 0 empty empty empty 0 -8 0 10
-228856 -1 -1 0 256;
#X obj 320 248 switch~;
#X obj 320 170 tgl 50 0 empty empty empty 17 7 0 10 -228856 -1 -1 0
1;
#X text 319 146 turn on;
#X obj 120 171 cyclone/rect~ 440;
#X text 51 37 In the third inlet \, you can feed a [phasor~] signal
for oscillator syncing. The frequency from the [phasor~] will be the
master and force [rect~] to be synced as a slave.;
#X obj 96 211 ./out~;
#X connect 0 0 5 2;
#X connect 1 0 0 0;
#X connect 3 0 2 0;
#X connect 5 0 7 0;
#X connect 5 0 7 1;
#X restore 497 283 pd sync;
#X obj 163 195 cyclone/rect~ 115 0.5;
#X text 129 495 This is an abstraction (and an extremely CPU hungry
one)!!! A particular behaviour is that if the signal input is 0 \,
the arguments are called.;
#X text 124 158 hz;
#X text 235 445 - frequency (default 0);
#X obj 17 56 cyclone/comment 0 18 times ? 0 0 0 0 Bandlimited pulse
oscillator;
#X obj 16 4 cyclone/comment 0 37 times ? 0 0 0 0 rect~;
#X obj 322 28 cyclone/comment 0 13 courier ? 0 224 228 220 Objects
cloned from Max/MSP;
#X obj 363 4 cyclone/comment 0 24 courier ? 0 224 228 220 cyclone;
#X obj 120 234 ./out~;
#X obj 499 69 cyclone/setdsp~;
#X connect 16 0 32 0;
#X connect 17 0 18 0;
#X connect 18 0 32 1;
#X connect 32 0 25 0;
#X connect 32 0 40 0;
#X connect 32 0 40 1;
