#N canvas 403 23 559 525 10;
#X obj 2 4 cnv 15 553 42 empty empty empty 20 12 0 14 -233017 -66577
0;
#N canvas 0 22 450 278 (subpatch) 0;
#X coords 0 1 100 -1 554 42 1 0 0;
#X restore 2 3 graph;
#X obj 305 4 cnv 15 250 40 empty empty empty 12 13 0 18 -128992 -233080
0;
#N canvas 382 141 749 319 (subpatch) 0;
#X coords 0 -1 1 1 252 42 2 100 100;
#X restore 304 3 pd;
#X text 48 91 [saw~] generates an anti-aliased sawtooth wave at a given
frequency. It has a sync input.;
#X obj 208 148 nbx 5 14 -1e+37 1e+37 0 0 empty empty empty 0 -8 0 10
-228856 -1 -1 0 256;
#X text 182 147 hz;
#X obj 2 487 cnv 15 552 21 empty empty empty 20 12 0 14 -233017 -33289
0;
#X obj 2 296 cnv 3 550 3 empty empty inlets 8 12 0 13 -228856 -1 0
;
#X obj 2 358 cnv 3 550 3 empty empty outlets 8 12 0 13 -228856 -1 0
;
#X obj 2 395 cnv 3 550 3 empty empty arguments 8 12 0 13 -228856 -1
0;
#X obj 111 370 cnv 17 3 17 empty empty 0 5 9 0 16 -228856 -162280 0
;
#X obj 111 306 cnv 17 3 17 empty empty 0 5 9 0 16 -228856 -162280 0
;
#X text 139 306 float/signal;
#X obj 111 330 cnv 17 3 17 empty empty 1 5 9 0 16 -228856 -162280 0
;
#X text 175 330 signal;
#X text 173 370 signal;
#X text 233 305 - frequency in hertz;
#X text 235 329 - oscillator sync \, from a [phasor~] signal;
#X text 161 404 1) float;
#X obj 3 427 cnv 3 550 3 empty empty more_info 8 12 0 13 -228856 -1
0;
#X text 235 370 - the bandlimited sawtooth oscillator output;
#N canvas 720 125 581 603 antialiasing 0;
#N canvas 232 59 441 363 plot 0;
#X obj 62 33 inlet~;
#X obj 62 88 rfft~;
#X obj 191 185 metro 100;
#X obj 191 162 tgl 15 0 empty empty empty 17 7 0 10 -262144 -1 -1 1
1;
#X obj 220 235 block~ 4096;
#X obj 191 134 loadbang;
#X obj 62 187 /~ 1024;
#X obj 62 214 rmstodb~;
#X obj 62 241 clip~ 40 100;
#X obj 62 157 cyclone/cartopol~;
#X obj 146 279 tabwrite~ \$0-non-limited;
#X connect 0 0 1 0;
#X connect 1 0 9 0;
#X connect 1 1 9 1;
#X connect 2 0 10 0;
#X connect 3 0 2 0;
#X connect 5 0 3 0;
#X connect 6 0 7 0;
#X connect 7 0 8 0;
#X connect 8 0 10 0;
#X connect 9 0 6 0;
#X restore 32 174 pd plot;
#X text 507 375 Nyquist;
#X text 33 377 0 Hz;
#X text 509 543 Nyquist;
#X text 35 545 0 Hz;
#X obj 36 253 cnv 15 510 118 empty empty empty 20 12 0 14 -228856 -66577
0;
#X obj 38 421 cnv 15 510 118 empty empty empty 20 12 0 14 -228856 -66577
0;
#N canvas 0 22 450 300 (subpatch) 0;
#X array \$0-non-limited 2048 float 0;
#X coords 0 100 2047 40 512 120 1 0 0;
#X restore 35 252 graph;
#N canvas 0 22 450 300 (subpatch) 0;
#X array \$0-bandlimited 2048 float 0;
#X coords 0 100 2047 40 512 120 1 0 0;
#X restore 37 420 graph;
#X obj 100 95 phasor~ 2000;
#X text 185 93 Aliasing;
#X obj 483 175 switch~;
#X obj 483 97 tgl 50 0 empty empty empty 17 7 0 10 -228856 -1 -1 0
1;
#X text 482 73 turn on;
#N canvas 232 59 445 362 plot 0;
#X obj 102 33 inlet~;
#X obj 102 88 rfft~;
#X obj 230 226 metro 100;
#X obj 230 203 tgl 15 0 empty empty empty 17 7 0 10 -262144 -1 -1 1
1;
#X obj 308 145 block~ 4096;
#X obj 230 175 loadbang;
#X obj 102 187 /~ 1024;
#X obj 102 214 rmstodb~;
#X obj 112 251 clip~ 40 100;
#X obj 138 280 tabwrite~ \$0-bandlimited;
#X obj 102 149 cyclone/cartopol~;
#X connect 0 0 1 0;
#X connect 1 0 10 0;
#X connect 1 1 10 1;
#X connect 2 0 9 0;
#X connect 3 0 2 0;
#X connect 5 0 3 0;
#X connect 6 0 7 0;
#X connect 7 0 8 0;
#X connect 8 0 9 0;
#X connect 10 0 6 0;
#X restore 249 185 pd plot;
#X obj 100 129 cyclone/triangle~ 1;
#X obj 311 132 cyclone/saw~ 2000;
#X obj 100 160 ./out~;
#X obj 311 173 ./out~;
#X text 313 103 That's better...;
#X text 98 18 A perfect sawtooth oscillator generates aliasing (check
spectral analisys graphs below). Hence \, it's preferable for musical
purposes a band limited osicllator.;
#X connect 9 0 15 0;
#X connect 12 0 11 0;
#X connect 15 0 0 0;
#X connect 15 0 17 0;
#X connect 15 0 17 1;
#X connect 16 0 14 0;
#X connect 16 0 18 0;
#X connect 16 0 18 1;
#X restore 442 242 pd antialiasing;
#N canvas 830 125 450 300 sync 0;
#X obj 213 140 phasor~;
#X obj 213 116 nbx 5 14 -1e+37 1e+37 0 0 empty empty empty 0 -8 0 10
-228856 -1 -1 0 256;
#X obj 320 248 switch~;
#X obj 320 170 tgl 50 0 empty empty empty 17 7 0 10 -228856 -1 -1 0
1;
#X text 319 146 turn on;
#X text 51 37 In the second inlet \, you can feed a [phasor~] signal
for oscillator syncing. The frequency from the [phasor~] will be the
master and force [saw~] to be synced as a slave.;
#X obj 120 171 cyclone/saw~ 440;
#X obj 96 210 ./out~;
#X connect 0 0 6 1;
#X connect 1 0 0 0;
#X connect 3 0 2 0;
#X connect 6 0 7 0;
#X connect 6 0 7 1;
#X restore 488 267 pd sync;
#X obj 208 172 cyclone/saw~ 440;
#X text 129 434 This is an abstraction (and an extremely CPU hungry
one)!!! A particular behaviour is that if the signal input is 0 \,
the argument is called.;
#X text 235 404 - frequency (default 0);
#X obj 17 56 cyclone/comment 0 18 times ? 0 0 0 0 Bandlimited sawtooth
oscillator;
#X obj 322 28 cyclone/comment 0 13 courier ? 0 224 228 220 Objects
cloned from Max/MSP;
#X obj 363 4 cyclone/comment 0 24 courier ? 0 224 228 220 cyclone;
#X obj 16 4 cyclone/comment 0 37 times ? 0 0 0 0 saw~;
#X obj 183 217 ./out~;
#X connect 5 0 24 0;
#X connect 24 0 31 0;
#X connect 24 0 31 1;
