#N canvas 741 46 560 686 10;
#X obj 4 660 cnv 15 552 21 empty empty empty 20 12 0 14 -233017 -33289
0;
#X obj 5 313 cnv 3 550 3 empty empty inlets 8 12 0 13 -228856 -1 0
;
#X obj 6 561 cnv 3 550 3 empty empty outlets 8 12 0 13 -228856 -1 0
;
#X obj 4 587 cnv 3 550 3 empty empty arguments 8 12 0 13 -228856 -1
0;
#X obj 68 320 cnv 17 3 208 empty empty 0 5 9 0 16 -228856 -162280 0
;
#X text 150 320 signal;
#X text 205 566 (none);
#X text 156 334 float;
#X obj 68 532 cnv 17 3 24 empty empty 1 5 9 0 16 -228856 -162280 0
;
#X text 150 530 signal;
#X text 156 544 float;
#X text 194 530 - signal to be displayed on the Y axis, f 58;
#X text 194 320 - signal to be displayed in the X axis, f 58;
#X text 205 592 (none);
#X obj 4 612 cnv 3 550 3 empty empty attributes 8 12 0 13 -228856 -1
0;
#X text 194 544 - sets "bufsize": number of lines in buffer, f 58
;
#X text 194 498 - onset time delay between displays (default 0), f
58;
#X obj 2 4 cnv 15 553 42 empty empty empty 20 12 0 14 -233017 -66577
0;
#N canvas 0 22 450 278 (subpatch) 0;
#X coords 0 1 100 -1 554 42 1 0 0;
#X restore 2 3 graph;
#X obj 305 4 cnv 15 250 40 empty empty empty 12 13 0 18 -128992 -233080
0;
#N canvas 382 141 749 319 (subpatch) 0;
#X coords 0 -1 1 1 252 42 2 100 100;
#X restore 304 3 pd;
#X text 194 335 - sets "calccount": samples per line (2-8192 \, default
256);
#X text 194 365 - sets "calccount" (samples per line), f 58;
#X text 194 380 - sets number of lines in buffer (8-256 \, default
128), f 58;
#X text 194 396 - sets vertical range (default -1 1), f 58;
#X text 194 412 - sets front/signal RGB color (values 0-1), f 58;
#X text 194 427 - sets background RGB color (values 0-1), f 58;
#X text 194 441 - sets grid RGB color (values 0-1), f 58;
#X text 194 470 - sets trigger mode: 0 (none \, default) \, 1 (up)
or 2 (down);
#X text 194 484 - sets threshold level for the trigger mode (default
0), f 58;
#X text 194 455 - <1> sets alternate drawing style (default 0), f
58;
#X obj 16 2 cyclone/comment 0 33 DejaVu\ Sans\ Mono empty 0 0 0 0 0
255 255 255 0 0 scope~;
#X obj 322 28 cyclone/comment 0 13 DejaVu\ Sans\ Mono empty 0 224 228
220 0 255 255 255 0 0 Objects cloned from Max/MSP;
#X obj 363 4 cyclone/comment 0 24 DejaVu\ Sans\ Mono empty 0 224 228
220 0 255 255 255 0 0 cyclone;
#N canvas 524 167 1004 465 X-Y_Mode 0;
#X obj 810 115 hsl 128 15 0 1 0 0 empty empty empty -2 -8 0 10 -228856
-1 -1 0 1;
#X obj 807 134 nbx 5 14 -1e+37 1e+37 0 0 empty empty empty 0 -8 0 10
-228856 -1 -1 0 256;
#X msg 737 61 588;
#X msg 701 61 550;
#X msg 670 61 441;
#X msg 641 61 220;
#X msg 771 61 660;
#X msg 803 61 1760;
#X text 64 134 When in X-Y mode \, [scope~] plots points whose horizontal
axis (X) corresponds to the signal's values coming into the left inlet
and whose vertical axis (Y) corresponds to the signal's values coming
into the right inlet. If the two signals are identical and in phase
\, a straight line increasing from left to right will be seen. If the
two signals are identical and 180 degrees out of phase \, a straight
line decreasing from left to right will be seen. Other combinations
may produce circles \, ellipses \, and Lissajous figures.;
#X text 64 271 When in X-Y mode \, there's an averaging algorithm for
the calccount parameter \, where a representative sample from this
period is used. So it requires small values for a better representation
(only 2 in the examples below).;
#X obj 63 52 cnv 15 120 30 empty empty empty 20 12 0 14 -233017 -66577
0;
#X obj 509 114 nbx 5 14 -1e+37 1e+37 0 0 empty empty empty 0 -8 0 10
-228856 -1 -1 0 256;
#X obj 702 110 nbx 5 14 -1e+37 1e+37 0 0 empty empty empty 0 -8 0 10
-228856 -1 -1 0 256;
#X msg 609 61 1;
#X obj 79 57 cyclone/comment 0 14 DejaVu\ Sans\ Mono empty 0 0 0 0
0 255 255 255 0 0 comment;
#X obj 509 196 cyclone/scope~ 200 200 5 3 200 -1 1 50 0 0 0 205 229
232 74 79 77 96 98 102 0 empty;
#X text 64 97 If signals are connected to both the left and right inlets
\, [scope~] operates in X-Y mode.;
#X text 66 341 Change the phase of the oscillator to check how it affects
the plot \, then try different frequencies.;
#X text 835 114 change phase;
#X obj 702 156 cyclone/cycle~ 440;
#X obj 509 155 cyclone/cycle~ 440;
#X connect 0 0 1 0;
#X connect 1 0 19 1;
#X connect 2 0 12 0;
#X connect 3 0 12 0;
#X connect 4 0 12 0;
#X connect 5 0 12 0;
#X connect 6 0 12 0;
#X connect 7 0 12 0;
#X connect 11 0 20 0;
#X connect 12 0 19 0;
#X connect 13 0 12 0;
#X connect 19 0 15 1;
#X connect 20 0 15 0;
#X restore 414 240 pd X-Y_Mode;
#X obj 46 112 hsl 100 17 2 30 1 0 empty empty empty 5 8 1 10 -228856
-1 -1 0 0;
#X floatatom 43 134 5 0 0 0 - - -;
#X obj 31 194 cnv 5 5 5 empty empty 1 0 0 0 16 -262144 -162280 0;
#X obj 19 300 cnv 5 5 5 empty empty -1 0 0 0 16 -262144 -162280 0;
#X obj 30 246 cnv 5 5 5 empty empty 0 0 0 0 16 -262144 -162280 0;
#X text 269 140 Samples per line (2-8192);
#X text 269 162 Number of lines in buffer (8-256);
#X text 65 113 frequency;
#N canvas 809 79 824 595 appearance_colors 0;
#X obj 35 131 vsl 15 128 0 1 0 0 rjhfkjfbws \$0-Rf empty 0 -9 0 10
-258049 -262144 -1 10210 1;
#X floatatom 35 273 5 0 0 0 - - -;
#X msg 30 362 fgcolor \$1 \$2 \$3;
#X obj 73 131 vsl 15 128 0 1 0 0 xaslkdjla \$0-Gf empty 0 -9 0 10 -4033
-262144 -1 11405 1;
#X floatatom 73 273 5 0 0 0 - - -;
#X obj 113 131 vsl 15 128 0 1 0 0 qdaskjlf \$0-Bf empty 0 -9 0 10 -64
-262144 -1 11555 1;
#X floatatom 113 273 5 0 0 0 - - -;
#X obj 174 131 vsl 15 128 0 1 0 0 rjhfkjfbws \$0-Rb empty 0 -9 0 10
-258049 -262144 -1 3685 1;
#X floatatom 174 273 5 0 0 0 - - -;
#X obj 212 131 vsl 15 128 0 1 0 0 xaslkdjla \$0-Gb empty 0 -9 0 10
-4033 -262144 -1 3935 1;
#X floatatom 212 273 5 0 0 0 - - -;
#X obj 252 131 vsl 15 128 0 1 0 0 qdaskjlf \$0-Bb empty 0 -9 0 10 -64
-262144 -1 3835 1;
#X floatatom 252 273 5 0 0 0 - - -;
#X msg 166 364 bgcolor \$1 \$2 \$3;
#X obj 307 131 vsl 15 128 0 1 0 0 rjhfkjfbws \$0-Rg empty 0 -9 0 10
-258049 -262144 -1 4781 1;
#X floatatom 307 273 5 0 0 0 - - -;
#X obj 345 131 vsl 15 128 0 1 0 0 xaslkdjla \$0-Gg empty 0 -9 0 10
-4033 -262144 -1 4881 1;
#X floatatom 345 273 5 0 0 0 - - -;
#X obj 385 131 vsl 15 128 0 1 0 0 qdaskjlf \$0-Bg empty 0 -9 0 10 -64
-262144 -1 5080 1;
#X floatatom 385 273 5 0 0 0 - - -;
#X msg 314 364 gridcolor \$1 \$2 \$3;
#X msg 599 304 frgb 205 229 232 \, brgb 74 79 77;
#N canvas 217 96 326 446 x 0;
#X obj 101 101 cnv 15 63 78 empty empty empty 20 12 0 14 -74964 -66577
0;
#X obj 107 121 bng 50 250 50 0 sdfsd sfgsg Default -2 -10 0 14 -212603
-1 -212603;
#X obj 124 191 loadbang;
#X obj 107 217 f \$0;
#X msg 107 240 \; \$1-Rf 0.803922 \; \$1-Gf 0.898039 \; \$1-Bf 0.909804
\; \$1-Rb 0.290196 \; \$1-Gb 0.309804 \; \$1-Bb 0.301961 \; \$1-Rg
0.376471 \; \$1-Gg 0.384314 \; \$1-Bg 0.4;
#X connect 1 0 3 0;
#X connect 2 0 3 0;
#X connect 3 0 4 0;
#X coords 0 -1 1 1 65 80 1 100 100;
#X restore 61 462 pd x;
#X obj 296 405 osc~ 24;
#X obj 567 356 scope~ 130 130 256 3 128 -1 1 0 0 0 0 0 255 0 7 31 7
96 98 102 0 empty;
#X msg 567 273 frgb 0 255 0 \, brgb 7 31 7;
#X obj 567 249 loadbang;
#X text 449 73 Backwards compatibility note:;
#X text 467 107 Old color messages for front / signal and background
are \, respectively \, frgb and brgb - they are RGB with values from
0-255., f 52;
#X text 467 149 These are still included in Max and Pd for backwards
compatibility. You can also set them as attributes (@frgb and @brgb).
Check the messages below, f 52;
#X text 34 65 RGB colors (values from 0-1) for fgcolor (front/signal)
\, bgcolor (background) & grid (gridcolor). In Max \, these are RGBA
\, but the alpha channel is not implemented in Pd.;
#X obj 36 15 cnv 15 70 30 empty empty empty 20 12 0 14 -233017 -66577
0;
#X obj 42 20 cyclone/comment 0 14 DejaVu\ Sans\ Mono empty 0 0 0 0
0 255 255 255 0 0 comment;
#X obj 166 440 cyclone/scope~ 250 133 10 3 185 -1 1 0 0 0 -0.333333
205 228 232 73 79 77 96 98 102 0 empty;
#X obj 30 302 cyclone/pak 0.803922 0.898039 0.909804, f 15;
#X obj 166 302 cyclone/pak 0.290196 0.309804 0.301961, f 16;
#X obj 314 302 cyclone/pak 0.376471 0.384314 0.4, f 11;
#X connect 0 0 1 0;
#X connect 1 0 34 0;
#X connect 2 0 33 0;
#X connect 3 0 4 0;
#X connect 4 0 34 1;
#X connect 5 0 6 0;
#X connect 6 0 34 2;
#X connect 7 0 8 0;
#X connect 8 0 35 0;
#X connect 9 0 10 0;
#X connect 10 0 35 1;
#X connect 11 0 12 0;
#X connect 12 0 35 2;
#X connect 13 0 33 0;
#X connect 14 0 15 0;
#X connect 15 0 36 0;
#X connect 16 0 17 0;
#X connect 17 0 36 1;
#X connect 18 0 19 0;
#X connect 19 0 36 2;
#X connect 20 0 33 0;
#X connect 21 0 24 0;
#X connect 23 0 33 0;
#X connect 25 0 24 0;
#X connect 26 0 25 0;
#X connect 34 0 2 0;
#X connect 35 0 13 0;
#X connect 36 0 20 0;
#X restore 294 263 pd appearance_colors;
#N canvas 724 132 764 481 appearance_others 0;
#X obj 38 22 cnv 15 100 30 empty empty empty 20 12 0 14 -233017 -66577
0;
#X msg 180 215 delay 1000;
#X text 187 243 vertical range;
#X msg 167 191 delay 0;
#X text 168 169 onset delay;
#X text 247 215 once a second;
#X msg 200 284 range -1 1;
#X text 220 191 (default);
#X text 270 286 (default);
#X msg 359 291 drawstyle \$1;
#X obj 359 251 tgl 25 0 empty empty empty 17 7 0 10 -228856 -1 -1 0
1;
#X msg 190 261 range -1.2 1.2;
#X text 39 101 The "drawstyle 1" message or attribute changes [scope~]
to analternate drawing style \, that affects some kinds of signals
\, such as this bandlimited square wave (try it with the range -1.2
1.2).;
#X text 42 65 You can set the vertical (signal amplitude) range and
the onset delay (time between displays) with messages.;
#X obj 586 301 cyclone/scope~ 100 50 256 3 128 -1 1 0 0 0 0 205 229
232 74 79 77 96 98 102 0 empty;
#X obj 44 29 cyclone/comment 0 14 DejaVu\ Sans\ Mono empty 0 0 0 0
0 255 255 255 0 0 comment;
#X obj 558 150 tgl 25 0 empty empty empty 17 7 0 10 -228856 -1 -1 0
1;
#X obj 558 193 select 0 1;
#X obj 586 223 bng 15 250 50 0 empty empty empty 17 7 0 10 -228856
-1 -1;
#X obj 511 223 bng 15 250 50 0 empty empty empty 17 7 0 10 -228856
-1 -1;
#N canvas 338 119 577 204 square 0;
#X obj 55 132 outlet~;
#X msg 188 80 sinesum 4096 1 0 0.333333 0 0.2 0 0.142857 0 0.111111
0 0.0909091 0 0.0769231 0 0.0666667 0 0.0588235 0 \, normalize 1;
#X obj 188 56 loadbang;
#X obj 188 113 send \$0-square;
#X obj 213 143 table \$0-square 4099;
#X obj 55 105 tabosc4~ \$0-square;
#X obj 55 76 sig~ 123;
#X connect 1 0 3 0;
#X connect 2 0 1 0;
#X connect 5 0 0 0;
#X connect 6 0 5 0;
#X restore 85 275 pd square;
#X obj 167 341 cyclone/scope~ 219 108 10 3 185 -1.2 1.2 0 0 0 -0.333333
205 229 232 74 79 77 96 98 102 0 empty;
#X msg 511 248 dim 100 50;
#X msg 586 248 dim 50 100;
#X text 439 67 Inconsistency note:;
#X text 475 93 There's a "dim" message/attribute \, not available in
the original MAX object \, for setting the size of your [scope~].,
f 39;
#X connect 1 0 21 0;
#X connect 3 0 21 0;
#X connect 6 0 21 0;
#X connect 9 0 21 0;
#X connect 10 0 9 0;
#X connect 11 0 21 0;
#X connect 16 0 17 0;
#X connect 17 0 19 0;
#X connect 17 1 18 0;
#X connect 18 0 23 0;
#X connect 19 0 22 0;
#X connect 20 0 21 0;
#X connect 22 0 14 0;
#X connect 23 0 14 0;
#X restore 425 263 pd appearance_others;
#N canvas 820 129 415 468 mouse 0;
#X obj 35 16 cnv 15 70 30 empty empty empty 20 12 0 14 -233017 -66577
0;
#X obj 125 131 cyclone/rand~ 40;
#X obj 125 169 cyclone/scope~ 130 130 47 3 128 -1 1 0 0 0 0 205 229
232 74 79 77 96 98 102 0 empty;
#X text 55 402 And as noted \, if you right click on it (in edit mode
or not) you can access its properties., f 50;
#X text 41 348 When in edit mode \, you can selct the object by clicking
on it and then you can resize it by clicking and dragging on its bottom
right corner., f 51;
#X obj 41 21 cyclone/comment 0 14 DejaVu\ Sans\ Mono empty 0 0 0 0
0 255 255 255 0 0 comment;
#X text 34 71 When you click on [scope~] with your mouse \, the display
freezes for as long as you hold the mouse button down.;
#X connect 1 0 2 0;
#X restore 357 240 pd mouse;
#X obj 43 190 scope~ 183 112 256 3 128 -1 1 0 0 0 0 205 229 232 74
79 77 96 98 102 0 empty;
#X text 88 79 [scope~] displays a signal in the style of an oscilloscope.
;
#X obj 19 54 cyclone/comment 0 14 DejaVu\ Sans\ Mono empty 0 0 0 0
0 255 255 255 0 0 Oscilloscope display;
#X obj 237 202 cyclone/comment 0 12 helvetica empty 0 200 0 0 0 255
255 255 0 0 <= Right click for properties!;
#X text 114 395 range <f \, f>;
#X text 84 412 fgcolor <f \, f \, f>;
#X text 84 427 bgcolor <f \, f \, f>;
#X text 72 441 gridcolor <f \, f \, f>;
#X obj 218 141 nbx 4 14 -1e+37 1e+37 0 0 empty empty empty 0 -8 0 10
-228856 -1 -1 0 256;
#X obj 219 163 nbx 4 14 -1e+37 1e+37 0 0 empty empty empty 0 -8 0 10
-228856 -1 -1 0 256;
#X obj 499 69 cyclone/setdsp~;
#N canvas 954 174 334 387 Y_Mode 0;
#X obj 91 196 cyclone/scope~ 130 130 11 3 128 -1 1 0 0 0 0 205 229
232 74 79 77 96 98 102 0 empty;
#X text 51 85 If a signal is only fed to the second inlet \, [scope~]
displays in "Y Mode" only., f 31;
#X obj 214 154 osc~ 60;
#X obj 50 26 cnv 15 120 30 empty empty empty 20 12 0 14 -233017 -66577
0;
#X obj 67 31 cyclone/comment 0 14 DejaVu\ Sans\ Mono empty 0 0 0 0
0 255 255 255 0 0 comment;
#X connect 2 0 0 1;
#X restore 491 240 pd Y_Mode;
#X text 126 349 dim <f \, f>;
#X text 194 350 - sets width/height (default 130 130), f 58;
#X obj 43 154 osc~ 2;
#X text 90 512 receive <symbol>;
#X text 84 364 calccount <float>;
#X text 96 380 bufsize <float>;
#X text 84 455 drawstyle <float>;
#X text 96 469 trigger <float>;
#X text 84 484 triglevel <float>;
#X text 108 498 delay <float>;
#X text 194 512 - receive symbol (default empty), f 58;
#X text 98 618 @fgcolor <f f f> | @bgcolor <f f f> | @gridcolor <f
f f> | @range <f f> | @trigger <f> | @triglevel <f> | @bufsize <f>
@calccount <f> | @delay <f> | drawstyle <f> | @dim <f f> | @receive
<sym>, f 74;
#N canvas 1073 204 500 390 receive 0;
#X obj 28 11 cnv 15 120 30 empty empty empty 20 12 0 14 -233017 -66577
0;
#X obj 34 16 cyclone/comment 0 14 DejaVu\ Sans\ Mono empty 0 0 0 0
0 255 255 255 0 0 comment;
#X obj 63 212 cyclone/scope~ 130 130 2 3 128 -1 1 100 0 0 0 205 229
232 74 79 77 96 98 102 0 \$0-rcv;
#X obj 307 309 s \$0-rcv;
#X obj 63 167 noise~;
#X msg 307 242 2 128;
#X msg 327 270 64 12;
#X text 232 149 You can send any kind of message that scope~ accepts.
Note that if you send it a list of two floats. Then the values are
spread via both inlets and set samples per line and lines per buffer
\, respectively., f 36;
#X text 26 62 When in edit mode \, [scope~] shows its inlets. The [scope~]
object below has a receive symbol \, so you can send messages to it
via a [send] object (but not audio). In this case \, the inlets are
supressed \, so we don't see it. The receive symbol can be set with
the receive message or the @receive attribute. If you set a receive
name as "empty" then it can't receive messages anymore and the inlets
are shown., f 73;
#X connect 4 0 2 0;
#X connect 5 0 3 0;
#X connect 6 0 3 0;
#X restore 485 285 pd receive;
#N canvas 693 173 823 370 buffer 0;
#X floatatom 511 139 5 0 0 0 - - -;
#X floatatom 682 140 5 8 256 0 - - -;
#X obj 511 113 unpack float float, f 29;
#X msg 511 58 256 10;
#X obj 538 169 osc~ 20;
#X msg 525 86 10 256;
#X text 719 134 lines per display, f 9;
#X text 446 135 samples per line, f 8;
#X text 34 173 Therefore \, the number of samples (or period) displayed
in the oscilloscope is equal to: bufsize * calccount. The number of
samples also affect the time between displays. If the number of samples
is small \, the refresh rate speed is high \, so you may want to use
the "onset delay" message to decrease the speed between displays.;
#X text 35 267 bufsize & calccount are similar \, but they have different
effects. Lets check the example in this subpatch with two settings.
Both have the same display period in samples (2560) \, but one is displayed
as a buffer made of 10 lines and 256 samples per line and the other
as a buffer made of 256 lines and 10 samples per line.;
#X text 568 86 10 samples per line \, 256 lines;
#X text 558 58 256 samples per line \, 10 lines;
#X text 33 69 "bufsize" sets the number of lines in the display (possible
values from 8 to 256 - default is 128). The number of samples represented
by each line is set by "calccount" (possible values from 2 to 8192
- default is 256). For each line \, the maximum and minimum values
within the period in samples are used to generate the line. So the
smallest line is 2 samples/points long.;
#X obj 31 13 cnv 15 190 30 empty empty empty 20 12 0 14 -233017 -66577
0;
#X obj 37 18 cyclone/comment 0 14 DejaVu\ Sans\ Mono empty 0 0 0 0
0 255 255 255 0 0 comment;
#X obj 511 200 cyclone/scope~ 178 126 10 3 256 -1 1 0 0 0 -0.333333
205 229 232 74 79 77 96 98 102 0 empty;
#X connect 0 0 15 0;
#X connect 1 0 15 1;
#X connect 2 0 0 0;
#X connect 2 1 1 0;
#X connect 3 0 2 0;
#X connect 4 0 15 0;
#X connect 5 0 2 0;
#X restore 352 285 pd buffer;
#N canvas 678 146 755 422 trigger 0;
#X obj 444 175 vsl 15 126 -1 1 0 1 empty empty empty 0 -9 0 10 -228856
-1 -1 7200 1;
#X obj 626 37 vradio 20 1 1 3 empty empty empty 0 -8 0 10 -228856 -1
-1 1;
#X msg 626 128 trigger \$1;
#X floatatom 626 107 5 0 0 0 - - -;
#X msg 531 100 triglevel \$1;
#X obj 444 321 nbx 8 14 -1e+37 1e+37 0 0 empty empty empty 0 -8 0 10
-228856 -1 -1 0.152 256;
#X obj 444 346 s \$0-slider;
#X obj 531 46 r \$0-slider;
#X floatatom 531 72 5 0 0 0 - - -;
#X obj 462 90 osc~ 150;
#X text 650 38 0) none;
#X text 651 58 1) Up;
#X text 651 79 2) Down;
#X text 31 57 The delay onset period determines when to display a new
waveform. In conjunction to it \, the trigger mode determines when
a new waveform trace begins (following the delay period).;
#X text 31 121 The default mode is "trigger 0" \, which is "none mode"
\, where the signal is displayed the way it is.;
#X text 33 165 "trigger 1" is "up mode" \, in which - following the
delay period - a new display is triggered only when the signal goes
from below the trigger level to being equal to it or above it.;
#X text 32 230 "trigger 2" sets to down mode \, in which - following
the delay period - a new display is shown only when the signal goes
from above the trigger level to being equal to it or below it.;
#X text 33 298 The "triglevel <float>" message sets the threshold for
the trigger modes "1" (up) and "2" (down). In these cases \, as described
above \, the waveform must increase or decrease past this value to
trigger a new display. If you are displaying a periodic waveform \,
some changes to the trigger level will shift the waveform to the left
or right.;
#X obj 31 13 cnv 15 120 30 empty empty empty 20 12 0 14 -233017 -66577
0;
#X obj 37 18 cyclone/comment 0 14 DejaVu\ Sans\ Mono empty 0 0 0 0
0 255 255 255 0 0 comment;
#X obj 462 174 cyclone/scope~ 201 129 2 3 256 -1 1 50 0 1 0.152 205
229 232 74 79 77 96 98 102 0 empty;
#X connect 0 0 5 0;
#X connect 1 0 3 0;
#X connect 2 0 20 0;
#X connect 3 0 2 0;
#X connect 4 0 20 0;
#X connect 5 0 6 0;
#X connect 7 0 8 0;
#X connect 8 0 4 0;
#X connect 9 0 20 0;
#X restore 416 285 pd trigger;
#X connect 35 0 36 0;
#X connect 36 0 60 0;
#X connect 54 0 46 0;
#X connect 55 0 46 1;
#X connect 60 0 46 0;
