#N canvas 406 39 565 551 10;
#X obj 2 352 cnv 3 550 3 empty empty inlets 8 12 0 13 #dcdcdc #000000 0;
#X obj 2 404 cnv 3 550 3 empty empty outlets 8 12 0 13 #dcdcdc #000000 0;
#X obj 2 454 cnv 3 550 3 empty empty arguments 8 12 0 13 #dcdcdc #000000 0;
#X obj 76 360 cnv 17 3 37 empty empty 0 5 9 0 16 #dcdcdc #9c9c9c 0;
#X obj 76 412 cnv 17 3 34 empty empty n 5 9 0 16 #dcdcdc #9c9c9c 0;
#N canvas 875 155 409 410 outlet 0;
#X msg 110 95 5 5;
#X msg 76 95 4 6;
#X obj 43 140 cyclone/spray 3 3;
#X obj 142 177 nbx 3 14 -1e+37 1e+37 0 0 empty empty empty 0 -8 0 10 #dcdcdc #000000 #000000 0 256;
#X obj 92 177 nbx 3 14 -1e+37 1e+37 0 0 empty empty empty 0 -8 0 10 #dcdcdc #000000 #000000 0 256;
#X obj 43 177 nbx 3 14 -1e+37 1e+37 0 0 empty empty empty 0 -8 0 10 #dcdcdc #000000 #000000 0 256;
#X msg 43 95 3 7;
#X obj 123 270 nbx 3 14 -1e+37 1e+37 0 0 empty empty empty 0 -8 0 10 #dcdcdc #000000 #000000 0 256;
#X msg 45 294 offset \$1;
#X text 27 15 You can set an offset with the 2nd argument or the "offset" message (default is 0). This way \, the first outlet is numbered after the offset value. Positive and nagetive values are allowed.;
#X obj 142 203 bng 15 250 50 0 empty empty empty 17 7 0 10 #dcdcdc #000000 #000000;
#X obj 92 203 bng 15 250 50 0 empty empty empty 17 7 0 10 #dcdcdc #000000 #000000;
#X obj 43 203 bng 15 250 50 0 empty empty empty 17 7 0 10 #dcdcdc #000000 #000000;
#X obj 320 172 nbx 3 14 -1e+37 1e+37 0 0 empty empty empty 0 -8 0 10 #dcdcdc #000000 #000000 0 256;
#X obj 267 172 nbx 3 14 -1e+37 1e+37 0 0 empty empty empty 0 -8 0 10 #dcdcdc #000000 #000000 0 256;
#X obj 215 172 nbx 3 14 -1e+37 1e+37 0 0 empty empty empty 0 -8 0 10 #dcdcdc #000000 #000000 0 256;
#X obj 320 198 bng 15 250 50 0 empty empty empty 17 7 0 10 #dcdcdc #000000 #000000;
#X obj 267 198 bng 15 250 50 0 empty empty empty 17 7 0 10 #dcdcdc #000000 #000000;
#X obj 215 198 bng 15 250 50 0 empty empty empty 17 7 0 10 #dcdcdc #000000 #000000;
#X obj 215 135 cyclone/spray 3 -7;
#X msg 215 90 -7 5;
#X msg 258 90 -6 8;
#X msg 303 90 -5 4;
#X symbolatom 210 271 10 0 0 0 - - - 0;
#X obj 123 294 cyclone/pak f s;
#X obj 210 247 cyclone/loadmess symbol hi;
#X symbolatom 198 358 10 0 0 0 - - - 0;
#X obj 123 330 cyclone/spray;
#X symbolatom 123 359 10 0 0 0 - - - 0;
#X obj 45 270 nbx 3 14 -1e+37 1e+37 0 0 empty empty empty 0 -8 0 10 #dcdcdc #000000 #000000 0 256;
#X connect 0 0 2 0;
#X connect 1 0 2 0;
#X connect 2 0 5 0;
#X connect 2 1 4 0;
#X connect 2 2 3 0;
#X connect 3 0 10 0;
#X connect 4 0 11 0;
#X connect 5 0 12 0;
#X connect 6 0 2 0;
#X connect 7 0 24 0;
#X connect 8 0 27 0;
#X connect 13 0 16 0;
#X connect 14 0 17 0;
#X connect 15 0 18 0;
#X connect 19 0 15 0;
#X connect 19 1 14 0;
#X connect 19 2 13 0;
#X connect 20 0 19 0;
#X connect 21 0 19 0;
#X connect 22 0 19 0;
#X connect 23 0 24 1;
#X connect 24 0 27 0;
#X connect 25 0 23 0;
#X connect 27 0 28 0;
#X connect 27 1 26 0;
#X connect 29 0 8 0;
#X restore 441 197 pd outlet offsets;
#X obj 2 519 cnv 15 552 21 empty empty empty 20 12 0 14 #e0e0e0 #202020 0;
#X text 189 361 -;
#X text 155 361 list;
#X text 190 411 -;
#X text 190 462 -;
#X text 132 462 1) float;
#X text 190 480 -;
#X text 132 480 2) float;
#X msg 279 168 2 3.8;
#X obj 328 232 nbx 3 14 -1e+37 1e+37 0 0 empty empty empty 0 -8 0 10 #dcdcdc #000000 #000000 0 256;
#X obj 278 232 nbx 3 14 -1e+37 1e+37 0 0 empty empty empty 0 -8 0 10 #dcdcdc #000000 #000000 0 256;
#X obj 229 232 nbx 3 14 -1e+37 1e+37 0 0 empty empty empty 0 -8 0 10 #dcdcdc #000000 #000000 0 256;
#X text 204 462 sets the number of outlets (default 2);
#X text 204 480 outlet offset number (default 0);
#X obj 229 204 cyclone/spray 3, f 17;
#X text 190 497 -;
#X text 132 497 3) float;
#X text 204 497 non-0 sets to output list mode (default 0);
#X text 190 429 -;
#X text 156 429 list;
#N canvas 493 231 822 295 list 0;
#X text 21 24 By default \, a list input is split and sprayed to the outlets. The first element in the list is the offset number.;
#X msg 430 95 0 1 2 3 4 5;
#X obj 469 185 cyclone/spray 2 0 1;
#X msg 469 124 1 100 200 300;
#X text 415 20 A non zero value as the third argument changes to the list output mode. In this mode \, a list input will be output to the specified outlet. Symbols are accepted in both modes.;
#X msg 483 155 1 symbols 1 are 10 not 1.1 ignored;
#X obj 102 189 cyclone/spray 5, f 30;
#X obj 102 243 bng 15 250 50 0 empty empty empty 17 7 0 10 #dcdcdc #000000 #000000;
#X obj 102 220 nbx 3 14 -1e+37 1e+37 0 0 empty empty empty 0 -8 0 10 #dcdcdc #000000 #000000 0 256;
#X obj 146 243 bng 15 250 50 0 empty empty empty 17 7 0 10 #dcdcdc #000000 #000000;
#X obj 146 220 nbx 3 14 -1e+37 1e+37 0 0 empty empty empty 0 -8 0 10 #dcdcdc #000000 #000000 0 256;
#X obj 190 243 bng 15 250 50 0 empty empty empty 17 7 0 10 #dcdcdc #000000 #000000;
#X obj 190 220 nbx 3 14 -1e+37 1e+37 0 0 empty empty empty 0 -8 0 10 #dcdcdc #000000 #000000 0 256;
#X obj 234 243 bng 15 250 50 0 empty empty empty 17 7 0 10 #dcdcdc #000000 #000000;
#X obj 279 243 bng 15 250 50 0 empty empty empty 17 7 0 10 #dcdcdc #000000 #000000;
#X symbolatom 279 221 6 0 0 0 - - - 0;
#X msg 123 152 4 yeah;
#X symbolatom 234 220 6 0 0 0 - - - 0;
#X msg 56 83 0 1 2 3 hell yeah!;
#X msg 102 113 1 10 20 oh;
#X obj 469 243 bng 15 250 50 0 empty empty empty 17 7 0 10 #dcdcdc #000000 #000000;
#X obj 580 245 bng 15 250 50 0 empty empty empty 17 7 0 10 #dcdcdc #000000 #000000;
#X msg 371 94 0 hello;
#X listbox 469 213 16 0 0 0 - - - 0;
#X listbox 580 213 34 0 0 0 - - - 0;
#X connect 1 0 2 0;
#X connect 2 0 23 0;
#X connect 2 1 24 0;
#X connect 3 0 2 0;
#X connect 5 0 2 0;
#X connect 6 0 8 0;
#X connect 6 1 10 0;
#X connect 6 2 12 0;
#X connect 6 3 17 0;
#X connect 6 4 15 0;
#X connect 8 0 7 0;
#X connect 10 0 9 0;
#X connect 12 0 11 0;
#X connect 15 0 14 0;
#X connect 16 0 6 0;
#X connect 17 0 13 0;
#X connect 18 0 6 0;
#X connect 19 0 6 0;
#X connect 22 0 2 0;
#X connect 23 0 20 0;
#X connect 24 0 21 0;
#X restore 458 224 pd list input \; and output;
#X text 65 84 [spray] accepts lists where the 1st value indicates the outlet number (starting at 0) and the 2nd element (float or symbol) is sent to that outlet - when not in list mode \, subsequent elements are sent to subsequent outlets to the right \, other wise (in list mode) the whole list is output at that outlet.;
#X msg 229 169 1 1 2;
#X msg 183 169 0 0.1;
#X text 204 361 outlet index and elements to be distributed;
#X text 108 411 float/symbol;
#X text 204 411 element sent from an inlet to a specified outlet, f 54;
#X text 205 429 when in "list output" mode (see 3rd argument), f 54;
#X text 99 379 offset <float> -;
#X text 204 379 sets an offset to the outlet number;
#X obj 3 1 ./header spray;
#X text 22 62 Distribute values to outlets;
#X text 208 249 Outlet 0;
#X text 266 250 Outlet 1;
#X text 328 249 Outlet 2;
#X text 30 256 see also:;
#X obj 95 258 route;
#X obj 49 281 cyclone/cycle;
#X obj 50 322 cyclone/funnel;
#X obj 49 302 cyclone/bucket;
#X obj 426 321 open-else;
#X text 429 277 click:;
#X text 196 298 Plugdata users or those with ELSE can also use [else/listspread] as an alternative, f 33;
#X msg 426 300 listspread;
#X connect 14 0 20 0;
#X connect 20 0 17 0;
#X connect 20 1 16 0;
#X connect 20 2 15 0;
#X connect 28 0 20 0;
#X connect 29 0 20 0;
#X connect 49 0 46 0;
