#N canvas 479 64 562 511 10;
#X obj 5 480 cnv 15 552 21 empty empty empty 20 12 0 14 #e0e0e0 #202020 0;
#X obj 5 363 cnv 3 550 3 empty empty inlets 8 12 0 13 #dcdcdc #000000 0;
#X obj 5 405 cnv 3 550 3 empty empty outlets 8 12 0 13 #dcdcdc #000000 0;
#X obj 5 446 cnv 3 550 3 empty empty arguments 8 12 0 13 #dcdcdc #000000 0;
#X obj 124 376 cnv 17 3 17 empty empty 0 5 9 0 16 #dcdcdc #9c9c9c 0;
#X obj 124 417 cnv 17 3 17 empty empty 0 5 9 0 16 #dcdcdc #9c9c9c 0;
#X text 158 376 signal;
#X text 158 417 signal;
#X text 157 455 (none);
#X text 214 376 - input to tangent function (in radians);
#X text 75 89 Like [cyclone/cosx~] & [cyclone/sinx~] \, [tanx~] is properly designed for mathematical operations. Thus \, it expects an input in radians to calculate the tangent of each input sample.;
#X obj 499 69 cyclone/dsponoff~;
#X obj 2 3 ./header tanx~;
#X text 22 61 Signal tangent function (radian input);
#X obj 159 181 sig~;
#X obj 159 240 cyclone/snapshot~ 1;
#X obj 159 270 nbx 9 14 -1e+37 1e+37 0 0 empty empty empty 0 -8 0 10 #dcdcdc #000000 #000000 0 256;
#X obj 159 157 nbx 9 14 -1e+37 1e+37 0 0 empty empty empty 0 -8 0 10 #dcdcdc #000000 #000000 0 256;
#X obj 159 211 cyclone/tanx~;
#X text 214 417 - the tangent of the input.;
#X text 37 321 see also:;
#X text 195 321 as a Vanilla alternative;
#X text 356 321 and;
#N canvas 425 211 552 420 all-trig-objects 0;
#X obj 110 60 cyclone/acos;
#X obj 110 87 cyclone/acosh;
#X obj 110 115 cyclone/asin;
#X obj 110 145 cyclone/atanh;
#X obj 110 175 cyclone/cosh;
#X obj 110 205 cyclone/sinh;
#X obj 110 234 cyclone/tanh;
#X obj 72 295 sin;
#X obj 105 295 cos;
#X obj 137 295 tan;
#X obj 169 295 atan;
#X obj 208 295 atan2;
#X text 256 294 - trigonometric functions from Vanilla;
#X text 109 358 All of the functions above are also present in vanilla's, f 29;
#X obj 300 364 expr;
#X text 338 363 or;
#X obj 361 364 expr~;
#X obj 285 80 cyclone/acos~;
#X obj 285 104 cyclone/acosh~;
#X obj 285 128 cyclone/asin~;
#X obj 285 152 cyclone/asinh~;
#X obj 285 176 cyclone/atan~;
#X obj 285 200 cyclone/atan2~;
#X text 70 19 Control data trigonometric functions from Cyclone:, f 26;
#X obj 285 224 cyclone/atanh~;
#X obj 392 98 cyclone/cosh~;
#X obj 392 122 cyclone/cosx~;
#X obj 392 144 cyclone/sinh~;
#X obj 392 167 cyclone/sinx~;
#X obj 392 190 cyclone/tanh~;
#X obj 392 213 cyclone/tanx~;
#X text 297 26 Sigal trigonometric functions from Cyclone:, f 26;
#X obj 215 323 cos~;
#X text 257 322 - actually a cosine wavetable;
#X restore 388 322 pd all-trig-objects;
#X obj 102 322 expr~ tan($v1);
#X connect 14 0 18 0;
#X connect 15 0 16 0;
#X connect 17 0 14 0;
#X connect 18 0 15 0;
