#N canvas 413 38 570 582 10;
#X obj 7 437 cnv 3 550 3 empty empty inlets 8 12 0 13 #dcdcdc #000000 0;
#X obj 7 485 cnv 3 550 3 empty empty outlets 8 12 0 13 #dcdcdc #000000 0;
#X obj 7 522 cnv 3 550 3 empty empty arguments 8 12 0 13 #dcdcdc #000000 0;
#X obj 116 494 cnv 17 3 17 empty empty 0 5 9 0 16 #dcdcdc #9c9c9c 0;
#X obj 116 451 cnv 17 3 17 empty empty 0 5 9 0 16 #dcdcdc #9c9c9c 0;
#X text 144 494 signal;
#X text 197 532 (none);
#X obj 7 554 cnv 15 552 21 empty empty empty 20 12 0 14 #e0e0e0 #202020 0;
#X obj 216 204 nbx 8 14 -127 127 0 0 empty empty empty 0 -8 0 10 #dcdcdc #000000 #000000 0 256;
#X obj 219 178 hsl 180 15 -127 127 0 0 empty empty empty -2 -8 0 10 #dcdcdc #000000 #000000 0 1;
#X obj 216 229 sig~;
#X obj 216 262 cyclone/trunc~;
#X text 144 451 signal;
#X text 199 451 - a signal whose values will be truncated;
#X text 197 494 - the truncated input signal;
#X text 73 325 The truncated value =>;
#X obj 499 69 cyclone/dsponoff~;
#X text 24 59 Truncate signal values;
#X obj 216 295 cyclone/snapshot~ 1;
#X obj 216 325 nbx 9 14 -1e+37 1e+37 0 0 empty empty empty 0 -8 0 10 #dcdcdc #000000 #000000 0 256;
#X obj 5 6 header trunc~;
#X obj 370 394 open-else;
#X text 417 371 click;
#X msg 370 372 trunc~;
#X text 78 95 [trunc~] truncates a signal towards zero \, that means only the integer value is considered. This is not an actual MAX clone but an object that is borrowed from ELSE which has more functionalities (support for multichannel connections) and is backwards compatible to MAX's.;
#X text 149 367 Plugdata users can just use the original object from ELSE instead (same with those with ELSE)., f 33;
#N canvas 795 189 422 372 multichannel 0;
#X obj 105 130 snake~ in;
#X listbox 105 104 12 0 0 0 - - - 0;
#X obj 289 119 setdsp~ 0;
#X text 100 28 Multichannel support example.;
#X listbox 105 307 7 0 0 0 - - - 12;
#X obj 105 75 cyclone/loadmess -1.75 1.2;
#X obj 105 163 cyclone/trunc~;
#X obj 105 281 cyclone/snapshot~ 1;
#X obj 105 188 snake~ out;
#X listbox 162 243 7 0 0 0 - - - 12;
#X obj 162 217 cyclone/snapshot~ 1;
#X connect 0 0 6 0;
#X connect 1 0 0 0;
#X connect 5 0 1 0;
#X connect 6 0 8 0;
#X connect 7 0 4 0;
#X connect 8 0 7 0;
#X connect 8 1 10 0;
#X connect 10 0 9 0;
#X restore 396 291 pd multichannel;
#X connect 8 0 10 0;
#X connect 9 0 8 0;
#X connect 10 0 11 0;
#X connect 11 0 18 0;
#X connect 18 0 19 0;
#X connect 23 0 21 0;
